  0
SECTION
  2
HEADER
  9
$ACADVER
  1
AC1009
  9
$DWGCODEPAGE
  3
ansi_1252
  9
$INSBASE
 10
0.0
 20
0.0
 30
0.0
  9
$EXTMIN
 10
0.0
 20
0.413091771210655
 30
0.0
  9
$EXTMAX
 10
3.611457777153106
 20
93.58690822878935
 30
0.0
  9
$LIMMIN
 10
0.0
 20
0.0
  9
$LIMMAX
 10
12.0
 20
9.0
  9
$ORTHOMODE
 70
     0
  9
$REGENMODE
 70
     1
  9
$FILLMODE
 70
     1
  9
$QTEXTMODE
 70
     0
  9
$MIRRTEXT
 70
     1
  9
$DRAGMODE
 70
     2
  9
$LTSCALE
 40
1.0
  9
$OSMODE
 70
    37
  9
$ATTMODE
 70
     1
  9
$TEXTSIZE
 40
0.2
  9
$TRACEWID
 40
0.05
  9
$TEXTSTYLE
  7
STANDARD
  9
$CLAYER
  8
0
  9
$CELTYPE
  6
BYLAYER
  9
$CECOLOR
 62
   256
  9
$DIMSCALE
 40
1.0
  9
$DIMASZ
 40
0.18
  9
$DIMEXO
 40
0.0625
  9
$DIMDLI
 40
0.38
  9
$DIMRND
 40
0.0
  9
$DIMDLE
 40
0.0
  9
$DIMEXE
 40
0.18
  9
$DIMTP
 40
0.0
  9
$DIMTM
 40
0.0
  9
$DIMTXT
 40
0.18
  9
$DIMCEN
 40
0.09
  9
$DIMTSZ
 40
0.0
  9
$DIMTOL
 70
     0
  9
$DIMLIM
 70
     0
  9
$DIMTIH
 70
     1
  9
$DIMTOH
 70
     1
  9
$DIMSE1
 70
     0
  9
$DIMSE2
 70
     0
  9
$DIMTAD
 70
     0
  9
$DIMZIN
 70
     0
  9
$DIMBLK
  1

  9
$DIMASO
 70
     1
  9
$DIMSHO
 70
     1
  9
$DIMPOST
  1

  9
$DIMAPOST
  1

  9
$DIMALT
 70
     0
  9
$DIMALTD
 70
     2
  9
$DIMALTF
 40
25.4
  9
$DIMLFAC
 40
1.0
  9
$DIMTOFL
 70
     0
  9
$DIMTVP
 40
0.0
  9
$DIMTIX
 70
     0
  9
$DIMSOXD
 70
     0
  9
$DIMSAH
 70
     0
  9
$DIMBLK1
  1

  9
$DIMBLK2
  1

  9
$DIMSTYLE
  2
STANDARD
  9
$DIMCLRD
 70
     0
  9
$DIMCLRE
 70
     0
  9
$DIMCLRT
 70
     0
  9
$DIMTFAC
 40
1.0
  9
$DIMGAP
 40
0.09
  9
$LUNITS
 70
     2
  9
$LUPREC
 70
     4
  9
$SKETCHINC
 40
0.1
  9
$FILLETRAD
 40
0.5
  9
$AUNITS
 70
     0
  9
$AUPREC
 70
     0
  9
$MENU
  1
.
  9
$ELEVATION
 40
0.0
  9
$PELEVATION
 40
0.0
  9
$THICKNESS
 40
0.0
  9
$LIMCHECK
 70
     0
  9
$CHAMFERA
 40
0.0
  9
$CHAMFERB
 40
0.0
  9
$SKPOLY
 70
     0
  9
$TDCREATE
 40
2454910.5
  9
$TDUPDATE
 40
2461252.041761817
  9
$TDINDWG
 40
0.0000000116
  9
$TDUSRTIMER
 40
0.0000000116
  9
$USRTIMER
 70
     1
  9
$ANGBASE
 50
0.0
  9
$ANGDIR
 70
     0
  9
$PDMODE
 70
     0
  9
$PDSIZE
 40
0.0
  9
$PLINEWID
 40
0.0
  9
$COORDS
 70
     1
  9
$SPLFRAME
 70
     0
  9
$SPLINETYPE
 70
     6
  9
$SPLINESEGS
 70
     8
  9
$ATTDIA
 70
     0
  9
$ATTREQ
 70
     1
  9
$HANDLING
 70
     1
  9
$HANDSEED
  5
4CD
  9
$SURFTAB1
 70
     6
  9
$SURFTAB2
 70
     6
  9
$SURFTYPE
 70
     6
  9
$SURFU
 70
     6
  9
$SURFV
 70
     6
  9
$UCSNAME
  2

  9
$UCSORG
 10
0.0
 20
0.0
 30
0.0
  9
$UCSXDIR
 10
1.0
 20
0.0
 30
0.0
  9
$UCSYDIR
 10
0.0
 20
1.0
 30
0.0
  9
$PUCSNAME
  2

  9
$PUCSORG
 10
0.0
 20
0.0
 30
0.0
  9
$PUCSXDIR
 10
1.0
 20
0.0
 30
0.0
  9
$PUCSYDIR
 10
0.0
 20
1.0
 30
0.0
  9
$USERI1
 70
     0
  9
$USERI2
 70
     0
  9
$USERI3
 70
     0
  9
$USERI4
 70
     0
  9
$USERI5
 70
     0
  9
$USERR1
 40
0.0
  9
$USERR2
 40
0.0
  9
$USERR3
 40
0.0
  9
$USERR4
 40
0.0
  9
$USERR5
 40
0.0
  9
$WORLDVIEW
 70
     1
  9
$SHADEDGE
 70
     3
  9
$SHADEDIF
 70
    70
  9
$TILEMODE
 70
     1
  9
$MAXACTVP
 70
    64
  9
$PLIMCHECK
 70
     0
  9
$PEXTMIN
 10
1.000000000000000E+20
 20
1.000000000000000E+20
 30
1.000000000000000E+20
  9
$PEXTMAX
 10
-1.000000000000000E+20
 20
-1.000000000000000E+20
 30
-1.000000000000000E+20
  9
$PLIMMIN
 10
0.0
 20
0.0
  9
$PLIMMAX
 10
12.0
 20
9.0
  9
$UNITMODE
 70
     0
  9
$VISRETAIN
 70
     1
  9
$PLINEGEN
 70
     0
  9
$PSLTSCALE
 70
     1
  0
ENDSEC
  0
SECTION
  2
TABLES
  0
TABLE
  2
VPORT
 70
     1
  0
VPORT
  2
*ACTIVE
 70
     0
 10
0.0
 20
0.0
 11
1.0
 21
1.0
 12
10.42990654205607
 22
4.5
 13
0.0
 23
0.0
 14
0.5
 24
0.5
 15
0.5
 25
0.5
 16
0.0
 26
0.0
 36
1.0
 17
0.0
 27
0.0
 37
0.0
 40
9.0
 41
1.972972972850329
 42
50.0
 43
0.0
 44
0.0
 50
0.0
 51
0.0
 71
     0
 72
   100
 73
     1
 74
     3
 75
     0
 76
     0
 77
     0
 78
     0
  0
ENDTAB
  0
TABLE
  2
LTYPE
 70
     2
  0
LTYPE
  2
CONTINUOUS
 70
     0
  3
Solid line
 72
    65
 73
     0
 40
0.0
  0
LTYPE
  2
CONTINUOUS2
 70
     0
  3
Solid Line
 72
    65
 73
     0
 40
0.0
  0
ENDTAB
  0
TABLE
  2
LAYER
 70
     5
  0
LAYER
  2
0
 70
     0
 62
     7
  6
CONTINUOUS
  0
LAYER
  2
PART_LETTERS
 70
     0
 62
    18
  6
CONTINUOUS
  0
LAYER
  2
T8_DRILL
 70
     0
 62
    18
  6
CONTINUOUS
  0
LAYER
  2
T3_PROFILE_INSIDE
 70
     0
 62
    18
  6
CONTINUOUS
  0
LAYER
  2
T5_BEVEL_0_1
 70
     0
 62
    18
  6
CONTINUOUS
  0
ENDTAB
  0
TABLE
  2
STYLE
 70
     1
  0
STYLE
  2
STANDARD
 70
     0
 40
0.0
 41
1.0
 50
0.0
 71
     0
 42
0.2
  3
txt
  4

  0
ENDTAB
  0
TABLE
  2
VIEW
 70
     0
  0
ENDTAB
  0
TABLE
  2
UCS
 70
     0
  0
ENDTAB
  0
TABLE
  2
APPID
 70
     1
  0
APPID
  2
ACAD
 70
     0
  0
ENDTAB
  0
TABLE
  2
DIMSTYLE
 70
     1
  0
DIMSTYLE
  2
STANDARD
 70
     0
  3

  4

  5

  6

  7

 40
1.0
 41
0.18
 42
0.0625
 43
0.38
 44
0.18
 45
0.0
 46
0.0
 47
0.0
 48
0.0
140
0.18
141
0.09
142
0.0
143
25.4
144
1.0
145
0.0
146
1.0
147
0.09
 71
     0
 72
     0
 73
     1
 74
     1
 75
     0
 76
     0
 77
     0
 78
     0
170
     0
171
     2
172
     0
173
     0
174
     0
175
     0
176
     0
177
     0
178
     0
  0
ENDTAB
  0
ENDSEC
  0
SECTION
  2
BLOCKS
  0
BLOCK
  8
0
  2
$MODEL_SPACE
 70
     0
 10
0.0
 20
0.0
 30
0.0
  3
$MODEL_SPACE
  1

  0
ENDBLK
  5
21
  8
0
  0
BLOCK
 67
     1
  8
0
  2
$PAPER_SPACE
 70
     0
 10
0.0
 20
0.0
 30
0.0
  3
$PAPER_SPACE
  1

  0
ENDBLK
  5
1D
 67
     1
  8
0
  0
ENDSEC
  0
SECTION
  2
ENTITIES
  0
POLYLINE
  5
70
  8
PART_LETTERS
 66
     1
 10
0.0
 20
0.0
 30
0.0
 70
     1
  0
VERTEX
  5
87
  8
PART_LETTERS
 10
0.4818031408557671
 20
32.04376107636168
 30
0.0
  0
VERTEX
  5
88
  8
PART_LETTERS
 10
0.8898419539526292
 20
32.06932267254177
 30
0.0
  0
VERTEX
  5
89
  8
PART_LETTERS
 10
0.8935844793192731
 20
32.04521075021911
 30
0.0
  0
VERTEX
  5
8A
  8
PART_LETTERS
 10
0.8981849749280726
 20
32.02257808693467
 30
0.0
  0
VERTEX
  5
8B
  8
PART_LETTERS
 10
0.9008069615732807
 20
32.01181647743177
 30
0.0
  0
VERTEX
  5
8C
  8
PART_LETTERS
 10
0.9036434407790277
 20
32.00142468268842
 30
0.0
  0
VERTEX
  5
8D
  8
PART_LETTERS
 10
0.9066944125453135
 20
31.99140270270463
 30
0.0
  0
VERTEX
  5
8E
  8
PART_LETTERS
 10
0.9099598768721382
 20
31.98175053748037
 30
0.0
  0
VERTEX
  5
8F
  8
PART_LETTERS
 10
0.9134398337595018
 20
31.97246818701567
 30
0.0
  0
VERTEX
  5
90
  8
PART_LETTERS
 10
0.9171342832074043
 20
31.96355565131052
 30
0.0
  0
VERTEX
  5
91
  8
PART_LETTERS
 10
0.9210432252158456
 20
31.95501293036492
 30
0.0
  0
VERTEX
  5
92
  8
PART_LETTERS
 10
0.9251666597848258
 20
31.94684002417887
 30
0.0
  0
VERTEX
  5
93
  8
PART_LETTERS
 10
0.9295045869143449
 20
31.93903693275237
 30
0.0
  0
VERTEX
  5
94
  8
PART_LETTERS
 10
0.9340570066044029
 20
31.93160365608542
 30
0.0
  0
VERTEX
  5
95
  8
PART_LETTERS
 10
0.9388239188549997
 20
31.92454019417802
 30
0.0
  0
VERTEX
  5
96
  8
PART_LETTERS
 10
0.9438053236661355
 20
31.91784654703017
 30
0.0
  0
VERTEX
  5
97
  8
PART_LETTERS
 10
0.9523110631357807
 20
31.90764335781419
 30
0.0
  0
VERTEX
  5
98
  8
PART_LETTERS
 10
0.9612605803168858
 20
31.89809843887021
 30
0.0
  0
VERTEX
  5
99
  8
PART_LETTERS
 10
0.9706538752094506
 20
31.88921179019823
 30
0.0
  0
VERTEX
  5
9A
  8
PART_LETTERS
 10
0.9804909478134751
 20
31.88098341179825
 30
0.0
  0
VERTEX
  5
9B
  8
PART_LETTERS
 10
0.9907717981289594
 20
31.87341330367026
 30
0.0
  0
VERTEX
  5
9C
  8
PART_LETTERS
 10
1.001496426155903
 20
31.86650146581428
 30
0.0
  0
VERTEX
  5
9D
  8
PART_LETTERS
 10
1.012664831894307
 20
31.86024789823029
 30
0.0
  0
VERTEX
  5
9E
  8
PART_LETTERS
 10
1.024277015344171
 20
31.8546526009183
 30
0.0
  0
VERTEX
  5
9F
  8
PART_LETTERS
 10
1.036332976505494
 20
31.84971557387831
 30
0.0
  0
VERTEX
  5
A0
  8
PART_LETTERS
 10
1.048832715378277
 20
31.84543681711032
 30
0.0
  0
VERTEX
  5
A1
  8
PART_LETTERS
 10
1.06177623196252
 20
31.84181633061433
 30
0.0
  0
VERTEX
  5
A2
  8
PART_LETTERS
 10
1.075163526258223
 20
31.83885411439033
 30
0.0
  0
VERTEX
  5
A3
  8
PART_LETTERS
 10
1.088994598265385
 20
31.83655016843834
 30
0.0
  0
VERTEX
  5
A4
  8
PART_LETTERS
 10
1.103269447984007
 20
31.83490449275834
 30
0.0
  0
VERTEX
  5
A5
  8
PART_LETTERS
 10
1.117988075414089
 20
31.83391708735034
 30
0.0
  0
VERTEX
  5
A6
  8
PART_LETTERS
 10
1.133150480555631
 20
31.83358795221434
 30
0.0
  0
VERTEX
  5
A7
  8
PART_LETTERS
 10
1.144464963124057
 20
31.83375621792994
 30
0.0
  0
VERTEX
  5
A8
  8
PART_LETTERS
 10
1.155450310556484
 20
31.83426101507673
 30
0.0
  0
VERTEX
  5
A9
  8
PART_LETTERS
 10
1.166106522852911
 20
31.8351023436547
 30
0.0
  0
VERTEX
  5
AA
  8
PART_LETTERS
 10
1.176433600013339
 20
31.83628020366387
 30
0.0
  0
VERTEX
  5
AB
  8
PART_LETTERS
 10
1.186431542037768
 20
31.83779459510423
 30
0.0
  0
VERTEX
  5
AC
  8
PART_LETTERS
 10
1.196100348926197
 20
31.83964551797577
 30
0.0
  0
VERTEX
  5
AD
  8
PART_LETTERS
 10
1.205440020678627
 20
31.84183297227851
 30
0.0
  0
VERTEX
  5
AE
  8
PART_LETTERS
 10
1.214450557295058
 20
31.84435695801243
 30
0.0
  0
VERTEX
  5
AF
  8
PART_LETTERS
 10
1.223131958775489
 20
31.84721747517755
 30
0.0
  0
VERTEX
  5
B0
  8
PART_LETTERS
 10
1.231484225119921
 20
31.85041452377386
 30
0.0
  0
VERTEX
  5
B1
  8
PART_LETTERS
 10
1.239507356328354
 20
31.85394810380136
 30
0.0
  0
VERTEX
  5
B2
  8
PART_LETTERS
 10
1.247201352400787
 20
31.85781821526005
 30
0.0
  0
VERTEX
  5
B3
  8
PART_LETTERS
 10
1.254566213337222
 20
31.86202485814993
 30
0.0
  0
VERTEX
  5
B4
  8
PART_LETTERS
 10
1.261601939137657
 20
31.866568032471
 30
0.0
  0
VERTEX
  5
B5
  8
PART_LETTERS
 10
1.268308529802092
 20
31.87144773822326
 30
0.0
  0
VERTEX
  5
B6
  8
PART_LETTERS
 10
1.274685985330528
 20
31.8766639754067
 30
0.0
  0
VERTEX
  5
B7
  8
PART_LETTERS
 10
1.280704720542201
 20
31.88210210144588
 30
0.0
  0
VERTEX
  5
B8
  8
PART_LETTERS
 10
1.286335150256347
 20
31.88764747376533
 30
0.0
  0
VERTEX
  5
B9
  8
PART_LETTERS
 10
1.291577274472965
 20
31.89330009236505
 30
0.0
  0
VERTEX
  5
BA
  8
PART_LETTERS
 10
1.296431093192056
 20
31.89905995724504
 30
0.0
  0
VERTEX
  5
BB
  8
PART_LETTERS
 10
1.30089660641362
 20
31.9049270684053
 30
0.0
  0
VERTEX
  5
BC
  8
PART_LETTERS
 10
1.304973814137657
 20
31.91090142584583
 30
0.0
  0
VERTEX
  5
BD
  8
PART_LETTERS
 10
1.308662716364166
 20
31.91698302956662
 30
0.0
  0
VERTEX
  5
BE
  8
PART_LETTERS
 10
1.311963313093148
 20
31.92317187956769
 30
0.0
  0
VERTEX
  5
BF
  8
PART_LETTERS
 10
1.314875604324602
 20
31.92946797584903
 30
0.0
  0
VERTEX
  5
C0
  8
PART_LETTERS
 10
1.31739959005853
 20
31.93587131841063
 30
0.0
  0
VERTEX
  5
C1
  8
PART_LETTERS
 10
1.31953527029493
 20
31.9423819072525
 30
0.0
  0
VERTEX
  5
C2
  8
PART_LETTERS
 10
1.321282645033802
 20
31.94899974237465
 30
0.0
  0
VERTEX
  5
C3
  8
PART_LETTERS
 10
1.322641714275148
 20
31.95572482377706
 30
0.0
  0
VERTEX
  5
C4
  8
PART_LETTERS
 10
1.323612478018966
 20
31.96255715145974
 30
0.0
  0
VERTEX
  5
C5
  8
PART_LETTERS
 10
1.324194936265257
 20
31.9694967254227
 30
0.0
  0
VERTEX
  5
C6
  8
PART_LETTERS
 10
1.324389089014021
 20
31.97654354566592
 30
0.0
  0
VERTEX
  5
C7
  8
PART_LETTERS
 10
1.324204181634246
 20
31.98324458910896
 30
0.0
  0
VERTEX
  5
C8
  8
PART_LETTERS
 10
1.323649459494921
 20
31.98985687700971
 30
0.0
  0
VERTEX
  5
C9
  8
PART_LETTERS
 10
1.322724922596047
 20
31.99638040936816
 30
0.0
  0
VERTEX
  5
CA
  8
PART_LETTERS
 10
1.321430570937622
 20
32.00281518618434
 30
0.0
  0
VERTEX
  5
CB
  8
PART_LETTERS
 10
1.319766404519648
 20
32.00916120745822
 30
0.0
  0
VERTEX
  5
CC
  8
PART_LETTERS
 10
1.317732423342124
 20
32.0154184731898
 30
0.0
  0
VERTEX
  5
CD
  8
PART_LETTERS
 10
1.315328627405051
 20
32.02158698337909
 30
0.0
  0
VERTEX
  5
CE
  8
PART_LETTERS
 10
1.312555016708427
 20
32.02766673802608
 30
0.0
  0
VERTEX
  5
CF
  8
PART_LETTERS
 10
1.309411591252254
 20
32.0336577371308
 30
0.0
  0
VERTEX
  5
D0
  8
PART_LETTERS
 10
1.305898351036531
 20
32.03955998069321
 30
0.0
  0
VERTEX
  5
D1
  8
PART_LETTERS
 10
1.302015296061258
 20
32.04537346871334
 30
0.0
  0
VERTEX
  5
D2
  8
PART_LETTERS
 10
1.297762426326436
 20
32.05109820119116
 30
0.0
  0
VERTEX
  5
D3
  8
PART_LETTERS
 10
1.293139741832063
 20
32.0567341781267
 30
0.0
  0
VERTEX
  5
D4
  8
PART_LETTERS
 10
1.288147242578141
 20
32.06228139951995
 30
0.0
  0
VERTEX
  5
D5
  8
PART_LETTERS
 10
1.282784928564669
 20
32.0677398653709
 30
0.0
  0
VERTEX
  5
D6
  8
PART_LETTERS
 10
1.277052799791647
 20
32.07310957567956
 30
0.0
  0
VERTEX
  5
D7
  8
PART_LETTERS
 10
1.270647608156244
 20
32.07841641747909
 30
0.0
  0
VERTEX
  5
D8
  8
PART_LETTERS
 10
1.263266105555631
 20
32.08368627780268
 30
0.0
  0
VERTEX
  5
D9
  8
PART_LETTERS
 10
1.254908291989805
 20
32.08891915665031
 30
0.0
  0
VERTEX
  5
DA
  8
PART_LETTERS
 10
1.245574167458769
 20
32.09411505402198
 30
0.0
  0
VERTEX
  5
DB
  8
PART_LETTERS
 10
1.23526373196252
 20
32.0992739699177
 30
0.0
  0
VERTEX
  5
DC
  8
PART_LETTERS
 10
1.22397698550106
 20
32.10439590433747
 30
0.0
  0
VERTEX
  5
DD
  8
PART_LETTERS
 10
1.211713928074389
 20
32.10948085728128
 30
0.0
  0
VERTEX
  5
DE
  8
PART_LETTERS
 10
1.198474559682507
 20
32.11452882874914
 30
0.0
  0
VERTEX
  5
DF
  8
PART_LETTERS
 10
1.184258880325412
 20
32.11953981874104
 30
0.0
  0
VERTEX
  5
E0
  8
PART_LETTERS
 10
1.169066890003107
 20
32.12451382725699
 30
0.0
  0
VERTEX
  5
E1
  8
PART_LETTERS
 10
1.15289858871559
 20
32.12945085429698
 30
0.0
  0
VERTEX
  5
E2
  8
PART_LETTERS
 10
1.135753976462861
 20
32.134350899861
 30
0.0
  0
VERTEX
  5
E3
  8
PART_LETTERS
 10
1.09853581906177
 20
32.14404004656122
 30
0.0
  0
VERTEX
  5
E4
  8
PART_LETTERS
 10
1.057412417799833
 20
32.15358126735759
 30
0.0
  0
VERTEX
  5
E5
  8
PART_LETTERS
 10
1.022779265567994
 20
32.16167281429654
 30
0.0
  0
VERTEX
  5
E6
  8
PART_LETTERS
 10
0.9894108798138161
 20
32.17008979822389
 30
0.0
  0
VERTEX
  5
E7
  8
PART_LETTERS
 10
0.9573072605372984
 20
32.17883221913965
 30
0.0
  0
VERTEX
  5
E8
  8
PART_LETTERS
 10
0.9264684077384411
 20
32.18790007704381
 30
0.0
  0
VERTEX
  5
E9
  8
PART_LETTERS
 10
0.896894321417244
 20
32.19729337193638
 30
0.0
  0
VERTEX
  5
EA
  8
PART_LETTERS
 10
0.8685850015737071
 20
32.20701210381735
 30
0.0
  0
VERTEX
  5
EB
  8
PART_LETTERS
 10
0.8415404482078306
 20
32.21705627268673
 30
0.0
  0
VERTEX
  5
EC
  8
PART_LETTERS
 10
0.8157606613196143
 20
32.2274258785445
 30
0.0
  0
VERTEX
  5
ED
  8
PART_LETTERS
 10
0.7912456409090584
 20
32.23812092139069
 30
0.0
  0
VERTEX
  5
EE
  8
PART_LETTERS
 10
0.7679953869761627
 20
32.24914140122526
 30
0.0
  0
VERTEX
  5
EF
  8
PART_LETTERS
 10
0.7460098995209274
 20
32.26048731804825
 30
0.0
  0
VERTEX
  5
F0
  8
PART_LETTERS
 10
0.7252891785433524
 20
32.27215867185964
 30
0.0
  0
VERTEX
  5
F1
  8
PART_LETTERS
 10
0.7058332240434376
 20
32.28415546265944
 30
0.0
  0
VERTEX
  5
F2
  8
PART_LETTERS
 10
0.6876420360211831
 20
32.29647769044763
 30
0.0
  0
VERTEX
  5
F3
  8
PART_LETTERS
 10
0.670715614476589
 20
32.30912535522424
 30
0.0
  0
VERTEX
  5
F4
  8
PART_LETTERS
 10
0.6550539594096552
 20
32.32209845698925
 30
0.0
  0
VERTEX
  5
F5
  8
PART_LETTERS
 10
0.6403797097507192
 20
32.33545986425177
 30
0.0
  0
VERTEX
  5
F6
  8
PART_LETTERS
 10
0.6266521858762308
 20
32.34927244552097
 30
0.0
  0
VERTEX
  5
F7
  8
PART_LETTERS
 10
0.6138713877861899
 20
32.3635362007968
 30
0.0
  0
VERTEX
  5
F8
  8
PART_LETTERS
 10
0.6020373154805965
 20
32.37825113007928
 30
0.0
  0
VERTEX
  5
F9
  8
PART_LETTERS
 10
0.5911499689594506
 20
32.39341723336842
 30
0.0
  0
VERTEX
  5
FA
  8
PART_LETTERS
 10
0.581209348222752
 20
32.40903451066421
 30
0.0
  0
VERTEX
  5
FB
  8
PART_LETTERS
 10
0.572215453270501
 20
32.42510296196665
 30
0.0
  0
VERTEX
  5
FC
  8
PART_LETTERS
 10
0.5641682841026975
 20
32.44162258727574
 30
0.0
  0
VERTEX
  5
FD
  8
PART_LETTERS
 10
0.5570678407193415
 20
32.45859338659147
 30
0.0
  0
VERTEX
  5
FE
  8
PART_LETTERS
 10
0.5509141231204329
 20
32.47601535991387
 30
0.0
  0
VERTEX
  5
FF
  8
PART_LETTERS
 10
0.5457071313059717
 20
32.49388850724291
 30
0.0
  0
VERTEX
  5
100
  8
PART_LETTERS
 10
0.5414468652759581
 20
32.5122128285786
 30
0.0
  0
VERTEX
  5
101
  8
PART_LETTERS
 10
0.5381333250303919
 20
32.53098832392095
 30
0.0
  0
VERTEX
  5
102
  8
PART_LETTERS
 10
0.5357665105692733
 20
32.55021499326995
 30
0.0
  0
VERTEX
  5
103
  8
PART_LETTERS
 10
0.534346421892602
 20
32.56989283662558
 30
0.0
  0
VERTEX
  5
104
  8
PART_LETTERS
 10
0.5338730590003783
 20
32.59002185398788
 30
0.0
  0
VERTEX
  5
105
  8
PART_LETTERS
 10
0.5341152876678834
 20
32.60334812884825
 30
0.0
  0
VERTEX
  5
106
  8
PART_LETTERS
 10
0.5348419736703987
 20
32.61658195001874
 30
0.0
  0
VERTEX
  5
107
  8
PART_LETTERS
 10
0.5360531170079242
 20
32.62972331749935
 30
0.0
  0
VERTEX
  5
108
  8
PART_LETTERS
 10
0.5377487176804601
 20
32.64277223129006
 30
0.0
  0
VERTEX
  5
109
  8
PART_LETTERS
 10
0.5399287756880061
 20
32.65572869139088
 30
0.0
  0
VERTEX
  5
10A
  8
PART_LETTERS
 10
0.5425932910305624
 20
32.66859269780183
 30
0.0
  0
VERTEX
  5
10B
  8
PART_LETTERS
 10
0.545742263708129
 20
32.68136425052288
 30
0.0
  0
VERTEX
  5
10C
  8
PART_LETTERS
 10
0.5493756937207057
 20
32.69404334955404
 30
0.0
  0
VERTEX
  5
10D
  8
PART_LETTERS
 10
0.5534935810682927
 20
32.70662999489532
 30
0.0
  0
VERTEX
  5
10E
  8
PART_LETTERS
 10
0.55809592575089
 20
32.71912418654671
 30
0.0
  0
VERTEX
  5
10F
  8
PART_LETTERS
 10
0.5631827277684973
 20
32.73152592450821
 30
0.0
  0
VERTEX
  5
110
  8
PART_LETTERS
 10
0.5687539871211149
 20
32.74383520877983
 30
0.0
  0
VERTEX
  5
111
  8
PART_LETTERS
 10
0.5748097038087429
 20
32.75605203936156
 30
0.0
  0
VERTEX
  5
112
  8
PART_LETTERS
 10
0.581349877831381
 20
32.7681764162534
 30
0.0
  0
VERTEX
  5
113
  8
PART_LETTERS
 10
0.5883745091890294
 20
32.78020833945535
 30
0.0
  0
VERTEX
  5
114
  8
PART_LETTERS
 10
0.595883597881688
 20
32.79214780896741
 30
0.0
  0
VERTEX
  5
115
  8
PART_LETTERS
 10
0.6038789929831545
 20
32.80388203128793
 30
0.0
  0
VERTEX
  5
116
  8
PART_LETTERS
 10
0.6123625435672269
 20
32.81529821291522
 30
0.0
  0
VERTEX
  5
117
  8
PART_LETTERS
 10
0.6213342496339049
 20
32.82639635384932
 30
0.0
  0
VERTEX
  5
118
  8
PART_LETTERS
 10
0.6307941111831887
 20
32.8371764540902
 30
0.0
  0
VERTEX
  5
119
  8
PART_LETTERS
 10
0.6407421282150783
 20
32.84763851363786
 30
0.0
  0
VERTEX
  5
11A
  8
PART_LETTERS
 10
0.6511783007295733
 20
32.85778253249231
 30
0.0
  0
VERTEX
  5
11B
  8
PART_LETTERS
 10
0.6621026287266742
 20
32.86760851065355
 30
0.0
  0
VERTEX
  5
11C
  8
PART_LETTERS
 10
0.6735151122063809
 20
32.87711644812157
 30
0.0
  0
VERTEX
  5
11D
  8
PART_LETTERS
 10
0.6854157511686934
 20
32.88630634489638
 30
0.0
  0
VERTEX
  5
11E
  8
PART_LETTERS
 10
0.6978045456136115
 20
32.89517820097798
 30
0.0
  0
VERTEX
  5
11F
  8
PART_LETTERS
 10
0.7106814955411354
 20
32.90373201636638
 30
0.0
  0
VERTEX
  5
120
  8
PART_LETTERS
 10
0.7240466009512649
 20
32.91196779106155
 30
0.0
  0
VERTEX
  5
121
  8
PART_LETTERS
 10
0.7378998618440002
 20
32.91988552506351
 30
0.0
  0
VERTEX
  5
122
  8
PART_LETTERS
 10
0.7522412782193415
 20
32.92748521837225
 30
0.0
  0
VERTEX
  5
123
  8
PART_LETTERS
 10
0.7670708500772883
 20
32.93476687098779
 30
0.0
  0
VERTEX
  5
124
  8
PART_LETTERS
 10
0.7823885774178407
 20
32.94173048291012
 30
0.0
  0
VERTEX
  5
125
  8
PART_LETTERS
 10
0.7983109518902571
 20
32.9483224309991
 30
0.0
  0
VERTEX
  5
126
  8
PART_LETTERS
 10
0.8149544651437959
 20
32.95448909211458
 30
0.0
  0
VERTEX
  5
127
  8
PART_LETTERS
 10
0.8323191171784565
 20
32.9602304662566
 30
0.0
  0
VERTEX
  5
128
  8
PART_LETTERS
 10
0.8504049079942393
 20
32.96554655342513
 30
0.0
  0
VERTEX
  5
129
  8
PART_LETTERS
 10
0.8692118375911442
 20
32.97043735362017
 30
0.0
  0
VERTEX
  5
12A
  8
PART_LETTERS
 10
0.888739905969171
 20
32.97490286684173
 30
0.0
  0
VERTEX
  5
12B
  8
PART_LETTERS
 10
0.9089891131283201
 20
32.97894309308982
 30
0.0
  0
VERTEX
  5
12C
  8
PART_LETTERS
 10
0.9299594590685911
 20
32.98255803236442
 30
0.0
  0
VERTEX
  5
12D
  8
PART_LETTERS
 10
0.9516509437899843
 20
32.98574768466553
 30
0.0
  0
VERTEX
  5
12E
  8
PART_LETTERS
 10
0.9740635672924997
 20
32.98851204999316
 30
0.0
  0
VERTEX
  5
12F
  8
PART_LETTERS
 10
0.997197329576137
 20
32.99085112834732
 30
0.0
  0
VERTEX
  5
130
  8
PART_LETTERS
 10
1.021052230640897
 20
32.99276491972799
 30
0.0
  0
VERTEX
  5
131
  8
PART_LETTERS
 10
1.045628270486778
 20
32.99425342413518
 30
0.0
  0
VERTEX
  5
132
  8
PART_LETTERS
 10
1.070925449113782
 20
32.99531664156888
 30
0.0
  0
VERTEX
  5
133
  8
PART_LETTERS
 10
1.096943766521908
 20
32.99595457202911
 30
0.0
  0
VERTEX
  5
134
  8
PART_LETTERS
 10
1.123683222711156
 20
32.99616721551585
 30
0.0
  0
VERTEX
  5
135
  8
PART_LETTERS
 10
1.156443263185874
 20
32.99578075909211
 30
0.0
  0
VERTEX
  5
136
  8
PART_LETTERS
 10
1.188215898252595
 20
32.99462138982093
 30
0.0
  0
VERTEX
  5
137
  8
PART_LETTERS
 10
1.219001127911318
 20
32.99268910770228
 30
0.0
  0
VERTEX
  5
138
  8
PART_LETTERS
 10
1.248798952162043
 20
32.98998391273617
 30
0.0
  0
VERTEX
  5
139
  8
PART_LETTERS
 10
1.27760937100477
 20
32.9865058049226
 30
0.0
  0
VERTEX
  5
13A
  8
PART_LETTERS
 10
1.305432384439498
 20
32.98225478426158
 30
0.0
  0
VERTEX
  5
13B
  8
PART_LETTERS
 10
1.33226799246623
 20
32.9772308507531
 30
0.0
  0
VERTEX
  5
13C
  8
PART_LETTERS
 10
1.358116195084962
 20
32.97143400439715
 30
0.0
  0
VERTEX
  5
13D
  8
PART_LETTERS
 10
1.382976992295697
 20
32.96486424519375
 30
0.0
  0
VERTEX
  5
13E
  8
PART_LETTERS
 10
1.406850384098434
 20
32.9575215731429
 30
0.0
  0
VERTEX
  5
13F
  8
PART_LETTERS
 10
1.429736370493174
 20
32.94940598824458
 30
0.0
  0
VERTEX
  5
140
  8
PART_LETTERS
 10
1.451634951479915
 20
32.9405174904988
 30
0.0
  0
VERTEX
  5
141
  8
PART_LETTERS
 10
1.472546127058658
 20
32.93085607990557
 30
0.0
  0
VERTEX
  5
142
  8
PART_LETTERS
 10
1.492469897229403
 20
32.92042175646487
 30
0.0
  0
VERTEX
  5
143
  8
PART_LETTERS
 10
1.51140626199215
 20
32.90921452017671
 30
0.0
  0
VERTEX
  5
144
  8
PART_LETTERS
 10
1.529355221346899
 20
32.89723437104109
 30
0.0
  0
VERTEX
  5
145
  8
PART_LETTERS
 10
1.537972367512859
 20
32.8909368879544
 30
0.0
  0
VERTEX
  5
146
  8
PART_LETTERS
 10
1.546368549359988
 20
32.88441104425369
 30
0.0
  0
VERTEX
  5
147
  8
PART_LETTERS
 10
1.554543766888285
 20
32.87765683993896
 30
0.0
  0
VERTEX
  5
148
  8
PART_LETTERS
 10
1.562498020097752
 20
32.87067427501022
 30
0.0
  0
VERTEX
  5
149
  8
PART_LETTERS
 10
1.570231308988387
 20
32.86346334946744
 30
0.0
  0
VERTEX
  5
14A
  8
PART_LETTERS
 10
1.577743633560192
 20
32.85602406331066
 30
0.0
  0
VERTEX
  5
14B
  8
PART_LETTERS
 10
1.585034993813166
 20
32.84835641653984
 30
0.0
  0
VERTEX
  5
14C
  8
PART_LETTERS
 10
1.592105389747309
 20
32.840460409155
 30
0.0
  0
VERTEX
  5
14D
  8
PART_LETTERS
 10
1.59895482136262
 20
32.83233604115613
 30
0.0
  0
VERTEX
  5
14E
  8
PART_LETTERS
 10
1.605583288659101
 20
32.82398331254326
 30
0.0
  0
VERTEX
  5
14F
  8
PART_LETTERS
 10
1.61199079163675
 20
32.81540222331635
 30
0.0
  0
VERTEX
  5
150
  8
PART_LETTERS
 10
1.618177330295569
 20
32.80659277347543
 30
0.0
  0
VERTEX
  5
151
  8
PART_LETTERS
 10
1.624142904635557
 20
32.79755496302047
 30
0.0
  0
VERTEX
  5
152
  8
PART_LETTERS
 10
1.629887514656713
 20
32.78828879195151
 30
0.0
  0
VERTEX
  5
153
  8
PART_LETTERS
 10
1.635411160359039
 20
32.77879426026851
 30
0.0
  0
VERTEX
  5
154
  8
PART_LETTERS
 10
1.640713841742534
 20
32.76907136797151
 30
0.0
  0
VERTEX
  5
155
  8
PART_LETTERS
 10
1.65065631155303
 20
32.74894050153542
 30
0.0
  0
VERTEX
  5
156
  8
PART_LETTERS
 10
1.659714924088202
 20
32.72789619264323
 30
0.0
  0
VERTEX
  5
157
  8
PART_LETTERS
 10
1.667889679348051
 20
32.70593844129496
 30
0.0
  0
VERTEX
  5
158
  8
PART_LETTERS
 10
1.675180577332575
 20
32.68306724749061
 30
0.0
  0
VERTEX
  5
159
  8
PART_LETTERS
 10
1.681587618041775
 20
32.65928261123017
 30
0.0
  0
VERTEX
  5
15A
  8
PART_LETTERS
 10
1.687110801475651
 20
32.63458453251363
 30
0.0
  0
VERTEX
  5
15B
  8
PART_LETTERS
 10
1.691750127634204
 20
32.60897301134101
 30
0.0
  0
VERTEX
  5
15C
  8
PART_LETTERS
 10
1.695505596517431
 20
32.5824480477123
 30
0.0
  0
VERTEX
  5
15D
  8
PART_LETTERS
 10
1.291253686558359
 20
32.55877990310111
 30
0.0
  0
VERTEX
  5
15E
  8
PART_LETTERS
 10
1.289103213731577
 20
32.57029593471349
 30
0.0
  0
VERTEX
  5
15F
  8
PART_LETTERS
 10
1.286675379835133
 20
32.58141256638555
 30
0.0
  0
VERTEX
  5
160
  8
PART_LETTERS
 10
1.283970184869026
 20
32.59212979811731
 30
0.0
  0
VERTEX
  5
161
  8
PART_LETTERS
 10
1.280987628833257
 20
32.60244762990875
 30
0.0
  0
VERTEX
  5
162
  8
PART_LETTERS
 10
1.277727711727825
 20
32.61236606175986
 30
0.0
  0
VERTEX
  5
163
  8
PART_LETTERS
 10
1.274190433552731
 20
32.62188509367068
 30
0.0
  0
VERTEX
  5
164
  8
PART_LETTERS
 10
1.270375794307975
 20
32.63100472564118
 30
0.0
  0
VERTEX
  5
165
  8
PART_LETTERS
 10
1.266283793993557
 20
32.63972495767137
 30
0.0
  0
VERTEX
  5
166
  8
PART_LETTERS
 10
1.261914432609476
 20
32.64804578976124
 30
0.0
  0
VERTEX
  5
167
  8
PART_LETTERS
 10
1.257267710155733
 20
32.6559672219108
 30
0.0
  0
VERTEX
  5
168
  8
PART_LETTERS
 10
1.252343626632328
 20
32.66348925412004
 30
0.0
  0
VERTEX
  5
169
  8
PART_LETTERS
 10
1.24714218203926
 20
32.67061188638897
 30
0.0
  0
VERTEX
  5
16A
  8
PART_LETTERS
 10
1.241663376376529
 20
32.67733511871759
 30
0.0
  0
VERTEX
  5
16B
  8
PART_LETTERS
 10
1.235907209644137
 20
32.68365895110588
 30
0.0
  0
VERTEX
  5
16C
  8
PART_LETTERS
 10
1.229873681842082
 20
32.68958338355388
 30
0.0
  0
VERTEX
  5
16D
  8
PART_LETTERS
 10
1.223562792970365
 20
32.69510841606155
 30
0.0
  0
VERTEX
  5
16E
  8
PART_LETTERS
 10
1.216959750438603
 20
32.70026733195727
 30
0.0
  0
VERTEX
  5
16F
  8
PART_LETTERS
 10
1.210049761656415
 20
32.70509341456939
 30
0.0
  0
VERTEX
  5
170
  8
PART_LETTERS
 10
1.202832826623801
 20
32.70958666389792
 30
0.0
  0
VERTEX
  5
171
  8
PART_LETTERS
 10
1.19530894534076
 20
32.71374707994286
 30
0.0
  0
VERTEX
  5
172
  8
PART_LETTERS
 10
1.187478117807293
 20
32.71757466270419
 30
0.0
  0
VERTEX
  5
173
  8
PART_LETTERS
 10
1.1793403440234
 20
32.72106941218194
 30
0.0
  0
VERTEX
  5
174
  8
PART_LETTERS
 10
1.170895623989081
 20
32.7242313283761
 30
0.0
  0
VERTEX
  5
175
  8
PART_LETTERS
 10
1.162143957704335
 20
32.72706041128665
 30
0.0
  0
VERTEX
  5
176
  8
PART_LETTERS
 10
1.153085345169163
 20
32.72955666091361
 30
0.0
  0
VERTEX
  5
177
  8
PART_LETTERS
 10
1.143719786383564
 20
32.73172007725697
 30
0.0
  0
VERTEX
  5
178
  8
PART_LETTERS
 10
1.134047281347539
 20
32.73355066031675
 30
0.0
  0
VERTEX
  5
179
  8
PART_LETTERS
 10
1.124067830061088
 20
32.73504841009293
 30
0.0
  0
VERTEX
  5
17A
  8
PART_LETTERS
 10
1.11378143252421
 20
32.73621332658551
 30
0.0
  0
VERTEX
  5
17B
  8
PART_LETTERS
 10
1.103188088736907
 20
32.7370454097945
 30
0.0
  0
VERTEX
  5
17C
  8
PART_LETTERS
 10
1.092287798699176
 20
32.73754465971989
 30
0.0
  0
VERTEX
  5
17D
  8
PART_LETTERS
 10
1.08108056241102
 20
32.73771107636168
 30
0.0
  0
VERTEX
  5
17E
  8
PART_LETTERS
 10
1.06295963919308
 20
32.73721552458389
 30
0.0
  0
VERTEX
  5
17F
  8
PART_LETTERS
 10
1.045992538024935
 20
32.7357288692505
 30
0.0
  0
VERTEX
  5
180
  8
PART_LETTERS
 10
1.030179258906586
 20
32.73325111036152
 30
0.0
  0
VERTEX
  5
181
  8
PART_LETTERS
 10
1.022705302616084
 20
32.73164056708367
 30
0.0
  0
VERTEX
  5
182
  8
PART_LETTERS
 10
1.015519801838032
 20
32.72978224791694
 30
0.0
  0
VERTEX
  5
183
  8
PART_LETTERS
 10
1.008622756572428
 20
32.72767615286131
 30
0.0
  0
VERTEX
  5
184
  8
PART_LETTERS
 10
1.002014166819273
 20
32.72532228191677
 30
0.0
  0
VERTEX
  5
185
  8
PART_LETTERS
 10
0.9956940325785673
 20
32.72272063508334
 30
0.0
  0
VERTEX
  5
186
  8
PART_LETTERS
 10
0.9896623538503101
 20
32.71987121236101
 30
0.0
  0
VERTEX
  5
187
  8
PART_LETTERS
 10
0.9839191306345018
 20
32.71677401374977
 30
0.0
  0
VERTEX
  5
188
  8
PART_LETTERS
 10
0.9784643629311423
 20
32.71342903924965
 30
0.0
  0
VERTEX
  5
189
  8
PART_LETTERS
 10
0.9732980507402317
 20
32.70983628886062
 30
0.0
  0
VERTEX
  5
18A
  8
PART_LETTERS
 10
0.9684201940617698
 20
32.7059957625827
 30
0.0
  0
VERTEX
  5
18B
  8
PART_LETTERS
 10
0.9595446398325748
 20
32.69785244157741
 30
0.0
  0
VERTEX
  5
18C
  8
PART_LETTERS
 10
0.951852492833939
 20
32.68928013545104
 30
0.0
  0
VERTEX
  5
18D
  8
PART_LETTERS
 10
0.9484501970460809
 20
32.68483311296745
 30
0.0
  0
VERTEX
  5
18E
  8
PART_LETTERS
 10
0.9453437530658626
 20
32.6802788442036
 30
0.0
  0
VERTEX
  5
18F
  8
PART_LETTERS
 10
0.9425331608932841
 20
32.67561732915947
 30
0.0
  0
VERTEX
  5
190
  8
PART_LETTERS
 10
0.9400184205283455
 20
32.67084856783509
 30
0.0
  0
VERTEX
  5
191
  8
PART_LETTERS
 10
0.9377995319710467
 20
32.66597256023042
 30
0.0
  0
VERTEX
  5
192
  8
PART_LETTERS
 10
0.9358764952213878
 20
32.66098930634548
 30
0.0
  0
VERTEX
  5
193
  8
PART_LETTERS
 10
0.9342493102793687
 20
32.65589880618028
 30
0.0
  0
VERTEX
  5
194
  8
PART_LETTERS
 10
0.9329179771449895
 20
32.65070105973481
 30
0.0
  0
VERTEX
  5
195
  8
PART_LETTERS
 10
0.9318824958182501
 20
32.64539606700906
 30
0.0
  0
VERTEX
  5
196
  8
PART_LETTERS
 10
0.9311428662991504
 20
32.63998382800305
 30
0.0
  0
VERTEX
  5
197
  8
PART_LETTERS
 10
0.9306990885876907
 20
32.63446434271677
 30
0.0
  0
VERTEX
  5
198
  8
PART_LETTERS
 10
0.9305511626838707
 20
32.62883761115022
 30
0.0
  0
VERTEX
  5
199
  8
PART_LETTERS
 10
0.9310393181664764
 20
32.62065730866898
 30
0.0
  0
VERTEX
  5
19A
  8
PART_LETTERS
 10
0.9325037846142936
 20
32.61268410245309
 30
0.0
  0
VERTEX
  5
19B
  8
PART_LETTERS
 10
0.9349445620273222
 20
32.60491799250255
 30
0.0
  0
VERTEX
  5
19C
  8
PART_LETTERS
 10
0.9383616504055623
 20
32.59735897881735
 30
0.0
  0
VERTEX
  5
19D
  8
PART_LETTERS
 10
0.9427550497490138
 20
32.5900070613975
 30
0.0
  0
VERTEX
  5
19E
  8
PART_LETTERS
 10
0.948124760057677
 20
32.582862240243
 30
0.0
  0
VERTEX
  5
19F
  8
PART_LETTERS
 10
0.9544707813315514
 20
32.57592451535384
 30
0.0
  0
VERTEX
  5
1A0
  8
PART_LETTERS
 10
0.9617931135706375
 20
32.56919388673003
 30
0.0
  0
VERTEX
  5
1A1
  8
PART_LETTERS
 10
0.9659054536968311
 20
32.56577679835179
 30
0.0
  0
VERTEX
  5
1A2
  8
PART_LETTERS
 10
0.9706686677998325
 20
32.56238929515432
 30
0.0
  0
VERTEX
  5
1A3
  8
PART_LETTERS
 10
0.9760827558796416
 20
32.5590313771376
 30
0.0
  0
VERTEX
  5
1A4
  8
PART_LETTERS
 10
0.9821477179362582
 20
32.55570304430165
 30
0.0
  0
VERTEX
  5
1A5
  8
PART_LETTERS
 10
0.9888635539696825
 20
32.55240429664647
 30
0.0
  0
VERTEX
  5
1A6
  8
PART_LETTERS
 10
0.9962302639799144
 20
32.54913513417206
 30
0.0
  0
VERTEX
  5
1A7
  8
PART_LETTERS
 10
1.012916305930801
 20
32.54268556476551
 30
0.0
  0
VERTEX
  5
1A8
  8
PART_LETTERS
 10
1.032205843788919
 20
32.53635433608201
 30
0.0
  0
VERTEX
  5
1A9
  8
PART_LETTERS
 10
1.054098877554267
 20
32.53014144812157
 30
0.0
  0
VERTEX
  5
1AA
  8
PART_LETTERS
 10
1.078595407226845
 20
32.5240469008842
 30
0.0
  0
VERTEX
  5
1AB
  8
PART_LETTERS
 10
1.105695432806654
 20
32.51807069436987
 30
0.0
  0
VERTEX
  5
1AC
  8
PART_LETTERS
 10
1.173497270822513
 20
32.50290089293314
 30
0.0
  0
VERTEX
  5
1AD
  8
PART_LETTERS
 10
1.205528776220919
 20
32.4952993505506
 30
0.0
  0
VERTEX
  5
1AE
  8
PART_LETTERS
 10
1.236314005879642
 20
32.48768671372525
 30
0.0
  0
VERTEX
  5
1AF
  8
PART_LETTERS
 10
1.265852959798682
 20
32.48006298245714
 30
0.0
  0
VERTEX
  5
1B0
  8
PART_LETTERS
 10
1.294145637978039
 20
32.47242815674623
 30
0.0
  0
VERTEX
  5
1B1
  8
PART_LETTERS
 10
1.321192040417713
 20
32.46478223659254
 30
0.0
  0
VERTEX
  5
1B2
  8
PART_LETTERS
 10
1.346992167117704
 20
32.45712522199607
 30
0.0
  0
VERTEX
  5
1B3
  8
PART_LETTERS
 10
1.371546018078013
 20
32.44945711295681
 30
0.0
  0
VERTEX
  5
1B4
  8
PART_LETTERS
 10
1.394853593298639
 20
32.44177790947475
 30
0.0
  0
VERTEX
  5
1B5
  8
PART_LETTERS
 10
1.416914892779582
 20
32.43408761154991
 30
0.0
  0
VERTEX
  5
1B6
  8
PART_LETTERS
 10
1.437729916520842
 20
32.42638621918228
 30
0.0
  0
VERTEX
  5
1B7
  8
PART_LETTERS
 10
1.457298664522419
 20
32.41867373237188
 30
0.0
  0
VERTEX
  5
1B8
  8
PART_LETTERS
 10
1.475621136784314
 20
32.41095015111868
 30
0.0
  0
VERTEX
  5
1B9
  8
PART_LETTERS
 10
1.492697333306526
 20
32.4032154754227
 30
0.0
  0
VERTEX
  5
1BA
  8
PART_LETTERS
 10
1.508527254089055
 20
32.39546970528392
 30
0.0
  0
VERTEX
  5
1BB
  8
PART_LETTERS
 10
1.523475166670058
 20
32.3876018962745
 30
0.0
  0
VERTEX
  5
1BC
  8
PART_LETTERS
 10
1.537905338587691
 20
32.37950110396656
 30
0.0
  0
VERTEX
  5
1BD
  8
PART_LETTERS
 10
1.551817769841954
 20
32.3711673283601
 30
0.0
  0
VERTEX
  5
1BE
  8
PART_LETTERS
 10
1.565212460432848
 20
32.36260056945514
 30
0.0
  0
VERTEX
  5
1BF
  8
PART_LETTERS
 10
1.578089410360372
 20
32.35380082725165
 30
0.0
  0
VERTEX
  5
1C0
  8
PART_LETTERS
 10
1.590448619624526
 20
32.34476810174965
 30
0.0
  0
VERTEX
  5
1C1
  8
PART_LETTERS
 10
1.60229008822531
 20
32.33550239294912
 30
0.0
  0
VERTEX
  5
1C2
  8
PART_LETTERS
 10
1.613613816162725
 20
32.32600370085009
 30
0.0
  0
VERTEX
  5
1C3
  8
PART_LETTERS
 10
1.62441980343677
 20
32.31627202545254
 30
0.0
  0
VERTEX
  5
1C4
  8
PART_LETTERS
 10
1.634708050047445
 20
32.30630736675648
 30
0.0
  0
VERTEX
  5
1C5
  8
PART_LETTERS
 10
1.644478555994751
 20
32.29610972476189
 30
0.0
  0
VERTEX
  5
1C6
  8
PART_LETTERS
 10
1.653731321278687
 20
32.28567909946879
 30
0.0
  0
VERTEX
  5
1C7
  8
PART_LETTERS
 10
1.662466345899253
 20
32.27501549087717
 30
0.0
  0
VERTEX
  5
1C8
  8
PART_LETTERS
 10
1.670683629856449
 20
32.26411889898704
 30
0.0
  0
VERTEX
  5
1C9
  8
PART_LETTERS
 10
1.678383173150276
 20
32.25298932379837
 30
0.0
  0
VERTEX
  5
1CA
  8
PART_LETTERS
 10
1.685564975780733
 20
32.24162676531121
 30
0.0
  0
VERTEX
  5
1CB
  8
PART_LETTERS
 10
1.692271566445168
 20
32.2300626577801
 30
0.0
  0
VERTEX
  5
1CC
  8
PART_LETTERS
 10
1.698545473840931
 20
32.21832843545958
 30
0.0
  0
VERTEX
  5
1CD
  8
PART_LETTERS
 10
1.70438669796802
 20
32.20642409834967
 30
0.0
  0
VERTEX
  5
1CE
  8
PART_LETTERS
 10
1.709795238826436
 20
32.19434964645036
 30
0.0
  0
VERTEX
  5
1CF
  8
PART_LETTERS
 10
1.714771096416178
 20
32.18210507976167
 30
0.0
  0
VERTEX
  5
1D0
  8
PART_LETTERS
 10
1.719314270737247
 20
32.16969039828358
 30
0.0
  0
VERTEX
  5
1D1
  8
PART_LETTERS
 10
1.723424761789643
 20
32.1571056020161
 30
0.0
  0
VERTEX
  5
1D2
  8
PART_LETTERS
 10
1.727102569573366
 20
32.14435069095923
 30
0.0
  0
VERTEX
  5
1D3
  8
PART_LETTERS
 10
1.730347694088416
 20
32.13142566511297
 30
0.0
  0
VERTEX
  5
1D4
  8
PART_LETTERS
 10
1.733160135334792
 20
32.11833052447731
 30
0.0
  0
VERTEX
  5
1D5
  8
PART_LETTERS
 10
1.735539893312495
 20
32.10506526905226
 30
0.0
  0
VERTEX
  5
1D6
  8
PART_LETTERS
 10
1.737486968021524
 20
32.09162989883781
 30
0.0
  0
VERTEX
  5
1D7
  8
PART_LETTERS
 10
1.739001359461881
 20
32.07802441383397
 30
0.0
  0
VERTEX
  5
1D8
  8
PART_LETTERS
 10
1.740083067633564
 20
32.06424881404075
 30
0.0
  0
VERTEX
  5
1D9
  8
PART_LETTERS
 10
1.740732092536574
 20
32.05030309945813
 30
0.0
  0
VERTEX
  5
1DA
  8
PART_LETTERS
 10
1.74094843417091
 20
32.0361872700861
 30
0.0
  0
VERTEX
  5
1DB
  8
PART_LETTERS
 10
1.740659978658461
 20
32.01958258738232
 30
0.0
  0
VERTEX
  5
1DC
  8
PART_LETTERS
 10
1.739794612121115
 20
32.00314062317273
 30
0.0
  0
VERTEX
  5
1DD
  8
PART_LETTERS
 10
1.738352334558871
 20
31.98686137745735
 30
0.0
  0
VERTEX
  5
1DE
  8
PART_LETTERS
 10
1.736333145971729
 20
31.97074485023617
 30
0.0
  0
VERTEX
  5
1DF
  8
PART_LETTERS
 10
1.733737046359689
 20
31.9547910415092
 30
0.0
  0
VERTEX
  5
1E0
  8
PART_LETTERS
 10
1.730564035722752
 20
31.93899995127642
 30
0.0
  0
VERTEX
  5
1E1
  8
PART_LETTERS
 10
1.726814114060917
 20
31.92337157953785
 30
0.0
  0
VERTEX
  5
1E2
  8
PART_LETTERS
 10
1.722487281374184
 20
31.90790592629347
 30
0.0
  0
VERTEX
  5
1E3
  8
PART_LETTERS
 10
1.717583537662554
 20
31.8926029915433
 30
0.0
  0
VERTEX
  5
1E4
  8
PART_LETTERS
 10
1.712102882926026
 20
31.87746277528733
 30
0.0
  0
VERTEX
  5
1E5
  8
PART_LETTERS
 10
1.706045317164601
 20
31.86248527752556
 30
0.0
  0
VERTEX
  5
1E6
  8
PART_LETTERS
 10
1.699410840378277
 20
31.847670498258
 30
0.0
  0
VERTEX
  5
1E7
  8
PART_LETTERS
 10
1.692199452567056
 20
31.83301843748464
 30
0.0
  0
VERTEX
  5
1E8
  8
PART_LETTERS
 10
1.684411153730938
 20
31.81852909520548
 30
0.0
  0
VERTEX
  5
1E9
  8
PART_LETTERS
 10
1.676045943869921
 20
31.80420247142052
 30
0.0
  0
VERTEX
  5
1EA
  8
PART_LETTERS
 10
1.667103822984007
 20
31.79003856612976
 30
0.0
  0
VERTEX
  5
1EB
  8
PART_LETTERS
 10
1.657643961434723
 20
31.77616866357285
 30
0.0
  0
VERTEX
  5
1EC
  8
PART_LETTERS
 10
1.647725529583598
 20
31.76272404798942
 30
0.0
  0
VERTEX
  5
1ED
  8
PART_LETTERS
 10
1.637348527430631
 20
31.74970471937947
 30
0.0
  0
VERTEX
  5
1EE
  8
PART_LETTERS
 10
1.626512954975822
 20
31.737110677743
 30
0.0
  0
VERTEX
  5
1EF
  8
PART_LETTERS
 10
1.615218812219171
 20
31.72494192308001
 30
0.0
  0
VERTEX
  5
1F0
  8
PART_LETTERS
 10
1.603466099160678
 20
31.7131984553905
 30
0.0
  0
VERTEX
  5
1F1
  8
PART_LETTERS
 10
1.591254815800344
 20
31.70188027467448
 30
0.0
  0
VERTEX
  5
1F2
  8
PART_LETTERS
 10
1.578584962138168
 20
31.69098738093194
 30
0.0
  0
VERTEX
  5
1F3
  8
PART_LETTERS
 10
1.56545653817415
 20
31.68051977416289
 30
0.0
  0
VERTEX
  5
1F4
  8
PART_LETTERS
 10
1.551869543908291
 20
31.67047745436731
 30
0.0
  0
VERTEX
  5
1F5
  8
PART_LETTERS
 10
1.53782397934059
 20
31.66086042154522
 30
0.0
  0
VERTEX
  5
1F6
  8
PART_LETTERS
 10
1.523319844471047
 20
31.65166867569661
 30
0.0
  0
VERTEX
  5
1F7
  8
PART_LETTERS
 10
1.508357139299662
 20
31.64290221682148
 30
0.0
  0
VERTEX
  5
1F8
  8
PART_LETTERS
 10
1.492935863826436
 20
31.63456104491983
 30
0.0
  0
VERTEX
  5
1F9
  8
PART_LETTERS
 10
1.477056018051367
 20
31.62664515999167
 30
0.0
  0
VERTEX
  5
1FA
  8
PART_LETTERS
 10
1.460717601974457
 20
31.61915456203699
 30
0.0
  0
VERTEX
  5
1FB
  8
PART_LETTERS
 10
1.443879935972155
 20
31.61210404364618
 30
0.0
  0
VERTEX
  5
1FC
  8
PART_LETTERS
 10
1.42650234042091
 20
31.60550839740961
 30
0.0
  0
VERTEX
  5
1FD
  8
PART_LETTERS
 10
1.408584815320723
 20
31.59936762332728
 30
0.0
  0
VERTEX
  5
1FE
  8
PART_LETTERS
 10
1.390127360671592
 20
31.59368172139921
 30
0.0
  0
VERTEX
  5
1FF
  8
PART_LETTERS
 10
1.371129976473519
 20
31.58845069162538
 30
0.0
  0
VERTEX
  5
200
  8
PART_LETTERS
 10
1.351592662726504
 20
31.58367453400579
 30
0.0
  0
VERTEX
  5
201
  8
PART_LETTERS
 10
1.331515419430545
 20
31.57935324854045
 30
0.0
  0
VERTEX
  5
202
  8
PART_LETTERS
 10
1.310898246585644
 20
31.57548683522936
 30
0.0
  0
VERTEX
  5
203
  8
PART_LETTERS
 10
1.289741144191801
 20
31.5720752940725
 30
0.0
  0
VERTEX
  5
204
  8
PART_LETTERS
 10
1.268044112249014
 20
31.56911862506991
 30
0.0
  0
VERTEX
  5
205
  8
PART_LETTERS
 10
1.245807150757285
 20
31.56661682822155
 30
0.0
  0
VERTEX
  5
206
  8
PART_LETTERS
 10
1.223030259716613
 20
31.56456990352745
 30
0.0
  0
VERTEX
  5
207
  8
PART_LETTERS
 10
1.199713439126998
 20
31.56297785098758
 30
0.0
  0
VERTEX
  5
208
  8
PART_LETTERS
 10
1.175856688988441
 20
31.56184067060197
 30
0.0
  0
VERTEX
  5
209
  8
PART_LETTERS
 10
1.151460009300941
 20
31.56115836237059
 30
0.0
  0
VERTEX
  5
20A
  8
PART_LETTERS
 10
1.126523400064498
 20
31.56093092629347
 30
0.0
  0
VERTEX
  5
20B
  8
PART_LETTERS
 10
1.083114543588543
 20
31.56146345954722
 30
0.0
  0
VERTEX
  5
20C
  8
PART_LETTERS
 10
1.041406835006518
 20
31.56306105930848
 30
0.0
  0
VERTEX
  5
20D
  8
PART_LETTERS
 10
1.001400274318421
 20
31.56572372557724
 30
0.0
  0
VERTEX
  5
20E
  8
PART_LETTERS
 10
0.9820349244345955
 20
31.56745445865193
 30
0.0
  0
VERTEX
  5
20F
  8
PART_LETTERS
 10
0.9630948615242527
 20
31.5694514583535
 30
0.0
  0
VERTEX
  5
210
  8
PART_LETTERS
 10
0.9445800855873923
 20
31.57171472468195
 30
0.0
  0
VERTEX
  5
211
  8
PART_LETTERS
 10
0.926490596624014
 20
31.57424425763726
 30
0.0
  0
VERTEX
  5
212
  8
PART_LETTERS
 10
0.908826394634118
 20
31.57704005721946
 30
0.0
  0
VERTEX
  5
213
  8
PART_LETTERS
 10
0.8915874796177042
 20
31.58010212342853
 30
0.0
  0
VERTEX
  5
214
  8
PART_LETTERS
 10
0.8747738515747727
 20
31.58343045626448
 30
0.0
  0
VERTEX
  5
215
  8
PART_LETTERS
 10
0.8583855105053236
 20
31.58702505572731
 30
0.0
  0
VERTEX
  5
216
  8
PART_LETTERS
 10
0.8424224564093568
 20
31.59088592181701
 30
0.0
  0
VERTEX
  5
217
  8
PART_LETTERS
 10
0.8268846892868721
 20
31.59501305453358
 30
0.0
  0
VERTEX
  5
218
  8
PART_LETTERS
 10
0.8117722091378696
 20
31.59940645387703
 30
0.0
  0
VERTEX
  5
219
  8
PART_LETTERS
 10
0.7970850159623496
 20
31.60406611984736
 30
0.0
  0
VERTEX
  5
21A
  8
PART_LETTERS
 10
0.7828231097603118
 20
31.60899205244456
 30
0.0
  0
VERTEX
  5
21B
  8
PART_LETTERS
 10
0.7689864905317562
 20
31.61418425166864
 30
0.0
  0
VERTEX
  5
21C
  8
PART_LETTERS
 10
0.7555751582766828
 20
31.6196427175196
 30
0.0
  0
VERTEX
  5
21D
  8
PART_LETTERS
 10
0.7425891129950918
 20
31.62536744999743
 30
0.0
  0
VERTEX
  5
21E
  8
PART_LETTERS
 10
0.730028354686983
 20
31.63135844910214
 30
0.0
  0
VERTEX
  5
21F
  8
PART_LETTERS
 10
0.7178928833523565
 20
31.63761571483372
 30
0.0
  0
VERTEX
  5
220
  8
PART_LETTERS
 10
0.7061826989912121
 20
31.64413924719218
 30
0.0
  0
VERTEX
  5
221
  8
PART_LETTERS
 10
0.6948978016035502
 20
31.65092904617751
 30
0.0
  0
VERTEX
  5
222
  8
PART_LETTERS
 10
0.6840381911893705
 20
31.65798511178972
 30
0.0
  0
VERTEX
  5
223
  8
PART_LETTERS
 10
0.673603867748673
 20
31.66530744402881
 30
0.0
  0
VERTEX
  5
224
  8
PART_LETTERS
 10
0.6635948312814577
 20
31.67289604289477
 30
0.0
  0
VERTEX
  5
225
  8
PART_LETTERS
 10
0.6540110817877248
 20
31.6807509083876
 30
0.0
  0
VERTEX
  5
226
  8
PART_LETTERS
 10
0.6448526192674742
 20
31.68887204050732
 30
0.0
  0
VERTEX
  5
227
  8
PART_LETTERS
 10
0.6361194437207057
 20
31.69725943925391
 30
0.0
  0
VERTEX
  5
228
  8
PART_LETTERS
 10
0.6195406480500885
 20
31.71458895888641
 30
0.0
  0
VERTEX
  5
229
  8
PART_LETTERS
 10
0.6038863892783456
 20
31.73249538954381
 30
0.0
  0
VERTEX
  5
22A
  8
PART_LETTERS
 10
0.5891566674054773
 20
31.75097873122611
 30
0.0
  0
VERTEX
  5
22B
  8
PART_LETTERS
 10
0.5753514824314834
 20
31.77003898393331
 30
0.0
  0
VERTEX
  5
22C
  8
PART_LETTERS
 10
0.562470834356364
 20
31.7896761476654
 30
0.0
  0
VERTEX
  5
22D
  8
PART_LETTERS
 10
0.5505147231801191
 20
31.80989022242239
 30
0.0
  0
VERTEX
  5
22E
  8
PART_LETTERS
 10
0.5394831489027487
 20
31.83068120820428
 30
0.0
  0
VERTEX
  5
22F
  8
PART_LETTERS
 10
0.5293761115242528
 20
31.85204910501107
 30
0.0
  0
VERTEX
  5
230
  8
PART_LETTERS
 10
0.5201936110446315
 20
31.87399391284276
 30
0.0
  0
VERTEX
  5
231
  8
PART_LETTERS
 10
0.5119356474638844
 20
31.89651563169934
 30
0.0
  0
VERTEX
  5
232
  8
PART_LETTERS
 10
0.504602220782012
 20
31.91961426158081
 30
0.0
  0
VERTEX
  5
233
  8
PART_LETTERS
 10
0.498193330999014
 20
31.9432898024872
 30
0.0
  0
VERTEX
  5
234
  8
PART_LETTERS
 10
0.4927089781148906
 20
31.96754225441848
 30
0.0
  0
VERTEX
  5
235
  8
PART_LETTERS
 10
0.4881491621296416
 20
31.99237161737464
 30
0.0
  0
VERTEX
  5
236
  8
PART_LETTERS
 10
0.4845138830432671
 20
32.01777789135571
 30
0.0
  0
SEQEND
  5
4C0
  8
PART_LETTERS
  0
POLYLINE
  5
71
  8
PART_LETTERS
 66
     1
 10
0.0
 20
0.0
 30
0.0
 70
     1
  0
VERTEX
  5
237
  8
PART_LETTERS
 10
2.768145910296408
 20
32.99616721551585
 30
0.0
  0
VERTEX
  5
238
  8
PART_LETTERS
 10
2.768145910296408
 20
31.58459907090466
 30
0.0
  0
VERTEX
  5
239
  8
PART_LETTERS
 10
2.378094887104047
 20
31.58459907090466
 30
0.0
  0
VERTEX
  5
23A
  8
PART_LETTERS
 10
2.378094887104047
 20
32.50955016230984
 30
0.0
  0
VERTEX
  5
23B
  8
PART_LETTERS
 10
2.354522894330343
 20
32.49199135752642
 30
0.0
  0
VERTEX
  5
23C
  8
PART_LETTERS
 10
2.331143205231605
 20
32.47529052298515
 30
0.0
  0
VERTEX
  5
23D
  8
PART_LETTERS
 10
2.307955819807833
 20
32.45944765868605
 30
0.0
  0
VERTEX
  5
23E
  8
PART_LETTERS
 10
2.284960738059027
 20
32.44446276462908
 30
0.0
  0
VERTEX
  5
23F
  8
PART_LETTERS
 10
2.262157959985187
 20
32.43033584081428
 30
0.0
  0
VERTEX
  5
240
  8
PART_LETTERS
 10
2.239547485586312
 20
32.41706688724163
 30
0.0
  0
VERTEX
  5
241
  8
PART_LETTERS
 10
2.217129314862403
 20
32.40465590391115
 30
0.0
  0
VERTEX
  5
242
  8
PART_LETTERS
 10
2.194903447813461
 20
32.3931028908228
 30
0.0
  0
VERTEX
  5
243
  8
PART_LETTERS
 10
2.172071084558857
 20
32.38203803321707
 30
0.0
  0
VERTEX
  5
244
  8
PART_LETTERS
 10
2.147833425217962
 20
32.3710915163344
 30
0.0
  0
VERTEX
  5
245
  8
PART_LETTERS
 10
2.12219046979078
 20
32.36026334017478
 30
0.0
  0
VERTEX
  5
246
  8
PART_LETTERS
 10
2.095142218277308
 20
32.34955350473822
 30
0.0
  0
VERTEX
  5
247
  8
PART_LETTERS
 10
2.066688670677546
 20
32.33896201002472
 30
0.0
  0
VERTEX
  5
248
  8
PART_LETTERS
 10
2.036829826991496
 20
32.32848885603426
 30
0.0
  0
VERTEX
  5
249
  8
PART_LETTERS
 10
2.005565687219157
 20
32.31813404276687
 30
0.0
  0
VERTEX
  5
24A
  8
PART_LETTERS
 10
1.972896251360528
 20
32.30789757022253
 30
0.0
  0
VERTEX
  5
24B
  8
PART_LETTERS
 10
1.972896251360528
 20
32.62410398222799
 30
0.0
  0
VERTEX
  5
24C
  8
PART_LETTERS
 10
1.997167194029781
 20
32.63213266065782
 30
0.0
  0
VERTEX
  5
24D
  8
PART_LETTERS
 10
2.020750281246271
 20
32.64036103905781
 30
0.0
  0
VERTEX
  5
24E
  8
PART_LETTERS
 10
2.043645513009999
 20
32.64878911742795
 30
0.0
  0
VERTEX
  5
24F
  8
PART_LETTERS
 10
2.065852889320964
 20
32.65741689576824
 30
0.0
  0
VERTEX
  5
250
  8
PART_LETTERS
 10
2.087372410179167
 20
32.6662443740787
 30
0.0
  0
VERTEX
  5
251
  8
PART_LETTERS
 10
2.108204075584607
 20
32.67527155235931
 30
0.0
  0
VERTEX
  5
252
  8
PART_LETTERS
 10
2.128347885537284
 20
32.68449843061008
 30
0.0
  0
VERTEX
  5
253
  8
PART_LETTERS
 10
2.147803840037199
 20
32.69392500883099
 30
0.0
  0
VERTEX
  5
254
  8
PART_LETTERS
 10
2.166571939084351
 20
32.70355128702208
 30
0.0
  0
VERTEX
  5
255
  8
PART_LETTERS
 10
2.184652182678741
 20
32.71337726518331
 30
0.0
  0
VERTEX
  5
256
  8
PART_LETTERS
 10
2.202044570820368
 20
32.7234029433147
 30
0.0
  0
VERTEX
  5
257
  8
PART_LETTERS
 10
2.218749103509232
 20
32.73362832141625
 30
0.0
  0
VERTEX
  5
258
  8
PART_LETTERS
 10
2.234765780745334
 20
32.74405339948796
 30
0.0
  0
VERTEX
  5
259
  8
PART_LETTERS
 10
2.250094602528672
 20
32.75467817752983
 30
0.0
  0
VERTEX
  5
25A
  8
PART_LETTERS
 10
2.264735568859249
 20
32.76550265554185
 30
0.0
  0
VERTEX
  5
25B
  8
PART_LETTERS
 10
2.278688679737062
 20
32.77652683352403
 30
0.0
  0
VERTEX
  5
25C
  8
PART_LETTERS
 10
2.29211295550872
 20
32.7878135799855
 30
0.0
  0
VERTEX
  5
25D
  8
PART_LETTERS
 10
2.305167416520828
 20
32.79942576343535
 30
0.0
  0
VERTEX
  5
25E
  8
PART_LETTERS
 10
2.317852062773385
 20
32.81136338387363
 30
0.0
  0
VERTEX
  5
25F
  8
PART_LETTERS
 10
2.330166894266394
 20
32.82362644130029
 30
0.0
  0
VERTEX
  5
260
  8
PART_LETTERS
 10
2.342111910999852
 20
32.83621493571536
 30
0.0
  0
VERTEX
  5
261
  8
PART_LETTERS
 10
2.35368711297376
 20
32.84912886711884
 30
0.0
  0
VERTEX
  5
262
  8
PART_LETTERS
 10
2.364892500188119
 20
32.86236823551073
 30
0.0
  0
VERTEX
  5
263
  8
PART_LETTERS
 10
2.375728072642929
 20
32.87593304089101
 30
0.0
  0
VERTEX
  5
264
  8
PART_LETTERS
 10
2.386193830338188
 20
32.88982328325971
 30
0.0
  0
VERTEX
  5
265
  8
PART_LETTERS
 10
2.396289773273897
 20
32.9040389626168
 30
0.0
  0
VERTEX
  5
266
  8
PART_LETTERS
 10
2.406015901450056
 20
32.91858007896229
 30
0.0
  0
VERTEX
  5
267
  8
PART_LETTERS
 10
2.415372214866666
 20
32.9334466322962
 30
0.0
  0
VERTEX
  5
268
  8
PART_LETTERS
 10
2.424358713523726
 20
32.9486386226185
 30
0.0
  0
VERTEX
  5
269
  8
PART_LETTERS
 10
2.432975397421237
 20
32.96415604992921
 30
0.0
  0
VERTEX
  5
26A
  8
PART_LETTERS
 10
2.441222266559197
 20
32.97999891422833
 30
0.0
  0
VERTEX
  5
26B
  8
PART_LETTERS
 10
2.449099320937608
 20
32.99616721551585
 30
0.0
  0
SEQEND
  5
4C1
  8
PART_LETTERS
  0
POLYLINE
  5
72
  8
PART_LETTERS
 66
     1
 10
0.0
 20
0.0
 30
0.0
 70
     1
  0
VERTEX
  5
26C
  8
PART_LETTERS
 10
0.4242182481105843
 20
76.827278674436
 30
0.0
  0
VERTEX
  5
26D
  8
PART_LETTERS
 10
0.8322570612074465
 20
76.85284027061608
 30
0.0
  0
VERTEX
  5
26E
  8
PART_LETTERS
 10
0.8359995865740903
 20
76.82872834829344
 30
0.0
  0
VERTEX
  5
26F
  8
PART_LETTERS
 10
0.8406000821828898
 20
76.80609568500898
 30
0.0
  0
VERTEX
  5
270
  8
PART_LETTERS
 10
0.8432220688280978
 20
76.79533407550608
 30
0.0
  0
VERTEX
  5
271
  8
PART_LETTERS
 10
0.8460585480338447
 20
76.78494228076273
 30
0.0
  0
VERTEX
  5
272
  8
PART_LETTERS
 10
0.8491095198001305
 20
76.77492030077893
 30
0.0
  0
VERTEX
  5
273
  8
PART_LETTERS
 10
0.8523749841269552
 20
76.76526813555468
 30
0.0
  0
VERTEX
  5
274
  8
PART_LETTERS
 10
0.8558549410143188
 20
76.75598578508998
 30
0.0
  0
VERTEX
  5
275
  8
PART_LETTERS
 10
0.8595493904622213
 20
76.74707324938483
 30
0.0
  0
VERTEX
  5
276
  8
PART_LETTERS
 10
0.8634583324706626
 20
76.73853052843923
 30
0.0
  0
VERTEX
  5
277
  8
PART_LETTERS
 10
0.8675817670396428
 20
76.73035762225318
 30
0.0
  0
VERTEX
  5
278
  8
PART_LETTERS
 10
0.8719196941691619
 20
76.72255453082668
 30
0.0
  0
VERTEX
  5
279
  8
PART_LETTERS
 10
0.87647211385922
 20
76.71512125415973
 30
0.0
  0
VERTEX
  5
27A
  8
PART_LETTERS
 10
0.8812390261098167
 20
76.70805779225232
 30
0.0
  0
VERTEX
  5
27B
  8
PART_LETTERS
 10
0.8862204309209525
 20
76.70136414510448
 30
0.0
  0
VERTEX
  5
27C
  8
PART_LETTERS
 10
0.8947261703905978
 20
76.69116095588849
 30
0.0
  0
VERTEX
  5
27D
  8
PART_LETTERS
 10
0.9036756875717028
 20
76.68161603694452
 30
0.0
  0
VERTEX
  5
27E
  8
PART_LETTERS
 10
0.9130689824642676
 20
76.67272938827254
 30
0.0
  0
VERTEX
  5
27F
  8
PART_LETTERS
 10
0.9229060550682922
 20
76.66450100987257
 30
0.0
  0
VERTEX
  5
280
  8
PART_LETTERS
 10
0.9331869053837765
 20
76.65693090174457
 30
0.0
  0
VERTEX
  5
281
  8
PART_LETTERS
 10
0.9439115334107206
 20
76.65001906388858
 30
0.0
  0
VERTEX
  5
282
  8
PART_LETTERS
 10
0.9550799391491245
 20
76.6437654963046
 30
0.0
  0
VERTEX
  5
283
  8
PART_LETTERS
 10
0.966692122598988
 20
76.63817019899261
 30
0.0
  0
VERTEX
  5
284
  8
PART_LETTERS
 10
0.9787480837603113
 20
76.63323317195263
 30
0.0
  0
VERTEX
  5
285
  8
PART_LETTERS
 10
0.9912478226330945
 20
76.62895441518464
 30
0.0
  0
VERTEX
  5
286
  8
PART_LETTERS
 10
1.004191339217337
 20
76.62533392868865
 30
0.0
  0
VERTEX
  5
287
  8
PART_LETTERS
 10
1.01757863351304
 20
76.62237171246466
 30
0.0
  0
VERTEX
  5
288
  8
PART_LETTERS
 10
1.031409705520202
 20
76.62006776651266
 30
0.0
  0
VERTEX
  5
289
  8
PART_LETTERS
 10
1.045684555238824
 20
76.61842209083267
 30
0.0
  0
VERTEX
  5
28A
  8
PART_LETTERS
 10
1.060403182668906
 20
76.61743468542466
 30
0.0
  0
VERTEX
  5
28B
  8
PART_LETTERS
 10
1.075565587810448
 20
76.61710555028866
 30
0.0
  0
VERTEX
  5
28C
  8
PART_LETTERS
 10
1.086880070378874
 20
76.61727381600426
 30
0.0
  0
VERTEX
  5
28D
  8
PART_LETTERS
 10
1.097865417811301
 20
76.61777861315103
 30
0.0
  0
VERTEX
  5
28E
  8
PART_LETTERS
 10
1.108521630107728
 20
76.61861994172901
 30
0.0
  0
VERTEX
  5
28F
  8
PART_LETTERS
 10
1.118848707268156
 20
76.61979780173817
 30
0.0
  0
VERTEX
  5
290
  8
PART_LETTERS
 10
1.128846649292585
 20
76.62131219317853
 30
0.0
  0
VERTEX
  5
291
  8
PART_LETTERS
 10
1.138515456181014
 20
76.62316311605008
 30
0.0
  0
VERTEX
  5
292
  8
PART_LETTERS
 10
1.147855127933444
 20
76.62535057035281
 30
0.0
  0
VERTEX
  5
293
  8
PART_LETTERS
 10
1.156865664549875
 20
76.62787455608674
 30
0.0
  0
VERTEX
  5
294
  8
PART_LETTERS
 10
1.165547066030306
 20
76.63073507325186
 30
0.0
  0
VERTEX
  5
295
  8
PART_LETTERS
 10
1.173899332374738
 20
76.63393212184818
 30
0.0
  0
VERTEX
  5
296
  8
PART_LETTERS
 10
1.181922463583171
 20
76.63746570187567
 30
0.0
  0
VERTEX
  5
297
  8
PART_LETTERS
 10
1.189616459655605
 20
76.64133581333436
 30
0.0
  0
VERTEX
  5
298
  8
PART_LETTERS
 10
1.196981320592039
 20
76.64554245622423
 30
0.0
  0
VERTEX
  5
299
  8
PART_LETTERS
 10
1.204017046392474
 20
76.6500856305453
 30
0.0
  0
VERTEX
  5
29A
  8
PART_LETTERS
 10
1.210723637056909
 20
76.65496533629756
 30
0.0
  0
VERTEX
  5
29B
  8
PART_LETTERS
 10
1.217101092585346
 20
76.66018157348101
 30
0.0
  0
VERTEX
  5
29C
  8
PART_LETTERS
 10
1.223119827797019
 20
76.66561969952018
 30
0.0
  0
VERTEX
  5
29D
  8
PART_LETTERS
 10
1.228750257511164
 20
76.67116507183964
 30
0.0
  0
VERTEX
  5
29E
  8
PART_LETTERS
 10
1.233992381727782
 20
76.67681769043936
 30
0.0
  0
VERTEX
  5
29F
  8
PART_LETTERS
 10
1.238846200446873
 20
76.68257755531936
 30
0.0
  0
VERTEX
  5
2A0
  8
PART_LETTERS
 10
1.243311713668437
 20
76.68844466647961
 30
0.0
  0
VERTEX
  5
2A1
  8
PART_LETTERS
 10
1.247388921392474
 20
76.69441902392013
 30
0.0
  0
VERTEX
  5
2A2
  8
PART_LETTERS
 10
1.251077823618983
 20
76.70050062764092
 30
0.0
  0
VERTEX
  5
2A3
  8
PART_LETTERS
 10
1.254378420347965
 20
76.70668947764199
 30
0.0
  0
VERTEX
  5
2A4
  8
PART_LETTERS
 10
1.25729071157942
 20
76.71298557392332
 30
0.0
  0
VERTEX
  5
2A5
  8
PART_LETTERS
 10
1.259814697313347
 20
76.71938891648493
 30
0.0
  0
VERTEX
  5
2A6
  8
PART_LETTERS
 10
1.261950377549747
 20
76.72589950532681
 30
0.0
  0
VERTEX
  5
2A7
  8
PART_LETTERS
 10
1.26369775228862
 20
76.73251734044895
 30
0.0
  0
VERTEX
  5
2A8
  8
PART_LETTERS
 10
1.265056821529965
 20
76.73924242185136
 30
0.0
  0
VERTEX
  5
2A9
  8
PART_LETTERS
 10
1.266027585273783
 20
76.74607474953405
 30
0.0
  0
VERTEX
  5
2AA
  8
PART_LETTERS
 10
1.266610043520074
 20
76.753014323497
 30
0.0
  0
VERTEX
  5
2AB
  8
PART_LETTERS
 10
1.266804196268838
 20
76.76006114374023
 30
0.0
  0
VERTEX
  5
2AC
  8
PART_LETTERS
 10
1.266619288889063
 20
76.76676218718328
 30
0.0
  0
VERTEX
  5
2AD
  8
PART_LETTERS
 10
1.266064566749738
 20
76.77337447508401
 30
0.0
  0
VERTEX
  5
2AE
  8
PART_LETTERS
 10
1.265140029850864
 20
76.77989800744248
 30
0.0
  0
VERTEX
  5
2AF
  8
PART_LETTERS
 10
1.263845678192439
 20
76.78633278425865
 30
0.0
  0
VERTEX
  5
2B0
  8
PART_LETTERS
 10
1.262181511774465
 20
76.79267880553253
 30
0.0
  0
VERTEX
  5
2B1
  8
PART_LETTERS
 10
1.260147530596942
 20
76.79893607126411
 30
0.0
  0
VERTEX
  5
2B2
  8
PART_LETTERS
 10
1.257743734659868
 20
76.8051045814534
 30
0.0
  0
VERTEX
  5
2B3
  8
PART_LETTERS
 10
1.254970123963244
 20
76.8111843361004
 30
0.0
  0
VERTEX
  5
2B4
  8
PART_LETTERS
 10
1.251826698507071
 20
76.81717533520509
 30
0.0
  0
VERTEX
  5
2B5
  8
PART_LETTERS
 10
1.248313458291348
 20
76.82307757876751
 30
0.0
  0
VERTEX
  5
2B6
  8
PART_LETTERS
 10
1.244430403316076
 20
76.82889106678763
 30
0.0
  0
VERTEX
  5
2B7
  8
PART_LETTERS
 10
1.240177533581253
 20
76.83461579926546
 30
0.0
  0
VERTEX
  5
2B8
  8
PART_LETTERS
 10
1.23555484908688
 20
76.840251776201
 30
0.0
  0
VERTEX
  5
2B9
  8
PART_LETTERS
 10
1.230562349832958
 20
76.84579899759424
 30
0.0
  0
VERTEX
  5
2BA
  8
PART_LETTERS
 10
1.225200035819486
 20
76.85125746344522
 30
0.0
  0
VERTEX
  5
2BB
  8
PART_LETTERS
 10
1.219467907046464
 20
76.85662717375386
 30
0.0
  0
VERTEX
  5
2BC
  8
PART_LETTERS
 10
1.213062715411062
 20
76.8619340155534
 30
0.0
  0
VERTEX
  5
2BD
  8
PART_LETTERS
 10
1.205681212810448
 20
76.86720387587698
 30
0.0
  0
VERTEX
  5
2BE
  8
PART_LETTERS
 10
1.197323399244623
 20
76.87243675472462
 30
0.0
  0
VERTEX
  5
2BF
  8
PART_LETTERS
 10
1.187989274713586
 20
76.8776326520963
 30
0.0
  0
VERTEX
  5
2C0
  8
PART_LETTERS
 10
1.177678839217337
 20
76.88279156799202
 30
0.0
  0
VERTEX
  5
2C1
  8
PART_LETTERS
 10
1.166392092755878
 20
76.88791350241178
 30
0.0
  0
VERTEX
  5
2C2
  8
PART_LETTERS
 10
1.154129035329206
 20
76.8929984553556
 30
0.0
  0
VERTEX
  5
2C3
  8
PART_LETTERS
 10
1.140889666937324
 20
76.89804642682344
 30
0.0
  0
VERTEX
  5
2C4
  8
PART_LETTERS
 10
1.126673987580229
 20
76.90305741681534
 30
0.0
  0
VERTEX
  5
2C5
  8
PART_LETTERS
 10
1.111481997257924
 20
76.90803142533129
 30
0.0
  0
VERTEX
  5
2C6
  8
PART_LETTERS
 10
1.095313695970407
 20
76.91296845237127
 30
0.0
  0
VERTEX
  5
2C7
  8
PART_LETTERS
 10
1.078169083717679
 20
76.91786849793532
 30
0.0
  0
VERTEX
  5
2C8
  8
PART_LETTERS
 10
1.040950926316587
 20
76.92755764463551
 30
0.0
  0
VERTEX
  5
2C9
  8
PART_LETTERS
 10
0.9998275250546498
 20
76.9370988654319
 30
0.0
  0
VERTEX
  5
2CA
  8
PART_LETTERS
 10
0.9651943728228114
 20
76.94519041237086
 30
0.0
  0
VERTEX
  5
2CB
  8
PART_LETTERS
 10
0.9318259870686334
 20
76.95360739629821
 30
0.0
  0
VERTEX
  5
2CC
  8
PART_LETTERS
 10
0.8997223677921157
 20
76.96234981721398
 30
0.0
  0
VERTEX
  5
2CD
  8
PART_LETTERS
 10
0.8688835149932582
 20
76.97141767511812
 30
0.0
  0
VERTEX
  5
2CE
  8
PART_LETTERS
 10
0.839309428672061
 20
76.9808109700107
 30
0.0
  0
VERTEX
  5
2CF
  8
PART_LETTERS
 10
0.8110001088285242
 20
76.99052970189166
 30
0.0
  0
VERTEX
  5
2D0
  8
PART_LETTERS
 10
0.7839555554626477
 20
77.00057387076103
 30
0.0
  0
VERTEX
  5
2D1
  8
PART_LETTERS
 10
0.7581757685744315
 20
77.0109434766188
 30
0.0
  0
VERTEX
  5
2D2
  8
PART_LETTERS
 10
0.7336607481638756
 20
77.021638519465
 30
0.0
  0
VERTEX
  5
2D3
  8
PART_LETTERS
 10
0.7104104942309799
 20
77.03265899929958
 30
0.0
  0
VERTEX
  5
2D4
  8
PART_LETTERS
 10
0.6884250067757447
 20
77.04400491612257
 30
0.0
  0
VERTEX
  5
2D5
  8
PART_LETTERS
 10
0.6677042857981696
 20
77.05567626993395
 30
0.0
  0
VERTEX
  5
2D6
  8
PART_LETTERS
 10
0.6482483312982549
 20
77.06767306073374
 30
0.0
  0
VERTEX
  5
2D7
  8
PART_LETTERS
 10
0.6300571432760004
 20
77.07999528852194
 30
0.0
  0
VERTEX
  5
2D8
  8
PART_LETTERS
 10
0.6131307217314063
 20
77.09264295329854
 30
0.0
  0
VERTEX
  5
2D9
  8
PART_LETTERS
 10
0.5974690666644724
 20
77.10561605506355
 30
0.0
  0
VERTEX
  5
2DA
  8
PART_LETTERS
 10
0.5827948170055365
 20
77.11897746232609
 30
0.0
  0
VERTEX
  5
2DB
  8
PART_LETTERS
 10
0.5690672931310481
 20
77.13279004359526
 30
0.0
  0
VERTEX
  5
2DC
  8
PART_LETTERS
 10
0.5562864950410071
 20
77.1470537988711
 30
0.0
  0
VERTEX
  5
2DD
  8
PART_LETTERS
 10
0.5444524227354137
 20
77.16176872815359
 30
0.0
  0
VERTEX
  5
2DE
  8
PART_LETTERS
 10
0.5335650762142679
 20
77.17693483144274
 30
0.0
  0
VERTEX
  5
2DF
  8
PART_LETTERS
 10
0.5236244554775693
 20
77.19255210873852
 30
0.0
  0
VERTEX
  5
2E0
  8
PART_LETTERS
 10
0.5146305605253183
 20
77.20862056004097
 30
0.0
  0
VERTEX
  5
2E1
  8
PART_LETTERS
 10
0.5065833913575147
 20
77.22514018535006
 30
0.0
  0
VERTEX
  5
2E2
  8
PART_LETTERS
 10
0.4994829479741587
 20
77.24211098466579
 30
0.0
  0
VERTEX
  5
2E3
  8
PART_LETTERS
 10
0.4933292303752501
 20
77.25953295798817
 30
0.0
  0
VERTEX
  5
2E4
  8
PART_LETTERS
 10
0.488122238560789
 20
77.27740610531721
 30
0.0
  0
VERTEX
  5
2E5
  8
PART_LETTERS
 10
0.4838619725307753
 20
77.29573042665291
 30
0.0
  0
VERTEX
  5
2E6
  8
PART_LETTERS
 10
0.4805484322852092
 20
77.31450592199526
 30
0.0
  0
VERTEX
  5
2E7
  8
PART_LETTERS
 10
0.4781816178240905
 20
77.33373259134426
 30
0.0
  0
VERTEX
  5
2E8
  8
PART_LETTERS
 10
0.4767615291474193
 20
77.3534104346999
 30
0.0
  0
VERTEX
  5
2E9
  8
PART_LETTERS
 10
0.4762881662551955
 20
77.37353945206219
 30
0.0
  0
VERTEX
  5
2EA
  8
PART_LETTERS
 10
0.4765303949227007
 20
77.38686572692257
 30
0.0
  0
VERTEX
  5
2EB
  8
PART_LETTERS
 10
0.477257080925216
 20
77.40009954809305
 30
0.0
  0
VERTEX
  5
2EC
  8
PART_LETTERS
 10
0.4784682242627416
 20
77.41324091557365
 30
0.0
  0
VERTEX
  5
2ED
  8
PART_LETTERS
 10
0.4801638249352774
 20
77.42628982936438
 30
0.0
  0
VERTEX
  5
2EE
  8
PART_LETTERS
 10
0.4823438829428235
 20
77.43924628946519
 30
0.0
  0
VERTEX
  5
2EF
  8
PART_LETTERS
 10
0.4850083982853798
 20
77.45211029587614
 30
0.0
  0
VERTEX
  5
2F0
  8
PART_LETTERS
 10
0.4881573709629463
 20
77.46488184859717
 30
0.0
  0
VERTEX
  5
2F1
  8
PART_LETTERS
 10
0.491790800975523
 20
77.47756094762835
 30
0.0
  0
VERTEX
  5
2F2
  8
PART_LETTERS
 10
0.49590868832311
 20
77.49014759296963
 30
0.0
  0
VERTEX
  5
2F3
  8
PART_LETTERS
 10
0.5005110330057072
 20
77.50264178462102
 30
0.0
  0
VERTEX
  5
2F4
  8
PART_LETTERS
 10
0.5055978350233147
 20
77.51504352258252
 30
0.0
  0
VERTEX
  5
2F5
  8
PART_LETTERS
 10
0.5111690943759324
 20
77.52735280685414
 30
0.0
  0
VERTEX
  5
2F6
  8
PART_LETTERS
 10
0.5172248110635603
 20
77.53956963743587
 30
0.0
  0
VERTEX
  5
2F7
  8
PART_LETTERS
 10
0.5237649850861985
 20
77.55169401432771
 30
0.0
  0
VERTEX
  5
2F8
  8
PART_LETTERS
 10
0.5307896164438468
 20
77.56372593752965
 30
0.0
  0
VERTEX
  5
2F9
  8
PART_LETTERS
 10
0.5382987051365054
 20
77.57566540704173
 30
0.0
  0
VERTEX
  5
2FA
  8
PART_LETTERS
 10
0.546294100237972
 20
77.58739962936224
 30
0.0
  0
VERTEX
  5
2FB
  8
PART_LETTERS
 10
0.5547776508220441
 20
77.59881581098954
 30
0.0
  0
VERTEX
  5
2FC
  8
PART_LETTERS
 10
0.5637493568887222
 20
77.60991395192363
 30
0.0
  0
VERTEX
  5
2FD
  8
PART_LETTERS
 10
0.573209218438006
 20
77.6206940521645
 30
0.0
  0
VERTEX
  5
2FE
  8
PART_LETTERS
 10
0.5831572354698955
 20
77.63115611171216
 30
0.0
  0
VERTEX
  5
2FF
  8
PART_LETTERS
 10
0.5935934079843908
 20
77.6413001305666
 30
0.0
  0
VERTEX
  5
300
  8
PART_LETTERS
 10
0.6045177359814917
 20
77.65112610872785
 30
0.0
  0
VERTEX
  5
301
  8
PART_LETTERS
 10
0.6159302194611984
 20
77.66063404619588
 30
0.0
  0
VERTEX
  5
302
  8
PART_LETTERS
 10
0.6278308584235108
 20
77.66982394297071
 30
0.0
  0
VERTEX
  5
303
  8
PART_LETTERS
 10
0.640219652868429
 20
77.67869579905229
 30
0.0
  0
VERTEX
  5
304
  8
PART_LETTERS
 10
0.6530966027959528
 20
77.6872496144407
 30
0.0
  0
VERTEX
  5
305
  8
PART_LETTERS
 10
0.6664617082060824
 20
77.69548538913585
 30
0.0
  0
VERTEX
  5
306
  8
PART_LETTERS
 10
0.6803149690988177
 20
77.70340312313783
 30
0.0
  0
VERTEX
  5
307
  8
PART_LETTERS
 10
0.6946563854741588
 20
77.71100281644657
 30
0.0
  0
VERTEX
  5
308
  8
PART_LETTERS
 10
0.7094859573321057
 20
77.71828446906211
 30
0.0
  0
VERTEX
  5
309
  8
PART_LETTERS
 10
0.7248036846726582
 20
77.72524808098443
 30
0.0
  0
VERTEX
  5
30A
  8
PART_LETTERS
 10
0.7407260591450746
 20
77.7318400290734
 30
0.0
  0
VERTEX
  5
30B
  8
PART_LETTERS
 10
0.7573695723986131
 20
77.7380066901889
 30
0.0
  0
VERTEX
  5
30C
  8
PART_LETTERS
 10
0.7747342244332738
 20
77.7437480643309
 30
0.0
  0
VERTEX
  5
30D
  8
PART_LETTERS
 10
0.7928200152490565
 20
77.74906415149944
 30
0.0
  0
VERTEX
  5
30E
  8
PART_LETTERS
 10
0.8116269448459614
 20
77.7539549516945
 30
0.0
  0
VERTEX
  5
30F
  8
PART_LETTERS
 10
0.8311550132239882
 20
77.75842046491606
 30
0.0
  0
VERTEX
  5
310
  8
PART_LETTERS
 10
0.8514042203831373
 20
77.76246069116412
 30
0.0
  0
VERTEX
  5
311
  8
PART_LETTERS
 10
0.8723745663234085
 20
77.76607563043872
 30
0.0
  0
VERTEX
  5
312
  8
PART_LETTERS
 10
0.8940660510448017
 20
77.76926528273984
 30
0.0
  0
VERTEX
  5
313
  8
PART_LETTERS
 10
0.9164786745473171
 20
77.77202964806747
 30
0.0
  0
VERTEX
  5
314
  8
PART_LETTERS
 10
0.9396124368309546
 20
77.77436872642161
 30
0.0
  0
VERTEX
  5
315
  8
PART_LETTERS
 10
0.9634673378957141
 20
77.77628251780229
 30
0.0
  0
VERTEX
  5
316
  8
PART_LETTERS
 10
0.9880433777415958
 20
77.77777102220948
 30
0.0
  0
VERTEX
  5
317
  8
PART_LETTERS
 10
1.0133405563686
 20
77.77883423964319
 30
0.0
  0
VERTEX
  5
318
  8
PART_LETTERS
 10
1.039358873776725
 20
77.77947217010342
 30
0.0
  0
VERTEX
  5
319
  8
PART_LETTERS
 10
1.066098329965973
 20
77.77968481359015
 30
0.0
  0
VERTEX
  5
31A
  8
PART_LETTERS
 10
1.098858370440692
 20
77.77929835716643
 30
0.0
  0
VERTEX
  5
31B
  8
PART_LETTERS
 10
1.130631005507412
 20
77.77813898789523
 30
0.0
  0
VERTEX
  5
31C
  8
PART_LETTERS
 10
1.161416235166135
 20
77.77620670577659
 30
0.0
  0
VERTEX
  5
31D
  8
PART_LETTERS
 10
1.19121405941686
 20
77.77350151081048
 30
0.0
  0
VERTEX
  5
31E
  8
PART_LETTERS
 10
1.220024478259587
 20
77.77002340299691
 30
0.0
  0
VERTEX
  5
31F
  8
PART_LETTERS
 10
1.247847491694316
 20
77.76577238233588
 30
0.0
  0
VERTEX
  5
320
  8
PART_LETTERS
 10
1.274683099721047
 20
77.7607484488274
 30
0.0
  0
VERTEX
  5
321
  8
PART_LETTERS
 10
1.30053130233978
 20
77.75495160247146
 30
0.0
  0
VERTEX
  5
322
  8
PART_LETTERS
 10
1.325392099550515
 20
77.74838184326806
 30
0.0
  0
VERTEX
  5
323
  8
PART_LETTERS
 10
1.349265491353251
 20
77.74103917121721
 30
0.0
  0
VERTEX
  5
324
  8
PART_LETTERS
 10
1.372151477747991
 20
77.73292358631888
 30
0.0
  0
VERTEX
  5
325
  8
PART_LETTERS
 10
1.394050058734732
 20
77.72403508857309
 30
0.0
  0
VERTEX
  5
326
  8
PART_LETTERS
 10
1.414961234313475
 20
77.71437367797985
 30
0.0
  0
VERTEX
  5
327
  8
PART_LETTERS
 10
1.43488500448422
 20
77.70393935453916
 30
0.0
  0
VERTEX
  5
328
  8
PART_LETTERS
 10
1.453821369246967
 20
77.692732118251
 30
0.0
  0
VERTEX
  5
329
  8
PART_LETTERS
 10
1.471770328601717
 20
77.68075196911539
 30
0.0
  0
VERTEX
  5
32A
  8
PART_LETTERS
 10
1.480387474767676
 20
77.67445448602871
 30
0.0
  0
VERTEX
  5
32B
  8
PART_LETTERS
 10
1.488783656614805
 20
77.66792864232801
 30
0.0
  0
VERTEX
  5
32C
  8
PART_LETTERS
 10
1.496958874143103
 20
77.66117443801329
 30
0.0
  0
VERTEX
  5
32D
  8
PART_LETTERS
 10
1.504913127352569
 20
77.65419187308453
 30
0.0
  0
VERTEX
  5
32E
  8
PART_LETTERS
 10
1.512646416243205
 20
77.64698094754176
 30
0.0
  0
VERTEX
  5
32F
  8
PART_LETTERS
 10
1.52015874081501
 20
77.63954166138497
 30
0.0
  0
VERTEX
  5
330
  8
PART_LETTERS
 10
1.527450101067983
 20
77.63187401461416
 30
0.0
  0
VERTEX
  5
331
  8
PART_LETTERS
 10
1.534520497002126
 20
77.62397800722931
 30
0.0
  0
VERTEX
  5
332
  8
PART_LETTERS
 10
1.541369928617438
 20
77.61585363923045
 30
0.0
  0
VERTEX
  5
333
  8
PART_LETTERS
 10
1.547998395913918
 20
77.60750091061756
 30
0.0
  0
VERTEX
  5
334
  8
PART_LETTERS
 10
1.554405898891568
 20
77.59891982139065
 30
0.0
  0
VERTEX
  5
335
  8
PART_LETTERS
 10
1.560592437550387
 20
77.59011037154973
 30
0.0
  0
VERTEX
  5
336
  8
PART_LETTERS
 10
1.566558011890374
 20
77.58107256109479
 30
0.0
  0
VERTEX
  5
337
  8
PART_LETTERS
 10
1.572302621911531
 20
77.57180639002581
 30
0.0
  0
VERTEX
  5
338
  8
PART_LETTERS
 10
1.577826267613856
 20
77.56231185834282
 30
0.0
  0
VERTEX
  5
339
  8
PART_LETTERS
 10
1.583128948997351
 20
77.55258896604582
 30
0.0
  0
VERTEX
  5
33A
  8
PART_LETTERS
 10
1.593071418807848
 20
77.53245809960973
 30
0.0
  0
VERTEX
  5
33B
  8
PART_LETTERS
 10
1.60213003134302
 20
77.51141379071754
 30
0.0
  0
VERTEX
  5
33C
  8
PART_LETTERS
 10
1.610304786602868
 20
77.48945603936929
 30
0.0
  0
VERTEX
  5
33D
  8
PART_LETTERS
 10
1.617595684587392
 20
77.46658484556494
 30
0.0
  0
VERTEX
  5
33E
  8
PART_LETTERS
 10
1.624002725296593
 20
77.4428002093045
 30
0.0
  0
VERTEX
  5
33F
  8
PART_LETTERS
 10
1.629525908730468
 20
77.41810213058795
 30
0.0
  0
VERTEX
  5
340
  8
PART_LETTERS
 10
1.634165234889021
 20
77.39249060941533
 30
0.0
  0
VERTEX
  5
341
  8
PART_LETTERS
 10
1.637920703772249
 20
77.36596564578662
 30
0.0
  0
VERTEX
  5
342
  8
PART_LETTERS
 10
1.233668793813176
 20
77.34229750117542
 30
0.0
  0
VERTEX
  5
343
  8
PART_LETTERS
 10
1.231518320986394
 20
77.3538135327878
 30
0.0
  0
VERTEX
  5
344
  8
PART_LETTERS
 10
1.22909048708995
 20
77.36493016445986
 30
0.0
  0
VERTEX
  5
345
  8
PART_LETTERS
 10
1.226385292123843
 20
77.37564739619161
 30
0.0
  0
VERTEX
  5
346
  8
PART_LETTERS
 10
1.223402736088074
 20
77.38596522798306
 30
0.0
  0
VERTEX
  5
347
  8
PART_LETTERS
 10
1.220142818982643
 20
77.39588365983418
 30
0.0
  0
VERTEX
  5
348
  8
PART_LETTERS
 10
1.216605540807549
 20
77.405402691745
 30
0.0
  0
VERTEX
  5
349
  8
PART_LETTERS
 10
1.212790901562793
 20
77.41452232371549
 30
0.0
  0
VERTEX
  5
34A
  8
PART_LETTERS
 10
1.208698901248374
 20
77.42324255574567
 30
0.0
  0
VERTEX
  5
34B
  8
PART_LETTERS
 10
1.204329539864293
 20
77.43156338783552
 30
0.0
  0
VERTEX
  5
34C
  8
PART_LETTERS
 10
1.19968281741055
 20
77.4394848199851
 30
0.0
  0
VERTEX
  5
34D
  8
PART_LETTERS
 10
1.194758733887145
 20
77.44700685219433
 30
0.0
  0
VERTEX
  5
34E
  8
PART_LETTERS
 10
1.189557289294077
 20
77.45412948446328
 30
0.0
  0
VERTEX
  5
34F
  8
PART_LETTERS
 10
1.184078483631346
 20
77.46085271679189
 30
0.0
  0
VERTEX
  5
350
  8
PART_LETTERS
 10
1.178322316898954
 20
77.4671765491802
 30
0.0
  0
VERTEX
  5
351
  8
PART_LETTERS
 10
1.172288789096899
 20
77.47310098162818
 30
0.0
  0
VERTEX
  5
352
  8
PART_LETTERS
 10
1.165977900225182
 20
77.47862601413586
 30
0.0
  0
VERTEX
  5
353
  8
PART_LETTERS
 10
1.15937485769342
 20
77.48378493003156
 30
0.0
  0
VERTEX
  5
354
  8
PART_LETTERS
 10
1.152464868911232
 20
77.4886110126437
 30
0.0
  0
VERTEX
  5
355
  8
PART_LETTERS
 10
1.145247933878618
 20
77.49310426197223
 30
0.0
  0
VERTEX
  5
356
  8
PART_LETTERS
 10
1.137724052595578
 20
77.49726467801716
 30
0.0
  0
VERTEX
  5
357
  8
PART_LETTERS
 10
1.129893225062111
 20
77.5010922607785
 30
0.0
  0
VERTEX
  5
358
  8
PART_LETTERS
 10
1.121755451278217
 20
77.50458701025624
 30
0.0
  0
VERTEX
  5
359
  8
PART_LETTERS
 10
1.113310731243898
 20
77.5077489264504
 30
0.0
  0
VERTEX
  5
35A
  8
PART_LETTERS
 10
1.104559064959152
 20
77.51057800936096
 30
0.0
  0
VERTEX
  5
35B
  8
PART_LETTERS
 10
1.09550045242398
 20
77.51307425898791
 30
0.0
  0
VERTEX
  5
35C
  8
PART_LETTERS
 10
1.086134893638381
 20
77.51523767533129
 30
0.0
  0
VERTEX
  5
35D
  8
PART_LETTERS
 10
1.076462388602356
 20
77.51706825839106
 30
0.0
  0
VERTEX
  5
35E
  8
PART_LETTERS
 10
1.066482937315905
 20
77.51856600816724
 30
0.0
  0
VERTEX
  5
35F
  8
PART_LETTERS
 10
1.056196539779027
 20
77.51973092465983
 30
0.0
  0
VERTEX
  5
360
  8
PART_LETTERS
 10
1.045603195991724
 20
77.52056300786882
 30
0.0
  0
VERTEX
  5
361
  8
PART_LETTERS
 10
1.034702905953993
 20
77.5210622577942
 30
0.0
  0
VERTEX
  5
362
  8
PART_LETTERS
 10
1.023495669665837
 20
77.521228674436
 30
0.0
  0
VERTEX
  5
363
  8
PART_LETTERS
 10
1.005374746447897
 20
77.52073312265821
 30
0.0
  0
VERTEX
  5
364
  8
PART_LETTERS
 10
0.9884076452797522
 20
77.51924646732482
 30
0.0
  0
VERTEX
  5
365
  8
PART_LETTERS
 10
0.9725943661614029
 20
77.51676870843583
 30
0.0
  0
VERTEX
  5
366
  8
PART_LETTERS
 10
0.9651204098709016
 20
77.515158165158
 30
0.0
  0
VERTEX
  5
367
  8
PART_LETTERS
 10
0.9579349090928491
 20
77.51329984599126
 30
0.0
  0
VERTEX
  5
368
  8
PART_LETTERS
 10
0.9510378638272454
 20
77.51119375093563
 30
0.0
  0
VERTEX
  5
369
  8
PART_LETTERS
 10
0.9444292740740905
 20
77.50883987999109
 30
0.0
  0
VERTEX
  5
36A
  8
PART_LETTERS
 10
0.9381091398333845
 20
77.50623823315766
 30
0.0
  0
VERTEX
  5
36B
  8
PART_LETTERS
 10
0.9320774611051273
 20
77.50338881043533
 30
0.0
  0
VERTEX
  5
36C
  8
PART_LETTERS
 10
0.926334237889319
 20
77.50029161182411
 30
0.0
  0
VERTEX
  5
36D
  8
PART_LETTERS
 10
0.9208794701859595
 20
77.49694663732396
 30
0.0
  0
VERTEX
  5
36E
  8
PART_LETTERS
 10
0.9157131579950489
 20
77.49335388693493
 30
0.0
  0
VERTEX
  5
36F
  8
PART_LETTERS
 10
0.9108353013165871
 20
77.489513360657
 30
0.0
  0
VERTEX
  5
370
  8
PART_LETTERS
 10
0.901959747087392
 20
77.48137003965172
 30
0.0
  0
VERTEX
  5
371
  8
PART_LETTERS
 10
0.8942676000887563
 20
77.47279773352535
 30
0.0
  0
VERTEX
  5
372
  8
PART_LETTERS
 10
0.8908653043008982
 20
77.46835071104177
 30
0.0
  0
VERTEX
  5
373
  8
PART_LETTERS
 10
0.8877588603206799
 20
77.46379644227791
 30
0.0
  0
VERTEX
  5
374
  8
PART_LETTERS
 10
0.8849482681481013
 20
77.45913492723379
 30
0.0
  0
VERTEX
  5
375
  8
PART_LETTERS
 10
0.8824335277831628
 20
77.45436616590939
 30
0.0
  0
VERTEX
  5
376
  8
PART_LETTERS
 10
0.880214639225864
 20
77.44949015830474
 30
0.0
  0
VERTEX
  5
377
  8
PART_LETTERS
 10
0.8782916024762051
 20
77.4445069044198
 30
0.0
  0
VERTEX
  5
378
  8
PART_LETTERS
 10
0.876664417534186
 20
77.43941640425459
 30
0.0
  0
VERTEX
  5
379
  8
PART_LETTERS
 10
0.8753330843998067
 20
77.43421865780911
 30
0.0
  0
VERTEX
  5
37A
  8
PART_LETTERS
 10
0.8742976030730674
 20
77.42891366508337
 30
0.0
  0
VERTEX
  5
37B
  8
PART_LETTERS
 10
0.8735579735539677
 20
77.42350142607737
 30
0.0
  0
VERTEX
  5
37C
  8
PART_LETTERS
 10
0.8731141958425079
 20
77.4179819407911
 30
0.0
  0
VERTEX
  5
37D
  8
PART_LETTERS
 10
0.872966269938688
 20
77.41235520922454
 30
0.0
  0
VERTEX
  5
37E
  8
PART_LETTERS
 10
0.8734544254212937
 20
77.4041749067433
 30
0.0
  0
VERTEX
  5
37F
  8
PART_LETTERS
 10
0.8749188918691109
 20
77.3962017005274
 30
0.0
  0
VERTEX
  5
380
  8
PART_LETTERS
 10
0.8773596692821395
 20
77.38843559057685
 30
0.0
  0
VERTEX
  5
381
  8
PART_LETTERS
 10
0.8807767576603797
 20
77.38087657689165
 30
0.0
  0
VERTEX
  5
382
  8
PART_LETTERS
 10
0.8851701570038313
 20
77.3735246594718
 30
0.0
  0
VERTEX
  5
383
  8
PART_LETTERS
 10
0.8905398673124942
 20
77.3663798383173
 30
0.0
  0
VERTEX
  5
384
  8
PART_LETTERS
 10
0.8968858885863689
 20
77.35944211342814
 30
0.0
  0
VERTEX
  5
385
  8
PART_LETTERS
 10
0.9042082208254547
 20
77.35271148480435
 30
0.0
  0
VERTEX
  5
386
  8
PART_LETTERS
 10
0.9083205609516484
 20
77.34929439642612
 30
0.0
  0
VERTEX
  5
387
  8
PART_LETTERS
 10
0.9130837750546498
 20
77.34590689322863
 30
0.0
  0
VERTEX
  5
388
  8
PART_LETTERS
 10
0.9184978631344588
 20
77.34254897521193
 30
0.0
  0
VERTEX
  5
389
  8
PART_LETTERS
 10
0.9245628251910755
 20
77.33922064237596
 30
0.0
  0
VERTEX
  5
38A
  8
PART_LETTERS
 10
0.9312786612244998
 20
77.33592189472078
 30
0.0
  0
VERTEX
  5
38B
  8
PART_LETTERS
 10
0.9386453712347317
 20
77.33265273224637
 30
0.0
  0
VERTEX
  5
38C
  8
PART_LETTERS
 10
0.9553314131856185
 20
77.32620316283982
 30
0.0
  0
VERTEX
  5
38D
  8
PART_LETTERS
 10
0.9746209510437358
 20
77.31987193415631
 30
0.0
  0
VERTEX
  5
38E
  8
PART_LETTERS
 10
0.9965139848090836
 20
77.31365904619588
 30
0.0
  0
VERTEX
  5
38F
  8
PART_LETTERS
 10
1.021010514481662
 20
77.30756449895851
 30
0.0
  0
VERTEX
  5
390
  8
PART_LETTERS
 10
1.048110540061471
 20
77.30158829244418
 30
0.0
  0
VERTEX
  5
391
  8
PART_LETTERS
 10
1.115912378077331
 20
77.28641849100745
 30
0.0
  0
VERTEX
  5
392
  8
PART_LETTERS
 10
1.147943883475736
 20
77.2788169486249
 30
0.0
  0
VERTEX
  5
393
  8
PART_LETTERS
 10
1.178729113134459
 20
77.27120431179956
 30
0.0
  0
VERTEX
  5
394
  8
PART_LETTERS
 10
1.208268067053499
 20
77.26358058053145
 30
0.0
  0
VERTEX
  5
395
  8
PART_LETTERS
 10
1.236560745232856
 20
77.25594575482054
 30
0.0
  0
VERTEX
  5
396
  8
PART_LETTERS
 10
1.26360714767253
 20
77.24829983466685
 30
0.0
  0
VERTEX
  5
397
  8
PART_LETTERS
 10
1.289407274372522
 20
77.24064282007036
 30
0.0
  0
VERTEX
  5
398
  8
PART_LETTERS
 10
1.31396112533283
 20
77.23297471103109
 30
0.0
  0
VERTEX
  5
399
  8
PART_LETTERS
 10
1.337268700553456
 20
77.22529550754905
 30
0.0
  0
VERTEX
  5
39A
  8
PART_LETTERS
 10
1.359330000034399
 20
77.21760520962421
 30
0.0
  0
VERTEX
  5
39B
  8
PART_LETTERS
 10
1.380145023775659
 20
77.20990381725659
 30
0.0
  0
VERTEX
  5
39C
  8
PART_LETTERS
 10
1.399713771777237
 20
77.20219133044617
 30
0.0
  0
VERTEX
  5
39D
  8
PART_LETTERS
 10
1.418036244039131
 20
77.19446774919298
 30
0.0
  0
VERTEX
  5
39E
  8
PART_LETTERS
 10
1.435112440561343
 20
77.186733073497
 30
0.0
  0
VERTEX
  5
39F
  8
PART_LETTERS
 10
1.450942361343872
 20
77.17898730335823
 30
0.0
  0
VERTEX
  5
3A0
  8
PART_LETTERS
 10
1.465890273924875
 20
77.1711194943488
 30
0.0
  0
VERTEX
  5
3A1
  8
PART_LETTERS
 10
1.480320445842508
 20
77.16301870204087
 30
0.0
  0
VERTEX
  5
3A2
  8
PART_LETTERS
 10
1.494232877096771
 20
77.15468492643441
 30
0.0
  0
VERTEX
  5
3A3
  8
PART_LETTERS
 10
1.507627567687665
 20
77.14611816752945
 30
0.0
  0
VERTEX
  5
3A4
  8
PART_LETTERS
 10
1.520504517615189
 20
77.13731842532596
 30
0.0
  0
VERTEX
  5
3A5
  8
PART_LETTERS
 10
1.532863726879343
 20
77.12828569982396
 30
0.0
  0
VERTEX
  5
3A6
  8
PART_LETTERS
 10
1.544705195480127
 20
77.11901999102344
 30
0.0
  0
VERTEX
  5
3A7
  8
PART_LETTERS
 10
1.556028923417542
 20
77.1095212989244
 30
0.0
  0
VERTEX
  5
3A8
  8
PART_LETTERS
 10
1.566834910691587
 20
77.09978962352685
 30
0.0
  0
VERTEX
  5
3A9
  8
PART_LETTERS
 10
1.577123157302262
 20
77.08982496483078
 30
0.0
  0
VERTEX
  5
3AA
  8
PART_LETTERS
 10
1.586893663249568
 20
77.07962732283619
 30
0.0
  0
VERTEX
  5
3AB
  8
PART_LETTERS
 10
1.596146428533504
 20
77.06919669754309
 30
0.0
  0
VERTEX
  5
3AC
  8
PART_LETTERS
 10
1.60488145315407
 20
77.05853308895146
 30
0.0
  0
VERTEX
  5
3AD
  8
PART_LETTERS
 10
1.613098737111266
 20
77.04763649706133
 30
0.0
  0
VERTEX
  5
3AE
  8
PART_LETTERS
 10
1.620798280405093
 20
77.03650692187267
 30
0.0
  0
VERTEX
  5
3AF
  8
PART_LETTERS
 10
1.62798008303555
 20
77.02514436338552
 30
0.0
  0
VERTEX
  5
3B0
  8
PART_LETTERS
 10
1.634686673699985
 20
77.0135802558544
 30
0.0
  0
VERTEX
  5
3B1
  8
PART_LETTERS
 10
1.640960581095748
 20
77.00184603353388
 30
0.0
  0
VERTEX
  5
3B2
  8
PART_LETTERS
 10
1.646801805222837
 20
76.98994169642397
 30
0.0
  0
VERTEX
  5
3B3
  8
PART_LETTERS
 10
1.652210346081253
 20
76.97786724452467
 30
0.0
  0
VERTEX
  5
3B4
  8
PART_LETTERS
 10
1.657186203670995
 20
76.96562267783598
 30
0.0
  0
VERTEX
  5
3B5
  8
PART_LETTERS
 10
1.661729377992064
 20
76.95320799635789
 30
0.0
  0
VERTEX
  5
3B6
  8
PART_LETTERS
 10
1.66583986904446
 20
76.94062320009041
 30
0.0
  0
VERTEX
  5
3B7
  8
PART_LETTERS
 10
1.669517676828183
 20
76.92786828903354
 30
0.0
  0
VERTEX
  5
3B8
  8
PART_LETTERS
 10
1.672762801343233
 20
76.91494326318728
 30
0.0
  0
VERTEX
  5
3B9
  8
PART_LETTERS
 10
1.675575242589609
 20
76.90184812255163
 30
0.0
  0
VERTEX
  5
3BA
  8
PART_LETTERS
 10
1.677955000567312
 20
76.88858286712657
 30
0.0
  0
VERTEX
  5
3BB
  8
PART_LETTERS
 10
1.679902075276341
 20
76.87514749691213
 30
0.0
  0
VERTEX
  5
3BC
  8
PART_LETTERS
 10
1.681416466716698
 20
76.8615420119083
 30
0.0
  0
VERTEX
  5
3BD
  8
PART_LETTERS
 10
1.682498174888381
 20
76.84776641211506
 30
0.0
  0
VERTEX
  5
3BE
  8
PART_LETTERS
 10
1.683147199791391
 20
76.83382069753243
 30
0.0
  0
VERTEX
  5
3BF
  8
PART_LETTERS
 10
1.683363541425727
 20
76.81970486816041
 30
0.0
  0
VERTEX
  5
3C0
  8
PART_LETTERS
 10
1.683075085913278
 20
76.80310018545663
 30
0.0
  0
VERTEX
  5
3C1
  8
PART_LETTERS
 10
1.682209719375932
 20
76.78665822124705
 30
0.0
  0
VERTEX
  5
3C2
  8
PART_LETTERS
 10
1.680767441813688
 20
76.77037897553167
 30
0.0
  0
VERTEX
  5
3C3
  8
PART_LETTERS
 10
1.678748253226546
 20
76.75426244831048
 30
0.0
  0
VERTEX
  5
3C4
  8
PART_LETTERS
 10
1.676152153614506
 20
76.73830863958351
 30
0.0
  0
VERTEX
  5
3C5
  8
PART_LETTERS
 10
1.672979142977569
 20
76.72251754935074
 30
0.0
  0
VERTEX
  5
3C6
  8
PART_LETTERS
 10
1.669229221315734
 20
76.70688917761217
 30
0.0
  0
VERTEX
  5
3C7
  8
PART_LETTERS
 10
1.664902388629002
 20
76.69142352436779
 30
0.0
  0
VERTEX
  5
3C8
  8
PART_LETTERS
 10
1.659998644917371
 20
76.67612058961763
 30
0.0
  0
VERTEX
  5
3C9
  8
PART_LETTERS
 10
1.654517990180843
 20
76.66098037336165
 30
0.0
  0
VERTEX
  5
3CA
  8
PART_LETTERS
 10
1.648460424419418
 20
76.64600287559988
 30
0.0
  0
VERTEX
  5
3CB
  8
PART_LETTERS
 10
1.641825947633094
 20
76.63118809633231
 30
0.0
  0
VERTEX
  5
3CC
  8
PART_LETTERS
 10
1.634614559821873
 20
76.61653603555895
 30
0.0
  0
VERTEX
  5
3CD
  8
PART_LETTERS
 10
1.626826260985755
 20
76.60204669327979
 30
0.0
  0
VERTEX
  5
3CE
  8
PART_LETTERS
 10
1.618461051124738
 20
76.58772006949484
 30
0.0
  0
VERTEX
  5
3CF
  8
PART_LETTERS
 10
1.609518930238824
 20
76.57355616420408
 30
0.0
  0
VERTEX
  5
3D0
  8
PART_LETTERS
 10
1.60005906868954
 20
76.55968626164717
 30
0.0
  0
VERTEX
  5
3D1
  8
PART_LETTERS
 10
1.590140636838415
 20
76.54624164606373
 30
0.0
  0
VERTEX
  5
3D2
  8
PART_LETTERS
 10
1.579763634685448
 20
76.53322231745378
 30
0.0
  0
VERTEX
  5
3D3
  8
PART_LETTERS
 10
1.568928062230639
 20
76.52062827581732
 30
0.0
  0
VERTEX
  5
3D4
  8
PART_LETTERS
 10
1.557633919473988
 20
76.50845952115432
 30
0.0
  0
VERTEX
  5
3D5
  8
PART_LETTERS
 10
1.545881206415495
 20
76.49671605346482
 30
0.0
  0
VERTEX
  5
3D6
  8
PART_LETTERS
 10
1.533669923055161
 20
76.4853978727488
 30
0.0
  0
VERTEX
  5
3D7
  8
PART_LETTERS
 10
1.521000069392985
 20
76.47450497900627
 30
0.0
  0
VERTEX
  5
3D8
  8
PART_LETTERS
 10
1.507871645428967
 20
76.46403737223721
 30
0.0
  0
VERTEX
  5
3D9
  8
PART_LETTERS
 10
1.494284651163108
 20
76.45399505244163
 30
0.0
  0
VERTEX
  5
3DA
  8
PART_LETTERS
 10
1.480239086595407
 20
76.44437801961953
 30
0.0
  0
VERTEX
  5
3DB
  8
PART_LETTERS
 10
1.465734951725864
 20
76.43518627377092
 30
0.0
  0
VERTEX
  5
3DC
  8
PART_LETTERS
 10
1.450772246554479
 20
76.4264198148958
 30
0.0
  0
VERTEX
  5
3DD
  8
PART_LETTERS
 10
1.435350971081253
 20
76.41807864299415
 30
0.0
  0
VERTEX
  5
3DE
  8
PART_LETTERS
 10
1.419471125306184
 20
76.410162758066
 30
0.0
  0
VERTEX
  5
3DF
  8
PART_LETTERS
 10
1.403132709229274
 20
76.40267216011131
 30
0.0
  0
VERTEX
  5
3E0
  8
PART_LETTERS
 10
1.386295043226972
 20
76.39562164172048
 30
0.0
  0
VERTEX
  5
3E1
  8
PART_LETTERS
 10
1.368917447675727
 20
76.3890259954839
 30
0.0
  0
VERTEX
  5
3E2
  8
PART_LETTERS
 10
1.35099992257554
 20
76.38288522140158
 30
0.0
  0
VERTEX
  5
3E3
  8
PART_LETTERS
 10
1.332542467926409
 20
76.37719931947352
 30
0.0
  0
VERTEX
  5
3E4
  8
PART_LETTERS
 10
1.313545083728336
 20
76.37196828969968
 30
0.0
  0
VERTEX
  5
3E5
  8
PART_LETTERS
 10
1.294007769981321
 20
76.36719213208009
 30
0.0
  0
VERTEX
  5
3E6
  8
PART_LETTERS
 10
1.273930526685362
 20
76.36287084661474
 30
0.0
  0
VERTEX
  5
3E7
  8
PART_LETTERS
 10
1.253313353840461
 20
76.35900443330367
 30
0.0
  0
VERTEX
  5
3E8
  8
PART_LETTERS
 10
1.232156251446618
 20
76.35559289214682
 30
0.0
  0
VERTEX
  5
3E9
  8
PART_LETTERS
 10
1.210459219503831
 20
76.35263622314422
 30
0.0
  0
VERTEX
  5
3EA
  8
PART_LETTERS
 10
1.188222258012102
 20
76.35013442629585
 30
0.0
  0
VERTEX
  5
3EB
  8
PART_LETTERS
 10
1.16544536697143
 20
76.34808750160175
 30
0.0
  0
VERTEX
  5
3EC
  8
PART_LETTERS
 10
1.142128546381815
 20
76.34649544906188
 30
0.0
  0
VERTEX
  5
3ED
  8
PART_LETTERS
 10
1.118271796243258
 20
76.34535826867626
 30
0.0
  0
VERTEX
  5
3EE
  8
PART_LETTERS
 10
1.093875116555758
 20
76.34467596044489
 30
0.0
  0
VERTEX
  5
3EF
  8
PART_LETTERS
 10
1.068938507319315
 20
76.34444852436778
 30
0.0
  0
VERTEX
  5
3F0
  8
PART_LETTERS
 10
1.02552965084336
 20
76.34498105762154
 30
0.0
  0
VERTEX
  5
3F1
  8
PART_LETTERS
 10
0.9838219422613345
 20
76.34657865738278
 30
0.0
  0
VERTEX
  5
3F2
  8
PART_LETTERS
 10
0.9438153815732375
 20
76.34924132365154
 30
0.0
  0
VERTEX
  5
3F3
  8
PART_LETTERS
 10
0.9244500316894124
 20
76.35097205672622
 30
0.0
  0
VERTEX
  5
3F4
  8
PART_LETTERS
 10
0.9055099687790698
 20
76.3529690564278
 30
0.0
  0
VERTEX
  5
3F5
  8
PART_LETTERS
 10
0.8869951928422093
 20
76.35523232275625
 30
0.0
  0
VERTEX
  5
3F6
  8
PART_LETTERS
 10
0.868905703878831
 20
76.35776185571157
 30
0.0
  0
VERTEX
  5
3F7
  8
PART_LETTERS
 10
0.851241501888935
 20
76.36055765529376
 30
0.0
  0
VERTEX
  5
3F8
  8
PART_LETTERS
 10
0.8340025868725213
 20
76.36361972150283
 30
0.0
  0
VERTEX
  5
3F9
  8
PART_LETTERS
 10
0.8171889588295898
 20
76.36694805433878
 30
0.0
  0
VERTEX
  5
3FA
  8
PART_LETTERS
 10
0.8008006177601407
 20
76.3705426538016
 30
0.0
  0
VERTEX
  5
3FB
  8
PART_LETTERS
 10
0.7848375636641738
 20
76.3744035198913
 30
0.0
  0
VERTEX
  5
3FC
  8
PART_LETTERS
 10
0.7692997965416891
 20
76.37853065260788
 30
0.0
  0
VERTEX
  5
3FD
  8
PART_LETTERS
 10
0.7541873163926867
 20
76.38292405195133
 30
0.0
  0
VERTEX
  5
3FE
  8
PART_LETTERS
 10
0.7395001232171666
 20
76.38758371792167
 30
0.0
  0
VERTEX
  5
3FF
  8
PART_LETTERS
 10
0.7252382170151288
 20
76.39250965051887
 30
0.0
  0
VERTEX
  5
400
  8
PART_LETTERS
 10
0.7114015977865732
 20
76.39770184974294
 30
0.0
  0
VERTEX
  5
401
  8
PART_LETTERS
 10
0.6979902655314998
 20
76.4031603155939
 30
0.0
  0
VERTEX
  5
402
  8
PART_LETTERS
 10
0.6850042202499088
 20
76.40888504807172
 30
0.0
  0
VERTEX
  5
403
  8
PART_LETTERS
 10
0.6724434619418
 20
76.41487604717642
 30
0.0
  0
VERTEX
  5
404
  8
PART_LETTERS
 10
0.6603079906071735
 20
76.42113331290801
 30
0.0
  0
VERTEX
  5
405
  8
PART_LETTERS
 10
0.6485978062460291
 20
76.42765684526647
 30
0.0
  0
VERTEX
  5
406
  8
PART_LETTERS
 10
0.6373129088583672
 20
76.4344466442518
 30
0.0
  0
VERTEX
  5
407
  8
PART_LETTERS
 10
0.6264532984441875
 20
76.44150270986403
 30
0.0
  0
VERTEX
  5
408
  8
PART_LETTERS
 10
0.61601897500349
 20
76.44882504210311
 30
0.0
  0
VERTEX
  5
409
  8
PART_LETTERS
 10
0.6060099385362747
 20
76.45641364096907
 30
0.0
  0
VERTEX
  5
40A
  8
PART_LETTERS
 10
0.5964261890425419
 20
76.4642685064619
 30
0.0
  0
VERTEX
  5
40B
  8
PART_LETTERS
 10
0.5872677265222912
 20
76.47238963858163
 30
0.0
  0
VERTEX
  5
40C
  8
PART_LETTERS
 10
0.5785345509755228
 20
76.48077703732822
 30
0.0
  0
VERTEX
  5
40D
  8
PART_LETTERS
 10
0.5619557553049055
 20
76.49810655696074
 30
0.0
  0
VERTEX
  5
40E
  8
PART_LETTERS
 10
0.5463014965331626
 20
76.51601298761813
 30
0.0
  0
VERTEX
  5
40F
  8
PART_LETTERS
 10
0.5315717746602944
 20
76.53449632930042
 30
0.0
  0
VERTEX
  5
410
  8
PART_LETTERS
 10
0.5177665896863004
 20
76.55355658200763
 30
0.0
  0
VERTEX
  5
411
  8
PART_LETTERS
 10
0.504885941611181
 20
76.57319374573973
 30
0.0
  0
VERTEX
  5
412
  8
PART_LETTERS
 10
0.4929298304349362
 20
76.59340782049671
 30
0.0
  0
VERTEX
  5
413
  8
PART_LETTERS
 10
0.4818982561575658
 20
76.61419880627861
 30
0.0
  0
VERTEX
  5
414
  8
PART_LETTERS
 10
0.4717912187790698
 20
76.63556670308539
 30
0.0
  0
VERTEX
  5
415
  8
PART_LETTERS
 10
0.4626087182994484
 20
76.65751151091706
 30
0.0
  0
VERTEX
  5
416
  8
PART_LETTERS
 10
0.4543507547187015
 20
76.68003322977364
 30
0.0
  0
VERTEX
  5
417
  8
PART_LETTERS
 10
0.4470173280368291
 20
76.70313185965512
 30
0.0
  0
VERTEX
  5
418
  8
PART_LETTERS
 10
0.4406084382538312
 20
76.72680740056151
 30
0.0
  0
VERTEX
  5
419
  8
PART_LETTERS
 10
0.4351240853697078
 20
76.75105985249277
 30
0.0
  0
VERTEX
  5
41A
  8
PART_LETTERS
 10
0.4305642693844587
 20
76.77588921544896
 30
0.0
  0
VERTEX
  5
41B
  8
PART_LETTERS
 10
0.4269289902980843
 20
76.80129548943003
 30
0.0
  0
SEQEND
  5
4C2
  8
PART_LETTERS
  0
POLYLINE
  5
73
  8
PART_LETTERS
 66
     1
 10
0.0
 20
0.0
 30
0.0
 70
     1
  0
VERTEX
  5
41C
  8
PART_LETTERS
 10
2.499441167619474
 20
76.62751953391758
 30
0.0
  0
VERTEX
  5
41D
  8
PART_LETTERS
 10
1.796970635559446
 20
76.62751953391758
 30
0.0
  0
VERTEX
  5
41E
  8
PART_LETTERS
 10
1.796970635559446
 20
76.94467267170748
 30
0.0
  0
VERTEX
  5
41F
  8
PART_LETTERS
 10
2.499441167619474
 20
77.77968481359015
 30
0.0
  0
VERTEX
  5
420
  8
PART_LETTERS
 10
2.835528821098328
 20
77.77968481359015
 30
0.0
  0
VERTEX
  5
421
  8
PART_LETTERS
 10
2.835528821098328
 20
76.92668488180298
 30
0.0
  0
VERTEX
  5
422
  8
PART_LETTERS
 10
3.009726365436663
 20
76.92668488180298
 30
0.0
  0
VERTEX
  5
423
  8
PART_LETTERS
 10
3.009726365436663
 20
76.62751953391758
 30
0.0
  0
VERTEX
  5
424
  8
PART_LETTERS
 10
2.835528821098328
 20
76.62751953391758
 30
0.0
  0
VERTEX
  5
425
  8
PART_LETTERS
 10
2.835528821098328
 20
76.36811666897897
 30
0.0
  0
VERTEX
  5
426
  8
PART_LETTERS
 10
2.499441167619474
 20
76.36811666897897
 30
0.0
  0
SEQEND
  5
4C3
  8
PART_LETTERS
  0
POLYLINE
  5
74
  8
PART_LETTERS
 66
     1
 10
0.0
 20
0.0
 30
0.0
 70
     1
  0
VERTEX
  5
427
  8
PART_LETTERS
 10
2.499441167619474
 20
76.92668488180298
 30
0.0
  0
VERTEX
  5
428
  8
PART_LETTERS
 10
2.499441167619474
 20
77.36346569801205
 30
0.0
  0
VERTEX
  5
429
  8
PART_LETTERS
 10
2.128265489754535
 20
76.92668488180298
 30
0.0
  0
SEQEND
  5
4C4
  8
PART_LETTERS
  0
POLYLINE
  5
76
  8
T8_DRILL
 66
     1
 10
0.0
 20
0.0
 30
0.0
 70
     1
  0
VERTEX
  5
42A
  8
T8_DRILL
 10
1.805718290019005
 20
92.0416
 30
0.0
 42
0.4142135623730951
  0
VERTEX
  5
42B
  8
T8_DRILL
 10
1.618218290019005
 20
91.8541
 30
0.0
 42
0.4142135623730951
  0
VERTEX
  5
42C
  8
T8_DRILL
 10
1.805718290019005
 20
91.6666
 30
0.0
 42
0.4142135623730951
  0
VERTEX
  5
42D
  8
T8_DRILL
 10
1.993218290019005
 20
91.8541
 30
0.0
 42
0.4142135623730951
  0
SEQEND
  5
4C5
  8
T8_DRILL
  0
POLYLINE
  5
77
  8
T8_DRILL
 66
     1
 10
0.0
 20
0.0
 30
0.0
 70
     1
  0
VERTEX
  5
42E
  8
T8_DRILL
 10
1.805718290019005
 20
69.1818
 30
0.0
 42
0.4142135623730951
  0
VERTEX
  5
42F
  8
T8_DRILL
 10
1.618218290019005
 20
68.9943
 30
0.0
 42
0.4142135623730951
  0
VERTEX
  5
430
  8
T8_DRILL
 10
1.805718290019005
 20
68.8068
 30
0.0
 42
0.4142135623730951
  0
VERTEX
  5
431
  8
T8_DRILL
 10
1.993218290019005
 20
68.9943
 30
0.0
 42
0.4142135623730951
  0
SEQEND
  5
4C6
  8
T8_DRILL
  0
POLYLINE
  5
78
  8
T8_DRILL
 66
     1
 10
0.0
 20
0.0
 30
0.0
 70
     1
  0
VERTEX
  5
432
  8
T8_DRILL
 10
1.805718290019005
 20
40.1091
 30
0.0
 42
0.4142135623730951
  0
VERTEX
  5
433
  8
T8_DRILL
 10
1.993218290019005
 20
40.2966
 30
0.0
 42
0.4142135623730951
  0
VERTEX
  5
434
  8
T8_DRILL
 10
1.805718290019005
 20
40.4841
 30
0.0
 42
0.4142135623730951
  0
VERTEX
  5
435
  8
T8_DRILL
 10
1.618218290019005
 20
40.2966
 30
0.0
 42
0.4142135623730951
  0
SEQEND
  5
4C7
  8
T8_DRILL
  0
POLYLINE
  5
79
  8
T8_DRILL
 66
     1
 10
0.0
 20
0.0
 30
0.0
 70
     1
  0
VERTEX
  5
436
  8
T8_DRILL
 10
1.618694717461651
 20
2.18495806038292
 30
0.0
  0
VERTEX
  5
437
  8
T8_DRILL
 10
1.618250671539887
 20
2.175316465213952
 30
0.0
  0
VERTEX
  5
438
  8
T8_DRILL
 10
1.618294525787348
 20
2.165767009455033
 30
0.0
  0
VERTEX
  5
439
  8
T8_DRILL
 10
1.618815368217492
 20
2.156322283475258
 30
0.0
  0
VERTEX
  5
43A
  8
T8_DRILL
 10
1.619802286843776
 20
2.146994877643724
 30
0.0
  0
VERTEX
  5
43B
  8
T8_DRILL
 10
1.621244369679659
 20
2.137797382329527
 30
0.0
  0
VERTEX
  5
43C
  8
T8_DRILL
 10
1.6231307047386
 20
2.128742387901764
 30
0.0
  0
VERTEX
  5
43D
  8
T8_DRILL
 10
1.625450380034057
 20
2.119842484729531
 30
0.0
  0
VERTEX
  5
43E
  8
T8_DRILL
 10
1.628192483579488
 20
2.111110263181923
 30
0.0
  0
VERTEX
  5
43F
  8
T8_DRILL
 10
1.631346103388352
 20
2.102558313628037
 30
0.0
  0
VERTEX
  5
440
  8
T8_DRILL
 10
1.634900327474106
 20
2.09419922643697
 30
0.0
  0
VERTEX
  5
441
  8
T8_DRILL
 10
1.63884424385021
 20
2.086045591977817
 30
0.0
  0
VERTEX
  5
442
  8
T8_DRILL
 10
1.643166940530122
 20
2.078110000619675
 30
0.0
  0
VERTEX
  5
443
  8
T8_DRILL
 10
1.6478575055273
 20
2.07040504273164
 30
0.0
  0
VERTEX
  5
444
  8
T8_DRILL
 10
1.652905026855203
 20
2.062943308682808
 30
0.0
  0
VERTEX
  5
445
  8
T8_DRILL
 10
1.658298592527289
 20
2.055737388842275
 30
0.0
  0
VERTEX
  5
446
  8
T8_DRILL
 10
1.664027290557016
 20
2.048799873579137
 30
0.0
  0
VERTEX
  5
447
  8
T8_DRILL
 10
1.670080208957842
 20
2.042143353262492
 30
0.0
  0
VERTEX
  5
448
  8
T8_DRILL
 10
1.676446435743227
 20
2.035780418261434
 30
0.0
  0
VERTEX
  5
449
  8
T8_DRILL
 10
1.683115058926628
 20
2.02972365894506
 30
0.0
  0
VERTEX
  5
44A
  8
T8_DRILL
 10
1.690075166521504
 20
2.023985665682467
 30
0.0
  0
VERTEX
  5
44B
  8
T8_DRILL
 10
1.697315846541313
 20
2.01857902884275
 30
0.0
  0
VERTEX
  5
44C
  8
T8_DRILL
 10
1.704826186999514
 20
2.013516338795005
 30
0.0
  0
VERTEX
  5
44D
  8
T8_DRILL
 10
1.712595275909565
 20
2.00881018590833
 30
0.0
  0
VERTEX
  5
44E
  8
T8_DRILL
 10
1.720612201284924
 20
2.00447316055182
 30
0.0
  0
VERTEX
  5
44F
  8
T8_DRILL
 10
1.72886605113905
 20
2.000517853094571
 30
0.0
  0
VERTEX
  5
450
  8
T8_DRILL
 10
1.737345913485401
 20
1.99695685390568
 30
0.0
  0
VERTEX
  5
451
  8
T8_DRILL
 10
1.746040876337435
 20
1.993802753354243
 30
0.0
  0
VERTEX
  5
452
  8
T8_DRILL
 10
1.754940027708611
 20
1.991068141809355
 30
0.0
  0
VERTEX
  5
453
  8
T8_DRILL
 10
1.764032455612388
 20
1.988765609640114
 30
0.0
  0
VERTEX
  5
454
  8
T8_DRILL
 10
1.773307248062223
 20
1.986907747215615
 30
0.0
  0
VERTEX
  5
455
  8
T8_DRILL
 10
1.782753493071575
 20
1.985507144904954
 30
0.0
  0
VERTEX
  5
456
  8
T8_DRILL
 10
1.792360278653902
 20
1.984576393077229
 30
0.0
  0
VERTEX
  5
457
  8
T8_DRILL
 10
1.802001975725811
 20
1.984132338674361
 30
0.0
  0
VERTEX
  5
458
  8
T8_DRILL
 10
1.811551519662079
 20
1.984176183184077
 30
0.0
  0
VERTEX
  5
459
  8
T8_DRILL
 10
1.820996320788942
 20
1.984697014823048
 30
0.0
  0
VERTEX
  5
45A
  8
T8_DRILL
 10
1.830323789432639
 20
1.985683921807944
 30
0.0
  0
VERTEX
  5
45B
  8
T8_DRILL
 10
1.839521335919406
 20
1.987125992355435
 30
0.0
  0
VERTEX
  5
45C
  8
T8_DRILL
 10
1.848576370575481
 20
1.989012314682193
 30
0.0
  0
VERTEX
  5
45D
  8
T8_DRILL
 10
1.857476303727102
 20
1.991331977004888
 30
0.0
  0
VERTEX
  5
45E
  8
T8_DRILL
 10
1.866208545700506
 20
1.99407406754019
 30
0.0
  0
VERTEX
  5
45F
  8
T8_DRILL
 10
1.874760506821929
 20
1.99722767450477
 30
0.0
  0
VERTEX
  5
460
  8
T8_DRILL
 10
1.88311959741761
 20
2.000781886115299
 30
0.0
  0
VERTEX
  5
461
  8
T8_DRILL
 10
1.891273227813786
 20
2.004725790588447
 30
0.0
  0
VERTEX
  5
462
  8
T8_DRILL
 10
1.899208808336695
 20
2.009048476140885
 30
0.0
  0
VERTEX
  5
463
  8
T8_DRILL
 10
1.906913749312573
 20
2.013739030989283
 30
0.0
  0
VERTEX
  5
464
  8
T8_DRILL
 10
1.914375461067658
 20
2.018786543350311
 30
0.0
  0
VERTEX
  5
465
  8
T8_DRILL
 10
1.921581353928187
 20
2.024180101440641
 30
0.0
  0
VERTEX
  5
466
  8
T8_DRILL
 10
1.928518838220398
 20
2.029908793476944
 30
0.0
  0
VERTEX
  5
467
  8
T8_DRILL
 10
1.935175324270529
 20
2.035961707675888
 30
0.0
  0
VERTEX
  5
468
  8
T8_DRILL
 10
1.941538222404816
 20
2.042327932254147
 30
0.0
  0
VERTEX
  5
469
  8
T8_DRILL
 10
1.947594942949497
 20
2.048996555428388
 30
0.0
  0
VERTEX
  5
46A
  8
T8_DRILL
 10
1.953332896230809
 20
2.055956665415285
 30
0.0
  0
VERTEX
  5
46B
  8
T8_DRILL
 10
1.95873949257499
 20
2.063197350431506
 30
0.0
  0
VERTEX
  5
46C
  8
T8_DRILL
 10
1.963802142308277
 20
2.070707698693723
 30
0.0
  0
VERTEX
  5
46D
  8
T8_DRILL
 10
1.968508255756907
 20
2.078476798418605
 30
0.0
  0
VERTEX
  5
46E
  8
T8_DRILL
 10
1.972845243247118
 20
2.086493737822825
 30
0.0
  0
VERTEX
  5
46F
  8
T8_DRILL
 10
1.976800515105147
 20
2.094747605123051
 30
0.0
  0
VERTEX
  5
470
  8
T8_DRILL
 10
1.980361481657232
 20
2.103227488535955
 30
0.0
  0
VERTEX
  5
471
  8
T8_DRILL
 10
1.98351555322961
 20
2.111922476278208
 30
0.0
  0
VERTEX
  5
472
  8
T8_DRILL
 10
1.986250140148518
 20
2.12082165656648
 30
0.0
  0
VERTEX
  5
473
  8
T8_DRILL
 10
1.988552652740194
 20
2.129914117617441
 30
0.0
  0
VERTEX
  5
474
  8
T8_DRILL
 10
1.990410501330875
 20
2.139188947647762
 30
0.0
  0
VERTEX
  5
475
  8
T8_DRILL
 10
1.991811096246798
 20
2.148635234874114
 30
0.0
  0
VERTEX
  5
476
  8
T8_DRILL
 10
1.992741847814202
 20
2.158242067513167
 30
0.0
  0
VERTEX
  5
477
  8
T8_DRILL
 10
1.993185896521344
 20
2.167883634138414
 30
0.0
  0
VERTEX
  5
478
  8
T8_DRILL
 10
1.993142054250662
 20
2.177433063673279
 30
0.0
  0
VERTEX
  5
479
  8
T8_DRILL
 10
1.992621232050065
 20
2.186877765679541
 30
0.0
  0
VERTEX
  5
47A
  8
T8_DRILL
 10
1.991634340967462
 20
2.196205149718982
 30
0.0
  0
VERTEX
  5
47B
  8
T8_DRILL
 10
1.990192292050762
 20
2.205402625353383
 30
0.0
  0
VERTEX
  5
47C
  8
T8_DRILL
 10
1.988305996347876
 20
2.214457602144524
 30
0.0
  0
VERTEX
  5
47D
  8
T8_DRILL
 10
1.985986364906713
 20
2.223357489654187
 30
0.0
  0
VERTEX
  5
47E
  8
T8_DRILL
 10
1.983244308775182
 20
2.232089697444152
 30
0.0
  0
VERTEX
  5
47F
  8
T8_DRILL
 10
1.980090739001193
 20
2.2406416350762
 30
0.0
  0
VERTEX
  5
480
  8
T8_DRILL
 10
1.976536566632656
 20
2.249000712112113
 30
0.0
  0
VERTEX
  5
481
  8
T8_DRILL
 10
1.972592702717479
 20
2.25715433811367
 30
0.0
  0
VERTEX
  5
482
  8
T8_DRILL
 10
1.968270058303571
 20
2.265089922642653
 30
0.0
  0
VERTEX
  5
483
  8
T8_DRILL
 10
1.963579544438844
 20
2.272794875260843
 30
0.0
  0
VERTEX
  5
484
  8
T8_DRILL
 10
1.958532072171207
 20
2.28025660553002
 30
0.0
  0
VERTEX
  5
485
  8
T8_DRILL
 10
1.953138552548567
 20
2.287462523011967
 30
0.0
  0
VERTEX
  5
486
  8
T8_DRILL
 10
1.947409896618836
 20
2.294400037268462
 30
0.0
  0
VERTEX
  5
487
  8
T8_DRILL
 10
1.941357015429923
 20
2.301056557861288
 30
0.0
  0
VERTEX
  5
488
  8
T8_DRILL
 10
1.934990820029737
 20
2.307419494352225
 30
0.0
  0
VERTEX
  5
489
  8
T8_DRILL
 10
1.928322221466188
 20
2.313476256303054
 30
0.0
  0
VERTEX
  5
48A
  8
T8_DRILL
 10
1.921362130787185
 20
2.319214253275556
 30
0.0
  0
VERTEX
  5
48B
  8
T8_DRILL
 10
1.914121459040637
 20
2.324620894831512
 30
0.0
  0
VERTEX
  5
48C
  8
T8_DRILL
 10
1.906611117274455
 20
2.329683590532703
 30
0.0
  0
VERTEX
  5
48D
  8
T8_DRILL
 10
1.898842016536547
 20
2.33438974994091
 30
0.0
  0
VERTEX
  5
48E
  8
T8_DRILL
 10
1.890825067874824
 20
2.338726782617913
 30
0.0
  0
VERTEX
  5
48F
  8
T8_DRILL
 10
1.882571182337194
 20
2.342682098125493
 30
0.0
  0
VERTEX
  5
490
  8
T8_DRILL
 10
1.874091270971567
 20
2.346243106025432
 30
0.0
  0
VERTEX
  5
491
  8
T8_DRILL
 10
1.865396244825853
 20
2.34939721587951
 30
0.0
  0
VERTEX
  5
492
  8
T8_DRILL
 10
1.85649701494796
 20
2.352131837249508
 30
0.0
  0
VERTEX
  5
493
  8
T8_DRILL
 10
1.8474044923858
 20
2.354434379697206
 30
0.0
  0
VERTEX
  5
494
  8
T8_DRILL
 10
1.838129588187281
 20
2.356292252784388
 30
0.0
  0
VERTEX
  5
495
  8
T8_DRILL
 10
1.828683213400312
 20
2.357692866072831
 30
0.0
  0
VERTEX
  5
496
  8
T8_DRILL
 10
1.819076279072803
 20
2.358623629124319
 30
0.0
  0
VERTEX
  5
497
  8
T8_DRILL
 10
1.809434730746075
 20
2.359067672303425
 30
0.0
  0
VERTEX
  5
498
  8
T8_DRILL
 10
1.799885316587424
 20
2.359023816815926
 30
0.0
  0
VERTEX
  5
499
  8
T8_DRILL
 10
1.790440627209244
 20
2.358502974514272
 30
0.0
  0
VERTEX
  5
49A
  8
T8_DRILL
 10
1.781113253223931
 20
2.357516057250919
 30
0.0
  0
VERTEX
  5
49B
  8
T8_DRILL
 10
1.771915785243878
 20
2.356073976878317
 30
0.0
  0
VERTEX
  5
49C
  8
T8_DRILL
 10
1.762860813881481
 20
2.354187645248919
 30
0.0
  0
VERTEX
  5
49D
  8
T8_DRILL
 10
1.753960929749135
 20
2.351867974215176
 30
0.0
  0
VERTEX
  5
49E
  8
T8_DRILL
 10
1.745228723459234
 20
2.349125875629543
 30
0.0
  0
VERTEX
  5
49F
  8
T8_DRILL
 10
1.736676785624173
 20
2.345972261344469
 30
0.0
  0
VERTEX
  5
4A0
  8
T8_DRILL
 10
1.728317706856347
 20
2.34241804321241
 30
0.0
  0
VERTEX
  5
4A1
  8
T8_DRILL
 10
1.720164077768151
 20
2.338474133085815
 30
0.0
  0
VERTEX
  5
4A2
  8
T8_DRILL
 10
1.712228488971979
 20
2.334151442817138
 30
0.0
  0
VERTEX
  5
4A3
  8
T8_DRILL
 10
1.704523531080226
 20
2.329460884258832
 30
0.0
  0
VERTEX
  5
4A4
  8
T8_DRILL
 10
1.697061794705288
 20
2.324413369263347
 30
0.0
  0
VERTEX
  5
4A5
  8
T8_DRILL
 10
1.689855870459558
 20
2.319019809683138
 30
0.0
  0
VERTEX
  5
4A6
  8
T8_DRILL
 10
1.682918348955432
 20
2.313291117370655
 30
0.0
  0
VERTEX
  5
4A7
  8
T8_DRILL
 10
1.676261820805305
 20
2.307238204178352
 30
0.0
  0
VERTEX
  5
4A8
  8
T8_DRILL
 10
1.66989887662157
 20
2.300871981958681
 30
0.0
  0
VERTEX
  5
4A9
  8
T8_DRILL
 10
1.663842107016624
 20
2.294203362564094
 30
0.0
  0
VERTEX
  5
4AA
  8
T8_DRILL
 10
1.65810410260286
 20
2.287243257847043
 30
0.0
  0
VERTEX
  5
4AB
  8
T8_DRILL
 10
1.652697453992674
 20
2.280002579659981
 30
0.0
  0
VERTEX
  5
4AC
  8
T8_DRILL
 10
1.64763475179846
 20
2.27249223985536
 30
0.0
  0
VERTEX
  5
4AD
  8
T8_DRILL
 10
1.642928586632613
 20
2.264723150285632
 30
0.0
  0
VERTEX
  5
4AE
  8
T8_DRILL
 10
1.638591549107528
 20
2.25670622280325
 30
0.0
  0
VERTEX
  5
4AF
  8
T8_DRILL
 10
1.6346362298356
 20
2.248452369260667
 30
0.0
  0
VERTEX
  5
4B0
  8
T8_DRILL
 10
1.631075219429223
 20
2.239972501510333
 30
0.0
  0
VERTEX
  5
4B1
  8
T8_DRILL
 10
1.627921108500793
 20
2.231277531404702
 30
0.0
  0
VERTEX
  5
4B2
  8
T8_DRILL
 10
1.625186487662703
 20
2.222378370796227
 30
0.0
  0
VERTEX
  5
4B3
  8
T8_DRILL
 10
1.622883947527349
 20
2.213285931537358
 30
0.0
  0
VERTEX
  5
4B4
  8
T8_DRILL
 10
1.621026078707126
 20
2.204011125480549
 30
0.0
  0
VERTEX
  5
4B5
  8
T8_DRILL
 10
1.619625471814428
 20
2.194564864478252
 30
0.0
  0
SEQEND
  5
4C8
  8
T8_DRILL
  0
POLYLINE
  5
7B
  8
T3_PROFILE_INSIDE
 66
     1
 10
0.0
 20
0.0
 30
0.0
  0
VERTEX
  5
4B6
  8
T3_PROFILE_INSIDE
 10
3.611457777153106
 20
0.413091771210655
 30
0.0
  0
VERTEX
  5
4B7
  8
T3_PROFILE_INSIDE
 10
0.0
 20
0.7280203391305085
 30
0.0
  0
SEQEND
  5
4C9
  8
T3_PROFILE_INSIDE
  0
POLYLINE
  5
7C
  8
T3_PROFILE_INSIDE
 66
     1
 10
0.0
 20
0.0
 30
0.0
  0
VERTEX
  5
4B8
  8
T3_PROFILE_INSIDE
 10
0.0024580448999245
 20
93.58690822878935
 30
0.0
  0
VERTEX
  5
4B9
  8
T3_PROFILE_INSIDE
 10
3.522950009010231
 20
93.36302947021173
 30
0.0
  0
SEQEND
  5
4CA
  8
T3_PROFILE_INSIDE
  0
POLYLINE
  5
7E
  8
T5_BEVEL_0_1
 66
     1
 10
0.0
 20
0.0
 30
0.0
  0
VERTEX
  5
4BA
  8
T5_BEVEL_0_1
 10
0.0495701440529821
 20
60.54662892627304
 30
0.0
  0
VERTEX
  5
4BB
  8
T5_BEVEL_0_1
 10
3.549570144052982
 20
60.54662892627304
 30
0.0
  0
SEQEND
  5
4CB
  8
T5_BEVEL_0_1
  0
POLYLINE
  5
7F
  8
T5_BEVEL_0_1
 66
     1
 10
0.0
 20
0.0
 30
0.0
  0
VERTEX
  5
4BC
  8
T5_BEVEL_0_1
 10
3.561887633100124
 20
60.61932903782934
 30
0.0
  0
VERTEX
  5
4BD
  8
T5_BEVEL_0_1
 10
0.0618876331001239
 20
60.61932903782934
 30
0.0
  0
SEQEND
  5
4CC
  8
T5_BEVEL_0_1
  0
ENDSEC
  0
EOF
