  0
SECTION
  2
HEADER
  9
$ACADVER
  1
AC1009
  9
$DWGCODEPAGE
  3
ansi_1252
  9
$INSBASE
 10
0.0
 20
0.0
 30
0.0
  9
$EXTMIN
 10
0.0
 20
5.1041
 30
0.0
  9
$EXTMAX
 10
3.50004218367863
 20
89.69587222885275
 30
0.0
  9
$LIMMIN
 10
0.0
 20
0.0
  9
$LIMMAX
 10
12.0
 20
9.0
  9
$ORTHOMODE
 70
     0
  9
$REGENMODE
 70
     1
  9
$FILLMODE
 70
     1
  9
$QTEXTMODE
 70
     0
  9
$MIRRTEXT
 70
     1
  9
$DRAGMODE
 70
     2
  9
$LTSCALE
 40
1.0
  9
$OSMODE
 70
    37
  9
$ATTMODE
 70
     1
  9
$TEXTSIZE
 40
0.2
  9
$TRACEWID
 40
0.05
  9
$TEXTSTYLE
  7
STANDARD
  9
$CLAYER
  8
0
  9
$CELTYPE
  6
BYLAYER
  9
$CECOLOR
 62
   256
  9
$DIMSCALE
 40
1.0
  9
$DIMASZ
 40
0.18
  9
$DIMEXO
 40
0.0625
  9
$DIMDLI
 40
0.38
  9
$DIMRND
 40
0.0
  9
$DIMDLE
 40
0.0
  9
$DIMEXE
 40
0.18
  9
$DIMTP
 40
0.0
  9
$DIMTM
 40
0.0
  9
$DIMTXT
 40
0.18
  9
$DIMCEN
 40
0.09
  9
$DIMTSZ
 40
0.0
  9
$DIMTOL
 70
     0
  9
$DIMLIM
 70
     0
  9
$DIMTIH
 70
     1
  9
$DIMTOH
 70
     1
  9
$DIMSE1
 70
     0
  9
$DIMSE2
 70
     0
  9
$DIMTAD
 70
     0
  9
$DIMZIN
 70
     0
  9
$DIMBLK
  1

  9
$DIMASO
 70
     1
  9
$DIMSHO
 70
     1
  9
$DIMPOST
  1

  9
$DIMAPOST
  1

  9
$DIMALT
 70
     0
  9
$DIMALTD
 70
     2
  9
$DIMALTF
 40
25.4
  9
$DIMLFAC
 40
1.0
  9
$DIMTOFL
 70
     0
  9
$DIMTVP
 40
0.0
  9
$DIMTIX
 70
     0
  9
$DIMSOXD
 70
     0
  9
$DIMSAH
 70
     0
  9
$DIMBLK1
  1

  9
$DIMBLK2
  1

  9
$DIMSTYLE
  2
STANDARD
  9
$DIMCLRD
 70
     0
  9
$DIMCLRE
 70
     0
  9
$DIMCLRT
 70
     0
  9
$DIMTFAC
 40
1.0
  9
$DIMGAP
 40
0.09
  9
$LUNITS
 70
     2
  9
$LUPREC
 70
     4
  9
$SKETCHINC
 40
0.1
  9
$FILLETRAD
 40
0.5
  9
$AUNITS
 70
     0
  9
$AUPREC
 70
     0
  9
$MENU
  1
.
  9
$ELEVATION
 40
0.0
  9
$PELEVATION
 40
0.0
  9
$THICKNESS
 40
0.0
  9
$LIMCHECK
 70
     0
  9
$CHAMFERA
 40
0.0
  9
$CHAMFERB
 40
0.0
  9
$SKPOLY
 70
     0
  9
$TDCREATE
 40
2454910.5
  9
$TDUPDATE
 40
2461252.024082836
  9
$TDINDWG
 40
0.0000000116
  9
$TDUSRTIMER
 40
0.0000000116
  9
$USRTIMER
 70
     1
  9
$ANGBASE
 50
0.0
  9
$ANGDIR
 70
     0
  9
$PDMODE
 70
     0
  9
$PDSIZE
 40
0.0
  9
$PLINEWID
 40
0.0
  9
$COORDS
 70
     1
  9
$SPLFRAME
 70
     0
  9
$SPLINETYPE
 70
     6
  9
$SPLINESEGS
 70
     8
  9
$ATTDIA
 70
     0
  9
$ATTREQ
 70
     1
  9
$HANDLING
 70
     1
  9
$HANDSEED
  5
606
  9
$SURFTAB1
 70
     6
  9
$SURFTAB2
 70
     6
  9
$SURFTYPE
 70
     6
  9
$SURFU
 70
     6
  9
$SURFV
 70
     6
  9
$UCSNAME
  2

  9
$UCSORG
 10
0.0
 20
0.0
 30
0.0
  9
$UCSXDIR
 10
1.0
 20
0.0
 30
0.0
  9
$UCSYDIR
 10
0.0
 20
1.0
 30
0.0
  9
$PUCSNAME
  2

  9
$PUCSORG
 10
0.0
 20
0.0
 30
0.0
  9
$PUCSXDIR
 10
1.0
 20
0.0
 30
0.0
  9
$PUCSYDIR
 10
0.0
 20
1.0
 30
0.0
  9
$USERI1
 70
     0
  9
$USERI2
 70
     0
  9
$USERI3
 70
     0
  9
$USERI4
 70
     0
  9
$USERI5
 70
     0
  9
$USERR1
 40
0.0
  9
$USERR2
 40
0.0
  9
$USERR3
 40
0.0
  9
$USERR4
 40
0.0
  9
$USERR5
 40
0.0
  9
$WORLDVIEW
 70
     1
  9
$SHADEDGE
 70
     3
  9
$SHADEDIF
 70
    70
  9
$TILEMODE
 70
     1
  9
$MAXACTVP
 70
    64
  9
$PLIMCHECK
 70
     0
  9
$PEXTMIN
 10
1.000000000000000E+20
 20
1.000000000000000E+20
 30
1.000000000000000E+20
  9
$PEXTMAX
 10
-1.000000000000000E+20
 20
-1.000000000000000E+20
 30
-1.000000000000000E+20
  9
$PLIMMIN
 10
0.0
 20
0.0
  9
$PLIMMAX
 10
12.0
 20
9.0
  9
$UNITMODE
 70
     0
  9
$VISRETAIN
 70
     1
  9
$PLINEGEN
 70
     0
  9
$PSLTSCALE
 70
     1
  0
ENDSEC
  0
SECTION
  2
TABLES
  0
TABLE
  2
VPORT
 70
     1
  0
VPORT
  2
*ACTIVE
 70
     0
 10
0.0
 20
0.0
 11
1.0
 21
1.0
 12
10.42990654205607
 22
4.5
 13
0.0
 23
0.0
 14
0.5
 24
0.5
 15
0.5
 25
0.5
 16
0.0
 26
0.0
 36
1.0
 17
0.0
 27
0.0
 37
0.0
 40
9.0
 41
1.972972972850329
 42
50.0
 43
0.0
 44
0.0
 50
0.0
 51
0.0
 71
     0
 72
   100
 73
     1
 74
     3
 75
     0
 76
     0
 77
     0
 78
     0
  0
ENDTAB
  0
TABLE
  2
LTYPE
 70
     2
  0
LTYPE
  2
CONTINUOUS
 70
     0
  3
Solid line
 72
    65
 73
     0
 40
0.0
  0
LTYPE
  2
CONTINUOUS2
 70
     0
  3
Solid Line
 72
    65
 73
     0
 40
0.0
  0
ENDTAB
  0
TABLE
  2
LAYER
 70
     6
  0
LAYER
  2
0
 70
     0
 62
     7
  6
CONTINUOUS
  0
LAYER
  2
PART_LETTERS
 70
     0
 62
    18
  6
CONTINUOUS
  0
LAYER
  2
T10_COUNTERSINK
 70
     0
 62
    18
  6
CONTINUOUS
  0
LAYER
  2
T3_PROFILE_OUTSIDE
 70
     0
 62
    18
  6
CONTINUOUS
  0
LAYER
  2
T5_BEVEL_OUTSIDE
 70
     0
 62
    18
  6
CONTINUOUS
  0
LAYER
  2
REAR_LEG
 70
     0
 62
    18
  6
CONTINUOUS
  0
ENDTAB
  0
TABLE
  2
STYLE
 70
     1
  0
STYLE
  2
STANDARD
 70
     0
 40
0.0
 41
1.0
 50
0.0
 71
     0
 42
0.2
  3
txt
  4

  0
ENDTAB
  0
TABLE
  2
VIEW
 70
     0
  0
ENDTAB
  0
TABLE
  2
UCS
 70
     0
  0
ENDTAB
  0
TABLE
  2
APPID
 70
     1
  0
APPID
  2
ACAD
 70
     0
  0
ENDTAB
  0
TABLE
  2
DIMSTYLE
 70
     1
  0
DIMSTYLE
  2
STANDARD
 70
     0
  3

  4

  5

  6

  7

 40
1.0
 41
0.18
 42
0.0625
 43
0.38
 44
0.18
 45
0.0
 46
0.0
 47
0.0
 48
0.0
140
0.18
141
0.09
142
0.0
143
25.4
144
1.0
145
0.0
146
1.0
147
0.09
 71
     0
 72
     0
 73
     1
 74
     1
 75
     0
 76
     0
 77
     0
 78
     0
170
     0
171
     2
172
     0
173
     0
174
     0
175
     0
176
     0
177
     0
178
     0
  0
ENDTAB
  0
ENDSEC
  0
SECTION
  2
BLOCKS
  0
BLOCK
  8
0
  2
$MODEL_SPACE
 70
     0
 10
0.0
 20
0.0
 30
0.0
  3
$MODEL_SPACE
  1

  0
ENDBLK
  5
21
  8
0
  0
BLOCK
 67
     1
  8
0
  2
$PAPER_SPACE
 70
     0
 10
0.0
 20
0.0
 30
0.0
  3
$PAPER_SPACE
  1

  0
ENDBLK
  5
1D
 67
     1
  8
0
  0
ENDSEC
  0
SECTION
  2
ENTITIES
  0
POLYLINE
  5
70
  8
PART_LETTERS
 66
     1
 10
0.0
 20
0.0
 30
0.0
 70
     1
  0
VERTEX
  5
8E
  8
PART_LETTERS
 10
0.6448072135767643
 20
57.7991114355689
 30
0.0
  0
VERTEX
  5
8F
  8
PART_LETTERS
 10
1.705140092157937
 20
57.7991114355689
 30
0.0
  0
VERTEX
  5
90
  8
PART_LETTERS
 10
1.705140092157937
 20
57.50089281346795
 30
0.0
  0
VERTEX
  5
91
  8
PART_LETTERS
 10
1.075567445500366
 20
57.50089281346795
 30
0.0
  0
VERTEX
  5
92
  8
PART_LETTERS
 10
1.075567445500366
 20
57.25853101264939
 30
0.0
  0
VERTEX
  5
93
  8
PART_LETTERS
 10
1.613307691066532
 20
57.25853101264939
 30
0.0
  0
VERTEX
  5
94
  8
PART_LETTERS
 10
1.613307691066532
 20
56.97830018045294
 30
0.0
  0
VERTEX
  5
95
  8
PART_LETTERS
 10
1.075567445500366
 20
56.97830018045294
 30
0.0
  0
VERTEX
  5
96
  8
PART_LETTERS
 10
1.075567445500366
 20
56.4112114355689
 30
0.0
  0
VERTEX
  5
97
  8
PART_LETTERS
 10
0.6448072135767643
 20
56.4112114355689
 30
0.0
  0
SEQEND
  5
5F3
  8
PART_LETTERS
  0
POLYLINE
  5
71
  8
PART_LETTERS
 66
     1
 10
0.0
 20
0.0
 30
0.0
 70
     1
  0
VERTEX
  5
98
  8
PART_LETTERS
 10
1.861349846591771
 20
56.87037344102593
 30
0.0
  0
VERTEX
  5
99
  8
PART_LETTERS
 10
2.269388659688634
 20
56.89593503720601
 30
0.0
  0
VERTEX
  5
9A
  8
PART_LETTERS
 10
2.273131185055278
 20
56.87182311488336
 30
0.0
  0
VERTEX
  5
9B
  8
PART_LETTERS
 10
2.277731680664077
 20
56.84919045159891
 30
0.0
  0
VERTEX
  5
9C
  8
PART_LETTERS
 10
2.280353667309285
 20
56.83842884209601
 30
0.0
  0
VERTEX
  5
9D
  8
PART_LETTERS
 10
2.283190146515032
 20
56.82803704735267
 30
0.0
  0
VERTEX
  5
9E
  8
PART_LETTERS
 10
2.286241118281318
 20
56.81801506736887
 30
0.0
  0
VERTEX
  5
9F
  8
PART_LETTERS
 10
2.289506582608142
 20
56.80836290214462
 30
0.0
  0
VERTEX
  5
A0
  8
PART_LETTERS
 10
2.292986539495506
 20
56.79908055167992
 30
0.0
  0
VERTEX
  5
A1
  8
PART_LETTERS
 10
2.296680988943408
 20
56.79016801597477
 30
0.0
  0
VERTEX
  5
A2
  8
PART_LETTERS
 10
2.30058993095185
 20
56.78162529502917
 30
0.0
  0
VERTEX
  5
A3
  8
PART_LETTERS
 10
2.30471336552083
 20
56.77345238884313
 30
0.0
  0
VERTEX
  5
A4
  8
PART_LETTERS
 10
2.309051292650349
 20
56.76564929741662
 30
0.0
  0
VERTEX
  5
A5
  8
PART_LETTERS
 10
2.313603712340407
 20
56.75821602074967
 30
0.0
  0
VERTEX
  5
A6
  8
PART_LETTERS
 10
2.318370624591004
 20
56.75115255884226
 30
0.0
  0
VERTEX
  5
A7
  8
PART_LETTERS
 10
2.32335202940214
 20
56.74445891169442
 30
0.0
  0
VERTEX
  5
A8
  8
PART_LETTERS
 10
2.331857768871785
 20
56.73425572247844
 30
0.0
  0
VERTEX
  5
A9
  8
PART_LETTERS
 10
2.340807286052891
 20
56.72471080353446
 30
0.0
  0
VERTEX
  5
AA
  8
PART_LETTERS
 10
2.350200580945455
 20
56.71582415486247
 30
0.0
  0
VERTEX
  5
AB
  8
PART_LETTERS
 10
2.36003765354948
 20
56.70759577646249
 30
0.0
  0
VERTEX
  5
AC
  8
PART_LETTERS
 10
2.370318503864964
 20
56.7000256683345
 30
0.0
  0
VERTEX
  5
AD
  8
PART_LETTERS
 10
2.381043131891908
 20
56.69311383047852
 30
0.0
  0
VERTEX
  5
AE
  8
PART_LETTERS
 10
2.392211537630311
 20
56.68686026289453
 30
0.0
  0
VERTEX
  5
AF
  8
PART_LETTERS
 10
2.403823721080175
 20
56.68126496558254
 30
0.0
  0
VERTEX
  5
B0
  8
PART_LETTERS
 10
2.415879682241498
 20
56.67632793854256
 30
0.0
  0
VERTEX
  5
B1
  8
PART_LETTERS
 10
2.428379421114282
 20
56.67204918177457
 30
0.0
  0
VERTEX
  5
B2
  8
PART_LETTERS
 10
2.441322937698524
 20
56.66842869527856
 30
0.0
  0
VERTEX
  5
B3
  8
PART_LETTERS
 10
2.454710231994227
 20
56.66546647905457
 30
0.0
  0
VERTEX
  5
B4
  8
PART_LETTERS
 10
2.468541304001389
 20
56.66316253310258
 30
0.0
  0
VERTEX
  5
B5
  8
PART_LETTERS
 10
2.482816153720012
 20
56.66151685742258
 30
0.0
  0
VERTEX
  5
B6
  8
PART_LETTERS
 10
2.497534781150093
 20
56.66052945201459
 30
0.0
  0
VERTEX
  5
B7
  8
PART_LETTERS
 10
2.512697186291635
 20
56.66020031687859
 30
0.0
  0
VERTEX
  5
B8
  8
PART_LETTERS
 10
2.52401166886006
 20
56.66036858259419
 30
0.0
  0
VERTEX
  5
B9
  8
PART_LETTERS
 10
2.534997016292487
 20
56.66087337974097
 30
0.0
  0
VERTEX
  5
BA
  8
PART_LETTERS
 10
2.545653228588914
 20
56.66171470831895
 30
0.0
  0
VERTEX
  5
BB
  8
PART_LETTERS
 10
2.555980305749342
 20
56.66289256832811
 30
0.0
  0
VERTEX
  5
BC
  8
PART_LETTERS
 10
2.565978247773771
 20
56.66440695976846
 30
0.0
  0
VERTEX
  5
BD
  8
PART_LETTERS
 10
2.575647054662201
 20
56.66625788264001
 30
0.0
  0
VERTEX
  5
BE
  8
PART_LETTERS
 10
2.584986726414631
 20
56.66844533694275
 30
0.0
  0
VERTEX
  5
BF
  8
PART_LETTERS
 10
2.593997263031062
 20
56.67096932267668
 30
0.0
  0
VERTEX
  5
C0
  8
PART_LETTERS
 10
2.602678664511493
 20
56.67382983984179
 30
0.0
  0
VERTEX
  5
C1
  8
PART_LETTERS
 10
2.611030930855925
 20
56.67702688843811
 30
0.0
  0
VERTEX
  5
C2
  8
PART_LETTERS
 10
2.619054062064358
 20
56.6805604684656
 30
0.0
  0
VERTEX
  5
C3
  8
PART_LETTERS
 10
2.626748058136791
 20
56.6844305799243
 30
0.0
  0
VERTEX
  5
C4
  8
PART_LETTERS
 10
2.634112919073226
 20
56.68863722281417
 30
0.0
  0
VERTEX
  5
C5
  8
PART_LETTERS
 10
2.641148644873661
 20
56.69318039713524
 30
0.0
  0
VERTEX
  5
C6
  8
PART_LETTERS
 10
2.647855235538097
 20
56.6980601028875
 30
0.0
  0
VERTEX
  5
C7
  8
PART_LETTERS
 10
2.654232691066533
 20
56.70327634007095
 30
0.0
  0
VERTEX
  5
C8
  8
PART_LETTERS
 10
2.660251426278205
 20
56.70871446611014
 30
0.0
  0
VERTEX
  5
C9
  8
PART_LETTERS
 10
2.665881855992351
 20
56.71425983842958
 30
0.0
  0
VERTEX
  5
CA
  8
PART_LETTERS
 10
2.67112398020897
 20
56.7199124570293
 30
0.0
  0
VERTEX
  5
CB
  8
PART_LETTERS
 10
2.675977798928061
 20
56.72567232190929
 30
0.0
  0
VERTEX
  5
CC
  8
PART_LETTERS
 10
2.680443312149625
 20
56.73153943306954
 30
0.0
  0
VERTEX
  5
CD
  8
PART_LETTERS
 10
2.684520519873661
 20
56.73751379051007
 30
0.0
  0
VERTEX
  5
CE
  8
PART_LETTERS
 10
2.68820942210017
 20
56.74359539423087
 30
0.0
  0
VERTEX
  5
CF
  8
PART_LETTERS
 10
2.691510018829152
 20
56.74978424423193
 30
0.0
  0
VERTEX
  5
D0
  8
PART_LETTERS
 10
2.694422310060607
 20
56.75608034051327
 30
0.0
  0
VERTEX
  5
D1
  8
PART_LETTERS
 10
2.696946295794534
 20
56.76248368307488
 30
0.0
  0
VERTEX
  5
D2
  8
PART_LETTERS
 10
2.699081976030934
 20
56.76899427191675
 30
0.0
  0
VERTEX
  5
D3
  8
PART_LETTERS
 10
2.700829350769807
 20
56.77561210703889
 30
0.0
  0
VERTEX
  5
D4
  8
PART_LETTERS
 10
2.702188420011152
 20
56.7823371884413
 30
0.0
  0
VERTEX
  5
D5
  8
PART_LETTERS
 10
2.70315918375497
 20
56.78916951612399
 30
0.0
  0
VERTEX
  5
D6
  8
PART_LETTERS
 10
2.703741642001261
 20
56.79610909008694
 30
0.0
  0
VERTEX
  5
D7
  8
PART_LETTERS
 10
2.703935794750025
 20
56.80315591033015
 30
0.0
  0
VERTEX
  5
D8
  8
PART_LETTERS
 10
2.70375088737025
 20
56.8098569537732
 30
0.0
  0
VERTEX
  5
D9
  8
PART_LETTERS
 10
2.703196165230925
 20
56.81646924167395
 30
0.0
  0
VERTEX
  5
DA
  8
PART_LETTERS
 10
2.70227162833205
 20
56.82299277403241
 30
0.0
  0
VERTEX
  5
DB
  8
PART_LETTERS
 10
2.700977276673626
 20
56.82942755084858
 30
0.0
  0
VERTEX
  5
DC
  8
PART_LETTERS
 10
2.699313110255652
 20
56.83577357212246
 30
0.0
  0
VERTEX
  5
DD
  8
PART_LETTERS
 10
2.697279129078128
 20
56.84203083785404
 30
0.0
  0
VERTEX
  5
DE
  8
PART_LETTERS
 10
2.694875333141054
 20
56.84819934804333
 30
0.0
  0
VERTEX
  5
DF
  8
PART_LETTERS
 10
2.692101722444431
 20
56.85427910269033
 30
0.0
  0
VERTEX
  5
E0
  8
PART_LETTERS
 10
2.688958296988258
 20
56.86027010179504
 30
0.0
  0
VERTEX
  5
E1
  8
PART_LETTERS
 10
2.685445056772535
 20
56.86617234535746
 30
0.0
  0
VERTEX
  5
E2
  8
PART_LETTERS
 10
2.681562001797261
 20
56.87198583337758
 30
0.0
  0
VERTEX
  5
E3
  8
PART_LETTERS
 10
2.677309132062439
 20
56.8777105658554
 30
0.0
  0
VERTEX
  5
E4
  8
PART_LETTERS
 10
2.672686447568067
 20
56.88334654279095
 30
0.0
  0
VERTEX
  5
E5
  8
PART_LETTERS
 10
2.667693948314145
 20
56.88889376418419
 30
0.0
  0
VERTEX
  5
E6
  8
PART_LETTERS
 10
2.662331634300673
 20
56.89435223003515
 30
0.0
  0
VERTEX
  5
E7
  8
PART_LETTERS
 10
2.656599505527651
 20
56.8997219403438
 30
0.0
  0
VERTEX
  5
E8
  8
PART_LETTERS
 10
2.650194313892249
 20
56.90502878214333
 30
0.0
  0
VERTEX
  5
E9
  8
PART_LETTERS
 10
2.642812811291635
 20
56.91029864246693
 30
0.0
  0
VERTEX
  5
EA
  8
PART_LETTERS
 10
2.63445499772581
 20
56.91553152131455
 30
0.0
  0
VERTEX
  5
EB
  8
PART_LETTERS
 10
2.625120873194773
 20
56.92072741868623
 30
0.0
  0
VERTEX
  5
EC
  8
PART_LETTERS
 10
2.614810437698524
 20
56.92588633458195
 30
0.0
  0
VERTEX
  5
ED
  8
PART_LETTERS
 10
2.603523691237065
 20
56.93100826900172
 30
0.0
  0
VERTEX
  5
EE
  8
PART_LETTERS
 10
2.591260633810394
 20
56.93609322194552
 30
0.0
  0
VERTEX
  5
EF
  8
PART_LETTERS
 10
2.578021265418511
 20
56.94114119341338
 30
0.0
  0
VERTEX
  5
F0
  8
PART_LETTERS
 10
2.563805586061417
 20
56.94615218340528
 30
0.0
  0
VERTEX
  5
F1
  8
PART_LETTERS
 10
2.548613595739111
 20
56.95112619192123
 30
0.0
  0
VERTEX
  5
F2
  8
PART_LETTERS
 10
2.532445294451594
 20
56.95606321896122
 30
0.0
  0
VERTEX
  5
F3
  8
PART_LETTERS
 10
2.515300682198866
 20
56.96096326452525
 30
0.0
  0
VERTEX
  5
F4
  8
PART_LETTERS
 10
2.478082524797774
 20
56.97065241122546
 30
0.0
  0
VERTEX
  5
F5
  8
PART_LETTERS
 10
2.436959123535837
 20
56.98019363202184
 30
0.0
  0
VERTEX
  5
F6
  8
PART_LETTERS
 10
2.402325971303999
 20
56.98828517896079
 30
0.0
  0
VERTEX
  5
F7
  8
PART_LETTERS
 10
2.368957585549821
 20
56.99670216288813
 30
0.0
  0
VERTEX
  5
F8
  8
PART_LETTERS
 10
2.336853966273303
 20
57.00544458380389
 30
0.0
  0
VERTEX
  5
F9
  8
PART_LETTERS
 10
2.306015113474445
 20
57.01451244170806
 30
0.0
  0
VERTEX
  5
FA
  8
PART_LETTERS
 10
2.276441027153248
 20
57.02390573660063
 30
0.0
  0
VERTEX
  5
FB
  8
PART_LETTERS
 10
2.248131707309711
 20
57.03362446848159
 30
0.0
  0
VERTEX
  5
FC
  8
PART_LETTERS
 10
2.221087153943835
 20
57.04366863735097
 30
0.0
  0
VERTEX
  5
FD
  8
PART_LETTERS
 10
2.195307367055618
 20
57.05403824320874
 30
0.0
  0
VERTEX
  5
FE
  8
PART_LETTERS
 10
2.170792346645062
 20
57.06473328605493
 30
0.0
  0
VERTEX
  5
FF
  8
PART_LETTERS
 10
2.147542092712167
 20
57.0757537658895
 30
0.0
  0
VERTEX
  5
100
  8
PART_LETTERS
 10
2.125556605256932
 20
57.08709968271249
 30
0.0
  0
VERTEX
  5
101
  8
PART_LETTERS
 10
2.104835884279357
 20
57.09877103652389
 30
0.0
  0
VERTEX
  5
102
  8
PART_LETTERS
 10
2.085379929779442
 20
57.11076782732368
 30
0.0
  0
VERTEX
  5
103
  8
PART_LETTERS
 10
2.067188741757188
 20
57.12309005511187
 30
0.0
  0
VERTEX
  5
104
  8
PART_LETTERS
 10
2.050262320212593
 20
57.13573771988848
 30
0.0
  0
VERTEX
  5
105
  8
PART_LETTERS
 10
2.03460066514566
 20
57.14871082165349
 30
0.0
  0
VERTEX
  5
106
  8
PART_LETTERS
 10
2.019926415486724
 20
57.16207222891602
 30
0.0
  0
VERTEX
  5
107
  8
PART_LETTERS
 10
2.006198891612235
 20
57.17588481018521
 30
0.0
  0
VERTEX
  5
108
  8
PART_LETTERS
 10
1.993418093522194
 20
57.19014856546104
 30
0.0
  0
VERTEX
  5
109
  8
PART_LETTERS
 10
1.981584021216601
 20
57.20486349474353
 30
0.0
  0
VERTEX
  5
10A
  8
PART_LETTERS
 10
1.970696674695455
 20
57.22002959803267
 30
0.0
  0
VERTEX
  5
10B
  8
PART_LETTERS
 10
1.960756053958757
 20
57.23564687532846
 30
0.0
  0
VERTEX
  5
10C
  8
PART_LETTERS
 10
1.951762159006505
 20
57.25171532663089
 30
0.0
  0
VERTEX
  5
10D
  8
PART_LETTERS
 10
1.943714989838702
 20
57.26823495193998
 30
0.0
  0
VERTEX
  5
10E
  8
PART_LETTERS
 10
1.936614546455346
 20
57.28520575125572
 30
0.0
  0
VERTEX
  5
10F
  8
PART_LETTERS
 10
1.930460828856437
 20
57.30262772457812
 30
0.0
  0
VERTEX
  5
110
  8
PART_LETTERS
 10
1.925253837041976
 20
57.32050087190716
 30
0.0
  0
VERTEX
  5
111
  8
PART_LETTERS
 10
1.920993571011962
 20
57.33882519324284
 30
0.0
  0
VERTEX
  5
112
  8
PART_LETTERS
 10
1.917680030766396
 20
57.35760068858519
 30
0.0
  0
VERTEX
  5
113
  8
PART_LETTERS
 10
1.915313216305278
 20
57.37682735793419
 30
0.0
  0
VERTEX
  5
114
  8
PART_LETTERS
 10
1.913893127628606
 20
57.39650520128983
 30
0.0
  0
VERTEX
  5
115
  8
PART_LETTERS
 10
1.913419764736382
 20
57.41663421865212
 30
0.0
  0
VERTEX
  5
116
  8
PART_LETTERS
 10
1.913661993403888
 20
57.4299604935125
 30
0.0
  0
VERTEX
  5
117
  8
PART_LETTERS
 10
1.914388679406403
 20
57.44319431468298
 30
0.0
  0
VERTEX
  5
118
  8
PART_LETTERS
 10
1.915599822743929
 20
57.45633568216359
 30
0.0
  0
VERTEX
  5
119
  8
PART_LETTERS
 10
1.917295423416464
 20
57.4693845959543
 30
0.0
  0
VERTEX
  5
11A
  8
PART_LETTERS
 10
1.91947548142401
 20
57.48234105605513
 30
0.0
  0
VERTEX
  5
11B
  8
PART_LETTERS
 10
1.922139996766567
 20
57.49520506246607
 30
0.0
  0
VERTEX
  5
11C
  8
PART_LETTERS
 10
1.925288969444133
 20
57.50797661518713
 30
0.0
  0
VERTEX
  5
11D
  8
PART_LETTERS
 10
1.92892239945671
 20
57.52065571421829
 30
0.0
  0
VERTEX
  5
11E
  8
PART_LETTERS
 10
1.933040286804297
 20
57.53324235955956
 30
0.0
  0
VERTEX
  5
11F
  8
PART_LETTERS
 10
1.937642631486894
 20
57.54573655121095
 30
0.0
  0
VERTEX
  5
120
  8
PART_LETTERS
 10
1.942729433504502
 20
57.55813828917245
 30
0.0
  0
VERTEX
  5
121
  8
PART_LETTERS
 10
1.948300692857119
 20
57.57044757344407
 30
0.0
  0
VERTEX
  5
122
  8
PART_LETTERS
 10
1.954356409544747
 20
57.5826644040258
 30
0.0
  0
VERTEX
  5
123
  8
PART_LETTERS
 10
1.960896583567385
 20
57.59478878091764
 30
0.0
  0
VERTEX
  5
124
  8
PART_LETTERS
 10
1.967921214925034
 20
57.60682070411959
 30
0.0
  0
VERTEX
  5
125
  8
PART_LETTERS
 10
1.975430303617692
 20
57.61876017363166
 30
0.0
  0
VERTEX
  5
126
  8
PART_LETTERS
 10
1.983425698719159
 20
57.63049439595217
 30
0.0
  0
VERTEX
  5
127
  8
PART_LETTERS
 10
1.991909249303231
 20
57.64191057757947
 30
0.0
  0
VERTEX
  5
128
  8
PART_LETTERS
 10
2.000880955369909
 20
57.65300871851356
 30
0.0
  0
VERTEX
  5
129
  8
PART_LETTERS
 10
2.010340816919193
 20
57.66378881875444
 30
0.0
  0
VERTEX
  5
12A
  8
PART_LETTERS
 10
2.020288833951083
 20
57.6742508783021
 30
0.0
  0
VERTEX
  5
12B
  8
PART_LETTERS
 10
2.030725006465578
 20
57.68439489715655
 30
0.0
  0
VERTEX
  5
12C
  8
PART_LETTERS
 10
2.041649334462679
 20
57.69422087531779
 30
0.0
  0
VERTEX
  5
12D
  8
PART_LETTERS
 10
2.053061817942385
 20
57.70372881278581
 30
0.0
  0
VERTEX
  5
12E
  8
PART_LETTERS
 10
2.064962456904698
 20
57.71291870956063
 30
0.0
  0
VERTEX
  5
12F
  8
PART_LETTERS
 10
2.077351251349616
 20
57.72179056564222
 30
0.0
  0
VERTEX
  5
130
  8
PART_LETTERS
 10
2.09022820127714
 20
57.73034438103062
 30
0.0
  0
VERTEX
  5
131
  8
PART_LETTERS
 10
2.103593306687269
 20
57.73858015572579
 30
0.0
  0
VERTEX
  5
132
  8
PART_LETTERS
 10
2.117446567580005
 20
57.74649788972775
 30
0.0
  0
VERTEX
  5
133
  8
PART_LETTERS
 10
2.131787983955346
 20
57.7540975830365
 30
0.0
  0
VERTEX
  5
134
  8
PART_LETTERS
 10
2.146617555813293
 20
57.76137923565204
 30
0.0
  0
VERTEX
  5
135
  8
PART_LETTERS
 10
2.161935283153845
 20
57.76834284757436
 30
0.0
  0
VERTEX
  5
136
  8
PART_LETTERS
 10
2.177857657626261
 20
57.77493479566334
 30
0.0
  0
VERTEX
  5
137
  8
PART_LETTERS
 10
2.1945011708798
 20
57.78110145677883
 30
0.0
  0
VERTEX
  5
138
  8
PART_LETTERS
 10
2.211865822914461
 20
57.78684283092085
 30
0.0
  0
VERTEX
  5
139
  8
PART_LETTERS
 10
2.229951613730243
 20
57.79215891808937
 30
0.0
  0
VERTEX
  5
13A
  8
PART_LETTERS
 10
2.248758543327148
 20
57.79704971828441
 30
0.0
  0
VERTEX
  5
13B
  8
PART_LETTERS
 10
2.268286611705175
 20
57.80151523150597
 30
0.0
  0
VERTEX
  5
13C
  8
PART_LETTERS
 10
2.288535818864324
 20
57.80555545775407
 30
0.0
  0
VERTEX
  5
13D
  8
PART_LETTERS
 10
2.309506164804596
 20
57.80917039702866
 30
0.0
  0
VERTEX
  5
13E
  8
PART_LETTERS
 10
2.331197649525989
 20
57.81236004932978
 30
0.0
  0
VERTEX
  5
13F
  8
PART_LETTERS
 10
2.353610273028504
 20
57.8151244146574
 30
0.0
  0
VERTEX
  5
140
  8
PART_LETTERS
 10
2.376744035312141
 20
57.81746349301156
 30
0.0
  0
VERTEX
  5
141
  8
PART_LETTERS
 10
2.400598936376901
 20
57.81937728439223
 30
0.0
  0
VERTEX
  5
142
  8
PART_LETTERS
 10
2.425174976222783
 20
57.82086578879942
 30
0.0
  0
VERTEX
  5
143
  8
PART_LETTERS
 10
2.450472154849787
 20
57.82192900623313
 30
0.0
  0
VERTEX
  5
144
  8
PART_LETTERS
 10
2.476490472257912
 20
57.82256693669335
 30
0.0
  0
VERTEX
  5
145
  8
PART_LETTERS
 10
2.50322992844716
 20
57.82277958018009
 30
0.0
  0
VERTEX
  5
146
  8
PART_LETTERS
 10
2.535989968921879
 20
57.82239312375636
 30
0.0
  0
VERTEX
  5
147
  8
PART_LETTERS
 10
2.5677626039886
 20
57.82123375448517
 30
0.0
  0
VERTEX
  5
148
  8
PART_LETTERS
 10
2.598547833647322
 20
57.81930147236653
 30
0.0
  0
VERTEX
  5
149
  8
PART_LETTERS
 10
2.628345657898047
 20
57.81659627740041
 30
0.0
  0
VERTEX
  5
14A
  8
PART_LETTERS
 10
2.657156076740774
 20
57.81311816958684
 30
0.0
  0
VERTEX
  5
14B
  8
PART_LETTERS
 10
2.684979090175503
 20
57.80886714892583
 30
0.0
  0
VERTEX
  5
14C
  8
PART_LETTERS
 10
2.711814698202234
 20
57.80384321541734
 30
0.0
  0
VERTEX
  5
14D
  8
PART_LETTERS
 10
2.737662900820967
 20
57.7980463690614
 30
0.0
  0
VERTEX
  5
14E
  8
PART_LETTERS
 10
2.762523698031702
 20
57.79147660985799
 30
0.0
  0
VERTEX
  5
14F
  8
PART_LETTERS
 10
2.786397089834439
 20
57.78413393780714
 30
0.0
  0
VERTEX
  5
150
  8
PART_LETTERS
 10
2.809283076229178
 20
57.77601835290882
 30
0.0
  0
VERTEX
  5
151
  8
PART_LETTERS
 10
2.831181657215919
 20
57.76712985516304
 30
0.0
  0
VERTEX
  5
152
  8
PART_LETTERS
 10
2.852092832794662
 20
57.75746844456981
 30
0.0
  0
VERTEX
  5
153
  8
PART_LETTERS
 10
2.872016602965407
 20
57.74703412112911
 30
0.0
  0
VERTEX
  5
154
  8
PART_LETTERS
 10
2.890952967728155
 20
57.73582688484095
 30
0.0
  0
VERTEX
  5
155
  8
PART_LETTERS
 10
2.908901927082904
 20
57.72384673570533
 30
0.0
  0
VERTEX
  5
156
  8
PART_LETTERS
 10
2.917519073248863
 20
57.71754925261864
 30
0.0
  0
VERTEX
  5
157
  8
PART_LETTERS
 10
2.925915255095992
 20
57.71102340891793
 30
0.0
  0
VERTEX
  5
158
  8
PART_LETTERS
 10
2.934090472624289
 20
57.7042692046032
 30
0.0
  0
VERTEX
  5
159
  8
PART_LETTERS
 10
2.942044725833756
 20
57.69728663967446
 30
0.0
  0
VERTEX
  5
15A
  8
PART_LETTERS
 10
2.949778014724392
 20
57.69007571413169
 30
0.0
  0
VERTEX
  5
15B
  8
PART_LETTERS
 10
2.957290339296196
 20
57.6826364279749
 30
0.0
  0
VERTEX
  5
15C
  8
PART_LETTERS
 10
2.96458169954917
 20
57.67496878120408
 30
0.0
  0
VERTEX
  5
15D
  8
PART_LETTERS
 10
2.971652095483313
 20
57.66707277381924
 30
0.0
  0
VERTEX
  5
15E
  8
PART_LETTERS
 10
2.978501527098625
 20
57.65894840582038
 30
0.0
  0
VERTEX
  5
15F
  8
PART_LETTERS
 10
2.985129994395106
 20
57.6505956772075
 30
0.0
  0
VERTEX
  5
160
  8
PART_LETTERS
 10
2.991537497372755
 20
57.6420145879806
 30
0.0
  0
VERTEX
  5
161
  8
PART_LETTERS
 10
2.997724036031574
 20
57.63320513813967
 30
0.0
  0
VERTEX
  5
162
  8
PART_LETTERS
 10
3.003689610371561
 20
57.62416732768472
 30
0.0
  0
VERTEX
  5
163
  8
PART_LETTERS
 10
3.009434220392718
 20
57.61490115661575
 30
0.0
  0
VERTEX
  5
164
  8
PART_LETTERS
 10
3.014957866095044
 20
57.60540662493275
 30
0.0
  0
VERTEX
  5
165
  8
PART_LETTERS
 10
3.020260547478538
 20
57.59568373263575
 30
0.0
  0
VERTEX
  5
166
  8
PART_LETTERS
 10
3.030203017289034
 20
57.57555286619966
 30
0.0
  0
VERTEX
  5
167
  8
PART_LETTERS
 10
3.039261629824207
 20
57.55450855730747
 30
0.0
  0
VERTEX
  5
168
  8
PART_LETTERS
 10
3.047436385084055
 20
57.5325508059592
 30
0.0
  0
VERTEX
  5
169
  8
PART_LETTERS
 10
3.054727283068579
 20
57.50967961215485
 30
0.0
  0
VERTEX
  5
16A
  8
PART_LETTERS
 10
3.061134323777779
 20
57.48589497589441
 30
0.0
  0
VERTEX
  5
16B
  8
PART_LETTERS
 10
3.066657507211656
 20
57.46119689717787
 30
0.0
  0
VERTEX
  5
16C
  8
PART_LETTERS
 10
3.071296833370208
 20
57.43558537600525
 30
0.0
  0
VERTEX
  5
16D
  8
PART_LETTERS
 10
3.075052302253436
 20
57.40906041237654
 30
0.0
  0
VERTEX
  5
16E
  8
PART_LETTERS
 10
2.670800392294364
 20
57.38539226776535
 30
0.0
  0
VERTEX
  5
16F
  8
PART_LETTERS
 10
2.668649919467581
 20
57.39690829937773
 30
0.0
  0
VERTEX
  5
170
  8
PART_LETTERS
 10
2.666222085571137
 20
57.40802493104979
 30
0.0
  0
VERTEX
  5
171
  8
PART_LETTERS
 10
2.66351689060503
 20
57.41874216278156
 30
0.0
  0
VERTEX
  5
172
  8
PART_LETTERS
 10
2.660534334569261
 20
57.42905999457299
 30
0.0
  0
VERTEX
  5
173
  8
PART_LETTERS
 10
2.65727441746383
 20
57.43897842642411
 30
0.0
  0
VERTEX
  5
174
  8
PART_LETTERS
 10
2.653737139288736
 20
57.44849745833492
 30
0.0
  0
VERTEX
  5
175
  8
PART_LETTERS
 10
2.64992250004398
 20
57.45761709030543
 30
0.0
  0
VERTEX
  5
176
  8
PART_LETTERS
 10
2.645830499729561
 20
57.46633732233561
 30
0.0
  0
VERTEX
  5
177
  8
PART_LETTERS
 10
2.64146113834548
 20
57.47465815442548
 30
0.0
  0
VERTEX
  5
178
  8
PART_LETTERS
 10
2.636814415891737
 20
57.48257958657504
 30
0.0
  0
VERTEX
  5
179
  8
PART_LETTERS
 10
2.631890332368331
 20
57.49010161878429
 30
0.0
  0
VERTEX
  5
17A
  8
PART_LETTERS
 10
2.626688887775264
 20
57.49722425105321
 30
0.0
  0
VERTEX
  5
17B
  8
PART_LETTERS
 10
2.621210082112533
 20
57.50394748338183
 30
0.0
  0
VERTEX
  5
17C
  8
PART_LETTERS
 10
2.615453915380141
 20
57.51027131577013
 30
0.0
  0
VERTEX
  5
17D
  8
PART_LETTERS
 10
2.609420387578086
 20
57.51619574821812
 30
0.0
  0
VERTEX
  5
17E
  8
PART_LETTERS
 10
2.603109498706369
 20
57.52172078072579
 30
0.0
  0
VERTEX
  5
17F
  8
PART_LETTERS
 10
2.596506456174607
 20
57.52687969662151
 30
0.0
  0
VERTEX
  5
180
  8
PART_LETTERS
 10
2.58959646739242
 20
57.53170577923363
 30
0.0
  0
VERTEX
  5
181
  8
PART_LETTERS
 10
2.582379532359805
 20
57.53619902856217
 30
0.0
  0
VERTEX
  5
182
  8
PART_LETTERS
 10
2.574855651076764
 20
57.5403594446071
 30
0.0
  0
VERTEX
  5
183
  8
PART_LETTERS
 10
2.567024823543297
 20
57.54418702736844
 30
0.0
  0
VERTEX
  5
184
  8
PART_LETTERS
 10
2.558887049759404
 20
57.54768177684618
 30
0.0
  0
VERTEX
  5
185
  8
PART_LETTERS
 10
2.550442329725084
 20
57.55084369304034
 30
0.0
  0
VERTEX
  5
186
  8
PART_LETTERS
 10
2.541690663440339
 20
57.55367277595089
 30
0.0
  0
VERTEX
  5
187
  8
PART_LETTERS
 10
2.532632050905167
 20
57.55616902557785
 30
0.0
  0
VERTEX
  5
188
  8
PART_LETTERS
 10
2.523266492119568
 20
57.55833244192122
 30
0.0
  0
VERTEX
  5
189
  8
PART_LETTERS
 10
2.513593987083543
 20
57.56016302498099
 30
0.0
  0
VERTEX
  5
18A
  8
PART_LETTERS
 10
2.503614535797092
 20
57.56166077475717
 30
0.0
  0
VERTEX
  5
18B
  8
PART_LETTERS
 10
2.493328138260214
 20
57.56282569124976
 30
0.0
  0
VERTEX
  5
18C
  8
PART_LETTERS
 10
2.48273479447291
 20
57.56365777445874
 30
0.0
  0
VERTEX
  5
18D
  8
PART_LETTERS
 10
2.47183450443518
 20
57.56415702438413
 30
0.0
  0
VERTEX
  5
18E
  8
PART_LETTERS
 10
2.460627268147024
 20
57.56432344102593
 30
0.0
  0
VERTEX
  5
18F
  8
PART_LETTERS
 10
2.442506344929084
 20
57.56382788924813
 30
0.0
  0
VERTEX
  5
190
  8
PART_LETTERS
 10
2.425539243760939
 20
57.56234123391474
 30
0.0
  0
VERTEX
  5
191
  8
PART_LETTERS
 10
2.40972596464259
 20
57.55986347502576
 30
0.0
  0
VERTEX
  5
192
  8
PART_LETTERS
 10
2.402252008352089
 20
57.55825293174792
 30
0.0
  0
VERTEX
  5
193
  8
PART_LETTERS
 10
2.395066507574036
 20
57.55639461258118
 30
0.0
  0
VERTEX
  5
194
  8
PART_LETTERS
 10
2.388169462308432
 20
57.55428851752555
 30
0.0
  0
VERTEX
  5
195
  8
PART_LETTERS
 10
2.381560872555278
 20
57.55193464658102
 30
0.0
  0
VERTEX
  5
196
  8
PART_LETTERS
 10
2.375240738314571
 20
57.54933299974758
 30
0.0
  0
VERTEX
  5
197
  8
PART_LETTERS
 10
2.369209059586314
 20
57.54648357702525
 30
0.0
  0
VERTEX
  5
198
  8
PART_LETTERS
 10
2.363465836370506
 20
57.54338637841401
 30
0.0
  0
VERTEX
  5
199
  8
PART_LETTERS
 10
2.358011068667146
 20
57.54004140391389
 30
0.0
  0
VERTEX
  5
19A
  8
PART_LETTERS
 10
2.352844756476236
 20
57.53644865352486
 30
0.0
  0
VERTEX
  5
19B
  8
PART_LETTERS
 10
2.347966899797774
 20
57.53260812724694
 30
0.0
  0
VERTEX
  5
19C
  8
PART_LETTERS
 10
2.339091345568579
 20
57.52446480624165
 30
0.0
  0
VERTEX
  5
19D
  8
PART_LETTERS
 10
2.331399198569943
 20
57.51589250011529
 30
0.0
  0
VERTEX
  5
19E
  8
PART_LETTERS
 10
2.327996902782085
 20
57.5114454776317
 30
0.0
  0
VERTEX
  5
19F
  8
PART_LETTERS
 10
2.324890458801867
 20
57.50689120886784
 30
0.0
  0
VERTEX
  5
1A0
  8
PART_LETTERS
 10
2.322079866629288
 20
57.50222969382371
 30
0.0
  0
VERTEX
  5
1A1
  8
PART_LETTERS
 10
2.31956512626435
 20
57.49746093249933
 30
0.0
  0
VERTEX
  5
1A2
  8
PART_LETTERS
 10
2.317346237707051
 20
57.49258492489466
 30
0.0
  0
VERTEX
  5
1A3
  8
PART_LETTERS
 10
2.315423200957392
 20
57.48760167100973
 30
0.0
  0
VERTEX
  5
1A4
  8
PART_LETTERS
 10
2.313796016015373
 20
57.48251117084452
 30
0.0
  0
VERTEX
  5
1A5
  8
PART_LETTERS
 10
2.312464682880994
 20
57.47731342439906
 30
0.0
  0
VERTEX
  5
1A6
  8
PART_LETTERS
 10
2.311429201554255
 20
57.4720084316733
 30
0.0
  0
VERTEX
  5
1A7
  8
PART_LETTERS
 10
2.310689572035155
 20
57.4665961926673
 30
0.0
  0
VERTEX
  5
1A8
  8
PART_LETTERS
 10
2.310245794323695
 20
57.46107670738101
 30
0.0
  0
VERTEX
  5
1A9
  8
PART_LETTERS
 10
2.310097868419875
 20
57.45544997581447
 30
0.0
  0
VERTEX
  5
1AA
  8
PART_LETTERS
 10
2.310586023902481
 20
57.44726967333322
 30
0.0
  0
VERTEX
  5
1AB
  8
PART_LETTERS
 10
2.312050490350298
 20
57.43929646711734
 30
0.0
  0
VERTEX
  5
1AC
  8
PART_LETTERS
 10
2.314491267763327
 20
57.43153035716679
 30
0.0
  0
VERTEX
  5
1AD
  8
PART_LETTERS
 10
2.317908356141567
 20
57.4239713434816
 30
0.0
  0
VERTEX
  5
1AE
  8
PART_LETTERS
 10
2.322301755485018
 20
57.41661942606174
 30
0.0
  0
VERTEX
  5
1AF
  8
PART_LETTERS
 10
2.327671465793681
 20
57.40947460490724
 30
0.0
  0
VERTEX
  5
1B0
  8
PART_LETTERS
 10
2.334017487067556
 20
57.40253688001808
 30
0.0
  0
VERTEX
  5
1B1
  8
PART_LETTERS
 10
2.341339819306642
 20
57.39580625139428
 30
0.0
  0
VERTEX
  5
1B2
  8
PART_LETTERS
 10
2.345452159432835
 20
57.39238916301603
 30
0.0
  0
VERTEX
  5
1B3
  8
PART_LETTERS
 10
2.350215373535837
 20
57.38900165981856
 30
0.0
  0
VERTEX
  5
1B4
  8
PART_LETTERS
 10
2.355629461615646
 20
57.38564374180184
 30
0.0
  0
VERTEX
  5
1B5
  8
PART_LETTERS
 10
2.361694423672263
 20
57.38231540896589
 30
0.0
  0
VERTEX
  5
1B6
  8
PART_LETTERS
 10
2.368410259705686
 20
57.37901666131071
 30
0.0
  0
VERTEX
  5
1B7
  8
PART_LETTERS
 10
2.375776969715918
 20
57.3757474988363
 30
0.0
  0
VERTEX
  5
1B8
  8
PART_LETTERS
 10
2.392463011666806
 20
57.36929792942975
 30
0.0
  0
VERTEX
  5
1B9
  8
PART_LETTERS
 10
2.411752549524922
 20
57.36296670074626
 30
0.0
  0
VERTEX
  5
1BA
  8
PART_LETTERS
 10
2.433645583290271
 20
57.35675381278581
 30
0.0
  0
VERTEX
  5
1BB
  8
PART_LETTERS
 10
2.458142112962849
 20
57.35065926554844
 30
0.0
  0
VERTEX
  5
1BC
  8
PART_LETTERS
 10
2.485242138542658
 20
57.34468305903411
 30
0.0
  0
VERTEX
  5
1BD
  8
PART_LETTERS
 10
2.553043976558517
 20
57.32951325759738
 30
0.0
  0
VERTEX
  5
1BE
  8
PART_LETTERS
 10
2.585075481956923
 20
57.32191171521484
 30
0.0
  0
VERTEX
  5
1BF
  8
PART_LETTERS
 10
2.615860711615646
 20
57.3142990783895
 30
0.0
  0
VERTEX
  5
1C0
  8
PART_LETTERS
 10
2.645399665534686
 20
57.30667534712138
 30
0.0
  0
VERTEX
  5
1C1
  8
PART_LETTERS
 10
2.673692343714043
 20
57.29904052141048
 30
0.0
  0
VERTEX
  5
1C2
  8
PART_LETTERS
 10
2.700738746153717
 20
57.29139460125678
 30
0.0
  0
VERTEX
  5
1C3
  8
PART_LETTERS
 10
2.726538872853709
 20
57.28373758666031
 30
0.0
  0
VERTEX
  5
1C4
  8
PART_LETTERS
 10
2.751092723814017
 20
57.27606947762105
 30
0.0
  0
VERTEX
  5
1C5
  8
PART_LETTERS
 10
2.774400299034643
 20
57.26839027413899
 30
0.0
  0
VERTEX
  5
1C6
  8
PART_LETTERS
 10
2.796461598515586
 20
57.26069997621415
 30
0.0
  0
VERTEX
  5
1C7
  8
PART_LETTERS
 10
2.817276622256847
 20
57.25299858384653
 30
0.0
  0
VERTEX
  5
1C8
  8
PART_LETTERS
 10
2.836845370258424
 20
57.24528609703612
 30
0.0
  0
VERTEX
  5
1C9
  8
PART_LETTERS
 10
2.855167842520319
 20
57.23756251578293
 30
0.0
  0
VERTEX
  5
1CA
  8
PART_LETTERS
 10
2.87224403904253
 20
57.22982784008694
 30
0.0
  0
VERTEX
  5
1CB
  8
PART_LETTERS
 10
2.888073959825059
 20
57.22208206994816
 30
0.0
  0
VERTEX
  5
1CC
  8
PART_LETTERS
 10
2.903021872406062
 20
57.21421426093874
 30
0.0
  0
VERTEX
  5
1CD
  8
PART_LETTERS
 10
2.917452044323695
 20
57.2061134686308
 30
0.0
  0
VERTEX
  5
1CE
  8
PART_LETTERS
 10
2.931364475577959
 20
57.19777969302434
 30
0.0
  0
VERTEX
  5
1CF
  8
PART_LETTERS
 10
2.944759166168852
 20
57.18921293411938
 30
0.0
  0
VERTEX
  5
1D0
  8
PART_LETTERS
 10
2.957636116096376
 20
57.18041319191589
 30
0.0
  0
VERTEX
  5
1D1
  8
PART_LETTERS
 10
2.96999532536053
 20
57.17138046641389
 30
0.0
  0
VERTEX
  5
1D2
  8
PART_LETTERS
 10
2.981836793961314
 20
57.16211475761337
 30
0.0
  0
VERTEX
  5
1D3
  8
PART_LETTERS
 10
2.993160521898729
 20
57.15261606551434
 30
0.0
  0
VERTEX
  5
1D4
  8
PART_LETTERS
 10
3.003966509172774
 20
57.14288439011678
 30
0.0
  0
VERTEX
  5
1D5
  8
PART_LETTERS
 10
3.014254755783449
 20
57.13291973142072
 30
0.0
  0
VERTEX
  5
1D6
  8
PART_LETTERS
 10
3.024025261730755
 20
57.12272208942613
 30
0.0
  0
VERTEX
  5
1D7
  8
PART_LETTERS
 10
3.033278027014691
 20
57.11229146413303
 30
0.0
  0
VERTEX
  5
1D8
  8
PART_LETTERS
 10
3.042013051635257
 20
57.10162785554141
 30
0.0
  0
VERTEX
  5
1D9
  8
PART_LETTERS
 10
3.050230335592453
 20
57.09073126365128
 30
0.0
  0
VERTEX
  5
1DA
  8
PART_LETTERS
 10
3.05792987888628
 20
57.07960168846262
 30
0.0
  0
VERTEX
  5
1DB
  8
PART_LETTERS
 10
3.065111681516737
 20
57.06823912997545
 30
0.0
  0
VERTEX
  5
1DC
  8
PART_LETTERS
 10
3.071818272181173
 20
57.05667502244434
 30
0.0
  0
VERTEX
  5
1DD
  8
PART_LETTERS
 10
3.078092179576935
 20
57.04494080012382
 30
0.0
  0
VERTEX
  5
1DE
  8
PART_LETTERS
 10
3.083933403704024
 20
57.03303646301391
 30
0.0
  0
VERTEX
  5
1DF
  8
PART_LETTERS
 10
3.08934194456244
 20
57.02096201111461
 30
0.0
  0
VERTEX
  5
1E0
  8
PART_LETTERS
 10
3.094317802152182
 20
57.00871744442591
 30
0.0
  0
VERTEX
  5
1E1
  8
PART_LETTERS
 10
3.098860976473252
 20
56.99630276294782
 30
0.0
  0
VERTEX
  5
1E2
  8
PART_LETTERS
 10
3.102971467525648
 20
56.98371796668035
 30
0.0
  0
VERTEX
  5
1E3
  8
PART_LETTERS
 10
3.10664927530937
 20
56.97096305562347
 30
0.0
  0
VERTEX
  5
1E4
  8
PART_LETTERS
 10
3.10989439982442
 20
56.95803802977721
 30
0.0
  0
VERTEX
  5
1E5
  8
PART_LETTERS
 10
3.112706841070796
 20
56.94494288914155
 30
0.0
  0
VERTEX
  5
1E6
  8
PART_LETTERS
 10
3.115086599048499
 20
56.9316776337165
 30
0.0
  0
VERTEX
  5
1E7
  8
PART_LETTERS
 10
3.117033673757529
 20
56.91824226350205
 30
0.0
  0
VERTEX
  5
1E8
  8
PART_LETTERS
 10
3.118548065197885
 20
56.90463677849822
 30
0.0
  0
VERTEX
  5
1E9
  8
PART_LETTERS
 10
3.119629773369568
 20
56.89086117870499
 30
0.0
  0
VERTEX
  5
1EA
  8
PART_LETTERS
 10
3.120278798272578
 20
56.87691546412237
 30
0.0
  0
VERTEX
  5
1EB
  8
PART_LETTERS
 10
3.120495139906915
 20
56.86279963475035
 30
0.0
  0
VERTEX
  5
1EC
  8
PART_LETTERS
 10
3.120206684394466
 20
56.84619495204656
 30
0.0
  0
VERTEX
  5
1ED
  8
PART_LETTERS
 10
3.119341317857119
 20
56.82975298783698
 30
0.0
  0
VERTEX
  5
1EE
  8
PART_LETTERS
 10
3.117899040294875
 20
56.8134737421216
 30
0.0
  0
VERTEX
  5
1EF
  8
PART_LETTERS
 10
3.115879851707733
 20
56.79735721490042
 30
0.0
  0
VERTEX
  5
1F0
  8
PART_LETTERS
 10
3.113283752095693
 20
56.78140340617343
 30
0.0
  0
VERTEX
  5
1F1
  8
PART_LETTERS
 10
3.110110741458756
 20
56.76561231594066
 30
0.0
  0
VERTEX
  5
1F2
  8
PART_LETTERS
 10
3.106360819796921
 20
56.74998394420209
 30
0.0
  0
VERTEX
  5
1F3
  8
PART_LETTERS
 10
3.102033987110189
 20
56.73451829095771
 30
0.0
  0
VERTEX
  5
1F4
  8
PART_LETTERS
 10
3.097130243398558
 20
56.71921535620754
 30
0.0
  0
VERTEX
  5
1F5
  8
PART_LETTERS
 10
3.091649588662031
 20
56.70407513995157
 30
0.0
  0
VERTEX
  5
1F6
  8
PART_LETTERS
 10
3.085592022900605
 20
56.68909764218981
 30
0.0
  0
VERTEX
  5
1F7
  8
PART_LETTERS
 10
3.078957546114281
 20
56.67428286292224
 30
0.0
  0
VERTEX
  5
1F8
  8
PART_LETTERS
 10
3.07174615830306
 20
56.65963080214888
 30
0.0
  0
VERTEX
  5
1F9
  8
PART_LETTERS
 10
3.063957859466942
 20
56.64514145986972
 30
0.0
  0
VERTEX
  5
1FA
  8
PART_LETTERS
 10
3.055592649605925
 20
56.63081483608475
 30
0.0
  0
VERTEX
  5
1FB
  8
PART_LETTERS
 10
3.046650528720011
 20
56.616650930794
 30
0.0
  0
VERTEX
  5
1FC
  8
PART_LETTERS
 10
3.037190667170727
 20
56.60278102823709
 30
0.0
  0
VERTEX
  5
1FD
  8
PART_LETTERS
 10
3.027272235319602
 20
56.58933641265366
 30
0.0
  0
VERTEX
  5
1FE
  8
PART_LETTERS
 10
3.016895233166634
 20
56.5763170840437
 30
0.0
  0
VERTEX
  5
1FF
  8
PART_LETTERS
 10
3.006059660711826
 20
56.56372304240723
 30
0.0
  0
VERTEX
  5
200
  8
PART_LETTERS
 10
2.994765517955175
 20
56.55155428774425
 30
0.0
  0
VERTEX
  5
201
  8
PART_LETTERS
 10
2.983012804896683
 20
56.53981082005475
 30
0.0
  0
VERTEX
  5
202
  8
PART_LETTERS
 10
2.970801521536348
 20
56.52849263933872
 30
0.0
  0
VERTEX
  5
203
  8
PART_LETTERS
 10
2.958131667874173
 20
56.51759974559618
 30
0.0
  0
VERTEX
  5
204
  8
PART_LETTERS
 10
2.945003243910155
 20
56.50713213882712
 30
0.0
  0
VERTEX
  5
205
  8
PART_LETTERS
 10
2.931416249644295
 20
56.49708981903155
 30
0.0
  0
VERTEX
  5
206
  8
PART_LETTERS
 10
2.917370685076594
 20
56.48747278620946
 30
0.0
  0
VERTEX
  5
207
  8
PART_LETTERS
 10
2.902866550207051
 20
56.47828104036085
 30
0.0
  0
VERTEX
  5
208
  8
PART_LETTERS
 10
2.887903845035666
 20
56.46951458148571
 30
0.0
  0
VERTEX
  5
209
  8
PART_LETTERS
 10
2.87248256956244
 20
56.46117340958408
 30
0.0
  0
VERTEX
  5
20A
  8
PART_LETTERS
 10
2.856602723787371
 20
56.45325752465591
 30
0.0
  0
VERTEX
  5
20B
  8
PART_LETTERS
 10
2.840264307710462
 20
56.44576692670123
 30
0.0
  0
VERTEX
  5
20C
  8
PART_LETTERS
 10
2.82342664170816
 20
56.43871640831042
 30
0.0
  0
VERTEX
  5
20D
  8
PART_LETTERS
 10
2.806049046156915
 20
56.43212076207385
 30
0.0
  0
VERTEX
  5
20E
  8
PART_LETTERS
 10
2.788131521056727
 20
56.42597998799152
 30
0.0
  0
VERTEX
  5
20F
  8
PART_LETTERS
 10
2.769674066407597
 20
56.42029408606345
 30
0.0
  0
VERTEX
  5
210
  8
PART_LETTERS
 10
2.750676682209524
 20
56.41506305628962
 30
0.0
  0
VERTEX
  5
211
  8
PART_LETTERS
 10
2.731139368462508
 20
56.41028689867003
 30
0.0
  0
VERTEX
  5
212
  8
PART_LETTERS
 10
2.71106212516655
 20
56.40596561320469
 30
0.0
  0
VERTEX
  5
213
  8
PART_LETTERS
 10
2.690444952321648
 20
56.4020991998936
 30
0.0
  0
VERTEX
  5
214
  8
PART_LETTERS
 10
2.669287849927805
 20
56.39868765873675
 30
0.0
  0
VERTEX
  5
215
  8
PART_LETTERS
 10
2.647590817985018
 20
56.39573098973415
 30
0.0
  0
VERTEX
  5
216
  8
PART_LETTERS
 10
2.625353856493289
 20
56.3932291928858
 30
0.0
  0
VERTEX
  5
217
  8
PART_LETTERS
 10
2.602576965452617
 20
56.39118226819168
 30
0.0
  0
VERTEX
  5
218
  8
PART_LETTERS
 10
2.579260144863002
 20
56.38959021565182
 30
0.0
  0
VERTEX
  5
219
  8
PART_LETTERS
 10
2.555403394724445
 20
56.38845303526621
 30
0.0
  0
VERTEX
  5
21A
  8
PART_LETTERS
 10
2.531006715036945
 20
56.38777072703484
 30
0.0
  0
VERTEX
  5
21B
  8
PART_LETTERS
 10
2.506070105800502
 20
56.38754329095772
 30
0.0
  0
VERTEX
  5
21C
  8
PART_LETTERS
 10
2.462661249324547
 20
56.38807582421147
 30
0.0
  0
VERTEX
  5
21D
  8
PART_LETTERS
 10
2.420953540742521
 20
56.38967342397272
 30
0.0
  0
VERTEX
  5
21E
  8
PART_LETTERS
 10
2.380946980054425
 20
56.39233609024149
 30
0.0
  0
VERTEX
  5
21F
  8
PART_LETTERS
 10
2.361581630170599
 20
56.39406682331618
 30
0.0
  0
VERTEX
  5
220
  8
PART_LETTERS
 10
2.342641567260257
 20
56.39606382301774
 30
0.0
  0
VERTEX
  5
221
  8
PART_LETTERS
 10
2.324126791323397
 20
56.3983270893462
 30
0.0
  0
VERTEX
  5
222
  8
PART_LETTERS
 10
2.306037302360018
 20
56.40085662230152
 30
0.0
  0
VERTEX
  5
223
  8
PART_LETTERS
 10
2.288373100370122
 20
56.40365242188371
 30
0.0
  0
VERTEX
  5
224
  8
PART_LETTERS
 10
2.271134185353708
 20
56.40671448809277
 30
0.0
  0
VERTEX
  5
225
  8
PART_LETTERS
 10
2.254320557310777
 20
56.41004282092872
 30
0.0
  0
VERTEX
  5
226
  8
PART_LETTERS
 10
2.237932216241327
 20
56.41363742039155
 30
0.0
  0
VERTEX
  5
227
  8
PART_LETTERS
 10
2.221969162145361
 20
56.41749828648125
 30
0.0
  0
VERTEX
  5
228
  8
PART_LETTERS
 10
2.206431395022876
 20
56.42162541919782
 30
0.0
  0
VERTEX
  5
229
  8
PART_LETTERS
 10
2.191318914873873
 20
56.42601881854128
 30
0.0
  0
VERTEX
  5
22A
  8
PART_LETTERS
 10
2.176631721698354
 20
56.4306784845116
 30
0.0
  0
VERTEX
  5
22B
  8
PART_LETTERS
 10
2.162369815496316
 20
56.43560441710881
 30
0.0
  0
VERTEX
  5
22C
  8
PART_LETTERS
 10
2.14853319626776
 20
56.44079661633288
 30
0.0
  0
VERTEX
  5
22D
  8
PART_LETTERS
 10
2.135121864012687
 20
56.44625508218384
 30
0.0
  0
VERTEX
  5
22E
  8
PART_LETTERS
 10
2.122135818731096
 20
56.45197981466167
 30
0.0
  0
VERTEX
  5
22F
  8
PART_LETTERS
 10
2.109575060422987
 20
56.45797081376637
 30
0.0
  0
VERTEX
  5
230
  8
PART_LETTERS
 10
2.097439589088361
 20
56.46422807949796
 30
0.0
  0
VERTEX
  5
231
  8
PART_LETTERS
 10
2.085729404727217
 20
56.47075161185641
 30
0.0
  0
VERTEX
  5
232
  8
PART_LETTERS
 10
2.074444507339555
 20
56.47754141084175
 30
0.0
  0
VERTEX
  5
233
  8
PART_LETTERS
 10
2.063584896925375
 20
56.48459747645396
 30
0.0
  0
VERTEX
  5
234
  8
PART_LETTERS
 10
2.053150573484678
 20
56.49191980869304
 30
0.0
  0
VERTEX
  5
235
  8
PART_LETTERS
 10
2.043141537017463
 20
56.49950840755901
 30
0.0
  0
VERTEX
  5
236
  8
PART_LETTERS
 10
2.033557787523729
 20
56.50736327305184
 30
0.0
  0
VERTEX
  5
237
  8
PART_LETTERS
 10
2.024399325003479
 20
56.51548440517156
 30
0.0
  0
VERTEX
  5
238
  8
PART_LETTERS
 10
2.01566614945671
 20
56.52387180391815
 30
0.0
  0
VERTEX
  5
239
  8
PART_LETTERS
 10
1.999087353786093
 20
56.54120132355065
 30
0.0
  0
VERTEX
  5
23A
  8
PART_LETTERS
 10
1.98343309501435
 20
56.55910775420805
 30
0.0
  0
VERTEX
  5
23B
  8
PART_LETTERS
 10
1.968703373141481
 20
56.57759109589035
 30
0.0
  0
VERTEX
  5
23C
  8
PART_LETTERS
 10
1.954898188167487
 20
56.59665134859755
 30
0.0
  0
VERTEX
  5
23D
  8
PART_LETTERS
 10
1.942017540092368
 20
56.61628851232964
 30
0.0
  0
VERTEX
  5
23E
  8
PART_LETTERS
 10
1.930061428916123
 20
56.63650258708663
 30
0.0
  0
VERTEX
  5
23F
  8
PART_LETTERS
 10
1.919029854638753
 20
56.65729357286853
 30
0.0
  0
VERTEX
  5
240
  8
PART_LETTERS
 10
1.908922817260257
 20
56.67866146967532
 30
0.0
  0
VERTEX
  5
241
  8
PART_LETTERS
 10
1.899740316780636
 20
56.70060627750701
 30
0.0
  0
VERTEX
  5
242
  8
PART_LETTERS
 10
1.891482353199889
 20
56.72312799636359
 30
0.0
  0
VERTEX
  5
243
  8
PART_LETTERS
 10
1.884148926518016
 20
56.74622662624506
 30
0.0
  0
VERTEX
  5
244
  8
PART_LETTERS
 10
1.877740036735018
 20
56.76990216715144
 30
0.0
  0
VERTEX
  5
245
  8
PART_LETTERS
 10
1.872255683850895
 20
56.79415461908272
 30
0.0
  0
VERTEX
  5
246
  8
PART_LETTERS
 10
1.867695867865646
 20
56.81898398203889
 30
0.0
  0
VERTEX
  5
247
  8
PART_LETTERS
 10
1.864060588779271
 20
56.84439025601996
 30
0.0
  0
SEQEND
  5
5F4
  8
PART_LETTERS
  0
POLYLINE
  5
72
  8
PART_LETTERS
 66
     1
 10
0.0
 20
0.0
 30
0.0
 70
     1
  0
VERTEX
  5
248
  8
PART_LETTERS
 10
0.5189136601908854
 20
18.25215214240725
 30
0.0
  0
VERTEX
  5
249
  8
PART_LETTERS
 10
1.579246538772058
 20
18.25215214240725
 30
0.0
  0
VERTEX
  5
24A
  8
PART_LETTERS
 10
1.579246538772058
 20
17.9539335203063
 30
0.0
  0
VERTEX
  5
24B
  8
PART_LETTERS
 10
0.9496738921144869
 20
17.9539335203063
 30
0.0
  0
VERTEX
  5
24C
  8
PART_LETTERS
 10
0.9496738921144869
 20
17.71157171948774
 30
0.0
  0
VERTEX
  5
24D
  8
PART_LETTERS
 10
1.487414137680653
 20
17.71157171948774
 30
0.0
  0
VERTEX
  5
24E
  8
PART_LETTERS
 10
1.487414137680653
 20
17.43134088729129
 30
0.0
  0
VERTEX
  5
24F
  8
PART_LETTERS
 10
0.9496738921144869
 20
17.43134088729129
 30
0.0
  0
VERTEX
  5
250
  8
PART_LETTERS
 10
0.9496738921144869
 20
16.86425214240725
 30
0.0
  0
VERTEX
  5
251
  8
PART_LETTERS
 10
0.5189136601908854
 20
16.86425214240725
 30
0.0
  0
SEQEND
  5
5F5
  8
PART_LETTERS
  0
POLYLINE
  5
73
  8
PART_LETTERS
 66
     1
 10
0.0
 20
0.0
 30
0.0
 70
     1
  0
VERTEX
  5
252
  8
PART_LETTERS
 10
1.735456293205893
 20
17.32341414786428
 30
0.0
  0
VERTEX
  5
253
  8
PART_LETTERS
 10
2.143495106302755
 20
17.34897574404436
 30
0.0
  0
VERTEX
  5
254
  8
PART_LETTERS
 10
2.147237631669399
 20
17.32486382172171
 30
0.0
  0
VERTEX
  5
255
  8
PART_LETTERS
 10
2.151838127278198
 20
17.30223115843727
 30
0.0
  0
VERTEX
  5
256
  8
PART_LETTERS
 10
2.154460113923406
 20
17.29146954893437
 30
0.0
  0
VERTEX
  5
257
  8
PART_LETTERS
 10
2.157296593129153
 20
17.28107775419102
 30
0.0
  0
VERTEX
  5
258
  8
PART_LETTERS
 10
2.160347564895439
 20
17.27105577420722
 30
0.0
  0
VERTEX
  5
259
  8
PART_LETTERS
 10
2.163613029222264
 20
17.26140360898297
 30
0.0
  0
VERTEX
  5
25A
  8
PART_LETTERS
 10
2.167092986109627
 20
17.25212125851827
 30
0.0
  0
VERTEX
  5
25B
  8
PART_LETTERS
 10
2.170787435557529
 20
17.24320872281312
 30
0.0
  0
VERTEX
  5
25C
  8
PART_LETTERS
 10
2.174696377565971
 20
17.23466600186752
 30
0.0
  0
VERTEX
  5
25D
  8
PART_LETTERS
 10
2.178819812134951
 20
17.22649309568147
 30
0.0
  0
VERTEX
  5
25E
  8
PART_LETTERS
 10
2.183157739264471
 20
17.21869000425497
 30
0.0
  0
VERTEX
  5
25F
  8
PART_LETTERS
 10
2.187710158954528
 20
17.21125672758802
 30
0.0
  0
VERTEX
  5
260
  8
PART_LETTERS
 10
2.192477071205125
 20
17.20419326568062
 30
0.0
  0
VERTEX
  5
261
  8
PART_LETTERS
 10
2.197458476016261
 20
17.19749961853276
 30
0.0
  0
VERTEX
  5
262
  8
PART_LETTERS
 10
2.205964215485906
 20
17.18729642931678
 30
0.0
  0
VERTEX
  5
263
  8
PART_LETTERS
 10
2.214913732667012
 20
17.1777515103728
 30
0.0
  0
VERTEX
  5
264
  8
PART_LETTERS
 10
2.224307027559576
 20
17.16886486170083
 30
0.0
  0
VERTEX
  5
265
  8
PART_LETTERS
 10
2.234144100163601
 20
17.16063648330084
 30
0.0
  0
VERTEX
  5
266
  8
PART_LETTERS
 10
2.244424950479085
 20
17.15306637517286
 30
0.0
  0
VERTEX
  5
267
  8
PART_LETTERS
 10
2.255149578506029
 20
17.14615453731687
 30
0.0
  0
VERTEX
  5
268
  8
PART_LETTERS
 10
2.266317984244433
 20
17.13990096973289
 30
0.0
  0
VERTEX
  5
269
  8
PART_LETTERS
 10
2.277930167694296
 20
17.1343056724209
 30
0.0
  0
VERTEX
  5
26A
  8
PART_LETTERS
 10
2.289986128855619
 20
17.12936864538091
 30
0.0
  0
VERTEX
  5
26B
  8
PART_LETTERS
 10
2.302485867728403
 20
17.12508988861292
 30
0.0
  0
VERTEX
  5
26C
  8
PART_LETTERS
 10
2.315429384312645
 20
17.12146940211692
 30
0.0
  0
VERTEX
  5
26D
  8
PART_LETTERS
 10
2.328816678608348
 20
17.11850718589293
 30
0.0
  0
VERTEX
  5
26E
  8
PART_LETTERS
 10
2.34264775061551
 20
17.11620323994093
 30
0.0
  0
VERTEX
  5
26F
  8
PART_LETTERS
 10
2.356922600334133
 20
17.11455756426093
 30
0.0
  0
VERTEX
  5
270
  8
PART_LETTERS
 10
2.371641227764214
 20
17.11357015885294
 30
0.0
  0
VERTEX
  5
271
  8
PART_LETTERS
 10
2.386803632905756
 20
17.11324102371694
 30
0.0
  0
VERTEX
  5
272
  8
PART_LETTERS
 10
2.398118115474182
 20
17.11340928943254
 30
0.0
  0
VERTEX
  5
273
  8
PART_LETTERS
 10
2.409103462906608
 20
17.11391408657932
 30
0.0
  0
VERTEX
  5
274
  8
PART_LETTERS
 10
2.419759675203035
 20
17.1147554151573
 30
0.0
  0
VERTEX
  5
275
  8
PART_LETTERS
 10
2.430086752363463
 20
17.11593327516646
 30
0.0
  0
VERTEX
  5
276
  8
PART_LETTERS
 10
2.440084694387892
 20
17.11744766660682
 30
0.0
  0
VERTEX
  5
277
  8
PART_LETTERS
 10
2.449753501276322
 20
17.11929858947837
 30
0.0
  0
VERTEX
  5
278
  8
PART_LETTERS
 10
2.459093173028752
 20
17.1214860437811
 30
0.0
  0
VERTEX
  5
279
  8
PART_LETTERS
 10
2.468103709645183
 20
17.12401002951503
 30
0.0
  0
VERTEX
  5
27A
  8
PART_LETTERS
 10
2.476785111125614
 20
17.12687054668014
 30
0.0
  0
VERTEX
  5
27B
  8
PART_LETTERS
 10
2.485137377470046
 20
17.13006759527645
 30
0.0
  0
VERTEX
  5
27C
  8
PART_LETTERS
 10
2.493160508678479
 20
17.13360117530395
 30
0.0
  0
VERTEX
  5
27D
  8
PART_LETTERS
 10
2.500854504750913
 20
17.13747128676264
 30
0.0
  0
VERTEX
  5
27E
  8
PART_LETTERS
 10
2.508219365687347
 20
17.14167792965252
 30
0.0
  0
VERTEX
  5
27F
  8
PART_LETTERS
 10
2.515255091487782
 20
17.14622110397359
 30
0.0
  0
VERTEX
  5
280
  8
PART_LETTERS
 10
2.521961682152218
 20
17.15110080972585
 30
0.0
  0
VERTEX
  5
281
  8
PART_LETTERS
 10
2.528339137680654
 20
17.1563170469093
 30
0.0
  0
VERTEX
  5
282
  8
PART_LETTERS
 10
2.534357872892326
 20
17.16175517294848
 30
0.0
  0
VERTEX
  5
283
  8
PART_LETTERS
 10
2.539988302606472
 20
17.16730054526793
 30
0.0
  0
VERTEX
  5
284
  8
PART_LETTERS
 10
2.545230426823091
 20
17.17295316386765
 30
0.0
  0
VERTEX
  5
285
  8
PART_LETTERS
 10
2.550084245542182
 20
17.17871302874763
 30
0.0
  0
VERTEX
  5
286
  8
PART_LETTERS
 10
2.554549758763746
 20
17.18458013990789
 30
0.0
  0
VERTEX
  5
287
  8
PART_LETTERS
 10
2.558626966487783
 20
17.19055449734842
 30
0.0
  0
VERTEX
  5
288
  8
PART_LETTERS
 10
2.562315868714292
 20
17.19663610106921
 30
0.0
  0
VERTEX
  5
289
  8
PART_LETTERS
 10
2.565616465443273
 20
17.20282495107028
 30
0.0
  0
VERTEX
  5
28A
  8
PART_LETTERS
 10
2.568528756674728
 20
17.20912104735162
 30
0.0
  0
VERTEX
  5
28B
  8
PART_LETTERS
 10
2.571052742408655
 20
17.21552438991322
 30
0.0
  0
VERTEX
  5
28C
  8
PART_LETTERS
 10
2.573188422645055
 20
17.2220349787551
 30
0.0
  0
VERTEX
  5
28D
  8
PART_LETTERS
 10
2.574935797383928
 20
17.22865281387724
 30
0.0
  0
VERTEX
  5
28E
  8
PART_LETTERS
 10
2.576294866625273
 20
17.23537789527965
 30
0.0
  0
VERTEX
  5
28F
  8
PART_LETTERS
 10
2.577265630369091
 20
17.24221022296234
 30
0.0
  0
VERTEX
  5
290
  8
PART_LETTERS
 10
2.577848088615382
 20
17.24914979692529
 30
0.0
  0
VERTEX
  5
291
  8
PART_LETTERS
 10
2.578042241364146
 20
17.25619661716851
 30
0.0
  0
VERTEX
  5
292
  8
PART_LETTERS
 10
2.577857333984371
 20
17.26289766061155
 30
0.0
  0
VERTEX
  5
293
  8
PART_LETTERS
 10
2.577302611845046
 20
17.2695099485123
 30
0.0
  0
VERTEX
  5
294
  8
PART_LETTERS
 10
2.576378074946171
 20
17.27603348087076
 30
0.0
  0
VERTEX
  5
295
  8
PART_LETTERS
 10
2.575083723287747
 20
17.28246825768692
 30
0.0
  0
VERTEX
  5
296
  8
PART_LETTERS
 10
2.573419556869773
 20
17.2888142789608
 30
0.0
  0
VERTEX
  5
297
  8
PART_LETTERS
 10
2.571385575692249
 20
17.29507154469238
 30
0.0
  0
VERTEX
  5
298
  8
PART_LETTERS
 10
2.568981779755175
 20
17.30124005488167
 30
0.0
  0
VERTEX
  5
299
  8
PART_LETTERS
 10
2.566208169058553
 20
17.30731980952867
 30
0.0
  0
VERTEX
  5
29A
  8
PART_LETTERS
 10
2.563064743602379
 20
17.31331080863338
 30
0.0
  0
VERTEX
  5
29B
  8
PART_LETTERS
 10
2.559551503386656
 20
17.31921305219579
 30
0.0
  0
VERTEX
  5
29C
  8
PART_LETTERS
 10
2.555668448411383
 20
17.32502654021592
 30
0.0
  0
VERTEX
  5
29D
  8
PART_LETTERS
 10
2.55141557867656
 20
17.33075127269375
 30
0.0
  0
VERTEX
  5
29E
  8
PART_LETTERS
 10
2.546792894182188
 20
17.33638724962929
 30
0.0
  0
VERTEX
  5
29F
  8
PART_LETTERS
 10
2.541800394928266
 20
17.34193447102253
 30
0.0
  0
VERTEX
  5
2A0
  8
PART_LETTERS
 10
2.536438080914794
 20
17.34739293687349
 30
0.0
  0
VERTEX
  5
2A1
  8
PART_LETTERS
 10
2.530705952141772
 20
17.35276264718215
 30
0.0
  0
VERTEX
  5
2A2
  8
PART_LETTERS
 10
2.52430076050637
 20
17.35806948898169
 30
0.0
  0
VERTEX
  5
2A3
  8
PART_LETTERS
 10
2.516919257905756
 20
17.36333934930527
 30
0.0
  0
VERTEX
  5
2A4
  8
PART_LETTERS
 10
2.508561444339931
 20
17.3685722281529
 30
0.0
  0
VERTEX
  5
2A5
  8
PART_LETTERS
 10
2.499227319808894
 20
17.37376812552458
 30
0.0
  0
VERTEX
  5
2A6
  8
PART_LETTERS
 10
2.488916884312645
 20
17.3789270414203
 30
0.0
  0
VERTEX
  5
2A7
  8
PART_LETTERS
 10
2.477630137851186
 20
17.38404897584007
 30
0.0
  0
VERTEX
  5
2A8
  8
PART_LETTERS
 10
2.465367080424515
 20
17.38913392878387
 30
0.0
  0
VERTEX
  5
2A9
  8
PART_LETTERS
 10
2.452127712032632
 20
17.39418190025173
 30
0.0
  0
VERTEX
  5
2AA
  8
PART_LETTERS
 10
2.437912032675538
 20
17.39919289024363
 30
0.0
  0
VERTEX
  5
2AB
  8
PART_LETTERS
 10
2.422720042353232
 20
17.40416689875957
 30
0.0
  0
VERTEX
  5
2AC
  8
PART_LETTERS
 10
2.406551741065715
 20
17.40910392579956
 30
0.0
  0
VERTEX
  5
2AD
  8
PART_LETTERS
 10
2.389407128812987
 20
17.4140039713636
 30
0.0
  0
VERTEX
  5
2AE
  8
PART_LETTERS
 10
2.352188971411895
 20
17.4236931180638
 30
0.0
  0
VERTEX
  5
2AF
  8
PART_LETTERS
 10
2.311065570149958
 20
17.43323433886018
 30
0.0
  0
VERTEX
  5
2B0
  8
PART_LETTERS
 10
2.27643241791812
 20
17.44132588579914
 30
0.0
  0
VERTEX
  5
2B1
  8
PART_LETTERS
 10
2.243064032163942
 20
17.44974286972649
 30
0.0
  0
VERTEX
  5
2B2
  8
PART_LETTERS
 10
2.210960412887424
 20
17.45848529064225
 30
0.0
  0
VERTEX
  5
2B3
  8
PART_LETTERS
 10
2.180121560088566
 20
17.46755314854641
 30
0.0
  0
VERTEX
  5
2B4
  8
PART_LETTERS
 10
2.150547473767369
 20
17.47694644343897
 30
0.0
  0
VERTEX
  5
2B5
  8
PART_LETTERS
 10
2.122238153923832
 20
17.48666517531994
 30
0.0
  0
VERTEX
  5
2B6
  8
PART_LETTERS
 10
2.095193600557956
 20
17.49670934418931
 30
0.0
  0
VERTEX
  5
2B7
  8
PART_LETTERS
 10
2.06941381366974
 20
17.50707895004709
 30
0.0
  0
VERTEX
  5
2B8
  8
PART_LETTERS
 10
2.044898793259184
 20
17.51777399289327
 30
0.0
  0
VERTEX
  5
2B9
  8
PART_LETTERS
 10
2.021648539326288
 20
17.52879447272785
 30
0.0
  0
VERTEX
  5
2BA
  8
PART_LETTERS
 10
1.999663051871053
 20
17.54014038955084
 30
0.0
  0
VERTEX
  5
2BB
  8
PART_LETTERS
 10
1.978942330893478
 20
17.55181174336223
 30
0.0
  0
VERTEX
  5
2BC
  8
PART_LETTERS
 10
1.959486376393563
 20
17.56380853416203
 30
0.0
  0
VERTEX
  5
2BD
  8
PART_LETTERS
 10
1.941295188371308
 20
17.57613076195022
 30
0.0
  0
VERTEX
  5
2BE
  8
PART_LETTERS
 10
1.924368766826714
 20
17.58877842672683
 30
0.0
  0
VERTEX
  5
2BF
  8
PART_LETTERS
 10
1.90870711175978
 20
17.60175152849184
 30
0.0
  0
VERTEX
  5
2C0
  8
PART_LETTERS
 10
1.894032862100845
 20
17.61511293575437
 30
0.0
  0
VERTEX
  5
2C1
  8
PART_LETTERS
 10
1.880305338226356
 20
17.62892551702355
 30
0.0
  0
VERTEX
  5
2C2
  8
PART_LETTERS
 10
1.867524540136315
 20
17.64318927229939
 30
0.0
  0
VERTEX
  5
2C3
  8
PART_LETTERS
 10
1.855690467830722
 20
17.65790420158188
 30
0.0
  0
VERTEX
  5
2C4
  8
PART_LETTERS
 10
1.844803121309576
 20
17.67307030487101
 30
0.0
  0
VERTEX
  5
2C5
  8
PART_LETTERS
 10
1.834862500572877
 20
17.6886875821668
 30
0.0
  0
VERTEX
  5
2C6
  8
PART_LETTERS
 10
1.825868605620626
 20
17.70475603346924
 30
0.0
  0
VERTEX
  5
2C7
  8
PART_LETTERS
 10
1.817821436452823
 20
17.72127565877833
 30
0.0
  0
VERTEX
  5
2C8
  8
PART_LETTERS
 10
1.810720993069467
 20
17.73824645809407
 30
0.0
  0
VERTEX
  5
2C9
  8
PART_LETTERS
 10
1.804567275470558
 20
17.75566843141646
 30
0.0
  0
VERTEX
  5
2CA
  8
PART_LETTERS
 10
1.799360283656097
 20
17.7735415787455
 30
0.0
  0
VERTEX
  5
2CB
  8
PART_LETTERS
 10
1.795100017626083
 20
17.79186590008119
 30
0.0
  0
VERTEX
  5
2CC
  8
PART_LETTERS
 10
1.791786477380517
 20
17.81064139542354
 30
0.0
  0
VERTEX
  5
2CD
  8
PART_LETTERS
 10
1.789419662919399
 20
17.82986806477253
 30
0.0
  0
VERTEX
  5
2CE
  8
PART_LETTERS
 10
1.787999574242727
 20
17.84954590812818
 30
0.0
  0
VERTEX
  5
2CF
  8
PART_LETTERS
 10
1.787526211350503
 20
17.86967492549047
 30
0.0
  0
VERTEX
  5
2D0
  8
PART_LETTERS
 10
1.787768440018009
 20
17.88300120035085
 30
0.0
  0
VERTEX
  5
2D1
  8
PART_LETTERS
 10
1.788495126020524
 20
17.89623502152134
 30
0.0
  0
VERTEX
  5
2D2
  8
PART_LETTERS
 10
1.78970626935805
 20
17.90937638900194
 30
0.0
  0
VERTEX
  5
2D3
  8
PART_LETTERS
 10
1.791401870030585
 20
17.92242530279265
 30
0.0
  0
VERTEX
  5
2D4
  8
PART_LETTERS
 10
1.793581928038132
 20
17.93538176289348
 30
0.0
  0
VERTEX
  5
2D5
  8
PART_LETTERS
 10
1.796246443380688
 20
17.94824576930442
 30
0.0
  0
VERTEX
  5
2D6
  8
PART_LETTERS
 10
1.799395416058254
 20
17.96101732202547
 30
0.0
  0
VERTEX
  5
2D7
  8
PART_LETTERS
 10
1.803028846070831
 20
17.97369642105664
 30
0.0
  0
VERTEX
  5
2D8
  8
PART_LETTERS
 10
1.807146733418418
 20
17.98628306639792
 30
0.0
  0
VERTEX
  5
2D9
  8
PART_LETTERS
 10
1.811749078101015
 20
17.9987772580493
 30
0.0
  0
VERTEX
  5
2DA
  8
PART_LETTERS
 10
1.816835880118623
 20
18.01117899601081
 30
0.0
  0
VERTEX
  5
2DB
  8
PART_LETTERS
 10
1.82240713947124
 20
18.02348828028242
 30
0.0
  0
VERTEX
  5
2DC
  8
PART_LETTERS
 10
1.828462856158868
 20
18.03570511086415
 30
0.0
  0
VERTEX
  5
2DD
  8
PART_LETTERS
 10
1.835003030181506
 20
18.04782948775599
 30
0.0
  0
VERTEX
  5
2DE
  8
PART_LETTERS
 10
1.842027661539155
 20
18.05986141095794
 30
0.0
  0
VERTEX
  5
2DF
  8
PART_LETTERS
 10
1.849536750231813
 20
18.07180088047001
 30
0.0
  0
VERTEX
  5
2E0
  8
PART_LETTERS
 10
1.85753214533328
 20
18.08353510279052
 30
0.0
  0
VERTEX
  5
2E1
  8
PART_LETTERS
 10
1.866015695917352
 20
18.09495128441782
 30
0.0
  0
VERTEX
  5
2E2
  8
PART_LETTERS
 10
1.87498740198403
 20
18.10604942535191
 30
0.0
  0
VERTEX
  5
2E3
  8
PART_LETTERS
 10
1.884447263533314
 20
18.11682952559279
 30
0.0
  0
VERTEX
  5
2E4
  8
PART_LETTERS
 10
1.894395280565204
 20
18.12729158514045
 30
0.0
  0
VERTEX
  5
2E5
  8
PART_LETTERS
 10
1.904831453079699
 20
18.1374356039949
 30
0.0
  0
VERTEX
  5
2E6
  8
PART_LETTERS
 10
1.9157557810768
 20
18.14726158215614
 30
0.0
  0
VERTEX
  5
2E7
  8
PART_LETTERS
 10
1.927168264556506
 20
18.15676951962417
 30
0.0
  0
VERTEX
  5
2E8
  8
PART_LETTERS
 10
1.939068903518819
 20
18.16595941639898
 30
0.0
  0
VERTEX
  5
2E9
  8
PART_LETTERS
 10
1.951457697963737
 20
18.17483127248058
 30
0.0
  0
VERTEX
  5
2EA
  8
PART_LETTERS
 10
1.964334647891261
 20
18.18338508786897
 30
0.0
  0
VERTEX
  5
2EB
  8
PART_LETTERS
 10
1.97769975330139
 20
18.19162086256414
 30
0.0
  0
VERTEX
  5
2EC
  8
PART_LETTERS
 10
1.991553014194126
 20
18.1995385965661
 30
0.0
  0
VERTEX
  5
2ED
  8
PART_LETTERS
 10
2.005894430569467
 20
18.20713828987485
 30
0.0
  0
VERTEX
  5
2EE
  8
PART_LETTERS
 10
2.020724002427414
 20
18.21441994249039
 30
0.0
  0
VERTEX
  5
2EF
  8
PART_LETTERS
 10
2.036041729767966
 20
18.22138355441271
 30
0.0
  0
VERTEX
  5
2F0
  8
PART_LETTERS
 10
2.051964104240382
 20
18.22797550250169
 30
0.0
  0
VERTEX
  5
2F1
  8
PART_LETTERS
 10
2.068607617493921
 20
18.23414216361718
 30
0.0
  0
VERTEX
  5
2F2
  8
PART_LETTERS
 10
2.085972269528582
 20
18.23988353775919
 30
0.0
  0
VERTEX
  5
2F3
  8
PART_LETTERS
 10
2.104058060344364
 20
18.24519962492771
 30
0.0
  0
VERTEX
  5
2F4
  8
PART_LETTERS
 10
2.122864989941269
 20
18.25009042512276
 30
0.0
  0
VERTEX
  5
2F5
  8
PART_LETTERS
 10
2.142393058319296
 20
18.25455593834432
 30
0.0
  0
VERTEX
  5
2F6
  8
PART_LETTERS
 10
2.162642265478445
 20
18.25859616459241
 30
0.0
  0
VERTEX
  5
2F7
  8
PART_LETTERS
 10
2.183612611418717
 20
18.26221110386701
 30
0.0
  0
VERTEX
  5
2F8
  8
PART_LETTERS
 10
2.20530409614011
 20
18.26540075616812
 30
0.0
  0
VERTEX
  5
2F9
  8
PART_LETTERS
 10
2.227716719642626
 20
18.26816512149576
 30
0.0
  0
VERTEX
  5
2FA
  8
PART_LETTERS
 10
2.250850481926262
 20
18.27050419984991
 30
0.0
  0
VERTEX
  5
2FB
  8
PART_LETTERS
 10
2.274705382991022
 20
18.27241799123058
 30
0.0
  0
VERTEX
  5
2FC
  8
PART_LETTERS
 10
2.299281422836904
 20
18.27390649563777
 30
0.0
  0
VERTEX
  5
2FD
  8
PART_LETTERS
 10
2.324578601463908
 20
18.27496971307147
 30
0.0
  0
VERTEX
  5
2FE
  8
PART_LETTERS
 10
2.350596918872033
 20
18.2756076435317
 30
0.0
  0
VERTEX
  5
2FF
  8
PART_LETTERS
 10
2.377336375061281
 20
18.27582028701844
 30
0.0
  0
VERTEX
  5
300
  8
PART_LETTERS
 10
2.410096415536
 20
18.27543383059471
 30
0.0
  0
VERTEX
  5
301
  8
PART_LETTERS
 10
2.441869050602721
 20
18.27427446132352
 30
0.0
  0
VERTEX
  5
302
  8
PART_LETTERS
 10
2.472654280261443
 20
18.27234217920488
 30
0.0
  0
VERTEX
  5
303
  8
PART_LETTERS
 10
2.502452104512168
 20
18.26963698423877
 30
0.0
  0
VERTEX
  5
304
  8
PART_LETTERS
 10
2.531262523354895
 20
18.26615887642521
 30
0.0
  0
VERTEX
  5
305
  8
PART_LETTERS
 10
2.559085536789624
 20
18.26190785576418
 30
0.0
  0
VERTEX
  5
306
  8
PART_LETTERS
 10
2.585921144816355
 20
18.2568839222557
 30
0.0
  0
VERTEX
  5
307
  8
PART_LETTERS
 10
2.611769347435088
 20
18.25108707589975
 30
0.0
  0
VERTEX
  5
308
  8
PART_LETTERS
 10
2.636630144645823
 20
18.24451731669635
 30
0.0
  0
VERTEX
  5
309
  8
PART_LETTERS
 10
2.66050353644856
 20
18.23717464464548
 30
0.0
  0
VERTEX
  5
30A
  8
PART_LETTERS
 10
2.683389522843299
 20
18.22905905974716
 30
0.0
  0
VERTEX
  5
30B
  8
PART_LETTERS
 10
2.70528810383004
 20
18.22017056200139
 30
0.0
  0
VERTEX
  5
30C
  8
PART_LETTERS
 10
2.726199279408783
 20
18.21050915140815
 30
0.0
  0
VERTEX
  5
30D
  8
PART_LETTERS
 10
2.746123049579528
 20
18.20007482796745
 30
0.0
  0
VERTEX
  5
30E
  8
PART_LETTERS
 10
2.765059414342276
 20
18.1888675916793
 30
0.0
  0
VERTEX
  5
30F
  8
PART_LETTERS
 10
2.783008373697025
 20
18.17688744254368
 30
0.0
  0
VERTEX
  5
310
  8
PART_LETTERS
 10
2.791625519862984
 20
18.17058995945699
 30
0.0
  0
VERTEX
  5
311
  8
PART_LETTERS
 10
2.800021701710113
 20
18.16406411575628
 30
0.0
  0
VERTEX
  5
312
  8
PART_LETTERS
 10
2.80819691923841
 20
18.15730991144156
 30
0.0
  0
VERTEX
  5
313
  8
PART_LETTERS
 10
2.816151172447877
 20
18.15032734651281
 30
0.0
  0
VERTEX
  5
314
  8
PART_LETTERS
 10
2.823884461338513
 20
18.14311642097004
 30
0.0
  0
VERTEX
  5
315
  8
PART_LETTERS
 10
2.831396785910318
 20
18.13567713481324
 30
0.0
  0
VERTEX
  5
316
  8
PART_LETTERS
 10
2.838688146163291
 20
18.12800948804243
 30
0.0
  0
VERTEX
  5
317
  8
PART_LETTERS
 10
2.845758542097434
 20
18.12011348065759
 30
0.0
  0
VERTEX
  5
318
  8
PART_LETTERS
 10
2.852607973712746
 20
18.11198911265873
 30
0.0
  0
VERTEX
  5
319
  8
PART_LETTERS
 10
2.859236441009227
 20
18.10363638404585
 30
0.0
  0
VERTEX
  5
31A
  8
PART_LETTERS
 10
2.865643943986876
 20
18.09505529481895
 30
0.0
  0
VERTEX
  5
31B
  8
PART_LETTERS
 10
2.871830482645695
 20
18.08624584497802
 30
0.0
  0
VERTEX
  5
31C
  8
PART_LETTERS
 10
2.877796056985682
 20
18.07720803452307
 30
0.0
  0
VERTEX
  5
31D
  8
PART_LETTERS
 10
2.883540667006839
 20
18.0679418634541
 30
0.0
  0
VERTEX
  5
31E
  8
PART_LETTERS
 10
2.889064312709165
 20
18.05844733177111
 30
0.0
  0
VERTEX
  5
31F
  8
PART_LETTERS
 10
2.894366994092659
 20
18.0487244394741
 30
0.0
  0
VERTEX
  5
320
  8
PART_LETTERS
 10
2.904309463903155
 20
18.02859357303801
 30
0.0
  0
VERTEX
  5
321
  8
PART_LETTERS
 10
2.913368076438328
 20
18.00754926414583
 30
0.0
  0
VERTEX
  5
322
  8
PART_LETTERS
 10
2.921542831698176
 20
17.98559151279755
 30
0.0
  0
VERTEX
  5
323
  8
PART_LETTERS
 10
2.9288337296827
 20
17.9627203189932
 30
0.0
  0
VERTEX
  5
324
  8
PART_LETTERS
 10
2.9352407703919
 20
17.93893568273276
 30
0.0
  0
VERTEX
  5
325
  8
PART_LETTERS
 10
2.940763953825777
 20
17.91423760401623
 30
0.0
  0
VERTEX
  5
326
  8
PART_LETTERS
 10
2.945403279984329
 20
17.8886260828436
 30
0.0
  0
VERTEX
  5
327
  8
PART_LETTERS
 10
2.949158748867557
 20
17.86210111921489
 30
0.0
  0
VERTEX
  5
328
  8
PART_LETTERS
 10
2.544906838908485
 20
17.83843297460371
 30
0.0
  0
VERTEX
  5
329
  8
PART_LETTERS
 10
2.542756366081702
 20
17.84994900621609
 30
0.0
  0
VERTEX
  5
32A
  8
PART_LETTERS
 10
2.540328532185258
 20
17.86106563788815
 30
0.0
  0
VERTEX
  5
32B
  8
PART_LETTERS
 10
2.537623337219151
 20
17.8717828696199
 30
0.0
  0
VERTEX
  5
32C
  8
PART_LETTERS
 10
2.534640781183382
 20
17.88210070141135
 30
0.0
  0
VERTEX
  5
32D
  8
PART_LETTERS
 10
2.531380864077951
 20
17.89201913326247
 30
0.0
  0
VERTEX
  5
32E
  8
PART_LETTERS
 10
2.527843585902857
 20
17.90153816517329
 30
0.0
  0
VERTEX
  5
32F
  8
PART_LETTERS
 10
2.524028946658101
 20
17.91065779714378
 30
0.0
  0
VERTEX
  5
330
  8
PART_LETTERS
 10
2.519936946343682
 20
17.91937802917396
 30
0.0
  0
VERTEX
  5
331
  8
PART_LETTERS
 10
2.515567584959601
 20
17.92769886126383
 30
0.0
  0
VERTEX
  5
332
  8
PART_LETTERS
 10
2.510920862505858
 20
17.93562029341339
 30
0.0
  0
VERTEX
  5
333
  8
PART_LETTERS
 10
2.505996778982452
 20
17.94314232562263
 30
0.0
  0
VERTEX
  5
334
  8
PART_LETTERS
 10
2.500795334389385
 20
17.95026495789156
 30
0.0
  0
VERTEX
  5
335
  8
PART_LETTERS
 10
2.495316528726654
 20
17.95698819022018
 30
0.0
  0
VERTEX
  5
336
  8
PART_LETTERS
 10
2.489560361994262
 20
17.96331202260848
 30
0.0
  0
VERTEX
  5
337
  8
PART_LETTERS
 10
2.483526834192207
 20
17.96923645505647
 30
0.0
  0
VERTEX
  5
338
  8
PART_LETTERS
 10
2.47721594532049
 20
17.97476148756414
 30
0.0
  0
VERTEX
  5
339
  8
PART_LETTERS
 10
2.470612902788728
 20
17.97992040345986
 30
0.0
  0
VERTEX
  5
33A
  8
PART_LETTERS
 10
2.463702914006541
 20
17.98474648607198
 30
0.0
  0
VERTEX
  5
33B
  8
PART_LETTERS
 10
2.456485978973926
 20
17.98923973540051
 30
0.0
  0
VERTEX
  5
33C
  8
PART_LETTERS
 10
2.448962097690885
 20
17.99340015144545
 30
0.0
  0
VERTEX
  5
33D
  8
PART_LETTERS
 10
2.441131270157418
 20
17.99722773420679
 30
0.0
  0
VERTEX
  5
33E
  8
PART_LETTERS
 10
2.432993496373525
 20
18.00072248368454
 30
0.0
  0
VERTEX
  5
33F
  8
PART_LETTERS
 10
2.424548776339206
 20
18.00388439987869
 30
0.0
  0
VERTEX
  5
340
  8
PART_LETTERS
 10
2.41579711005446
 20
18.00671348278924
 30
0.0
  0
VERTEX
  5
341
  8
PART_LETTERS
 10
2.406738497519288
 20
18.00920973241621
 30
0.0
  0
VERTEX
  5
342
  8
PART_LETTERS
 10
2.397372938733689
 20
18.01137314875957
 30
0.0
  0
VERTEX
  5
343
  8
PART_LETTERS
 10
2.387700433697664
 20
18.01320373181934
 30
0.0
  0
VERTEX
  5
344
  8
PART_LETTERS
 10
2.377720982411213
 20
18.01470148159552
 30
0.0
  0
VERTEX
  5
345
  8
PART_LETTERS
 10
2.367434584874335
 20
18.0158663980881
 30
0.0
  0
VERTEX
  5
346
  8
PART_LETTERS
 10
2.356841241087031
 20
18.01669848129709
 30
0.0
  0
VERTEX
  5
347
  8
PART_LETTERS
 10
2.345940951049301
 20
18.01719773122248
 30
0.0
  0
VERTEX
  5
348
  8
PART_LETTERS
 10
2.334733714761145
 20
18.01736414786428
 30
0.0
  0
VERTEX
  5
349
  8
PART_LETTERS
 10
2.316612791543205
 20
18.01686859608648
 30
0.0
  0
VERTEX
  5
34A
  8
PART_LETTERS
 10
2.29964569037506
 20
18.01538194075309
 30
0.0
  0
VERTEX
  5
34B
  8
PART_LETTERS
 10
2.283832411256711
 20
18.01290418186411
 30
0.0
  0
VERTEX
  5
34C
  8
PART_LETTERS
 10
2.27635845496621
 20
18.01129363858627
 30
0.0
  0
VERTEX
  5
34D
  8
PART_LETTERS
 10
2.269172954188157
 20
18.00943531941953
 30
0.0
  0
VERTEX
  5
34E
  8
PART_LETTERS
 10
2.262275908922553
 20
18.00732922436389
 30
0.0
  0
VERTEX
  5
34F
  8
PART_LETTERS
 10
2.255667319169399
 20
18.00497535341936
 30
0.0
  0
VERTEX
  5
350
  8
PART_LETTERS
 10
2.249347184928693
 20
18.00237370658593
 30
0.0
  0
VERTEX
  5
351
  8
PART_LETTERS
 10
2.243315506200435
 20
17.9995242838636
 30
0.0
  0
VERTEX
  5
352
  8
PART_LETTERS
 10
2.237572282984627
 20
17.99642708525237
 30
0.0
  0
VERTEX
  5
353
  8
PART_LETTERS
 10
2.232117515281268
 20
17.99308211075224
 30
0.0
  0
VERTEX
  5
354
  8
PART_LETTERS
 10
2.226951203090357
 20
17.98948936036322
 30
0.0
  0
VERTEX
  5
355
  8
PART_LETTERS
 10
2.222073346411895
 20
17.98564883408529
 30
0.0
  0
VERTEX
  5
356
  8
PART_LETTERS
 10
2.2131977921827
 20
17.97750551308
 30
0.0
  0
VERTEX
  5
357
  8
PART_LETTERS
 10
2.205505645184064
 20
17.96893320695364
 30
0.0
  0
VERTEX
  5
358
  8
PART_LETTERS
 10
2.202103349396206
 20
17.96448618447005
 30
0.0
  0
VERTEX
  5
359
  8
PART_LETTERS
 10
2.198996905415988
 20
17.95993191570619
 30
0.0
  0
VERTEX
  5
35A
  8
PART_LETTERS
 10
2.196186313243409
 20
17.95527040066207
 30
0.0
  0
VERTEX
  5
35B
  8
PART_LETTERS
 10
2.193671572878471
 20
17.95050163933768
 30
0.0
  0
VERTEX
  5
35C
  8
PART_LETTERS
 10
2.191452684321172
 20
17.94562563173302
 30
0.0
  0
VERTEX
  5
35D
  8
PART_LETTERS
 10
2.189529647571513
 20
17.94064237784808
 30
0.0
  0
VERTEX
  5
35E
  8
PART_LETTERS
 10
2.187902462629494
 20
17.93555187768288
 30
0.0
  0
VERTEX
  5
35F
  8
PART_LETTERS
 10
2.186571129495115
 20
17.9303541312374
 30
0.0
  0
VERTEX
  5
360
  8
PART_LETTERS
 10
2.185535648168376
 20
17.92504913851166
 30
0.0
  0
VERTEX
  5
361
  8
PART_LETTERS
 10
2.184796018649276
 20
17.91963689950565
 30
0.0
  0
VERTEX
  5
362
  8
PART_LETTERS
 10
2.184352240937816
 20
17.91411741421937
 30
0.0
  0
VERTEX
  5
363
  8
PART_LETTERS
 10
2.184204315033996
 20
17.90849068265282
 30
0.0
  0
VERTEX
  5
364
  8
PART_LETTERS
 10
2.184692470516602
 20
17.90031038017158
 30
0.0
  0
VERTEX
  5
365
  8
PART_LETTERS
 10
2.186156936964419
 20
17.89233717395568
 30
0.0
  0
VERTEX
  5
366
  8
PART_LETTERS
 10
2.188597714377448
 20
17.88457106400514
 30
0.0
  0
VERTEX
  5
367
  8
PART_LETTERS
 10
2.192014802755688
 20
17.87701205031994
 30
0.0
  0
VERTEX
  5
368
  8
PART_LETTERS
 10
2.19640820209914
 20
17.86966013290009
 30
0.0
  0
VERTEX
  5
369
  8
PART_LETTERS
 10
2.201777912407803
 20
17.86251531174559
 30
0.0
  0
VERTEX
  5
36A
  8
PART_LETTERS
 10
2.208123933681677
 20
17.85557758685643
 30
0.0
  0
VERTEX
  5
36B
  8
PART_LETTERS
 10
2.215446265920763
 20
17.84884695823263
 30
0.0
  0
VERTEX
  5
36C
  8
PART_LETTERS
 10
2.219558606046956
 20
17.84542986985439
 30
0.0
  0
VERTEX
  5
36D
  8
PART_LETTERS
 10
2.224321820149958
 20
17.84204236665691
 30
0.0
  0
VERTEX
  5
36E
  8
PART_LETTERS
 10
2.229735908229767
 20
17.8386844486402
 30
0.0
  0
VERTEX
  5
36F
  8
PART_LETTERS
 10
2.235800870286384
 20
17.83535611580425
 30
0.0
  0
VERTEX
  5
370
  8
PART_LETTERS
 10
2.242516706319807
 20
17.83205736814907
 30
0.0
  0
VERTEX
  5
371
  8
PART_LETTERS
 10
2.249883416330039
 20
17.82878820567465
 30
0.0
  0
VERTEX
  5
372
  8
PART_LETTERS
 10
2.266569458280927
 20
17.8223386362681
 30
0.0
  0
VERTEX
  5
373
  8
PART_LETTERS
 10
2.285858996139043
 20
17.81600740758461
 30
0.0
  0
VERTEX
  5
374
  8
PART_LETTERS
 10
2.307752029904392
 20
17.80979451962417
 30
0.0
  0
VERTEX
  5
375
  8
PART_LETTERS
 10
2.33224855957697
 20
17.80369997238679
 30
0.0
  0
VERTEX
  5
376
  8
PART_LETTERS
 10
2.359348585156779
 20
17.79772376587247
 30
0.0
  0
VERTEX
  5
377
  8
PART_LETTERS
 10
2.427150423172638
 20
17.78255396443573
 30
0.0
  0
VERTEX
  5
378
  8
PART_LETTERS
 10
2.459181928571044
 20
17.77495242205319
 30
0.0
  0
VERTEX
  5
379
  8
PART_LETTERS
 10
2.489967158229767
 20
17.76733978522785
 30
0.0
  0
VERTEX
  5
37A
  8
PART_LETTERS
 10
2.519506112148807
 20
17.75971605395974
 30
0.0
  0
VERTEX
  5
37B
  8
PART_LETTERS
 10
2.547798790328164
 20
17.75208122824883
 30
0.0
  0
VERTEX
  5
37C
  8
PART_LETTERS
 10
2.574845192767838
 20
17.74443530809514
 30
0.0
  0
VERTEX
  5
37D
  8
PART_LETTERS
 10
2.60064531946783
 20
17.73677829349866
 30
0.0
  0
VERTEX
  5
37E
  8
PART_LETTERS
 10
2.625199170428138
 20
17.72911018445939
 30
0.0
  0
VERTEX
  5
37F
  8
PART_LETTERS
 10
2.648506745648764
 20
17.72143098097735
 30
0.0
  0
VERTEX
  5
380
  8
PART_LETTERS
 10
2.670568045129707
 20
17.71374068305251
 30
0.0
  0
VERTEX
  5
381
  8
PART_LETTERS
 10
2.691383068870968
 20
17.70603929068488
 30
0.0
  0
VERTEX
  5
382
  8
PART_LETTERS
 10
2.710951816872545
 20
17.69832680387447
 30
0.0
  0
VERTEX
  5
383
  8
PART_LETTERS
 10
2.72927428913444
 20
17.69060322262127
 30
0.0
  0
VERTEX
  5
384
  8
PART_LETTERS
 10
2.746350485656651
 20
17.68286854692529
 30
0.0
  0
VERTEX
  5
385
  8
PART_LETTERS
 10
2.76218040643918
 20
17.67512277678652
 30
0.0
  0
VERTEX
  5
386
  8
PART_LETTERS
 10
2.777128319020183
 20
17.66725496777709
 30
0.0
  0
VERTEX
  5
387
  8
PART_LETTERS
 10
2.791558490937816
 20
17.65915417546915
 30
0.0
  0
VERTEX
  5
388
  8
PART_LETTERS
 10
2.80547092219208
 20
17.6508203998627
 30
0.0
  0
VERTEX
  5
389
  8
PART_LETTERS
 10
2.818865612782973
 20
17.64225364095773
 30
0.0
  0
VERTEX
  5
38A
  8
PART_LETTERS
 10
2.831742562710497
 20
17.63345389875424
 30
0.0
  0
VERTEX
  5
38B
  8
PART_LETTERS
 10
2.844101771974652
 20
17.62442117325224
 30
0.0
  0
VERTEX
  5
38C
  8
PART_LETTERS
 10
2.855943240575435
 20
17.61515546445172
 30
0.0
  0
VERTEX
  5
38D
  8
PART_LETTERS
 10
2.86726696851285
 20
17.60565677235268
 30
0.0
  0
VERTEX
  5
38E
  8
PART_LETTERS
 10
2.878072955786895
 20
17.59592509695513
 30
0.0
  0
VERTEX
  5
38F
  8
PART_LETTERS
 10
2.88836120239757
 20
17.58596043825906
 30
0.0
  0
VERTEX
  5
390
  8
PART_LETTERS
 10
2.898131708344876
 20
17.57576279626447
 30
0.0
  0
VERTEX
  5
391
  8
PART_LETTERS
 10
2.907384473628812
 20
17.56533217097137
 30
0.0
  0
VERTEX
  5
392
  8
PART_LETTERS
 10
2.916119498249378
 20
17.55466856237975
 30
0.0
  0
VERTEX
  5
393
  8
PART_LETTERS
 10
2.924336782206574
 20
17.54377197048962
 30
0.0
  0
VERTEX
  5
394
  8
PART_LETTERS
 10
2.932036325500401
 20
17.53264239530096
 30
0.0
  0
VERTEX
  5
395
  8
PART_LETTERS
 10
2.939218128130858
 20
17.5212798368138
 30
0.0
  0
VERTEX
  5
396
  8
PART_LETTERS
 10
2.945924718795294
 20
17.50971572928268
 30
0.0
  0
VERTEX
  5
397
  8
PART_LETTERS
 10
2.952198626191056
 20
17.49798150696217
 30
0.0
  0
VERTEX
  5
398
  8
PART_LETTERS
 10
2.958039850318145
 20
17.48607716985226
 30
0.0
  0
VERTEX
  5
399
  8
PART_LETTERS
 10
2.963448391176561
 20
17.47400271795296
 30
0.0
  0
VERTEX
  5
39A
  8
PART_LETTERS
 10
2.968424248766303
 20
17.46175815126426
 30
0.0
  0
VERTEX
  5
39B
  8
PART_LETTERS
 10
2.972967423087373
 20
17.44934346978618
 30
0.0
  0
VERTEX
  5
39C
  8
PART_LETTERS
 10
2.977077914139769
 20
17.4367586735187
 30
0.0
  0
VERTEX
  5
39D
  8
PART_LETTERS
 10
2.980755721923491
 20
17.42400376246182
 30
0.0
  0
VERTEX
  5
39E
  8
PART_LETTERS
 10
2.984000846438541
 20
17.41107873661556
 30
0.0
  0
VERTEX
  5
39F
  8
PART_LETTERS
 10
2.986813287684917
 20
17.3979835959799
 30
0.0
  0
VERTEX
  5
3A0
  8
PART_LETTERS
 10
2.98919304566262
 20
17.38471834055485
 30
0.0
  0
VERTEX
  5
3A1
  8
PART_LETTERS
 10
2.99114012037165
 20
17.3712829703404
 30
0.0
  0
VERTEX
  5
3A2
  8
PART_LETTERS
 10
2.992654511812006
 20
17.35767748533657
 30
0.0
  0
VERTEX
  5
3A3
  8
PART_LETTERS
 10
2.993736219983689
 20
17.34390188554334
 30
0.0
  0
VERTEX
  5
3A4
  8
PART_LETTERS
 10
2.994385244886699
 20
17.32995617096071
 30
0.0
  0
VERTEX
  5
3A5
  8
PART_LETTERS
 10
2.994601586521036
 20
17.3158403415887
 30
0.0
  0
VERTEX
  5
3A6
  8
PART_LETTERS
 10
2.994313131008587
 20
17.29923565888491
 30
0.0
  0
VERTEX
  5
3A7
  8
PART_LETTERS
 10
2.99344776447124
 20
17.28279369467533
 30
0.0
  0
VERTEX
  5
3A8
  8
PART_LETTERS
 10
2.992005486908996
 20
17.26651444895995
 30
0.0
  0
VERTEX
  5
3A9
  8
PART_LETTERS
 10
2.989986298321854
 20
17.25039792173877
 30
0.0
  0
VERTEX
  5
3AA
  8
PART_LETTERS
 10
2.987390198709814
 20
17.23444411301179
 30
0.0
  0
VERTEX
  5
3AB
  8
PART_LETTERS
 10
2.984217188072877
 20
17.21865302277901
 30
0.0
  0
VERTEX
  5
3AC
  8
PART_LETTERS
 10
2.980467266411043
 20
17.20302465104044
 30
0.0
  0
VERTEX
  5
3AD
  8
PART_LETTERS
 10
2.97614043372431
 20
17.18755899779607
 30
0.0
  0
VERTEX
  5
3AE
  8
PART_LETTERS
 10
2.971236690012679
 20
17.1722560630459
 30
0.0
  0
VERTEX
  5
3AF
  8
PART_LETTERS
 10
2.965756035276152
 20
17.15711584678992
 30
0.0
  0
VERTEX
  5
3B0
  8
PART_LETTERS
 10
2.959698469514726
 20
17.14213834902816
 30
0.0
  0
VERTEX
  5
3B1
  8
PART_LETTERS
 10
2.953063992728402
 20
17.12732356976059
 30
0.0
  0
VERTEX
  5
3B2
  8
PART_LETTERS
 10
2.945852604917181
 20
17.11267150898723
 30
0.0
  0
VERTEX
  5
3B3
  8
PART_LETTERS
 10
2.938064306081063
 20
17.09818216670807
 30
0.0
  0
VERTEX
  5
3B4
  8
PART_LETTERS
 10
2.929699096220046
 20
17.08385554292311
 30
0.0
  0
VERTEX
  5
3B5
  8
PART_LETTERS
 10
2.920756975334132
 20
17.06969163763236
 30
0.0
  0
VERTEX
  5
3B6
  8
PART_LETTERS
 10
2.911297113784848
 20
17.05582173507544
 30
0.0
  0
VERTEX
  5
3B7
  8
PART_LETTERS
 10
2.901378681933723
 20
17.04237711949201
 30
0.0
  0
VERTEX
  5
3B8
  8
PART_LETTERS
 10
2.891001679780755
 20
17.02935779088206
 30
0.0
  0
VERTEX
  5
3B9
  8
PART_LETTERS
 10
2.880166107325947
 20
17.01676374924559
 30
0.0
  0
VERTEX
  5
3BA
  8
PART_LETTERS
 10
2.868871964569296
 20
17.0045949945826
 30
0.0
  0
VERTEX
  5
3BB
  8
PART_LETTERS
 10
2.857119251510804
 20
16.9928515268931
 30
0.0
  0
VERTEX
  5
3BC
  8
PART_LETTERS
 10
2.844907968150469
 20
16.98153334617707
 30
0.0
  0
VERTEX
  5
3BD
  8
PART_LETTERS
 10
2.832238114488294
 20
16.97064045243454
 30
0.0
  0
VERTEX
  5
3BE
  8
PART_LETTERS
 10
2.819109690524276
 20
16.96017284566548
 30
0.0
  0
VERTEX
  5
3BF
  8
PART_LETTERS
 10
2.805522696258417
 20
16.95013052586991
 30
0.0
  0
VERTEX
  5
3C0
  8
PART_LETTERS
 10
2.791477131690715
 20
16.94051349304781
 30
0.0
  0
VERTEX
  5
3C1
  8
PART_LETTERS
 10
2.776972996821172
 20
16.93132174719921
 30
0.0
  0
VERTEX
  5
3C2
  8
PART_LETTERS
 10
2.762010291649787
 20
16.92255528832408
 30
0.0
  0
VERTEX
  5
3C3
  8
PART_LETTERS
 10
2.746589016176561
 20
16.91421411642243
 30
0.0
  0
VERTEX
  5
3C4
  8
PART_LETTERS
 10
2.730709170401493
 20
16.90629823149427
 30
0.0
  0
VERTEX
  5
3C5
  8
PART_LETTERS
 10
2.714370754324583
 20
16.89880763353959
 30
0.0
  0
VERTEX
  5
3C6
  8
PART_LETTERS
 10
2.697533088322281
 20
16.89175711514877
 30
0.0
  0
VERTEX
  5
3C7
  8
PART_LETTERS
 10
2.680155492771036
 20
16.8851614689122
 30
0.0
  0
VERTEX
  5
3C8
  8
PART_LETTERS
 10
2.662237967670849
 20
16.87902069482988
 30
0.0
  0
VERTEX
  5
3C9
  8
PART_LETTERS
 10
2.643780513021718
 20
16.8733347929018
 30
0.0
  0
VERTEX
  5
3CA
  8
PART_LETTERS
 10
2.624783128823645
 20
16.86810376312797
 30
0.0
  0
VERTEX
  5
3CB
  8
PART_LETTERS
 10
2.605245815076629
 20
16.86332760550838
 30
0.0
  0
VERTEX
  5
3CC
  8
PART_LETTERS
 10
2.585168571780671
 20
16.85900632004304
 30
0.0
  0
VERTEX
  5
3CD
  8
PART_LETTERS
 10
2.56455139893577
 20
16.85513990673195
 30
0.0
  0
VERTEX
  5
3CE
  8
PART_LETTERS
 10
2.543394296541926
 20
16.8517283655751
 30
0.0
  0
VERTEX
  5
3CF
  8
PART_LETTERS
 10
2.52169726459914
 20
16.8487716965725
 30
0.0
  0
VERTEX
  5
3D0
  8
PART_LETTERS
 10
2.49946030310741
 20
16.84626989972415
 30
0.0
  0
VERTEX
  5
3D1
  8
PART_LETTERS
 10
2.476683412066738
 20
16.84422297503004
 30
0.0
  0
VERTEX
  5
3D2
  8
PART_LETTERS
 10
2.453366591477123
 20
16.84263092249018
 30
0.0
  0
VERTEX
  5
3D3
  8
PART_LETTERS
 10
2.429509841338566
 20
16.84149374210456
 30
0.0
  0
VERTEX
  5
3D4
  8
PART_LETTERS
 10
2.405113161651066
 20
16.84081143387319
 30
0.0
  0
VERTEX
  5
3D5
  8
PART_LETTERS
 10
2.380176552414623
 20
16.84058399779607
 30
0.0
  0
VERTEX
  5
3D6
  8
PART_LETTERS
 10
2.336767695938669
 20
16.84111653104982
 30
0.0
  0
VERTEX
  5
3D7
  8
PART_LETTERS
 10
2.295059987356642
 20
16.84271413081107
 30
0.0
  0
VERTEX
  5
3D8
  8
PART_LETTERS
 10
2.255053426668546
 20
16.84537679707983
 30
0.0
  0
VERTEX
  5
3D9
  8
PART_LETTERS
 10
2.23568807678472
 20
16.84710753015452
 30
0.0
  0
VERTEX
  5
3DA
  8
PART_LETTERS
 10
2.216748013874378
 20
16.84910452985609
 30
0.0
  0
VERTEX
  5
3DB
  8
PART_LETTERS
 10
2.198233237937518
 20
16.85136779618454
 30
0.0
  0
VERTEX
  5
3DC
  8
PART_LETTERS
 10
2.180143748974139
 20
16.85389732913986
 30
0.0
  0
VERTEX
  5
3DD
  8
PART_LETTERS
 10
2.162479546984243
 20
16.85669312872205
 30
0.0
  0
VERTEX
  5
3DE
  8
PART_LETTERS
 10
2.145240631967829
 20
16.85975519493113
 30
0.0
  0
VERTEX
  5
3DF
  8
PART_LETTERS
 10
2.128427003924898
 20
16.86308352776707
 30
0.0
  0
VERTEX
  5
3E0
  8
PART_LETTERS
 10
2.112038662855448
 20
16.8666781272299
 30
0.0
  0
VERTEX
  5
3E1
  8
PART_LETTERS
 10
2.096075608759482
 20
16.8705389933196
 30
0.0
  0
VERTEX
  5
3E2
  8
PART_LETTERS
 10
2.080537841636997
 20
16.87466612603617
 30
0.0
  0
VERTEX
  5
3E3
  8
PART_LETTERS
 10
2.065425361487994
 20
16.87905952537962
 30
0.0
  0
VERTEX
  5
3E4
  8
PART_LETTERS
 10
2.050738168312475
 20
16.88371919134995
 30
0.0
  0
VERTEX
  5
3E5
  8
PART_LETTERS
 10
2.036476262110437
 20
16.88864512394716
 30
0.0
  0
VERTEX
  5
3E6
  8
PART_LETTERS
 10
2.022639642881881
 20
16.89383732317123
 30
0.0
  0
VERTEX
  5
3E7
  8
PART_LETTERS
 10
2.009228310626808
 20
16.89929578902219
 30
0.0
  0
VERTEX
  5
3E8
  8
PART_LETTERS
 10
1.996242265345217
 20
16.90502052150002
 30
0.0
  0
VERTEX
  5
3E9
  8
PART_LETTERS
 10
1.983681507037109
 20
16.91101152060473
 30
0.0
  0
VERTEX
  5
3EA
  8
PART_LETTERS
 10
1.971546035702482
 20
16.91726878633631
 30
0.0
  0
VERTEX
  5
3EB
  8
PART_LETTERS
 10
1.959835851341338
 20
16.92379231869477
 30
0.0
  0
VERTEX
  5
3EC
  8
PART_LETTERS
 10
1.948550953953676
 20
16.9305821176801
 30
0.0
  0
VERTEX
  5
3ED
  8
PART_LETTERS
 10
1.937691343539496
 20
16.93763818329231
 30
0.0
  0
VERTEX
  5
3EE
  8
PART_LETTERS
 10
1.927257020098798
 20
16.9449605155314
 30
0.0
  0
VERTEX
  5
3EF
  8
PART_LETTERS
 10
1.917247983631583
 20
16.95254911439736
 30
0.0
  0
VERTEX
  5
3F0
  8
PART_LETTERS
 10
1.90766423413785
 20
16.9604039798902
 30
0.0
  0
VERTEX
  5
3F1
  8
PART_LETTERS
 10
1.8985057716176
 20
16.96852511200991
 30
0.0
  0
VERTEX
  5
3F2
  8
PART_LETTERS
 10
1.889772596070831
 20
16.9769125107565
 30
0.0
  0
VERTEX
  5
3F3
  8
PART_LETTERS
 10
1.873193800400214
 20
16.994242030389
 30
0.0
  0
VERTEX
  5
3F4
  8
PART_LETTERS
 10
1.857539541628471
 20
17.01214846104641
 30
0.0
  0
VERTEX
  5
3F5
  8
PART_LETTERS
 10
1.842809819755602
 20
17.03063180272871
 30
0.0
  0
VERTEX
  5
3F6
  8
PART_LETTERS
 10
1.829004634781608
 20
17.0496920554359
 30
0.0
  0
VERTEX
  5
3F7
  8
PART_LETTERS
 10
1.816123986706489
 20
17.069329219168
 30
0.0
  0
VERTEX
  5
3F8
  8
PART_LETTERS
 10
1.804167875530244
 20
17.08954329392499
 30
0.0
  0
VERTEX
  5
3F9
  8
PART_LETTERS
 10
1.793136301252874
 20
17.11033427970688
 30
0.0
  0
VERTEX
  5
3FA
  8
PART_LETTERS
 10
1.783029263874378
 20
17.13170217651366
 30
0.0
  0
VERTEX
  5
3FB
  8
PART_LETTERS
 10
1.773846763394757
 20
17.15364698434535
 30
0.0
  0
VERTEX
  5
3FC
  8
PART_LETTERS
 10
1.76558879981401
 20
17.17616870320193
 30
0.0
  0
VERTEX
  5
3FD
  8
PART_LETTERS
 10
1.758255373132137
 20
17.19926733308341
 30
0.0
  0
VERTEX
  5
3FE
  8
PART_LETTERS
 10
1.751846483349139
 20
17.22294287398979
 30
0.0
  0
VERTEX
  5
3FF
  8
PART_LETTERS
 10
1.746362130465016
 20
17.24719532592107
 30
0.0
  0
VERTEX
  5
400
  8
PART_LETTERS
 10
1.741802314479767
 20
17.27202468887724
 30
0.0
  0
VERTEX
  5
401
  8
PART_LETTERS
 10
1.738167035393392
 20
17.29743096285831
 30
0.0
  0
SEQEND
  5
5F6
  8
PART_LETTERS
  0
POLYLINE
  5
74
  8
PART_LETTERS
 66
     1
 10
0.0
 20
0.0
 30
0.0
 70
     1
  0
VERTEX
  5
402
  8
PART_LETTERS
 10
1.147675688737268
 20
84.43189025588018
 30
0.0
  0
VERTEX
  5
403
  8
PART_LETTERS
 10
1.836284147127446
 20
84.43189025588018
 30
0.0
  0
VERTEX
  5
404
  8
PART_LETTERS
 10
1.861430298432016
 20
84.43165442985145
 30
0.0
  0
VERTEX
  5
405
  8
PART_LETTERS
 10
1.885964932427582
 20
84.43094695176526
 30
0.0
  0
VERTEX
  5
406
  8
PART_LETTERS
 10
1.909888049114144
 20
84.42976782162162
 30
0.0
  0
VERTEX
  5
407
  8
PART_LETTERS
 10
1.933199648491702
 20
84.42811703942051
 30
0.0
  0
VERTEX
  5
408
  8
PART_LETTERS
 10
1.955899730560256
 20
84.42599460516196
 30
0.0
  0
VERTEX
  5
409
  8
PART_LETTERS
 10
1.977988295319806
 20
84.42340051884594
 30
0.0
  0
VERTEX
  5
40A
  8
PART_LETTERS
 10
1.999465342770352
 20
84.42033478047246
 30
0.0
  0
VERTEX
  5
40B
  8
PART_LETTERS
 10
2.020330872911893
 20
84.41679739004151
 30
0.0
  0
VERTEX
  5
40C
  8
PART_LETTERS
 10
2.040584885744431
 20
84.4127883475531
 30
0.0
  0
VERTEX
  5
40D
  8
PART_LETTERS
 10
2.060227381267965
 20
84.40830765300724
 30
0.0
  0
VERTEX
  5
40E
  8
PART_LETTERS
 10
2.079258359482494
 20
84.40335530640392
 30
0.0
  0
VERTEX
  5
40F
  8
PART_LETTERS
 10
2.097677820388019
 20
84.39793130774315
 30
0.0
  0
VERTEX
  5
410
  8
PART_LETTERS
 10
2.11548576398454
 20
84.39203565702492
 30
0.0
  0
VERTEX
  5
411
  8
PART_LETTERS
 10
2.132682190272057
 20
84.38566835424923
 30
0.0
  0
VERTEX
  5
412
  8
PART_LETTERS
 10
2.14926709925057
 20
84.37882939941609
 30
0.0
  0
VERTEX
  5
413
  8
PART_LETTERS
 10
2.165240490920079
 20
84.37151879252546
 30
0.0
  0
VERTEX
  5
414
  8
PART_LETTERS
 10
2.180738258015918
 20
84.36376710361814
 30
0.0
  0
VERTEX
  5
415
  8
PART_LETTERS
 10
2.195896293273421
 20
84.35560490273491
 30
0.0
  0
VERTEX
  5
416
  8
PART_LETTERS
 10
2.210714596692589
 20
84.34703218987572
 30
0.0
  0
VERTEX
  5
417
  8
PART_LETTERS
 10
2.225193168273421
 20
84.33804896504061
 30
0.0
  0
VERTEX
  5
418
  8
PART_LETTERS
 10
2.239332008015918
 20
84.32865522822956
 30
0.0
  0
VERTEX
  5
419
  8
PART_LETTERS
 10
2.253131115920079
 20
84.31885097944257
 30
0.0
  0
VERTEX
  5
41A
  8
PART_LETTERS
 10
2.266590491985904
 20
84.30863621867965
 30
0.0
  0
VERTEX
  5
41B
  8
PART_LETTERS
 10
2.279710136213394
 20
84.29801094594079
 30
0.0
  0
VERTEX
  5
41C
  8
PART_LETTERS
 10
2.292490048602548
 20
84.286975161226
 30
0.0
  0
VERTEX
  5
41D
  8
PART_LETTERS
 10
2.304930229153366
 20
84.27552886453526
 30
0.0
  0
VERTEX
  5
41E
  8
PART_LETTERS
 10
2.31703067786585
 20
84.26367205586857
 30
0.0
  0
VERTEX
  5
41F
  8
PART_LETTERS
 10
2.328791394739997
 20
84.25140473522598
 30
0.0
  0
VERTEX
  5
420
  8
PART_LETTERS
 10
2.340212379775808
 20
84.23872690260743
 30
0.0
  0
VERTEX
  5
421
  8
PART_LETTERS
 10
2.351293632973284
 20
84.22563855801295
 30
0.0
  0
VERTEX
  5
422
  8
PART_LETTERS
 10
2.362035154332425
 20
84.21213970144252
 30
0.0
  0
VERTEX
  5
423
  8
PART_LETTERS
 10
2.37243694385323
 20
84.19823033289619
 30
0.0
  0
VERTEX
  5
424
  8
PART_LETTERS
 10
2.382493006267965
 20
84.18397159245542
 30
0.0
  0
VERTEX
  5
425
  8
PART_LETTERS
 10
2.392197346308893
 20
84.16942462020175
 30
0.0
  0
VERTEX
  5
426
  8
PART_LETTERS
 10
2.401549963976014
 20
84.15458941613521
 30
0.0
  0
VERTEX
  5
427
  8
PART_LETTERS
 10
2.410550859269329
 20
84.13946598025576
 30
0.0
  0
VERTEX
  5
428
  8
PART_LETTERS
 10
2.419200032188837
 20
84.12405431256343
 30
0.0
  0
VERTEX
  5
429
  8
PART_LETTERS
 10
2.42749748273454
 20
84.10835441305821
 30
0.0
  0
VERTEX
  5
42A
  8
PART_LETTERS
 10
2.435443210906436
 20
84.0923662817401
 30
0.0
  0
VERTEX
  5
42B
  8
PART_LETTERS
 10
2.443037216704526
 20
84.07608991860909
 30
0.0
  0
VERTEX
  5
42C
  8
PART_LETTERS
 10
2.45027950012881
 20
84.0595253236652
 30
0.0
  0
VERTEX
  5
42D
  8
PART_LETTERS
 10
2.457170061179288
 20
84.04267249690841
 30
0.0
  0
VERTEX
  5
42E
  8
PART_LETTERS
 10
2.463708899855959
 20
84.02553143833873
 30
0.0
  0
VERTEX
  5
42F
  8
PART_LETTERS
 10
2.469896016158824
 20
84.00810214795615
 30
0.0
  0
VERTEX
  5
430
  8
PART_LETTERS
 10
2.475731410087882
 20
83.9903846257607
 30
0.0
  0
VERTEX
  5
431
  8
PART_LETTERS
 10
2.481215081643135
 20
83.97237887175234
 30
0.0
  0
VERTEX
  5
432
  8
PART_LETTERS
 10
2.486347030824581
 20
83.9540848859311
 30
0.0
  0
VERTEX
  5
433
  8
PART_LETTERS
 10
2.491127257632221
 20
83.93550266829696
 30
0.0
  0
VERTEX
  5
434
  8
PART_LETTERS
 10
2.495587736827309
 20
83.9167064603775
 30
0.0
  0
VERTEX
  5
435
  8
PART_LETTERS
 10
2.499760443171102
 20
83.89777050370026
 30
0.0
  0
VERTEX
  5
436
  8
PART_LETTERS
 10
2.503645376663598
 20
83.87869479826526
 30
0.0
  0
VERTEX
  5
437
  8
PART_LETTERS
 10
2.507242537304799
 20
83.8594793440725
 30
0.0
  0
VERTEX
  5
438
  8
PART_LETTERS
 10
2.510551925094703
 20
83.84012414112198
 30
0.0
  0
VERTEX
  5
439
  8
PART_LETTERS
 10
2.513573540033311
 20
83.82062918941368
 30
0.0
  0
VERTEX
  5
43A
  8
PART_LETTERS
 10
2.516307382120624
 20
83.80099448894762
 30
0.0
  0
VERTEX
  5
43B
  8
PART_LETTERS
 10
2.518753451356641
 20
83.78122003972379
 30
0.0
  0
VERTEX
  5
43C
  8
PART_LETTERS
 10
2.520911747741361
 20
83.7613058417422
 30
0.0
  0
VERTEX
  5
43D
  8
PART_LETTERS
 10
2.522782271274785
 20
83.74125189500285
 30
0.0
  0
VERTEX
  5
43E
  8
PART_LETTERS
 10
2.525659999787746
 20
83.70072475525083
 30
0.0
  0
VERTEX
  5
43F
  8
PART_LETTERS
 10
2.527386636895522
 20
83.65963862046777
 30
0.0
  0
VERTEX
  5
440
  8
PART_LETTERS
 10
2.527962182598114
 20
83.61799349065363
 30
0.0
  0
VERTEX
  5
441
  8
PART_LETTERS
 10
2.52774835138222
 20
83.58561326676448
 30
0.0
  0
VERTEX
  5
442
  8
PART_LETTERS
 10
2.52710685773454
 20
83.55415451124686
 30
0.0
  0
VERTEX
  5
443
  8
PART_LETTERS
 10
2.526037701655071
 20
83.52361722410075
 30
0.0
  0
VERTEX
  5
444
  8
PART_LETTERS
 10
2.524540883143817
 20
83.49400140532615
 30
0.0
  0
VERTEX
  5
445
  8
PART_LETTERS
 10
2.522616402200774
 20
83.46530705492307
 30
0.0
  0
VERTEX
  5
446
  8
PART_LETTERS
 10
2.520264258825945
 20
83.4375341728915
 30
0.0
  0
VERTEX
  5
447
  8
PART_LETTERS
 10
2.517484453019328
 20
83.41068275923146
 30
0.0
  0
VERTEX
  5
448
  8
PART_LETTERS
 10
2.514276984780925
 20
83.38475281394292
 30
0.0
  0
VERTEX
  5
449
  8
PART_LETTERS
 10
2.510641854110733
 20
83.35974433702592
 30
0.0
  0
VERTEX
  5
44A
  8
PART_LETTERS
 10
2.506579061008755
 20
83.33565732848041
 30
0.0
  0
VERTEX
  5
44B
  8
PART_LETTERS
 10
2.50208860547499
 20
83.31249178830643
 30
0.0
  0
VERTEX
  5
44C
  8
PART_LETTERS
 10
2.497170487509437
 20
83.29024771650398
 30
0.0
  0
VERTEX
  5
44D
  8
PART_LETTERS
 10
2.491824707112097
 20
83.26892511307304
 30
0.0
  0
VERTEX
  5
44E
  8
PART_LETTERS
 10
2.486051264282971
 20
83.2485239780136
 30
0.0
  0
VERTEX
  5
44F
  8
PART_LETTERS
 10
2.479850159022057
 20
83.22904431132568
 30
0.0
  0
VERTEX
  5
450
  8
PART_LETTERS
 10
2.473221391329356
 20
83.2104861130093
 30
0.0
  0
VERTEX
  5
451
  8
PART_LETTERS
 10
2.466212923346749
 20
83.19257206912323
 30
0.0
  0
VERTEX
  5
452
  8
PART_LETTERS
 10
2.458872717216122
 20
83.17502486572629
 30
0.0
  0
VERTEX
  5
453
  8
PART_LETTERS
 10
2.451200772937473
 20
83.15784450281849
 30
0.0
  0
VERTEX
  5
454
  8
PART_LETTERS
 10
2.443197090510802
 20
83.14103098039982
 30
0.0
  0
VERTEX
  5
455
  8
PART_LETTERS
 10
2.434861669936109
 20
83.1245842984703
 30
0.0
  0
VERTEX
  5
456
  8
PART_LETTERS
 10
2.426194511213394
 20
83.10850445702988
 30
0.0
  0
VERTEX
  5
457
  8
PART_LETTERS
 10
2.417195614342657
 20
83.09279145607863
 30
0.0
  0
VERTEX
  5
458
  8
PART_LETTERS
 10
2.407864979323898
 20
83.0774452956165
 30
0.0
  0
VERTEX
  5
459
  8
PART_LETTERS
 10
2.398202606157118
 20
83.0624659756435
 30
0.0
  0
VERTEX
  5
45A
  8
PART_LETTERS
 10
2.388208494842316
 20
83.04785349615963
 30
0.0
  0
VERTEX
  5
45B
  8
PART_LETTERS
 10
2.377882645379492
 20
83.03360785716492
 30
0.0
  0
VERTEX
  5
45C
  8
PART_LETTERS
 10
2.367225057768646
 20
83.01972905865932
 30
0.0
  0
VERTEX
  5
45D
  8
PART_LETTERS
 10
2.356235732009778
 20
83.00621710064286
 30
0.0
  0
VERTEX
  5
45E
  8
PART_LETTERS
 10
2.344914668102889
 20
82.99307198311553
 30
0.0
  0
VERTEX
  5
45F
  8
PART_LETTERS
 10
2.333261866047978
 20
82.98029370607736
 30
0.0
  0
VERTEX
  5
460
  8
PART_LETTERS
 10
2.321277325845045
 20
82.9678822695283
 30
0.0
  0
VERTEX
  5
461
  8
PART_LETTERS
 10
2.309070960735904
 20
82.95590973142161
 30
0.0
  0
VERTEX
  5
462
  8
PART_LETTERS
 10
2.296752683962371
 20
82.9444481497105
 30
0.0
  0
VERTEX
  5
463
  8
PART_LETTERS
 10
2.284322495524445
 20
82.93349752439497
 30
0.0
  0
VERTEX
  5
464
  8
PART_LETTERS
 10
2.271780395422125
 20
82.92305785547501
 30
0.0
  0
VERTEX
  5
465
  8
PART_LETTERS
 10
2.259126383655413
 20
82.91312914295064
 30
0.0
  0
VERTEX
  5
466
  8
PART_LETTERS
 10
2.246360460224308
 20
82.90371138682184
 30
0.0
  0
VERTEX
  5
467
  8
PART_LETTERS
 10
2.23348262512881
 20
82.89480458708863
 30
0.0
  0
VERTEX
  5
468
  8
PART_LETTERS
 10
2.220492878368919
 20
82.88640874375099
 30
0.0
  0
VERTEX
  5
469
  8
PART_LETTERS
 10
2.207391219944635
 20
82.87852385680894
 30
0.0
  0
VERTEX
  5
46A
  8
PART_LETTERS
 10
2.194177649855959
 20
82.87114992626246
 30
0.0
  0
VERTEX
  5
46B
  8
PART_LETTERS
 10
2.180852168102889
 20
82.86428695211158
 30
0.0
  0
VERTEX
  5
46C
  8
PART_LETTERS
 10
2.167414774685427
 20
82.85793493435628
 30
0.0
  0
VERTEX
  5
46D
  8
PART_LETTERS
 10
2.153865469603571
 20
82.85209387299655
 30
0.0
  0
VERTEX
  5
46E
  8
PART_LETTERS
 10
2.140204252857323
 20
82.84676376803239
 30
0.0
  0
VERTEX
  5
46F
  8
PART_LETTERS
 10
2.126431124446682
 20
82.84194461946382
 30
0.0
  0
VERTEX
  5
470
  8
PART_LETTERS
 10
2.112546084371648
 20
82.83763642729082
 30
0.0
  0
VERTEX
  5
471
  8
PART_LETTERS
 10
2.074879815613121
 20
82.82715527045838
 30
0.0
  0
VERTEX
  5
472
  8
PART_LETTERS
 10
2.038108840169738
 20
82.81807160120363
 30
0.0
  0
VERTEX
  5
473
  8
PART_LETTERS
 10
2.002233158041498
 20
82.81038541952651
 30
0.0
  0
VERTEX
  5
474
  8
PART_LETTERS
 10
1.984631051970556
 20
82.80706638652958
 30
0.0
  0
VERTEX
  5
475
  8
PART_LETTERS
 10
1.967252769228401
 20
82.80409672542709
 30
0.0
  0
VERTEX
  5
476
  8
PART_LETTERS
 10
1.950098309815031
 20
82.80147643621896
 30
0.0
  0
VERTEX
  5
477
  8
PART_LETTERS
 10
1.933167673730447
 20
82.79920551890527
 30
0.0
  0
VERTEX
  5
478
  8
PART_LETTERS
 10
1.916460860974649
 20
82.797283973486
 30
0.0
  0
VERTEX
  5
479
  8
PART_LETTERS
 10
1.899977871547637
 20
82.79571179996114
 30
0.0
  0
VERTEX
  5
47A
  8
PART_LETTERS
 10
1.88371870544941
 20
82.79448899833069
 30
0.0
  0
VERTEX
  5
47B
  8
PART_LETTERS
 10
1.86768336267997
 20
82.79361556859466
 30
0.0
  0
VERTEX
  5
47C
  8
PART_LETTERS
 10
1.851871843239315
 20
82.79309151075304
 30
0.0
  0
VERTEX
  5
47D
  8
PART_LETTERS
 10
1.836284147127446
 20
82.79291682480584
 30
0.0
  0
VERTEX
  5
47E
  8
PART_LETTERS
 10
1.147675688737268
 20
82.79291682480584
 30
0.0
  0
SEQEND
  5
5F7
  8
PART_LETTERS
  0
POLYLINE
  5
75
  8
PART_LETTERS
 66
     1
 10
0.0
 20
0.0
 30
0.0
 70
     1
  0
VERTEX
  5
47F
  8
PART_LETTERS
 10
1.611181827891429
 20
84.06071755525488
 30
0.0
  0
VERTEX
  5
480
  8
PART_LETTERS
 10
1.611181827891429
 20
83.16520751549326
 30
0.0
  0
VERTEX
  5
481
  8
PART_LETTERS
 10
1.724756179869601
 20
83.16520751549326
 30
0.0
  0
VERTEX
  5
482
  8
PART_LETTERS
 10
1.759768543443953
 20
83.16575777622697
 30
0.0
  0
VERTEX
  5
483
  8
PART_LETTERS
 10
1.776291501322535
 20
83.16644560214408
 30
0.0
  0
VERTEX
  5
484
  8
PART_LETTERS
 10
1.792158976595386
 20
83.16740855842806
 30
0.0
  0
VERTEX
  5
485
  8
PART_LETTERS
 10
1.807370969262507
 20
83.1686466450789
 30
0.0
  0
VERTEX
  5
486
  8
PART_LETTERS
 10
1.821927479323899
 20
83.17015986209658
 30
0.0
  0
VERTEX
  5
487
  8
PART_LETTERS
 10
1.83582850677956
 20
83.17194820948112
 30
0.0
  0
VERTEX
  5
488
  8
PART_LETTERS
 10
1.849074051629492
 20
83.1740116872325
 30
0.0
  0
VERTEX
  5
489
  8
PART_LETTERS
 10
1.861664113873694
 20
83.17635029535072
 30
0.0
  0
VERTEX
  5
48A
  8
PART_LETTERS
 10
1.873598693512166
 20
83.17896403383581
 30
0.0
  0
VERTEX
  5
48B
  8
PART_LETTERS
 10
1.884877790544908
 20
83.18185290268775
 30
0.0
  0
VERTEX
  5
48C
  8
PART_LETTERS
 10
1.895501404971921
 20
83.18501690190654
 30
0.0
  0
VERTEX
  5
48D
  8
PART_LETTERS
 10
1.905469536793203
 20
83.18845603149217
 30
0.0
  0
VERTEX
  5
48E
  8
PART_LETTERS
 10
1.914782186008755
 20
83.19217029144465
 30
0.0
  0
VERTEX
  5
48F
  8
PART_LETTERS
 10
1.923439352618578
 20
83.19615968176399
 30
0.0
  0
VERTEX
  5
490
  8
PART_LETTERS
 10
1.931441036622671
 20
83.20042420245018
 30
0.0
  0
VERTEX
  5
491
  8
PART_LETTERS
 10
1.93901106134982
 20
83.20503154430776
 30
0.0
  0
VERTEX
  5
492
  8
PART_LETTERS
 10
1.94637325012881
 20
83.21004939814128
 30
0.0
  0
VERTEX
  5
493
  8
PART_LETTERS
 10
1.953527602959642
 20
83.21547776395073
 30
0.0
  0
VERTEX
  5
494
  8
PART_LETTERS
 10
1.960474119842316
 20
83.22131664173612
 30
0.0
  0
VERTEX
  5
495
  8
PART_LETTERS
 10
1.967212800776832
 20
83.22756603149745
 30
0.0
  0
VERTEX
  5
496
  8
PART_LETTERS
 10
1.973743645763189
 20
83.23422593323471
 30
0.0
  0
VERTEX
  5
497
  8
PART_LETTERS
 10
1.980066654801389
 20
83.24129634694793
 30
0.0
  0
VERTEX
  5
498
  8
PART_LETTERS
 10
1.986181827891429
 20
83.24877727263706
 30
0.0
  0
VERTEX
  5
499
  8
PART_LETTERS
 10
1.992089165033312
 20
83.25666871030214
 30
0.0
  0
VERTEX
  5
49A
  8
PART_LETTERS
 10
1.997788666227037
 20
83.26497065994315
 30
0.0
  0
VERTEX
  5
49B
  8
PART_LETTERS
 10
2.003280331472602
 20
83.2736831215601
 30
0.0
  0
VERTEX
  5
49C
  8
PART_LETTERS
 10
2.00856416077001
 20
83.28280609515296
 30
0.0
  0
VERTEX
  5
49D
  8
PART_LETTERS
 10
2.01364015411926
 20
83.29233958072179
 30
0.0
  0
VERTEX
  5
49E
  8
PART_LETTERS
 10
2.018508311520351
 20
83.30228357826654
 30
0.0
  0
VERTEX
  5
49F
  8
PART_LETTERS
 10
2.023168632973285
 20
83.31263808778724
 30
0.0
  0
VERTEX
  5
4A0
  8
PART_LETTERS
 10
2.02762111847806
 20
83.32340310928386
 30
0.0
  0
VERTEX
  5
4A1
  8
PART_LETTERS
 10
2.031833793273421
 20
83.33479918376477
 30
0.0
  0
VERTEX
  5
4A2
  8
PART_LETTERS
 10
2.035774682598114
 20
83.34704685223832
 30
0.0
  0
VERTEX
  5
4A3
  8
PART_LETTERS
 10
2.039443786452139
 20
83.36014611470449
 30
0.0
  0
VERTEX
  5
4A4
  8
PART_LETTERS
 10
2.042841104835495
 20
83.37409697116331
 30
0.0
  0
VERTEX
  5
4A5
  8
PART_LETTERS
 10
2.045966637748182
 20
83.38889942161475
 30
0.0
  0
VERTEX
  5
4A6
  8
PART_LETTERS
 10
2.048820385190202
 20
83.40455346605884
 30
0.0
  0
VERTEX
  5
4A7
  8
PART_LETTERS
 10
2.051402347161552
 20
83.42105910449555
 30
0.0
  0
VERTEX
  5
4A8
  8
PART_LETTERS
 10
2.053712523662234
 20
83.4384163369249
 30
0.0
  0
VERTEX
  5
4A9
  8
PART_LETTERS
 10
2.055750914692248
 20
83.45662516334687
 30
0.0
  0
VERTEX
  5
4AA
  8
PART_LETTERS
 10
2.057517520251593
 20
83.4756855837615
 30
0.0
  0
VERTEX
  5
4AB
  8
PART_LETTERS
 10
2.05901234034027
 20
83.49559759816876
 30
0.0
  0
VERTEX
  5
4AC
  8
PART_LETTERS
 10
2.060235374958278
 20
83.51636120656865
 30
0.0
  0
VERTEX
  5
4AD
  8
PART_LETTERS
 10
2.061186624105618
 20
83.53797640896116
 30
0.0
  0
VERTEX
  5
4AE
  8
PART_LETTERS
 10
2.061866087782289
 20
83.56044320534632
 30
0.0
  0
VERTEX
  5
4AF
  8
PART_LETTERS
 10
2.062409658723626
 20
83.60793158009452
 30
0.0
  0
VERTEX
  5
4B0
  8
PART_LETTERS
 10
2.062105898491702
 20
83.63985106979791
 30
0.0
  0
VERTEX
  5
4B1
  8
PART_LETTERS
 10
2.061194617795932
 20
83.67048661778932
 30
0.0
  0
VERTEX
  5
4B2
  8
PART_LETTERS
 10
2.059675816636314
 20
83.69983822406878
 30
0.0
  0
VERTEX
  5
4B3
  8
PART_LETTERS
 10
2.057549495012848
 20
83.72790588863626
 30
0.0
  0
VERTEX
  5
4B4
  8
PART_LETTERS
 10
2.054815652925536
 20
83.75468961149176
 30
0.0
  0
VERTEX
  5
4B5
  8
PART_LETTERS
 10
2.051474290374376
 20
83.78018939263528
 30
0.0
  0
VERTEX
  5
4B6
  8
PART_LETTERS
 10
2.047525407359369
 20
83.80440523206684
 30
0.0
  0
VERTEX
  5
4B7
  8
PART_LETTERS
 10
2.042969003880515
 20
83.82733712978643
 30
0.0
  0
VERTEX
  5
4B8
  8
PART_LETTERS
 10
2.037805079937814
 20
83.84898508579404
 30
0.0
  0
VERTEX
  5
4B9
  8
PART_LETTERS
 10
2.032033635531265
 20
83.86934910008969
 30
0.0
  0
VERTEX
  5
4BA
  8
PART_LETTERS
 10
2.02565467066087
 20
83.88842917267337
 30
0.0
  0
VERTEX
  5
4BB
  8
PART_LETTERS
 10
2.018668185326627
 20
83.90622530354509
 30
0.0
  0
VERTEX
  5
4BC
  8
PART_LETTERS
 10
2.011074179528537
 20
83.92273749270481
 30
0.0
  0
VERTEX
  5
4BD
  8
PART_LETTERS
 10
2.0028726532666
 20
83.93796574015258
 30
0.0
  0
VERTEX
  5
4BE
  8
PART_LETTERS
 10
1.994063606540815
 20
83.95191004588838
 30
0.0
  0
VERTEX
  5
4BF
  8
PART_LETTERS
 10
1.989431263003981
 20
83.95840072061428
 30
0.0
  0
VERTEX
  5
4C0
  8
PART_LETTERS
 10
1.984647039351184
 20
83.9645704099122
 30
0.0
  0
VERTEX
  5
4C1
  8
PART_LETTERS
 10
1.97452702741394
 20
83.97621322829355
 30
0.0
  0
VERTEX
  5
4C2
  8
PART_LETTERS
 10
1.963607646445318
 20
83.98710489710189
 30
0.0
  0
VERTEX
  5
4C3
  8
PART_LETTERS
 10
1.951888896445317
 20
83.99724541633725
 30
0.0
  0
VERTEX
  5
4C4
  8
PART_LETTERS
 10
1.93937077741394
 20
84.00663478599962
 30
0.0
  0
VERTEX
  5
4C5
  8
PART_LETTERS
 10
1.926053289351184
 20
84.015273006089
 30
0.0
  0
VERTEX
  5
4C6
  8
PART_LETTERS
 10
1.91193643225705
 20
84.0231600766054
 30
0.0
  0
VERTEX
  5
4C7
  8
PART_LETTERS
 10
1.897020206131538
 20
84.0302959975488
 30
0.0
  0
VERTEX
  5
4C8
  8
PART_LETTERS
 10
1.881304610974649
 20
84.03668076891921
 30
0.0
  0
VERTEX
  5
4C9
  8
PART_LETTERS
 10
1.864789646786382
 20
84.04231439071664
 30
0.0
  0
VERTEX
  5
4CA
  8
PART_LETTERS
 10
1.847475313566736
 20
84.04719686294106
 30
0.0
  0
VERTEX
  5
4CB
  8
PART_LETTERS
 10
1.829361611315713
 20
84.05132818559251
 30
0.0
  0
VERTEX
  5
4CC
  8
PART_LETTERS
 10
1.810448540033312
 20
84.05470835867096
 30
0.0
  0
VERTEX
  5
4CD
  8
PART_LETTERS
 10
1.790736099719533
 20
84.05733738217643
 30
0.0
  0
VERTEX
  5
4CE
  8
PART_LETTERS
 10
1.770224290374376
 20
84.0592152561089
 30
0.0
  0
VERTEX
  5
4CF
  8
PART_LETTERS
 10
1.748913111997841
 20
84.0603419804684
 30
0.0
  0
VERTEX
  5
4D0
  8
PART_LETTERS
 10
1.726802564589929
 20
84.06071755525488
 30
0.0
  0
SEQEND
  5
5F8
  8
PART_LETTERS
  0
POLYLINE
  5
77
  8
T10_COUNTERSINK
 66
     1
 10
0.0
 20
0.0
 30
0.0
 70
     1
  0
VERTEX
  5
4D1
  8
T10_COUNTERSINK
 10
1.750031077550176
 20
9.1666
 30
0.0
 42
0.4142135623730951
  0
VERTEX
  5
4D2
  8
T10_COUNTERSINK
 10
1.687531077550176
 20
9.1041
 30
0.0
 42
0.4142135623730951
  0
VERTEX
  5
4D3
  8
T10_COUNTERSINK
 10
1.750031077550176
 20
9.0416
 30
0.0
 42
0.4142135623730951
  0
VERTEX
  5
4D4
  8
T10_COUNTERSINK
 10
1.812531077550176
 20
9.1041
 30
0.0
 42
0.4142135623730951
  0
SEQEND
  5
5F9
  8
T10_COUNTERSINK
  0
POLYLINE
  5
78
  8
T10_COUNTERSINK
 66
     1
 10
0.0
 20
0.0
 30
0.0
 70
     1
  0
VERTEX
  5
4D5
  8
T10_COUNTERSINK
 10
1.750031077550176
 20
25.1666
 30
0.0
 42
0.4142135623730951
  0
VERTEX
  5
4D6
  8
T10_COUNTERSINK
 10
1.687531077550176
 20
25.1041
 30
0.0
 42
0.4142135623730951
  0
VERTEX
  5
4D7
  8
T10_COUNTERSINK
 10
1.750031077550176
 20
25.0416
 30
0.0
 42
0.4142135623730951
  0
VERTEX
  5
4D8
  8
T10_COUNTERSINK
 10
1.812531077550176
 20
25.1041
 30
0.0
 42
0.4142135623730951
  0
SEQEND
  5
5FA
  8
T10_COUNTERSINK
  0
POLYLINE
  5
79
  8
T10_COUNTERSINK
 66
     1
 10
0.0
 20
0.0
 30
0.0
 70
     1
  0
VERTEX
  5
4D9
  8
T10_COUNTERSINK
 10
1.750031077550176
 20
17.1666
 30
0.0
 42
0.4142135623730951
  0
VERTEX
  5
4DA
  8
T10_COUNTERSINK
 10
1.687531077550176
 20
17.1041
 30
0.0
 42
0.4142135623730951
  0
VERTEX
  5
4DB
  8
T10_COUNTERSINK
 10
1.750031077550176
 20
17.0416
 30
0.0
 42
0.4142135623730951
  0
VERTEX
  5
4DC
  8
T10_COUNTERSINK
 10
1.812531077550176
 20
17.1041
 30
0.0
 42
0.4142135623730951
  0
SEQEND
  5
5FB
  8
T10_COUNTERSINK
  0
POLYLINE
  5
7A
  8
T10_COUNTERSINK
 66
     1
 10
0.0
 20
0.0
 30
0.0
 70
     1
  0
VERTEX
  5
4DD
  8
T10_COUNTERSINK
 10
0.812531077550176
 20
87.92031767852222
 30
0.0
  0
VERTEX
  5
4DE
  8
T10_COUNTERSINK
 10
0.8122083541615043
 20
87.92729928785921
 30
0.0
  0
VERTEX
  5
4DF
  8
T10_COUNTERSINK
 10
0.8112611393991351
 20
87.93407938224729
 30
0.0
  0
VERTEX
  5
4E0
  8
T10_COUNTERSINK
 10
0.8097208663685371
 20
87.94062361633665
 30
0.0
  0
VERTEX
  5
4E1
  8
T10_COUNTERSINK
 10
0.8076189681751789
 20
87.94689764477748
 30
0.0
  0
VERTEX
  5
4E2
  8
T10_COUNTERSINK
 10
0.804986877924529
 20
87.95286712221997
 30
0.0
  0
VERTEX
  5
4E3
  8
T10_COUNTERSINK
 10
0.8018560287220564
 20
87.95849770331431
 30
0.0
  0
VERTEX
  5
4E4
  8
T10_COUNTERSINK
 10
0.7982578536732295
 20
87.96375504271067
 30
0.0
  0
VERTEX
  5
4E5
  8
T10_COUNTERSINK
 10
0.794223785883517
 20
87.96860479505926
 30
0.0
  0
VERTEX
  5
4E6
  8
T10_COUNTERSINK
 10
0.7897852584583877
 20
87.97301261501028
 30
0.0
  0
VERTEX
  5
4E7
  8
T10_COUNTERSINK
 10
0.78497370450331
 20
87.97694415721386
 30
0.0
  0
VERTEX
  5
4E8
  8
T10_COUNTERSINK
 10
0.7798205571237529
 20
87.98036507632021
 30
0.0
  0
VERTEX
  5
4E9
  8
T10_COUNTERSINK
 10
0.7743572494251847
 20
87.98324102697956
 30
0.0
  0
VERTEX
  5
4EA
  8
T10_COUNTERSINK
 10
0.7686152145130742
 20
87.98553766384205
 30
0.0
  0
VERTEX
  5
4EB
  8
T10_COUNTERSINK
 10
0.7626258854928902
 20
87.98722064155788
 30
0.0
  0
VERTEX
  5
4EC
  8
T10_COUNTERSINK
 10
0.7564206954701013
 20
87.98825561477726
 30
0.0
  0
VERTEX
  5
4ED
  8
T10_COUNTERSINK
 10
0.750031077550176
 20
87.98860823815033
 30
0.0
  0
VERTEX
  5
4EE
  8
T10_COUNTERSINK
 10
0.7436414596302601
 20
87.98825561477726
 30
0.0
  0
VERTEX
  5
4EF
  8
T10_COUNTERSINK
 10
0.737436269607478
 20
87.98722064155788
 30
0.0
  0
VERTEX
  5
4F0
  8
T10_COUNTERSINK
 10
0.7314469405872988
 20
87.98553766384205
 30
0.0
  0
VERTEX
  5
4F1
  8
T10_COUNTERSINK
 10
0.7257049056751912
 20
87.98324102697956
 30
0.0
  0
VERTEX
  5
4F2
  8
T10_COUNTERSINK
 10
0.7202415979766242
 20
87.98036507632021
 30
0.0
  0
VERTEX
  5
4F3
  8
T10_COUNTERSINK
 10
0.7150884505970668
 20
87.97694415721386
 30
0.0
  0
VERTEX
  5
4F4
  8
T10_COUNTERSINK
 10
0.7102768966419879
 20
87.97301261501028
 30
0.0
  0
VERTEX
  5
4F5
  8
T10_COUNTERSINK
 10
0.7058383692168562
 20
87.96860479505926
 30
0.0
  0
VERTEX
  5
4F6
  8
T10_COUNTERSINK
 10
0.7018043014271407
 20
87.96375504271067
 30
0.0
  0
VERTEX
  5
4F7
  8
T10_COUNTERSINK
 10
0.6982061263783105
 20
87.95849770331431
 30
0.0
  0
VERTEX
  5
4F8
  8
T10_COUNTERSINK
 10
0.6950752771758343
 20
87.95286712221997
 30
0.0
  0
VERTEX
  5
4F9
  8
T10_COUNTERSINK
 10
0.692443186925181
 20
87.94689764477748
 30
0.0
  0
VERTEX
  5
4FA
  8
T10_COUNTERSINK
 10
0.6903412887318197
 20
87.94062361633665
 30
0.0
  0
VERTEX
  5
4FB
  8
T10_COUNTERSINK
 10
0.6888010157012191
 20
87.93407938224729
 30
0.0
  0
VERTEX
  5
4FC
  8
T10_COUNTERSINK
 10
0.6878538009388482
 20
87.92729928785921
 30
0.0
  0
VERTEX
  5
4FD
  8
T10_COUNTERSINK
 10
0.687531077550176
 20
87.92031767852222
 30
0.0
  0
VERTEX
  5
4FE
  8
T10_COUNTERSINK
 10
0.6878538009388482
 20
87.91333606918525
 30
0.0
  0
VERTEX
  5
4FF
  8
T10_COUNTERSINK
 10
0.6888010157012191
 20
87.90655597479719
 30
0.0
  0
VERTEX
  5
500
  8
T10_COUNTERSINK
 10
0.6903412887318197
 20
87.90001174070782
 30
0.0
  0
VERTEX
  5
501
  8
T10_COUNTERSINK
 10
0.692443186925181
 20
87.89373771226698
 30
0.0
  0
VERTEX
  5
502
  8
T10_COUNTERSINK
 10
0.6950752771758343
 20
87.88776823482448
 30
0.0
  0
VERTEX
  5
503
  8
T10_COUNTERSINK
 10
0.6982061263783105
 20
87.88213765373015
 30
0.0
  0
VERTEX
  5
504
  8
T10_COUNTERSINK
 10
0.7018043014271407
 20
87.87688031433379
 30
0.0
  0
VERTEX
  5
505
  8
T10_COUNTERSINK
 10
0.7058383692168562
 20
87.8720305619852
 30
0.0
  0
VERTEX
  5
506
  8
T10_COUNTERSINK
 10
0.7102768966419879
 20
87.8676227420342
 30
0.0
  0
VERTEX
  5
507
  8
T10_COUNTERSINK
 10
0.7150884505970668
 20
87.86369119983061
 30
0.0
  0
VERTEX
  5
508
  8
T10_COUNTERSINK
 10
0.7202415979766242
 20
87.86027028072427
 30
0.0
  0
VERTEX
  5
509
  8
T10_COUNTERSINK
 10
0.7257049056751912
 20
87.85739433006492
 30
0.0
  0
VERTEX
  5
50A
  8
T10_COUNTERSINK
 10
0.7314469405872988
 20
87.85509769320242
 30
0.0
  0
VERTEX
  5
50B
  8
T10_COUNTERSINK
 10
0.737436269607478
 20
87.8534147154866
 30
0.0
  0
VERTEX
  5
50C
  8
T10_COUNTERSINK
 10
0.7436414596302601
 20
87.85237974226722
 30
0.0
  0
VERTEX
  5
50D
  8
T10_COUNTERSINK
 10
0.750031077550176
 20
87.85202711889414
 30
0.0
  0
VERTEX
  5
50E
  8
T10_COUNTERSINK
 10
0.7564206954701013
 20
87.85237974226722
 30
0.0
  0
VERTEX
  5
50F
  8
T10_COUNTERSINK
 10
0.7626258854928902
 20
87.8534147154866
 30
0.0
  0
VERTEX
  5
510
  8
T10_COUNTERSINK
 10
0.7686152145130742
 20
87.85509769320242
 30
0.0
  0
VERTEX
  5
511
  8
T10_COUNTERSINK
 10
0.7743572494251847
 20
87.85739433006492
 30
0.0
  0
VERTEX
  5
512
  8
T10_COUNTERSINK
 10
0.7798205571237529
 20
87.86027028072427
 30
0.0
  0
VERTEX
  5
513
  8
T10_COUNTERSINK
 10
0.78497370450331
 20
87.86369119983061
 30
0.0
  0
VERTEX
  5
514
  8
T10_COUNTERSINK
 10
0.7897852584583877
 20
87.8676227420342
 30
0.0
  0
VERTEX
  5
515
  8
T10_COUNTERSINK
 10
0.794223785883517
 20
87.8720305619852
 30
0.0
  0
VERTEX
  5
516
  8
T10_COUNTERSINK
 10
0.7982578536732295
 20
87.87688031433379
 30
0.0
  0
VERTEX
  5
517
  8
T10_COUNTERSINK
 10
0.8018560287220564
 20
87.88213765373015
 30
0.0
  0
VERTEX
  5
518
  8
T10_COUNTERSINK
 10
0.804986877924529
 20
87.88776823482448
 30
0.0
  0
VERTEX
  5
519
  8
T10_COUNTERSINK
 10
0.8076189681751789
 20
87.89373771226698
 30
0.0
  0
VERTEX
  5
51A
  8
T10_COUNTERSINK
 10
0.8097208663685371
 20
87.90001174070782
 30
0.0
  0
VERTEX
  5
51B
  8
T10_COUNTERSINK
 10
0.8112611393991351
 20
87.90655597479719
 30
0.0
  0
VERTEX
  5
51C
  8
T10_COUNTERSINK
 10
0.8122083541615043
 20
87.91333606918525
 30
0.0
  0
SEQEND
  5
5FC
  8
T10_COUNTERSINK
  0
POLYLINE
  5
7B
  8
T10_COUNTERSINK
 66
     1
 10
0.0
 20
0.0
 30
0.0
 70
     1
  0
VERTEX
  5
51D
  8
T10_COUNTERSINK
 10
2.812531077550176
 20
87.92031767852222
 30
0.0
  0
VERTEX
  5
51E
  8
T10_COUNTERSINK
 10
2.812208354161505
 20
87.92729928785921
 30
0.0
  0
VERTEX
  5
51F
  8
T10_COUNTERSINK
 10
2.811261139399135
 20
87.93407938224729
 30
0.0
  0
VERTEX
  5
520
  8
T10_COUNTERSINK
 10
2.809720866368537
 20
87.94062361633665
 30
0.0
  0
VERTEX
  5
521
  8
T10_COUNTERSINK
 10
2.807618968175179
 20
87.94689764477748
 30
0.0
  0
VERTEX
  5
522
  8
T10_COUNTERSINK
 10
2.804986877924529
 20
87.95286712221997
 30
0.0
  0
VERTEX
  5
523
  8
T10_COUNTERSINK
 10
2.801856028722057
 20
87.95849770331431
 30
0.0
  0
VERTEX
  5
524
  8
T10_COUNTERSINK
 10
2.798257853673229
 20
87.96375504271067
 30
0.0
  0
VERTEX
  5
525
  8
T10_COUNTERSINK
 10
2.794223785883517
 20
87.96860479505926
 30
0.0
  0
VERTEX
  5
526
  8
T10_COUNTERSINK
 10
2.789785258458388
 20
87.97301261501028
 30
0.0
  0
VERTEX
  5
527
  8
T10_COUNTERSINK
 10
2.78497370450331
 20
87.97694415721386
 30
0.0
  0
VERTEX
  5
528
  8
T10_COUNTERSINK
 10
2.779820557123752
 20
87.98036507632021
 30
0.0
  0
VERTEX
  5
529
  8
T10_COUNTERSINK
 10
2.774357249425185
 20
87.98324102697956
 30
0.0
  0
VERTEX
  5
52A
  8
T10_COUNTERSINK
 10
2.768615214513074
 20
87.98553766384205
 30
0.0
  0
VERTEX
  5
52B
  8
T10_COUNTERSINK
 10
2.76262588549289
 20
87.98722064155788
 30
0.0
  0
VERTEX
  5
52C
  8
T10_COUNTERSINK
 10
2.756420695470101
 20
87.98825561477726
 30
0.0
  0
VERTEX
  5
52D
  8
T10_COUNTERSINK
 10
2.750031077550176
 20
87.98860823815033
 30
0.0
  0
VERTEX
  5
52E
  8
T10_COUNTERSINK
 10
2.74364145963026
 20
87.98825561477726
 30
0.0
  0
VERTEX
  5
52F
  8
T10_COUNTERSINK
 10
2.737436269607478
 20
87.98722064155788
 30
0.0
  0
VERTEX
  5
530
  8
T10_COUNTERSINK
 10
2.731446940587299
 20
87.98553766384205
 30
0.0
  0
VERTEX
  5
531
  8
T10_COUNTERSINK
 10
2.725704905675191
 20
87.98324102697956
 30
0.0
  0
VERTEX
  5
532
  8
T10_COUNTERSINK
 10
2.720241597976624
 20
87.98036507632021
 30
0.0
  0
VERTEX
  5
533
  8
T10_COUNTERSINK
 10
2.715088450597067
 20
87.97694415721386
 30
0.0
  0
VERTEX
  5
534
  8
T10_COUNTERSINK
 10
2.710276896641988
 20
87.97301261501028
 30
0.0
  0
VERTEX
  5
535
  8
T10_COUNTERSINK
 10
2.705838369216856
 20
87.96860479505926
 30
0.0
  0
VERTEX
  5
536
  8
T10_COUNTERSINK
 10
2.701804301427141
 20
87.96375504271067
 30
0.0
  0
VERTEX
  5
537
  8
T10_COUNTERSINK
 10
2.69820612637831
 20
87.95849770331431
 30
0.0
  0
VERTEX
  5
538
  8
T10_COUNTERSINK
 10
2.695075277175834
 20
87.95286712221997
 30
0.0
  0
VERTEX
  5
539
  8
T10_COUNTERSINK
 10
2.692443186925181
 20
87.94689764477748
 30
0.0
  0
VERTEX
  5
53A
  8
T10_COUNTERSINK
 10
2.69034128873182
 20
87.94062361633665
 30
0.0
  0
VERTEX
  5
53B
  8
T10_COUNTERSINK
 10
2.688801015701219
 20
87.93407938224729
 30
0.0
  0
VERTEX
  5
53C
  8
T10_COUNTERSINK
 10
2.687853800938848
 20
87.92729928785921
 30
0.0
  0
VERTEX
  5
53D
  8
T10_COUNTERSINK
 10
2.687531077550176
 20
87.92031767852222
 30
0.0
  0
VERTEX
  5
53E
  8
T10_COUNTERSINK
 10
2.687853800938848
 20
87.91333606918525
 30
0.0
  0
VERTEX
  5
53F
  8
T10_COUNTERSINK
 10
2.688801015701219
 20
87.90655597479719
 30
0.0
  0
VERTEX
  5
540
  8
T10_COUNTERSINK
 10
2.69034128873182
 20
87.90001174070782
 30
0.0
  0
VERTEX
  5
541
  8
T10_COUNTERSINK
 10
2.692443186925181
 20
87.89373771226698
 30
0.0
  0
VERTEX
  5
542
  8
T10_COUNTERSINK
 10
2.695075277175834
 20
87.88776823482448
 30
0.0
  0
VERTEX
  5
543
  8
T10_COUNTERSINK
 10
2.69820612637831
 20
87.88213765373015
 30
0.0
  0
VERTEX
  5
544
  8
T10_COUNTERSINK
 10
2.701804301427141
 20
87.87688031433379
 30
0.0
  0
VERTEX
  5
545
  8
T10_COUNTERSINK
 10
2.705838369216856
 20
87.8720305619852
 30
0.0
  0
VERTEX
  5
546
  8
T10_COUNTERSINK
 10
2.710276896641988
 20
87.8676227420342
 30
0.0
  0
VERTEX
  5
547
  8
T10_COUNTERSINK
 10
2.715088450597067
 20
87.86369119983061
 30
0.0
  0
VERTEX
  5
548
  8
T10_COUNTERSINK
 10
2.720241597976624
 20
87.86027028072427
 30
0.0
  0
VERTEX
  5
549
  8
T10_COUNTERSINK
 10
2.725704905675191
 20
87.85739433006492
 30
0.0
  0
VERTEX
  5
54A
  8
T10_COUNTERSINK
 10
2.731446940587299
 20
87.85509769320242
 30
0.0
  0
VERTEX
  5
54B
  8
T10_COUNTERSINK
 10
2.737436269607478
 20
87.8534147154866
 30
0.0
  0
VERTEX
  5
54C
  8
T10_COUNTERSINK
 10
2.74364145963026
 20
87.85237974226722
 30
0.0
  0
VERTEX
  5
54D
  8
T10_COUNTERSINK
 10
2.750031077550176
 20
87.85202711889414
 30
0.0
  0
VERTEX
  5
54E
  8
T10_COUNTERSINK
 10
2.756420695470101
 20
87.85237974226722
 30
0.0
  0
VERTEX
  5
54F
  8
T10_COUNTERSINK
 10
2.76262588549289
 20
87.8534147154866
 30
0.0
  0
VERTEX
  5
550
  8
T10_COUNTERSINK
 10
2.768615214513074
 20
87.85509769320242
 30
0.0
  0
VERTEX
  5
551
  8
T10_COUNTERSINK
 10
2.774357249425185
 20
87.85739433006492
 30
0.0
  0
VERTEX
  5
552
  8
T10_COUNTERSINK
 10
2.779820557123752
 20
87.86027028072427
 30
0.0
  0
VERTEX
  5
553
  8
T10_COUNTERSINK
 10
2.78497370450331
 20
87.86369119983061
 30
0.0
  0
VERTEX
  5
554
  8
T10_COUNTERSINK
 10
2.789785258458388
 20
87.8676227420342
 30
0.0
  0
VERTEX
  5
555
  8
T10_COUNTERSINK
 10
2.794223785883517
 20
87.8720305619852
 30
0.0
  0
VERTEX
  5
556
  8
T10_COUNTERSINK
 10
2.798257853673229
 20
87.87688031433379
 30
0.0
  0
VERTEX
  5
557
  8
T10_COUNTERSINK
 10
2.801856028722057
 20
87.88213765373015
 30
0.0
  0
VERTEX
  5
558
  8
T10_COUNTERSINK
 10
2.804986877924529
 20
87.88776823482448
 30
0.0
  0
VERTEX
  5
559
  8
T10_COUNTERSINK
 10
2.807618968175179
 20
87.89373771226698
 30
0.0
  0
VERTEX
  5
55A
  8
T10_COUNTERSINK
 10
2.809720866368537
 20
87.90001174070782
 30
0.0
  0
VERTEX
  5
55B
  8
T10_COUNTERSINK
 10
2.811261139399135
 20
87.90655597479719
 30
0.0
  0
VERTEX
  5
55C
  8
T10_COUNTERSINK
 10
2.812208354161505
 20
87.91333606918525
 30
0.0
  0
SEQEND
  5
5FD
  8
T10_COUNTERSINK
  0
POLYLINE
  5
7D
  8
T3_PROFILE_OUTSIDE
 66
     1
 10
0.0
 20
0.0
 30
0.0
  0
VERTEX
  5
55D
  8
T3_PROFILE_OUTSIDE
 10
3.50004218367863
 20
89.04092012309218
 30
0.0
  0
VERTEX
  5
55E
  8
T3_PROFILE_OUTSIDE
 10
3.491307445821667
 20
89.05890780980135
 30
0.0
  0
VERTEX
  5
55F
  8
T3_PROFILE_OUTSIDE
 10
3.482248969566601
 20
89.07672180717799
 30
0.0
  0
VERTEX
  5
560
  8
T3_PROFILE_OUTSIDE
 10
3.472871835288031
 20
89.09435860854607
 30
0.0
  0
VERTEX
  5
561
  8
T3_PROFILE_OUTSIDE
 10
3.463181123360557
 20
89.11181470722958
 30
0.0
  0
VERTEX
  5
562
  8
T3_PROFILE_OUTSIDE
 10
3.453181914158777
 20
89.12908659655251
 30
0.0
  0
VERTEX
  5
563
  8
T3_PROFILE_OUTSIDE
 10
3.44287928805729
 20
89.14617076983888
 30
0.0
  0
VERTEX
  5
564
  8
T3_PROFILE_OUTSIDE
 10
3.432278325430696
 20
89.16306372041262
 30
0.0
  0
VERTEX
  5
565
  8
T3_PROFILE_OUTSIDE
 10
3.421384106653593
 20
89.17976194159777
 30
0.0
  0
VERTEX
  5
566
  8
T3_PROFILE_OUTSIDE
 10
3.41020171210058
 20
89.19626192671831
 30
0.0
  0
VERTEX
  5
567
  8
T3_PROFILE_OUTSIDE
 10
3.398736222146256
 20
89.21256016909824
 30
0.0
  0
VERTEX
  5
568
  8
T3_PROFILE_OUTSIDE
 10
3.386992717165221
 20
89.22865316206153
 30
0.0
  0
VERTEX
  5
569
  8
T3_PROFILE_OUTSIDE
 10
3.374976277532073
 20
89.24453739893221
 30
0.0
  0
VERTEX
  5
56A
  8
T3_PROFILE_OUTSIDE
 10
3.362691983621411
 20
89.26020937303424
 30
0.0
  0
VERTEX
  5
56B
  8
T3_PROFILE_OUTSIDE
 10
3.350144915807835
 20
89.27566557769163
 30
0.0
  0
VERTEX
  5
56C
  8
T3_PROFILE_OUTSIDE
 10
3.337340154465942
 20
89.29090250622835
 30
0.0
  0
VERTEX
  5
56D
  8
T3_PROFILE_OUTSIDE
 10
3.324282779970333
 20
89.3059166519684
 30
0.0
  0
VERTEX
  5
56E
  8
T3_PROFILE_OUTSIDE
 10
3.310977872695605
 20
89.32070450823578
 30
0.0
  0
VERTEX
  5
56F
  8
T3_PROFILE_OUTSIDE
 10
3.297430513016359
 20
89.33526256835447
 30
0.0
  0
VERTEX
  5
570
  8
T3_PROFILE_OUTSIDE
 10
3.283645781307194
 20
89.34958732564849
 30
0.0
  0
VERTEX
  5
571
  8
T3_PROFILE_OUTSIDE
 10
3.269628757942707
 20
89.3636752734418
 30
0.0
  0
VERTEX
  5
572
  8
T3_PROFILE_OUTSIDE
 10
3.255384523297498
 20
89.37752290505841
 30
0.0
  0
VERTEX
  5
573
  8
T3_PROFILE_OUTSIDE
 10
3.240918157746166
 20
89.3911267138223
 30
0.0
  0
VERTEX
  5
574
  8
T3_PROFILE_OUTSIDE
 10
3.226234741663311
 20
89.40448319305747
 30
0.0
  0
VERTEX
  5
575
  8
T3_PROFILE_OUTSIDE
 10
3.21133935542353
 20
89.41758883608792
 30
0.0
  0
VERTEX
  5
576
  8
T3_PROFILE_OUTSIDE
 10
3.196237079401424
 20
89.43044013623762
 30
0.0
  0
VERTEX
  5
577
  8
T3_PROFILE_OUTSIDE
 10
3.18093299397159
 20
89.44303358683057
 30
0.0
  0
VERTEX
  5
578
  8
T3_PROFILE_OUTSIDE
 10
3.165432179508628
 20
89.45536568119076
 30
0.0
  0
VERTEX
  5
579
  8
T3_PROFILE_OUTSIDE
 10
3.149739716387138
 20
89.4674329126422
 30
0.0
  0
VERTEX
  5
57A
  8
T3_PROFILE_OUTSIDE
 10
3.133860684981717
 20
89.47923177450886
 30
0.0
  0
VERTEX
  5
57B
  8
T3_PROFILE_OUTSIDE
 10
3.117800165666965
 20
89.49075876011474
 30
0.0
  0
VERTEX
  5
57C
  8
T3_PROFILE_OUTSIDE
 10
3.101563238817482
 20
89.50201036278385
 30
0.0
  0
VERTEX
  5
57D
  8
T3_PROFILE_OUTSIDE
 10
3.085154984807865
 20
89.51298307584014
 30
0.0
  0
VERTEX
  5
57E
  8
T3_PROFILE_OUTSIDE
 10
3.068580484012714
 20
89.52367339260763
 30
0.0
  0
VERTEX
  5
57F
  8
T3_PROFILE_OUTSIDE
 10
3.051844816806628
 20
89.53407780641032
 30
0.0
  0
VERTEX
  5
580
  8
T3_PROFILE_OUTSIDE
 10
3.034953063564205
 20
89.54419281057218
 30
0.0
  0
VERTEX
  5
581
  8
T3_PROFILE_OUTSIDE
 10
3.017910304660046
 20
89.55401489841721
 30
0.0
  0
VERTEX
  5
582
  8
T3_PROFILE_OUTSIDE
 10
3.000721620468749
 20
89.56354056326941
 30
0.0
  0
VERTEX
  5
583
  8
T3_PROFILE_OUTSIDE
 10
2.983392091364912
 20
89.57276629845276
 30
0.0
  0
VERTEX
  5
584
  8
T3_PROFILE_OUTSIDE
 10
2.965926797723135
 20
89.58168859729126
 30
0.0
  0
VERTEX
  5
585
  8
T3_PROFILE_OUTSIDE
 10
2.948330819918016
 20
89.5903039531089
 30
0.0
  0
VERTEX
  5
586
  8
T3_PROFILE_OUTSIDE
 10
2.930609238324156
 20
89.59860885922967
 30
0.0
  0
VERTEX
  5
587
  8
T3_PROFILE_OUTSIDE
 10
2.912767133316153
 20
89.60659980897756
 30
0.0
  0
VERTEX
  5
588
  8
T3_PROFILE_OUTSIDE
 10
2.894809585268605
 20
89.61427329567657
 30
0.0
  0
VERTEX
  5
589
  8
T3_PROFILE_OUTSIDE
 10
2.876741674556112
 20
89.62162581265068
 30
0.0
  0
VERTEX
  5
58A
  8
T3_PROFILE_OUTSIDE
 10
2.858568481553272
 20
89.62865385322388
 30
0.0
  0
VERTEX
  5
58B
  8
T3_PROFILE_OUTSIDE
 10
2.840295086634685
 20
89.6353539107202
 30
0.0
  0
VERTEX
  5
58C
  8
T3_PROFILE_OUTSIDE
 10
2.82192657017495
 20
89.64172247846358
 30
0.0
  0
VERTEX
  5
58D
  8
T3_PROFILE_OUTSIDE
 10
2.803468012548666
 20
89.64775604977804
 30
0.0
  0
VERTEX
  5
58E
  8
T3_PROFILE_OUTSIDE
 10
2.784924494130431
 20
89.65345111798757
 30
0.0
  0
VERTEX
  5
58F
  8
T3_PROFILE_OUTSIDE
 10
2.766301095294845
 20
89.65880417641614
 30
0.0
  0
VERTEX
  5
590
  8
T3_PROFILE_OUTSIDE
 10
2.747602896416506
 20
89.66381171838778
 30
0.0
  0
VERTEX
  5
591
  8
T3_PROFILE_OUTSIDE
 10
2.728834977870014
 20
89.66847023722644
 30
0.0
  0
VERTEX
  5
592
  8
T3_PROFILE_OUTSIDE
 10
2.710002420029968
 20
89.67277622625615
 30
0.0
  0
VERTEX
  5
593
  8
T3_PROFILE_OUTSIDE
 10
2.691110303270966
 20
89.67672617880088
 30
0.0
  0
VERTEX
  5
594
  8
T3_PROFILE_OUTSIDE
 10
2.672163707967608
 20
89.68031658818462
 30
0.0
  0
VERTEX
  5
595
  8
T3_PROFILE_OUTSIDE
 10
2.653167714494492
 20
89.68354394773138
 30
0.0
  0
VERTEX
  5
596
  8
T3_PROFILE_OUTSIDE
 10
2.634127403226218
 20
89.68640475076513
 30
0.0
  0
VERTEX
  5
597
  8
T3_PROFILE_OUTSIDE
 10
2.615047854537384
 20
89.6888954906099
 30
0.0
  0
VERTEX
  5
598
  8
T3_PROFILE_OUTSIDE
 10
2.59593414880259
 20
89.69101266058962
 30
0.0
  0
VERTEX
  5
599
  8
T3_PROFILE_OUTSIDE
 10
2.576791366396434
 20
89.69275275402832
 30
0.0
  0
VERTEX
  5
59A
  8
T3_PROFILE_OUTSIDE
 10
2.557624587693516
 20
89.69411226425001
 30
0.0
  0
VERTEX
  5
59B
  8
T3_PROFILE_OUTSIDE
 10
2.538438893068434
 20
89.69508768457864
 30
0.0
  0
VERTEX
  5
59C
  8
T3_PROFILE_OUTSIDE
 10
2.519239362895788
 20
89.69567550833821
 30
0.0
  0
VERTEX
  5
59D
  8
T3_PROFILE_OUTSIDE
 10
2.500031077550176
 20
89.69587222885275
 30
0.0
  0
VERTEX
  5
59E
  8
T3_PROFILE_OUTSIDE
 10
1.000031077550176
 20
89.69587222885275
 30
0.0
  0
VERTEX
  5
59F
  8
T3_PROFILE_OUTSIDE
 10
0.9808230000722504
 20
89.69567552224487
 30
0.0
  0
VERTEX
  5
5A0
  8
T3_PROFILE_OUTSIDE
 10
0.9616236989836588
 20
89.69508773995697
 30
0.0
  0
VERTEX
  5
5A1
  8
T3_PROFILE_OUTSIDE
 10
0.9424382537298146
 20
89.6941123882927
 30
0.0
  0
VERTEX
  5
5A2
  8
T3_PROFILE_OUTSIDE
 10
0.9232717437561315
 20
89.69275297355566
 30
0.0
  0
VERTEX
  5
5A3
  8
T3_PROFILE_OUTSIDE
 10
0.904129248508023
 20
89.69101300204946
 30
0.0
  0
VERTEX
  5
5A4
  8
T3_PROFILE_OUTSIDE
 10
0.8850158474309027
 20
89.68889598007772
 30
0.0
  0
VERTEX
  5
5A5
  8
T3_PROFILE_OUTSIDE
 10
0.8659366199701842
 20
89.68640541394406
 30
0.0
  0
VERTEX
  5
5A6
  8
T3_PROFILE_OUTSIDE
 10
0.8468966455712811
 20
89.6835448099521
 30
0.0
  0
VERTEX
  5
5A7
  8
T3_PROFILE_OUTSIDE
 10
0.827901003679607
 20
89.68031767440546
 30
0.0
  0
VERTEX
  5
5A8
  8
T3_PROFILE_OUTSIDE
 10
0.8089547737405751
 20
89.67672751360776
 30
0.0
  0
VERTEX
  5
5A9
  8
T3_PROFILE_OUTSIDE
 10
0.7900630351995994
 20
89.67277783386261
 30
0.0
  0
VERTEX
  5
5AA
  8
T3_PROFILE_OUTSIDE
 10
0.7712308675020932
 20
89.66847214147364
 30
0.0
  0
VERTEX
  5
5AB
  8
T3_PROFILE_OUTSIDE
 10
0.7524633500934704
 20
89.66381394274447
 30
0.0
  0
VERTEX
  5
5AC
  8
T3_PROFILE_OUTSIDE
 10
0.7337655624191444
 20
89.6588067439787
 30
0.0
  0
VERTEX
  5
5AD
  8
T3_PROFILE_OUTSIDE
 10
0.7151425839245287
 20
89.65345405147997
 30
0.0
  0
VERTEX
  5
5AE
  8
T3_PROFILE_OUTSIDE
 10
0.6965994940550368
 20
89.64775937155186
 30
0.0
  0
VERTEX
  5
5AF
  8
T3_PROFILE_OUTSIDE
 10
0.6781413722560825
 20
89.64172621049802
 30
0.0
  0
VERTEX
  5
5B0
  8
T3_PROFILE_OUTSIDE
 10
0.6597732979730794
 20
89.63535807462208
 30
0.0
  0
VERTEX
  5
5B1
  8
T3_PROFILE_OUTSIDE
 10
0.6415003506514408
 20
89.62865847022763
 30
0.0
  0
VERTEX
  5
5B2
  8
T3_PROFILE_OUTSIDE
 10
0.6233276097365804
 20
89.62163090361832
 30
0.0
  0
VERTEX
  5
5B3
  8
T3_PROFILE_OUTSIDE
 10
0.6052601546739118
 20
89.61427888109773
 30
0.0
  0
VERTEX
  5
5B4
  8
T3_PROFILE_OUTSIDE
 10
0.5873030649088486
 20
89.60660590896951
 30
0.0
  0
VERTEX
  5
5B5
  8
T3_PROFILE_OUTSIDE
 10
0.5694614198868044
 20
89.59861549353727
 30
0.0
  0
VERTEX
  5
5B6
  8
T3_PROFILE_OUTSIDE
 10
0.5517402990531929
 20
89.59031114110462
 30
0.0
  0
VERTEX
  5
5B7
  8
T3_PROFILE_OUTSIDE
 10
0.5341447818534273
 20
89.58169635797519
 30
0.0
  0
VERTEX
  5
5B8
  8
T3_PROFILE_OUTSIDE
 10
0.5166799477329214
 20
89.57277465045259
 30
0.0
  0
VERTEX
  5
5B9
  8
T3_PROFILE_OUTSIDE
 10
0.4993508761370886
 20
89.56354952484043
 30
0.0
  0
VERTEX
  5
5BA
  8
T3_PROFILE_OUTSIDE
 10
0.4821626465113428
 20
89.55402448744233
 30
0.0
  0
VERTEX
  5
5BB
  8
T3_PROFILE_OUTSIDE
 10
0.4651203383010972
 20
89.54420304456193
 30
0.0
  0
VERTEX
  5
5BC
  8
T3_PROFILE_OUTSIDE
 10
0.4482290309517657
 20
89.53408870250283
 30
0.0
  0
VERTEX
  5
5BD
  8
T3_PROFILE_OUTSIDE
 10
0.4314938039087617
 20
89.52368496756866
 30
0.0
  0
VERTEX
  5
5BE
  8
T3_PROFILE_OUTSIDE
 10
0.4149197366174988
 20
89.51299534606302
 30
0.0
  0
VERTEX
  5
5BF
  8
T3_PROFILE_OUTSIDE
 10
0.3985119085233906
 20
89.50202334428954
 30
0.0
  0
VERTEX
  5
5C0
  8
T3_PROFILE_OUTSIDE
 10
0.3822753990718506
 20
89.49077246855185
 30
0.0
  0
VERTEX
  5
5C1
  8
T3_PROFILE_OUTSIDE
 10
0.3662152877082925
 20
89.47924622515356
 30
0.0
  0
VERTEX
  5
5C2
  8
T3_PROFILE_OUTSIDE
 10
0.3503366538781297
 20
89.46744812039826
 30
0.0
  0
VERTEX
  5
5C3
  8
T3_PROFILE_OUTSIDE
 10
0.334644577026776
 20
89.4553816605896
 30
0.0
  0
VERTEX
  5
5C4
  8
T3_PROFILE_OUTSIDE
 10
0.3191441365996448
 20
89.4430503520312
 30
0.0
  0
VERTEX
  5
5C5
  8
T3_PROFILE_OUTSIDE
 10
0.3038404120421497
 20
89.43045770102667
 30
0.0
  0
VERTEX
  5
5C6
  8
T3_PROFILE_OUTSIDE
 10
0.2887384827997043
 20
89.41760721387962
 30
0.0
  0
VERTEX
  5
5C7
  8
T3_PROFILE_OUTSIDE
 10
0.2738434283177221
 20
89.40450239689368
 30
0.0
  0
VERTEX
  5
5C8
  8
T3_PROFILE_OUTSIDE
 10
0.2591603280416169
 20
89.39114675637246
 30
0.0
  0
VERTEX
  5
5C9
  8
T3_PROFILE_OUTSIDE
 10
0.244694261416802
 20
89.37754379861958
 30
0.0
  0
VERTEX
  5
5CA
  8
T3_PROFILE_OUTSIDE
 10
0.2304503078886911
 20
89.36369702993866
 30
0.0
  0
VERTEX
  5
5CB
  8
T3_PROFILE_OUTSIDE
 10
0.2164335469026978
 20
89.34960995663333
 30
0.0
  0
VERTEX
  5
5CC
  8
T3_PROFILE_OUTSIDE
 10
0.2026490579042356
 20
89.3352860850072
 30
0.0
  0
VERTEX
  5
5CD
  8
T3_PROFILE_OUTSIDE
 10
0.1891019203387181
 20
89.32072892136388
 30
0.0
  0
VERTEX
  5
5CE
  8
T3_PROFILE_OUTSIDE
 10
0.1757972136515589
 20
89.30594197200699
 30
0.0
  0
VERTEX
  5
5CF
  8
T3_PROFILE_OUTSIDE
 10
0.1627400172881715
 20
89.29092874324016
 30
0.0
  0
VERTEX
  5
5D0
  8
T3_PROFILE_OUTSIDE
 10
0.1499354106939696
 20
89.275692741367
 30
0.0
  0
VERTEX
  5
5D1
  8
T3_PROFILE_OUTSIDE
 10
0.1373884733143667
 20
89.26023747269113
 30
0.0
  0
VERTEX
  5
5D2
  8
T3_PROFILE_OUTSIDE
 10
0.1251042845947763
 20
89.24456644351616
 30
0.0
  0
VERTEX
  5
5D3
  8
T3_PROFILE_OUTSIDE
 10
0.1130879239806122
 20
89.22868316014574
 30
0.0
  0
VERTEX
  5
5D4
  8
T3_PROFILE_OUTSIDE
 10
0.1013444709172877
 20
89.21259112888343
 30
0.0
  0
VERTEX
  5
5D5
  8
T3_PROFILE_OUTSIDE
 10
0.0898790048502165
 20
89.1962938560329
 30
0.0
  0
VERTEX
  5
5D6
  8
T3_PROFILE_OUTSIDE
 10
0.0786966052248123
 20
89.17979484789777
 30
0.0
  0
VERTEX
  5
5D7
  8
T3_PROFILE_OUTSIDE
 10
0.0678023514864884
 20
89.16309761078162
 30
0.0
  0
VERTEX
  5
5D8
  8
T3_PROFILE_OUTSIDE
 10
0.0572013230806586
 20
89.1462056509881
 30
0.0
  0
VERTEX
  5
5D9
  8
T3_PROFILE_OUTSIDE
 10
0.0468985994527363
 20
89.1291224748208
 30
0.0
  0
VERTEX
  5
5DA
  8
T3_PROFILE_OUTSIDE
 10
0.0368992600481352
 20
89.11185158858336
 30
0.0
  0
VERTEX
  5
5DB
  8
T3_PROFILE_OUTSIDE
 10
0.0272083843122689
 20
89.0943964985794
 30
0.0
  0
VERTEX
  5
5DC
  8
T3_PROFILE_OUTSIDE
 10
0.0178310516905509
 20
89.07676071111251
 30
0.0
  0
VERTEX
  5
5DD
  8
T3_PROFILE_OUTSIDE
 10
0.0087723416283947
 20
89.05894773248635
 30
0.0
  0
VERTEX
  5
5DE
  8
T3_PROFILE_OUTSIDE
 10
0.000037333571214
 20
89.04096106900451
 30
0.0
  0
SEQEND
  5
5FE
  8
T3_PROFILE_OUTSIDE
  0
POLYLINE
  5
7F
  8
T5_BEVEL_OUTSIDE
 66
     1
 10
0.0
 20
0.0
 30
0.0
  0
VERTEX
  5
5DF
  8
T5_BEVEL_OUTSIDE
 10
3.5
 20
29.1041
 30
0.0
  0
VERTEX
  5
5E0
  8
T5_BEVEL_OUTSIDE
 10
0.0
 20
29.1041
 30
0.0
  0
SEQEND
  5
5FF
  8
T5_BEVEL_OUTSIDE
  0
POLYLINE
  5
80
  8
T5_BEVEL_OUTSIDE
 66
     1
 10
0.0
 20
0.0
 30
0.0
  0
VERTEX
  5
5E1
  8
T5_BEVEL_OUTSIDE
 10
0.0
 20
5.1041
 30
0.0
  0
VERTEX
  5
5E2
  8
T5_BEVEL_OUTSIDE
 10
3.5
 20
5.1041
 30
0.0
  0
SEQEND
  5
600
  8
T5_BEVEL_OUTSIDE
  0
POLYLINE
  5
81
  8
T5_BEVEL_OUTSIDE
 66
     1
 10
0.0
 20
0.0
 30
0.0
  0
VERTEX
  5
5E3
  8
T5_BEVEL_OUTSIDE
 10
0.0
 20
29.5041
 30
0.0
  0
VERTEX
  5
5E4
  8
T5_BEVEL_OUTSIDE
 10
3.500000000000028
 20
29.5041
 30
0.0
  0
SEQEND
  5
601
  8
T5_BEVEL_OUTSIDE
  0
POLYLINE
  5
82
  8
T5_BEVEL_OUTSIDE
 66
     1
 10
0.0
 20
0.0
 30
0.0
  0
VERTEX
  5
5E5
  8
T5_BEVEL_OUTSIDE
 10
3.500000000000028
 20
77.5041000000001
 30
0.0
  0
VERTEX
  5
5E6
  8
T5_BEVEL_OUTSIDE
 10
0.0
 20
77.5041000000001
 30
0.0
  0
SEQEND
  5
602
  8
T5_BEVEL_OUTSIDE
  0
POLYLINE
  5
83
  8
T5_BEVEL_OUTSIDE
 66
     1
 10
0.0
 20
0.0
 30
0.0
  0
VERTEX
  5
5E7
  8
T5_BEVEL_OUTSIDE
 10
0.000031077550176
 20
77.94989597282003
 30
0.0
  0
VERTEX
  5
5E8
  8
T5_BEVEL_OUTSIDE
 10
3.500031077550176
 20
77.94989597282003
 30
0.0
  0
SEQEND
  5
603
  8
T5_BEVEL_OUTSIDE
  0
POLYLINE
  5
85
  8
REAR_LEG
 66
     1
 10
0.0
 20
0.0
 30
0.0
 70
     1
  0
VERTEX
  5
5E9
  8
REAR_LEG
 10
1.75
 20
65.50408611442637
 30
0.0
 42
0.4142135623730951
  0
VERTEX
  5
5EA
  8
REAR_LEG
 10
1.625
 20
65.37908611442637
 30
0.0
 42
0.4142135623730951
  0
VERTEX
  5
5EB
  8
REAR_LEG
 10
1.75
 20
65.25408611442637
 30
0.0
 42
0.4142135623730951
  0
VERTEX
  5
5EC
  8
REAR_LEG
 10
1.875
 20
65.37908611442637
 30
0.0
 42
0.4142135623730951
  0
SEQEND
  5
604
  8
REAR_LEG
  0
POLYLINE
  5
86
  8
REAR_LEG
 66
     1
 10
0.0
 20
0.0
 30
0.0
 70
     1
  0
VERTEX
  5
5ED
  8
REAR_LEG
 10
1.75
 20
41.75408611442637
 30
0.0
 42
0.4142135623730951
  0
VERTEX
  5
5EE
  8
REAR_LEG
 10
1.625
 20
41.62908611442637
 30
0.0
 42
0.4142135623730951
  0
VERTEX
  5
5EF
  8
REAR_LEG
 10
1.75
 20
41.50408611442637
 30
0.0
 42
0.4142135623730951
  0
VERTEX
  5
5F0
  8
REAR_LEG
 10
1.875
 20
41.62908611442637
 30
0.0
 42
0.4142135623730951
  0
SEQEND
  5
605
  8
REAR_LEG
  0
ENDSEC
  0
EOF
