  0
SECTION
  2
HEADER
  9
$ACADVER
  1
AC1009
  9
$DWGCODEPAGE
  3
ansi_1252
  9
$INSBASE
 10
0.0
 20
0.0
 30
0.0
  9
$EXTMIN
 10
0.0
 20
2.1103
 30
0.0
  9
$EXTMAX
 10
3.502042628508853
 20
92.88964782608696
 30
0.0
  9
$LIMMIN
 10
0.0
 20
0.0
  9
$LIMMAX
 10
12.0
 20
9.0
  9
$ORTHOMODE
 70
     0
  9
$REGENMODE
 70
     1
  9
$FILLMODE
 70
     1
  9
$QTEXTMODE
 70
     0
  9
$MIRRTEXT
 70
     1
  9
$DRAGMODE
 70
     2
  9
$LTSCALE
 40
1.0
  9
$OSMODE
 70
    37
  9
$ATTMODE
 70
     1
  9
$TEXTSIZE
 40
0.2
  9
$TRACEWID
 40
0.05
  9
$TEXTSTYLE
  7
STANDARD
  9
$CLAYER
  8
0
  9
$CELTYPE
  6
BYLAYER
  9
$CECOLOR
 62
   256
  9
$DIMSCALE
 40
1.0
  9
$DIMASZ
 40
0.18
  9
$DIMEXO
 40
0.0625
  9
$DIMDLI
 40
0.38
  9
$DIMRND
 40
0.0
  9
$DIMDLE
 40
0.0
  9
$DIMEXE
 40
0.18
  9
$DIMTP
 40
0.0
  9
$DIMTM
 40
0.0
  9
$DIMTXT
 40
0.18
  9
$DIMCEN
 40
0.09
  9
$DIMTSZ
 40
0.0
  9
$DIMTOL
 70
     0
  9
$DIMLIM
 70
     0
  9
$DIMTIH
 70
     1
  9
$DIMTOH
 70
     1
  9
$DIMSE1
 70
     0
  9
$DIMSE2
 70
     0
  9
$DIMTAD
 70
     0
  9
$DIMZIN
 70
     0
  9
$DIMBLK
  1

  9
$DIMASO
 70
     1
  9
$DIMSHO
 70
     1
  9
$DIMPOST
  1

  9
$DIMAPOST
  1

  9
$DIMALT
 70
     0
  9
$DIMALTD
 70
     2
  9
$DIMALTF
 40
25.4
  9
$DIMLFAC
 40
1.0
  9
$DIMTOFL
 70
     0
  9
$DIMTVP
 40
0.0
  9
$DIMTIX
 70
     0
  9
$DIMSOXD
 70
     0
  9
$DIMSAH
 70
     0
  9
$DIMBLK1
  1

  9
$DIMBLK2
  1

  9
$DIMSTYLE
  2
STANDARD
  9
$DIMCLRD
 70
     0
  9
$DIMCLRE
 70
     0
  9
$DIMCLRT
 70
     0
  9
$DIMTFAC
 40
1.0
  9
$DIMGAP
 40
0.09
  9
$LUNITS
 70
     2
  9
$LUPREC
 70
     4
  9
$SKETCHINC
 40
0.1
  9
$FILLETRAD
 40
0.5
  9
$AUNITS
 70
     0
  9
$AUPREC
 70
     0
  9
$MENU
  1
.
  9
$ELEVATION
 40
0.0
  9
$PELEVATION
 40
0.0
  9
$THICKNESS
 40
0.0
  9
$LIMCHECK
 70
     0
  9
$CHAMFERA
 40
0.0
  9
$CHAMFERB
 40
0.0
  9
$SKPOLY
 70
     0
  9
$TDCREATE
 40
2454910.5
  9
$TDUPDATE
 40
2461252.030593137
  9
$TDINDWG
 40
0.0000000116
  9
$TDUSRTIMER
 40
0.0000000116
  9
$USRTIMER
 70
     1
  9
$ANGBASE
 50
0.0
  9
$ANGDIR
 70
     0
  9
$PDMODE
 70
     0
  9
$PDSIZE
 40
0.0
  9
$PLINEWID
 40
0.0
  9
$COORDS
 70
     1
  9
$SPLFRAME
 70
     0
  9
$SPLINETYPE
 70
     6
  9
$SPLINESEGS
 70
     8
  9
$ATTDIA
 70
     0
  9
$ATTREQ
 70
     1
  9
$HANDLING
 70
     1
  9
$HANDSEED
  5
1B8
  9
$SURFTAB1
 70
     6
  9
$SURFTAB2
 70
     6
  9
$SURFTYPE
 70
     6
  9
$SURFU
 70
     6
  9
$SURFV
 70
     6
  9
$UCSNAME
  2

  9
$UCSORG
 10
0.0
 20
0.0
 30
0.0
  9
$UCSXDIR
 10
1.0
 20
0.0
 30
0.0
  9
$UCSYDIR
 10
0.0
 20
1.0
 30
0.0
  9
$PUCSNAME
  2

  9
$PUCSORG
 10
0.0
 20
0.0
 30
0.0
  9
$PUCSXDIR
 10
1.0
 20
0.0
 30
0.0
  9
$PUCSYDIR
 10
0.0
 20
1.0
 30
0.0
  9
$USERI1
 70
     0
  9
$USERI2
 70
     0
  9
$USERI3
 70
     0
  9
$USERI4
 70
     0
  9
$USERI5
 70
     0
  9
$USERR1
 40
0.0
  9
$USERR2
 40
0.0
  9
$USERR3
 40
0.0
  9
$USERR4
 40
0.0
  9
$USERR5
 40
0.0
  9
$WORLDVIEW
 70
     1
  9
$SHADEDGE
 70
     3
  9
$SHADEDIF
 70
    70
  9
$TILEMODE
 70
     1
  9
$MAXACTVP
 70
    64
  9
$PLIMCHECK
 70
     0
  9
$PEXTMIN
 10
1.000000000000000E+20
 20
1.000000000000000E+20
 30
1.000000000000000E+20
  9
$PEXTMAX
 10
-1.000000000000000E+20
 20
-1.000000000000000E+20
 30
-1.000000000000000E+20
  9
$PLIMMIN
 10
0.0
 20
0.0
  9
$PLIMMAX
 10
12.0
 20
9.0
  9
$UNITMODE
 70
     0
  9
$VISRETAIN
 70
     1
  9
$PLINEGEN
 70
     0
  9
$PSLTSCALE
 70
     1
  0
ENDSEC
  0
SECTION
  2
TABLES
  0
TABLE
  2
VPORT
 70
     1
  0
VPORT
  2
*ACTIVE
 70
     0
 10
0.0
 20
0.0
 11
1.0
 21
1.0
 12
10.42990654205607
 22
4.5
 13
0.0
 23
0.0
 14
0.5
 24
0.5
 15
0.5
 25
0.5
 16
0.0
 26
0.0
 36
1.0
 17
0.0
 27
0.0
 37
0.0
 40
9.0
 41
1.972972972850329
 42
50.0
 43
0.0
 44
0.0
 50
0.0
 51
0.0
 71
     0
 72
   100
 73
     1
 74
     3
 75
     0
 76
     0
 77
     0
 78
     0
  0
ENDTAB
  0
TABLE
  2
LTYPE
 70
     2
  0
LTYPE
  2
CONTINUOUS
 70
     0
  3
Solid line
 72
    65
 73
     0
 40
0.0
  0
LTYPE
  2
CONTINUOUS2
 70
     0
  3
Solid Line
 72
    65
 73
     0
 40
0.0
  0
ENDTAB
  0
TABLE
  2
LAYER
 70
     5
  0
LAYER
  2
0
 70
     0
 62
     7
  6
CONTINUOUS
  0
LAYER
  2
T10_COUNTERSINK
 70
     0
 62
    18
  6
CONTINUOUS
  0
LAYER
  2
T8_DRILL
 70
     0
 62
    18
  6
CONTINUOUS
  0
LAYER
  2
T3_PROFILE_INSIDE
 70
     0
 62
    18
  6
CONTINUOUS
  0
LAYER
  2
T3_PROFILE_OUTSIDE
 70
     0
 62
    18
  6
CONTINUOUS
  0
ENDTAB
  0
TABLE
  2
STYLE
 70
     1
  0
STYLE
  2
STANDARD
 70
     0
 40
0.0
 41
1.0
 50
0.0
 71
     0
 42
0.2
  3
txt
  4

  0
ENDTAB
  0
TABLE
  2
VIEW
 70
     0
  0
ENDTAB
  0
TABLE
  2
UCS
 70
     0
  0
ENDTAB
  0
TABLE
  2
APPID
 70
     1
  0
APPID
  2
ACAD
 70
     0
  0
ENDTAB
  0
TABLE
  2
DIMSTYLE
 70
     1
  0
DIMSTYLE
  2
STANDARD
 70
     0
  3

  4

  5

  6

  7

 40
1.0
 41
0.18
 42
0.0625
 43
0.38
 44
0.18
 45
0.0
 46
0.0
 47
0.0
 48
0.0
140
0.18
141
0.09
142
0.0
143
25.4
144
1.0
145
0.0
146
1.0
147
0.09
 71
     0
 72
     0
 73
     1
 74
     1
 75
     0
 76
     0
 77
     0
 78
     0
170
     0
171
     2
172
     0
173
     0
174
     0
175
     0
176
     0
177
     0
178
     0
  0
ENDTAB
  0
ENDSEC
  0
SECTION
  2
BLOCKS
  0
BLOCK
  8
0
  2
$MODEL_SPACE
 70
     0
 10
0.0
 20
0.0
 30
0.0
  3
$MODEL_SPACE
  1

  0
ENDBLK
  5
21
  8
0
  0
BLOCK
 67
     1
  8
0
  2
$PAPER_SPACE
 70
     0
 10
0.0
 20
0.0
 30
0.0
  3
$PAPER_SPACE
  1

  0
ENDBLK
  5
1D
 67
     1
  8
0
  0
ENDSEC
  0
SECTION
  2
ENTITIES
  0
POLYLINE
  5
70
  8
T10_COUNTERSINK
 66
     1
 10
0.0
 20
0.0
 30
0.0
 70
     1
  0
VERTEX
  5
86
  8
T10_COUNTERSINK
 10
0.9627569148495141
 20
3.648794712579922
 30
0.0
 42
0.4142135623730951
  0
VERTEX
  5
87
  8
T10_COUNTERSINK
 10
0.9002569148495141
 20
3.586294712579922
 30
0.0
 42
0.4142135623730951
  0
VERTEX
  5
88
  8
T10_COUNTERSINK
 10
0.9627569148495141
 20
3.523794712579922
 30
0.0
 42
0.4142135623730951
  0
VERTEX
  5
89
  8
T10_COUNTERSINK
 10
1.025256914849514
 20
3.586294712579922
 30
0.0
 42
0.4142135623730951
  0
SEQEND
  5
1AC
  8
T10_COUNTERSINK
  0
POLYLINE
  5
71
  8
T10_COUNTERSINK
 66
     1
 10
0.0
 20
0.0
 30
0.0
 70
     1
  0
VERTEX
  5
8A
  8
T10_COUNTERSINK
 10
2.539285713659339
 20
3.196753113507051
 30
0.0
 42
0.4142135623730951
  0
VERTEX
  5
8B
  8
T10_COUNTERSINK
 10
2.476785713659339
 20
3.134253113507037
 30
0.0
 42
0.4142135623730951
  0
VERTEX
  5
8C
  8
T10_COUNTERSINK
 10
2.539285713659339
 20
3.071753113507037
 30
0.0
 42
0.4142135623730951
  0
VERTEX
  5
8D
  8
T10_COUNTERSINK
 10
2.601785713659339
 20
3.134253113507037
 30
0.0
 42
0.4142135623730951
  0
SEQEND
  5
1AD
  8
T10_COUNTERSINK
  0
POLYLINE
  5
73
  8
T8_DRILL
 66
     1
 10
0.0
 20
0.0
 30
0.0
 70
     1
  0
VERTEX
  5
8E
  8
T8_DRILL
 10
0.7881764655792267
 20
74.08805939369763
 30
0.0
  0
VERTEX
  5
8F
  8
T8_DRILL
 10
0.7787359184470601
 20
74.09006866284444
 30
0.0
  0
VERTEX
  5
90
  8
T8_DRILL
 10
0.7695079500278786
 20
74.09252664037665
 30
0.0
  0
VERTEX
  5
91
  8
T8_DRILL
 10
0.7605019801396276
 20
74.09541958607204
 30
0.0
  0
VERTEX
  5
92
  8
T8_DRILL
 10
0.7517274286002528
 20
74.0987337597084
 30
0.0
  0
VERTEX
  5
93
  8
T8_DRILL
 10
0.7431937152276995
 20
74.1024554210635
 30
0.0
  0
VERTEX
  5
94
  8
T8_DRILL
 10
0.7349102598399134
 20
74.10657082991514
 30
0.0
  0
VERTEX
  5
95
  8
T8_DRILL
 10
0.72688648225484
 20
74.1110662460411
 30
0.0
  0
VERTEX
  5
96
  8
T8_DRILL
 10
0.719131802290425
 20
74.11592792921915
 30
0.0
  0
VERTEX
  5
97
  8
T8_DRILL
 10
0.7116556397646138
 20
74.12114213922709
 30
0.0
  0
VERTEX
  5
98
  8
T8_DRILL
 10
0.7044674144953518
 20
74.12669513584271
 30
0.0
  0
VERTEX
  5
99
  8
T8_DRILL
 10
0.6975765463005849
 20
74.1325731788438
 30
0.0
  0
VERTEX
  5
9A
  8
T8_DRILL
 10
0.6909924549982585
 20
74.13876252800813
 30
0.0
  0
VERTEX
  5
9B
  8
T8_DRILL
 10
0.684724560406318
 20
74.14524944311349
 30
0.0
  0
VERTEX
  5
9C
  8
T8_DRILL
 10
0.6787822823427092
 20
74.15202018393765
 30
0.0
  0
VERTEX
  5
9D
  8
T8_DRILL
 10
0.6731750406253775
 20
74.15906101025841
 30
0.0
  0
VERTEX
  5
9E
  8
T8_DRILL
 10
0.6679122550722685
 20
74.16635818185355
 30
0.0
  0
VERTEX
  5
9F
  8
T8_DRILL
 10
0.6630033455013277
 20
74.17389795850086
 30
0.0
  0
VERTEX
  5
A0
  8
T8_DRILL
 10
0.6584577317305006
 20
74.18166659997813
 30
0.0
  0
VERTEX
  5
A1
  8
T8_DRILL
 10
0.6542848335777329
 20
74.18965036606312
 30
0.0
  0
VERTEX
  5
A2
  8
T8_DRILL
 10
0.6504940708609701
 20
74.19783551653364
 30
0.0
  0
VERTEX
  5
A3
  8
T8_DRILL
 10
0.6470948633981576
 20
74.20620831116746
 30
0.0
  0
VERTEX
  5
A4
  8
T8_DRILL
 10
0.6440966310072411
 20
74.21475500974236
 30
0.0
  0
VERTEX
  5
A5
  8
T8_DRILL
 10
0.6415087935061662
 20
74.22346187203614
 30
0.0
  0
VERTEX
  5
A6
  8
T8_DRILL
 10
0.6393407707128784
 20
74.23231515782658
 30
0.0
  0
VERTEX
  5
A7
  8
T8_DRILL
 10
0.6376019824453232
 20
74.24130112689146
 30
0.0
  0
VERTEX
  5
A8
  8
T8_DRILL
 10
0.6363018485214461
 20
74.25040603900857
 30
0.0
  0
VERTEX
  5
A9
  8
T8_DRILL
 10
0.6354497887591927
 20
74.25961615395569
 30
0.0
  0
VERTEX
  5
AA
  8
T8_DRILL
 10
0.6350552229765086
 20
74.26891773151061
 30
0.0
  0
VERTEX
  5
AB
  8
T8_DRILL
 10
0.6351275709913394
 20
74.2782970314511
 30
0.0
  0
VERTEX
  5
AC
  8
T8_DRILL
 10
0.6356762526216304
 20
74.28774031355496
 30
0.0
  0
VERTEX
  5
AD
  8
T8_DRILL
 10
0.6367106876853275
 20
74.29723383759998
 30
0.0
  0
VERTEX
  5
AE
  8
T8_DRILL
 10
0.6382402960003759
 20
74.30676386336393
 30
0.0
  0
VERTEX
  5
AF
  8
T8_DRILL
 10
0.6402495651471904
 20
74.3162044104961
 30
0.0
  0
VERTEX
  5
B0
  8
T8_DRILL
 10
0.6427075426794009
 20
74.32543237891528
 30
0.0
  0
VERTEX
  5
B1
  8
T8_DRILL
 10
0.6456004883747919
 20
74.33443834880353
 30
0.0
  0
VERTEX
  5
B2
  8
T8_DRILL
 10
0.6489146620111481
 20
74.34321290034292
 30
0.0
  0
VERTEX
  5
B3
  8
T8_DRILL
 10
0.6526363233662542
 20
74.35174661371548
 30
0.0
  0
VERTEX
  5
B4
  8
T8_DRILL
 10
0.6567517322178948
 20
74.36003006910326
 30
0.0
  0
VERTEX
  5
B5
  8
T8_DRILL
 10
0.6612471483438547
 20
74.36805384668835
 30
0.0
  0
VERTEX
  5
B6
  8
T8_DRILL
 10
0.6661088315219182
 20
74.37580852665278
 30
0.0
  0
VERTEX
  5
B7
  8
T8_DRILL
 10
0.6713230415298703
 20
74.38328468917857
 30
0.0
  0
VERTEX
  5
B8
  8
T8_DRILL
 10
0.6768760381454955
 20
74.39047291444784
 30
0.0
  0
VERTEX
  5
B9
  8
T8_DRILL
 10
0.6827540811465783
 20
74.39736378264263
 30
0.0
  0
VERTEX
  5
BA
  8
T8_DRILL
 10
0.6889434303109035
 20
74.40394787394496
 30
0.0
  0
VERTEX
  5
BB
  8
T8_DRILL
 10
0.6954303454162558
 20
74.4102157685369
 30
0.0
  0
VERTEX
  5
BC
  8
T8_DRILL
 10
0.7022010862404197
 20
74.41615804660051
 30
0.0
  0
VERTEX
  5
BD
  8
T8_DRILL
 10
0.70924191256118
 20
74.42176528831784
 30
0.0
  0
VERTEX
  5
BE
  8
T8_DRILL
 10
0.7165390841563211
 20
74.42702807387096
 30
0.0
  0
VERTEX
  5
BF
  8
T8_DRILL
 10
0.7240788608036277
 20
74.4319369834419
 30
0.0
  0
VERTEX
  5
C0
  8
T8_DRILL
 10
0.7318475022808847
 20
74.43648259721272
 30
0.0
  0
VERTEX
  5
C1
  8
T8_DRILL
 10
0.7398312683658765
 20
74.44065549536549
 30
0.0
  0
VERTEX
  5
C2
  8
T8_DRILL
 10
0.7480164188363878
 20
74.44444625808225
 30
0.0
  0
VERTEX
  5
C3
  8
T8_DRILL
 10
0.7563892134702033
 20
74.44784546554507
 30
0.0
  0
VERTEX
  5
C4
  8
T8_DRILL
 10
0.7649359120451076
 20
74.450843697936
 30
0.0
  0
VERTEX
  5
C5
  8
T8_DRILL
 10
0.7736427743388852
 20
74.45343153543706
 30
0.0
  0
VERTEX
  5
C6
  8
T8_DRILL
 10
0.7824960601293208
 20
74.45559955823036
 30
0.0
  0
VERTEX
  5
C7
  8
T8_DRILL
 10
0.7914820291941993
 20
74.45733834649792
 30
0.0
  0
VERTEX
  5
C8
  8
T8_DRILL
 10
0.800586941311305
 20
74.4586384804218
 30
0.0
  0
VERTEX
  5
C9
  8
T8_DRILL
 10
0.8097970562584227
 20
74.45949054018405
 30
0.0
  0
VERTEX
  5
CA
  8
T8_DRILL
 10
0.8190986338133373
 20
74.45988510596675
 30
0.0
  0
VERTEX
  5
CB
  8
T8_DRILL
 10
0.8284779337538329
 20
74.45981275795191
 30
0.0
  0
VERTEX
  5
CC
  8
T8_DRILL
 10
0.8379212158576945
 20
74.45926407632162
 30
0.0
  0
VERTEX
  5
CD
  8
T8_DRILL
 10
0.8474147399027065
 20
74.45822964125793
 30
0.0
  0
VERTEX
  5
CE
  8
T8_DRILL
 10
0.856944765666654
 20
74.45670003294288
 30
0.0
  0
VERTEX
  5
CF
  8
T8_DRILL
 10
0.8663853127988288
 20
74.45469076379608
 30
0.0
  0
VERTEX
  5
D0
  8
T8_DRILL
 10
0.875613281218018
 20
74.45223278626388
 30
0.0
  0
VERTEX
  5
D1
  8
T8_DRILL
 10
0.8846192511062759
 20
74.4493398405685
 30
0.0
  0
VERTEX
  5
D2
  8
T8_DRILL
 10
0.8933938026456573
 20
74.44602566693214
 30
0.0
  0
VERTEX
  5
D3
  8
T8_DRILL
 10
0.9019275160182163
 20
74.44230400557703
 30
0.0
  0
VERTEX
  5
D4
  8
T8_DRILL
 10
0.9102109714060076
 20
74.43818859672541
 30
0.0
  0
VERTEX
  5
D5
  8
T8_DRILL
 10
0.9182347489910856
 20
74.43369318059945
 30
0.0
  0
VERTEX
  5
D6
  8
T8_DRILL
 10
0.9259894289555047
 20
74.42883149742138
 30
0.0
  0
VERTEX
  5
D7
  8
T8_DRILL
 10
0.9334655914813195
 20
74.42361728741344
 30
0.0
  0
VERTEX
  5
D8
  8
T8_DRILL
 10
0.9406538167505846
 20
74.41806429079779
 30
0.0
  0
VERTEX
  5
D9
  8
T8_DRILL
 10
0.9475446849453542
 20
74.4121862477967
 30
0.0
  0
VERTEX
  5
DA
  8
T8_DRILL
 10
0.954128776247683
 20
74.40599689863238
 30
0.0
  0
VERTEX
  5
DB
  8
T8_DRILL
 10
0.9603966708396253
 20
74.39950998352703
 30
0.0
  0
VERTEX
  5
DC
  8
T8_DRILL
 10
0.9663389489032358
 20
74.39273924270286
 30
0.0
  0
VERTEX
  5
DD
  8
T8_DRILL
 10
0.9719461906205689
 20
74.38569841638208
 30
0.0
  0
VERTEX
  5
DE
  8
T8_DRILL
 10
0.9772089761736789
 20
74.37840124478694
 30
0.0
  0
VERTEX
  5
DF
  8
T8_DRILL
 10
0.9821178857446204
 20
74.37086146813964
 30
0.0
  0
VERTEX
  5
E0
  8
T8_DRILL
 10
0.9866634995154479
 20
74.36309282666237
 30
0.0
  0
VERTEX
  5
E1
  8
T8_DRILL
 10
0.9908363976682157
 20
74.35510906057738
 30
0.0
  0
VERTEX
  5
E2
  8
T8_DRILL
 10
0.9946271603849787
 20
74.34692391010685
 30
0.0
  0
VERTEX
  5
E3
  8
T8_DRILL
 10
0.998026367847791
 20
74.33855111547302
 30
0.0
  0
VERTEX
  5
E4
  8
T8_DRILL
 10
1.001024600238707
 20
74.3300044168981
 30
0.0
  0
VERTEX
  5
E5
  8
T8_DRILL
 10
1.003612437739782
 20
74.32129755460431
 30
0.0
  0
VERTEX
  5
E6
  8
T8_DRILL
 10
1.005780460533069
 20
74.31244426881386
 30
0.0
  0
VERTEX
  5
E7
  8
T8_DRILL
 10
1.007519248800624
 20
74.30345829974898
 30
0.0
  0
VERTEX
  5
E8
  8
T8_DRILL
 10
1.0088193827245
 20
74.29435338763187
 30
0.0
  0
VERTEX
  5
E9
  8
T8_DRILL
 10
1.009671442486753
 20
74.28514327268473
 30
0.0
  0
VERTEX
  5
EA
  8
T8_DRILL
 10
1.010066008269437
 20
74.27584169512981
 30
0.0
  0
VERTEX
  5
EB
  8
T8_DRILL
 10
1.009993660254606
 20
74.26646239518931
 30
0.0
  0
VERTEX
  5
EC
  8
T8_DRILL
 10
1.009444978624314
 20
74.25701911308546
 30
0.0
  0
VERTEX
  5
ED
  8
T8_DRILL
 10
1.008410543560617
 20
74.24752558904045
 30
0.0
  0
VERTEX
  5
EE
  8
T8_DRILL
 10
1.006880935245569
 20
74.23799556327648
 30
0.0
  0
VERTEX
  5
EF
  8
T8_DRILL
 10
1.004871666098755
 20
74.22855501614433
 30
0.0
  0
VERTEX
  5
F0
  8
T8_DRILL
 10
1.002413688566546
 20
74.21932704772514
 30
0.0
  0
VERTEX
  5
F1
  8
T8_DRILL
 10
0.9995207428711552
 20
74.21032107783691
 30
0.0
  0
VERTEX
  5
F2
  8
T8_DRILL
 10
0.9962065692347991
 20
74.20154652629752
 30
0.0
  0
VERTEX
  5
F3
  8
T8_DRILL
 10
0.9924849078796927
 20
74.19301281292496
 30
0.0
  0
VERTEX
  5
F4
  8
T8_DRILL
 10
0.9883694990280516
 20
74.18472935753718
 30
0.0
  0
VERTEX
  5
F5
  8
T8_DRILL
 10
0.9838740829020911
 20
74.17670557995211
 30
0.0
  0
VERTEX
  5
F6
  8
T8_DRILL
 10
0.9790123997240264
 20
74.16895089998769
 30
0.0
  0
VERTEX
  5
F7
  8
T8_DRILL
 10
0.9737981897160731
 20
74.1614747374619
 30
0.0
  0
VERTEX
  5
F8
  8
T8_DRILL
 10
0.9682451931004464
 20
74.15428651219263
 30
0.0
  0
VERTEX
  5
F9
  8
T8_DRILL
 10
0.9623671500993618
 20
74.14739564399787
 30
0.0
  0
VERTEX
  5
FA
  8
T8_DRILL
 10
0.9561778009350346
 20
74.14081155269554
 30
0.0
  0
VERTEX
  5
FB
  8
T8_DRILL
 10
0.9496908858296802
 20
74.1345436581036
 30
0.0
  0
VERTEX
  5
FC
  8
T8_DRILL
 10
0.942920145005514
 20
74.12860138003998
 30
0.0
  0
VERTEX
  5
FD
  8
T8_DRILL
 10
0.9358793186847514
 20
74.12299413832265
 30
0.0
  0
VERTEX
  5
FE
  8
T8_DRILL
 10
0.9285821470896076
 20
74.11773135276954
 30
0.0
  0
VERTEX
  5
FF
  8
T8_DRILL
 10
0.9210423704422982
 20
74.1128224431986
 30
0.0
  0
VERTEX
  5
100
  8
T8_DRILL
 10
0.9132737289650383
 20
74.10827682942778
 30
0.0
  0
VERTEX
  5
101
  8
T8_DRILL
 10
0.9052899628800437
 20
74.104103931275
 30
0.0
  0
VERTEX
  5
102
  8
T8_DRILL
 10
0.8971048124095293
 20
74.10031316855824
 30
0.0
  0
VERTEX
  5
103
  8
T8_DRILL
 10
0.8887320177757108
 20
74.09691396109542
 30
0.0
  0
VERTEX
  5
104
  8
T8_DRILL
 10
0.8801853192008035
 20
74.0939157287045
 30
0.0
  0
VERTEX
  5
105
  8
T8_DRILL
 10
0.8714784569070226
 20
74.09132789120343
 30
0.0
  0
VERTEX
  5
106
  8
T8_DRILL
 10
0.8626251711165839
 20
74.08915986841015
 30
0.0
  0
VERTEX
  5
107
  8
T8_DRILL
 10
0.8536392020517023
 20
74.08742108014259
 30
0.0
  0
VERTEX
  5
108
  8
T8_DRILL
 10
0.8445342899345935
 20
74.08612094621873
 30
0.0
  0
VERTEX
  5
109
  8
T8_DRILL
 10
0.8353241749874725
 20
74.08526888645648
 30
0.0
  0
VERTEX
  5
10A
  8
T8_DRILL
 10
0.826022597432555
 20
74.08487432067378
 30
0.0
  0
VERTEX
  5
10B
  8
T8_DRILL
 10
0.8166432974920563
 20
74.08494666868859
 30
0.0
  0
VERTEX
  5
10C
  8
T8_DRILL
 10
0.8072000153881917
 20
74.0854953503189
 30
0.0
  0
VERTEX
  5
10D
  8
T8_DRILL
 10
0.7977064913431768
 20
74.0865297853826
 30
0.0
  0
SEQEND
  5
1AE
  8
T8_DRILL
  0
POLYLINE
  5
74
  8
T8_DRILL
 66
     1
 10
0.0
 20
0.0
 30
0.0
 70
     1
  0
VERTEX
  5
10E
  8
T8_DRILL
 10
2.64509786284215
 20
75.52184779314419
 30
0.0
  0
VERTEX
  5
10F
  8
T8_DRILL
 10
2.635657315709981
 20
75.52385706229101
 30
0.0
  0
VERTEX
  5
110
  8
T8_DRILL
 10
2.626429347290798
 20
75.5263150398232
 30
0.0
  0
VERTEX
  5
111
  8
T8_DRILL
 10
2.617423377402546
 20
75.52920798551858
 30
0.0
  0
VERTEX
  5
112
  8
T8_DRILL
 10
2.608648825863169
 20
75.53252215915495
 30
0.0
  0
VERTEX
  5
113
  8
T8_DRILL
 10
2.600115112490614
 20
75.53624382051007
 30
0.0
  0
VERTEX
  5
114
  8
T8_DRILL
 10
2.591831657102825
 20
75.54035922936168
 30
0.0
  0
VERTEX
  5
115
  8
T8_DRILL
 10
2.58380787951775
 20
75.54485464548765
 30
0.0
  0
VERTEX
  5
116
  8
T8_DRILL
 10
2.576053199553333
 20
75.5497163286657
 30
0.0
  0
VERTEX
  5
117
  8
T8_DRILL
 10
2.56857703702752
 20
75.55493053867363
 30
0.0
  0
VERTEX
  5
118
  8
T8_DRILL
 10
2.561388811758256
 20
75.56048353528925
 30
0.0
  0
VERTEX
  5
119
  8
T8_DRILL
 10
2.554497943563487
 20
75.56636157829034
 30
0.0
  0
VERTEX
  5
11A
  8
T8_DRILL
 10
2.547913852261159
 20
75.57255092745467
 30
0.0
  0
VERTEX
  5
11B
  8
T8_DRILL
 10
2.541645957669217
 20
75.57903784256003
 30
0.0
  0
VERTEX
  5
11C
  8
T8_DRILL
 10
2.535703679605607
 20
75.58580858338418
 30
0.0
  0
VERTEX
  5
11D
  8
T8_DRILL
 10
2.530096437888274
 20
75.59284940970493
 30
0.0
  0
VERTEX
  5
11E
  8
T8_DRILL
 10
2.524833652335164
 20
75.60014658130007
 30
0.0
  0
VERTEX
  5
11F
  8
T8_DRILL
 10
2.519924742764222
 20
75.60768635794737
 30
0.0
  0
VERTEX
  5
120
  8
T8_DRILL
 10
2.515379128993395
 20
75.61545499942463
 30
0.0
  0
VERTEX
  5
121
  8
T8_DRILL
 10
2.511206230840627
 20
75.62343876550962
 30
0.0
  0
VERTEX
  5
122
  8
T8_DRILL
 10
2.507415468123865
 20
75.63162391598011
 30
0.0
  0
VERTEX
  5
123
  8
T8_DRILL
 10
2.504016260661053
 20
75.63999671061391
 30
0.0
  0
VERTEX
  5
124
  8
T8_DRILL
 10
2.501018028270138
 20
75.64854340918882
 30
0.0
  0
VERTEX
  5
125
  8
T8_DRILL
 10
2.498430190769064
 20
75.6572502714826
 30
0.0
  0
VERTEX
  5
126
  8
T8_DRILL
 10
2.496262167975778
 20
75.66610355727303
 30
0.0
  0
VERTEX
  5
127
  8
T8_DRILL
 10
2.494523379708226
 20
75.67508952633791
 30
0.0
  0
VERTEX
  5
128
  8
T8_DRILL
 10
2.493223245784352
 20
75.68419443845501
 30
0.0
  0
VERTEX
  5
129
  8
T8_DRILL
 10
2.492371186022102
 20
75.69340455340212
 30
0.0
  0
VERTEX
  5
12A
  8
T8_DRILL
 10
2.491976620239422
 20
75.70270613095704
 30
0.0
  0
VERTEX
  5
12B
  8
T8_DRILL
 10
2.492048968254258
 20
75.71208543089753
 30
0.0
  0
VERTEX
  5
12C
  8
T8_DRILL
 10
2.492597649884554
 20
75.72152871300139
 30
0.0
  0
VERTEX
  5
12D
  8
T8_DRILL
 10
2.493632084948257
 20
75.7310222370464
 30
0.0
  0
VERTEX
  5
12E
  8
T8_DRILL
 10
2.495161693263313
 20
75.74055226281035
 30
0.0
  0
VERTEX
  5
12F
  8
T8_DRILL
 10
2.497170962410125
 20
75.74999280994253
 30
0.0
  0
VERTEX
  5
130
  8
T8_DRILL
 10
2.499628939942333
 20
75.75922077836171
 30
0.0
  0
VERTEX
  5
131
  8
T8_DRILL
 10
2.502521885637721
 20
75.76822674824999
 30
0.0
  0
VERTEX
  5
132
  8
T8_DRILL
 10
2.505836059274075
 20
75.77700129978936
 30
0.0
  0
VERTEX
  5
133
  8
T8_DRILL
 10
2.509557720629179
 20
75.78553501316192
 30
0.0
  0
VERTEX
  5
134
  8
T8_DRILL
 10
2.513673129480818
 20
75.79381846854972
 30
0.0
  0
VERTEX
  5
135
  8
T8_DRILL
 10
2.518168545606776
 20
75.80184224613478
 30
0.0
  0
VERTEX
  5
136
  8
T8_DRILL
 10
2.523030228784838
 20
75.8095969260992
 30
0.0
  0
VERTEX
  5
137
  8
T8_DRILL
 10
2.528244438792789
 20
75.81707308862502
 30
0.0
  0
VERTEX
  5
138
  8
T8_DRILL
 10
2.533797435408413
 20
75.8242613138943
 30
0.0
  0
VERTEX
  5
139
  8
T8_DRILL
 10
2.539675478409494
 20
75.83115218208906
 30
0.0
  0
VERTEX
  5
13A
  8
T8_DRILL
 10
2.545864827573818
 20
75.83773627339139
 30
0.0
  0
VERTEX
  5
13B
  8
T8_DRILL
 10
2.55235174267917
 20
75.84400416798333
 30
0.0
  0
VERTEX
  5
13C
  8
T8_DRILL
 10
2.559122483503333
 20
75.84994644604694
 30
0.0
  0
VERTEX
  5
13D
  8
T8_DRILL
 10
2.566163309824093
 20
75.85555368776427
 30
0.0
  0
VERTEX
  5
13E
  8
T8_DRILL
 10
2.573460481419233
 20
75.86081647331739
 30
0.0
  0
VERTEX
  5
13F
  8
T8_DRILL
 10
2.58100025806654
 20
75.86572538288833
 30
0.0
  0
VERTEX
  5
140
  8
T8_DRILL
 10
2.588768899543797
 20
75.87027099665914
 30
0.0
  0
VERTEX
  5
141
  8
T8_DRILL
 10
2.596752665628788
 20
75.87444389481192
 30
0.0
  0
VERTEX
  5
142
  8
T8_DRILL
 10
2.6049378160993
 20
75.87823465752868
 30
0.0
  0
VERTEX
  5
143
  8
T8_DRILL
 10
2.613310610733116
 20
75.8816338649915
 30
0.0
  0
VERTEX
  5
144
  8
T8_DRILL
 10
2.621857309308021
 20
75.88463209738242
 30
0.0
  0
VERTEX
  5
145
  8
T8_DRILL
 10
2.6305641716018
 20
75.88721993488349
 30
0.0
  0
VERTEX
  5
146
  8
T8_DRILL
 10
2.639417457392236
 20
75.88938795767679
 30
0.0
  0
VERTEX
  5
147
  8
T8_DRILL
 10
2.648403426457116
 20
75.89112674594435
 30
0.0
  0
VERTEX
  5
148
  8
T8_DRILL
 10
2.657508338574223
 20
75.89242687986822
 30
0.0
  0
VERTEX
  5
149
  8
T8_DRILL
 10
2.666718453521342
 20
75.89327893963048
 30
0.0
  0
VERTEX
  5
14A
  8
T8_DRILL
 10
2.676020031076258
 20
75.89367350541318
 30
0.0
  0
VERTEX
  5
14B
  8
T8_DRILL
 10
2.685399331016756
 20
75.89360115739834
 30
0.0
  0
VERTEX
  5
14C
  8
T8_DRILL
 10
2.69484261312062
 20
75.89305247576804
 30
0.0
  0
VERTEX
  5
14D
  8
T8_DRILL
 10
2.704336137165634
 20
75.89201804070436
 30
0.0
  0
VERTEX
  5
14E
  8
T8_DRILL
 10
2.713866162929584
 20
75.89048843238932
 30
0.0
  0
VERTEX
  5
14F
  8
T8_DRILL
 10
2.723306710061757
 20
75.88847916324251
 30
0.0
  0
VERTEX
  5
150
  8
T8_DRILL
 10
2.732534678480944
 20
75.88602118571029
 30
0.0
  0
VERTEX
  5
151
  8
T8_DRILL
 10
2.7415406483692
 20
75.88312824001491
 30
0.0
  0
VERTEX
  5
152
  8
T8_DRILL
 10
2.750315199908579
 20
75.87981406637854
 30
0.0
  0
VERTEX
  5
153
  8
T8_DRILL
 10
2.758848913281136
 20
75.87609240502343
 30
0.0
  0
VERTEX
  5
154
  8
T8_DRILL
 10
2.767132368668926
 20
75.87197699617178
 30
0.0
  0
VERTEX
  5
155
  8
T8_DRILL
 10
2.775156146254002
 20
75.86748158004582
 30
0.0
  0
VERTEX
  5
156
  8
T8_DRILL
 10
2.782910826218419
 20
75.86261989686776
 30
0.0
  0
VERTEX
  5
157
  8
T8_DRILL
 10
2.790386988744233
 20
75.8574056868598
 30
0.0
  0
VERTEX
  5
158
  8
T8_DRILL
 10
2.797575214013496
 20
75.85185269024416
 30
0.0
  0
VERTEX
  5
159
  8
T8_DRILL
 10
2.804466082208264
 20
75.84597464724307
 30
0.0
  0
VERTEX
  5
15A
  8
T8_DRILL
 10
2.811050173510592
 20
75.83978529807875
 30
0.0
  0
VERTEX
  5
15B
  8
T8_DRILL
 10
2.817318068102533
 20
75.83329838297341
 30
0.0
  0
VERTEX
  5
15C
  8
T8_DRILL
 10
2.823260346166142
 20
75.82652764214924
 30
0.0
  0
VERTEX
  5
15D
  8
T8_DRILL
 10
2.828867587883475
 20
75.81948681582848
 30
0.0
  0
VERTEX
  5
15E
  8
T8_DRILL
 10
2.834130373436584
 20
75.81218964423333
 30
0.0
  0
VERTEX
  5
15F
  8
T8_DRILL
 10
2.839039283007525
 20
75.80464986758601
 30
0.0
  0
VERTEX
  5
160
  8
T8_DRILL
 10
2.843584896778352
 20
75.79688122610875
 30
0.0
  0
VERTEX
  5
161
  8
T8_DRILL
 10
2.84775779493112
 20
75.78889746002376
 30
0.0
  0
VERTEX
  5
162
  8
T8_DRILL
 10
2.851548557647882
 20
75.78071230955327
 30
0.0
  0
VERTEX
  5
163
  8
T8_DRILL
 10
2.854947765110694
 20
75.77233951491947
 30
0.0
  0
VERTEX
  5
164
  8
T8_DRILL
 10
2.857945997501611
 20
75.76379281634456
 30
0.0
  0
VERTEX
  5
165
  8
T8_DRILL
 10
2.860533835002687
 20
75.75508595405077
 30
0.0
  0
VERTEX
  5
166
  8
T8_DRILL
 10
2.862701857795975
 20
75.74623266826035
 30
0.0
  0
VERTEX
  5
167
  8
T8_DRILL
 10
2.864440646063531
 20
75.73724669919547
 30
0.0
  0
VERTEX
  5
168
  8
T8_DRILL
 10
2.865740779987409
 20
75.72814178707837
 30
0.0
  0
VERTEX
  5
169
  8
T8_DRILL
 10
2.866592839749663
 20
75.71893167213126
 30
0.0
  0
VERTEX
  5
16A
  8
T8_DRILL
 10
2.866987405532349
 20
75.70963009457634
 30
0.0
  0
VERTEX
  5
16B
  8
T8_DRILL
 10
2.86691505751752
 20
75.70025079463585
 30
0.0
  0
VERTEX
  5
16C
  8
T8_DRILL
 10
2.866366375887231
 20
75.69080751253199
 30
0.0
  0
VERTEX
  5
16D
  8
T8_DRILL
 10
2.865331940823537
 20
75.68131398848699
 30
0.0
  0
VERTEX
  5
16E
  8
T8_DRILL
 10
2.863802332508492
 20
75.67178396272305
 30
0.0
  0
VERTEX
  5
16F
  8
T8_DRILL
 10
2.861793063361678
 20
75.6623434155909
 30
0.0
  0
VERTEX
  5
170
  8
T8_DRILL
 10
2.859335085829469
 20
75.6531154471717
 30
0.0
  0
VERTEX
  5
171
  8
T8_DRILL
 10
2.856442140134078
 20
75.64410947728345
 30
0.0
  0
VERTEX
  5
172
  8
T8_DRILL
 10
2.853127966497722
 20
75.63533492574408
 30
0.0
  0
VERTEX
  5
173
  8
T8_DRILL
 10
2.849406305142615
 20
75.62680121237153
 30
0.0
  0
VERTEX
  5
174
  8
T8_DRILL
 10
2.845290896290974
 20
75.61851775698375
 30
0.0
  0
VERTEX
  5
175
  8
T8_DRILL
 10
2.840795480165013
 20
75.61049397939865
 30
0.0
  0
VERTEX
  5
176
  8
T8_DRILL
 10
2.835933796986948
 20
75.60273929943423
 30
0.0
  0
VERTEX
  5
177
  8
T8_DRILL
 10
2.830719586978995
 20
75.59526313690844
 30
0.0
  0
VERTEX
  5
178
  8
T8_DRILL
 10
2.825166590363367
 20
75.58807491163917
 30
0.0
  0
VERTEX
  5
179
  8
T8_DRILL
 10
2.819288547362283
 20
75.58118404344438
 30
0.0
  0
VERTEX
  5
17A
  8
T8_DRILL
 10
2.813099198197955
 20
75.57459995214205
 30
0.0
  0
VERTEX
  5
17B
  8
T8_DRILL
 10
2.806612283092601
 20
75.56833205755011
 30
0.0
  0
VERTEX
  5
17C
  8
T8_DRILL
 10
2.799841542268434
 20
75.5623897794865
 30
0.0
  0
VERTEX
  5
17D
  8
T8_DRILL
 10
2.792800715947672
 20
75.55678253776917
 30
0.0
  0
VERTEX
  5
17E
  8
T8_DRILL
 10
2.785503544352528
 20
75.55151975221605
 30
0.0
  0
VERTEX
  5
17F
  8
T8_DRILL
 10
2.777963767705218
 20
75.54661084264511
 30
0.0
  0
VERTEX
  5
180
  8
T8_DRILL
 10
2.770195126227958
 20
75.54206522887429
 30
0.0
  0
VERTEX
  5
181
  8
T8_DRILL
 10
2.762211360142963
 20
75.53789233072152
 30
0.0
  0
VERTEX
  5
182
  8
T8_DRILL
 10
2.754026209672449
 20
75.53410156800476
 30
0.0
  0
VERTEX
  5
183
  8
T8_DRILL
 10
2.745653415038631
 20
75.53070236054194
 30
0.0
  0
VERTEX
  5
184
  8
T8_DRILL
 10
2.737106716463723
 20
75.52770412815102
 30
0.0
  0
VERTEX
  5
185
  8
T8_DRILL
 10
2.728399854169943
 20
75.52511629064995
 30
0.0
  0
VERTEX
  5
186
  8
T8_DRILL
 10
2.719546568379504
 20
75.52294826785666
 30
0.0
  0
VERTEX
  5
187
  8
T8_DRILL
 10
2.710560599314622
 20
75.5212094795891
 30
0.0
  0
VERTEX
  5
188
  8
T8_DRILL
 10
2.701455687197514
 20
75.51990934566524
 30
0.0
  0
VERTEX
  5
189
  8
T8_DRILL
 10
2.692245572250394
 20
75.51905728590299
 30
0.0
  0
VERTEX
  5
18A
  8
T8_DRILL
 10
2.682943994695476
 20
75.51866272012029
 30
0.0
  0
VERTEX
  5
18B
  8
T8_DRILL
 10
2.673564694754978
 20
75.51873506813513
 30
0.0
  0
VERTEX
  5
18C
  8
T8_DRILL
 10
2.664121412651114
 20
75.51928374976544
 30
0.0
  0
VERTEX
  5
18D
  8
T8_DRILL
 10
2.654627888606099
 20
75.52031818482914
 30
0.0
  0
SEQEND
  5
1AF
  8
T8_DRILL
  0
POLYLINE
  5
75
  8
T8_DRILL
 66
     1
 10
0.0
 20
0.0
 30
0.0
 70
     1
  0
VERTEX
  5
18E
  8
T8_DRILL
 10
1.570735117619741
 20
57.80268252691533
 30
0.0
 42
0.4142135623730951
  0
VERTEX
  5
18F
  8
T8_DRILL
 10
1.699512700382606
 20
57.57088771640878
 30
0.0
 42
0.4142135623730951
  0
VERTEX
  5
190
  8
T8_DRILL
 10
1.931307510889127
 20
57.69966529917165
 30
0.0
 42
0.4142135623730951
  0
VERTEX
  5
191
  8
T8_DRILL
 10
1.802529928126255
 20
57.93146010967813
 30
0.0
 42
0.4142135623730951
  0
SEQEND
  5
1B0
  8
T8_DRILL
  0
POLYLINE
  5
76
  8
T8_DRILL
 66
     1
 10
0.0
 20
0.0
 30
0.0
 70
     1
  0
VERTEX
  5
192
  8
T8_DRILL
 10
1.570735117619734
 20
42.7842825269153
 30
0.0
 42
0.4142135623730951
  0
VERTEX
  5
193
  8
T8_DRILL
 10
1.699512700382606
 20
42.55248771640878
 30
0.0
 42
0.4142135623730951
  0
VERTEX
  5
194
  8
T8_DRILL
 10
1.931307510889127
 20
42.68126529917162
 30
0.0
 42
0.4142135623730951
  0
VERTEX
  5
195
  8
T8_DRILL
 10
1.802529928126255
 20
42.91306010967819
 30
0.0
 42
0.4142135623730951
  0
SEQEND
  5
1B1
  8
T8_DRILL
  0
POLYLINE
  5
77
  8
T8_DRILL
 66
     1
 10
0.0
 20
0.0
 30
0.0
 70
     1
  0
VERTEX
  5
196
  8
T8_DRILL
 10
1.570735117619734
 20
27.77348252691531
 30
0.0
 42
0.4142135623730951
  0
VERTEX
  5
197
  8
T8_DRILL
 10
1.699512700382606
 20
27.54168771640877
 30
0.0
 42
0.4142135623730951
  0
VERTEX
  5
198
  8
T8_DRILL
 10
1.93130751088912
 20
27.67046529917166
 30
0.0
 42
0.4142135623730951
  0
VERTEX
  5
199
  8
T8_DRILL
 10
1.802529928126248
 20
27.90226010967818
 30
0.0
 42
0.4142135623730951
  0
SEQEND
  5
1B2
  8
T8_DRILL
  0
POLYLINE
  5
78
  8
T8_DRILL
 66
     1
 10
0.0
 20
0.0
 30
0.0
 70
     1
  0
VERTEX
  5
19A
  8
T8_DRILL
 10
1.570735117619734
 20
13.20268252691529
 30
0.0
 42
0.4142135623730951
  0
VERTEX
  5
19B
  8
T8_DRILL
 10
1.699512700382606
 20
12.97088771640879
 30
0.0
 42
0.4142135623730951
  0
VERTEX
  5
19C
  8
T8_DRILL
 10
1.93130751088912
 20
13.09966529917164
 30
0.0
 42
0.4142135623730951
  0
VERTEX
  5
19D
  8
T8_DRILL
 10
1.802529928126248
 20
13.33146010967819
 30
0.0
 42
0.4142135623730951
  0
SEQEND
  5
1B3
  8
T8_DRILL
  0
POLYLINE
  5
79
  8
T8_DRILL
 66
     1
 10
0.0
 20
0.0
 30
0.0
 70
     1
  0
VERTEX
  5
19E
  8
T8_DRILL
 10
1.37602131425443
 20
91.70214782608707
 30
0.0
 42
0.4142135623730951
  0
VERTEX
  5
19F
  8
T8_DRILL
 10
1.18852131425443
 20
91.51464782608707
 30
0.0
 42
0.4142135623730951
  0
VERTEX
  5
1A0
  8
T8_DRILL
 10
1.37602131425443
 20
91.32714782608707
 30
0.0
 42
0.4142135623730951
  0
VERTEX
  5
1A1
  8
T8_DRILL
 10
1.56352131425443
 20
91.51464782608707
 30
0.0
 42
0.4142135623730951
  0
SEQEND
  5
1B4
  8
T8_DRILL
  0
POLYLINE
  5
7B
  8
T3_PROFILE_INSIDE
 66
     1
 10
0.0
 20
0.0
 30
0.0
  0
VERTEX
  5
1A2
  8
T3_PROFILE_INSIDE
 10
3.502014741552024
 20
87.13964782608696
 30
0.0
  0
VERTEX
  5
1A3
  8
T3_PROFILE_INSIDE
 10
1.002014741552024
 20
87.13964782608696
 30
0.0
 42
-0.3478260869565217
  0
VERTEX
  5
1A4
  8
T3_PROFILE_INSIDE
 10
1.002014741552024
 20
92.88964782608696
 30
0.0
  0
VERTEX
  5
1A5
  8
T3_PROFILE_INSIDE
 10
3.502014741552024
 20
92.88964782608696
 30
0.0
  0
SEQEND
  5
1B5
  8
T3_PROFILE_INSIDE
  0
POLYLINE
  5
7D
  8
T3_PROFILE_OUTSIDE
 66
     1
 10
0.0
 20
0.0
 30
0.0
  0
VERTEX
  5
1A6
  8
T3_PROFILE_OUTSIDE
 10
0.0019783077192344
 20
3.110260036457736
 30
0.0
  0
VERTEX
  5
1A7
  8
T3_PROFILE_OUTSIDE
 10
3.501989725627482
 20
2.1103
 30
0.0
  0
SEQEND
  5
1B6
  8
T3_PROFILE_OUTSIDE
  0
POLYLINE
  5
7E
  8
T3_PROFILE_OUTSIDE
 66
     1
 10
0.0
 20
0.0
 30
0.0
  0
VERTEX
  5
1A8
  8
T3_PROFILE_OUTSIDE
 10
3.502042628508853
 20
85.41517988812188
 30
0.0
  0
VERTEX
  5
1A9
  8
T3_PROFILE_OUTSIDE
 10
0.0
 20
86.41589982283588
 30
0.0
  0
SEQEND
  5
1B7
  8
T3_PROFILE_OUTSIDE
  0
ENDSEC
  0
EOF
