  0
SECTION
  2
HEADER
  9
$ACADVER
  1
AC1009
  9
$DWGCODEPAGE
  3
ansi_1252
  9
$INSBASE
 10
0.0
 20
0.0
 30
0.0
  9
$EXTMIN
 10
0.0
 20
0.8878672062557937
 30
0.0
  9
$EXTMAX
 10
3.540091361593754
 20
93.08998027233062
 30
0.0
  9
$LIMMIN
 10
0.0
 20
0.0
  9
$LIMMAX
 10
12.0
 20
9.0
  9
$ORTHOMODE
 70
     0
  9
$REGENMODE
 70
     1
  9
$FILLMODE
 70
     1
  9
$QTEXTMODE
 70
     0
  9
$MIRRTEXT
 70
     1
  9
$DRAGMODE
 70
     2
  9
$LTSCALE
 40
1.0
  9
$OSMODE
 70
    37
  9
$ATTMODE
 70
     1
  9
$TEXTSIZE
 40
0.2
  9
$TRACEWID
 40
0.05
  9
$TEXTSTYLE
  7
STANDARD
  9
$CLAYER
  8
0
  9
$CELTYPE
  6
BYLAYER
  9
$CECOLOR
 62
   256
  9
$DIMSCALE
 40
1.0
  9
$DIMASZ
 40
0.18
  9
$DIMEXO
 40
0.0625
  9
$DIMDLI
 40
0.38
  9
$DIMRND
 40
0.0
  9
$DIMDLE
 40
0.0
  9
$DIMEXE
 40
0.18
  9
$DIMTP
 40
0.0
  9
$DIMTM
 40
0.0
  9
$DIMTXT
 40
0.18
  9
$DIMCEN
 40
0.09
  9
$DIMTSZ
 40
0.0
  9
$DIMTOL
 70
     0
  9
$DIMLIM
 70
     0
  9
$DIMTIH
 70
     1
  9
$DIMTOH
 70
     1
  9
$DIMSE1
 70
     0
  9
$DIMSE2
 70
     0
  9
$DIMTAD
 70
     0
  9
$DIMZIN
 70
     0
  9
$DIMBLK
  1

  9
$DIMASO
 70
     1
  9
$DIMSHO
 70
     1
  9
$DIMPOST
  1

  9
$DIMAPOST
  1

  9
$DIMALT
 70
     0
  9
$DIMALTD
 70
     2
  9
$DIMALTF
 40
25.4
  9
$DIMLFAC
 40
1.0
  9
$DIMTOFL
 70
     0
  9
$DIMTVP
 40
0.0
  9
$DIMTIX
 70
     0
  9
$DIMSOXD
 70
     0
  9
$DIMSAH
 70
     0
  9
$DIMBLK1
  1

  9
$DIMBLK2
  1

  9
$DIMSTYLE
  2
STANDARD
  9
$DIMCLRD
 70
     0
  9
$DIMCLRE
 70
     0
  9
$DIMCLRT
 70
     0
  9
$DIMTFAC
 40
1.0
  9
$DIMGAP
 40
0.09
  9
$LUNITS
 70
     2
  9
$LUPREC
 70
     4
  9
$SKETCHINC
 40
0.1
  9
$FILLETRAD
 40
0.5
  9
$AUNITS
 70
     0
  9
$AUPREC
 70
     0
  9
$MENU
  1
.
  9
$ELEVATION
 40
0.0
  9
$PELEVATION
 40
0.0
  9
$THICKNESS
 40
0.0
  9
$LIMCHECK
 70
     0
  9
$CHAMFERA
 40
0.0
  9
$CHAMFERB
 40
0.0
  9
$SKPOLY
 70
     0
  9
$TDCREATE
 40
2454910.5
  9
$TDUPDATE
 40
2461252.038620266
  9
$TDINDWG
 40
0.0000000116
  9
$TDUSRTIMER
 40
0.0000000116
  9
$USRTIMER
 70
     1
  9
$ANGBASE
 50
0.0
  9
$ANGDIR
 70
     0
  9
$PDMODE
 70
     0
  9
$PDSIZE
 40
0.0
  9
$PLINEWID
 40
0.0
  9
$COORDS
 70
     1
  9
$SPLFRAME
 70
     0
  9
$SPLINETYPE
 70
     6
  9
$SPLINESEGS
 70
     8
  9
$ATTDIA
 70
     0
  9
$ATTREQ
 70
     1
  9
$HANDLING
 70
     1
  9
$HANDSEED
  5
77E
  9
$SURFTAB1
 70
     6
  9
$SURFTAB2
 70
     6
  9
$SURFTYPE
 70
     6
  9
$SURFU
 70
     6
  9
$SURFV
 70
     6
  9
$UCSNAME
  2

  9
$UCSORG
 10
0.0
 20
0.0
 30
0.0
  9
$UCSXDIR
 10
1.0
 20
0.0
 30
0.0
  9
$UCSYDIR
 10
0.0
 20
1.0
 30
0.0
  9
$PUCSNAME
  2

  9
$PUCSORG
 10
0.0
 20
0.0
 30
0.0
  9
$PUCSXDIR
 10
1.0
 20
0.0
 30
0.0
  9
$PUCSYDIR
 10
0.0
 20
1.0
 30
0.0
  9
$USERI1
 70
     0
  9
$USERI2
 70
     0
  9
$USERI3
 70
     0
  9
$USERI4
 70
     0
  9
$USERI5
 70
     0
  9
$USERR1
 40
0.0
  9
$USERR2
 40
0.0
  9
$USERR3
 40
0.0
  9
$USERR4
 40
0.0
  9
$USERR5
 40
0.0
  9
$WORLDVIEW
 70
     1
  9
$SHADEDGE
 70
     3
  9
$SHADEDIF
 70
    70
  9
$TILEMODE
 70
     1
  9
$MAXACTVP
 70
    64
  9
$PLIMCHECK
 70
     0
  9
$PEXTMIN
 10
1.000000000000000E+20
 20
1.000000000000000E+20
 30
1.000000000000000E+20
  9
$PEXTMAX
 10
-1.000000000000000E+20
 20
-1.000000000000000E+20
 30
-1.000000000000000E+20
  9
$PLIMMIN
 10
0.0
 20
0.0
  9
$PLIMMAX
 10
12.0
 20
9.0
  9
$UNITMODE
 70
     0
  9
$VISRETAIN
 70
     1
  9
$PLINEGEN
 70
     0
  9
$PSLTSCALE
 70
     1
  0
ENDSEC
  0
SECTION
  2
TABLES
  0
TABLE
  2
VPORT
 70
     1
  0
VPORT
  2
*ACTIVE
 70
     0
 10
0.0
 20
0.0
 11
1.0
 21
1.0
 12
10.42990654205607
 22
4.5
 13
0.0
 23
0.0
 14
0.5
 24
0.5
 15
0.5
 25
0.5
 16
0.0
 26
0.0
 36
1.0
 17
0.0
 27
0.0
 37
0.0
 40
9.0
 41
1.972972972850329
 42
50.0
 43
0.0
 44
0.0
 50
0.0
 51
0.0
 71
     0
 72
   100
 73
     1
 74
     3
 75
     0
 76
     0
 77
     0
 78
     0
  0
ENDTAB
  0
TABLE
  2
LTYPE
 70
     2
  0
LTYPE
  2
CONTINUOUS
 70
     0
  3
Solid line
 72
    65
 73
     0
 40
0.0
  0
LTYPE
  2
CONTINUOUS2
 70
     0
  3
Solid Line
 72
    65
 73
     0
 40
0.0
  0
ENDTAB
  0
TABLE
  2
LAYER
 70
     8
  0
LAYER
  2
0
 70
     0
 62
     7
  6
CONTINUOUS
  0
LAYER
  2
JIG_94L
 70
     0
 62
    18
  6
CONTINUOUS
  0
LAYER
  2
T8_DRILL
 70
     0
 62
    18
  6
CONTINUOUS
  0
LAYER
  2
T5_BEVEL_0_1
 70
     0
 62
    18
  6
CONTINUOUS
  0
LAYER
  2
T9_COUNTERSINK_0_1
 70
     0
 62
    18
  6
CONTINUOUS
  0
LAYER
  2
T9-T3_POCKET
 70
     0
 62
    18
  6
CONTINUOUS
  0
LAYER
  2
T3_PROFILE_INSIDE_2
 70
     0
 62
    18
  6
CONTINUOUS
  0
LAYER
  2
T9_COUNTERSINK_0_6
 70
     0
 62
    18
  6
CONTINUOUS
  0
ENDTAB
  0
TABLE
  2
STYLE
 70
     1
  0
STYLE
  2
STANDARD
 70
     0
 40
0.0
 41
1.0
 50
0.0
 71
     0
 42
0.2
  3
txt
  4

  0
ENDTAB
  0
TABLE
  2
VIEW
 70
     0
  0
ENDTAB
  0
TABLE
  2
UCS
 70
     0
  0
ENDTAB
  0
TABLE
  2
APPID
 70
     1
  0
APPID
  2
ACAD
 70
     0
  0
ENDTAB
  0
TABLE
  2
DIMSTYLE
 70
     1
  0
DIMSTYLE
  2
STANDARD
 70
     0
  3

  4

  5

  6

  7

 40
1.0
 41
0.18
 42
0.0625
 43
0.38
 44
0.18
 45
0.0
 46
0.0
 47
0.0
 48
0.0
140
0.18
141
0.09
142
0.0
143
25.4
144
1.0
145
0.0
146
1.0
147
0.09
 71
     0
 72
     0
 73
     1
 74
     1
 75
     0
 76
     0
 77
     0
 78
     0
170
     0
171
     2
172
     0
173
     0
174
     0
175
     0
176
     0
177
     0
178
     0
  0
ENDTAB
  0
ENDSEC
  0
SECTION
  2
BLOCKS
  0
BLOCK
  8
0
  2
$MODEL_SPACE
 70
     0
 10
0.0
 20
0.0
 30
0.0
  3
$MODEL_SPACE
  1

  0
ENDBLK
  5
21
  8
0
  0
BLOCK
 67
     1
  8
0
  2
$PAPER_SPACE
 70
     0
 10
0.0
 20
0.0
 30
0.0
  3
$PAPER_SPACE
  1

  0
ENDBLK
  5
1D
 67
     1
  8
0
  0
ENDSEC
  0
SECTION
  2
ENTITIES
  0
POLYLINE
  5
70
  8
JIG_94L
 66
     1
 10
0.0
 20
0.0
 30
0.0
  0
VERTEX
  5
94
  8
JIG_94L
 10
3.506006995638227
 20
70.61443594859827
 30
0.0
  0
VERTEX
  5
95
  8
JIG_94L
 10
0.0
 20
71.21016369555105
 30
0.0
  0
SEQEND
  5
767
  8
JIG_94L
  0
POLYLINE
  5
71
  8
JIG_94L
 66
     1
 10
0.0
 20
0.0
 30
0.0
  0
VERTEX
  5
96
  8
JIG_94L
 10
0.0366837585394713
 20
1.137869596396936
 30
0.0
  0
VERTEX
  5
97
  8
JIG_94L
 10
3.536677493270812
 20
0.8878672062557937
 30
0.0
  0
SEQEND
  5
768
  8
JIG_94L
  0
POLYLINE
  5
73
  8
T8_DRILL
 66
     1
 10
0.0
 20
0.0
 30
0.0
 70
     1
  0
VERTEX
  5
98
  8
T8_DRILL
 10
2.849151311642917
 20
90.41787357879481
 30
0.0
  0
VERTEX
  5
99
  8
T8_DRILL
 10
2.848907254502324
 20
90.40822466544816
 30
0.0
  0
VERTEX
  5
9A
  8
T8_DRILL
 10
2.848183116342187
 20
90.39870244519133
 30
0.0
  0
VERTEX
  5
9B
  8
T8_DRILL
 10
2.846990677056864
 20
90.38931869770028
 30
0.0
  0
VERTEX
  5
9C
  8
T8_DRILL
 10
2.845341716540713
 20
90.38008520265099
 30
0.0
  0
VERTEX
  5
9D
  8
T8_DRILL
 10
2.843248014688093
 20
90.37101373971939
 30
0.0
  0
VERTEX
  5
9E
  8
T8_DRILL
 10
2.840721351393359
 20
90.36211608858143
 30
0.0
  0
VERTEX
  5
9F
  8
T8_DRILL
 10
2.837773506550873
 20
90.35340402891308
 30
0.0
  0
VERTEX
  5
A0
  8
T8_DRILL
 10
2.83441626005499
 20
90.34488934039027
 30
0.0
  0
VERTEX
  5
A1
  8
T8_DRILL
 10
2.83066139180007
 20
90.33658380268898
 30
0.0
  0
VERTEX
  5
A2
  8
T8_DRILL
 10
2.82652068168047
 20
90.32849919548514
 30
0.0
  0
VERTEX
  5
A3
  8
T8_DRILL
 10
2.822005909590548
 20
90.3206472984547
 30
0.0
  0
VERTEX
  5
A4
  8
T8_DRILL
 10
2.817128855424662
 20
90.31303989127365
 30
0.0
  0
VERTEX
  5
A5
  8
T8_DRILL
 10
2.811901299077171
 20
90.30568875361791
 30
0.0
  0
VERTEX
  5
A6
  8
T8_DRILL
 10
2.806335020442432
 20
90.29860566516345
 30
0.0
  0
VERTEX
  5
A7
  8
T8_DRILL
 10
2.800441799414804
 20
90.29180240558622
 30
0.0
  0
VERTEX
  5
A8
  8
T8_DRILL
 10
2.794233415888645
 20
90.28529075456217
 30
0.0
  0
VERTEX
  5
A9
  8
T8_DRILL
 10
2.787721649758311
 20
90.27908249176724
 30
0.0
  0
VERTEX
  5
AA
  8
T8_DRILL
 10
2.780918280918163
 20
90.2731893968774
 30
0.0
  0
VERTEX
  5
AB
  8
T8_DRILL
 10
2.773835089262557
 20
90.2676232495686
 30
0.0
  0
VERTEX
  5
AC
  8
T8_DRILL
 10
2.766483854685853
 20
90.26239582951682
 30
0.0
  0
VERTEX
  5
AD
  8
T8_DRILL
 10
2.758876357082406
 20
90.25751891639797
 30
0.0
  0
VERTEX
  5
AE
  8
T8_DRILL
 10
2.751024376346577
 20
90.25300428988803
 30
0.0
  0
VERTEX
  5
AF
  8
T8_DRILL
 10
2.742939692372723
 20
90.24886372966293
 30
0.0
  0
VERTEX
  5
B0
  8
T8_DRILL
 10
2.734634085055202
 20
90.24510901539864
 30
0.0
  0
VERTEX
  5
B1
  8
T8_DRILL
 10
2.726119334288372
 20
90.24175192677112
 30
0.0
  0
VERTEX
  5
B2
  8
T8_DRILL
 10
2.71740721996659
 20
90.23880424345629
 30
0.0
  0
VERTEX
  5
B3
  8
T8_DRILL
 10
2.708509521984216
 20
90.23627774513015
 30
0.0
  0
VERTEX
  5
B4
  8
T8_DRILL
 10
2.699438020235607
 20
90.23418421146862
 30
0.0
  0
VERTEX
  5
B5
  8
T8_DRILL
 10
2.690204494615121
 20
90.23253542214766
 30
0.0
  0
VERTEX
  5
B6
  8
T8_DRILL
 10
2.680820725017116
 20
90.23134315684322
 30
0.0
  0
VERTEX
  5
B7
  8
T8_DRILL
 10
2.671298491335951
 20
90.23061919523127
 30
0.0
  0
VERTEX
  5
B8
  8
T8_DRILL
 10
2.661649573465983
 20
90.23037531698778
 30
0.0
  0
VERTEX
  5
B9
  8
T8_DRILL
 10
2.652000660119331
 20
90.23061937412837
 30
0.0
  0
VERTEX
  5
BA
  8
T8_DRILL
 10
2.642478439862512
 20
90.23134351228848
 30
0.0
  0
VERTEX
  5
BB
  8
T8_DRILL
 10
2.63309469237148
 20
90.2325359515738
 30
0.0
  0
VERTEX
  5
BC
  8
T8_DRILL
 10
2.623861197322186
 20
90.23418491208993
 30
0.0
  0
VERTEX
  5
BD
  8
T8_DRILL
 10
2.614789734390585
 20
90.23627861394255
 30
0.0
  0
VERTEX
  5
BE
  8
T8_DRILL
 10
2.60589208325263
 20
90.23880527723725
 30
0.0
  0
VERTEX
  5
BF
  8
T8_DRILL
 10
2.597180023584276
 20
90.24175312207973
 30
0.0
  0
VERTEX
  5
C0
  8
T8_DRILL
 10
2.588665335061474
 20
90.24511036857561
 30
0.0
  0
VERTEX
  5
C1
  8
T8_DRILL
 10
2.580359797360179
 20
90.24886523683053
 30
0.0
  0
VERTEX
  5
C2
  8
T8_DRILL
 10
2.572275190156344
 20
90.25300594695013
 30
0.0
  0
VERTEX
  5
C3
  8
T8_DRILL
 10
2.564423293125922
 20
90.25752071904004
 30
0.0
  0
VERTEX
  5
C4
  8
T8_DRILL
 10
2.556815885944867
 20
90.26239777320592
 30
0.0
  0
VERTEX
  5
C5
  8
T8_DRILL
 10
2.549464748289132
 20
90.2676253295534
 30
0.0
  0
VERTEX
  5
C6
  8
T8_DRILL
 10
2.542381659834671
 20
90.27319160818816
 30
0.0
  0
VERTEX
  5
C7
  8
T8_DRILL
 10
2.535578400257437
 20
90.27908482921579
 30
0.0
  0
VERTEX
  5
C8
  8
T8_DRILL
 10
2.529066749233383
 20
90.28529321274195
 30
0.0
  0
VERTEX
  5
C9
  8
T8_DRILL
 10
2.522858486438463
 20
90.29180497887228
 30
0.0
  0
VERTEX
  5
CA
  8
T8_DRILL
 10
2.516965391548631
 20
90.29860834771243
 30
0.0
  0
VERTEX
  5
CB
  8
T8_DRILL
 10
2.511399244239839
 20
90.30569153936804
 30
0.0
  0
VERTEX
  5
CC
  8
T8_DRILL
 10
2.506171824188042
 20
90.31304277394474
 30
0.0
  0
VERTEX
  5
CD
  8
T8_DRILL
 10
2.501294911069191
 20
90.3206502715482
 30
0.0
  0
VERTEX
  5
CE
  8
T8_DRILL
 10
2.496780284559242
 20
90.32850225228404
 30
0.0
  0
VERTEX
  5
CF
  8
T8_DRILL
 10
2.492639724334148
 20
90.3365869362579
 30
0.0
  0
VERTEX
  5
D0
  8
T8_DRILL
 10
2.488885010069861
 20
90.34489254357541
 30
0.0
  0
VERTEX
  5
D1
  8
T8_DRILL
 10
2.485527921442336
 20
90.35340729434225
 30
0.0
  0
VERTEX
  5
D2
  8
T8_DRILL
 10
2.482580238127525
 20
90.36211940866403
 30
0.0
  0
VERTEX
  5
D3
  8
T8_DRILL
 10
2.480053739801383
 20
90.3710171066464
 30
0.0
  0
VERTEX
  5
D4
  8
T8_DRILL
 10
2.477960206139861
 20
90.38008860839503
 30
0.0
  0
VERTEX
  5
D5
  8
T8_DRILL
 10
2.476311416818915
 20
90.38932213401552
 30
0.0
  0
VERTEX
  5
D6
  8
T8_DRILL
 10
2.475119151514497
 20
90.39870590361352
 30
0.0
  0
VERTEX
  5
D7
  8
T8_DRILL
 10
2.474395189902561
 20
90.40822813729469
 30
0.0
  0
VERTEX
  5
D8
  8
T8_DRILL
 10
2.47415131165906
 20
90.41787705516465
 30
0.0
  0
VERTEX
  5
D9
  8
T8_DRILL
 10
2.474395368799632
 20
90.4275259685113
 30
0.0
  0
VERTEX
  5
DA
  8
T8_DRILL
 10
2.47511950695975
 20
90.43704818876812
 30
0.0
  0
VERTEX
  5
DB
  8
T8_DRILL
 10
2.476311946245055
 20
90.44643193625915
 30
0.0
  0
VERTEX
  5
DC
  8
T8_DRILL
 10
2.477960906761189
 20
90.45566543130843
 30
0.0
  0
VERTEX
  5
DD
  8
T8_DRILL
 10
2.480054608613794
 20
90.46473689424005
 30
0.0
  0
VERTEX
  5
DE
  8
T8_DRILL
 10
2.482581271908512
 20
90.47363454537799
 30
0.0
  0
VERTEX
  5
DF
  8
T8_DRILL
 10
2.485529116750985
 20
90.48234660504636
 30
0.0
  0
VERTEX
  5
E0
  8
T8_DRILL
 10
2.488886363246856
 20
90.49086129356915
 30
0.0
  0
VERTEX
  5
E1
  8
T8_DRILL
 10
2.492641231501764
 20
90.49916683127046
 30
0.0
  0
VERTEX
  5
E2
  8
T8_DRILL
 10
2.496781941621354
 20
90.50725143847428
 30
0.0
  0
VERTEX
  5
E3
  8
T8_DRILL
 10
2.501296713711266
 20
90.5151033355047
 30
0.0
  0
VERTEX
  5
E4
  8
T8_DRILL
 10
2.506173767877143
 20
90.52271074268576
 30
0.0
  0
VERTEX
  5
E5
  8
T8_DRILL
 10
2.511401324224626
 20
90.53006188034149
 30
0.0
  0
VERTEX
  5
E6
  8
T8_DRILL
 10
2.516967602859358
 20
90.53714496879596
 30
0.0
  0
VERTEX
  5
E7
  8
T8_DRILL
 10
2.52286082388698
 20
90.54394822837318
 30
0.0
  0
VERTEX
  5
E8
  8
T8_DRILL
 10
2.529069207413134
 20
90.55045987939724
 30
0.0
  0
VERTEX
  5
E9
  8
T8_DRILL
 10
2.535580973543461
 20
90.55666814219217
 30
0.0
  0
VERTEX
  5
EA
  8
T8_DRILL
 10
2.542384342383605
 20
90.56256123708201
 30
0.0
  0
VERTEX
  5
EB
  8
T8_DRILL
 10
2.549467534039207
 20
90.5681273843908
 30
0.0
  0
VERTEX
  5
EC
  8
T8_DRILL
 10
2.556818768615909
 20
90.57335480444259
 30
0.0
  0
VERTEX
  5
ED
  8
T8_DRILL
 10
2.564426266219352
 20
90.57823171756144
 30
0.0
  0
VERTEX
  5
EE
  8
T8_DRILL
 10
2.572278246955179
 20
90.58274634407138
 30
0.0
  0
VERTEX
  5
EF
  8
T8_DRILL
 10
2.580362930929032
 20
90.58688690429648
 30
0.0
  0
VERTEX
  5
F0
  8
T8_DRILL
 10
2.588668538246552
 20
90.59064161856077
 30
0.0
  0
VERTEX
  5
F1
  8
T8_DRILL
 10
2.597183289013381
 20
90.59399870718829
 30
0.0
  0
VERTEX
  5
F2
  8
T8_DRILL
 10
2.605895403335161
 20
90.59694639050312
 30
0.0
  0
VERTEX
  5
F3
  8
T8_DRILL
 10
2.614793101317535
 20
90.59947288882925
 30
0.0
  0
VERTEX
  5
F4
  8
T8_DRILL
 10
2.623864603066143
 20
90.60156642249079
 30
0.0
  0
VERTEX
  5
F5
  8
T8_DRILL
 10
2.633098128686629
 20
90.60321521181174
 30
0.0
  0
VERTEX
  5
F6
  8
T8_DRILL
 10
2.642481898284633
 20
90.60440747711618
 30
0.0
  0
VERTEX
  5
F7
  8
T8_DRILL
 10
2.652004131965799
 20
90.60513143872814
 30
0.0
  0
VERTEX
  5
F8
  8
T8_DRILL
 10
2.661653049835767
 20
90.60537531697163
 30
0.0
  0
VERTEX
  5
F9
  8
T8_DRILL
 10
2.671301963182418
 20
90.60513125983104
 30
0.0
  0
VERTEX
  5
FA
  8
T8_DRILL
 10
2.680824183439237
 20
90.60440712167093
 30
0.0
  0
VERTEX
  5
FB
  8
T8_DRILL
 10
2.690207930930271
 20
90.60321468238561
 30
0.0
  0
VERTEX
  5
FC
  8
T8_DRILL
 10
2.699441425979564
 20
90.60156572186948
 30
0.0
  0
VERTEX
  5
FD
  8
T8_DRILL
 10
2.708512888911165
 20
90.59947202001686
 30
0.0
  0
VERTEX
  5
FE
  8
T8_DRILL
 10
2.717410540049121
 20
90.59694535672216
 30
0.0
  0
VERTEX
  5
FF
  8
T8_DRILL
 10
2.726122599717476
 20
90.59399751187968
 30
0.0
  0
VERTEX
  5
100
  8
T8_DRILL
 10
2.734637288240279
 20
90.5906402653838
 30
0.0
  0
VERTEX
  5
101
  8
T8_DRILL
 10
2.742942825941576
 20
90.58688539712888
 30
0.0
  0
VERTEX
  5
102
  8
T8_DRILL
 10
2.751027433145413
 20
90.58274468700928
 30
0.0
  0
VERTEX
  5
103
  8
T8_DRILL
 10
2.758879330175837
 20
90.57822991491936
 30
0.0
  0
VERTEX
  5
104
  8
T8_DRILL
 10
2.766486737356895
 20
90.57335286075349
 30
0.0
  0
VERTEX
  5
105
  8
T8_DRILL
 10
2.773837875012632
 20
90.56812530440601
 30
0.0
  0
VERTEX
  5
106
  8
T8_DRILL
 10
2.780920963467098
 20
90.56255902577125
 30
0.0
  0
VERTEX
  5
107
  8
T8_DRILL
 10
2.787724223044336
 20
90.55666580474362
 30
0.0
  0
VERTEX
  5
108
  8
T8_DRILL
 10
2.794235874068395
 20
90.55045742121746
 30
0.0
  0
VERTEX
  5
109
  8
T8_DRILL
 10
2.80044413686332
 20
90.54394565508713
 30
0.0
  0
VERTEX
  5
10A
  8
T8_DRILL
 10
2.806337231753159
 20
90.53714228624699
 30
0.0
  0
VERTEX
  5
10B
  8
T8_DRILL
 10
2.811903379061958
 20
90.5300590945914
 30
0.0
  0
VERTEX
  5
10C
  8
T8_DRILL
 10
2.817130799113764
 20
90.52270786001468
 30
0.0
  0
VERTEX
  5
10D
  8
T8_DRILL
 10
2.822007712232622
 20
90.51510036241122
 30
0.0
  0
VERTEX
  5
10E
  8
T8_DRILL
 10
2.826522338742581
 20
90.5072483816754
 30
0.0
  0
VERTEX
  5
10F
  8
T8_DRILL
 10
2.830662898967686
 20
90.49916369770153
 30
0.0
  0
VERTEX
  5
110
  8
T8_DRILL
 10
2.834417613231984
 20
90.49085809038402
 30
0.0
  0
VERTEX
  5
111
  8
T8_DRILL
 10
2.837774701859522
 20
90.48234333961719
 30
0.0
  0
VERTEX
  5
112
  8
T8_DRILL
 10
2.840722385174347
 20
90.4736312252954
 30
0.0
  0
VERTEX
  5
113
  8
T8_DRILL
 10
2.843248883500504
 20
90.46473352731303
 30
0.0
  0
VERTEX
  5
114
  8
T8_DRILL
 10
2.845342417162041
 20
90.45566202556442
 30
0.0
  0
VERTEX
  5
115
  8
T8_DRILL
 10
2.846991206483004
 20
90.44642849994395
 30
0.0
  0
VERTEX
  5
116
  8
T8_DRILL
 10
2.84818347178744
 20
90.43704473034595
 30
0.0
  0
VERTEX
  5
117
  8
T8_DRILL
 10
2.848907433399395
 20
90.42752249666478
 30
0.0
  0
SEQEND
  5
769
  8
T8_DRILL
  0
POLYLINE
  5
74
  8
T8_DRILL
 66
     1
 10
0.0
 20
0.0
 30
0.0
 70
     1
  0
VERTEX
  5
118
  8
T8_DRILL
 10
1.099165796592505
 20
91.98038980178696
 30
0.0
  0
VERTEX
  5
119
  8
T8_DRILL
 10
1.098921739451932
 20
91.9707408884403
 30
0.0
  0
VERTEX
  5
11A
  8
T8_DRILL
 10
1.098197601291813
 20
91.96121866818349
 30
0.0
  0
VERTEX
  5
11B
  8
T8_DRILL
 10
1.097005162006505
 20
91.95183492069246
 30
0.0
  0
VERTEX
  5
11C
  8
T8_DRILL
 10
1.095356201490367
 20
91.94260142564318
 30
0.0
  0
VERTEX
  5
11D
  8
T8_DRILL
 10
1.093262499637756
 20
91.93352996271159
 30
0.0
  0
VERTEX
  5
11E
  8
T8_DRILL
 10
1.090735836343032
 20
91.92463231157363
 30
0.0
  0
VERTEX
  5
11F
  8
T8_DRILL
 10
1.087787991500552
 20
91.91592025190528
 30
0.0
  0
VERTEX
  5
120
  8
T8_DRILL
 10
1.084430745004674
 20
91.90740556338248
 30
0.0
  0
VERTEX
  5
121
  8
T8_DRILL
 10
1.080675876749757
 20
91.89910002568118
 30
0.0
  0
VERTEX
  5
122
  8
T8_DRILL
 10
1.076535166630158
 20
91.89101541847735
 30
0.0
  0
VERTEX
  5
123
  8
T8_DRILL
 10
1.072020394540237
 20
91.88316352144693
 30
0.0
  0
VERTEX
  5
124
  8
T8_DRILL
 10
1.06714334037435
 20
91.87555611426588
 30
0.0
  0
VERTEX
  5
125
  8
T8_DRILL
 10
1.061915784026857
 20
91.86820497661014
 30
0.0
  0
VERTEX
  5
126
  8
T8_DRILL
 10
1.056349505392115
 20
91.86112188815568
 30
0.0
  0
VERTEX
  5
127
  8
T8_DRILL
 10
1.050456284364483
 20
91.85431862857845
 30
0.0
  0
VERTEX
  5
128
  8
T8_DRILL
 10
1.044247900838318
 20
91.8478069775544
 30
0.0
  0
VERTEX
  5
129
  8
T8_DRILL
 10
1.037736134707979
 20
91.84159871475947
 30
0.0
  0
VERTEX
  5
12A
  8
T8_DRILL
 10
1.030932765867825
 20
91.83570561986963
 30
0.0
  0
VERTEX
  5
12B
  8
T8_DRILL
 10
1.023849574212213
 20
91.83013947256083
 30
0.0
  0
VERTEX
  5
12C
  8
T8_DRILL
 10
1.016498339635501
 20
91.82491205250905
 30
0.0
  0
VERTEX
  5
12D
  8
T8_DRILL
 10
1.008890842032048
 20
91.8200351393902
 30
0.0
  0
VERTEX
  5
12E
  8
T8_DRILL
 10
1.001038861296212
 20
91.81552051288025
 30
0.0
  0
VERTEX
  5
12F
  8
T8_DRILL
 10
0.9929541773223503
 20
91.81137995265513
 30
0.0
  0
VERTEX
  5
130
  8
T8_DRILL
 10
0.984648570004822
 20
91.80762523839084
 30
0.0
  0
VERTEX
  5
131
  8
T8_DRILL
 10
0.9761338192379851
 20
91.80426814976332
 30
0.0
  0
VERTEX
  5
132
  8
T8_DRILL
 10
0.9674217049161977
 20
91.80132046644849
 30
0.0
  0
VERTEX
  5
133
  8
T8_DRILL
 10
0.9585240069338181
 20
91.79879396812235
 30
0.0
  0
VERTEX
  5
134
  8
T8_DRILL
 10
0.9494525051852043
 20
91.79670043446082
 30
0.0
  0
VERTEX
  5
135
  8
T8_DRILL
 10
0.9402189795647145
 20
91.79505164513986
 30
0.0
  0
VERTEX
  5
136
  8
T8_DRILL
 10
0.930835209966707
 20
91.79385937983542
 30
0.0
  0
VERTEX
  5
137
  8
T8_DRILL
 10
0.9213129762855398
 20
91.79313541822347
 30
0.0
  0
VERTEX
  5
138
  8
T8_DRILL
 10
0.9116640584155711
 20
91.79289153997998
 30
0.0
  0
VERTEX
  5
139
  8
T8_DRILL
 10
0.9020151450689199
 20
91.79313559712057
 30
0.0
  0
VERTEX
  5
13A
  8
T8_DRILL
 10
0.8924929248121019
 20
91.79385973528068
 30
0.0
  0
VERTEX
  5
13B
  8
T8_DRILL
 10
0.8831091773210704
 20
91.795052174566
 30
0.0
  0
VERTEX
  5
13C
  8
T8_DRILL
 10
0.8738756822717788
 20
91.79670113508213
 30
0.0
  0
VERTEX
  5
13D
  8
T8_DRILL
 10
0.8648042193401805
 20
91.79879483693475
 30
0.0
  0
VERTEX
  5
13E
  8
T8_DRILL
 10
0.8559065682022287
 20
91.80132150022945
 30
0.0
  0
VERTEX
  5
13F
  8
T8_DRILL
 10
0.847194508533877
 20
91.80426934507193
 30
0.0
  0
VERTEX
  5
140
  8
T8_DRILL
 10
0.8386798200110785
 20
91.80762659156781
 30
0.0
  0
VERTEX
  5
141
  8
T8_DRILL
 10
0.8303742823097868
 20
91.81138145982273
 30
0.0
  0
VERTEX
  5
142
  8
T8_DRILL
 10
0.8222896751059552
 20
91.81552216994233
 30
0.0
  0
VERTEX
  5
143
  8
T8_DRILL
 10
0.814437778075537
 20
91.82003694203225
 30
0.0
  0
VERTEX
  5
144
  8
T8_DRILL
 10
0.8068303708944853
 20
91.82491399619812
 30
0.0
  0
VERTEX
  5
145
  8
T8_DRILL
 10
0.7994792332387539
 20
91.8301415525456
 30
0.0
  0
VERTEX
  5
146
  8
T8_DRILL
 10
0.792396144784296
 20
91.83570783118036
 30
0.0
  0
VERTEX
  5
147
  8
T8_DRILL
 10
0.7855928852070649
 20
91.84160105220799
 30
0.0
  0
VERTEX
  5
148
  8
T8_DRILL
 10
0.779081234183014
 20
91.84780943573415
 30
0.0
  0
VERTEX
  5
149
  8
T8_DRILL
 10
0.7728729713880967
 20
91.85432120186448
 30
0.0
  0
VERTEX
  5
14A
  8
T8_DRILL
 10
0.7669798764982663
 20
91.86112457070463
 30
0.0
  0
VERTEX
  5
14B
  8
T8_DRILL
 10
0.7614137291894763
 20
91.86820776236024
 30
0.0
  0
VERTEX
  5
14C
  8
T8_DRILL
 10
0.7561863091376797
 20
91.87555899693695
 30
0.0
  0
VERTEX
  5
14D
  8
T8_DRILL
 10
0.7513093960188302
 20
91.8831664945404
 30
0.0
  0
VERTEX
  5
14E
  8
T8_DRILL
 10
0.746794769508881
 20
91.89101847527624
 30
0.0
  0
VERTEX
  5
14F
  8
T8_DRILL
 10
0.7426542092837858
 20
91.8991031592501
 30
0.0
  0
VERTEX
  5
150
  8
T8_DRILL
 10
0.7388994950194974
 20
91.90740876656761
 30
0.0
  0
VERTEX
  5
151
  8
T8_DRILL
 10
0.7355424063919695
 20
91.91592351733445
 30
0.0
  0
VERTEX
  5
152
  8
T8_DRILL
 10
0.7325947230771555
 20
91.92463563165623
 30
0.0
  0
VERTEX
  5
153
  8
T8_DRILL
 10
0.7300682247510084
 20
91.9335333296386
 30
0.0
  0
VERTEX
  5
154
  8
T8_DRILL
 10
0.727974691089482
 20
91.94260483138723
 30
0.0
  0
VERTEX
  5
155
  8
T8_DRILL
 10
0.7263259017685295
 20
91.95183835700772
 30
0.0
  0
VERTEX
  5
156
  8
T8_DRILL
 10
0.7251336364641041
 20
91.96122212660572
 30
0.0
  0
VERTEX
  5
157
  8
T8_DRILL
 10
0.7244096748521593
 20
91.97074436028689
 30
0.0
  0
VERTEX
  5
158
  8
T8_DRILL
 10
0.7241657966086485
 20
91.98039327815685
 30
0.0
  0
VERTEX
  5
159
  8
T8_DRILL
 10
0.7244098537492212
 20
91.9900421915035
 30
0.0
  0
VERTEX
  5
15A
  8
T8_DRILL
 10
0.7251339919093406
 20
91.99956441176032
 30
0.0
  0
VERTEX
  5
15B
  8
T8_DRILL
 10
0.7263264311946483
 20
92.00894815925135
 30
0.0
  0
VERTEX
  5
15C
  8
T8_DRILL
 10
0.7279753917107863
 20
92.01818165430063
 30
0.0
  0
VERTEX
  5
15D
  8
T8_DRILL
 10
0.7300690935633962
 20
92.02725311723225
 30
0.0
  0
VERTEX
  5
15E
  8
T8_DRILL
 10
0.73259575685812
 20
92.03615076837019
 30
0.0
  0
VERTEX
  5
15F
  8
T8_DRILL
 10
0.7355436017005992
 20
92.04486282803856
 30
0.0
  0
VERTEX
  5
160
  8
T8_DRILL
 10
0.7389008481964758
 20
92.05337751656135
 30
0.0
  0
VERTEX
  5
161
  8
T8_DRILL
 10
0.7426557164513916
 20
92.06168305426266
 30
0.0
  0
VERTEX
  5
162
  8
T8_DRILL
 10
0.7467964265709882
 20
92.06976766146649
 30
0.0
  0
VERTEX
  5
163
  8
T8_DRILL
 10
0.7513111986609076
 20
92.0776195584969
 30
0.0
  0
VERTEX
  5
164
  8
T8_DRILL
 10
0.7561882528267914
 20
92.08522696567796
 30
0.0
  0
VERTEX
  5
165
  8
T8_DRILL
 10
0.7614158091742814
 20
92.0925781033337
 30
0.0
  0
VERTEX
  5
166
  8
T8_DRILL
 10
0.7669820878090196
 20
92.09966119178816
 30
0.0
  0
VERTEX
  5
167
  8
T8_DRILL
 10
0.7728753088366476
 20
92.10646445136538
 30
0.0
  0
VERTEX
  5
168
  8
T8_DRILL
 10
0.7790836923628071
 20
92.11297610238944
 30
0.0
  0
VERTEX
  5
169
  8
T8_DRILL
 10
0.7855954584931399
 20
92.11918436518437
 30
0.0
  0
VERTEX
  5
16A
  8
T8_DRILL
 10
0.7923988273332881
 20
92.12507746007421
 30
0.0
  0
VERTEX
  5
16B
  8
T8_DRILL
 10
0.7994820189888933
 20
92.130643607383
 30
0.0
  0
VERTEX
  5
16C
  8
T8_DRILL
 10
0.8068332535655971
 20
92.13587102743479
 30
0.0
  0
VERTEX
  5
16D
  8
T8_DRILL
 10
0.8144407511690415
 20
92.14074794055364
 30
0.0
  0
VERTEX
  5
16E
  8
T8_DRILL
 10
0.8222927319048682
 20
92.14526256706358
 30
0.0
  0
VERTEX
  5
16F
  8
T8_DRILL
 10
0.8303774158787189
 20
92.1494031272887
 30
0.0
  0
VERTEX
  5
170
  8
T8_DRILL
 10
0.8386830231962357
 20
92.153157841553
 30
0.0
  0
VERTEX
  5
171
  8
T8_DRILL
 10
0.8471977739630601
 20
92.15651493018052
 30
0.0
  0
VERTEX
  5
172
  8
T8_DRILL
 10
0.8559098882848338
 20
92.15946261349535
 30
0.0
  0
VERTEX
  5
173
  8
T8_DRILL
 10
0.8648075862671989
 20
92.16198911182151
 30
0.0
  0
VERTEX
  5
174
  8
T8_DRILL
 10
0.873879088015797
 20
92.16408264548303
 30
0.0
  0
VERTEX
  5
175
  8
T8_DRILL
 10
0.8831126136362698
 20
92.165731434804
 30
0.0
  0
VERTEX
  5
176
  8
T8_DRILL
 10
0.8924963832342593
 20
92.16692370010844
 30
0.0
  0
VERTEX
  5
177
  8
T8_DRILL
 10
0.9020186169154072
 20
92.1676476617204
 30
0.0
  0
VERTEX
  5
178
  8
T8_DRILL
 10
0.9116675347853551
 20
92.16789153996389
 30
0.0
  0
VERTEX
  5
179
  8
T8_DRILL
 10
0.9213164481320166
 20
92.1676474828233
 30
0.0
  0
VERTEX
  5
17A
  8
T8_DRILL
 10
0.9308386683888443
 20
92.16692334466319
 30
0.0
  0
VERTEX
  5
17B
  8
T8_DRILL
 10
0.9402224158798849
 20
92.16573090537787
 30
0.0
  0
VERTEX
  5
17C
  8
T8_DRILL
 10
0.9494559109291851
 20
92.16408194486172
 30
0.0
  0
VERTEX
  5
17D
  8
T8_DRILL
 10
0.9585273738607916
 20
92.1619882430091
 30
0.0
  0
VERTEX
  5
17E
  8
T8_DRILL
 10
0.9674250249987508
 20
92.15946157971439
 30
0.0
  0
VERTEX
  5
17F
  8
T8_DRILL
 10
0.9761370846671098
 20
92.15651373487191
 30
0.0
  0
VERTEX
  5
180
  8
T8_DRILL
 10
0.9846517731899151
 20
92.15315648837603
 30
0.0
  0
VERTEX
  5
181
  8
T8_DRILL
 10
0.9929573108912133
 20
92.14940162012111
 30
0.0
  0
VERTEX
  5
182
  8
T8_DRILL
 10
1.001041918095051
 20
92.14526091000151
 30
0.0
  0
VERTEX
  5
183
  8
T8_DRILL
 10
1.008893815125475
 20
92.14074613791159
 30
0.0
  0
VERTEX
  5
184
  8
T8_DRILL
 10
1.016501222306533
 20
92.13586908374572
 30
0.0
  0
VERTEX
  5
185
  8
T8_DRILL
 10
1.02385235996227
 20
92.13064152739824
 30
0.0
  0
VERTEX
  5
186
  8
T8_DRILL
 10
1.030935448416733
 20
92.12507524876348
 30
0.0
  0
VERTEX
  5
187
  8
T8_DRILL
 10
1.03773870799397
 20
92.11918202773585
 30
0.0
  0
VERTEX
  5
188
  8
T8_DRILL
 10
1.044250359018026
 20
92.11297364420969
 30
0.0
  0
VERTEX
  5
189
  8
T8_DRILL
 10
1.050458621812949
 20
92.10646187807936
 30
0.0
  0
VERTEX
  5
18A
  8
T8_DRILL
 10
1.056351716702784
 20
92.0996585092392
 30
0.0
  0
VERTEX
  5
18B
  8
T8_DRILL
 10
1.06191786401158
 20
92.0925753175836
 30
0.0
  0
VERTEX
  5
18C
  8
T8_DRILL
 10
1.067145284063382
 20
92.08522408300689
 30
0.0
  0
VERTEX
  5
18D
  8
T8_DRILL
 10
1.072022197182237
 20
92.07761658540343
 30
0.0
  0
VERTEX
  5
18E
  8
T8_DRILL
 10
1.076536823692192
 20
92.0697646046676
 30
0.0
  0
VERTEX
  5
18F
  8
T8_DRILL
 10
1.080677383917294
 20
92.06167992069373
 30
0.0
  0
VERTEX
  5
190
  8
T8_DRILL
 10
1.084432098181589
 20
92.05337431337622
 30
0.0
  0
VERTEX
  5
191
  8
T8_DRILL
 10
1.087789186809123
 20
92.04485956260939
 30
0.0
  0
VERTEX
  5
192
  8
T8_DRILL
 10
1.090736870123945
 20
92.03614744828761
 30
0.0
  0
VERTEX
  5
193
  8
T8_DRILL
 10
1.093263368450099
 20
92.02724975030523
 30
0.0
  0
VERTEX
  5
194
  8
T8_DRILL
 10
1.095356902111634
 20
92.01817824855661
 30
0.0
  0
VERTEX
  5
195
  8
T8_DRILL
 10
1.097005691432595
 20
92.00894472293612
 30
0.0
  0
VERTEX
  5
196
  8
T8_DRILL
 10
1.098197956737029
 20
91.9995609533381
 30
0.0
  0
VERTEX
  5
197
  8
T8_DRILL
 10
1.098921918348984
 20
91.99003871965694
 30
0.0
  0
SEQEND
  5
76A
  8
T8_DRILL
  0
POLYLINE
  5
75
  8
T8_DRILL
 66
     1
 10
0.0
 20
0.0
 30
0.0
 70
     1
  0
VERTEX
  5
198
  8
T8_DRILL
 10
0.85727941705807
 20
74.93265753759165
 30
0.0
  0
VERTEX
  5
199
  8
T8_DRILL
 10
0.8570353599174872
 20
74.923008624245
 30
0.0
  0
VERTEX
  5
19A
  8
T8_DRILL
 10
0.8563112217573592
 20
74.91348640398817
 30
0.0
  0
VERTEX
  5
19B
  8
T8_DRILL
 10
0.8551187824720438
 20
74.90410265649712
 30
0.0
  0
VERTEX
  5
19C
  8
T8_DRILL
 10
0.8534698219558992
 20
74.89486916144783
 30
0.0
  0
VERTEX
  5
19D
  8
T8_DRILL
 10
0.8513761201032835
 20
74.88579769851623
 30
0.0
  0
VERTEX
  5
19E
  8
T8_DRILL
 10
0.848849456808555
 20
74.87690004737827
 30
0.0
  0
VERTEX
  5
19F
  8
T8_DRILL
 10
0.8459016119660714
 20
74.86818798770992
 30
0.0
  0
VERTEX
  5
1A0
  8
T8_DRILL
 10
0.8425443654701912
 20
74.85967329918711
 30
0.0
  0
VERTEX
  5
1A1
  8
T8_DRILL
 10
0.8387894972152723
 20
74.85136776148582
 30
0.0
  0
VERTEX
  5
1A2
  8
T8_DRILL
 10
0.8346487870956729
 20
74.84328315428198
 30
0.0
  0
VERTEX
  5
1A3
  8
T8_DRILL
 10
0.8301340150057512
 20
74.83543125725154
 30
0.0
  0
VERTEX
  5
1A4
  8
T8_DRILL
 10
0.8252569608398652
 20
74.82782385007049
 30
0.0
  0
VERTEX
  5
1A5
  8
T8_DRILL
 10
0.820029404492373
 20
74.82047271241476
 30
0.0
  0
VERTEX
  5
1A6
  8
T8_DRILL
 10
0.8144631258576327
 20
74.81338962396029
 30
0.0
  0
VERTEX
  5
1A7
  8
T8_DRILL
 10
0.8085699048300026
 20
74.80658636438307
 30
0.0
  0
VERTEX
  5
1A8
  8
T8_DRILL
 10
0.8023615213038404
 20
74.80007471335901
 30
0.0
  0
VERTEX
  5
1A9
  8
T8_DRILL
 10
0.7958497551735046
 20
74.79386645056408
 30
0.0
  0
VERTEX
  5
1AA
  8
T8_DRILL
 10
0.7890463863333532
 20
74.78797335567424
 30
0.0
  0
VERTEX
  5
1AB
  8
T8_DRILL
 10
0.7819631946777443
 20
74.78240720836544
 30
0.0
  0
VERTEX
  5
1AC
  8
T8_DRILL
 10
0.774611960101036
 20
74.77717978831366
 30
0.0
  0
VERTEX
  5
1AD
  8
T8_DRILL
 10
0.7670044624975865
 20
74.77230287519481
 30
0.0
  0
VERTEX
  5
1AE
  8
T8_DRILL
 10
0.7591524817617537
 20
74.76778824868487
 30
0.0
  0
VERTEX
  5
1AF
  8
T8_DRILL
 10
0.7510677977878957
 20
74.76364768845977
 30
0.0
  0
VERTEX
  5
1B0
  8
T8_DRILL
 10
0.742762190470371
 20
74.75989297419548
 30
0.0
  0
VERTEX
  5
1B1
  8
T8_DRILL
 10
0.7342474397035372
 20
74.75653588556796
 30
0.0
  0
VERTEX
  5
1B2
  8
T8_DRILL
 10
0.7255353253817529
 20
74.75358820225313
 30
0.0
  0
VERTEX
  5
1B3
  8
T8_DRILL
 10
0.716637627399376
 20
74.751061703927
 30
0.0
  0
VERTEX
  5
1B4
  8
T8_DRILL
 10
0.7075661256507646
 20
74.74896817026546
 30
0.0
  0
VERTEX
  5
1B5
  8
T8_DRILL
 10
0.6983326000302768
 20
74.7473193809445
 30
0.0
  0
VERTEX
  5
1B6
  8
T8_DRILL
 10
0.6889488304322706
 20
74.74612711564006
 30
0.0
  0
VERTEX
  5
1B7
  8
T8_DRILL
 10
0.6794265967511044
 20
74.74540315402811
 30
0.0
  0
VERTEX
  5
1B8
  8
T8_DRILL
 10
0.669777678881136
 20
74.74515927578462
 30
0.0
  0
VERTEX
  5
1B9
  8
T8_DRILL
 10
0.6601287655344845
 20
74.7454033329252
 30
0.0
  0
VERTEX
  5
1BA
  8
T8_DRILL
 10
0.6506065452776656
 20
74.74612747108532
 30
0.0
  0
VERTEX
  5
1BB
  8
T8_DRILL
 10
0.6412227977866326
 20
74.74731991037063
 30
0.0
  0
VERTEX
  5
1BC
  8
T8_DRILL
 10
0.6319893027373391
 20
74.74896887088677
 30
0.0
  0
VERTEX
  5
1BD
  8
T8_DRILL
 10
0.6229178398057383
 20
74.75106257273939
 30
0.0
  0
VERTEX
  5
1BE
  8
T8_DRILL
 10
0.614020188667784
 20
74.75358923603409
 30
0.0
  0
VERTEX
  5
1BF
  8
T8_DRILL
 10
0.6053081289994292
 20
74.75653708087657
 30
0.0
  0
VERTEX
  5
1C0
  8
T8_DRILL
 10
0.5967934404766275
 20
74.75989432737245
 30
0.0
  0
VERTEX
  5
1C1
  8
T8_DRILL
 10
0.5884879027753324
 20
74.76364919562737
 30
0.0
  0
VERTEX
  5
1C2
  8
T8_DRILL
 10
0.5804032955714972
 20
74.76778990574697
 30
0.0
  0
VERTEX
  5
1C3
  8
T8_DRILL
 10
0.5725513985410754
 20
74.77230467783689
 30
0.0
  0
VERTEX
  5
1C4
  8
T8_DRILL
 10
0.5649439913600203
 20
74.77718173200276
 30
0.0
  0
VERTEX
  5
1C5
  8
T8_DRILL
 10
0.5575928537042855
 20
74.78240928835024
 30
0.0
  0
VERTEX
  5
1C6
  8
T8_DRILL
 10
0.5505097652498242
 20
74.787975566985
 30
0.0
  0
VERTEX
  5
1C7
  8
T8_DRILL
 10
0.54370650567259
 20
74.79386878801263
 30
0.0
  0
VERTEX
  5
1C8
  8
T8_DRILL
 10
0.5371948546485363
 20
74.80007717153879
 30
0.0
  0
VERTEX
  5
1C9
  8
T8_DRILL
 10
0.5309865918536165
 20
74.80658893766912
 30
0.0
  0
VERTEX
  5
1CA
  8
T8_DRILL
 10
0.525093496963784
 20
74.81339230650927
 30
0.0
  0
VERTEX
  5
1CB
  8
T8_DRILL
 10
0.5195273496549923
 20
74.82047549816488
 30
0.0
  0
VERTEX
  5
1CC
  8
T8_DRILL
 10
0.5142999296031947
 20
74.82782673274158
 30
0.0
  0
VERTEX
  5
1CD
  8
T8_DRILL
 10
0.5094230164843446
 20
74.83543423034504
 30
0.0
  0
VERTEX
  5
1CE
  8
T8_DRILL
 10
0.5049083899743957
 20
74.84328621108088
 30
0.0
  0
VERTEX
  5
1CF
  8
T8_DRILL
 10
0.5007678297493011
 20
74.85137089505474
 30
0.0
  0
VERTEX
  5
1D0
  8
T8_DRILL
 10
0.4970131154850144
 20
74.85967650237225
 30
0.0
  0
VERTEX
  5
1D1
  8
T8_DRILL
 10
0.4936560268574889
 20
74.86819125313909
 30
0.0
  0
VERTEX
  5
1D2
  8
T8_DRILL
 10
0.4907083435426781
 20
74.87690336746087
 30
0.0
  0
VERTEX
  5
1D3
  8
T8_DRILL
 10
0.4881818452165354
 20
74.88580106544325
 30
0.0
  0
VERTEX
  5
1D4
  8
T8_DRILL
 10
0.4860883115550143
 20
74.89487256719187
 30
0.0
  0
VERTEX
  5
1D5
  8
T8_DRILL
 10
0.4844395222340682
 20
74.90410609281236
 30
0.0
  0
VERTEX
  5
1D6
  8
T8_DRILL
 10
0.4832472569296503
 20
74.91348986241036
 30
0.0
  0
VERTEX
  5
1D7
  8
T8_DRILL
 10
0.4825232953177143
 20
74.92301209609153
 30
0.0
  0
VERTEX
  5
1D8
  8
T8_DRILL
 10
0.4822794170742135
 20
74.93266101396149
 30
0.0
  0
VERTEX
  5
1D9
  8
T8_DRILL
 10
0.4825234742147859
 20
74.94230992730814
 30
0.0
  0
VERTEX
  5
1DA
  8
T8_DRILL
 10
0.4832476123749043
 20
74.95183214756496
 30
0.0
  0
VERTEX
  5
1DB
  8
T8_DRILL
 10
0.4844400516602108
 20
74.96121589505599
 30
0.0
  0
VERTEX
  5
1DC
  8
T8_DRILL
 10
0.486089012176347
 20
74.97044939010527
 30
0.0
  0
VERTEX
  5
1DD
  8
T8_DRILL
 10
0.4881827140289551
 20
74.97952085303686
 30
0.0
  0
VERTEX
  5
1DE
  8
T8_DRILL
 10
0.4907093773236767
 20
74.98841850417482
 30
0.0
  0
VERTEX
  5
1DF
  8
T8_DRILL
 10
0.4936572221661538
 20
74.99713056384317
 30
0.0
  0
VERTEX
  5
1E0
  8
T8_DRILL
 10
0.4970144686620284
 20
75.00564525236597
 30
0.0
  0
VERTEX
  5
1E1
  8
T8_DRILL
 10
0.5007693369169421
 20
75.01395079006727
 30
0.0
  0
VERTEX
  5
1E2
  8
T8_DRILL
 10
0.5049100470365373
 20
75.0220353972711
 30
0.0
  0
VERTEX
  5
1E3
  8
T8_DRILL
 10
0.5094248191264554
 20
75.02988729430152
 30
0.0
  0
VERTEX
  5
1E4
  8
T8_DRILL
 10
0.5143018732923383
 20
75.03749470148256
 30
0.0
  0
VERTEX
  5
1E5
  8
T8_DRILL
 10
0.5195294296398283
 20
75.04484583913829
 30
0.0
  0
VERTEX
  5
1E6
  8
T8_DRILL
 10
0.5250957082745669
 20
75.05192892759275
 30
0.0
  0
VERTEX
  5
1E7
  8
T8_DRILL
 10
0.5309889293021961
 20
75.05873218717
 30
0.0
  0
VERTEX
  5
1E8
  8
T8_DRILL
 10
0.5371973128283578
 20
75.06524383819404
 30
0.0
  0
VERTEX
  5
1E9
  8
T8_DRILL
 10
0.543709078958694
 20
75.07145210098895
 30
0.0
  0
VERTEX
  5
1EA
  8
T8_DRILL
 10
0.5505124477988463
 20
75.07734519587879
 30
0.0
  0
VERTEX
  5
1EB
  8
T8_DRILL
 10
0.557595639454457
 20
75.08291134318759
 30
0.0
  0
VERTEX
  5
1EC
  8
T8_DRILL
 10
0.5649468740311676
 20
75.08813876323939
 30
0.0
  0
VERTEX
  5
1ED
  8
T8_DRILL
 10
0.5725543716346202
 20
75.09301567635825
 30
0.0
  0
VERTEX
  5
1EE
  8
T8_DRILL
 10
0.5804063523704566
 20
75.0975303028682
 30
0.0
  0
VERTEX
  5
1EF
  8
T8_DRILL
 10
0.5884910363443188
 20
75.10167086309329
 30
0.0
  0
VERTEX
  5
1F0
  8
T8_DRILL
 10
0.5967966436618486
 20
75.10542557735758
 30
0.0
  0
VERTEX
  5
1F1
  8
T8_DRILL
 10
0.6053113944286879
 20
75.1087826659851
 30
0.0
  0
VERTEX
  5
1F2
  8
T8_DRILL
 10
0.6140235087504786
 20
75.11173034929993
 30
0.0
  0
VERTEX
  5
1F3
  8
T8_DRILL
 10
0.6229212067328624
 20
75.1142568476261
 30
0.0
  0
VERTEX
  5
1F4
  8
T8_DRILL
 10
0.6319927084814816
 20
75.11635038128762
 30
0.0
  0
VERTEX
  5
1F5
  8
T8_DRILL
 10
0.6412262341019778
 20
75.11799917060858
 30
0.0
  0
VERTEX
  5
1F6
  8
T8_DRILL
 10
0.6506100036999929
 20
75.11919143591302
 30
0.0
  0
VERTEX
  5
1F7
  8
T8_DRILL
 10
0.6601322373811688
 20
75.11991539752498
 30
0.0
  0
VERTEX
  5
1F8
  8
T8_DRILL
 10
0.6697811552511475
 20
75.12015927576847
 30
0.0
  0
VERTEX
  5
1F9
  8
T8_DRILL
 10
0.6794300685977883
 20
75.11991521862788
 30
0.0
  0
VERTEX
  5
1FA
  8
T8_DRILL
 10
0.6889522888545967
 20
75.11919108046777
 30
0.0
  0
VERTEX
  5
1FB
  8
T8_DRILL
 10
0.6983360363456192
 20
75.11799864118245
 30
0.0
  0
VERTEX
  5
1FC
  8
T8_DRILL
 10
0.7075695313949024
 20
75.11634968066632
 30
0.0
  0
VERTEX
  5
1FD
  8
T8_DRILL
 10
0.7166409943264931
 20
75.1142559788137
 30
0.0
  0
VERTEX
  5
1FE
  8
T8_DRILL
 10
0.7255386454644379
 20
75.111729315519
 30
0.0
  0
VERTEX
  5
1FF
  8
T8_DRILL
 10
0.7342507051327833
 20
75.10878147067652
 30
0.0
  0
VERTEX
  5
200
  8
T8_DRILL
 10
0.742765393655576
 20
75.10542422418064
 30
0.0
  0
VERTEX
  5
201
  8
T8_DRILL
 10
0.7510709313568629
 20
75.10166935592572
 30
0.0
  0
VERTEX
  5
202
  8
T8_DRILL
 10
0.7591555385606901
 20
75.09752864580612
 30
0.0
  0
VERTEX
  5
203
  8
T8_DRILL
 10
0.7670074355911047
 20
75.0930138737162
 30
0.0
  0
VERTEX
  5
204
  8
T8_DRILL
 10
0.7746148427721533
 20
75.08813681955033
 30
0.0
  0
VERTEX
  5
205
  8
T8_DRILL
 10
0.7819659804278825
 20
75.08290926320285
 30
0.0
  0
VERTEX
  5
206
  8
T8_DRILL
 10
0.7890490688823386
 20
75.07734298456809
 30
0.0
  0
VERTEX
  5
207
  8
T8_DRILL
 10
0.7958523284595688
 20
75.07144976354046
 30
0.0
  0
VERTEX
  5
208
  8
T8_DRILL
 10
0.8023639794836193
 20
75.0652413800143
 30
0.0
  0
VERTEX
  5
209
  8
T8_DRILL
 10
0.808572242278537
 20
75.05872961388397
 30
0.0
  0
VERTEX
  5
20A
  8
T8_DRILL
 10
0.8144653371683683
 20
75.05192624504383
 30
0.0
  0
VERTEX
  5
20B
  8
T8_DRILL
 10
0.8200314844771601
 20
75.04484305338823
 30
0.0
  0
VERTEX
  5
20C
  8
T8_DRILL
 10
0.8252589045289589
 20
75.03749181881152
 30
0.0
  0
VERTEX
  5
20D
  8
T8_DRILL
 10
0.8301358176478115
 20
75.02988432120806
 30
0.0
  0
VERTEX
  5
20E
  8
T8_DRILL
 10
0.8346504441577642
 20
75.02203234047224
 30
0.0
  0
VERTEX
  5
20F
  8
T8_DRILL
 10
0.8387910043828639
 20
75.01394765649837
 30
0.0
  0
VERTEX
  5
210
  8
T8_DRILL
 10
0.8425457186471572
 20
75.00564204918086
 30
0.0
  0
VERTEX
  5
211
  8
T8_DRILL
 10
0.8459028072746908
 20
74.99712729841403
 30
0.0
  0
VERTEX
  5
212
  8
T8_DRILL
 10
0.8488504905895111
 20
74.98841518409225
 30
0.0
  0
VERTEX
  5
213
  8
T8_DRILL
 10
0.8513769889156652
 20
74.97951748610987
 30
0.0
  0
VERTEX
  5
214
  8
T8_DRILL
 10
0.8534705225771992
 20
74.97044598436126
 30
0.0
  0
VERTEX
  5
215
  8
T8_DRILL
 10
0.8551193118981602
 20
74.96121245874079
 30
0.0
  0
VERTEX
  5
216
  8
T8_DRILL
 10
0.8563115772025944
 20
74.95182868914279
 30
0.0
  0
VERTEX
  5
217
  8
T8_DRILL
 10
0.8570355388145489
 20
74.94230645546162
 30
0.0
  0
SEQEND
  5
76B
  8
T8_DRILL
  0
POLYLINE
  5
76
  8
T8_DRILL
 66
     1
 10
0.0
 20
0.0
 30
0.0
 70
     1
  0
VERTEX
  5
218
  8
T8_DRILL
 10
3.080577370505811
 20
72.42870828131818
 30
0.0
  0
VERTEX
  5
219
  8
T8_DRILL
 10
3.080333313365238
 20
72.41905936797153
 30
0.0
  0
VERTEX
  5
21A
  8
T8_DRILL
 10
3.07960917520512
 20
72.4095371477147
 30
0.0
  0
VERTEX
  5
21B
  8
T8_DRILL
 10
3.078416735919814
 20
72.40015340022366
 30
0.0
  0
VERTEX
  5
21C
  8
T8_DRILL
 10
3.076767775403678
 20
72.39091990517437
 30
0.0
  0
VERTEX
  5
21D
  8
T8_DRILL
 10
3.07467407355107
 20
72.38184844224276
 30
0.0
  0
VERTEX
  5
21E
  8
T8_DRILL
 10
3.072147410256348
 20
72.37295079110481
 30
0.0
  0
VERTEX
  5
21F
  8
T8_DRILL
 10
3.069199565413872
 20
72.36423873143646
 30
0.0
  0
VERTEX
  5
220
  8
T8_DRILL
 10
3.065842318917998
 20
72.35572404291366
 30
0.0
  0
VERTEX
  5
221
  8
T8_DRILL
 10
3.062087450663085
 20
72.34741850521237
 30
0.0
  0
VERTEX
  5
222
  8
T8_DRILL
 10
3.057946740543491
 20
72.33933389800853
 30
0.0
  0
VERTEX
  5
223
  8
T8_DRILL
 10
3.053431968453574
 20
72.3314820009781
 30
0.0
  0
VERTEX
  5
224
  8
T8_DRILL
 10
3.048554914287692
 20
72.32387459379704
 30
0.0
  0
VERTEX
  5
225
  8
T8_DRILL
 10
3.043327357940203
 20
72.31652345614131
 30
0.0
  0
VERTEX
  5
226
  8
T8_DRILL
 10
3.037761079305467
 20
72.30944036768685
 30
0.0
  0
VERTEX
  5
227
  8
T8_DRILL
 10
3.03186785827784
 20
72.30263710810962
 30
0.0
  0
VERTEX
  5
228
  8
T8_DRILL
 10
3.025659474751681
 20
72.29612545708557
 30
0.0
  0
VERTEX
  5
229
  8
T8_DRILL
 10
3.019147708621348
 20
72.28991719429064
 30
0.0
  0
VERTEX
  5
22A
  8
T8_DRILL
 10
3.012344339781198
 20
72.2840240994008
 30
0.0
  0
VERTEX
  5
22B
  8
T8_DRILL
 10
3.005261148125591
 20
72.278457952092
 30
0.0
  0
VERTEX
  5
22C
  8
T8_DRILL
 10
2.997909913548884
 20
72.27323053204022
 30
0.0
  0
VERTEX
  5
22D
  8
T8_DRILL
 10
2.990302415945436
 20
72.26835361892137
 30
0.0
  0
VERTEX
  5
22E
  8
T8_DRILL
 10
2.982450435209604
 20
72.26383899241142
 30
0.0
  0
VERTEX
  5
22F
  8
T8_DRILL
 10
2.974365751235748
 20
72.25969843218633
 30
0.0
  0
VERTEX
  5
230
  8
T8_DRILL
 10
2.966060143918224
 20
72.25594371792204
 30
0.0
  0
VERTEX
  5
231
  8
T8_DRILL
 10
2.957545393151391
 20
72.25258662929451
 30
0.0
  0
VERTEX
  5
232
  8
T8_DRILL
 10
2.948833278829607
 20
72.24963894597968
 30
0.0
  0
VERTEX
  5
233
  8
T8_DRILL
 10
2.93993558084723
 20
72.24711244765352
 30
0.0
  0
VERTEX
  5
234
  8
T8_DRILL
 10
2.930864079098619
 20
72.245018913992
 30
0.0
  0
VERTEX
  5
235
  8
T8_DRILL
 10
2.921630553478131
 20
72.24337012467103
 30
0.0
  0
VERTEX
  5
236
  8
T8_DRILL
 10
2.912246783880125
 20
72.24217785936659
 30
0.0
  0
VERTEX
  5
237
  8
T8_DRILL
 10
2.902724550198958
 20
72.24145389775464
 30
0.0
  0
VERTEX
  5
238
  8
T8_DRILL
 10
2.893075632328991
 20
72.24121001951114
 30
0.0
  0
VERTEX
  5
239
  8
T8_DRILL
 10
2.883426718982339
 20
72.24145407665173
 30
0.0
  0
VERTEX
  5
23A
  8
T8_DRILL
 10
2.87390449872552
 20
72.24217821481184
 30
0.0
  0
VERTEX
  5
23B
  8
T8_DRILL
 10
2.864520751234487
 20
72.24337065409716
 30
0.0
  0
VERTEX
  5
23C
  8
T8_DRILL
 10
2.855287256185193
 20
72.2450196146133
 30
0.0
  0
VERTEX
  5
23D
  8
T8_DRILL
 10
2.846215793253592
 20
72.24711331646591
 30
0.0
  0
VERTEX
  5
23E
  8
T8_DRILL
 10
2.837318142115637
 20
72.24963997976064
 30
0.0
  0
VERTEX
  5
23F
  8
T8_DRILL
 10
2.828606082447281
 20
72.25258782460313
 30
0.0
  0
VERTEX
  5
240
  8
T8_DRILL
 10
2.820091393924478
 20
72.25594507109899
 30
0.0
  0
VERTEX
  5
241
  8
T8_DRILL
 10
2.811785856223182
 20
72.25969993935391
 30
0.0
  0
VERTEX
  5
242
  8
T8_DRILL
 10
2.803701249019344
 20
72.26384064947351
 30
0.0
  0
VERTEX
  5
243
  8
T8_DRILL
 10
2.79584935198892
 20
72.26835542156343
 30
0.0
  0
VERTEX
  5
244
  8
T8_DRILL
 10
2.788241944807863
 20
72.27323247572932
 30
0.0
  0
VERTEX
  5
245
  8
T8_DRILL
 10
2.780890807152125
 20
72.2784600320768
 30
0.0
  0
VERTEX
  5
246
  8
T8_DRILL
 10
2.77380771869766
 20
72.28402631071155
 30
0.0
  0
VERTEX
  5
247
  8
T8_DRILL
 10
2.767004459120421
 20
72.28991953173919
 30
0.0
  0
VERTEX
  5
248
  8
T8_DRILL
 10
2.760492808096362
 20
72.29612791526534
 30
0.0
  0
VERTEX
  5
249
  8
T8_DRILL
 10
2.754284545301437
 20
72.30263968139568
 30
0.0
  0
VERTEX
  5
24A
  8
T8_DRILL
 10
2.748391450411598
 20
72.30944305023583
 30
0.0
  0
VERTEX
  5
24B
  8
T8_DRILL
 10
2.742825303102799
 20
72.31652624189144
 30
0.0
  0
VERTEX
  5
24C
  8
T8_DRILL
 10
2.737597883050994
 20
72.32387747646814
 30
0.0
  0
VERTEX
  5
24D
  8
T8_DRILL
 10
2.732720969932135
 20
72.3314849740716
 30
0.0
  0
VERTEX
  5
24E
  8
T8_DRILL
 10
2.728206343422177
 20
72.33933695480744
 30
0.0
  0
VERTEX
  5
24F
  8
T8_DRILL
 10
2.724065783197071
 20
72.3474216387813
 30
0.0
  0
VERTEX
  5
250
  8
T8_DRILL
 10
2.720311068932773
 20
72.35572724609881
 30
0.0
  0
VERTEX
  5
251
  8
T8_DRILL
 10
2.716953980305235
 20
72.36424199686564
 30
0.0
  0
VERTEX
  5
252
  8
T8_DRILL
 10
2.714006296990411
 20
72.37295411118743
 30
0.0
  0
VERTEX
  5
253
  8
T8_DRILL
 10
2.711479798664254
 20
72.3818518091698
 30
0.0
  0
VERTEX
  5
254
  8
T8_DRILL
 10
2.709386265002717
 20
72.39092331091841
 30
0.0
  0
VERTEX
  5
255
  8
T8_DRILL
 10
2.707737475681753
 20
72.40015683653888
 30
0.0
  0
VERTEX
  5
256
  8
T8_DRILL
 10
2.706545210377318
 20
72.40954060613689
 30
0.0
  0
VERTEX
  5
257
  8
T8_DRILL
 10
2.705821248765362
 20
72.41906283981805
 30
0.0
  0
VERTEX
  5
258
  8
T8_DRILL
 10
2.705577370521841
 20
72.42871175768802
 30
0.0
  0
VERTEX
  5
259
  8
T8_DRILL
 10
2.705821427662434
 20
72.43836067103467
 30
0.0
  0
VERTEX
  5
25A
  8
T8_DRILL
 10
2.706545565822571
 20
72.44788289129148
 30
0.0
  0
VERTEX
  5
25B
  8
T8_DRILL
 10
2.707738005107895
 20
72.45726663878251
 30
0.0
  0
VERTEX
  5
25C
  8
T8_DRILL
 10
2.709386965624049
 20
72.4665001338318
 30
0.0
  0
VERTEX
  5
25D
  8
T8_DRILL
 10
2.711480667476672
 20
72.47557159676342
 30
0.0
  0
VERTEX
  5
25E
  8
T8_DRILL
 10
2.714007330771408
 20
72.48446924790136
 30
0.0
  0
VERTEX
  5
25F
  8
T8_DRILL
 10
2.716955175613898
 20
72.49318130756973
 30
0.0
  0
VERTEX
  5
260
  8
T8_DRILL
 10
2.720312422109783
 20
72.50169599609252
 30
0.0
  0
VERTEX
  5
261
  8
T8_DRILL
 10
2.724067290364707
 20
72.51000153379383
 30
0.0
  0
VERTEX
  5
262
  8
T8_DRILL
 10
2.728208000484311
 20
72.51808614099765
 30
0.0
  0
VERTEX
  5
263
  8
T8_DRILL
 10
2.732722772574236
 20
72.52593803802807
 30
0.0
  0
VERTEX
  5
264
  8
T8_DRILL
 10
2.737599826740126
 20
72.53354544520911
 30
0.0
  0
VERTEX
  5
265
  8
T8_DRILL
 10
2.74282738308762
 20
72.54089658286485
 30
0.0
  0
VERTEX
  5
266
  8
T8_DRILL
 10
2.748393661722362
 20
72.54797967131931
 30
0.0
  0
VERTEX
  5
267
  8
T8_DRILL
 10
2.754286882749993
 20
72.55478293089655
 30
0.0
  0
VERTEX
  5
268
  8
T8_DRILL
 10
2.760495266276155
 20
72.56129458192059
 30
0.0
  0
VERTEX
  5
269
  8
T8_DRILL
 10
2.767007032406491
 20
72.5675028447155
 30
0.0
  0
VERTEX
  5
26A
  8
T8_DRILL
 10
2.773810401246641
 20
72.57339593960535
 30
0.0
  0
VERTEX
  5
26B
  8
T8_DRILL
 10
2.780893592902248
 20
72.57896208691415
 30
0.0
  0
VERTEX
  5
26C
  8
T8_DRILL
 10
2.788244827478954
 20
72.58418950696594
 30
0.0
  0
VERTEX
  5
26D
  8
T8_DRILL
 10
2.795852325082401
 20
72.5890664200848
 30
0.0
  0
VERTEX
  5
26E
  8
T8_DRILL
 10
2.80370430581823
 20
72.59358104659475
 30
0.0
  0
VERTEX
  5
26F
  8
T8_DRILL
 10
2.811788989792084
 20
72.59772160681985
 30
0.0
  0
VERTEX
  5
270
  8
T8_DRILL
 10
2.820094597109604
 20
72.60147632108415
 30
0.0
  0
VERTEX
  5
271
  8
T8_DRILL
 10
2.828609347876432
 20
72.60483340971169
 30
0.0
  0
VERTEX
  5
272
  8
T8_DRILL
 10
2.83732146219821
 20
72.60778109302649
 30
0.0
  0
VERTEX
  5
273
  8
T8_DRILL
 10
2.84621916018058
 20
72.61030759135265
 30
0.0
  0
VERTEX
  5
274
  8
T8_DRILL
 10
2.855290661929184
 20
72.61240112501417
 30
0.0
  0
VERTEX
  5
275
  8
T8_DRILL
 10
2.864524187549663
 20
72.61404991433514
 30
0.0
  0
VERTEX
  5
276
  8
T8_DRILL
 10
2.87390795714766
 20
72.61524217963958
 30
0.0
  0
VERTEX
  5
277
  8
T8_DRILL
 10
2.883430190828816
 20
72.61596614125153
 30
0.0
  0
VERTEX
  5
278
  8
T8_DRILL
 10
2.893079108698775
 20
72.61621001949506
 30
0.0
  0
VERTEX
  5
279
  8
T8_DRILL
 10
2.902728022045426
 20
72.61596596235447
 30
0.0
  0
VERTEX
  5
27A
  8
T8_DRILL
 10
2.912250242302245
 20
72.61524182419436
 30
0.0
  0
VERTEX
  5
27B
  8
T8_DRILL
 10
2.921633989793278
 20
72.61404938490904
 30
0.0
  0
VERTEX
  5
27C
  8
T8_DRILL
 10
2.930867484842572
 20
72.6124004243929
 30
0.0
  0
VERTEX
  5
27D
  8
T8_DRILL
 10
2.939938947774173
 20
72.61030672254029
 30
0.0
  0
VERTEX
  5
27E
  8
T8_DRILL
 10
2.948836598912128
 20
72.60778005924556
 30
0.0
  0
VERTEX
  5
27F
  8
T8_DRILL
 10
2.957548658580483
 20
72.60483221440307
 30
0.0
  0
VERTEX
  5
280
  8
T8_DRILL
 10
2.966063347103285
 20
72.60147496790721
 30
0.0
  0
VERTEX
  5
281
  8
T8_DRILL
 10
2.974368884804581
 20
72.59772009965229
 30
0.0
  0
VERTEX
  5
282
  8
T8_DRILL
 10
2.982453492008417
 20
72.59357938953269
 30
0.0
  0
VERTEX
  5
283
  8
T8_DRILL
 10
2.99030538903884
 20
72.58906461744277
 30
0.0
  0
VERTEX
  5
284
  8
T8_DRILL
 10
2.997912796219897
 20
72.58418756327688
 30
0.0
  0
VERTEX
  5
285
  8
T8_DRILL
 10
3.005263933875633
 20
72.5789600069294
 30
0.0
  0
VERTEX
  5
286
  8
T8_DRILL
 10
3.012347022330096
 20
72.57339372829465
 30
0.0
  0
VERTEX
  5
287
  8
T8_DRILL
 10
3.019150281907332
 20
72.56750050726701
 30
0.0
  0
VERTEX
  5
288
  8
T8_DRILL
 10
3.025661932931389
 20
72.56129212374086
 30
0.0
  0
VERTEX
  5
289
  8
T8_DRILL
 10
3.031870195726311
 20
72.55478035761053
 30
0.0
  0
VERTEX
  5
28A
  8
T8_DRILL
 10
3.037763290616147
 20
72.54797698877037
 30
0.0
  0
VERTEX
  5
28B
  8
T8_DRILL
 10
3.043329437924942
 20
72.54089379711476
 30
0.0
  0
VERTEX
  5
28C
  8
T8_DRILL
 10
3.048556857976743
 20
72.53354256253806
 30
0.0
  0
VERTEX
  5
28D
  8
T8_DRILL
 10
3.053433771095598
 20
72.5259350649346
 30
0.0
  0
VERTEX
  5
28E
  8
T8_DRILL
 10
3.057948397605552
 20
72.51808308419876
 30
0.0
  0
VERTEX
  5
28F
  8
T8_DRILL
 10
3.062088957830652
 20
72.5099984002249
 30
0.0
  0
VERTEX
  5
290
  8
T8_DRILL
 10
3.065843672094944
 20
72.50169279290739
 30
0.0
  0
VERTEX
  5
291
  8
T8_DRILL
 10
3.069200760722476
 20
72.49317804214056
 30
0.0
  0
VERTEX
  5
292
  8
T8_DRILL
 10
3.072148444037293
 20
72.48446592781877
 30
0.0
  0
VERTEX
  5
293
  8
T8_DRILL
 10
3.074674942363443
 20
72.4755682298364
 30
0.0
  0
VERTEX
  5
294
  8
T8_DRILL
 10
3.076768476024973
 20
72.46649672808779
 30
0.0
  0
VERTEX
  5
295
  8
T8_DRILL
 10
3.078417265345927
 20
72.45726320246732
 30
0.0
  0
VERTEX
  5
296
  8
T8_DRILL
 10
3.079609530650354
 20
72.44787943286931
 30
0.0
  0
VERTEX
  5
297
  8
T8_DRILL
 10
3.0803334922623
 20
72.43835719918815
 30
0.0
  0
SEQEND
  5
76C
  8
T8_DRILL
  0
POLYLINE
  5
77
  8
T8_DRILL
 66
     1
 10
0.0
 20
0.0
 30
0.0
 70
     1
  0
VERTEX
  5
298
  8
T8_DRILL
 10
0.8614127022939577
 20
70.29417866107929
 30
0.0
  0
VERTEX
  5
299
  8
T8_DRILL
 10
0.8709713282160858
 20
70.29283351577322
 30
0.0
  0
VERTEX
  5
29A
  8
T8_DRILL
 10
0.8804839491379286
 20
70.29198268289382
 30
0.0
  0
VERTEX
  5
29B
  8
T8_DRILL
 10
0.8899370035799758
 20
70.29161648196248
 30
0.0
  0
VERTEX
  5
29C
  8
T8_DRILL
 10
0.8993169300627173
 20
70.29172523250065
 30
0.0
  0
VERTEX
  5
29D
  8
T8_DRILL
 10
0.9086101671066428
 20
70.29229925402976
 30
0.0
  0
VERTEX
  5
29E
  8
T8_DRILL
 10
0.9178031532322419
 20
70.29332886607125
 30
0.0
  0
VERTEX
  5
29F
  8
T8_DRILL
 10
0.9268823269600046
 20
70.29480438814653
 30
0.0
  0
VERTEX
  5
2A0
  8
T8_DRILL
 10
0.9358341268104207
 20
70.29671613977706
 30
0.0
  0
VERTEX
  5
2A1
  8
T8_DRILL
 10
0.9446449913039797
 20
70.29905444048426
 30
0.0
  0
VERTEX
  5
2A2
  8
T8_DRILL
 10
0.9533013589611716
 20
70.30180960978954
 30
0.0
  0
VERTEX
  5
2A3
  8
T8_DRILL
 10
0.9617896683024861
 20
70.30497196721436
 30
0.0
  0
VERTEX
  5
2A4
  8
T8_DRILL
 10
0.970096357848413
 20
70.30853183228015
 30
0.0
  0
VERTEX
  5
2A5
  8
T8_DRILL
 10
0.978207866119442
 20
70.31247952450833
 30
0.0
  0
VERTEX
  5
2A6
  8
T8_DRILL
 10
0.9861106316360629
 20
70.31680536342036
 30
0.0
  0
VERTEX
  5
2A7
  8
T8_DRILL
 10
0.9937910929187657
 20
70.32149966853764
 30
0.0
  0
VERTEX
  5
2A8
  8
T8_DRILL
 10
1.00123568848804
 20
70.3265527593816
 30
0.0
  0
VERTEX
  5
2A9
  8
T8_DRILL
 10
1.008430856864375
 20
70.33195495547369
 30
0.0
  0
VERTEX
  5
2AA
  8
T8_DRILL
 10
1.015363036568262
 20
70.33769657633535
 30
0.0
  0
VERTEX
  5
2AB
  8
T8_DRILL
 10
1.022018666120188
 20
70.34376794148798
 30
0.0
  0
VERTEX
  5
2AC
  8
T8_DRILL
 10
1.028384184040646
 20
70.35015937045304
 30
0.0
  0
VERTEX
  5
2AD
  8
T8_DRILL
 10
1.034446028850124
 20
70.35686118275197
 30
0.0
  0
VERTEX
  5
2AE
  8
T8_DRILL
 10
1.040190639069113
 20
70.36386369790617
 30
0.0
  0
VERTEX
  5
2AF
  8
T8_DRILL
 10
1.045604453218101
 20
70.3711572354371
 30
0.0
  0
VERTEX
  5
2B0
  8
T8_DRILL
 10
1.050673909817578
 20
70.37873211486617
 30
0.0
  0
VERTEX
  5
2B1
  8
T8_DRILL
 10
1.055385447388035
 20
70.38657865571483
 30
0.0
  0
VERTEX
  5
2B2
  8
T8_DRILL
 10
1.059725504449961
 20
70.3946871775045
 30
0.0
  0
VERTEX
  5
2B3
  8
T8_DRILL
 10
1.063680519523846
 20
70.40304799975661
 30
0.0
  0
VERTEX
  5
2B4
  8
T8_DRILL
 10
1.06723693113018
 20
70.4116514419926
 30
0.0
  0
VERTEX
  5
2B5
  8
T8_DRILL
 10
1.070381177789453
 20
70.42048782373391
 30
0.0
  0
VERTEX
  5
2B6
  8
T8_DRILL
 10
1.073099698022153
 20
70.42954746450195
 30
0.0
  0
VERTEX
  5
2B7
  8
T8_DRILL
 10
1.075378930348772
 20
70.43882068381816
 30
0.0
  0
VERTEX
  5
2B8
  8
T8_DRILL
 10
1.077205313289799
 20
70.44829780120399
 30
0.0
  0
VERTEX
  5
2B9
  8
T8_DRILL
 10
1.078551665118221
 20
70.45785630194283
 30
0.0
  0
VERTEX
  5
2BA
  8
T8_DRILL
 10
1.079403582782802
 20
70.46736873168082
 30
0.0
  0
VERTEX
  5
2BB
  8
T8_DRILL
 10
1.079770749593197
 20
70.47682153371595
 30
0.0
  0
VERTEX
  5
2BC
  8
T8_DRILL
 10
1.079662848859058
 20
70.48620115134622
 30
0.0
  0
VERTEX
  5
2BD
  8
T8_DRILL
 10
1.079089563890039
 20
70.49549402786963
 30
0.0
  0
VERTEX
  5
2BE
  8
T8_DRILL
 10
1.078060577995793
 20
70.50468660658412
 30
0.0
  0
VERTEX
  5
2BF
  8
T8_DRILL
 10
1.076585574485972
 20
70.5137653307877
 30
0.0
  0
VERTEX
  5
2C0
  8
T8_DRILL
 10
1.074674236670231
 20
70.52271664377837
 30
0.0
  0
VERTEX
  5
2C1
  8
T8_DRILL
 10
1.072336247858223
 20
70.5315269888541
 30
0.0
  0
VERTEX
  5
2C2
  8
T8_DRILL
 10
1.0695812913596
 20
70.54018280931288
 30
0.0
  0
VERTEX
  5
2C3
  8
T8_DRILL
 10
1.066419050484017
 20
70.54867054845272
 30
0.0
  0
VERTEX
  5
2C4
  8
T8_DRILL
 10
1.062859208541125
 20
70.55697664957158
 30
0.0
  0
VERTEX
  5
2C5
  8
T8_DRILL
 10
1.05891144884058
 20
70.56508755596747
 30
0.0
  0
VERTEX
  5
2C6
  8
T8_DRILL
 10
1.054585454692033
 20
70.57298971093834
 30
0.0
  0
VERTEX
  5
2C7
  8
T8_DRILL
 10
1.049890909405138
 20
70.58066955778223
 30
0.0
  0
VERTEX
  5
2C8
  8
T8_DRILL
 10
1.044837496289548
 20
70.58811353979709
 30
0.0
  0
VERTEX
  5
2C9
  8
T8_DRILL
 10
1.039434898654917
 20
70.59530810028093
 30
0.0
  0
VERTEX
  5
2CA
  8
T8_DRILL
 10
1.033692799810898
 20
70.60223968253172
 30
0.0
  0
VERTEX
  5
2CB
  8
T8_DRILL
 10
1.027620883067144
 20
70.60889472984744
 30
0.0
  0
VERTEX
  5
2CC
  8
T8_DRILL
 10
1.021228831733308
 20
70.6152596855261
 30
0.0
  0
VERTEX
  5
2CD
  8
T8_DRILL
 10
1.014526329119043
 20
70.62132099286568
 30
0.0
  0
VERTEX
  5
2CE
  8
T8_DRILL
 10
1.007523058534003
 20
70.62706509516417
 30
0.0
  0
VERTEX
  5
2CF
  8
T8_DRILL
 10
1.000228703287842
 20
70.63247843571953
 30
0.0
  0
VERTEX
  5
2D0
  8
T8_DRILL
 10
0.9926529466902111
 20
70.63754745782978
 30
0.0
  0
VERTEX
  5
2D1
  8
T8_DRILL
 10
0.9848054720507651
 20
70.6422586047929
 30
0.0
  0
VERTEX
  5
2D2
  8
T8_DRILL
 10
0.9766959626791568
 20
70.64659831990687
 30
0.0
  0
VERTEX
  5
2D3
  8
T8_DRILL
 10
0.9683341018850395
 20
70.6505530464697
 30
0.0
  0
VERTEX
  5
2D4
  8
T8_DRILL
 10
0.9597295729780664
 20
70.65410922777934
 30
0.0
  0
VERTEX
  5
2D5
  8
T8_DRILL
 10
0.9508920592678908
 20
70.6572533071338
 30
0.0
  0
VERTEX
  5
2D6
  8
T8_DRILL
 10
0.9418312440641659
 20
70.65997172783108
 30
0.0
  0
VERTEX
  5
2D7
  8
T8_DRILL
 10
0.932556810676545
 20
70.66225093316915
 30
0.0
  0
VERTEX
  5
2D8
  8
T8_DRILL
 10
0.9230784424146812
 20
70.664077366446
 30
0.0
  0
VERTEX
  5
2D9
  8
T8_DRILL
 10
0.9135212091995242
 20
70.66542362794934
 30
0.0
  0
VERTEX
  5
2DA
  8
T8_DRILL
 10
0.9040100421192454
 20
70.66627545688131
 30
0.0
  0
VERTEX
  5
2DB
  8
T8_DRILL
 10
0.8945584930098925
 20
70.66664253814405
 30
0.0
  0
VERTEX
  5
2DC
  8
T8_DRILL
 10
0.8851801137075131
 20
70.66653455663968
 30
0.0
  0
VERTEX
  5
2DD
  8
T8_DRILL
 10
0.8758884560481548
 20
70.66596119727035
 30
0.0
  0
VERTEX
  5
2DE
  8
T8_DRILL
 10
0.8666970718678648
 20
70.66493214493816
 30
0.0
  0
VERTEX
  5
2DF
  8
T8_DRILL
 10
0.8576195130026911
 20
70.66345708454527
 30
0.0
  0
VERTEX
  5
2E0
  8
T8_DRILL
 10
0.8486693312886809
 20
70.6615457009938
 30
0.0
  0
VERTEX
  5
2E1
  8
T8_DRILL
 10
0.8398600785618819
 20
70.65920767918588
 30
0.0
  0
VERTEX
  5
2E2
  8
T8_DRILL
 10
0.8312053066583417
 20
70.65645270402365
 30
0.0
  0
VERTEX
  5
2E3
  8
T8_DRILL
 10
0.8227185674141078
 20
70.65329046040921
 30
0.0
  0
VERTEX
  5
2E4
  8
T8_DRILL
 10
0.8144134126652277
 20
70.64973063324472
 30
0.0
  0
VERTEX
  5
2E5
  8
T8_DRILL
 10
0.806303394247749
 20
70.6457829074323
 30
0.0
  0
VERTEX
  5
2E6
  8
T8_DRILL
 10
0.7984020639977192
 20
70.64145696787409
 30
0.0
  0
VERTEX
  5
2E7
  8
T8_DRILL
 10
0.790722973751186
 20
70.63676249947221
 30
0.0
  0
VERTEX
  5
2E8
  8
T8_DRILL
 10
0.7832796753441968
 20
70.63170918712879
 30
0.0
  0
VERTEX
  5
2E9
  8
T8_DRILL
 10
0.7760857206127992
 20
70.62630671574598
 30
0.0
  0
VERTEX
  5
2EA
  8
T8_DRILL
 10
0.7691546613930408
 20
70.62056477022587
 30
0.0
  0
VERTEX
  5
2EB
  8
T8_DRILL
 10
0.7625000495209692
 20
70.61449303547062
 30
0.0
  0
VERTEX
  5
2EC
  8
T8_DRILL
 10
0.7561354368326317
 20
70.60810119638236
 30
0.0
  0
VERTEX
  5
2ED
  8
T8_DRILL
 10
0.7500743751640762
 20
70.60139893786322
 30
0.0
  0
VERTEX
  5
2EE
  8
T8_DRILL
 10
0.7443304163513498
 20
70.59439594481533
 30
0.0
  0
VERTEX
  5
2EF
  8
T8_DRILL
 10
0.7389171122305005
 20
70.58710190214082
 30
0.0
  0
VERTEX
  5
2F0
  8
T8_DRILL
 10
0.7338480146375758
 20
70.57952649474181
 30
0.0
  0
VERTEX
  5
2F1
  8
T8_DRILL
 10
0.7291366754086229
 20
70.57167940752045
 30
0.0
  0
VERTEX
  5
2F2
  8
T8_DRILL
 10
0.7247966463796898
 20
70.56357032537886
 30
0.0
  0
VERTEX
  5
2F3
  8
T8_DRILL
 10
0.7208414793868237
 20
70.55520893321916
 30
0.0
  0
VERTEX
  5
2F4
  8
T8_DRILL
 10
0.7172847262660723
 20
70.54660491594349
 30
0.0
  0
VERTEX
  5
2F5
  8
T8_DRILL
 10
0.7141399388534831
 20
70.53776795845398
 30
0.0
  0
VERTEX
  5
2F6
  8
T8_DRILL
 10
0.7114206689851037
 20
70.52870774565278
 30
0.0
  0
VERTEX
  5
2F7
  8
T8_DRILL
 10
0.7091404684969816
 20
70.51943396244198
 30
0.0
  0
VERTEX
  5
2F8
  8
T8_DRILL
 10
0.7073128892251646
 20
70.50995629372375
 30
0.0
  0
VERTEX
  5
2F9
  8
T8_DRILL
 10
0.7059666229593182
 20
70.50039900254467
 30
0.0
  0
VERTEX
  5
2FA
  8
T8_DRILL
 10
0.7051147776754212
 20
70.49088766752976
 30
0.0
  0
VERTEX
  5
2FB
  8
T8_DRILL
 10
0.7047476653747898
 20
70.48143584945072
 30
0.0
  0
VERTEX
  5
2FC
  8
T8_DRILL
 10
0.7048555980587404
 20
70.47205710907926
 30
0.0
  0
VERTEX
  5
2FD
  8
T8_DRILL
 10
0.7054288877285894
 20
70.46276500718706
 30
0.0
  0
VERTEX
  5
2FE
  8
T8_DRILL
 10
0.7064578463856531
 20
70.45357310454587
 30
0.0
  0
VERTEX
  5
2FF
  8
T8_DRILL
 10
0.7079327860312479
 20
70.44449496192735
 30
0.0
  0
VERTEX
  5
300
  8
T8_DRILL
 10
0.7098440186666898
 20
70.43554414010325
 30
0.0
  0
VERTEX
  5
301
  8
T8_DRILL
 10
0.7121818562932953
 20
70.42673419984523
 30
0.0
  0
VERTEX
  5
302
  8
T8_DRILL
 10
0.7149366109123811
 20
70.41807870192504
 30
0.0
  0
VERTEX
  5
303
  8
T8_DRILL
 10
0.7180985945252631
 20
70.40959120711435
 30
0.0
  0
VERTEX
  5
304
  8
T8_DRILL
 10
0.7216581191332578
 20
70.4012852761849
 30
0.0
  0
VERTEX
  5
305
  8
T8_DRILL
 10
0.7256054967376815
 20
70.39317446990835
 30
0.0
  0
VERTEX
  5
306
  8
T8_DRILL
 10
0.7299310393398504
 20
70.38527234905645
 30
0.0
  0
VERTEX
  5
307
  8
T8_DRILL
 10
0.734625058941081
 20
70.37759247440087
 30
0.0
  0
VERTEX
  5
308
  8
T8_DRILL
 10
0.7396778675426896
 20
70.37014840671337
 30
0.0
  0
VERTEX
  5
309
  8
T8_DRILL
 10
0.7450797771459925
 20
70.36295370676561
 30
0.0
  0
VERTEX
  5
30A
  8
T8_DRILL
 10
0.7508210997523062
 20
70.3560219353293
 30
0.0
  0
VERTEX
  5
30B
  8
T8_DRILL
 10
0.7568921473629466
 20
70.34936665317613
 30
0.0
  0
VERTEX
  5
30C
  8
T8_DRILL
 10
0.7632832319792304
 20
70.34300142107786
 30
0.0
  0
VERTEX
  5
30D
  8
T8_DRILL
 10
0.7699846656024739
 20
70.33693979980615
 30
0.0
  0
VERTEX
  5
30E
  8
T8_DRILL
 10
0.7769867602339933
 20
70.33119535013273
 30
0.0
  0
VERTEX
  5
30F
  8
T8_DRILL
 10
0.7842798278751049
 20
70.32578163282929
 30
0.0
  0
VERTEX
  5
310
  8
T8_DRILL
 10
0.7918541805271252
 20
70.32071220866756
 30
0.0
  0
VERTEX
  5
311
  8
T8_DRILL
 10
0.7997001301913704
 20
70.31600063841923
 30
0.0
  0
VERTEX
  5
312
  8
T8_DRILL
 10
0.807807988869157
 20
70.31166048285598
 30
0.0
  0
VERTEX
  5
313
  8
T8_DRILL
 10
0.8161680685618011
 20
70.30770530274955
 30
0.0
  0
VERTEX
  5
314
  8
T8_DRILL
 10
0.8247706812706193
 20
70.30414865887164
 30
0.0
  0
VERTEX
  5
315
  8
T8_DRILL
 10
0.8336061389969276
 20
70.30100411199396
 30
0.0
  0
VERTEX
  5
316
  8
T8_DRILL
 10
0.8426647537420426
 20
70.29828522288821
 30
0.0
  0
VERTEX
  5
317
  8
T8_DRILL
 10
0.8519368375072806
 20
70.29600555232608
 30
0.0
  0
SEQEND
  5
76D
  8
T8_DRILL
  0
POLYLINE
  5
78
  8
T8_DRILL
 66
     1
 10
0.0
 20
0.0
 30
0.0
 70
     1
  0
VERTEX
  5
318
  8
T8_DRILL
 10
2.965720626145046
 20
67.68942025741981
 30
0.0
  0
VERTEX
  5
319
  8
T8_DRILL
 10
2.975278022955097
 20
67.68807519990281
 30
0.0
  0
VERTEX
  5
31A
  8
T8_DRILL
 10
2.984789491558563
 20
67.68722444932749
 30
0.0
  0
VERTEX
  5
31B
  8
T8_DRILL
 10
2.994241467998718
 20
67.68685832539217
 30
0.0
  0
VERTEX
  5
31C
  8
T8_DRILL
 10
3.003620388318836
 20
67.68696714779529
 30
0.0
  0
VERTEX
  5
31D
  8
T8_DRILL
 10
3.01291268856219
 20
67.68754123623518
 30
0.0
  0
VERTEX
  5
31E
  8
T8_DRILL
 10
3.022104804772052
 20
67.68857091041019
 30
0.0
  0
VERTEX
  5
31F
  8
T8_DRILL
 10
3.031183172991698
 20
67.69004649001873
 30
0.0
  0
VERTEX
  5
320
  8
T8_DRILL
 10
3.0401342292644
 20
67.69195829475912
 30
0.0
  0
VERTEX
  5
321
  8
T8_DRILL
 10
3.048944409633434
 20
67.69429664432975
 30
0.0
  0
VERTEX
  5
322
  8
T8_DRILL
 10
3.057600150142071
 20
67.69705185842899
 30
0.0
  0
VERTEX
  5
323
  8
T8_DRILL
 10
3.066087886833585
 20
67.7002142567552
 30
0.0
  0
VERTEX
  5
324
  8
T8_DRILL
 10
3.074394055751251
 20
67.70377415900676
 30
0.0
  0
VERTEX
  5
325
  8
T8_DRILL
 10
3.082505092938342
 20
67.707721884882
 30
0.0
  0
VERTEX
  5
326
  8
T8_DRILL
 10
3.090407434438131
 20
67.71204775407935
 30
0.0
  0
VERTEX
  5
327
  8
T8_DRILL
 10
3.098087516293892
 20
67.7167420862971
 30
0.0
  0
VERTEX
  5
328
  8
T8_DRILL
 10
3.105531774548898
 20
67.72179520123368
 30
0.0
  0
VERTEX
  5
329
  8
T8_DRILL
 10
3.112726645246424
 20
67.72719741858742
 30
0.0
  0
VERTEX
  5
32A
  8
T8_DRILL
 10
3.119658564429742
 20
67.73293905805667
 30
0.0
  0
VERTEX
  5
32B
  8
T8_DRILL
 10
3.126313968142127
 20
67.73901043933986
 30
0.0
  0
VERTEX
  5
32C
  8
T8_DRILL
 10
3.132679292426852
 20
67.74540188213531
 30
0.0
  0
VERTEX
  5
32D
  8
T8_DRILL
 10
3.138740973327191
 20
67.7521037061414
 30
0.0
  0
VERTEX
  5
32E
  8
T8_DRILL
 10
3.144485446886416
 20
67.7591062310565
 30
0.0
  0
VERTEX
  5
32F
  8
T8_DRILL
 10
3.149899149147803
 20
67.76639977657896
 30
0.0
  0
VERTEX
  5
330
  8
T8_DRILL
 10
3.154968516154625
 20
67.77397466240717
 30
0.0
  0
VERTEX
  5
331
  8
T8_DRILL
 10
3.159679983950154
 20
67.78182120823948
 30
0.0
  0
VERTEX
  5
332
  8
T8_DRILL
 10
3.164019988577665
 20
67.78992973377426
 30
0.0
  0
VERTEX
  5
333
  8
T8_DRILL
 10
3.167974966080431
 20
67.79829055870988
 30
0.0
  0
VERTEX
  5
334
  8
T8_DRILL
 10
3.171531352501725
 20
67.8068940027447
 30
0.0
  0
VERTEX
  5
335
  8
T8_DRILL
 10
3.174675583884823
 20
67.81573038557708
 30
0.0
  0
VERTEX
  5
336
  8
T8_DRILL
 10
3.177394096272997
 20
67.82479002690542
 30
0.0
  0
VERTEX
  5
337
  8
T8_DRILL
 10
3.17967332570952
 20
67.83406324642804
 30
0.0
  0
VERTEX
  5
338
  8
T8_DRILL
 10
3.181499708237666
 20
67.84354036384336
 30
0.0
  0
VERTEX
  5
339
  8
T8_DRILL
 10
3.182846021669248
 20
67.85309886732469
 30
0.0
  0
VERTEX
  5
33A
  8
T8_DRILL
 10
3.183697829097721
 20
67.86261130493627
 30
0.0
  0
VERTEX
  5
33B
  8
T8_DRILL
 10
3.184064821264386
 20
67.8720641194453
 30
0.0
  0
VERTEX
  5
33C
  8
T8_DRILL
 10
3.183956688910546
 20
67.88144375361894
 30
0.0
  0
VERTEX
  5
33D
  8
T8_DRILL
 10
3.183383122777502
 20
67.8907366502244
 30
0.0
  0
VERTEX
  5
33E
  8
T8_DRILL
 10
3.182353813606555
 20
67.89992925202885
 30
0.0
  0
VERTEX
  5
33F
  8
T8_DRILL
 10
3.180878452139009
 20
67.90900800179949
 30
0.0
  0
VERTEX
  5
340
  8
T8_DRILL
 10
3.178966729116163
 20
67.91795934230348
 30
0.0
  0
VERTEX
  5
341
  8
T8_DRILL
 10
3.17662833527932
 20
67.926769716308
 30
0.0
  0
VERTEX
  5
342
  8
T8_DRILL
 10
3.173872961369782
 20
67.93542556658028
 30
0.0
  0
VERTEX
  5
343
  8
T8_DRILL
 10
3.170710298128851
 20
67.94391333588746
 30
0.0
  0
VERTEX
  5
344
  8
T8_DRILL
 10
3.167150036297827
 20
67.95221946699674
 30
0.0
  0
VERTEX
  5
345
  8
T8_DRILL
 10
3.163201866618013
 20
67.96033040267528
 30
0.0
  0
VERTEX
  5
346
  8
T8_DRILL
 10
3.15887547983071
 20
67.96823258569032
 30
0.0
  0
VERTEX
  5
347
  8
T8_DRILL
 10
3.154180566677221
 20
67.97591245880898
 30
0.0
  0
VERTEX
  5
348
  8
T8_DRILL
 10
3.149126817898847
 20
67.98335646479848
 30
0.0
  0
VERTEX
  5
349
  8
T8_DRILL
 10
3.143723924236889
 20
67.99055104642598
 30
0.0
  0
VERTEX
  5
34A
  8
T8_DRILL
 10
3.137981576432649
 20
67.99748264645869
 30
0.0
  0
VERTEX
  5
34B
  8
T8_DRILL
 10
3.131909465227429
 20
68.00413770766379
 30
0.0
  0
VERTEX
  5
34C
  8
T8_DRILL
 10
3.125517281362531
 20
68.01050267280844
 30
0.0
  0
VERTEX
  5
34D
  8
T8_DRILL
 10
3.118814715579256
 20
68.01656398465985
 30
0.0
  0
VERTEX
  5
34E
  8
T8_DRILL
 10
3.111811458618906
 20
68.02230808598519
 30
0.0
  0
VERTEX
  5
34F
  8
T8_DRILL
 10
3.104517201222782
 20
68.02772141955165
 30
0.0
  0
VERTEX
  5
350
  8
T8_DRILL
 10
3.096941634132187
 20
68.0327904281264
 30
0.0
  0
VERTEX
  5
351
  8
T8_DRILL
 10
3.089094448088423
 20
68.03750155447665
 30
0.0
  0
VERTEX
  5
352
  8
T8_DRILL
 10
3.08098533383279
 20
68.04184124136955
 30
0.0
  0
VERTEX
  5
353
  8
T8_DRILL
 10
3.07262398210659
 20
68.04579593157231
 30
0.0
  0
VERTEX
  5
354
  8
T8_DRILL
 10
3.064020083651126
 20
68.04935206785211
 30
0.0
  0
VERTEX
  5
355
  8
T8_DRILL
 10
3.055183329207699
 20
68.05249609297613
 30
0.0
  0
VERTEX
  5
356
  8
T8_DRILL
 10
3.04612340951761
 20
68.05521444971154
 30
0.0
  0
VERTEX
  5
357
  8
T8_DRILL
 10
3.036850015322162
 20
68.05749358082556
 30
0.0
  0
VERTEX
  5
358
  8
T8_DRILL
 10
3.027372837362655
 20
68.05931992908535
 30
0.0
  0
VERTEX
  5
359
  8
T8_DRILL
 10
3.017816753312564
 20
68.06066552961886
 30
0.0
  0
VERTEX
  5
35A
  8
T8_DRILL
 10
3.008306592249223
 20
68.06151681984872
 30
0.0
  0
VERTEX
  5
35B
  8
T8_DRILL
 10
2.998855912909525
 20
68.06188347671466
 30
0.0
  0
VERTEX
  5
35C
  8
T8_DRILL
 10
2.98947827403036
 20
68.06177517715632
 30
0.0
  0
VERTEX
  5
35D
  8
T8_DRILL
 10
2.980187234348622
 20
68.0612015981134
 30
0.0
  0
VERTEX
  5
35E
  8
T8_DRILL
 10
2.970996352601204
 20
68.06017241652555
 30
0.0
  0
VERTEX
  5
35F
  8
T8_DRILL
 10
2.961919187524996
 20
68.05869730933246
 30
0.0
  0
VERTEX
  5
360
  8
T8_DRILL
 10
2.952969297856892
 20
68.05678595347382
 30
0.0
  0
VERTEX
  5
361
  8
T8_DRILL
 10
2.944160242333783
 20
68.05444802588931
 30
0.0
  0
VERTEX
  5
362
  8
T8_DRILL
 10
2.935505579692562
 20
68.0516932035186
 30
0.0
  0
VERTEX
  5
363
  8
T8_DRILL
 10
2.927018868670121
 20
68.04853116330133
 30
0.0
  0
VERTEX
  5
364
  8
T8_DRILL
 10
2.918713668003352
 20
68.04497158217727
 30
0.0
  0
VERTEX
  5
365
  8
T8_DRILL
 10
2.910603536429147
 20
68.04102413708603
 30
0.0
  0
VERTEX
  5
366
  8
T8_DRILL
 10
2.902702032684399
 20
68.03669850496729
 30
0.0
  0
VERTEX
  5
367
  8
T8_DRILL
 10
2.895022715505999
 20
68.03200436276074
 30
0.0
  0
VERTEX
  5
368
  8
T8_DRILL
 10
2.887579143630842
 20
68.02695138740609
 30
0.0
  0
VERTEX
  5
369
  8
T8_DRILL
 10
2.880384875795817
 20
68.02154925584296
 30
0.0
  0
VERTEX
  5
36A
  8
T8_DRILL
 10
2.873453470737817
 20
68.01580764501105
 30
0.0
  0
VERTEX
  5
36B
  8
T8_DRILL
 10
2.866798487193736
 20
68.00973623185007
 30
0.0
  0
VERTEX
  5
36C
  8
T8_DRILL
 10
2.860433483900464
 20
68.00334469329967
 30
0.0
  0
VERTEX
  5
36D
  8
T8_DRILL
 10
2.854372019594895
 20
67.99664270629953
 30
0.0
  0
VERTEX
  5
36E
  8
T8_DRILL
 10
2.84862765301392
 20
67.9896399477893
 30
0.0
  0
VERTEX
  5
36F
  8
T8_DRILL
 10
2.843213942894431
 20
67.9823460947087
 30
0.0
  0
VERTEX
  5
370
  8
T8_DRILL
 10
2.838144447973322
 20
67.97477082399742
 30
0.0
  0
VERTEX
  5
371
  8
T8_DRILL
 10
2.833432726987484
 20
67.9669238125951
 30
0.0
  0
VERTEX
  5
372
  8
T8_DRILL
 10
2.829092338673808
 20
67.95881473744144
 30
0.0
  0
VERTEX
  5
373
  8
T8_DRILL
 10
2.825136841769189
 20
67.95045327547612
 30
0.0
  0
VERTEX
  5
374
  8
T8_DRILL
 10
2.821579795010516
 20
67.94184910363879
 30
0.0
  0
VERTEX
  5
375
  8
T8_DRILL
 10
2.818434757134684
 20
67.93301189886913
 30
0.0
  0
VERTEX
  5
376
  8
T8_DRILL
 10
2.815715286878584
 20
67.92395133810686
 30
0.0
  0
VERTEX
  5
377
  8
T8_DRILL
 10
2.813434942979109
 20
67.91467709829163
 30
0.0
  0
VERTEX
  5
378
  8
T8_DRILL
 10
2.811607284173149
 20
67.90519885636313
 30
0.0
  0
VERTEX
  5
379
  8
T8_DRILL
 10
2.810260977182869
 20
67.89564098920181
 30
0.0
  0
VERTEX
  5
37A
  8
T8_DRILL
 10
2.809409101613813
 20
67.88612918950244
 30
0.0
  0
VERTEX
  5
37B
  8
T8_DRILL
 10
2.809041971413708
 20
67.87667701042815
 30
0.0
  0
VERTEX
  5
37C
  8
T8_DRILL
 10
2.809149900530285
 20
67.86729800514206
 30
0.0
  0
VERTEX
  5
37D
  8
T8_DRILL
 10
2.80972320291127
 20
67.8580057268073
 30
0.0
  0
VERTEX
  5
37E
  8
T8_DRILL
 10
2.810752192504394
 20
67.84881372858698
 30
0.0
  0
VERTEX
  5
37F
  8
T8_DRILL
 10
2.812227183257384
 20
67.83973556364421
 30
0.0
  0
VERTEX
  5
380
  8
T8_DRILL
 10
2.814138489117969
 20
67.83078478514216
 30
0.0
  0
VERTEX
  5
381
  8
T8_DRILL
 10
2.816476424033877
 20
67.8219749462439
 30
0.0
  0
VERTEX
  5
382
  8
T8_DRILL
 10
2.819231301952839
 20
67.8133196001126
 30
0.0
  0
VERTEX
  5
383
  8
T8_DRILL
 10
2.822393436822582
 20
67.80483229991134
 30
0.0
  0
VERTEX
  5
384
  8
T8_DRILL
 10
2.825953142590835
 20
67.79652659880328
 30
0.0
  0
VERTEX
  5
385
  8
T8_DRILL
 10
2.829900733205326
 20
67.78841604995152
 30
0.0
  0
VERTEX
  5
386
  8
T8_DRILL
 10
2.834226522613784
 20
67.7805142065192
 30
0.0
  0
VERTEX
  5
387
  8
T8_DRILL
 10
2.838920824763938
 20
67.77283462166942
 30
0.0
  0
VERTEX
  5
388
  8
T8_DRILL
 10
2.843973953603516
 20
67.76539084856532
 30
0.0
  0
VERTEX
  5
389
  8
T8_DRILL
 10
2.849376223080247
 20
67.75819644037001
 30
0.0
  0
VERTEX
  5
38A
  8
T8_DRILL
 10
2.85511794714186
 20
67.75126495024664
 30
0.0
  0
VERTEX
  5
38B
  8
T8_DRILL
 10
2.861189439736083
 20
67.74460993135831
 30
0.0
  0
VERTEX
  5
38C
  8
T8_DRILL
 10
2.867581014810645
 20
67.73824493686813
 30
0.0
  0
VERTEX
  5
38D
  8
T8_DRILL
 10
2.874282986313274
 20
67.73218351993926
 30
0.0
  0
VERTEX
  5
38E
  8
T8_DRILL
 10
2.8812856681917
 20
67.7264392337348
 30
0.0
  0
VERTEX
  5
38F
  8
T8_DRILL
 10
2.88857937439365
 20
67.72102563141786
 30
0.0
  0
VERTEX
  5
390
  8
T8_DRILL
 10
2.896154418866854
 20
67.71595626615158
 30
0.0
  0
VERTEX
  5
391
  8
T8_DRILL
 10
2.90400111555904
 20
67.7112446910991
 30
0.0
  0
VERTEX
  5
392
  8
T8_DRILL
 10
2.912109778417937
 20
67.7069044594235
 30
0.0
  0
VERTEX
  5
393
  8
T8_DRILL
 10
2.920470721391273
 20
67.70294912428793
 30
0.0
  0
VERTEX
  5
394
  8
T8_DRILL
 10
2.929074258426777
 20
67.69939223885552
 30
0.0
  0
VERTEX
  5
395
  8
T8_DRILL
 10
2.937910703472177
 20
67.69624735628938
 30
0.0
  0
VERTEX
  5
396
  8
T8_DRILL
 10
2.946970370475204
 20
67.69352802975263
 30
0.0
  0
VERTEX
  5
397
  8
T8_DRILL
 10
2.956243573383584
 20
67.69124781240839
 30
0.0
  0
SEQEND
  5
76E
  8
T8_DRILL
  0
POLYLINE
  5
79
  8
T8_DRILL
 66
     1
 10
0.0
 20
0.0
 30
0.0
 70
     1
  0
VERTEX
  5
398
  8
T8_DRILL
 10
2.023968765384478
 20
54.11410150679347
 30
0.0
  0
VERTEX
  5
399
  8
T8_DRILL
 10
2.023037956255644
 20
54.10449442636429
 30
0.0
  0
VERTEX
  5
39A
  8
T8_DRILL
 10
2.021637243338197
 20
54.09504792858894
 30
0.0
  0
VERTEX
  5
39B
  8
T8_DRILL
 10
2.019779222700736
 20
54.08577292317204
 30
0.0
  0
VERTEX
  5
39C
  8
T8_DRILL
 10
2.017476490411859
 20
54.07668031981823
 30
0.0
  0
VERTEX
  5
39D
  8
T8_DRILL
 10
2.014741642540166
 20
54.06778102823212
 30
0.0
  0
VERTEX
  5
39E
  8
T8_DRILL
 10
2.011587275154255
 20
54.05908595811835
 30
0.0
  0
VERTEX
  5
39F
  8
T8_DRILL
 10
2.008025984322724
 20
54.05060601918153
 30
0.0
  0
VERTEX
  5
3A0
  8
T8_DRILL
 10
2.004070366114173
 20
54.04235212112629
 30
0.0
  0
VERTEX
  5
3A1
  8
T8_DRILL
 10
1.9997330165972
 20
54.03433517365725
 30
0.0
  0
VERTEX
  5
3A2
  8
T8_DRILL
 10
1.995026531840404
 20
54.02656608647904
 30
0.0
  0
VERTEX
  5
3A3
  8
T8_DRILL
 10
1.989963507912383
 20
54.01905576929628
 30
0.0
  0
VERTEX
  5
3A4
  8
T8_DRILL
 10
1.984556540881737
 20
54.0118151318136
 30
0.0
  0
VERTEX
  5
3A5
  8
T8_DRILL
 10
1.978818226817064
 20
54.00485508373563
 30
0.0
  0
VERTEX
  5
3A6
  8
T8_DRILL
 10
1.972761161786962
 20
53.99818653476697
 30
0.0
  0
VERTEX
  5
3A7
  8
T8_DRILL
 10
1.966397941860032
 20
53.99182039461227
 30
0.0
  0
VERTEX
  5
3A8
  8
T8_DRILL
 10
1.95974116310487
 20
53.98576757297614
 30
0.0
  0
VERTEX
  5
3A9
  8
T8_DRILL
 10
1.952803421590077
 20
53.9800389795632
 30
0.0
  0
VERTEX
  5
3AA
  8
T8_DRILL
 10
1.94559731338425
 20
53.9746455240781
 30
0.0
  0
VERTEX
  5
3AB
  8
T8_DRILL
 10
1.938135434555989
 20
53.96959811622544
 30
0.0
  0
VERTEX
  5
3AC
  8
T8_DRILL
 10
1.930430381173892
 20
53.96490766570986
 30
0.0
  0
VERTEX
  5
3AD
  8
T8_DRILL
 10
1.922494749306557
 20
53.96058508223597
 30
0.0
  0
VERTEX
  5
3AE
  8
T8_DRILL
 10
1.914341135022585
 20
53.9566412755084
 30
0.0
  0
VERTEX
  5
3AF
  8
T8_DRILL
 10
1.905982134390573
 20
53.95308715523178
 30
0.0
  0
VERTEX
  5
3B0
  8
T8_DRILL
 10
1.89743034347912
 20
53.94993363111073
 30
0.0
  0
VERTEX
  5
3B1
  8
T8_DRILL
 10
1.888698358356825
 20
53.94719161284988
 30
0.0
  0
VERTEX
  5
3B2
  8
T8_DRILL
 10
1.879798775092286
 20
53.94487201015384
 30
0.0
  0
VERTEX
  5
3B3
  8
T8_DRILL
 10
1.870744189754102
 20
53.94298573272724
 30
0.0
  0
VERTEX
  5
3B4
  8
T8_DRILL
 10
1.861547198410873
 20
53.94154369027473
 30
0.0
  0
VERTEX
  5
3B5
  8
T8_DRILL
 10
1.852220397131197
 20
53.9405567925009
 30
0.0
  0
VERTEX
  5
3B6
  8
T8_DRILL
 10
1.842776381983672
 20
53.94003594911038
 30
0.0
  0
VERTEX
  5
3B7
  8
T8_DRILL
 10
1.833227749036897
 20
53.9399920698078
 30
0.0
  0
VERTEX
  5
3B8
  8
T8_DRILL
 10
1.823587094359471
 20
53.9404360642978
 30
0.0
  0
VERTEX
  5
3B9
  8
T8_DRILL
 10
1.813980011187808
 20
53.94136683502978
 30
0.0
  0
VERTEX
  5
3BA
  8
T8_DRILL
 10
1.804533505538873
 20
53.94276743771111
 30
0.0
  0
VERTEX
  5
3BB
  8
T8_DRILL
 10
1.795258487648095
 20
53.94462528370482
 30
0.0
  0
VERTEX
  5
3BC
  8
T8_DRILL
 10
1.786165867750902
 20
53.94692778437399
 30
0.0
  0
VERTEX
  5
3BD
  8
T8_DRILL
 10
1.777266556082722
 20
53.94966235108164
 30
0.0
  0
VERTEX
  5
3BE
  8
T8_DRILL
 10
1.768571462878984
 20
53.95281639519085
 30
0.0
  0
VERTEX
  5
3BF
  8
T8_DRILL
 10
1.760091498375115
 20
53.95637732806465
 30
0.0
  0
VERTEX
  5
3C0
  8
T8_DRILL
 10
1.751837572806545
 20
53.96033256106608
 30
0.0
  0
VERTEX
  5
3C1
  8
T8_DRILL
 10
1.743820596408701
 20
53.96466950555821
 30
0.0
  0
VERTEX
  5
3C2
  8
T8_DRILL
 10
1.736051479417012
 20
53.96937557290408
 30
0.0
  0
VERTEX
  5
3C3
  8
T8_DRILL
 10
1.728541132066905
 20
53.97443817446674
 30
0.0
  0
VERTEX
  5
3C4
  8
T8_DRILL
 10
1.72130046459381
 20
53.97984472160925
 30
0.0
  0
VERTEX
  5
3C5
  8
T8_DRILL
 10
1.714340387233154
 20
53.98558262569465
 30
0.0
  0
VERTEX
  5
3C6
  8
T8_DRILL
 10
1.707671810220366
 20
53.99163929808599
 30
0.0
  0
VERTEX
  5
3C7
  8
T8_DRILL
 10
1.701305643790874
 20
53.99800215014631
 30
0.0
  0
VERTEX
  5
3C8
  8
T8_DRILL
 10
1.695252798180106
 20
54.00465859323869
 30
0.0
  0
VERTEX
  5
3C9
  8
T8_DRILL
 10
1.68952418362349
 20
54.01159603872615
 30
0.0
  0
VERTEX
  5
3CA
  8
T8_DRILL
 10
1.684130710356455
 20
54.01880189797176
 30
0.0
  0
VERTEX
  5
3CB
  8
T8_DRILL
 10
1.679083288614429
 20
54.02626358233855
 30
0.0
  0
VERTEX
  5
3CC
  8
T8_DRILL
 10
1.674392828632841
 20
54.03396850318958
 30
0.0
  0
VERTEX
  5
3CD
  8
T8_DRILL
 10
1.670070240647118
 20
54.0419040718879
 30
0.0
  0
VERTEX
  5
3CE
  8
T8_DRILL
 10
1.666126434892688
 20
54.05005769979656
 30
0.0
  0
VERTEX
  5
3CF
  8
T8_DRILL
 10
1.662572321604981
 20
54.05841679827861
 30
0.0
  0
VERTEX
  5
3D0
  8
T8_DRILL
 10
1.659418811019425
 20
54.0669687786971
 30
0.0
  0
VERTEX
  5
3D1
  8
T8_DRILL
 10
1.656676813371446
 20
54.07570105241508
 30
0.0
  0
VERTEX
  5
3D2
  8
T8_DRILL
 10
1.654357238896475
 20
54.0846010307956
 30
0.0
  0
VERTEX
  5
3D3
  8
T8_DRILL
 10
1.652470997829939
 20
54.09365612520171
 30
0.0
  0
VERTEX
  5
3D4
  8
T8_DRILL
 10
1.651029000407266
 20
54.10285374699646
 30
0.0
  0
VERTEX
  5
3D5
  8
T8_DRILL
 10
1.650042156863885
 20
54.11218130754289
 30
0.0
  0
VERTEX
  5
3D6
  8
T8_DRILL
 10
1.649521377435224
 20
54.12162621820406
 30
0.0
  0
VERTEX
  5
3D7
  8
T8_DRILL
 10
1.649477572356711
 20
54.13117589034301
 30
0.0
  0
VERTEX
  5
3D8
  8
T8_DRILL
 10
1.649921651863774
 20
54.1408177353228
 30
0.0
  0
VERTEX
  5
3D9
  8
T8_DRILL
 10
1.650852422595757
 20
54.15042481849446
 30
0.0
  0
VERTEX
  5
3DA
  8
T8_DRILL
 10
1.652253025277085
 20
54.1598713241434
 30
0.0
  0
VERTEX
  5
3DB
  8
T8_DRILL
 10
1.654110871270807
 20
54.16914634203417
 30
0.0
  0
VERTEX
  5
3DC
  8
T8_DRILL
 10
1.656413371939974
 20
54.17823896193137
 30
0.0
  0
VERTEX
  5
3DD
  8
T8_DRILL
 10
1.659147938647634
 20
54.18713827359954
 30
0.0
  0
VERTEX
  5
3DE
  8
T8_DRILL
 10
1.662301982756839
 20
54.19583336680329
 30
0.0
  0
VERTEX
  5
3DF
  8
T8_DRILL
 10
1.665862915630636
 20
54.20431333130716
 30
0.0
  0
VERTEX
  5
3E0
  8
T8_DRILL
 10
1.669818148632076
 20
54.21256725687572
 30
0.0
  0
VERTEX
  5
3E1
  8
T8_DRILL
 10
1.67415509312421
 20
54.22058423327356
 30
0.0
  0
VERTEX
  5
3E2
  8
T8_DRILL
 10
1.678861160470085
 20
54.22835335026525
 30
0.0
  0
VERTEX
  5
3E3
  8
T8_DRILL
 10
1.683923762032753
 20
54.23586369761536
 30
0.0
  0
VERTEX
  5
3E4
  8
T8_DRILL
 10
1.689330309175262
 20
54.24310436508846
 30
0.0
  0
VERTEX
  5
3E5
  8
T8_DRILL
 10
1.695068213260663
 20
54.25006444244911
 30
0.0
  0
VERTEX
  5
3E6
  8
T8_DRILL
 10
1.701124885652006
 20
54.2567330194619
 30
0.0
  0
VERTEX
  5
3E7
  8
T8_DRILL
 10
1.707487737712339
 20
54.26309918589139
 30
0.0
  0
VERTEX
  5
3E8
  8
T8_DRILL
 10
1.714144180804713
 20
54.26915203150216
 30
0.0
  0
VERTEX
  5
3E9
  8
T8_DRILL
 10
1.721081626292177
 20
54.27488064605878
 30
0.0
  0
VERTEX
  5
3EA
  8
T8_DRILL
 10
1.728287485537781
 20
54.28027411932581
 30
0.0
  0
VERTEX
  5
3EB
  8
T8_DRILL
 10
1.735749169904575
 20
54.28532154106784
 30
0.0
  0
VERTEX
  5
3EC
  8
T8_DRILL
 10
1.743454090755609
 20
54.29001200104943
 30
0.0
  0
VERTEX
  5
3ED
  8
T8_DRILL
 10
1.751389659453932
 20
54.29433458903515
 30
0.0
  0
VERTEX
  5
3EE
  8
T8_DRILL
 10
1.759543287362593
 20
54.29827839478958
 30
0.0
  0
VERTEX
  5
3EF
  8
T8_DRILL
 10
1.767902385844643
 20
54.3018325080773
 30
0.0
  0
VERTEX
  5
3F0
  8
T8_DRILL
 10
1.776454366263131
 20
54.30498601866285
 30
0.0
  0
VERTEX
  5
3F1
  8
T8_DRILL
 10
1.785186639981108
 20
54.30772801631083
 30
0.0
  0
VERTEX
  5
3F2
  8
T8_DRILL
 10
1.794086618361622
 20
54.3100475907858
 30
0.0
  0
VERTEX
  5
3F3
  8
T8_DRILL
 10
1.803141712767723
 20
54.31193383185234
 30
0.0
  0
VERTEX
  5
3F4
  8
T8_DRILL
 10
1.812339334562462
 20
54.31337582927502
 30
0.0
  0
VERTEX
  5
3F5
  8
T8_DRILL
 10
1.821666895108887
 20
54.3143626728184
 30
0.0
  0
VERTEX
  5
3F6
  8
T8_DRILL
 10
1.831111805770049
 20
54.31488345224707
 30
0.0
  0
VERTEX
  5
3F7
  8
T8_DRILL
 10
1.840661477908997
 20
54.31492725732559
 30
0.0
  0
VERTEX
  5
3F8
  8
T8_DRILL
 10
1.850303322888781
 20
54.31448317781852
 30
0.0
  0
VERTEX
  5
3F9
  8
T8_DRILL
 10
1.859909215758087
 20
54.31355249210361
 30
0.0
  0
VERTEX
  5
3FA
  8
T8_DRILL
 10
1.869354682214848
 20
54.31215196364634
 30
0.0
  0
VERTEX
  5
3FB
  8
T8_DRILL
 10
1.87862880459199
 20
54.31029418161448
 30
0.0
  0
VERTEX
  5
3FC
  8
T8_DRILL
 10
1.887720665222434
 20
54.30799173517576
 30
0.0
  0
VERTEX
  5
3FD
  8
T8_DRILL
 10
1.896619346439105
 20
54.30525721349795
 30
0.0
  0
VERTEX
  5
3FE
  8
T8_DRILL
 10
1.905313930574925
 20
54.3021032057488
 30
0.0
  0
VERTEX
  5
3FF
  8
T8_DRILL
 10
1.913793499962819
 20
54.29854230109606
 30
0.0
  0
VERTEX
  5
400
  8
T8_DRILL
 10
1.922047136935708
 20
54.2945870887075
 30
0.0
  0
VERTEX
  5
401
  8
T8_DRILL
 10
1.930063923826516
 20
54.29025015775086
 30
0.0
  0
VERTEX
  5
402
  8
T8_DRILL
 10
1.937832942968168
 20
54.2855440973939
 30
0.0
  0
VERTEX
  5
403
  8
T8_DRILL
 10
1.945343276693585
 20
54.28048149680437
 30
0.0
  0
VERTEX
  5
404
  8
T8_DRILL
 10
1.952584007335692
 20
54.27507494515002
 30
0.0
  0
VERTEX
  5
405
  8
T8_DRILL
 10
1.959544217227411
 20
54.26933703159862
 30
0.0
  0
VERTEX
  5
406
  8
T8_DRILL
 10
1.966212988701667
 20
54.26328034531791
 30
0.0
  0
VERTEX
  5
407
  8
T8_DRILL
 10
1.972579404091381
 20
54.25691747547565
 30
0.0
  0
VERTEX
  5
408
  8
T8_DRILL
 10
1.978632545729479
 20
54.25026101123959
 30
0.0
  0
VERTEX
  5
409
  8
T8_DRILL
 10
1.984361495948882
 20
54.2433235417775
 30
0.0
  0
VERTEX
  5
40A
  8
T8_DRILL
 10
1.989755337082514
 20
54.23611765625711
 30
0.0
  0
VERTEX
  5
40B
  8
T8_DRILL
 10
1.994803151463299
 20
54.22865594384617
 30
0.0
  0
VERTEX
  5
40C
  8
T8_DRILL
 10
1.999494021424159
 20
54.22095099371246
 30
0.0
  0
VERTEX
  5
40D
  8
T8_DRILL
 10
2.003817029298019
 20
54.21301539502372
 30
0.0
  0
VERTEX
  5
40E
  8
T8_DRILL
 10
2.007761257417801
 20
54.20486173694771
 30
0.0
  0
VERTEX
  5
40F
  8
T8_DRILL
 10
2.011315788116429
 20
54.19650260865218
 30
0.0
  0
VERTEX
  5
410
  8
T8_DRILL
 10
2.014469703726825
 20
54.18795059930488
 30
0.0
  0
VERTEX
  5
411
  8
T8_DRILL
 10
2.017212086581914
 20
54.17921829807358
 30
0.0
  0
VERTEX
  5
412
  8
T8_DRILL
 10
2.019532019014619
 20
54.17031829412602
 30
0.0
  0
VERTEX
  5
413
  8
T8_DRILL
 10
2.021418583357862
 20
54.16126317662995
 30
0.0
  0
VERTEX
  5
414
  8
T8_DRILL
 10
2.022860861944567
 20
54.15206553475313
 30
0.0
  0
VERTEX
  5
415
  8
T8_DRILL
 10
2.023847937107658
 20
54.14273795766332
 30
0.0
  0
VERTEX
  5
416
  8
T8_DRILL
 10
2.024368891180059
 20
54.13329303452827
 30
0.0
  0
VERTEX
  5
417
  8
T8_DRILL
 10
2.02441280649469
 20
54.12374335451574
 30
0.0
  0
SEQEND
  5
76F
  8
T8_DRILL
  0
POLYLINE
  5
7A
  8
T8_DRILL
 66
     1
 10
0.0
 20
0.0
 30
0.0
 70
     1
  0
VERTEX
  5
418
  8
T8_DRILL
 10
2.010315221343905
 20
39.67958518955575
 30
0.0
  0
VERTEX
  5
419
  8
T8_DRILL
 10
2.009384395072489
 20
39.66997840944465
 30
0.0
  0
VERTEX
  5
41A
  8
T8_DRILL
 10
2.007983590474939
 20
39.66053217934093
 30
0.0
  0
VERTEX
  5
41B
  8
T8_DRILL
 10
2.006125411184203
 20
39.65125741027634
 30
0.0
  0
VERTEX
  5
41C
  8
T8_DRILL
 10
2.00382246083323
 20
39.6421650132826
 30
0.0
  0
VERTEX
  5
41D
  8
T8_DRILL
 10
2.001087343054967
 20
39.63326589939145
 30
0.0
  0
VERTEX
  5
41E
  8
T8_DRILL
 10
1.997932661482364
 20
39.62457097963461
 30
0.0
  0
VERTEX
  5
41F
  8
T8_DRILL
 10
1.994371019748367
 20
39.61609116504383
 30
0.0
  0
VERTEX
  5
420
  8
T8_DRILL
 10
1.990415021485925
 20
39.60783736665084
 30
0.0
  0
VERTEX
  5
421
  8
T8_DRILL
 10
1.986077270327986
 20
39.59982049548736
 30
0.0
  0
VERTEX
  5
422
  8
T8_DRILL
 10
1.981370369907498
 20
39.59205146258514
 30
0.0
  0
VERTEX
  5
423
  8
T8_DRILL
 10
1.97630692385741
 20
39.5845411789759
 30
0.0
  0
VERTEX
  5
424
  8
T8_DRILL
 10
1.970899535810669
 20
39.57730055569138
 30
0.0
  0
VERTEX
  5
425
  8
T8_DRILL
 10
1.965160809400224
 20
39.5703405037633
 30
0.0
  0
VERTEX
  5
426
  8
T8_DRILL
 10
1.959103348259022
 20
39.56367193422341
 30
0.0
  0
VERTEX
  5
427
  8
T8_DRILL
 10
1.952739756020012
 20
39.55730575810343
 30
0.0
  0
VERTEX
  5
428
  8
T8_DRILL
 10
1.946082636316141
 20
39.55125288643511
 30
0.0
  0
VERTEX
  5
429
  8
T8_DRILL
 10
1.939144592780359
 20
39.54552423025017
 30
0.0
  0
VERTEX
  5
42A
  8
T8_DRILL
 10
1.931938229045613
 20
39.54013070058033
 30
0.0
  0
VERTEX
  5
42B
  8
T8_DRILL
 10
1.924476148744851
 20
39.53508320845734
 30
0.0
  0
VERTEX
  5
42C
  8
T8_DRILL
 10
1.916770955511021
 20
39.53039266491294
 30
0.0
  0
VERTEX
  5
42D
  8
T8_DRILL
 10
1.908835252977072
 20
39.52606998097885
 30
0.0
  0
VERTEX
  5
42E
  8
T8_DRILL
 10
1.900681644775951
 20
39.5221260676868
 30
0.0
  0
VERTEX
  5
42F
  8
T8_DRILL
 10
1.892322734540607
 20
39.51857183606852
 30
0.0
  0
VERTEX
  5
430
  8
T8_DRILL
 10
1.883771125903988
 20
39.51541819715577
 30
0.0
  0
VERTEX
  5
431
  8
T8_DRILL
 10
1.875039422499042
 20
39.51267606198025
 30
0.0
  0
VERTEX
  5
432
  8
T8_DRILL
 10
1.866140227958716
 20
39.51035634157371
 30
0.0
  0
VERTEX
  5
433
  8
T8_DRILL
 10
1.85708614591596
 20
39.50846994696789
 30
0.0
  0
VERTEX
  5
434
  8
T8_DRILL
 10
1.847889780003721
 20
39.5070277891945
 30
0.0
  0
VERTEX
  5
435
  8
T8_DRILL
 10
1.838563733854947
 20
39.50604077928529
 30
0.0
  0
VERTEX
  5
436
  8
T8_DRILL
 10
1.829120611102587
 20
39.50551982827199
 30
0.0
  0
VERTEX
  5
437
  8
T8_DRILL
 10
1.819573015379588
 20
39.50547584718632
 30
0.0
  0
VERTEX
  5
438
  8
T8_DRILL
 10
1.809933550318899
 20
39.50591974706003
 30
0.0
  0
VERTEX
  5
439
  8
T8_DRILL
 10
1.800326467832847
 20
39.50685052739122
 30
0.0
  0
VERTEX
  5
43A
  8
T8_DRILL
 10
1.7908799641523
 20
39.50825115763158
 30
0.0
  0
VERTEX
  5
43B
  8
T8_DRILL
 10
1.781604949379987
 20
39.51010904728624
 30
0.0
  0
VERTEX
  5
43C
  8
T8_DRILL
 10
1.772512333618633
 20
39.51241160586034
 30
0.0
  0
VERTEX
  5
43D
  8
T8_DRILL
 10
1.763613026970967
 20
39.515146242859
 30
0.0
  0
VERTEX
  5
43E
  8
T8_DRILL
 10
1.754917939539715
 20
39.51830036778738
 30
0.0
  0
VERTEX
  5
43F
  8
T8_DRILL
 10
1.746437981427606
 20
39.5218613901506
 30
0.0
  0
VERTEX
  5
440
  8
T8_DRILL
 10
1.738184062737365
 20
39.52581671945383
 30
0.0
  0
VERTEX
  5
441
  8
T8_DRILL
 10
1.730167093571721
 20
39.53015376520217
 30
0.0
  0
VERTEX
  5
442
  8
T8_DRILL
 10
1.7223979840334
 20
39.53485993690077
 30
0.0
  0
VERTEX
  5
443
  8
T8_DRILL
 10
1.714887644225131
 20
39.53992264405478
 30
0.0
  0
VERTEX
  5
444
  8
T8_DRILL
 10
1.707646984249639
 20
39.54532929616932
 30
0.0
  0
VERTEX
  5
445
  8
T8_DRILL
 10
1.700686914209653
 20
39.55106730274954
 30
0.0
  0
VERTEX
  5
446
  8
T8_DRILL
 10
1.6940183442079
 20
39.55712407330057
 30
0.0
  0
VERTEX
  5
447
  8
T8_DRILL
 10
1.687652184347106
 20
39.56348701732756
 30
0.0
  0
VERTEX
  5
448
  8
T8_DRILL
 10
1.68159934473
 20
39.57014354433563
 30
0.0
  0
VERTEX
  5
449
  8
T8_DRILL
 10
1.675870735459308
 20
39.57708106382992
 30
0.0
  0
VERTEX
  5
44A
  8
T8_DRILL
 10
1.670477266637758
 20
39.58428698531559
 30
0.0
  0
VERTEX
  5
44B
  8
T8_DRILL
 10
1.665429848368077
 20
39.59174871829775
 30
0.0
  0
VERTEX
  5
44C
  8
T8_DRILL
 10
1.660739390752992
 20
39.59945367228155
 30
0.0
  0
VERTEX
  5
44D
  8
T8_DRILL
 10
1.65641680389523
 20
39.60738925677212
 30
0.0
  0
VERTEX
  5
44E
  8
T8_DRILL
 10
1.65247299789752
 20
39.61554288127461
 30
0.0
  0
VERTEX
  5
44F
  8
T8_DRILL
 10
1.648918882862586
 20
39.62390195529416
 30
0.0
  0
VERTEX
  5
450
  8
T8_DRILL
 10
1.645765368893159
 20
39.63245388833589
 30
0.0
  0
VERTEX
  5
451
  8
T8_DRILL
 10
1.643023366091964
 20
39.64118608990494
 30
0.0
  0
VERTEX
  5
452
  8
T8_DRILL
 10
1.640703784561729
 20
39.65008596950646
 30
0.0
  0
VERTEX
  5
453
  8
T8_DRILL
 10
1.638817534405181
 20
39.65914093664558
 30
0.0
  0
VERTEX
  5
454
  8
T8_DRILL
 10
1.637375525725047
 20
39.66833840082745
 30
0.0
  0
VERTEX
  5
455
  8
T8_DRILL
 10
1.636388668624054
 20
39.67766577155719
 30
0.0
  0
VERTEX
  5
456
  8
T8_DRILL
 10
1.635867873204931
 20
39.68711045833994
 30
0.0
  0
VERTEX
  5
457
  8
T8_DRILL
 10
1.635824049570403
 20
39.69665987068085
 30
0.0
  0
VERTEX
  5
458
  8
T8_DRILL
 10
1.636268107823199
 20
39.70630141808505
 30
0.0
  0
VERTEX
  5
459
  8
T8_DRILL
 10
1.637198857300914
 20
39.71590820368112
 30
0.0
  0
VERTEX
  5
45A
  8
T8_DRILL
 10
1.638599441426226
 20
39.72535444953202
 30
0.0
  0
VERTEX
  5
45B
  8
T8_DRILL
 10
1.640457271429483
 20
39.73462924354439
 30
0.0
  0
VERTEX
  5
45C
  8
T8_DRILL
 10
1.642759758541035
 20
39.7437216736249
 30
0.0
  0
VERTEX
  5
45D
  8
T8_DRILL
 10
1.64549431399123
 20
39.7526208276802
 30
0.0
  0
VERTEX
  5
45E
  8
T8_DRILL
 10
1.648648349010416
 20
39.76131579361696
 30
0.0
  0
VERTEX
  5
45F
  8
T8_DRILL
 10
1.652209274828944
 20
39.76979565934184
 30
0.0
  0
VERTEX
  5
460
  8
T8_DRILL
 10
1.656164502677162
 20
39.77804951276148
 30
0.0
  0
VERTEX
  5
461
  8
T8_DRILL
 10
1.660501443785417
 20
39.78606644178257
 30
0.0
  0
VERTEX
  5
462
  8
T8_DRILL
 10
1.665207509384061
 20
39.79383553431175
 30
0.0
  0
VERTEX
  5
463
  8
T8_DRILL
 10
1.67027011070344
 20
39.80134587825569
 30
0.0
  0
VERTEX
  5
464
  8
T8_DRILL
 10
1.675676658973904
 20
39.80858656152103
 30
0.0
  0
VERTEX
  5
465
  8
T8_DRILL
 10
1.681414565425801
 20
39.81554667201445
 30
0.0
  0
VERTEX
  5
466
  8
T8_DRILL
 10
1.687471241289482
 20
39.8222152976426
 30
0.0
  0
VERTEX
  5
467
  8
T8_DRILL
 10
1.693834097795294
 20
39.82858152631215
 30
0.0
  0
VERTEX
  5
468
  8
T8_DRILL
 10
1.700490546173586
 20
39.83463444592975
 30
0.0
  0
VERTEX
  5
469
  8
T8_DRILL
 10
1.707427997654707
 20
39.84036314440207
 30
0.0
  0
VERTEX
  5
46A
  8
T8_DRILL
 10
1.714633863469006
 20
39.84575670963575
 30
0.0
  0
VERTEX
  5
46B
  8
T8_DRILL
 10
1.722095554846831
 20
39.85080422953747
 30
0.0
  0
VERTEX
  5
46C
  8
T8_DRILL
 10
1.729800483018532
 20
39.85549479201387
 30
0.0
  0
VERTEX
  5
46D
  8
T8_DRILL
 10
1.737736059214458
 20
39.85981748497162
 30
0.0
  0
VERTEX
  5
46E
  8
T8_DRILL
 10
1.745889694664956
 20
39.86376139631739
 30
0.0
  0
VERTEX
  5
46F
  8
T8_DRILL
 10
1.754248800600377
 20
39.86731561395783
 30
0.0
  0
VERTEX
  5
470
  8
T8_DRILL
 10
1.762800788251068
 20
39.8704692257996
 30
0.0
  0
VERTEX
  5
471
  8
T8_DRILL
 10
1.771533068847379
 20
39.87321131974935
 30
0.0
  0
VERTEX
  5
472
  8
T8_DRILL
 10
1.780433053619658
 20
39.87553098371376
 30
0.0
  0
VERTEX
  5
473
  8
T8_DRILL
 10
1.789488153798255
 20
39.87741730559947
 30
0.0
  0
VERTEX
  5
474
  8
T8_DRILL
 10
1.798685780613517
 20
39.87885937331315
 30
0.0
  0
VERTEX
  5
475
  8
T8_DRILL
 10
1.808013345295795
 20
39.87984627476146
 30
0.0
  0
VERTEX
  5
476
  8
T8_DRILL
 10
1.817458259075436
 20
39.88036709785106
 30
0.0
  0
VERTEX
  5
477
  8
T8_DRILL
 10
1.82700793318279
 20
39.88041093048859
 30
0.0
  0
VERTEX
  5
478
  8
T8_DRILL
 10
1.836649778848205
 20
39.87996686058075
 30
0.0
  0
VERTEX
  5
479
  8
T8_DRILL
 10
1.846254480729531
 20
39.87903625028369
 30
0.0
  0
VERTEX
  5
47A
  8
T8_DRILL
 10
1.855698906025723
 20
39.87763576849145
 30
0.0
  0
VERTEX
  5
47B
  8
T8_DRILL
 10
1.864972129770755
 20
39.8757780067605
 30
0.0
  0
VERTEX
  5
47C
  8
T8_DRILL
 10
1.874063226998605
 20
39.87347555664731
 30
0.0
  0
VERTEX
  5
47D
  8
T8_DRILL
 10
1.882961272743248
 20
39.87074100970834
 30
0.0
  0
VERTEX
  5
47E
  8
T8_DRILL
 10
1.891655342038659
 20
39.86758695750007
 30
0.0
  0
VERTEX
  5
47F
  8
T8_DRILL
 10
1.900134509918815
 20
39.86402599157898
 30
0.0
  0
VERTEX
  5
480
  8
T8_DRILL
 10
1.908387851417691
 20
39.86007070350152
 30
0.0
  0
VERTEX
  5
481
  8
T8_DRILL
 10
1.916404441569263
 20
39.85573368482417
 30
0.0
  0
VERTEX
  5
482
  8
T8_DRILL
 10
1.924173355407508
 20
39.85102752710339
 30
0.0
  0
VERTEX
  5
483
  8
T8_DRILL
 10
1.9316836679664
 20
39.84596482189567
 30
0.0
  0
VERTEX
  5
484
  8
T8_DRILL
 10
1.938924454279915
 20
39.84055816075746
 30
0.0
  0
VERTEX
  5
485
  8
T8_DRILL
 10
1.94588478938203
 20
39.83482013524524
 30
0.0
  0
VERTEX
  5
486
  8
T8_DRILL
 10
1.95255374830672
 20
39.82876333691548
 30
0.0
  0
VERTEX
  5
487
  8
T8_DRILL
 10
1.958920406087961
 20
39.82240035732465
 30
0.0
  0
VERTEX
  5
488
  8
T8_DRILL
 10
1.964973837759728
 20
39.81574378802921
 30
0.0
  0
VERTEX
  5
489
  8
T8_DRILL
 10
1.970703118355999
 20
39.80880622058564
 30
0.0
  0
VERTEX
  5
48A
  8
T8_DRILL
 10
1.976097322910747
 20
39.80160024655041
 30
0.0
  0
VERTEX
  5
48B
  8
T8_DRILL
 10
1.98114552645795
 20
39.79413845747999
 30
0.0
  0
VERTEX
  5
48C
  8
T8_DRILL
 10
1.985836804031583
 20
39.78643344493084
 30
0.0
  0
VERTEX
  5
48D
  8
T8_DRILL
 10
1.990160230665621
 20
39.77849780045943
 30
0.0
  0
VERTEX
  5
48E
  8
T8_DRILL
 10
1.994104881394041
 20
39.77034411562225
 30
0.0
  0
VERTEX
  5
48F
  8
T8_DRILL
 10
1.997659831250818
 20
39.76198498197576
 30
0.0
  0
VERTEX
  5
490
  8
T8_DRILL
 10
2.000814155269929
 20
39.75343299107642
 30
0.0
  0
VERTEX
  5
491
  8
T8_DRILL
 10
2.003556928485349
 20
39.74470073448071
 30
0.0
  0
VERTEX
  5
492
  8
T8_DRILL
 10
2.005877225931053
 20
39.73580080374509
 30
0.0
  0
VERTEX
  5
493
  8
T8_DRILL
 10
2.007764122641018
 20
39.72674579042604
 30
0.0
  0
VERTEX
  5
494
  8
T8_DRILL
 10
2.009206693649219
 20
39.71754828608003
 30
0.0
  0
VERTEX
  5
495
  8
T8_DRILL
 10
2.010194013989633
 20
39.70822088226353
 30
0.0
  0
VERTEX
  5
496
  8
T8_DRILL
 10
2.010715158696234
 20
39.69877617053301
 30
0.0
  0
VERTEX
  5
497
  8
T8_DRILL
 10
2.010759202803
 20
39.68922674244493
 30
0.0
  0
SEQEND
  5
770
  8
T8_DRILL
  0
POLYLINE
  5
7B
  8
T8_DRILL
 66
     1
 10
0.0
 20
0.0
 30
0.0
 70
     1
  0
VERTEX
  5
498
  8
T8_DRILL
 10
1.935313990911769
 20
25.22535510098551
 30
0.0
  0
VERTEX
  5
499
  8
T8_DRILL
 10
1.934383220179786
 20
25.21574801781384
 30
0.0
  0
VERTEX
  5
49A
  8
T8_DRILL
 10
1.932982617498459
 20
25.20630151216491
 30
0.0
  0
VERTEX
  5
49B
  8
T8_DRILL
 10
1.931124771504736
 20
25.19702649427413
 30
0.0
  0
VERTEX
  5
49C
  8
T8_DRILL
 10
1.92882227083557
 20
25.18793387437693
 30
0.0
  0
VERTEX
  5
49D
  8
T8_DRILL
 10
1.926087704127909
 20
25.17903456270875
 30
0.0
  0
VERTEX
  5
49E
  8
T8_DRILL
 10
1.922933660018705
 20
25.17033946950501
 30
0.0
  0
VERTEX
  5
49F
  8
T8_DRILL
 10
1.919372727144908
 20
25.16185950500114
 30
0.0
  0
VERTEX
  5
4A0
  8
T8_DRILL
 10
1.915417494143467
 20
25.15360557943257
 30
0.0
  0
VERTEX
  5
4A1
  8
T8_DRILL
 10
1.911080549651334
 20
25.14558860303472
 30
0.0
  0
VERTEX
  5
4A2
  8
T8_DRILL
 10
1.906374482305459
 20
25.13781948604304
 30
0.0
  0
VERTEX
  5
4A3
  8
T8_DRILL
 10
1.901311880742791
 20
25.13030913869293
 30
0.0
  0
VERTEX
  5
4A4
  8
T8_DRILL
 10
1.895905333600282
 20
25.12306847121983
 30
0.0
  0
VERTEX
  5
4A5
  8
T8_DRILL
 10
1.890167429514881
 20
25.11610839385918
 30
0.0
  0
VERTEX
  5
4A6
  8
T8_DRILL
 10
1.884110757123539
 20
25.10943981684639
 30
0.0
  0
VERTEX
  5
4A7
  8
T8_DRILL
 10
1.877747905063206
 20
25.1030736504169
 30
0.0
  0
VERTEX
  5
4A8
  8
T8_DRILL
 10
1.871091461970832
 20
25.09702080480614
 30
0.0
  0
VERTEX
  5
4A9
  8
T8_DRILL
 10
1.864154016483368
 20
25.09129219024952
 30
0.0
  0
VERTEX
  5
4AA
  8
T8_DRILL
 10
1.856948157237763
 20
25.08589871698249
 30
0.0
  0
VERTEX
  5
4AB
  8
T8_DRILL
 10
1.849486472870969
 20
25.08085129524046
 30
0.0
  0
VERTEX
  5
4AC
  8
T8_DRILL
 10
1.841781552019936
 20
25.07616083525888
 30
0.0
  0
VERTEX
  5
4AD
  8
T8_DRILL
 10
1.833845983321614
 20
25.07183824727316
 30
0.0
  0
VERTEX
  5
4AE
  8
T8_DRILL
 10
1.825692355412952
 20
25.06789444151873
 30
0.0
  0
VERTEX
  5
4AF
  8
T8_DRILL
 10
1.817333256930902
 20
25.06434032823103
 30
0.0
  0
VERTEX
  5
4B0
  8
T8_DRILL
 10
1.808781276512414
 20
25.06118681764547
 30
0.0
  0
VERTEX
  5
4B1
  8
T8_DRILL
 10
1.800049002794438
 20
25.0584448199975
 30
0.0
  0
VERTEX
  5
4B2
  8
T8_DRILL
 10
1.791149024413924
 20
25.05612524552252
 30
0.0
  0
VERTEX
  5
4B3
  8
T8_DRILL
 10
1.782093930007823
 20
25.05423900445599
 30
0.0
  0
VERTEX
  5
4B4
  8
T8_DRILL
 10
1.772896308213085
 20
25.05279700703332
 30
0.0
  0
VERTEX
  5
4B5
  8
T8_DRILL
 10
1.763568747666659
 20
25.05181016348993
 30
0.0
  0
VERTEX
  5
4B6
  8
T8_DRILL
 10
1.754123837005498
 20
25.05128938406127
 30
0.0
  0
VERTEX
  5
4B7
  8
T8_DRILL
 10
1.74457416486655
 20
25.05124557898276
 30
0.0
  0
VERTEX
  5
4B8
  8
T8_DRILL
 10
1.734932319886767
 20
25.05168965848982
 30
0.0
  0
VERTEX
  5
4B9
  8
T8_DRILL
 10
1.725326427017451
 20
25.05262034420473
 30
0.0
  0
VERTEX
  5
4BA
  8
T8_DRILL
 10
1.71588096056068
 20
25.054020872662
 30
0.0
  0
VERTEX
  5
4BB
  8
T8_DRILL
 10
1.706606838183531
 20
25.05587865469387
 30
0.0
  0
VERTEX
  5
4BC
  8
T8_DRILL
 10
1.69751497755308
 20
25.05818110113258
 30
0.0
  0
VERTEX
  5
4BD
  8
T8_DRILL
 10
1.688616296336404
 20
25.06091562281039
 30
0.0
  0
VERTEX
  5
4BE
  8
T8_DRILL
 10
1.67992171220058
 20
25.06406963055953
 30
0.0
  0
VERTEX
  5
4BF
  8
T8_DRILL
 10
1.671442142812683
 20
25.06763053521226
 30
0.0
  0
VERTEX
  5
4C0
  8
T8_DRILL
 10
1.663188505839791
 20
25.07158574760082
 30
0.0
  0
VERTEX
  5
4C1
  8
T8_DRILL
 10
1.655171718948981
 20
25.07592267855746
 30
0.0
  0
VERTEX
  5
4C2
  8
T8_DRILL
 10
1.647402699807329
 20
25.08062873891441
 30
0.0
  0
VERTEX
  5
4C3
  8
T8_DRILL
 10
1.639892366081911
 20
25.08569133950394
 30
0.0
  0
VERTEX
  5
4C4
  8
T8_DRILL
 10
1.632651635439804
 20
25.09109789115828
 30
0.0
  0
VERTEX
  5
4C5
  8
T8_DRILL
 10
1.625691425548086
 20
25.09683580470968
 30
0.0
  0
VERTEX
  5
4C6
  8
T8_DRILL
 10
1.619022654073832
 20
25.10289249099039
 30
0.0
  0
VERTEX
  5
4C7
  8
T8_DRILL
 10
1.612656238684119
 20
25.10925536083265
 30
0.0
  0
VERTEX
  5
4C8
  8
T8_DRILL
 10
1.606603097046024
 20
25.11591182506871
 30
0.0
  0
VERTEX
  5
4C9
  8
T8_DRILL
 10
1.600874146826624
 20
25.12284929453081
 30
0.0
  0
VERTEX
  5
4CA
  8
T8_DRILL
 10
1.595480305692994
 20
25.1300551800512
 30
0.0
  0
VERTEX
  5
4CB
  8
T8_DRILL
 10
1.590432491312213
 20
25.13751689246212
 30
0.0
  0
VERTEX
  5
4CC
  8
T8_DRILL
 10
1.585741621351356
 20
25.14522184259583
 30
0.0
  0
VERTEX
  5
4CD
  8
T8_DRILL
 10
1.581418613477499
 20
25.15315744128457
 30
0.0
  0
VERTEX
  5
4CE
  8
T8_DRILL
 10
1.577474385357721
 20
25.16131109936057
 30
0.0
  0
VERTEX
  5
4CF
  8
T8_DRILL
 10
1.573919854659097
 20
25.16967022765611
 30
0.0
  0
VERTEX
  5
4D0
  8
T8_DRILL
 10
1.570765939048703
 20
25.1782222370034
 30
0.0
  0
VERTEX
  5
4D1
  8
T8_DRILL
 10
1.568023556193618
 20
25.1869545382347
 30
0.0
  0
VERTEX
  5
4D2
  8
T8_DRILL
 10
1.565703623760916
 20
25.19585454218227
 30
0.0
  0
VERTEX
  5
4D3
  8
T8_DRILL
 10
1.563817059417675
 20
25.20490965967834
 30
0.0
  0
VERTEX
  5
4D4
  8
T8_DRILL
 10
1.562374780830972
 20
25.21410730155515
 30
0.0
  0
VERTEX
  5
4D5
  8
T8_DRILL
 10
1.561387705667883
 20
25.22343487864497
 30
0.0
  0
VERTEX
  5
4D6
  8
T8_DRILL
 10
1.560866751595484
 20
25.23287980178002
 30
0.0
  0
VERTEX
  5
4D7
  8
T8_DRILL
 10
1.560822836280853
 20
25.24242948179255
 30
0.0
  0
VERTEX
  5
4D8
  8
T8_DRILL
 10
1.561266877391066
 20
25.25207132951483
 30
0.0
  0
VERTEX
  5
4D9
  8
T8_DRILL
 10
1.562197644011365
 20
25.26167781479283
 30
0.0
  0
VERTEX
  5
4DA
  8
T8_DRILL
 10
1.56359831981678
 20
25.27112379297209
 30
0.0
  0
VERTEX
  5
4DB
  8
T8_DRILL
 10
1.565456308473312
 20
25.28039835063216
 30
0.0
  0
VERTEX
  5
4DC
  8
T8_DRILL
 10
1.567759013646961
 20
25.2894905743526
 30
0.0
  0
VERTEX
  5
4DD
  8
T8_DRILL
 10
1.570493839003725
 20
25.29838955071295
 30
0.0
  0
VERTEX
  5
4DE
  8
T8_DRILL
 10
1.573648188209605
 20
25.30708436629277
 30
0.0
  0
VERTEX
  5
4DF
  8
T8_DRILL
 10
1.577209464930599
 20
25.31556410767161
 30
0.0
  0
VERTEX
  5
4E0
  8
T8_DRILL
 10
1.581165072832707
 20
25.323817861429
 30
0.0
  0
VERTEX
  5
4E1
  8
T8_DRILL
 10
1.585502415581928
 20
25.33183471414452
 30
0.0
  0
VERTEX
  5
4E2
  8
T8_DRILL
 10
1.590208896844263
 20
25.33960375239771
 30
0.0
  0
VERTEX
  5
4E3
  8
T8_DRILL
 10
1.59527192028571
 20
25.34711406276813
 30
0.0
  0
VERTEX
  5
4E4
  8
T8_DRILL
 10
1.600678889572268
 20
25.35435473183532
 30
0.0
  0
VERTEX
  5
4E5
  8
T8_DRILL
 10
1.606417208369938
 20
25.36131484617883
 30
0.0
  0
VERTEX
  5
4E6
  8
T8_DRILL
 10
1.612474280344719
 20
25.36798349237822
 30
0.0
  0
VERTEX
  5
4E7
  8
T8_DRILL
 10
1.61883750916261
 20
25.37434975701303
 30
0.0
  0
VERTEX
  5
4E8
  8
T8_DRILL
 10
1.62549429848961
 20
25.38040272666283
 30
0.0
  0
VERTEX
  5
4E9
  8
T8_DRILL
 10
1.632432051991719
 20
25.38613148790715
 30
0.0
  0
VERTEX
  5
4EA
  8
T8_DRILL
 10
1.639638173334937
 20
25.39152512732556
 30
0.0
  0
VERTEX
  5
4EB
  8
T8_DRILL
 10
1.647100066185264
 20
25.3965727314976
 30
0.0
  0
VERTEX
  5
4EC
  8
T8_DRILL
 10
1.654805134208697
 20
25.40126338700282
 30
0.0
  0
VERTEX
  5
4ED
  8
T8_DRILL
 10
1.662740781071237
 20
25.40558618042077
 30
0.0
  0
VERTEX
  5
4EE
  8
T8_DRILL
 10
1.670894410438883
 20
25.40953019833102
 30
0.0
  0
VERTEX
  5
4EF
  8
T8_DRILL
 10
1.679253425977636
 20
25.4130845273131
 30
0.0
  0
VERTEX
  5
4F0
  8
T8_DRILL
 10
1.687805231353493
 20
25.41623825394657
 30
0.0
  0
VERTEX
  5
4F1
  8
T8_DRILL
 10
1.696537230232455
 20
25.41898046481098
 30
0.0
  0
VERTEX
  5
4F2
  8
T8_DRILL
 10
1.705436826280522
 20
25.42130024648588
 30
0.0
  0
VERTEX
  5
4F3
  8
T8_DRILL
 10
1.714491423163691
 20
25.42318668555083
 30
0.0
  0
VERTEX
  5
4F4
  8
T8_DRILL
 10
1.723688424547964
 20
25.42462886858537
 30
0.0
  0
VERTEX
  5
4F5
  8
T8_DRILL
 10
1.733015234099339
 20
25.42561588216906
 30
0.0
  0
VERTEX
  5
4F6
  8
T8_DRILL
 10
1.742459255483816
 20
25.42613681288144
 30
0.0
  0
VERTEX
  5
4F7
  8
T8_DRILL
 10
1.752007892367394
 20
25.42618074730207
 30
0.0
  0
VERTEX
  5
4F8
  8
T8_DRILL
 10
1.761648548416073
 20
25.4257367720105
 30
0.0
  0
VERTEX
  5
4F9
  8
T8_DRILL
 10
1.771255630216493
 20
25.42480598208009
 30
0.0
  0
VERTEX
  5
4FA
  8
T8_DRILL
 10
1.780702131928634
 20
25.42340532428071
 30
0.0
  0
VERTEX
  5
4FB
  8
T8_DRILL
 10
1.789977143582468
 20
25.42154739096512
 30
0.0
  0
VERTEX
  5
4FC
  8
T8_DRILL
 10
1.799069755207969
 20
25.4192447744861
 30
0.0
  0
VERTEX
  5
4FD
  8
T8_DRILL
 10
1.807969056835111
 20
25.41651006719642
 30
0.0
  0
VERTEX
  5
4FE
  8
T8_DRILL
 10
1.816664138493867
 20
25.41335586144887
 30
0.0
  0
VERTEX
  5
4FF
  8
T8_DRILL
 10
1.825144090214211
 20
25.40979474959621
 30
0.0
  0
VERTEX
  5
500
  8
T8_DRILL
 10
1.833398002026117
 20
25.40583932399121
 30
0.0
  0
VERTEX
  5
501
  8
T8_DRILL
 10
1.841414963959559
 20
25.40150217698666
 30
0.0
  0
VERTEX
  5
502
  8
T8_DRILL
 10
1.849184066044508
 20
25.39679590093533
 30
0.0
  0
VERTEX
  5
503
  8
T8_DRILL
 10
1.856694398310941
 20
25.39173308818999
 30
0.0
  0
VERTEX
  5
504
  8
T8_DRILL
 10
1.86393505078883
 20
25.38632633110341
 30
0.0
  0
VERTEX
  5
505
  8
T8_DRILL
 10
1.870895113508149
 20
25.38058822202837
 30
0.0
  0
VERTEX
  5
506
  8
T8_DRILL
 10
1.87756367649887
 20
25.37453135331766
 30
0.0
  0
VERTEX
  5
507
  8
T8_DRILL
 10
1.883929829790969
 20
25.36816831732403
 30
0.0
  0
VERTEX
  5
508
  8
T8_DRILL
 10
1.889982663414419
 20
25.36151170640026
 30
0.0
  0
VERTEX
  5
509
  8
T8_DRILL
 10
1.895711267399192
 20
25.35457411289913
 30
0.0
  0
VERTEX
  5
50A
  8
T8_DRILL
 10
1.901104731775264
 20
25.34736812917342
 30
0.0
  0
VERTEX
  5
50B
  8
T8_DRILL
 10
1.906152146572607
 20
25.33990634757589
 30
0.0
  0
VERTEX
  5
50C
  8
T8_DRILL
 10
1.910842601821195
 20
25.33220136045933
 30
0.0
  0
VERTEX
  5
50D
  8
T8_DRILL
 10
1.915165187551002
 20
25.3242657601765
 30
0.0
  0
VERTEX
  5
50E
  8
T8_DRILL
 10
1.919108993792001
 20
25.31611213908019
 30
0.0
  0
VERTEX
  5
50F
  8
T8_DRILL
 10
1.922663110574167
 20
25.30775308952315
 30
0.0
  0
VERTEX
  5
510
  8
T8_DRILL
 10
1.925816627927471
 20
25.29920120385818
 30
0.0
  0
VERTEX
  5
511
  8
T8_DRILL
 10
1.928558635881889
 20
25.29046907443804
 30
0.0
  0
VERTEX
  5
512
  8
T8_DRILL
 10
1.930878224467394
 20
25.28156929361552
 30
0.0
  0
VERTEX
  5
513
  8
T8_DRILL
 10
1.93276448371396
 20
25.27251445374337
 30
0.0
  0
VERTEX
  5
514
  8
T8_DRILL
 10
1.934206503651559
 20
25.26331714717438
 30
0.0
  0
VERTEX
  5
515
  8
T8_DRILL
 10
1.935193374310166
 20
25.25398996626133
 30
0.0
  0
VERTEX
  5
516
  8
T8_DRILL
 10
1.935714185719754
 20
25.24454550335698
 30
0.0
  0
VERTEX
  5
517
  8
T8_DRILL
 10
1.935758027910297
 20
25.23499635081412
 30
0.0
  0
SEQEND
  5
771
  8
T8_DRILL
  0
POLYLINE
  5
7C
  8
T8_DRILL
 66
     1
 10
0.0
 20
0.0
 30
0.0
 70
     1
  0
VERTEX
  5
518
  8
T8_DRILL
 10
1.786683131163059
 20
11.32536774842658
 30
0.0
  0
VERTEX
  5
519
  8
T8_DRILL
 10
1.796332603572535
 20
11.32512381318421
 30
0.0
  0
VERTEX
  5
51A
  8
T8_DRILL
 10
1.805855334872787
 20
11.32439978744039
 30
0.0
  0
VERTEX
  5
51B
  8
T8_DRILL
 10
1.815239550371717
 20
11.32320745137183
 30
0.0
  0
VERTEX
  5
51C
  8
T8_DRILL
 10
1.824473475377224
 20
11.32155858515525
 30
0.0
  0
VERTEX
  5
51D
  8
T8_DRILL
 10
1.833545335197209
 20
11.31946496896736
 30
0.0
  0
VERTEX
  5
51E
  8
T8_DRILL
 10
1.842443355139572
 20
11.31693838298487
 30
0.0
  0
VERTEX
  5
51F
  8
T8_DRILL
 10
1.851155760512215
 20
11.3139906073845
 30
0.0
  0
VERTEX
  5
520
  8
T8_DRILL
 10
1.859670776623038
 20
11.31063342234296
 30
0.0
  0
VERTEX
  5
521
  8
T8_DRILL
 10
1.867976628779942
 20
11.30687860803696
 30
0.0
  0
VERTEX
  5
522
  8
T8_DRILL
 10
1.876061542290826
 20
11.30273794464322
 30
0.0
  0
VERTEX
  5
523
  8
T8_DRILL
 10
1.883913742463592
 20
11.29822321233846
 30
0.0
  0
VERTEX
  5
524
  8
T8_DRILL
 10
1.89152145460614
 20
11.29334619129938
 30
0.0
  0
VERTEX
  5
525
  8
T8_DRILL
 10
1.898872904026371
 20
11.2881186617027
 30
0.0
  0
VERTEX
  5
526
  8
T8_DRILL
 10
1.905956316032185
 20
11.28255240372513
 30
0.0
  0
VERTEX
  5
527
  8
T8_DRILL
 10
1.912759915931483
 20
11.2766591975434
 30
0.0
  0
VERTEX
  5
528
  8
T8_DRILL
 10
1.919271929032166
 20
11.2704508233342
 30
0.0
  0
VERTEX
  5
529
  8
T8_DRILL
 10
1.925480580642133
 20
11.26393906127426
 30
0.0
  0
VERTEX
  5
52A
  8
T8_DRILL
 10
1.931374096069287
 20
11.25713569154029
 30
0.0
  0
VERTEX
  5
52B
  8
T8_DRILL
 10
1.936940700621526
 20
11.250052494309
 30
0.0
  0
VERTEX
  5
52C
  8
T8_DRILL
 10
1.942168619606753
 20
11.24270124975711
 30
0.0
  0
VERTEX
  5
52D
  8
T8_DRILL
 10
1.947046078332867
 20
11.23509373806133
 30
0.0
  0
VERTEX
  5
52E
  8
T8_DRILL
 10
1.951561302107769
 20
11.22724173939837
 30
0.0
  0
VERTEX
  5
52F
  8
T8_DRILL
 10
1.955702516239359
 20
11.21915703394495
 30
0.0
  0
VERTEX
  5
530
  8
T8_DRILL
 10
1.959457946035539
 20
11.21085140187779
 30
0.0
  0
VERTEX
  5
531
  8
T8_DRILL
 10
1.962815816804208
 20
11.20233662337359
 30
0.0
  0
VERTEX
  5
532
  8
T8_DRILL
 10
1.965764353853268
 20
11.19362447860907
 30
0.0
  0
VERTEX
  5
533
  8
T8_DRILL
 10
1.968291782490619
 20
11.18472674776094
 30
0.0
  0
VERTEX
  5
534
  8
T8_DRILL
 10
1.970386328024161
 20
11.17565521100592
 30
0.0
  0
VERTEX
  5
535
  8
T8_DRILL
 10
1.972036215761796
 20
11.16642164852072
 30
0.0
  0
VERTEX
  5
536
  8
T8_DRILL
 10
1.973229671011422
 20
11.15703784048206
 30
0.0
  0
VERTEX
  5
537
  8
T8_DRILL
 10
1.973954919080942
 20
11.14751556706664
 30
0.0
  0
VERTEX
  5
538
  8
T8_DRILL
 10
1.974200185278256
 20
11.13786660845119
 30
0.0
  0
VERTEX
  5
539
  8
T8_DRILL
 10
1.973955094054137
 20
11.1282179717363
 30
0.0
  0
VERTEX
  5
53A
  8
T8_DRILL
 10
1.973230021658158
 20
11.11869598584539
 30
0.0
  0
VERTEX
  5
53B
  8
T8_DRILL
 10
1.972036745059895
 20
11.10931243285797
 30
0.0
  0
VERTEX
  5
53C
  8
T8_DRILL
 10
1.970387041228927
 20
11.10007909485351
 30
0.0
  0
VERTEX
  5
53D
  8
T8_DRILL
 10
1.968292687134828
 20
11.09100775391153
 30
0.0
  0
VERTEX
  5
53E
  8
T8_DRILL
 10
1.965765459747176
 20
11.08211019211152
 30
0.0
  0
VERTEX
  5
53F
  8
T8_DRILL
 10
1.962817136035547
 20
11.07339819153298
 30
0.0
  0
VERTEX
  5
540
  8
T8_DRILL
 10
1.959459492969517
 20
11.0648835342554
 30
0.0
  0
VERTEX
  5
541
  8
T8_DRILL
 10
1.955704307518664
 20
11.0565780023583
 30
0.0
  0
VERTEX
  5
542
  8
T8_DRILL
 10
1.951563356652564
 20
11.04849337792115
 30
0.0
  0
VERTEX
  5
543
  8
T8_DRILL
 10
1.947048417340794
 20
11.04064144302346
 30
0.0
  0
VERTEX
  5
544
  8
T8_DRILL
 10
1.942171266552929
 20
11.03303397974473
 30
0.0
  0
VERTEX
  5
545
  8
T8_DRILL
 10
1.936943681258546
 20
11.02568277016446
 30
0.0
  0
VERTEX
  5
546
  8
T8_DRILL
 10
1.931377438427222
 20
11.01859959636214
 30
0.0
  0
VERTEX
  5
547
  8
T8_DRILL
 10
1.925484315028535
 20
11.01179624041727
 30
0.0
  0
VERTEX
  5
548
  8
T8_DRILL
 10
1.919276088032059
 20
11.00528448440934
 30
0.0
  0
VERTEX
  5
549
  8
T8_DRILL
 10
1.912764534407372
 20
10.99907611041787
 30
0.0
  0
VERTEX
  5
54A
  8
T8_DRILL
 10
1.90596143112405
 20
10.99318290052234
 30
0.0
  0
VERTEX
  5
54B
  8
T8_DRILL
 10
1.89887855515167
 20
10.98761663680225
 30
0.0
  0
VERTEX
  5
54C
  8
T8_DRILL
 10
1.891527683459808
 20
10.98238910133709
 30
0.0
  0
VERTEX
  5
54D
  8
T8_DRILL
 10
1.883920593018041
 20
10.97751207620638
 30
0.0
  0
VERTEX
  5
54E
  8
T8_DRILL
 10
1.876069060795945
 20
10.9729973434896
 30
0.0
  0
VERTEX
  5
54F
  8
T8_DRILL
 10
1.867984863763098
 20
10.96885668526625
 30
0.0
  0
VERTEX
  5
550
  8
T8_DRILL
 10
1.859679778889074
 20
10.96510188361584
 30
0.0
  0
VERTEX
  5
551
  8
T8_DRILL
 10
1.851165583143452
 20
10.96174472061785
 30
0.0
  0
VERTEX
  5
552
  8
T8_DRILL
 10
1.842454053495808
 20
10.95879697835178
 30
0.0
  0
VERTEX
  5
553
  8
T8_DRILL
 10
1.833556966915717
 20
10.95627043889714
 30
0.0
  0
VERTEX
  5
554
  8
T8_DRILL
 10
1.824486100372758
 20
10.95417688433342
 30
0.0
  0
VERTEX
  5
555
  8
T8_DRILL
 10
1.815253230836505
 20
10.95252809674012
 30
0.0
  0
VERTEX
  5
556
  8
T8_DRILL
 10
1.805870135276537
 20
10.95133585819674
 30
0.0
  0
VERTEX
  5
557
  8
T8_DRILL
 10
1.796348590662429
 20
10.95061195078277
 30
0.0
  0
VERTEX
  5
558
  8
T8_DRILL
 10
1.786700373963757
 20
10.95036815657771
 30
0.0
  0
VERTEX
  5
559
  8
T8_DRILL
 10
1.777049721949106
 20
10.95061232079585
 30
0.0
  0
VERTEX
  5
55A
  8
T8_DRILL
 10
1.767525962640565
 20
10.95133653667682
 30
0.0
  0
VERTEX
  5
55B
  8
T8_DRILL
 10
1.758140865908503
 20
10.95252902625568
 30
0.0
  0
VERTEX
  5
55C
  8
T8_DRILL
 10
1.748906201623289
 20
10.95417801156749
 30
0.0
  0
VERTEX
  5
55D
  8
T8_DRILL
 10
1.73983373965529
 20
10.95627171464734
 30
0.0
  0
VERTEX
  5
55E
  8
T8_DRILL
 10
1.730935249874874
 20
10.95879835753028
 30
0.0
  0
VERTEX
  5
55F
  8
T8_DRILL
 10
1.72222250215241
 20
10.96174616225138
 30
0.0
  0
VERTEX
  5
560
  8
T8_DRILL
 10
1.713707266358266
 20
10.96510335084572
 30
0.0
  0
VERTEX
  5
561
  8
T8_DRILL
 10
1.705401312362808
 20
10.96885814534835
 30
0.0
  0
VERTEX
  5
562
  8
T8_DRILL
 10
1.697316410036407
 20
10.97299876779435
 30
0.0
  0
VERTEX
  5
563
  8
T8_DRILL
 10
1.689464329249428
 20
10.97751344021878
 30
0.0
  0
VERTEX
  5
564
  8
T8_DRILL
 10
1.681856839872242
 20
10.98239038465671
 30
0.0
  0
VERTEX
  5
565
  8
T8_DRILL
 10
1.674505711775215
 20
10.98761782314321
 30
0.0
  0
VERTEX
  5
566
  8
T8_DRILL
 10
1.667422714828716
 20
10.99318397771335
 30
0.0
  0
VERTEX
  5
567
  8
T8_DRILL
 10
1.660619618903113
 20
10.99907707040218
 30
0.0
  0
VERTEX
  5
568
  8
T8_DRILL
 10
1.654108193868773
 20
11.00528532324479
 30
0.0
  0
VERTEX
  5
569
  8
T8_DRILL
 10
1.647900209596066
 20
11.01179695827623
 30
0.0
  0
VERTEX
  5
56A
  8
T8_DRILL
 10
1.642007435955358
 20
11.01860019753159
 30
0.0
  0
VERTEX
  5
56B
  8
T8_DRILL
 10
1.636441642817019
 20
11.02568326304591
 30
0.0
  0
VERTEX
  5
56C
  8
T8_DRILL
 10
1.631214600051415
 20
11.03303437685427
 30
0.0
  0
VERTEX
  5
56D
  8
T8_DRILL
 10
1.626338077528916
 20
11.04064176099174
 30
0.0
  0
VERTEX
  5
56E
  8
T8_DRILL
 10
1.621823845119888
 20
11.04849363749339
 30
0.0
  0
VERTEX
  5
56F
  8
T8_DRILL
 10
1.617683672694701
 20
11.05657822839428
 30
0.0
  0
VERTEX
  5
570
  8
T8_DRILL
 10
1.613929330123722
 20
11.06488375572948
 30
0.0
  0
VERTEX
  5
571
  8
T8_DRILL
 10
1.61057258727732
 20
11.07339844153405
 30
0.0
  0
VERTEX
  5
572
  8
T8_DRILL
 10
1.607625214025862
 20
11.08211050784307
 30
0.0
  0
VERTEX
  5
573
  8
T8_DRILL
 10
1.605098980239716
 20
11.09100817669161
 30
0.0
  0
VERTEX
  5
574
  8
T8_DRILL
 10
1.60300565578925
 20
11.10007967011472
 30
0.0
  0
VERTEX
  5
575
  8
T8_DRILL
 10
1.601357010544833
 20
11.10931321014748
 30
0.0
  0
VERTEX
  5
576
  8
T8_DRILL
 10
1.600164814376833
 20
11.11869701882496
 30
0.0
  0
VERTEX
  5
577
  8
T8_DRILL
 10
1.599440837155617
 20
11.12821931818221
 30
0.0
  0
VERTEX
  5
578
  8
T8_DRILL
 10
1.599196848751554
 20
11.13786833025432
 30
0.0
  0
VERTEX
  5
579
  8
T8_DRILL
 10
1.599439471194443
 20
11.14751698893041
 30
0.0
  0
VERTEX
  5
57A
  8
T8_DRILL
 10
1.600162231581547
 20
11.15703899554451
 30
0.0
  0
VERTEX
  5
57B
  8
T8_DRILL
 10
1.601353350466074
 20
11.16642256819405
 30
0.0
  0
VERTEX
  5
57C
  8
T8_DRILL
 10
1.603001048401231
 20
11.17565592497646
 30
0.0
  0
VERTEX
  5
57D
  8
T8_DRILL
 10
1.605093545940225
 20
11.18472728398919
 30
0.0
  0
VERTEX
  5
57E
  8
T8_DRILL
 10
1.607619063636264
 20
11.19362486332968
 30
0.0
  0
VERTEX
  5
57F
  8
T8_DRILL
 10
1.610565822042554
 20
11.20233688109535
 30
0.0
  0
VERTEX
  5
580
  8
T8_DRILL
 10
1.613922041712303
 20
11.21085155538365
 30
0.0
  0
VERTEX
  5
581
  8
T8_DRILL
 10
1.617675943198718
 20
11.21915710429202
 30
0.0
  0
VERTEX
  5
582
  8
T8_DRILL
 10
1.621815747055008
 20
11.22724174591788
 30
0.0
  0
VERTEX
  5
583
  8
T8_DRILL
 10
1.626329673834379
 20
11.23509369835868
 30
0.0
  0
VERTEX
  5
584
  8
T8_DRILL
 10
1.631205944090037
 20
11.24270117971185
 30
0.0
  0
VERTEX
  5
585
  8
T8_DRILL
 10
1.636432778375192
 20
11.25005240807483
 30
0.0
  0
VERTEX
  5
586
  8
T8_DRILL
 10
1.64199839724305
 20
11.25713560154507
 30
0.0
  0
VERTEX
  5
587
  8
T8_DRILL
 10
1.647891021246818
 20
11.26393897821998
 30
0.0
  0
VERTEX
  5
588
  8
T8_DRILL
 10
1.654098870939704
 20
11.27045075619702
 30
0.0
  0
VERTEX
  5
589
  8
T8_DRILL
 10
1.660610166874914
 20
11.27665915357361
 30
0.0
  0
VERTEX
  5
58A
  8
T8_DRILL
 10
1.667413129605658
 20
11.2825523884472
 30
0.0
  0
VERTEX
  5
58B
  8
T8_DRILL
 10
1.67449597968514
 20
11.28811867891522
 30
0.0
  0
VERTEX
  5
58C
  8
T8_DRILL
 10
1.68184693766657
 20
11.29334624307511
 30
0.0
  0
VERTEX
  5
58D
  8
T8_DRILL
 10
1.689454224103154
 20
11.29822329902431
 30
0.0
  0
VERTEX
  5
58E
  8
T8_DRILL
 10
1.6973060595481
 20
11.30273806486025
 30
0.0
  0
VERTEX
  5
58F
  8
T8_DRILL
 10
1.705390664554615
 20
11.30687875868037
 30
0.0
  0
VERTEX
  5
590
  8
T8_DRILL
 10
1.713696259675906
 20
11.3106335985821
 30
0.0
  0
VERTEX
  5
591
  8
T8_DRILL
 10
1.722211065465181
 20
11.31399080266289
 30
0.0
  0
VERTEX
  5
592
  8
T8_DRILL
 10
1.730923302475646
 20
11.31693858902016
 30
0.0
  0
VERTEX
  5
593
  8
T8_DRILL
 10
1.73982119126051
 20
11.31946517575137
 30
0.0
  0
VERTEX
  5
594
  8
T8_DRILL
 10
1.748892952372979
 20
11.32155878095394
 30
0.0
  0
VERTEX
  5
595
  8
T8_DRILL
 10
1.758126806366262
 20
11.32320762272531
 30
0.0
  0
VERTEX
  5
596
  8
T8_DRILL
 10
1.767510973793564
 20
11.32439991916291
 30
0.0
  0
VERTEX
  5
597
  8
T8_DRILL
 10
1.777033675208094
 20
11.32512388836419
 30
0.0
  0
SEQEND
  5
772
  8
T8_DRILL
  0
POLYLINE
  5
7E
  8
T5_BEVEL_0_1
 66
     1
 10
0.0
 20
0.0
 30
0.0
  0
VERTEX
  5
598
  8
T5_BEVEL_0_1
 10
3.536477493120518
 20
71.66786720625579
 30
0.0
  0
VERTEX
  5
599
  8
T5_BEVEL_0_1
 10
0.0364774932708123
 20
71.6678996523744
 30
0.0
  0
SEQEND
  5
773
  8
T5_BEVEL_0_1
  0
POLYLINE
  5
80
  8
T9_COUNTERSINK_0_1
 66
     1
 10
0.0
 20
0.0
 30
0.0
 70
     1
  0
VERTEX
  5
59A
  8
T9_COUNTERSINK_0_1
 10
2.724014712194016
 20
1.885510786431847
 30
0.0
  0
VERTEX
  5
59B
  8
T9_COUNTERSINK_0_1
 10
2.733598584244451
 20
1.885027030560677
 30
0.0
  0
VERTEX
  5
59C
  8
T9_COUNTERSINK_0_1
 10
2.742905967821979
 20
1.883606589103652
 30
0.0
  0
VERTEX
  5
59D
  8
T9_COUNTERSINK_0_1
 10
2.751889675243824
 20
1.881296592853097
 30
0.0
  0
VERTEX
  5
59E
  8
T9_COUNTERSINK_0_1
 10
2.760502518827209
 20
1.878144172601335
 30
0.0
  0
VERTEX
  5
59F
  8
T9_COUNTERSINK_0_1
 10
2.768697310889356
 20
1.874196459140693
 30
0.0
  0
VERTEX
  5
5A0
  8
T9_COUNTERSINK_0_1
 10
2.776426863747488
 20
1.869500583263494
 30
0.0
  0
VERTEX
  5
5A1
  8
T9_COUNTERSINK_0_1
 10
2.783643989718828
 20
1.864103675762064
 30
0.0
  0
VERTEX
  5
5A2
  8
T9_COUNTERSINK_0_1
 10
2.790301501120599
 20
1.858052867428726
 30
0.0
  0
VERTEX
  5
5A3
  8
T9_COUNTERSINK_0_1
 10
2.796352210270024
 20
1.851395289055806
 30
0.0
  0
VERTEX
  5
5A4
  8
T9_COUNTERSINK_0_1
 10
2.801748929484325
 20
1.844178071435627
 30
0.0
  0
VERTEX
  5
5A5
  8
T9_COUNTERSINK_0_1
 10
2.806444471080725
 20
1.836448345360516
 30
0.0
  0
VERTEX
  5
5A6
  8
T9_COUNTERSINK_0_1
 10
2.810391647376446
 20
1.828253241622795
 30
0.0
  0
VERTEX
  5
5A7
  8
T9_COUNTERSINK_0_1
 10
2.813543270688712
 20
1.819639891014791
 30
0.0
  0
VERTEX
  5
5A8
  8
T9_COUNTERSINK_0_1
 10
2.815852153334747
 20
1.810655424328827
 30
0.0
  0
VERTEX
  5
5A9
  8
T9_COUNTERSINK_0_1
 10
2.817271107631772
 20
1.801346972357228
 30
0.0
  0
VERTEX
  5
5AA
  8
T9_COUNTERSINK_0_1
 10
2.817752945897009
 20
1.791761665892319
 30
0.0
  0
VERTEX
  5
5AB
  8
T9_COUNTERSINK_0_1
 10
2.817271281296279
 20
1.782176045053635
 30
0.0
  0
VERTEX
  5
5AC
  8
T9_COUNTERSINK_0_1
 10
2.815852496666313
 20
1.772867366370535
 30
0.0
  0
VERTEX
  5
5AD
  8
T9_COUNTERSINK_0_1
 10
2.813543778846699
 20
1.763882748163975
 30
0.0
  0
VERTEX
  5
5AE
  8
T9_COUNTERSINK_0_1
 10
2.810392314677022
 20
1.755269308754908
 30
0.0
  0
VERTEX
  5
5AF
  8
T9_COUNTERSINK_0_1
 10
2.806445290996871
 20
1.747074166464293
 30
0.0
  0
VERTEX
  5
5B0
  8
T9_COUNTERSINK_0_1
 10
2.801749894645834
 20
1.739344439613084
 30
0.0
  0
VERTEX
  5
5B1
  8
T9_COUNTERSINK_0_1
 10
2.796353312463497
 20
1.732127246522236
 30
0.0
  0
VERTEX
  5
5B2
  8
T9_COUNTERSINK_0_1
 10
2.790302731289449
 20
1.725469705512707
 30
0.0
  0
VERTEX
  5
5B3
  8
T9_COUNTERSINK_0_1
 10
2.783645337963275
 20
1.71941893490545
 30
0.0
  0
VERTEX
  5
5B4
  8
T9_COUNTERSINK_0_1
 10
2.776428319324565
 20
1.714022053021423
 30
0.0
  0
VERTEX
  5
5B5
  8
T9_COUNTERSINK_0_1
 10
2.768698862212905
 20
1.709326178181579
 30
0.0
  0
VERTEX
  5
5B6
  8
T9_COUNTERSINK_0_1
 10
2.760504153467883
 20
1.705378428706876
 30
0.0
  0
VERTEX
  5
5B7
  8
T9_COUNTERSINK_0_1
 10
2.751891379929085
 20
1.702225922918269
 30
0.0
  0
VERTEX
  5
5B8
  8
T9_COUNTERSINK_0_1
 10
2.742907728436101
 20
1.699915779136713
 30
0.0
  0
VERTEX
  5
5B9
  8
T9_COUNTERSINK_0_1
 10
2.733600385828516
 20
1.698495115683165
 30
0.0
  0
VERTEX
  5
5BA
  8
T9_COUNTERSINK_0_1
 10
2.724016538945918
 20
1.698011050878579
 30
0.0
  0
VERTEX
  5
5BB
  8
T9_COUNTERSINK_0_1
 10
2.714430305370171
 20
1.698495255529687
 30
0.0
  0
VERTEX
  5
5BC
  8
T9_COUNTERSINK_0_1
 10
2.705120852402168
 20
1.699916052695231
 30
0.0
  0
VERTEX
  5
5BD
  8
T9_COUNTERSINK_0_1
 10
2.696135348437759
 20
1.702226320430011
 30
0.0
  0
VERTEX
  5
5BE
  8
T9_COUNTERSINK_0_1
 10
2.687520961872795
 20
1.705378936788828
 30
0.0
  0
VERTEX
  5
5BF
  8
T9_COUNTERSINK_0_1
 10
2.679324861103128
 20
1.709326779826482
 30
0.0
  0
VERTEX
  5
5C0
  8
T9_COUNTERSINK_0_1
 10
2.67159421452461
 20
1.714022727597775
 30
0.0
  0
VERTEX
  5
5C1
  8
T9_COUNTERSINK_0_1
 10
2.664376190533092
 20
1.719419658157506
 30
0.0
  0
VERTEX
  5
5C2
  8
T9_COUNTERSINK_0_1
 10
2.657717957524426
 20
1.725470449560476
 30
0.0
  0
VERTEX
  5
5C3
  8
T9_COUNTERSINK_0_1
 10
2.651666683894462
 20
1.732127979861485
 30
0.0
  0
VERTEX
  5
5C4
  8
T9_COUNTERSINK_0_1
 10
2.646269538039054
 20
1.739345127115334
 30
0.0
  0
VERTEX
  5
5C5
  8
T9_COUNTERSINK_0_1
 10
2.641573688354051
 20
1.747074769376824
 30
0.0
  0
VERTEX
  5
5C6
  8
T9_COUNTERSINK_0_1
 10
2.637626303235306
 20
1.755269784700755
 30
0.0
  0
VERTEX
  5
5C7
  8
T9_COUNTERSINK_0_1
 10
2.63447455107867
 20
1.763883051141927
 30
0.0
  0
VERTEX
  5
5C8
  8
T9_COUNTERSINK_0_1
 10
2.632165600279995
 20
1.772867446755142
 30
0.0
  0
VERTEX
  5
5C9
  8
T9_COUNTERSINK_0_1
 10
2.630746619235131
 20
1.782175849595199
 30
0.0
  0
VERTEX
  5
5CA
  8
T9_COUNTERSINK_0_1
 10
2.630264776339931
 20
1.791761137716899
 30
0.0
  0
VERTEX
  5
5CB
  8
T9_COUNTERSINK_0_1
 10
2.630748822702848
 20
1.801346593107246
 30
0.0
  0
VERTEX
  5
5CC
  8
T9_COUNTERSINK_0_1
 10
2.632169692404103
 20
1.810655135625112
 30
0.0
  0
VERTEX
  5
5CD
  8
T9_COUNTERSINK_0_1
 10
2.634480218289137
 20
1.819639643676153
 30
0.0
  0
VERTEX
  5
5CE
  8
T9_COUNTERSINK_0_1
 10
2.637633233203392
 20
1.828252995666025
 30
0.0
  0
VERTEX
  5
5CF
  8
T9_COUNTERSINK_0_1
 10
2.641581569992307
 20
1.836448070000382
 30
0.0
  0
VERTEX
  5
5D0
  8
T9_COUNTERSINK_0_1
 10
2.646278061501324
 20
1.84417774508488
 30
0.0
  0
VERTEX
  5
5D1
  8
T9_COUNTERSINK_0_1
 10
2.651675540575884
 20
1.851394899325176
 30
0.0
  0
VERTEX
  5
5D2
  8
T9_COUNTERSINK_0_1
 10
2.657726840061425
 20
1.858052411126924
 30
0.0
  0
VERTEX
  5
5D3
  8
T9_COUNTERSINK_0_1
 10
2.66438479280339
 20
1.86410315889578
 30
0.0
  0
VERTEX
  5
5D4
  8
T9_COUNTERSINK_0_1
 10
2.67160223164722
 20
1.869500021037399
 30
0.0
  0
VERTEX
  5
5D5
  8
T9_COUNTERSINK_0_1
 10
2.679331989438354
 20
1.874195875957436
 30
0.0
  0
VERTEX
  5
5D6
  8
T9_COUNTERSINK_0_1
 10
2.687526899022233
 20
1.878143602061548
 30
0.0
  0
VERTEX
  5
5D7
  8
T9_COUNTERSINK_0_1
 10
2.696139793244298
 20
1.88129607775539
 30
0.0
  0
VERTEX
  5
5D8
  8
T9_COUNTERSINK_0_1
 10
2.70512350494999
 20
1.883606181444616
 30
0.0
  0
VERTEX
  5
5D9
  8
T9_COUNTERSINK_0_1
 10
2.714430866984749
 20
1.885026791534883
 30
0.0
  0
SEQEND
  5
774
  8
T9_COUNTERSINK_0_1
  0
POLYLINE
  5
81
  8
T9_COUNTERSINK_0_1
 66
     1
 10
0.0
 20
0.0
 30
0.0
 70
     1
  0
VERTEX
  5
5DA
  8
T9_COUNTERSINK_0_1
 10
0.9784615157640673
 20
2.010186519568621
 30
0.0
  0
VERTEX
  5
5DB
  8
T9_COUNTERSINK_0_1
 10
0.9880453878145017
 20
2.009702763697451
 30
0.0
  0
VERTEX
  5
5DC
  8
T9_COUNTERSINK_0_1
 10
0.99735277139203
 20
2.008282322240426
 30
0.0
  0
VERTEX
  5
5DD
  8
T9_COUNTERSINK_0_1
 10
1.006336478813875
 20
2.00597232598987
 30
0.0
  0
VERTEX
  5
5DE
  8
T9_COUNTERSINK_0_1
 10
1.01494932239726
 20
2.002819905738109
 30
0.0
  0
VERTEX
  5
5DF
  8
T9_COUNTERSINK_0_1
 10
1.023144114459407
 20
1.998872192277467
 30
0.0
  0
VERTEX
  5
5E0
  8
T9_COUNTERSINK_0_1
 10
1.030873667317539
 20
1.994176316400268
 30
0.0
  0
VERTEX
  5
5E1
  8
T9_COUNTERSINK_0_1
 10
1.038090793288879
 20
1.988779408898838
 30
0.0
  0
VERTEX
  5
5E2
  8
T9_COUNTERSINK_0_1
 10
1.044748304690651
 20
1.9827286005655
 30
0.0
  0
VERTEX
  5
5E3
  8
T9_COUNTERSINK_0_1
 10
1.050799013840075
 20
1.976071022192579
 30
0.0
  0
VERTEX
  5
5E4
  8
T9_COUNTERSINK_0_1
 10
1.056195733054376
 20
1.968853804572401
 30
0.0
  0
VERTEX
  5
5E5
  8
T9_COUNTERSINK_0_1
 10
1.060891274650777
 20
1.96112407849729
 30
0.0
  0
VERTEX
  5
5E6
  8
T9_COUNTERSINK_0_1
 10
1.064838450946499
 20
1.95292897475957
 30
0.0
  0
VERTEX
  5
5E7
  8
T9_COUNTERSINK_0_1
 10
1.067990074258766
 20
1.944315624151565
 30
0.0
  0
VERTEX
  5
5E8
  8
T9_COUNTERSINK_0_1
 10
1.0702989569048
 20
1.935331157465602
 30
0.0
  0
VERTEX
  5
5E9
  8
T9_COUNTERSINK_0_1
 10
1.071717911201826
 20
1.926022705494004
 30
0.0
  0
VERTEX
  5
5EA
  8
T9_COUNTERSINK_0_1
 10
1.072199749467064
 20
1.916437399029095
 30
0.0
  0
VERTEX
  5
5EB
  8
T9_COUNTERSINK_0_1
 10
1.071718084866333
 20
1.906851778190411
 30
0.0
  0
VERTEX
  5
5EC
  8
T9_COUNTERSINK_0_1
 10
1.070299300236367
 20
1.897543099507311
 30
0.0
  0
VERTEX
  5
5ED
  8
T9_COUNTERSINK_0_1
 10
1.067990582416751
 20
1.888558481300749
 30
0.0
  0
VERTEX
  5
5EE
  8
T9_COUNTERSINK_0_1
 10
1.064839118247074
 20
1.879945041891683
 30
0.0
  0
VERTEX
  5
5EF
  8
T9_COUNTERSINK_0_1
 10
1.060892094566923
 20
1.871749899601068
 30
0.0
  0
VERTEX
  5
5F0
  8
T9_COUNTERSINK_0_1
 10
1.056196698215885
 20
1.864020172749858
 30
0.0
  0
VERTEX
  5
5F1
  8
T9_COUNTERSINK_0_1
 10
1.050800116033548
 20
1.85680297965901
 30
0.0
  0
VERTEX
  5
5F2
  8
T9_COUNTERSINK_0_1
 10
1.044749534859499
 20
1.850145438649481
 30
0.0
  0
VERTEX
  5
5F3
  8
T9_COUNTERSINK_0_1
 10
1.038092141533326
 20
1.844094668042224
 30
0.0
  0
VERTEX
  5
5F4
  8
T9_COUNTERSINK_0_1
 10
1.030875122894615
 20
1.838697786158196
 30
0.0
  0
VERTEX
  5
5F5
  8
T9_COUNTERSINK_0_1
 10
1.023145665782955
 20
1.834001911318353
 30
0.0
  0
VERTEX
  5
5F6
  8
T9_COUNTERSINK_0_1
 10
1.014950957037932
 20
1.83005416184365
 30
0.0
  0
VERTEX
  5
5F7
  8
T9_COUNTERSINK_0_1
 10
1.006338183499135
 20
1.826901656055043
 30
0.0
  0
VERTEX
  5
5F8
  8
T9_COUNTERSINK_0_1
 10
0.9973545320061505
 20
1.824591512273487
 30
0.0
  0
VERTEX
  5
5F9
  8
T9_COUNTERSINK_0_1
 10
0.9880471893985661
 20
1.823170848819939
 30
0.0
  0
VERTEX
  5
5FA
  8
T9_COUNTERSINK_0_1
 10
0.978463342515969
 20
1.822686784015353
 30
0.0
  0
VERTEX
  5
5FB
  8
T9_COUNTERSINK_0_1
 10
0.9688771089402226
 20
1.82317098866646
 30
0.0
  0
VERTEX
  5
5FC
  8
T9_COUNTERSINK_0_1
 10
0.9595676559722192
 20
1.824591785832005
 30
0.0
  0
VERTEX
  5
5FD
  8
T9_COUNTERSINK_0_1
 10
0.9505821520078099
 20
1.826902053566785
 30
0.0
  0
VERTEX
  5
5FE
  8
T9_COUNTERSINK_0_1
 10
0.9419677654428462
 20
1.830054669925602
 30
0.0
  0
VERTEX
  5
5FF
  8
T9_COUNTERSINK_0_1
 10
0.9337716646731797
 20
1.834002512963257
 30
0.0
  0
VERTEX
  5
600
  8
T9_COUNTERSINK_0_1
 10
0.926041018094662
 20
1.838698460734549
 30
0.0
  0
VERTEX
  5
601
  8
T9_COUNTERSINK_0_1
 10
0.9188229941031444
 20
1.84409539129428
 30
0.0
  0
VERTEX
  5
602
  8
T9_COUNTERSINK_0_1
 10
0.9121647610944783
 20
1.850146182697249
 30
0.0
  0
VERTEX
  5
603
  8
T9_COUNTERSINK_0_1
 10
0.9061134874645151
 20
1.856803712998259
 30
0.0
  0
VERTEX
  5
604
  8
T9_COUNTERSINK_0_1
 10
0.9007163416091066
 20
1.864020860252108
 30
0.0
  0
VERTEX
  5
605
  8
T9_COUNTERSINK_0_1
 10
0.8960204919241042
 20
1.871750502513598
 30
0.0
  0
VERTEX
  5
606
  8
T9_COUNTERSINK_0_1
 10
0.8920731068053591
 20
1.879945517837529
 30
0.0
  0
VERTEX
  5
607
  8
T9_COUNTERSINK_0_1
 10
0.8889213546487229
 20
1.888558784278701
 30
0.0
  0
VERTEX
  5
608
  8
T9_COUNTERSINK_0_1
 10
0.8866124038500471
 20
1.897543179891916
 30
0.0
  0
VERTEX
  5
609
  8
T9_COUNTERSINK_0_1
 10
0.8851934228051831
 20
1.906851582731973
 30
0.0
  0
VERTEX
  5
60A
  8
T9_COUNTERSINK_0_1
 10
0.8847115799099825
 20
1.916436870853674
 30
0.0
  0
VERTEX
  5
60B
  8
T9_COUNTERSINK_0_1
 10
0.8851956262728994
 20
1.92602232624402
 30
0.0
  0
VERTEX
  5
60C
  8
T9_COUNTERSINK_0_1
 10
0.8866164959741549
 20
1.935330868761886
 30
0.0
  0
VERTEX
  5
60D
  8
T9_COUNTERSINK_0_1
 10
0.8889270218591899
 20
1.944315376812927
 30
0.0
  0
VERTEX
  5
60E
  8
T9_COUNTERSINK_0_1
 10
0.8920800367734449
 20
1.952928728802799
 30
0.0
  0
VERTEX
  5
60F
  8
T9_COUNTERSINK_0_1
 10
0.8960283735623608
 20
1.961123803137156
 30
0.0
  0
VERTEX
  5
610
  8
T9_COUNTERSINK_0_1
 10
0.900724865071378
 20
1.968853478221654
 30
0.0
  0
VERTEX
  5
611
  8
T9_COUNTERSINK_0_1
 10
0.9061223441459371
 20
1.97607063246195
 30
0.0
  0
VERTEX
  5
612
  8
T9_COUNTERSINK_0_1
 10
0.9121736436314789
 20
1.982728144263698
 30
0.0
  0
VERTEX
  5
613
  8
T9_COUNTERSINK_0_1
 10
0.918831596373444
 20
1.988778892032554
 30
0.0
  0
VERTEX
  5
614
  8
T9_COUNTERSINK_0_1
 10
0.9260490352172732
 20
1.994175754174173
 30
0.0
  0
VERTEX
  5
615
  8
T9_COUNTERSINK_0_1
 10
0.9337787930084069
 20
1.99887160909421
 30
0.0
  0
VERTEX
  5
616
  8
T9_COUNTERSINK_0_1
 10
0.9419737025922859
 20
2.002819335198322
 30
0.0
  0
VERTEX
  5
617
  8
T9_COUNTERSINK_0_1
 10
0.9505865968143508
 20
2.005971810892164
 30
0.0
  0
VERTEX
  5
618
  8
T9_COUNTERSINK_0_1
 10
0.9595703085200422
 20
2.00828191458139
 30
0.0
  0
VERTEX
  5
619
  8
T9_COUNTERSINK_0_1
 10
0.9688776705548008
 20
2.009702524671658
 30
0.0
  0
SEQEND
  5
775
  8
T9_COUNTERSINK_0_1
  0
POLYLINE
  5
83
  8
T9-T3_POCKET
 66
     1
 10
0.0
 20
0.0
 30
0.0
 70
     1
  0
VERTEX
  5
61A
  8
T9-T3_POCKET
 10
1.785978070878627
 20
15.7236
 30
0.0
  0
VERTEX
  5
61B
  8
T9-T3_POCKET
 10
0.2659780708786279
 20
15.7236
 30
0.0
  0
VERTEX
  5
61C
  8
T9-T3_POCKET
 10
0.2659780708786279
 20
19.4736
 30
0.0
  0
VERTEX
  5
61D
  8
T9-T3_POCKET
 10
1.785978070878627
 20
19.4736
 30
0.0
  0
SEQEND
  5
776
  8
T9-T3_POCKET
  0
POLYLINE
  5
84
  8
T9-T3_POCKET
 66
     1
 10
0.0
 20
0.0
 30
0.0
 70
     1
  0
VERTEX
  5
61E
  8
T9-T3_POCKET
 10
3.305978070878627
 20
46.4828
 30
0.0
  0
VERTEX
  5
61F
  8
T9-T3_POCKET
 10
1.785978070878627
 20
46.4828
 30
0.0
  0
VERTEX
  5
620
  8
T9-T3_POCKET
 10
1.785978070878627
 20
50.2328
 30
0.0
  0
VERTEX
  5
621
  8
T9-T3_POCKET
 10
3.305978070878627
 20
50.2328
 30
0.0
  0
SEQEND
  5
777
  8
T9-T3_POCKET
  0
POLYLINE
  5
86
  8
T3_PROFILE_INSIDE_2
 66
     1
 10
0.0
 20
0.0
 30
0.0
  0
VERTEX
  5
622
  8
T3_PROFILE_INSIDE_2
 10
0.0400740338603054
 20
90.68747136882325
 30
0.0
  0
VERTEX
  5
623
  8
T3_PROFILE_INSIDE_2
 10
0.476655719377872
 20
93.08998027233062
 30
0.0
  0
VERTEX
  5
624
  8
T3_PROFILE_INSIDE_2
 10
3.540091361593754
 20
92.55661760129087
 30
0.0
  0
SEQEND
  5
778
  8
T3_PROFILE_INSIDE_2
  0
POLYLINE
  5
88
  8
T9_COUNTERSINK_0_6
 66
     1
 10
0.0
 20
0.0
 30
0.0
 70
     1
  0
VERTEX
  5
625
  8
T9_COUNTERSINK_0_6
 10
2.546109106317704
 20
47.40447781344775
 30
0.0
  0
VERTEX
  5
626
  8
T9_COUNTERSINK_0_6
 10
2.555690732958152
 20
47.40496212055395
 30
0.0
  0
VERTEX
  5
627
  8
T9_COUNTERSINK_0_6
 10
2.564996440256761
 20
47.40638284945582
 30
0.0
  0
VERTEX
  5
628
  8
T9_COUNTERSINK_0_6
 10
2.573979003463596
 20
47.40869290881625
 30
0.0
  0
VERTEX
  5
629
  8
T9_COUNTERSINK_0_6
 10
2.582591197828725
 20
47.41184520729807
 30
0.0
  0
VERTEX
  5
62A
  8
T9_COUNTERSINK_0_6
 10
2.590785798602214
 20
47.41579265356414
 30
0.0
  0
VERTEX
  5
62B
  8
T9_COUNTERSINK_0_6
 10
2.59851558103413
 20
47.42048815627732
 30
0.0
  0
VERTEX
  5
62C
  8
T9_COUNTERSINK_0_6
 10
2.605733320374539
 20
47.42588462410045
 30
0.0
  0
VERTEX
  5
62D
  8
T9_COUNTERSINK_0_6
 10
2.612391791873509
 20
47.43193496569641
 30
0.0
  0
VERTEX
  5
62E
  8
T9_COUNTERSINK_0_6
 10
2.618443770781104
 20
47.43859208972803
 30
0.0
  0
VERTEX
  5
62F
  8
T9_COUNTERSINK_0_6
 10
2.623842032347392
 20
47.44580890485818
 30
0.0
  0
VERTEX
  5
630
  8
T9_COUNTERSINK_0_6
 10
2.62853935182244
 20
47.45353831974971
 30
0.0
  0
VERTEX
  5
631
  8
T9_COUNTERSINK_0_6
 10
2.632488504456313
 20
47.46173324306548
 30
0.0
  0
VERTEX
  5
632
  8
T9_COUNTERSINK_0_6
 10
2.635642265499079
 20
47.47034658346834
 30
0.0
  0
VERTEX
  5
633
  8
T9_COUNTERSINK_0_6
 10
2.637953410200804
 20
47.47933124962115
 30
0.0
  0
VERTEX
  5
634
  8
T9_COUNTERSINK_0_6
 10
2.639374713811554
 20
47.48864015018677
 30
0.0
  0
VERTEX
  5
635
  8
T9_COUNTERSINK_0_6
 10
2.639858951581395
 20
47.49822619382804
 30
0.0
  0
VERTEX
  5
636
  8
T9_COUNTERSINK_0_6
 10
2.639372546845969
 20
47.50781245202776
 30
0.0
  0
VERTEX
  5
637
  8
T9_COUNTERSINK_0_6
 10
2.637949885938825
 20
47.51712162376388
 30
0.0
  0
VERTEX
  5
638
  8
T9_COUNTERSINK_0_6
 10
2.635638078598832
 20
47.52610660248512
 30
0.0
  0
VERTEX
  5
639
  8
T9_COUNTERSINK_0_6
 10
2.63248423456486
 20
47.53472028164018
 30
0.0
  0
VERTEX
  5
63A
  8
T9_COUNTERSINK_0_6
 10
2.628535463575778
 20
47.54291555467775
 30
0.0
  0
VERTEX
  5
63B
  8
T9_COUNTERSINK_0_6
 10
2.623838875370456
 20
47.55064531504654
 30
0.0
  0
VERTEX
  5
63C
  8
T9_COUNTERSINK_0_6
 10
2.618441579687762
 20
47.55786245619526
 30
0.0
  0
VERTEX
  5
63D
  8
T9_COUNTERSINK_0_6
 10
2.612390686266568
 20
47.56451987157261
 30
0.0
  0
VERTEX
  5
63E
  8
T9_COUNTERSINK_0_6
 10
2.605733304845742
 20
47.57057045462729
 30
0.0
  0
VERTEX
  5
63F
  8
T9_COUNTERSINK_0_6
 10
2.598516545164153
 20
47.575967098808
 30
0.0
  0
VERTEX
  5
640
  8
T9_COUNTERSINK_0_6
 10
2.59078751696067
 20
47.58066269756345
 30
0.0
  0
VERTEX
  5
641
  8
T9_COUNTERSINK_0_6
 10
2.582593329974165
 20
47.58461014434234
 30
0.0
  0
VERTEX
  5
642
  8
T9_COUNTERSINK_0_6
 10
2.573981093943506
 20
47.58776233259338
 30
0.0
  0
VERTEX
  5
643
  8
T9_COUNTERSINK_0_6
 10
2.564997918607561
 20
47.59007215576527
 30
0.0
  0
VERTEX
  5
644
  8
T9_COUNTERSINK_0_6
 10
2.555690913705201
 20
47.59149250730671
 30
0.0
  0
VERTEX
  5
645
  8
T9_COUNTERSINK_0_6
 10
2.546107188975295
 20
47.59197628066639
 30
0.0
  0
VERTEX
  5
646
  8
T9_COUNTERSINK_0_6
 10
2.536521143156069
 20
47.5914928494161
 30
0.0
  0
VERTEX
  5
647
  8
T9_COUNTERSINK_0_6
 10
2.527212155844768
 20
47.59007277059393
 30
0.0
  0
VERTEX
  5
648
  8
T9_COUNTERSINK_0_6
 10
2.518227333946558
 20
47.58776315889319
 30
0.0
  0
VERTEX
  5
649
  8
T9_COUNTERSINK_0_6
 10
2.509613784366604
 20
47.58461112900719
 30
0.0
  0
VERTEX
  5
64A
  8
T9_COUNTERSINK_0_6
 10
2.501418614010072
 20
47.58066379562922
 30
0.0
  0
VERTEX
  5
64B
  8
T9_COUNTERSINK_0_6
 10
2.49368892978213
 20
47.57596827345258
 30
0.0
  0
VERTEX
  5
64C
  8
T9_COUNTERSINK_0_6
 10
2.486471838587942
 20
47.57057167717058
 30
0.0
  0
VERTEX
  5
64D
  8
T9_COUNTERSINK_0_6
 10
2.479814447332674
 20
47.56452112147653
 30
0.0
  0
VERTEX
  5
64E
  8
T9_COUNTERSINK_0_6
 10
2.473763862921493
 20
47.55786372106371
 30
0.0
  0
VERTEX
  5
64F
  8
T9_COUNTERSINK_0_6
 10
2.468367192259565
 20
47.55064659062543
 30
0.0
  0
VERTEX
  5
650
  8
T9_COUNTERSINK_0_6
 10
2.463671542252056
 20
47.54291684485501
 30
0.0
  0
VERTEX
  5
651
  8
T9_COUNTERSINK_0_6
 10
2.459724019804132
 20
47.53472159844573
 30
0.0
  0
VERTEX
  5
652
  8
T9_COUNTERSINK_0_6
 10
2.456571731820959
 20
47.5261079660909
 30
0.0
  0
VERTEX
  5
653
  8
T9_COUNTERSINK_0_6
 10
2.454261785207702
 20
47.51712306248381
 30
0.0
  0
VERTEX
  5
654
  8
T9_COUNTERSINK_0_6
 10
2.452841286869529
 20
47.50781400231777
 30
0.0
  0
VERTEX
  5
655
  8
T9_COUNTERSINK_0_6
 10
2.452357343711604
 20
47.4982279002861
 30
0.0
  0
VERTEX
  5
656
  8
T9_COUNTERSINK_0_6
 10
2.452838992192031
 20
47.4886419818008
 30
0.0
  0
VERTEX
  5
657
  8
T9_COUNTERSINK_0_6
 10
2.45425753101151
 20
47.47933310448383
 30
0.0
  0
VERTEX
  5
658
  8
T9_COUNTERSINK_0_6
 10
2.45656585043117
 20
47.4703483748865
 30
0.0
  0
VERTEX
  5
659
  8
T9_COUNTERSINK_0_6
 10
2.459716840712142
 20
47.4617348995601
 30
0.0
  0
VERTEX
  5
65A
  8
T9_COUNTERSINK_0_6
 10
2.463663392115558
 20
47.45353978505592
 30
0.0
  0
VERTEX
  5
65B
  8
T9_COUNTERSINK_0_6
 10
2.468358394902547
 20
47.44581013792527
 30
0.0
  0
VERTEX
  5
65C
  8
T9_COUNTERSINK_0_6
 10
2.473754739334241
 20
47.43859306471943
 30
0.0
  0
VERTEX
  5
65D
  8
T9_COUNTERSINK_0_6
 10
2.479805315671769
 20
47.43193567198972
 30
0.0
  0
VERTEX
  5
65E
  8
T9_COUNTERSINK_0_6
 10
2.486463014176262
 20
47.42588506628742
 30
0.0
  0
VERTEX
  5
65F
  8
T9_COUNTERSINK_0_6
 10
2.493680725108851
 20
47.42048835416382
 30
0.0
  0
VERTEX
  5
660
  8
T9_COUNTERSINK_0_6
 10
2.501411338730666
 20
47.41579264217023
 30
0.0
  0
VERTEX
  5
661
  8
T9_COUNTERSINK_0_6
 10
2.509607745302838
 20
47.41184503685794
 30
0.0
  0
VERTEX
  5
662
  8
T9_COUNTERSINK_0_6
 10
2.518222835086497
 20
47.40869264477826
 30
0.0
  0
VERTEX
  5
663
  8
T9_COUNTERSINK_0_6
 10
2.527209498342775
 20
47.40638257248246
 30
0.0
  0
VERTEX
  5
664
  8
T9_COUNTERSINK_0_6
 10
2.5365206253328
 20
47.40496192652186
 30
0.0
  0
SEQEND
  5
779
  8
T9_COUNTERSINK_0_6
  0
POLYLINE
  5
89
  8
T9_COUNTERSINK_0_6
 66
     1
 10
0.0
 20
0.0
 30
0.0
 70
     1
  0
VERTEX
  5
665
  8
T9_COUNTERSINK_0_6
 10
2.546109106317704
 20
47.40447781344775
 30
0.0
  0
VERTEX
  5
666
  8
T9_COUNTERSINK_0_6
 10
2.555690732958152
 20
47.40496212055395
 30
0.0
  0
VERTEX
  5
667
  8
T9_COUNTERSINK_0_6
 10
2.564996440256761
 20
47.40638284945582
 30
0.0
  0
VERTEX
  5
668
  8
T9_COUNTERSINK_0_6
 10
2.573979003463596
 20
47.40869290881625
 30
0.0
  0
VERTEX
  5
669
  8
T9_COUNTERSINK_0_6
 10
2.582591197828725
 20
47.41184520729807
 30
0.0
  0
VERTEX
  5
66A
  8
T9_COUNTERSINK_0_6
 10
2.590785798602214
 20
47.41579265356414
 30
0.0
  0
VERTEX
  5
66B
  8
T9_COUNTERSINK_0_6
 10
2.59851558103413
 20
47.42048815627732
 30
0.0
  0
VERTEX
  5
66C
  8
T9_COUNTERSINK_0_6
 10
2.605733320374539
 20
47.42588462410045
 30
0.0
  0
VERTEX
  5
66D
  8
T9_COUNTERSINK_0_6
 10
2.612391791873509
 20
47.43193496569641
 30
0.0
  0
VERTEX
  5
66E
  8
T9_COUNTERSINK_0_6
 10
2.618443770781104
 20
47.43859208972803
 30
0.0
  0
VERTEX
  5
66F
  8
T9_COUNTERSINK_0_6
 10
2.623842032347392
 20
47.44580890485818
 30
0.0
  0
VERTEX
  5
670
  8
T9_COUNTERSINK_0_6
 10
2.62853935182244
 20
47.45353831974971
 30
0.0
  0
VERTEX
  5
671
  8
T9_COUNTERSINK_0_6
 10
2.632488504456313
 20
47.46173324306548
 30
0.0
  0
VERTEX
  5
672
  8
T9_COUNTERSINK_0_6
 10
2.635642265499079
 20
47.47034658346834
 30
0.0
  0
VERTEX
  5
673
  8
T9_COUNTERSINK_0_6
 10
2.637953410200804
 20
47.47933124962115
 30
0.0
  0
VERTEX
  5
674
  8
T9_COUNTERSINK_0_6
 10
2.639374713811554
 20
47.48864015018677
 30
0.0
  0
VERTEX
  5
675
  8
T9_COUNTERSINK_0_6
 10
2.639858951581395
 20
47.49822619382804
 30
0.0
  0
VERTEX
  5
676
  8
T9_COUNTERSINK_0_6
 10
2.639372546845969
 20
47.50781245202776
 30
0.0
  0
VERTEX
  5
677
  8
T9_COUNTERSINK_0_6
 10
2.637949885938825
 20
47.51712162376388
 30
0.0
  0
VERTEX
  5
678
  8
T9_COUNTERSINK_0_6
 10
2.635638078598832
 20
47.52610660248512
 30
0.0
  0
VERTEX
  5
679
  8
T9_COUNTERSINK_0_6
 10
2.63248423456486
 20
47.53472028164018
 30
0.0
  0
VERTEX
  5
67A
  8
T9_COUNTERSINK_0_6
 10
2.628535463575778
 20
47.54291555467775
 30
0.0
  0
VERTEX
  5
67B
  8
T9_COUNTERSINK_0_6
 10
2.623838875370456
 20
47.55064531504654
 30
0.0
  0
VERTEX
  5
67C
  8
T9_COUNTERSINK_0_6
 10
2.618441579687762
 20
47.55786245619526
 30
0.0
  0
VERTEX
  5
67D
  8
T9_COUNTERSINK_0_6
 10
2.612390686266568
 20
47.56451987157261
 30
0.0
  0
VERTEX
  5
67E
  8
T9_COUNTERSINK_0_6
 10
2.605733304845742
 20
47.57057045462729
 30
0.0
  0
VERTEX
  5
67F
  8
T9_COUNTERSINK_0_6
 10
2.598516545164153
 20
47.575967098808
 30
0.0
  0
VERTEX
  5
680
  8
T9_COUNTERSINK_0_6
 10
2.59078751696067
 20
47.58066269756345
 30
0.0
  0
VERTEX
  5
681
  8
T9_COUNTERSINK_0_6
 10
2.582593329974165
 20
47.58461014434234
 30
0.0
  0
VERTEX
  5
682
  8
T9_COUNTERSINK_0_6
 10
2.573981093943506
 20
47.58776233259338
 30
0.0
  0
VERTEX
  5
683
  8
T9_COUNTERSINK_0_6
 10
2.564997918607561
 20
47.59007215576527
 30
0.0
  0
VERTEX
  5
684
  8
T9_COUNTERSINK_0_6
 10
2.555690913705201
 20
47.59149250730671
 30
0.0
  0
VERTEX
  5
685
  8
T9_COUNTERSINK_0_6
 10
2.546107188975295
 20
47.59197628066639
 30
0.0
  0
VERTEX
  5
686
  8
T9_COUNTERSINK_0_6
 10
2.536521143156069
 20
47.5914928494161
 30
0.0
  0
VERTEX
  5
687
  8
T9_COUNTERSINK_0_6
 10
2.527212155844768
 20
47.59007277059393
 30
0.0
  0
VERTEX
  5
688
  8
T9_COUNTERSINK_0_6
 10
2.518227333946558
 20
47.58776315889319
 30
0.0
  0
VERTEX
  5
689
  8
T9_COUNTERSINK_0_6
 10
2.509613784366604
 20
47.58461112900719
 30
0.0
  0
VERTEX
  5
68A
  8
T9_COUNTERSINK_0_6
 10
2.501418614010072
 20
47.58066379562922
 30
0.0
  0
VERTEX
  5
68B
  8
T9_COUNTERSINK_0_6
 10
2.49368892978213
 20
47.57596827345258
 30
0.0
  0
VERTEX
  5
68C
  8
T9_COUNTERSINK_0_6
 10
2.486471838587942
 20
47.57057167717058
 30
0.0
  0
VERTEX
  5
68D
  8
T9_COUNTERSINK_0_6
 10
2.479814447332674
 20
47.56452112147653
 30
0.0
  0
VERTEX
  5
68E
  8
T9_COUNTERSINK_0_6
 10
2.473763862921493
 20
47.55786372106371
 30
0.0
  0
VERTEX
  5
68F
  8
T9_COUNTERSINK_0_6
 10
2.468367192259565
 20
47.55064659062543
 30
0.0
  0
VERTEX
  5
690
  8
T9_COUNTERSINK_0_6
 10
2.463671542252056
 20
47.54291684485501
 30
0.0
  0
VERTEX
  5
691
  8
T9_COUNTERSINK_0_6
 10
2.459724019804132
 20
47.53472159844573
 30
0.0
  0
VERTEX
  5
692
  8
T9_COUNTERSINK_0_6
 10
2.456571731820959
 20
47.5261079660909
 30
0.0
  0
VERTEX
  5
693
  8
T9_COUNTERSINK_0_6
 10
2.454261785207702
 20
47.51712306248381
 30
0.0
  0
VERTEX
  5
694
  8
T9_COUNTERSINK_0_6
 10
2.452841286869529
 20
47.50781400231777
 30
0.0
  0
VERTEX
  5
695
  8
T9_COUNTERSINK_0_6
 10
2.452357343711604
 20
47.4982279002861
 30
0.0
  0
VERTEX
  5
696
  8
T9_COUNTERSINK_0_6
 10
2.452838992192031
 20
47.4886419818008
 30
0.0
  0
VERTEX
  5
697
  8
T9_COUNTERSINK_0_6
 10
2.45425753101151
 20
47.47933310448383
 30
0.0
  0
VERTEX
  5
698
  8
T9_COUNTERSINK_0_6
 10
2.45656585043117
 20
47.4703483748865
 30
0.0
  0
VERTEX
  5
699
  8
T9_COUNTERSINK_0_6
 10
2.459716840712142
 20
47.4617348995601
 30
0.0
  0
VERTEX
  5
69A
  8
T9_COUNTERSINK_0_6
 10
2.463663392115558
 20
47.45353978505592
 30
0.0
  0
VERTEX
  5
69B
  8
T9_COUNTERSINK_0_6
 10
2.468358394902547
 20
47.44581013792527
 30
0.0
  0
VERTEX
  5
69C
  8
T9_COUNTERSINK_0_6
 10
2.473754739334241
 20
47.43859306471943
 30
0.0
  0
VERTEX
  5
69D
  8
T9_COUNTERSINK_0_6
 10
2.479805315671769
 20
47.43193567198972
 30
0.0
  0
VERTEX
  5
69E
  8
T9_COUNTERSINK_0_6
 10
2.486463014176262
 20
47.42588506628742
 30
0.0
  0
VERTEX
  5
69F
  8
T9_COUNTERSINK_0_6
 10
2.493680725108851
 20
47.42048835416382
 30
0.0
  0
VERTEX
  5
6A0
  8
T9_COUNTERSINK_0_6
 10
2.501411338730666
 20
47.41579264217023
 30
0.0
  0
VERTEX
  5
6A1
  8
T9_COUNTERSINK_0_6
 10
2.509607745302838
 20
47.41184503685794
 30
0.0
  0
VERTEX
  5
6A2
  8
T9_COUNTERSINK_0_6
 10
2.518222835086497
 20
47.40869264477826
 30
0.0
  0
VERTEX
  5
6A3
  8
T9_COUNTERSINK_0_6
 10
2.527209498342775
 20
47.40638257248246
 30
0.0
  0
VERTEX
  5
6A4
  8
T9_COUNTERSINK_0_6
 10
2.5365206253328
 20
47.40496192652186
 30
0.0
  0
SEQEND
  5
77A
  8
T9_COUNTERSINK_0_6
  0
POLYLINE
  5
8A
  8
T9_COUNTERSINK_0_6
 66
     1
 10
0.0
 20
0.0
 30
0.0
 70
     1
  0
VERTEX
  5
6A5
  8
T9_COUNTERSINK_0_6
 10
2.545804498488749
 20
49.31106744323166
 30
0.0
  0
VERTEX
  5
6A6
  8
T9_COUNTERSINK_0_6
 10
2.555388363240632
 20
49.31058358517532
 30
0.0
  0
VERTEX
  5
6A7
  8
T9_COUNTERSINK_0_6
 10
2.564695736777122
 20
49.30916300313628
 30
0.0
  0
VERTEX
  5
6A8
  8
T9_COUNTERSINK_0_6
 10
2.573679432211649
 20
49.30685283905432
 30
0.0
  0
VERTEX
  5
6A9
  8
T9_COUNTERSINK_0_6
 10
2.58229226265764
 20
49.30370023486925
 30
0.0
  0
VERTEX
  5
6AA
  8
T9_COUNTERSINK_0_6
 10
2.590487041228524
 20
49.29975233252087
 30
0.0
  0
VERTEX
  5
6AB
  8
T9_COUNTERSINK_0_6
 10
2.598216581037731
 20
49.29505627394899
 30
0.0
  0
VERTEX
  5
6AC
  8
T9_COUNTERSINK_0_6
 10
2.605433695198687
 20
49.28965920109337
 30
0.0
  0
VERTEX
  5
6AD
  8
T9_COUNTERSINK_0_6
 10
2.612091196824821
 20
49.28360825589384
 30
0.0
  0
VERTEX
  5
6AE
  8
T9_COUNTERSINK_0_6
 10
2.618141899029562
 20
49.27695058029019
 30
0.0
  0
VERTEX
  5
6AF
  8
T9_COUNTERSINK_0_6
 10
2.62353861492634
 20
49.2697333162222
 30
0.0
  0
VERTEX
  5
6B0
  8
T9_COUNTERSINK_0_6
 10
2.62823415762858
 20
49.2620036056297
 30
0.0
  0
VERTEX
  5
6B1
  8
T9_COUNTERSINK_0_6
 10
2.632181340249713
 20
49.25380859045245
 30
0.0
  0
VERTEX
  5
6B2
  8
T9_COUNTERSINK_0_6
 10
2.635332975903168
 20
49.24519541263027
 30
0.0
  0
VERTEX
  5
6B3
  8
T9_COUNTERSINK_0_6
 10
2.637641877702371
 20
49.23621121410295
 30
0.0
  0
VERTEX
  5
6B4
  8
T9_COUNTERSINK_0_6
 10
2.639060858760752
 20
49.2269031368103
 30
0.0
  0
VERTEX
  5
6B5
  8
T9_COUNTERSINK_0_6
 10
2.639542732191739
 20
49.21731832269211
 30
0.0
  0
VERTEX
  5
6B6
  8
T9_COUNTERSINK_0_6
 10
2.639061061582606
 20
49.20773261773128
 30
0.0
  0
VERTEX
  5
6B7
  8
T9_COUNTERSINK_0_6
 10
2.637642270280731
 20
49.19842384563648
 30
0.0
  0
VERTEX
  5
6B8
  8
T9_COUNTERSINK_0_6
 10
2.635333545169936
 20
49.18943912534797
 30
0.0
  0
VERTEX
  5
6B9
  8
T9_COUNTERSINK_0_6
 10
2.632182073134043
 20
49.180825575806
 30
0.0
  0
VERTEX
  5
6BA
  8
T9_COUNTERSINK_0_6
 10
2.628235041056871
 20
49.17263031595083
 30
0.0
  0
VERTEX
  5
6BB
  8
T9_COUNTERSINK_0_6
 10
2.623539635822243
 20
49.16490046472273
 30
0.0
  0
VERTEX
  5
6BC
  8
T9_COUNTERSINK_0_6
 10
2.618143044313979
 20
49.15768314106195
 30
0.0
  0
VERTEX
  5
6BD
  8
T9_COUNTERSINK_0_6
 10
2.6120924534159
 20
49.15102546390875
 30
0.0
  0
VERTEX
  5
6BE
  8
T9_COUNTERSINK_0_6
 10
2.605435050011828
 20
49.1449745522034
 30
0.0
  0
VERTEX
  5
6BF
  8
T9_COUNTERSINK_0_6
 10
2.598218020985582
 20
49.13957752488615
 30
0.0
  0
VERTEX
  5
6C0
  8
T9_COUNTERSINK_0_6
 10
2.590488553220986
 20
49.13488150089725
 30
0.0
  0
VERTEX
  5
6C1
  8
T9_COUNTERSINK_0_6
 10
2.582293833601859
 20
49.13093359917697
 30
0.0
  0
VERTEX
  5
6C2
  8
T9_COUNTERSINK_0_6
 10
2.573681049012022
 20
49.12778093866558
 30
0.0
  0
VERTEX
  5
6C3
  8
T9_COUNTERSINK_0_6
 10
2.564697386335297
 20
49.12547063830333
 30
0.0
  0
VERTEX
  5
6C4
  8
T9_COUNTERSINK_0_6
 10
2.555390032455505
 20
49.12404981703047
 30
0.0
  0
VERTEX
  5
6C5
  8
T9_COUNTERSINK_0_6
 10
2.545806174256466
 20
49.12356559378728
 30
0.0
  0
VERTEX
  5
6C6
  8
T9_COUNTERSINK_0_6
 10
2.536219967884412
 20
49.12405017931036
 30
0.0
  0
VERTEX
  5
6C7
  8
T9_COUNTERSINK_0_6
 10
2.526910539731483
 20
49.12547132390546
 30
0.0
  0
VERTEX
  5
6C8
  8
T9_COUNTERSINK_0_6
 10
2.517925057928131
 20
49.12778190191156
 30
0.0
  0
VERTEX
  5
6C9
  8
T9_COUNTERSINK_0_6
 10
2.509310690604804
 20
49.13093478766763
 30
0.0
  0
VERTEX
  5
6CA
  8
T9_COUNTERSINK_0_6
 10
2.501114605891951
 20
49.13488285551264
 30
0.0
  0
VERTEX
  5
6CB
  8
T9_COUNTERSINK_0_6
 10
2.493383971920022
 20
49.13957897978558
 30
0.0
  0
VERTEX
  5
6CC
  8
T9_COUNTERSINK_0_6
 10
2.486165956819468
 20
49.14497603482542
 30
0.0
  0
VERTEX
  5
6CD
  8
T9_COUNTERSINK_0_6
 10
2.479507728720736
 20
49.15102689497113
 30
0.0
  0
VERTEX
  5
6CE
  8
T9_COUNTERSINK_0_6
 10
2.473456455754278
 20
49.1576844345617
 30
0.0
  0
VERTEX
  5
6CF
  8
T9_COUNTERSINK_0_6
 10
2.468059306050542
 20
49.1649015279361
 30
0.0
  0
VERTEX
  5
6D0
  8
T9_COUNTERSINK_0_6
 10
2.463363447739979
 20
49.17263104943329
 30
0.0
  0
VERTEX
  5
6D1
  8
T9_COUNTERSINK_0_6
 10
2.459416048953036
 20
49.18082587339228
 30
0.0
  0
VERTEX
  5
6D2
  8
T9_COUNTERSINK_0_6
 10
2.456264277820165
 20
49.18943887415202
 30
0.0
  0
VERTEX
  5
6D3
  8
T9_COUNTERSINK_0_6
 10
2.453955302471815
 20
49.19842292605149
 30
0.0
  0
VERTEX
  5
6D4
  8
T9_COUNTERSINK_0_6
 10
2.452536291038435
 20
49.20773090342966
 30
0.0
  0
VERTEX
  5
6D5
  8
T9_COUNTERSINK_0_6
 10
2.452054411650476
 20
49.21731568062553
 30
0.0
  0
VERTEX
  5
6D6
  8
T9_COUNTERSINK_0_6
 10
2.452538463690044
 20
49.22690121549324
 30
0.0
  0
VERTEX
  5
6D7
  8
T9_COUNTERSINK_0_6
 10
2.453959339156419
 20
49.23620983872708
 30
0.0
  0
VERTEX
  5
6D8
  8
T9_COUNTERSINK_0_6
 10
2.456269870983507
 20
49.24519442997131
 30
0.0
  0
VERTEX
  5
6D9
  8
T9_COUNTERSINK_0_6
 10
2.459422892105218
 20
49.25380786887018
 30
0.0
  0
VERTEX
  5
6DA
  8
T9_COUNTERSINK_0_6
 10
2.463371235455458
 20
49.26200303506798
 30
0.0
  0
VERTEX
  5
6DB
  8
T9_COUNTERSINK_0_6
 10
2.468067733968137
 20
49.26973280820896
 30
0.0
  0
VERTEX
  5
6DC
  8
T9_COUNTERSINK_0_6
 10
2.473465220577161
 20
49.27695006793738
 30
0.0
  0
VERTEX
  5
6DD
  8
T9_COUNTERSINK_0_6
 10
2.479516528216439
 20
49.28360769389751
 30
0.0
  0
VERTEX
  5
6DE
  8
T9_COUNTERSINK_0_6
 10
2.486174489819879
 20
49.28965856573362
 30
0.0
  0
VERTEX
  5
6DF
  8
T9_COUNTERSINK_0_6
 10
2.493391938321388
 20
49.29505556308995
 30
0.0
  0
VERTEX
  5
6E0
  8
T9_COUNTERSINK_0_6
 10
2.501121706654875
 20
49.29975156561078
 30
0.0
  0
VERTEX
  5
6E1
  8
T9_COUNTERSINK_0_6
 10
2.509316627754247
 20
49.30369945294038
 30
0.0
  0
VERTEX
  5
6E2
  8
T9_COUNTERSINK_0_6
 10
2.517929534553412
 20
49.30685210472301
 30
0.0
  0
VERTEX
  5
6E3
  8
T9_COUNTERSINK_0_6
 10
2.526913259986279
 20
49.30916240060291
 30
0.0
  0
VERTEX
  5
6E4
  8
T9_COUNTERSINK_0_6
 10
2.536220636986756
 20
49.31058322022439
 30
0.0
  0
SEQEND
  5
77B
  8
T9_COUNTERSINK_0_6
  0
POLYLINE
  5
8B
  8
T9_COUNTERSINK_0_6
 66
     1
 10
0.0
 20
0.0
 30
0.0
 70
     1
  0
VERTEX
  5
6E5
  8
T9_COUNTERSINK_0_6
 10
1.025941112030289
 20
16.83291919312258
 30
0.0
  0
VERTEX
  5
6E6
  8
T9_COUNTERSINK_0_6
 10
1.03552959101011
 20
16.83243500549609
 30
0.0
  0
VERTEX
  5
6E7
  8
T9_COUNTERSINK_0_6
 10
1.044840726612183
 20
16.83101415475238
 30
0.0
  0
VERTEX
  5
6E8
  8
T9_COUNTERSINK_0_6
 10
1.053827431038583
 20
16.82870377575388
 30
0.0
  0
VERTEX
  5
6E9
  8
T9_COUNTERSINK_0_6
 10
1.062442616491384
 20
16.825551003363
 30
0.0
  0
VERTEX
  5
6EA
  8
T9_COUNTERSINK_0_6
 10
1.07063919517266
 20
16.82160297244216
 30
0.0
  0
VERTEX
  5
6EB
  8
T9_COUNTERSINK_0_6
 10
1.078370079284487
 20
16.81690681785377
 30
0.0
  0
VERTEX
  5
6EC
  8
T9_COUNTERSINK_0_6
 10
1.08558818102894
 20
16.81150967446024
 30
0.0
  0
VERTEX
  5
6ED
  8
T9_COUNTERSINK_0_6
 10
1.092246412608094
 20
16.80545867712398
 30
0.0
  0
VERTEX
  5
6EE
  8
T9_COUNTERSINK_0_6
 10
1.098297686224022
 20
16.79880096070741
 30
0.0
  0
VERTEX
  5
6EF
  8
T9_COUNTERSINK_0_6
 10
1.1036949140788
 20
16.79158366007295
 30
0.0
  0
VERTEX
  5
6F0
  8
T9_COUNTERSINK_0_6
 10
1.108391008374503
 20
16.783853910083
 30
0.0
  0
VERTEX
  5
6F1
  8
T9_COUNTERSINK_0_6
 10
1.112338881313205
 20
16.77565884559999
 30
0.0
  0
VERTEX
  5
6F2
  8
T9_COUNTERSINK_0_6
 10
1.115491445096981
 20
16.76704560148632
 30
0.0
  0
VERTEX
  5
6F3
  8
T9_COUNTERSINK_0_6
 10
1.117801611927907
 20
16.7580613126044
 30
0.0
  0
VERTEX
  5
6F4
  8
T9_COUNTERSINK_0_6
 10
1.119222294008055
 20
16.74875311381666
 30
0.0
  0
VERTEX
  5
6F5
  8
T9_COUNTERSINK_0_6
 10
1.119706403539503
 20
16.7391681399855
 30
0.0
  0
VERTEX
  5
6F6
  8
T9_COUNTERSINK_0_6
 10
1.119220270018905
 20
16.72958279154988
 30
0.0
  0
VERTEX
  5
6F7
  8
T9_COUNTERSINK_0_6
 10
1.117798130375634
 20
16.72027436359842
 30
0.0
  0
VERTEX
  5
6F8
  8
T9_COUNTERSINK_0_6
 10
1.115487012067003
 20
16.71128997400912
 30
0.0
  0
VERTEX
  5
6F9
  8
T9_COUNTERSINK_0_6
 10
1.112333942550328
 20
16.70267674065997
 30
0.0
  0
VERTEX
  5
6FA
  8
T9_COUNTERSINK_0_6
 10
1.108385949282924
 20
16.69448178142896
 30
0.0
  0
VERTEX
  5
6FB
  8
T9_COUNTERSINK_0_6
 10
1.103690059722105
 20
16.68675221419408
 30
0.0
  0
VERTEX
  5
6FC
  8
T9_COUNTERSINK_0_6
 10
1.098293301325186
 20
16.67953515683333
 30
0.0
  0
VERTEX
  5
6FD
  8
T9_COUNTERSINK_0_6
 10
1.092242701549481
 20
16.67287772722471
 30
0.0
  0
VERTEX
  5
6FE
  8
T9_COUNTERSINK_0_6
 10
1.085585287852306
 20
16.66682704324619
 30
0.0
  0
VERTEX
  5
6FF
  8
T9_COUNTERSINK_0_6
 10
1.078368087690976
 20
16.66143022277578
 30
0.0
  0
VERTEX
  5
700
  8
T9_COUNTERSINK_0_6
 10
1.070638128522805
 20
16.65673438369146
 30
0.0
  0
VERTEX
  5
701
  8
T9_COUNTERSINK_0_6
 10
1.062442437805108
 20
16.65278664387123
 30
0.0
  0
VERTEX
  5
702
  8
T9_COUNTERSINK_0_6
 10
1.053828042995199
 20
16.64963412119309
 30
0.0
  0
VERTEX
  5
703
  8
T9_COUNTERSINK_0_6
 10
1.044841971550394
 20
16.64732393353502
 30
0.0
  0
VERTEX
  5
704
  8
T9_COUNTERSINK_0_6
 10
1.035531250928007
 20
16.64590319877502
 30
0.0
  0
VERTEX
  5
705
  8
T9_COUNTERSINK_0_6
 10
1.025942908585353
 20
16.64541903479108
 30
0.0
  0
VERTEX
  5
706
  8
T9_COUNTERSINK_0_6
 10
1.016359187836477
 20
16.64590286388813
 30
0.0
  0
VERTEX
  5
707
  8
T9_COUNTERSINK_0_6
 10
1.007052193815595
 20
16.64732336777836
 30
0.0
  0
VERTEX
  5
708
  8
T9_COUNTERSINK_0_6
 10
0.9980690346691651
 20
16.64963341761553
 30
0.0
  0
VERTEX
  5
709
  8
T9_COUNTERSINK_0_6
 10
0.9894568185436468
 20
16.65278588455338
 30
0.0
  0
VERTEX
  5
70A
  8
T9_COUNTERSINK_0_6
 10
0.9812626535854976
 20
16.65673363974568
 30
0.0
  0
VERTEX
  5
70B
  8
T9_COUNTERSINK_0_6
 10
0.9735336479411758
 20
16.66142955434619
 30
0.0
  0
VERTEX
  5
70C
  8
T9_COUNTERSINK_0_6
 10
0.9663169097571394
 20
16.66682649950867
 30
0.0
  0
VERTEX
  5
70D
  8
T9_COUNTERSINK_0_6
 10
0.9596595471798466
 20
16.67287734638687
 30
0.0
  0
VERTEX
  5
70E
  8
T9_COUNTERSINK_0_6
 10
0.9536086683557555
 20
16.67953496613454
 30
0.0
  0
VERTEX
  5
70F
  8
T9_COUNTERSINK_0_6
 10
0.9482113814313244
 20
16.68675222990546
 30
0.0
  0
VERTEX
  5
710
  8
T9_COUNTERSINK_0_6
 10
0.9435147945530115
 20
16.69448200885337
 30
0.0
  0
VERTEX
  5
711
  8
T9_COUNTERSINK_0_6
 10
0.9395660158672747
 20
16.70267717413204
 30
0.0
  0
VERTEX
  5
712
  8
T9_COUNTERSINK_0_6
 10
0.9364121535205724
 20
16.71129059689522
 30
0.0
  0
VERTEX
  5
713
  8
T9_COUNTERSINK_0_6
 10
0.9341003156593626
 20
16.72027514829667
 30
0.0
  0
VERTEX
  5
714
  8
T9_COUNTERSINK_0_6
 10
0.9326776104301034
 20
16.72958369949015
 30
0.0
  0
VERTEX
  5
715
  8
T9_COUNTERSINK_0_6
 10
0.9321911459792531
 20
16.73916912162942
 30
0.0
  0
VERTEX
  5
716
  8
T9_COUNTERSINK_0_6
 10
0.9326774075787413
 20
16.74875421815629
 30
0.0
  0
VERTEX
  5
717
  8
T9_COUNTERSINK_0_6
 10
0.9340999228450559
 20
16.75806251346018
 30
0.0
  0
VERTEX
  5
718
  8
T9_COUNTERSINK_0_6
 10
0.9364115834575544
 20
16.76704687303004
 30
0.0
  0
VERTEX
  5
719
  8
T9_COUNTERSINK_0_6
 10
0.9395652810955937
 20
16.77566016235484
 30
0.0
  0
VERTEX
  5
71A
  8
T9_COUNTERSINK_0_6
 10
0.9435139074385313
 20
16.78385524692355
 30
0.0
  0
VERTEX
  5
71B
  8
T9_COUNTERSINK_0_6
 10
0.9482103541657241
 20
16.79158499222515
 30
0.0
  0
VERTEX
  5
71C
  8
T9_COUNTERSINK_0_6
 10
0.9536075129565296
 20
16.79880226374859
 30
0.0
  0
VERTEX
  5
71D
  8
T9_COUNTERSINK_0_6
 10
0.9596582754903049
 20
16.80545992698285
 30
0.0
  0
VERTEX
  5
71E
  8
T9_COUNTERSINK_0_6
 10
0.9663155334464073
 20
16.81151084741689
 30
0.0
  0
VERTEX
  5
71F
  8
T9_COUNTERSINK_0_6
 10
0.9735321785041939
 20
16.81690789053969
 30
0.0
  0
VERTEX
  5
720
  8
T9_COUNTERSINK_0_6
 10
0.9812611023430222
 20
16.82160392184021
 30
0.0
  0
VERTEX
  5
721
  8
T9_COUNTERSINK_0_6
 10
0.9894551966422491
 20
16.82555180680743
 30
0.0
  0
VERTEX
  5
722
  8
T9_COUNTERSINK_0_6
 10
0.998067353081232
 20
16.8287044109303
 30
0.0
  0
VERTEX
  5
723
  8
T9_COUNTERSINK_0_6
 10
1.007050463339328
 20
16.83101459969781
 30
0.0
  0
VERTEX
  5
724
  8
T9_COUNTERSINK_0_6
 10
1.016357419095895
 20
16.83243523859891
 30
0.0
  0
SEQEND
  5
77C
  8
T9_COUNTERSINK_0_6
  0
POLYLINE
  5
8C
  8
T9_COUNTERSINK_0_6
 66
     1
 10
0.0
 20
0.0
 30
0.0
 70
     1
  0
VERTEX
  5
725
  8
T9_COUNTERSINK_0_6
 10
1.025957438933666
 20
18.55171731126894
 30
0.0
  0
VERTEX
  5
726
  8
T9_COUNTERSINK_0_6
 10
1.035543389177074
 20
18.55123332293075
 30
0.0
  0
VERTEX
  5
727
  8
T9_COUNTERSINK_0_6
 10
1.044852037978342
 20
18.54981270084821
 30
0.0
  0
VERTEX
  5
728
  8
T9_COUNTERSINK_0_6
 10
1.053836336644198
 20
18.54750256962114
 30
0.0
  0
VERTEX
  5
729
  8
T9_COUNTERSINK_0_6
 10
1.062449236481373
 20
18.54435005384934
 30
0.0
  0
VERTEX
  5
72A
  8
T9_COUNTERSINK_0_6
 10
1.070643688796595
 20
18.54040227813262
 30
0.0
  0
VERTEX
  5
72B
  8
T9_COUNTERSINK_0_6
 10
1.078372644896594
 20
18.5357063670708
 30
0.0
  0
VERTEX
  5
72C
  8
T9_COUNTERSINK_0_6
 10
1.085589056088099
 20
18.5303094452637
 30
0.0
  0
VERTEX
  5
72D
  8
T9_COUNTERSINK_0_6
 10
1.09224587367784
 20
18.52425863731111
 30
0.0
  0
VERTEX
  5
72E
  8
T9_COUNTERSINK_0_6
 10
1.098296048972545
 20
18.51760106781286
 30
0.0
  0
VERTEX
  5
72F
  8
T9_COUNTERSINK_0_6
 10
1.103692533278945
 20
18.51038386136875
 30
0.0
  0
VERTEX
  5
730
  8
T9_COUNTERSINK_0_6
 10
1.108388277903768
 20
18.50265414257861
 30
0.0
  0
VERTEX
  5
731
  8
T9_COUNTERSINK_0_6
 10
1.112336234153745
 20
18.49445903604222
 30
0.0
  0
VERTEX
  5
732
  8
T9_COUNTERSINK_0_6
 10
1.115489353335603
 20
18.48584566635942
 30
0.0
  0
VERTEX
  5
733
  8
T9_COUNTERSINK_0_6
 10
1.117800586756074
 20
18.47686115813001
 30
0.0
  0
VERTEX
  5
734
  8
T9_COUNTERSINK_0_6
 10
1.119222885721885
 20
18.46755263595379
 30
0.0
  0
VERTEX
  5
735
  8
T9_COUNTERSINK_0_6
 10
1.119709201539766
 20
18.4579672244306
 30
0.0
  0
VERTEX
  5
736
  8
T9_COUNTERSINK_0_6
 10
1.119222921362146
 20
18.44838186779603
 30
0.0
  0
VERTEX
  5
737
  8
T9_COUNTERSINK_0_6
 10
1.117800394948952
 20
18.43907341642752
 30
0.0
  0
VERTEX
  5
738
  8
T9_COUNTERSINK_0_6
 10
1.11548872955922
 20
18.43008898997283
 30
0.0
  0
VERTEX
  5
739
  8
T9_COUNTERSINK_0_6
 10
1.112335032451984
 20
18.42147570807968
 30
0.0
  0
VERTEX
  5
73A
  8
T9_COUNTERSINK_0_6
 10
1.108386410886281
 20
18.4132806903958
 30
0.0
  0
VERTEX
  5
73B
  8
T9_COUNTERSINK_0_6
 10
1.103689972121144
 20
18.40555105656894
 30
0.0
  0
VERTEX
  5
73C
  8
T9_COUNTERSINK_0_6
 10
1.098292823415611
 20
18.39833392624682
 30
0.0
  0
VERTEX
  5
73D
  8
T9_COUNTERSINK_0_6
 10
1.092242072028715
 20
18.39167641907718
 30
0.0
  0
VERTEX
  5
73E
  8
T9_COUNTERSINK_0_6
 10
1.085584825219492
 20
18.38562565470776
 30
0.0
  0
VERTEX
  5
73F
  8
T9_COUNTERSINK_0_6
 10
1.078368190246977
 20
18.38022875278628
 30
0.0
  0
VERTEX
  5
740
  8
T9_COUNTERSINK_0_6
 10
1.070639274370205
 20
18.37553283296049
 30
0.0
  0
VERTEX
  5
741
  8
T9_COUNTERSINK_0_6
 10
1.062445184848212
 20
18.37158501487811
 30
0.0
  0
VERTEX
  5
742
  8
T9_COUNTERSINK_0_6
 10
1.053833028940033
 20
18.36843241818688
 30
0.0
  0
VERTEX
  5
743
  8
T9_COUNTERSINK_0_6
 10
1.044849913904703
 20
18.36612216253454
 30
0.0
  0
VERTEX
  5
744
  8
T9_COUNTERSINK_0_6
 10
1.035542947001257
 20
18.36470136756881
 30
0.0
  0
VERTEX
  5
745
  8
T9_COUNTERSINK_0_6
 10
1.025959235488731
 20
18.36421715293744
 30
0.0
  0
VERTEX
  5
746
  8
T9_COUNTERSINK_0_6
 10
1.016370902487859
 20
18.36470129278962
 30
0.0
  0
VERTEX
  5
747
  8
T9_COUNTERSINK_0_6
 10
1.007060165894916
 20
18.36612201295019
 30
0.0
  0
VERTEX
  5
748
  8
T9_COUNTERSINK_0_6
 10
0.9980740551162459
 20
18.36843219766646
 30
0.0
  0
VERTEX
  5
749
  8
T9_COUNTERSINK_0_6
 10
0.9894595995581945
 20
18.37158473118576
 30
0.0
  0
VERTEX
  5
74A
  8
T9_COUNTERSINK_0_6
 10
0.9812638286271071
 20
18.37553249775537
 30
0.0
  0
VERTEX
  5
74B
  8
T9_COUNTERSINK_0_6
 10
0.9735337717293289
 20
18.38022838162263
 30
0.0
  0
VERTEX
  5
74C
  8
T9_COUNTERSINK_0_6
 10
0.9663164582712054
 20
18.38562526703485
 30
0.0
  0
VERTEX
  5
74D
  8
T9_COUNTERSINK_0_6
 10
0.9596589176590817
 20
18.39167603823934
 30
0.0
  0
VERTEX
  5
74E
  8
T9_COUNTERSINK_0_6
 10
0.9536081792993032
 20
18.39833357948341
 30
0.0
  0
VERTEX
  5
74F
  8
T9_COUNTERSINK_0_6
 10
0.9482112725982149
 20
18.40555077501437
 30
0.0
  0
VERTEX
  5
750
  8
T9_COUNTERSINK_0_6
 10
0.9435152269621625
 20
18.41328050907955
 30
0.0
  0
VERTEX
  5
751
  8
T9_COUNTERSINK_0_6
 10
0.9395670717974909
 20
18.42147566592624
 30
0.0
  0
VERTEX
  5
752
  8
T9_COUNTERSINK_0_6
 10
0.9364138365105457
 20
18.43008912980177
 30
0.0
  0
VERTEX
  5
753
  8
T9_COUNTERSINK_0_6
 10
0.9341025505076719
 20
18.43907378495345
 30
0.0
  0
VERTEX
  5
754
  8
T9_COUNTERSINK_0_6
 10
0.932680243195215
 20
18.44838251562859
 30
0.0
  0
VERTEX
  5
755
  8
T9_COUNTERSINK_0_6
 10
0.9321939439795202
 20
18.45796820607451
 30
0.0
  0
VERTEX
  5
756
  8
T9_COUNTERSINK_0_6
 10
0.9326800788271267
 20
18.46755357308925
 30
0.0
  0
VERTEX
  5
757
  8
T9_COUNTERSINK_0_6
 10
0.9341022220975569
 20
18.47686205182365
 30
0.0
  0
VERTEX
  5
758
  8
T9_COUNTERSINK_0_6
 10
0.9364133458026922
 20
18.48584651696805
 30
0.0
  0
VERTEX
  5
759
  8
T9_COUNTERSINK_0_6
 10
0.9395664219544141
 20
18.4944598432128
 30
0.0
  0
VERTEX
  5
75A
  8
T9_COUNTERSINK_0_6
 10
0.9435144225646038
 20
18.50265490524828
 30
0.0
  0
VERTEX
  5
75B
  8
T9_COUNTERSINK_0_6
 10
0.9482103196451431
 20
18.51038457776485
 30
0.0
  0
VERTEX
  5
75C
  8
T9_COUNTERSINK_0_6
 10
0.9536070852079133
 20
18.51760173545285
 30
0.0
  0
VERTEX
  5
75D
  8
T9_COUNTERSINK_0_6
 10
0.9596576912647956
 20
18.52425925300266
 30
0.0
  0
VERTEX
  5
75E
  8
T9_COUNTERSINK_0_6
 10
0.9663151098276717
 20
18.53031000510462
 30
0.0
  0
VERTEX
  5
75F
  8
T9_COUNTERSINK_0_6
 10
0.9735323129084227
 20
18.5357068664491
 30
0.0
  0
VERTEX
  5
760
  8
T9_COUNTERSINK_0_6
 10
0.9812622725189304
 20
18.54040271172646
 30
0.0
  0
VERTEX
  5
761
  8
T9_COUNTERSINK_0_6
 10
0.9894579606710759
 20
18.54435041562705
 30
0.0
  0
VERTEX
  5
762
  8
T9_COUNTERSINK_0_6
 10
0.9980723493767408
 20
18.54750285284123
 30
0.0
  0
VERTEX
  5
763
  8
T9_COUNTERSINK_0_6
 10
1.007058410647807
 20
18.54981289805936
 30
0.0
  0
VERTEX
  5
764
  8
T9_COUNTERSINK_0_6
 10
1.016369116496155
 20
18.55123342597182
 30
0.0
  0
SEQEND
  5
77D
  8
T9_COUNTERSINK_0_6
  0
ENDSEC
  0
EOF
