0
SECTION
2
ENTITIES
0
LWPOLYLINE
8
OUTSIDE
90
5
70
1
10
0.00000
20
0.00000
10
35.50000
20
0.00000
10
35.50000
20
35.50000
10
0.00000
20
35.50000
10
0.00000
20
0.00000
0
LWPOLYLINE
8
INSIDE_Holes_6_apart
90
65
70
1
10
4.24479
20
4.72917
10
4.19420
20
4.72664
10
4.14507
20
4.71922
10
4.09766
20
4.70716
10
4.05220
20
4.69069
10
4.00894
20
4.67008
10
3.96815
20
4.64555
10
3.93006
20
4.61737
10
3.89492
20
4.58577
10
3.86299
20
4.55100
10
3.83450
20
4.51331
10
3.80972
20
4.47295
10
3.78888
20
4.43015
10
3.77224
20
4.38517
10
3.76005
20
4.33825
10
3.75255
20
4.28964
10
3.75000
20
4.23958
10
3.75255
20
4.18953
10
3.76005
20
4.14092
10
3.77224
20
4.09400
10
3.78888
20
4.04902
10
3.80972
20
4.00622
10
3.83450
20
3.96585
10
3.86299
20
3.92816
10
3.89492
20
3.89340
10
3.93006
20
3.86180
10
3.96815
20
3.83361
10
4.00894
20
3.80909
10
4.05220
20
3.78847
10
4.09766
20
3.77201
10
4.14507
20
3.75995
10
4.19420
20
3.75253
10
4.24479
20
3.75000
10
4.29538
20
3.75253
10
4.34451
20
3.75995
10
4.39193
20
3.77201
10
4.43739
20
3.78847
10
4.48064
20
3.80909
10
4.52143
20
3.83361
10
4.55953
20
3.86180
10
4.59466
20
3.89340
10
4.62660
20
3.92816
10
4.65508
20
3.96585
10
4.67986
20
4.00622
10
4.70070
20
4.04902
10
4.71734
20
4.09400
10
4.72953
20
4.14092
10
4.73703
20
4.18953
10
4.73958
20
4.23958
10
4.73703
20
4.28964
10
4.72953
20
4.33825
10
4.71734
20
4.38517
10
4.70070
20
4.43015
10
4.67986
20
4.47295
10
4.65508
20
4.51331
10
4.62660
20
4.55100
10
4.59466
20
4.58577
10
4.55953
20
4.61737
10
4.52143
20
4.64555
10
4.48064
20
4.67008
10
4.43739
20
4.69069
10
4.39193
20
4.70716
10
4.34451
20
4.71922
10
4.29538
20
4.72664
10
4.24479
20
4.72917
0
LWPOLYLINE
8
INSIDE_Holes_6_apart
90
65
70
1
10
8.73438
20
4.72917
10
8.68379
20
4.72664
10
8.63466
20
4.71922
10
8.58724
20
4.70716
10
8.54178
20
4.69069
10
8.49853
20
4.67008
10
8.45773
20
4.64555
10
8.41964
20
4.61737
10
8.38450
20
4.58577
10
8.35257
20
4.55100
10
8.32409
20
4.51331
10
8.29930
20
4.47295
10
8.27847
20
4.43015
10
8.26183
20
4.38517
10
8.24964
20
4.33825
10
8.24214
20
4.28964
10
8.23958
20
4.23958
10
8.24214
20
4.18953
10
8.24964
20
4.14092
10
8.26183
20
4.09400
10
8.27847
20
4.04902
10
8.29930
20
4.00622
10
8.32409
20
3.96585
10
8.35257
20
3.92816
10
8.38450
20
3.89340
10
8.41964
20
3.86180
10
8.45773
20
3.83361
10
8.49853
20
3.80909
10
8.54178
20
3.78847
10
8.58724
20
3.77201
10
8.63466
20
3.75995
10
8.68379
20
3.75253
10
8.73438
20
3.75000
10
8.78496
20
3.75253
10
8.83409
20
3.75995
10
8.88151
20
3.77201
10
8.92697
20
3.78847
10
8.97022
20
3.80909
10
9.01102
20
3.83361
10
9.04911
20
3.86180
10
9.08425
20
3.89340
10
9.11618
20
3.92816
10
9.14466
20
3.96585
10
9.16945
20
4.00622
10
9.19028
20
4.04902
10
9.20692
20
4.09400
10
9.21911
20
4.14092
10
9.22661
20
4.18953
10
9.22917
20
4.23958
10
9.22661
20
4.28964
10
9.21911
20
4.33825
10
9.20692
20
4.38517
10
9.19028
20
4.43015
10
9.16945
20
4.47295
10
9.14466
20
4.51331
10
9.11618
20
4.55100
10
9.08425
20
4.58577
10
9.04911
20
4.61737
10
9.01102
20
4.64555
10
8.97022
20
4.67008
10
8.92697
20
4.69069
10
8.88151
20
4.70716
10
8.83409
20
4.71922
10
8.78496
20
4.72664
10
8.73438
20
4.72917
0
LWPOLYLINE
8
INSIDE_Holes_6_apart
90
65
70
1
10
13.22396
20
4.72917
10
13.17337
20
4.72664
10
13.12424
20
4.71922
10
13.07682
20
4.70716
10
13.03136
20
4.69069
10
12.98811
20
4.67008
10
12.94732
20
4.64555
10
12.90922
20
4.61737
10
12.87409
20
4.58577
10
12.84215
20
4.55100
10
12.81367
20
4.51331
10
12.78889
20
4.47295
10
12.76805
20
4.43015
10
12.75141
20
4.38517
10
12.73922
20
4.33825
10
12.73172
20
4.28964
10
12.72917
20
4.23958
10
12.73172
20
4.18953
10
12.73922
20
4.14092
10
12.75141
20
4.09400
10
12.76805
20
4.04902
10
12.78889
20
4.00622
10
12.81367
20
3.96585
10
12.84215
20
3.92816
10
12.87409
20
3.89340
10
12.90922
20
3.86180
10
12.94732
20
3.83361
10
12.98811
20
3.80909
10
13.03136
20
3.78847
10
13.07682
20
3.77201
10
13.12424
20
3.75995
10
13.17337
20
3.75253
10
13.22396
20
3.75000
10
13.27455
20
3.75253
10
13.32368
20
3.75995
10
13.37109
20
3.77201
10
13.41655
20
3.78847
10
13.45981
20
3.80909
10
13.50060
20
3.83361
10
13.53869
20
3.86180
10
13.57383
20
3.89340
10
13.60576
20
3.92816
10
13.63425
20
3.96585
10
13.65903
20
4.00622
10
13.67987
20
4.04902
10
13.69651
20
4.09400
10
13.70870
20
4.14092
10
13.71620
20
4.18953
10
13.71875
20
4.23958
10
13.71620
20
4.28964
10
13.70870
20
4.33825
10
13.69651
20
4.38517
10
13.67987
20
4.43015
10
13.65903
20
4.47295
10
13.63425
20
4.51331
10
13.60576
20
4.55100
10
13.57383
20
4.58577
10
13.53869
20
4.61737
10
13.50060
20
4.64555
10
13.45981
20
4.67008
10
13.41655
20
4.69069
10
13.37109
20
4.70716
10
13.32368
20
4.71922
10
13.27455
20
4.72664
10
13.22396
20
4.72917
0
LWPOLYLINE
8
INSIDE_Holes_6_apart
90
65
70
1
10
17.71354
20
4.72917
10
17.66295
20
4.72664
10
17.61382
20
4.71922
10
17.56641
20
4.70716
10
17.52095
20
4.69069
10
17.47769
20
4.67008
10
17.43690
20
4.64555
10
17.39881
20
4.61737
10
17.36367
20
4.58577
10
17.33174
20
4.55100
10
17.30325
20
4.51331
10
17.27847
20
4.47295
10
17.25763
20
4.43015
10
17.24099
20
4.38517
10
17.22880
20
4.33825
10
17.22130
20
4.28964
10
17.21875
20
4.23958
10
17.22130
20
4.18953
10
17.22880
20
4.14092
10
17.24099
20
4.09400
10
17.25763
20
4.04902
10
17.27847
20
4.00622
10
17.30325
20
3.96585
10
17.33174
20
3.92816
10
17.36367
20
3.89340
10
17.39881
20
3.86180
10
17.43690
20
3.83361
10
17.47769
20
3.80909
10
17.52095
20
3.78847
10
17.56641
20
3.77201
10
17.61382
20
3.75995
10
17.66295
20
3.75253
10
17.71354
20
3.75000
10
17.76413
20
3.75253
10
17.81326
20
3.75995
10
17.86068
20
3.77201
10
17.90614
20
3.78847
10
17.94939
20
3.80909
10
17.99018
20
3.83361
10
18.02828
20
3.86180
10
18.06341
20
3.89340
10
18.09535
20
3.92816
10
18.12383
20
3.96585
10
18.14861
20
4.00622
10
18.16945
20
4.04902
10
18.18609
20
4.09400
10
18.19828
20
4.14092
10
18.20578
20
4.18953
10
18.20833
20
4.23958
10
18.20578
20
4.28964
10
18.19828
20
4.33825
10
18.18609
20
4.38517
10
18.16945
20
4.43015
10
18.14861
20
4.47295
10
18.12383
20
4.51331
10
18.09535
20
4.55100
10
18.06341
20
4.58577
10
18.02828
20
4.61737
10
17.99018
20
4.64555
10
17.94939
20
4.67008
10
17.90614
20
4.69069
10
17.86068
20
4.70716
10
17.81326
20
4.71922
10
17.76413
20
4.72664
10
17.71354
20
4.72917
0
LWPOLYLINE
8
INSIDE_Holes_6_apart
90
65
70
1
10
22.20313
20
4.72917
10
22.15254
20
4.72664
10
22.10341
20
4.71922
10
22.05599
20
4.70716
10
22.01053
20
4.69069
10
21.96728
20
4.67008
10
21.92648
20
4.64555
10
21.88839
20
4.61737
10
21.85325
20
4.58577
10
21.82132
20
4.55100
10
21.79284
20
4.51331
10
21.76805
20
4.47295
10
21.74722
20
4.43015
10
21.73058
20
4.38517
10
21.71839
20
4.33825
10
21.71089
20
4.28964
10
21.70833
20
4.23958
10
21.71089
20
4.18953
10
21.71839
20
4.14092
10
21.73058
20
4.09400
10
21.74722
20
4.04902
10
21.76805
20
4.00622
10
21.79284
20
3.96585
10
21.82132
20
3.92816
10
21.85325
20
3.89340
10
21.88839
20
3.86180
10
21.92648
20
3.83361
10
21.96728
20
3.80909
10
22.01053
20
3.78847
10
22.05599
20
3.77201
10
22.10341
20
3.75995
10
22.15254
20
3.75253
10
22.20313
20
3.75000
10
22.25371
20
3.75253
10
22.30284
20
3.75995
10
22.35026
20
3.77201
10
22.39572
20
3.78847
10
22.43897
20
3.80909
10
22.47977
20
3.83361
10
22.51786
20
3.86180
10
22.55300
20
3.89340
10
22.58493
20
3.92816
10
22.61341
20
3.96585
10
22.63820
20
4.00622
10
22.65903
20
4.04902
10
22.67567
20
4.09400
10
22.68786
20
4.14092
10
22.69536
20
4.18953
10
22.69792
20
4.23958
10
22.69536
20
4.28964
10
22.68786
20
4.33825
10
22.67567
20
4.38517
10
22.65903
20
4.43015
10
22.63820
20
4.47295
10
22.61341
20
4.51331
10
22.58493
20
4.55100
10
22.55300
20
4.58577
10
22.51786
20
4.61737
10
22.47977
20
4.64555
10
22.43897
20
4.67008
10
22.39572
20
4.69069
10
22.35026
20
4.70716
10
22.30284
20
4.71922
10
22.25371
20
4.72664
10
22.20313
20
4.72917
0
LWPOLYLINE
8
INSIDE_Holes_6_apart
90
65
70
1
10
26.69271
20
4.72917
10
26.64212
20
4.72664
10
26.59299
20
4.71922
10
26.54557
20
4.70716
10
26.50011
20
4.69069
10
26.45686
20
4.67008
10
26.41607
20
4.64555
10
26.37797
20
4.61737
10
26.34284
20
4.58577
10
26.31090
20
4.55100
10
26.28242
20
4.51331
10
26.25764
20
4.47295
10
26.23680
20
4.43015
10
26.22016
20
4.38517
10
26.20797
20
4.33825
10
26.20047
20
4.28964
10
26.19792
20
4.23958
10
26.20047
20
4.18953
10
26.20797
20
4.14092
10
26.22016
20
4.09400
10
26.23680
20
4.04902
10
26.25764
20
4.00622
10
26.28242
20
3.96585
10
26.31090
20
3.92816
10
26.34284
20
3.89340
10
26.37797
20
3.86180
10
26.41607
20
3.83361
10
26.45686
20
3.80909
10
26.50011
20
3.78847
10
26.54557
20
3.77201
10
26.59299
20
3.75995
10
26.64212
20
3.75253
10
26.69271
20
3.75000
10
26.74330
20
3.75253
10
26.79243
20
3.75995
10
26.83984
20
3.77201
10
26.88530
20
3.78847
10
26.92856
20
3.80909
10
26.96935
20
3.83361
10
27.00744
20
3.86180
10
27.04258
20
3.89340
10
27.07451
20
3.92816
10
27.10300
20
3.96585
10
27.12778
20
4.00622
10
27.14862
20
4.04902
10
27.16526
20
4.09400
10
27.17745
20
4.14092
10
27.18495
20
4.18953
10
27.18750
20
4.23958
10
27.18495
20
4.28964
10
27.17745
20
4.33825
10
27.16526
20
4.38517
10
27.14862
20
4.43015
10
27.12778
20
4.47295
10
27.10300
20
4.51331
10
27.07451
20
4.55100
10
27.04258
20
4.58577
10
27.00744
20
4.61737
10
26.96935
20
4.64555
10
26.92856
20
4.67008
10
26.88530
20
4.69069
10
26.83984
20
4.70716
10
26.79243
20
4.71922
10
26.74330
20
4.72664
10
26.69271
20
4.72917
0
LWPOLYLINE
8
INSIDE_Holes_6_apart
90
65
70
1
10
31.18229
20
4.72917
10
31.13170
20
4.72664
10
31.08257
20
4.71922
10
31.03516
20
4.70716
10
30.98970
20
4.69069
10
30.94644
20
4.67008
10
30.90565
20
4.64555
10
30.86756
20
4.61737
10
30.83242
20
4.58577
10
30.80049
20
4.55100
10
30.77200
20
4.51331
10
30.74722
20
4.47295
10
30.72638
20
4.43015
10
30.70974
20
4.38517
10
30.69755
20
4.33825
10
30.69005
20
4.28964
10
30.68750
20
4.23958
10
30.69005
20
4.18953
10
30.69755
20
4.14092
10
30.70974
20
4.09400
10
30.72638
20
4.04902
10
30.74722
20
4.00622
10
30.77200
20
3.96585
10
30.80049
20
3.92816
10
30.83242
20
3.89340
10
30.86756
20
3.86180
10
30.90565
20
3.83361
10
30.94644
20
3.80909
10
30.98970
20
3.78847
10
31.03516
20
3.77201
10
31.08257
20
3.75995
10
31.13170
20
3.75253
10
31.18229
20
3.75000
10
31.23288
20
3.75253
10
31.28201
20
3.75995
10
31.32943
20
3.77201
10
31.37489
20
3.78847
10
31.41814
20
3.80909
10
31.45893
20
3.83361
10
31.49703
20
3.86180
10
31.53216
20
3.89340
10
31.56410
20
3.92816
10
31.59258
20
3.96585
10
31.61736
20
4.00622
10
31.63820
20
4.04902
10
31.65484
20
4.09400
10
31.66703
20
4.14092
10
31.67453
20
4.18953
10
31.67708
20
4.23958
10
31.67453
20
4.28964
10
31.66703
20
4.33825
10
31.65484
20
4.38517
10
31.63820
20
4.43015
10
31.61736
20
4.47295
10
31.59258
20
4.51331
10
31.56410
20
4.55100
10
31.53216
20
4.58577
10
31.49703
20
4.61737
10
31.45893
20
4.64555
10
31.41814
20
4.67008
10
31.37489
20
4.69069
10
31.32943
20
4.70716
10
31.28201
20
4.71922
10
31.23288
20
4.72664
10
31.18229
20
4.72917
0
LWPOLYLINE
8
INSIDE_Holes_6_apart
90
65
70
1
10
4.24479
20
9.20833
10
4.19420
20
9.20581
10
4.14507
20
9.19839
10
4.09766
20
9.18632
10
4.05220
20
9.16986
10
4.00894
20
9.14924
10
3.96815
20
9.12472
10
3.93006
20
9.09654
10
3.89492
20
9.06494
10
3.86299
20
9.03017
10
3.83450
20
8.99248
10
3.80972
20
8.95211
10
3.78888
20
8.90932
10
3.77224
20
8.86434
10
3.76005
20
8.81742
10
3.75255
20
8.76881
10
3.75000
20
8.71875
10
3.75255
20
8.66869
10
3.76005
20
8.62008
10
3.77224
20
8.57316
10
3.78888
20
8.52818
10
3.80972
20
8.48539
10
3.83450
20
8.44502
10
3.86299
20
8.40733
10
3.89492
20
8.37256
10
3.93006
20
8.34096
10
3.96815
20
8.31278
10
4.00894
20
8.28826
10
4.05220
20
8.26764
10
4.09766
20
8.25118
10
4.14507
20
8.23911
10
4.19420
20
8.23169
10
4.24479
20
8.22917
10
4.29538
20
8.23169
10
4.34451
20
8.23911
10
4.39193
20
8.25118
10
4.43739
20
8.26764
10
4.48064
20
8.28826
10
4.52143
20
8.31278
10
4.55953
20
8.34096
10
4.59466
20
8.37256
10
4.62660
20
8.40733
10
4.65508
20
8.44502
10
4.67986
20
8.48539
10
4.70070
20
8.52818
10
4.71734
20
8.57316
10
4.72953
20
8.62008
10
4.73703
20
8.66869
10
4.73958
20
8.71875
10
4.73703
20
8.76881
10
4.72953
20
8.81742
10
4.71734
20
8.86434
10
4.70070
20
8.90932
10
4.67986
20
8.95211
10
4.65508
20
8.99248
10
4.62660
20
9.03017
10
4.59466
20
9.06494
10
4.55953
20
9.09654
10
4.52143
20
9.12472
10
4.48064
20
9.14924
10
4.43739
20
9.16986
10
4.39193
20
9.18632
10
4.34451
20
9.19839
10
4.29538
20
9.20581
10
4.24479
20
9.20833
0
LWPOLYLINE
8
INSIDE_Holes_6_apart
90
65
70
1
10
8.73438
20
9.20833
10
8.68379
20
9.20581
10
8.63466
20
9.19839
10
8.58724
20
9.18632
10
8.54178
20
9.16986
10
8.49853
20
9.14924
10
8.45773
20
9.12472
10
8.41964
20
9.09654
10
8.38450
20
9.06494
10
8.35257
20
9.03017
10
8.32409
20
8.99248
10
8.29930
20
8.95211
10
8.27847
20
8.90932
10
8.26183
20
8.86434
10
8.24964
20
8.81742
10
8.24214
20
8.76881
10
8.23958
20
8.71875
10
8.24214
20
8.66869
10
8.24964
20
8.62008
10
8.26183
20
8.57316
10
8.27847
20
8.52818
10
8.29930
20
8.48539
10
8.32409
20
8.44502
10
8.35257
20
8.40733
10
8.38450
20
8.37256
10
8.41964
20
8.34096
10
8.45773
20
8.31278
10
8.49853
20
8.28826
10
8.54178
20
8.26764
10
8.58724
20
8.25118
10
8.63466
20
8.23911
10
8.68379
20
8.23169
10
8.73438
20
8.22917
10
8.78496
20
8.23169
10
8.83409
20
8.23911
10
8.88151
20
8.25118
10
8.92697
20
8.26764
10
8.97022
20
8.28826
10
9.01102
20
8.31278
10
9.04911
20
8.34096
10
9.08425
20
8.37256
10
9.11618
20
8.40733
10
9.14466
20
8.44502
10
9.16945
20
8.48539
10
9.19028
20
8.52818
10
9.20692
20
8.57316
10
9.21911
20
8.62008
10
9.22661
20
8.66869
10
9.22917
20
8.71875
10
9.22661
20
8.76881
10
9.21911
20
8.81742
10
9.20692
20
8.86434
10
9.19028
20
8.90932
10
9.16945
20
8.95211
10
9.14466
20
8.99248
10
9.11618
20
9.03017
10
9.08425
20
9.06494
10
9.04911
20
9.09654
10
9.01102
20
9.12472
10
8.97022
20
9.14924
10
8.92697
20
9.16986
10
8.88151
20
9.18632
10
8.83409
20
9.19839
10
8.78496
20
9.20581
10
8.73438
20
9.20833
0
LWPOLYLINE
8
INSIDE_Holes_6_apart
90
65
70
1
10
13.22396
20
9.20833
10
13.17337
20
9.20581
10
13.12424
20
9.19839
10
13.07682
20
9.18632
10
13.03136
20
9.16986
10
12.98811
20
9.14924
10
12.94732
20
9.12472
10
12.90922
20
9.09654
10
12.87409
20
9.06494
10
12.84215
20
9.03017
10
12.81367
20
8.99248
10
12.78889
20
8.95211
10
12.76805
20
8.90932
10
12.75141
20
8.86434
10
12.73922
20
8.81742
10
12.73172
20
8.76881
10
12.72917
20
8.71875
10
12.73172
20
8.66869
10
12.73922
20
8.62008
10
12.75141
20
8.57316
10
12.76805
20
8.52818
10
12.78889
20
8.48539
10
12.81367
20
8.44502
10
12.84215
20
8.40733
10
12.87409
20
8.37256
10
12.90922
20
8.34096
10
12.94732
20
8.31278
10
12.98811
20
8.28826
10
13.03136
20
8.26764
10
13.07682
20
8.25118
10
13.12424
20
8.23911
10
13.17337
20
8.23169
10
13.22396
20
8.22917
10
13.27455
20
8.23169
10
13.32368
20
8.23911
10
13.37109
20
8.25118
10
13.41655
20
8.26764
10
13.45981
20
8.28826
10
13.50060
20
8.31278
10
13.53869
20
8.34096
10
13.57383
20
8.37256
10
13.60576
20
8.40733
10
13.63425
20
8.44502
10
13.65903
20
8.48539
10
13.67987
20
8.52818
10
13.69651
20
8.57316
10
13.70870
20
8.62008
10
13.71620
20
8.66869
10
13.71875
20
8.71875
10
13.71620
20
8.76881
10
13.70870
20
8.81742
10
13.69651
20
8.86434
10
13.67987
20
8.90932
10
13.65903
20
8.95211
10
13.63425
20
8.99248
10
13.60576
20
9.03017
10
13.57383
20
9.06494
10
13.53869
20
9.09654
10
13.50060
20
9.12472
10
13.45981
20
9.14924
10
13.41655
20
9.16986
10
13.37109
20
9.18632
10
13.32368
20
9.19839
10
13.27455
20
9.20581
10
13.22396
20
9.20833
0
LWPOLYLINE
8
INSIDE_Holes_6_apart
90
65
70
1
10
17.71354
20
9.20833
10
17.66295
20
9.20581
10
17.61382
20
9.19839
10
17.56641
20
9.18632
10
17.52095
20
9.16986
10
17.47769
20
9.14924
10
17.43690
20
9.12472
10
17.39881
20
9.09654
10
17.36367
20
9.06494
10
17.33174
20
9.03017
10
17.30325
20
8.99248
10
17.27847
20
8.95211
10
17.25763
20
8.90932
10
17.24099
20
8.86434
10
17.22880
20
8.81742
10
17.22130
20
8.76881
10
17.21875
20
8.71875
10
17.22130
20
8.66869
10
17.22880
20
8.62008
10
17.24099
20
8.57316
10
17.25763
20
8.52818
10
17.27847
20
8.48539
10
17.30325
20
8.44502
10
17.33174
20
8.40733
10
17.36367
20
8.37256
10
17.39881
20
8.34096
10
17.43690
20
8.31278
10
17.47769
20
8.28826
10
17.52095
20
8.26764
10
17.56641
20
8.25118
10
17.61382
20
8.23911
10
17.66295
20
8.23169
10
17.71354
20
8.22917
10
17.76413
20
8.23169
10
17.81326
20
8.23911
10
17.86068
20
8.25118
10
17.90614
20
8.26764
10
17.94939
20
8.28826
10
17.99018
20
8.31278
10
18.02828
20
8.34096
10
18.06341
20
8.37256
10
18.09535
20
8.40733
10
18.12383
20
8.44502
10
18.14861
20
8.48539
10
18.16945
20
8.52818
10
18.18609
20
8.57316
10
18.19828
20
8.62008
10
18.20578
20
8.66869
10
18.20833
20
8.71875
10
18.20578
20
8.76881
10
18.19828
20
8.81742
10
18.18609
20
8.86434
10
18.16945
20
8.90932
10
18.14861
20
8.95211
10
18.12383
20
8.99248
10
18.09535
20
9.03017
10
18.06341
20
9.06494
10
18.02828
20
9.09654
10
17.99018
20
9.12472
10
17.94939
20
9.14924
10
17.90614
20
9.16986
10
17.86068
20
9.18632
10
17.81326
20
9.19839
10
17.76413
20
9.20581
10
17.71354
20
9.20833
0
LWPOLYLINE
8
INSIDE_Holes_6_apart
90
65
70
1
10
22.20313
20
9.20833
10
22.15254
20
9.20581
10
22.10341
20
9.19839
10
22.05599
20
9.18632
10
22.01053
20
9.16986
10
21.96728
20
9.14924
10
21.92648
20
9.12472
10
21.88839
20
9.09654
10
21.85325
20
9.06494
10
21.82132
20
9.03017
10
21.79284
20
8.99248
10
21.76805
20
8.95211
10
21.74722
20
8.90932
10
21.73058
20
8.86434
10
21.71839
20
8.81742
10
21.71089
20
8.76881
10
21.70833
20
8.71875
10
21.71089
20
8.66869
10
21.71839
20
8.62008
10
21.73058
20
8.57316
10
21.74722
20
8.52818
10
21.76805
20
8.48539
10
21.79284
20
8.44502
10
21.82132
20
8.40733
10
21.85325
20
8.37256
10
21.88839
20
8.34096
10
21.92648
20
8.31278
10
21.96728
20
8.28826
10
22.01053
20
8.26764
10
22.05599
20
8.25118
10
22.10341
20
8.23911
10
22.15254
20
8.23169
10
22.20313
20
8.22917
10
22.25371
20
8.23169
10
22.30284
20
8.23911
10
22.35026
20
8.25118
10
22.39572
20
8.26764
10
22.43897
20
8.28826
10
22.47977
20
8.31278
10
22.51786
20
8.34096
10
22.55300
20
8.37256
10
22.58493
20
8.40733
10
22.61341
20
8.44502
10
22.63820
20
8.48539
10
22.65903
20
8.52818
10
22.67567
20
8.57316
10
22.68786
20
8.62008
10
22.69536
20
8.66869
10
22.69792
20
8.71875
10
22.69536
20
8.76881
10
22.68786
20
8.81742
10
22.67567
20
8.86434
10
22.65903
20
8.90932
10
22.63820
20
8.95211
10
22.61341
20
8.99248
10
22.58493
20
9.03017
10
22.55300
20
9.06494
10
22.51786
20
9.09654
10
22.47977
20
9.12472
10
22.43897
20
9.14924
10
22.39572
20
9.16986
10
22.35026
20
9.18632
10
22.30284
20
9.19839
10
22.25371
20
9.20581
10
22.20313
20
9.20833
0
LWPOLYLINE
8
INSIDE_Holes_6_apart
90
65
70
1
10
26.69271
20
9.20833
10
26.64212
20
9.20581
10
26.59299
20
9.19839
10
26.54557
20
9.18632
10
26.50011
20
9.16986
10
26.45686
20
9.14924
10
26.41607
20
9.12472
10
26.37797
20
9.09654
10
26.34284
20
9.06494
10
26.31090
20
9.03017
10
26.28242
20
8.99248
10
26.25764
20
8.95211
10
26.23680
20
8.90932
10
26.22016
20
8.86434
10
26.20797
20
8.81742
10
26.20047
20
8.76881
10
26.19792
20
8.71875
10
26.20047
20
8.66869
10
26.20797
20
8.62008
10
26.22016
20
8.57316
10
26.23680
20
8.52818
10
26.25764
20
8.48539
10
26.28242
20
8.44502
10
26.31090
20
8.40733
10
26.34284
20
8.37256
10
26.37797
20
8.34096
10
26.41607
20
8.31278
10
26.45686
20
8.28826
10
26.50011
20
8.26764
10
26.54557
20
8.25118
10
26.59299
20
8.23911
10
26.64212
20
8.23169
10
26.69271
20
8.22917
10
26.74330
20
8.23169
10
26.79243
20
8.23911
10
26.83984
20
8.25118
10
26.88530
20
8.26764
10
26.92856
20
8.28826
10
26.96935
20
8.31278
10
27.00744
20
8.34096
10
27.04258
20
8.37256
10
27.07451
20
8.40733
10
27.10300
20
8.44502
10
27.12778
20
8.48539
10
27.14862
20
8.52818
10
27.16526
20
8.57316
10
27.17745
20
8.62008
10
27.18495
20
8.66869
10
27.18750
20
8.71875
10
27.18495
20
8.76881
10
27.17745
20
8.81742
10
27.16526
20
8.86434
10
27.14862
20
8.90932
10
27.12778
20
8.95211
10
27.10300
20
8.99248
10
27.07451
20
9.03017
10
27.04258
20
9.06494
10
27.00744
20
9.09654
10
26.96935
20
9.12472
10
26.92856
20
9.14924
10
26.88530
20
9.16986
10
26.83984
20
9.18632
10
26.79243
20
9.19839
10
26.74330
20
9.20581
10
26.69271
20
9.20833
0
LWPOLYLINE
8
INSIDE_Holes_6_apart
90
65
70
1
10
31.18229
20
9.20833
10
31.13170
20
9.20581
10
31.08257
20
9.19839
10
31.03516
20
9.18632
10
30.98970
20
9.16986
10
30.94644
20
9.14924
10
30.90565
20
9.12472
10
30.86756
20
9.09654
10
30.83242
20
9.06494
10
30.80049
20
9.03017
10
30.77200
20
8.99248
10
30.74722
20
8.95211
10
30.72638
20
8.90932
10
30.70974
20
8.86434
10
30.69755
20
8.81742
10
30.69005
20
8.76881
10
30.68750
20
8.71875
10
30.69005
20
8.66869
10
30.69755
20
8.62008
10
30.70974
20
8.57316
10
30.72638
20
8.52818
10
30.74722
20
8.48539
10
30.77200
20
8.44502
10
30.80049
20
8.40733
10
30.83242
20
8.37256
10
30.86756
20
8.34096
10
30.90565
20
8.31278
10
30.94644
20
8.28826
10
30.98970
20
8.26764
10
31.03516
20
8.25118
10
31.08257
20
8.23911
10
31.13170
20
8.23169
10
31.18229
20
8.22917
10
31.23288
20
8.23169
10
31.28201
20
8.23911
10
31.32943
20
8.25118
10
31.37489
20
8.26764
10
31.41814
20
8.28826
10
31.45893
20
8.31278
10
31.49703
20
8.34096
10
31.53216
20
8.37256
10
31.56410
20
8.40733
10
31.59258
20
8.44502
10
31.61736
20
8.48539
10
31.63820
20
8.52818
10
31.65484
20
8.57316
10
31.66703
20
8.62008
10
31.67453
20
8.66869
10
31.67708
20
8.71875
10
31.67453
20
8.76881
10
31.66703
20
8.81742
10
31.65484
20
8.86434
10
31.63820
20
8.90932
10
31.61736
20
8.95211
10
31.59258
20
8.99248
10
31.56410
20
9.03017
10
31.53216
20
9.06494
10
31.49703
20
9.09654
10
31.45893
20
9.12472
10
31.41814
20
9.14924
10
31.37489
20
9.16986
10
31.32943
20
9.18632
10
31.28201
20
9.19839
10
31.23288
20
9.20581
10
31.18229
20
9.20833
0
LWPOLYLINE
8
INSIDE_Holes_6_apart
90
65
70
1
10
4.24479
20
13.68750
10
4.19420
20
13.68497
10
4.14507
20
13.67755
10
4.09766
20
13.66549
10
4.05220
20
13.64903
10
4.00894
20
13.62841
10
3.96815
20
13.60389
10
3.93006
20
13.57570
10
3.89492
20
13.54410
10
3.86299
20
13.50934
10
3.83450
20
13.47165
10
3.80972
20
13.43128
10
3.78888
20
13.38848
10
3.77224
20
13.34350
10
3.76005
20
13.29658
10
3.75255
20
13.24797
10
3.75000
20
13.19792
10
3.75255
20
13.14786
10
3.76005
20
13.09925
10
3.77224
20
13.05233
10
3.78888
20
13.00735
10
3.80972
20
12.96455
10
3.83450
20
12.92419
10
3.86299
20
12.88650
10
3.89492
20
12.85173
10
3.93006
20
12.82013
10
3.96815
20
12.79195
10
4.00894
20
12.76742
10
4.05220
20
12.74681
10
4.09766
20
12.73034
10
4.14507
20
12.71828
10
4.19420
20
12.71086
10
4.24479
20
12.70833
10
4.29538
20
12.71086
10
4.34451
20
12.71828
10
4.39193
20
12.73034
10
4.43739
20
12.74681
10
4.48064
20
12.76742
10
4.52143
20
12.79195
10
4.55953
20
12.82013
10
4.59466
20
12.85173
10
4.62660
20
12.88650
10
4.65508
20
12.92419
10
4.67986
20
12.96455
10
4.70070
20
13.00735
10
4.71734
20
13.05233
10
4.72953
20
13.09925
10
4.73703
20
13.14786
10
4.73958
20
13.19792
10
4.73703
20
13.24797
10
4.72953
20
13.29658
10
4.71734
20
13.34350
10
4.70070
20
13.38848
10
4.67986
20
13.43128
10
4.65508
20
13.47165
10
4.62660
20
13.50934
10
4.59466
20
13.54410
10
4.55953
20
13.57570
10
4.52143
20
13.60389
10
4.48064
20
13.62841
10
4.43739
20
13.64903
10
4.39193
20
13.66549
10
4.34451
20
13.67755
10
4.29538
20
13.68497
10
4.24479
20
13.68750
0
LWPOLYLINE
8
INSIDE_Holes_6_apart
90
65
70
1
10
8.73438
20
13.68750
10
8.68379
20
13.68497
10
8.63466
20
13.67755
10
8.58724
20
13.66549
10
8.54178
20
13.64903
10
8.49853
20
13.62841
10
8.45773
20
13.60389
10
8.41964
20
13.57570
10
8.38450
20
13.54410
10
8.35257
20
13.50934
10
8.32409
20
13.47165
10
8.29930
20
13.43128
10
8.27847
20
13.38848
10
8.26183
20
13.34350
10
8.24964
20
13.29658
10
8.24214
20
13.24797
10
8.23958
20
13.19792
10
8.24214
20
13.14786
10
8.24964
20
13.09925
10
8.26183
20
13.05233
10
8.27847
20
13.00735
10
8.29930
20
12.96455
10
8.32409
20
12.92419
10
8.35257
20
12.88650
10
8.38450
20
12.85173
10
8.41964
20
12.82013
10
8.45773
20
12.79195
10
8.49853
20
12.76742
10
8.54178
20
12.74681
10
8.58724
20
12.73034
10
8.63466
20
12.71828
10
8.68379
20
12.71086
10
8.73438
20
12.70833
10
8.78496
20
12.71086
10
8.83409
20
12.71828
10
8.88151
20
12.73034
10
8.92697
20
12.74681
10
8.97022
20
12.76742
10
9.01102
20
12.79195
10
9.04911
20
12.82013
10
9.08425
20
12.85173
10
9.11618
20
12.88650
10
9.14466
20
12.92419
10
9.16945
20
12.96455
10
9.19028
20
13.00735
10
9.20692
20
13.05233
10
9.21911
20
13.09925
10
9.22661
20
13.14786
10
9.22917
20
13.19792
10
9.22661
20
13.24797
10
9.21911
20
13.29658
10
9.20692
20
13.34350
10
9.19028
20
13.38848
10
9.16945
20
13.43128
10
9.14466
20
13.47165
10
9.11618
20
13.50934
10
9.08425
20
13.54410
10
9.04911
20
13.57570
10
9.01102
20
13.60389
10
8.97022
20
13.62841
10
8.92697
20
13.64903
10
8.88151
20
13.66549
10
8.83409
20
13.67755
10
8.78496
20
13.68497
10
8.73438
20
13.68750
0
LWPOLYLINE
8
INSIDE_Holes_6_apart
90
65
70
1
10
13.22396
20
13.68750
10
13.17337
20
13.68497
10
13.12424
20
13.67755
10
13.07682
20
13.66549
10
13.03136
20
13.64903
10
12.98811
20
13.62841
10
12.94732
20
13.60389
10
12.90922
20
13.57570
10
12.87409
20
13.54410
10
12.84215
20
13.50934
10
12.81367
20
13.47165
10
12.78889
20
13.43128
10
12.76805
20
13.38848
10
12.75141
20
13.34350
10
12.73922
20
13.29658
10
12.73172
20
13.24797
10
12.72917
20
13.19792
10
12.73172
20
13.14786
10
12.73922
20
13.09925
10
12.75141
20
13.05233
10
12.76805
20
13.00735
10
12.78889
20
12.96455
10
12.81367
20
12.92419
10
12.84215
20
12.88650
10
12.87409
20
12.85173
10
12.90922
20
12.82013
10
12.94732
20
12.79195
10
12.98811
20
12.76742
10
13.03136
20
12.74681
10
13.07682
20
12.73034
10
13.12424
20
12.71828
10
13.17337
20
12.71086
10
13.22396
20
12.70833
10
13.27455
20
12.71086
10
13.32368
20
12.71828
10
13.37109
20
12.73034
10
13.41655
20
12.74681
10
13.45981
20
12.76742
10
13.50060
20
12.79195
10
13.53869
20
12.82013
10
13.57383
20
12.85173
10
13.60576
20
12.88650
10
13.63425
20
12.92419
10
13.65903
20
12.96455
10
13.67987
20
13.00735
10
13.69651
20
13.05233
10
13.70870
20
13.09925
10
13.71620
20
13.14786
10
13.71875
20
13.19792
10
13.71620
20
13.24797
10
13.70870
20
13.29658
10
13.69651
20
13.34350
10
13.67987
20
13.38848
10
13.65903
20
13.43128
10
13.63425
20
13.47165
10
13.60576
20
13.50934
10
13.57383
20
13.54410
10
13.53869
20
13.57570
10
13.50060
20
13.60389
10
13.45981
20
13.62841
10
13.41655
20
13.64903
10
13.37109
20
13.66549
10
13.32368
20
13.67755
10
13.27455
20
13.68497
10
13.22396
20
13.68750
0
LWPOLYLINE
8
INSIDE_Holes_6_apart
90
65
70
1
10
17.71354
20
13.68750
10
17.66295
20
13.68497
10
17.61382
20
13.67755
10
17.56641
20
13.66549
10
17.52095
20
13.64903
10
17.47769
20
13.62841
10
17.43690
20
13.60389
10
17.39881
20
13.57570
10
17.36367
20
13.54410
10
17.33174
20
13.50934
10
17.30325
20
13.47165
10
17.27847
20
13.43128
10
17.25763
20
13.38848
10
17.24099
20
13.34350
10
17.22880
20
13.29658
10
17.22130
20
13.24797
10
17.21875
20
13.19792
10
17.22130
20
13.14786
10
17.22880
20
13.09925
10
17.24099
20
13.05233
10
17.25763
20
13.00735
10
17.27847
20
12.96455
10
17.30325
20
12.92419
10
17.33174
20
12.88650
10
17.36367
20
12.85173
10
17.39881
20
12.82013
10
17.43690
20
12.79195
10
17.47769
20
12.76742
10
17.52095
20
12.74681
10
17.56641
20
12.73034
10
17.61382
20
12.71828
10
17.66295
20
12.71086
10
17.71354
20
12.70833
10
17.76413
20
12.71086
10
17.81326
20
12.71828
10
17.86068
20
12.73034
10
17.90614
20
12.74681
10
17.94939
20
12.76742
10
17.99018
20
12.79195
10
18.02828
20
12.82013
10
18.06341
20
12.85173
10
18.09535
20
12.88650
10
18.12383
20
12.92419
10
18.14861
20
12.96455
10
18.16945
20
13.00735
10
18.18609
20
13.05233
10
18.19828
20
13.09925
10
18.20578
20
13.14786
10
18.20833
20
13.19792
10
18.20578
20
13.24797
10
18.19828
20
13.29658
10
18.18609
20
13.34350
10
18.16945
20
13.38848
10
18.14861
20
13.43128
10
18.12383
20
13.47165
10
18.09535
20
13.50934
10
18.06341
20
13.54410
10
18.02828
20
13.57570
10
17.99018
20
13.60389
10
17.94939
20
13.62841
10
17.90614
20
13.64903
10
17.86068
20
13.66549
10
17.81326
20
13.67755
10
17.76413
20
13.68497
10
17.71354
20
13.68750
0
LWPOLYLINE
8
INSIDE_Holes_6_apart
90
65
70
1
10
22.20313
20
13.68750
10
22.15254
20
13.68497
10
22.10341
20
13.67755
10
22.05599
20
13.66549
10
22.01053
20
13.64903
10
21.96728
20
13.62841
10
21.92648
20
13.60389
10
21.88839
20
13.57570
10
21.85325
20
13.54410
10
21.82132
20
13.50934
10
21.79284
20
13.47165
10
21.76805
20
13.43128
10
21.74722
20
13.38848
10
21.73058
20
13.34350
10
21.71839
20
13.29658
10
21.71089
20
13.24797
10
21.70833
20
13.19792
10
21.71089
20
13.14786
10
21.71839
20
13.09925
10
21.73058
20
13.05233
10
21.74722
20
13.00735
10
21.76805
20
12.96455
10
21.79284
20
12.92419
10
21.82132
20
12.88650
10
21.85325
20
12.85173
10
21.88839
20
12.82013
10
21.92648
20
12.79195
10
21.96728
20
12.76742
10
22.01053
20
12.74681
10
22.05599
20
12.73034
10
22.10341
20
12.71828
10
22.15254
20
12.71086
10
22.20313
20
12.70833
10
22.25371
20
12.71086
10
22.30284
20
12.71828
10
22.35026
20
12.73034
10
22.39572
20
12.74681
10
22.43897
20
12.76742
10
22.47977
20
12.79195
10
22.51786
20
12.82013
10
22.55300
20
12.85173
10
22.58493
20
12.88650
10
22.61341
20
12.92419
10
22.63820
20
12.96455
10
22.65903
20
13.00735
10
22.67567
20
13.05233
10
22.68786
20
13.09925
10
22.69536
20
13.14786
10
22.69792
20
13.19792
10
22.69536
20
13.24797
10
22.68786
20
13.29658
10
22.67567
20
13.34350
10
22.65903
20
13.38848
10
22.63820
20
13.43128
10
22.61341
20
13.47165
10
22.58493
20
13.50934
10
22.55300
20
13.54410
10
22.51786
20
13.57570
10
22.47977
20
13.60389
10
22.43897
20
13.62841
10
22.39572
20
13.64903
10
22.35026
20
13.66549
10
22.30284
20
13.67755
10
22.25371
20
13.68497
10
22.20313
20
13.68750
0
LWPOLYLINE
8
INSIDE_Holes_6_apart
90
65
70
1
10
26.69271
20
13.68750
10
26.64212
20
13.68497
10
26.59299
20
13.67755
10
26.54557
20
13.66549
10
26.50011
20
13.64903
10
26.45686
20
13.62841
10
26.41607
20
13.60389
10
26.37797
20
13.57570
10
26.34284
20
13.54410
10
26.31090
20
13.50934
10
26.28242
20
13.47165
10
26.25764
20
13.43128
10
26.23680
20
13.38848
10
26.22016
20
13.34350
10
26.20797
20
13.29658
10
26.20047
20
13.24797
10
26.19792
20
13.19792
10
26.20047
20
13.14786
10
26.20797
20
13.09925
10
26.22016
20
13.05233
10
26.23680
20
13.00735
10
26.25764
20
12.96455
10
26.28242
20
12.92419
10
26.31090
20
12.88650
10
26.34284
20
12.85173
10
26.37797
20
12.82013
10
26.41607
20
12.79195
10
26.45686
20
12.76742
10
26.50011
20
12.74681
10
26.54557
20
12.73034
10
26.59299
20
12.71828
10
26.64212
20
12.71086
10
26.69271
20
12.70833
10
26.74330
20
12.71086
10
26.79243
20
12.71828
10
26.83984
20
12.73034
10
26.88530
20
12.74681
10
26.92856
20
12.76742
10
26.96935
20
12.79195
10
27.00744
20
12.82013
10
27.04258
20
12.85173
10
27.07451
20
12.88650
10
27.10300
20
12.92419
10
27.12778
20
12.96455
10
27.14862
20
13.00735
10
27.16526
20
13.05233
10
27.17745
20
13.09925
10
27.18495
20
13.14786
10
27.18750
20
13.19792
10
27.18495
20
13.24797
10
27.17745
20
13.29658
10
27.16526
20
13.34350
10
27.14862
20
13.38848
10
27.12778
20
13.43128
10
27.10300
20
13.47165
10
27.07451
20
13.50934
10
27.04258
20
13.54410
10
27.00744
20
13.57570
10
26.96935
20
13.60389
10
26.92856
20
13.62841
10
26.88530
20
13.64903
10
26.83984
20
13.66549
10
26.79243
20
13.67755
10
26.74330
20
13.68497
10
26.69271
20
13.68750
0
LWPOLYLINE
8
INSIDE_Holes_6_apart
90
65
70
1
10
31.18229
20
13.68750
10
31.13170
20
13.68497
10
31.08257
20
13.67755
10
31.03516
20
13.66549
10
30.98970
20
13.64903
10
30.94644
20
13.62841
10
30.90565
20
13.60389
10
30.86756
20
13.57570
10
30.83242
20
13.54410
10
30.80049
20
13.50934
10
30.77200
20
13.47165
10
30.74722
20
13.43128
10
30.72638
20
13.38848
10
30.70974
20
13.34350
10
30.69755
20
13.29658
10
30.69005
20
13.24797
10
30.68750
20
13.19792
10
30.69005
20
13.14786
10
30.69755
20
13.09925
10
30.70974
20
13.05233
10
30.72638
20
13.00735
10
30.74722
20
12.96455
10
30.77200
20
12.92419
10
30.80049
20
12.88650
10
30.83242
20
12.85173
10
30.86756
20
12.82013
10
30.90565
20
12.79195
10
30.94644
20
12.76742
10
30.98970
20
12.74681
10
31.03516
20
12.73034
10
31.08257
20
12.71828
10
31.13170
20
12.71086
10
31.18229
20
12.70833
10
31.23288
20
12.71086
10
31.28201
20
12.71828
10
31.32943
20
12.73034
10
31.37489
20
12.74681
10
31.41814
20
12.76742
10
31.45893
20
12.79195
10
31.49703
20
12.82013
10
31.53216
20
12.85173
10
31.56410
20
12.88650
10
31.59258
20
12.92419
10
31.61736
20
12.96455
10
31.63820
20
13.00735
10
31.65484
20
13.05233
10
31.66703
20
13.09925
10
31.67453
20
13.14786
10
31.67708
20
13.19792
10
31.67453
20
13.24797
10
31.66703
20
13.29658
10
31.65484
20
13.34350
10
31.63820
20
13.38848
10
31.61736
20
13.43128
10
31.59258
20
13.47165
10
31.56410
20
13.50934
10
31.53216
20
13.54410
10
31.49703
20
13.57570
10
31.45893
20
13.60389
10
31.41814
20
13.62841
10
31.37489
20
13.64903
10
31.32943
20
13.66549
10
31.28201
20
13.67755
10
31.23288
20
13.68497
10
31.18229
20
13.68750
0
LWPOLYLINE
8
INSIDE_Holes_6_apart
90
65
70
1
10
4.24479
20
18.16667
10
4.19420
20
18.16414
10
4.14507
20
18.15672
10
4.09766
20
18.14466
10
4.05220
20
18.12819
10
4.00894
20
18.10758
10
3.96815
20
18.08305
10
3.93006
20
18.05487
10
3.89492
20
18.02327
10
3.86299
20
17.98850
10
3.83450
20
17.95081
10
3.80972
20
17.91045
10
3.78888
20
17.86765
10
3.77224
20
17.82267
10
3.76005
20
17.77575
10
3.75255
20
17.72714
10
3.75000
20
17.67708
10
3.75255
20
17.62703
10
3.76005
20
17.57842
10
3.77224
20
17.53150
10
3.78888
20
17.48652
10
3.80972
20
17.44372
10
3.83450
20
17.40335
10
3.86299
20
17.36566
10
3.89492
20
17.33090
10
3.93006
20
17.29930
10
3.96815
20
17.27111
10
4.00894
20
17.24659
10
4.05220
20
17.22597
10
4.09766
20
17.20951
10
4.14507
20
17.19745
10
4.19420
20
17.19003
10
4.24479
20
17.18750
10
4.29538
20
17.19003
10
4.34451
20
17.19745
10
4.39193
20
17.20951
10
4.43739
20
17.22597
10
4.48064
20
17.24659
10
4.52143
20
17.27111
10
4.55953
20
17.29930
10
4.59466
20
17.33090
10
4.62660
20
17.36566
10
4.65508
20
17.40335
10
4.67986
20
17.44372
10
4.70070
20
17.48652
10
4.71734
20
17.53150
10
4.72953
20
17.57842
10
4.73703
20
17.62703
10
4.73958
20
17.67708
10
4.73703
20
17.72714
10
4.72953
20
17.77575
10
4.71734
20
17.82267
10
4.70070
20
17.86765
10
4.67986
20
17.91045
10
4.65508
20
17.95081
10
4.62660
20
17.98850
10
4.59466
20
18.02327
10
4.55953
20
18.05487
10
4.52143
20
18.08305
10
4.48064
20
18.10758
10
4.43739
20
18.12819
10
4.39193
20
18.14466
10
4.34451
20
18.15672
10
4.29538
20
18.16414
10
4.24479
20
18.16667
0
LWPOLYLINE
8
INSIDE_Holes_6_apart
90
65
70
1
10
8.73438
20
18.16667
10
8.68379
20
18.16414
10
8.63466
20
18.15672
10
8.58724
20
18.14466
10
8.54178
20
18.12819
10
8.49853
20
18.10758
10
8.45773
20
18.08305
10
8.41964
20
18.05487
10
8.38450
20
18.02327
10
8.35257
20
17.98850
10
8.32409
20
17.95081
10
8.29930
20
17.91045
10
8.27847
20
17.86765
10
8.26183
20
17.82267
10
8.24964
20
17.77575
10
8.24214
20
17.72714
10
8.23958
20
17.67708
10
8.24214
20
17.62703
10
8.24964
20
17.57842
10
8.26183
20
17.53150
10
8.27847
20
17.48652
10
8.29930
20
17.44372
10
8.32409
20
17.40335
10
8.35257
20
17.36566
10
8.38450
20
17.33090
10
8.41964
20
17.29930
10
8.45773
20
17.27111
10
8.49853
20
17.24659
10
8.54178
20
17.22597
10
8.58724
20
17.20951
10
8.63466
20
17.19745
10
8.68379
20
17.19003
10
8.73438
20
17.18750
10
8.78496
20
17.19003
10
8.83409
20
17.19745
10
8.88151
20
17.20951
10
8.92697
20
17.22597
10
8.97022
20
17.24659
10
9.01102
20
17.27111
10
9.04911
20
17.29930
10
9.08425
20
17.33090
10
9.11618
20
17.36566
10
9.14466
20
17.40335
10
9.16945
20
17.44372
10
9.19028
20
17.48652
10
9.20692
20
17.53150
10
9.21911
20
17.57842
10
9.22661
20
17.62703
10
9.22917
20
17.67708
10
9.22661
20
17.72714
10
9.21911
20
17.77575
10
9.20692
20
17.82267
10
9.19028
20
17.86765
10
9.16945
20
17.91045
10
9.14466
20
17.95081
10
9.11618
20
17.98850
10
9.08425
20
18.02327
10
9.04911
20
18.05487
10
9.01102
20
18.08305
10
8.97022
20
18.10758
10
8.92697
20
18.12819
10
8.88151
20
18.14466
10
8.83409
20
18.15672
10
8.78496
20
18.16414
10
8.73438
20
18.16667
0
LWPOLYLINE
8
INSIDE_Holes_6_apart
90
65
70
1
10
13.22396
20
18.16667
10
13.17337
20
18.16414
10
13.12424
20
18.15672
10
13.07682
20
18.14466
10
13.03136
20
18.12819
10
12.98811
20
18.10758
10
12.94732
20
18.08305
10
12.90922
20
18.05487
10
12.87409
20
18.02327
10
12.84215
20
17.98850
10
12.81367
20
17.95081
10
12.78889
20
17.91045
10
12.76805
20
17.86765
10
12.75141
20
17.82267
10
12.73922
20
17.77575
10
12.73172
20
17.72714
10
12.72917
20
17.67708
10
12.73172
20
17.62703
10
12.73922
20
17.57842
10
12.75141
20
17.53150
10
12.76805
20
17.48652
10
12.78889
20
17.44372
10
12.81367
20
17.40335
10
12.84215
20
17.36566
10
12.87409
20
17.33090
10
12.90922
20
17.29930
10
12.94732
20
17.27111
10
12.98811
20
17.24659
10
13.03136
20
17.22597
10
13.07682
20
17.20951
10
13.12424
20
17.19745
10
13.17337
20
17.19003
10
13.22396
20
17.18750
10
13.27455
20
17.19003
10
13.32368
20
17.19745
10
13.37109
20
17.20951
10
13.41655
20
17.22597
10
13.45981
20
17.24659
10
13.50060
20
17.27111
10
13.53869
20
17.29930
10
13.57383
20
17.33090
10
13.60576
20
17.36566
10
13.63425
20
17.40335
10
13.65903
20
17.44372
10
13.67987
20
17.48652
10
13.69651
20
17.53150
10
13.70870
20
17.57842
10
13.71620
20
17.62703
10
13.71875
20
17.67708
10
13.71620
20
17.72714
10
13.70870
20
17.77575
10
13.69651
20
17.82267
10
13.67987
20
17.86765
10
13.65903
20
17.91045
10
13.63425
20
17.95081
10
13.60576
20
17.98850
10
13.57383
20
18.02327
10
13.53869
20
18.05487
10
13.50060
20
18.08305
10
13.45981
20
18.10758
10
13.41655
20
18.12819
10
13.37109
20
18.14466
10
13.32368
20
18.15672
10
13.27455
20
18.16414
10
13.22396
20
18.16667
0
LWPOLYLINE
8
INSIDE_Holes_6_apart
90
65
70
1
10
17.71354
20
18.16667
10
17.66295
20
18.16414
10
17.61382
20
18.15672
10
17.56641
20
18.14466
10
17.52095
20
18.12819
10
17.47769
20
18.10758
10
17.43690
20
18.08305
10
17.39881
20
18.05487
10
17.36367
20
18.02327
10
17.33174
20
17.98850
10
17.30325
20
17.95081
10
17.27847
20
17.91045
10
17.25763
20
17.86765
10
17.24099
20
17.82267
10
17.22880
20
17.77575
10
17.22130
20
17.72714
10
17.21875
20
17.67708
10
17.22130
20
17.62703
10
17.22880
20
17.57842
10
17.24099
20
17.53150
10
17.25763
20
17.48652
10
17.27847
20
17.44372
10
17.30325
20
17.40335
10
17.33174
20
17.36566
10
17.36367
20
17.33090
10
17.39881
20
17.29930
10
17.43690
20
17.27111
10
17.47769
20
17.24659
10
17.52095
20
17.22597
10
17.56641
20
17.20951
10
17.61382
20
17.19745
10
17.66295
20
17.19003
10
17.71354
20
17.18750
10
17.76413
20
17.19003
10
17.81326
20
17.19745
10
17.86068
20
17.20951
10
17.90614
20
17.22597
10
17.94939
20
17.24659
10
17.99018
20
17.27111
10
18.02828
20
17.29930
10
18.06341
20
17.33090
10
18.09535
20
17.36566
10
18.12383
20
17.40335
10
18.14861
20
17.44372
10
18.16945
20
17.48652
10
18.18609
20
17.53150
10
18.19828
20
17.57842
10
18.20578
20
17.62703
10
18.20833
20
17.67708
10
18.20578
20
17.72714
10
18.19828
20
17.77575
10
18.18609
20
17.82267
10
18.16945
20
17.86765
10
18.14861
20
17.91045
10
18.12383
20
17.95081
10
18.09535
20
17.98850
10
18.06341
20
18.02327
10
18.02828
20
18.05487
10
17.99018
20
18.08305
10
17.94939
20
18.10758
10
17.90614
20
18.12819
10
17.86068
20
18.14466
10
17.81326
20
18.15672
10
17.76413
20
18.16414
10
17.71354
20
18.16667
0
LWPOLYLINE
8
INSIDE_Holes_6_apart
90
65
70
1
10
22.20313
20
18.16667
10
22.15254
20
18.16414
10
22.10341
20
18.15672
10
22.05599
20
18.14466
10
22.01053
20
18.12819
10
21.96728
20
18.10758
10
21.92648
20
18.08305
10
21.88839
20
18.05487
10
21.85325
20
18.02327
10
21.82132
20
17.98850
10
21.79284
20
17.95081
10
21.76805
20
17.91045
10
21.74722
20
17.86765
10
21.73058
20
17.82267
10
21.71839
20
17.77575
10
21.71089
20
17.72714
10
21.70833
20
17.67708
10
21.71089
20
17.62703
10
21.71839
20
17.57842
10
21.73058
20
17.53150
10
21.74722
20
17.48652
10
21.76805
20
17.44372
10
21.79284
20
17.40335
10
21.82132
20
17.36566
10
21.85325
20
17.33090
10
21.88839
20
17.29930
10
21.92648
20
17.27111
10
21.96728
20
17.24659
10
22.01053
20
17.22597
10
22.05599
20
17.20951
10
22.10341
20
17.19745
10
22.15254
20
17.19003
10
22.20313
20
17.18750
10
22.25371
20
17.19003
10
22.30284
20
17.19745
10
22.35026
20
17.20951
10
22.39572
20
17.22597
10
22.43897
20
17.24659
10
22.47977
20
17.27111
10
22.51786
20
17.29930
10
22.55300
20
17.33090
10
22.58493
20
17.36566
10
22.61341
20
17.40335
10
22.63820
20
17.44372
10
22.65903
20
17.48652
10
22.67567
20
17.53150
10
22.68786
20
17.57842
10
22.69536
20
17.62703
10
22.69792
20
17.67708
10
22.69536
20
17.72714
10
22.68786
20
17.77575
10
22.67567
20
17.82267
10
22.65903
20
17.86765
10
22.63820
20
17.91045
10
22.61341
20
17.95081
10
22.58493
20
17.98850
10
22.55300
20
18.02327
10
22.51786
20
18.05487
10
22.47977
20
18.08305
10
22.43897
20
18.10758
10
22.39572
20
18.12819
10
22.35026
20
18.14466
10
22.30284
20
18.15672
10
22.25371
20
18.16414
10
22.20313
20
18.16667
0
LWPOLYLINE
8
INSIDE_Holes_6_apart
90
65
70
1
10
26.69271
20
18.16667
10
26.64212
20
18.16414
10
26.59299
20
18.15672
10
26.54557
20
18.14466
10
26.50011
20
18.12819
10
26.45686
20
18.10758
10
26.41607
20
18.08305
10
26.37797
20
18.05487
10
26.34284
20
18.02327
10
26.31090
20
17.98850
10
26.28242
20
17.95081
10
26.25764
20
17.91045
10
26.23680
20
17.86765
10
26.22016
20
17.82267
10
26.20797
20
17.77575
10
26.20047
20
17.72714
10
26.19792
20
17.67708
10
26.20047
20
17.62703
10
26.20797
20
17.57842
10
26.22016
20
17.53150
10
26.23680
20
17.48652
10
26.25764
20
17.44372
10
26.28242
20
17.40335
10
26.31090
20
17.36566
10
26.34284
20
17.33090
10
26.37797
20
17.29930
10
26.41607
20
17.27111
10
26.45686
20
17.24659
10
26.50011
20
17.22597
10
26.54557
20
17.20951
10
26.59299
20
17.19745
10
26.64212
20
17.19003
10
26.69271
20
17.18750
10
26.74330
20
17.19003
10
26.79243
20
17.19745
10
26.83984
20
17.20951
10
26.88530
20
17.22597
10
26.92856
20
17.24659
10
26.96935
20
17.27111
10
27.00744
20
17.29930
10
27.04258
20
17.33090
10
27.07451
20
17.36566
10
27.10300
20
17.40335
10
27.12778
20
17.44372
10
27.14862
20
17.48652
10
27.16526
20
17.53150
10
27.17745
20
17.57842
10
27.18495
20
17.62703
10
27.18750
20
17.67708
10
27.18495
20
17.72714
10
27.17745
20
17.77575
10
27.16526
20
17.82267
10
27.14862
20
17.86765
10
27.12778
20
17.91045
10
27.10300
20
17.95081
10
27.07451
20
17.98850
10
27.04258
20
18.02327
10
27.00744
20
18.05487
10
26.96935
20
18.08305
10
26.92856
20
18.10758
10
26.88530
20
18.12819
10
26.83984
20
18.14466
10
26.79243
20
18.15672
10
26.74330
20
18.16414
10
26.69271
20
18.16667
0
LWPOLYLINE
8
INSIDE_Holes_6_apart
90
65
70
1
10
31.18229
20
18.16667
10
31.13170
20
18.16414
10
31.08257
20
18.15672
10
31.03516
20
18.14466
10
30.98970
20
18.12819
10
30.94644
20
18.10758
10
30.90565
20
18.08305
10
30.86756
20
18.05487
10
30.83242
20
18.02327
10
30.80049
20
17.98850
10
30.77200
20
17.95081
10
30.74722
20
17.91045
10
30.72638
20
17.86765
10
30.70974
20
17.82267
10
30.69755
20
17.77575
10
30.69005
20
17.72714
10
30.68750
20
17.67708
10
30.69005
20
17.62703
10
30.69755
20
17.57842
10
30.70974
20
17.53150
10
30.72638
20
17.48652
10
30.74722
20
17.44372
10
30.77200
20
17.40335
10
30.80049
20
17.36566
10
30.83242
20
17.33090
10
30.86756
20
17.29930
10
30.90565
20
17.27111
10
30.94644
20
17.24659
10
30.98970
20
17.22597
10
31.03516
20
17.20951
10
31.08257
20
17.19745
10
31.13170
20
17.19003
10
31.18229
20
17.18750
10
31.23288
20
17.19003
10
31.28201
20
17.19745
10
31.32943
20
17.20951
10
31.37489
20
17.22597
10
31.41814
20
17.24659
10
31.45893
20
17.27111
10
31.49703
20
17.29930
10
31.53216
20
17.33090
10
31.56410
20
17.36566
10
31.59258
20
17.40335
10
31.61736
20
17.44372
10
31.63820
20
17.48652
10
31.65484
20
17.53150
10
31.66703
20
17.57842
10
31.67453
20
17.62703
10
31.67708
20
17.67708
10
31.67453
20
17.72714
10
31.66703
20
17.77575
10
31.65484
20
17.82267
10
31.63820
20
17.86765
10
31.61736
20
17.91045
10
31.59258
20
17.95081
10
31.56410
20
17.98850
10
31.53216
20
18.02327
10
31.49703
20
18.05487
10
31.45893
20
18.08305
10
31.41814
20
18.10758
10
31.37489
20
18.12819
10
31.32943
20
18.14466
10
31.28201
20
18.15672
10
31.23288
20
18.16414
10
31.18229
20
18.16667
0
LWPOLYLINE
8
INSIDE_Holes_6_apart
90
65
70
1
10
4.24479
20
22.64583
10
4.19420
20
22.64331
10
4.14507
20
22.63589
10
4.09766
20
22.62382
10
4.05220
20
22.60736
10
4.00894
20
22.58674
10
3.96815
20
22.56222
10
3.93006
20
22.53404
10
3.89492
20
22.50244
10
3.86299
20
22.46767
10
3.83450
20
22.42998
10
3.80972
20
22.38961
10
3.78888
20
22.34682
10
3.77224
20
22.30184
10
3.76005
20
22.25492
10
3.75255
20
22.20631
10
3.75000
20
22.15625
10
3.75255
20
22.10619
10
3.76005
20
22.05758
10
3.77224
20
22.01066
10
3.78888
20
21.96568
10
3.80972
20
21.92289
10
3.83450
20
21.88252
10
3.86299
20
21.84483
10
3.89492
20
21.81006
10
3.93006
20
21.77846
10
3.96815
20
21.75028
10
4.00894
20
21.72576
10
4.05220
20
21.70514
10
4.09766
20
21.68868
10
4.14507
20
21.67661
10
4.19420
20
21.66919
10
4.24479
20
21.66667
10
4.29538
20
21.66919
10
4.34451
20
21.67661
10
4.39193
20
21.68868
10
4.43739
20
21.70514
10
4.48064
20
21.72576
10
4.52143
20
21.75028
10
4.55953
20
21.77846
10
4.59466
20
21.81006
10
4.62660
20
21.84483
10
4.65508
20
21.88252
10
4.67986
20
21.92289
10
4.70070
20
21.96568
10
4.71734
20
22.01066
10
4.72953
20
22.05758
10
4.73703
20
22.10619
10
4.73958
20
22.15625
10
4.73703
20
22.20631
10
4.72953
20
22.25492
10
4.71734
20
22.30184
10
4.70070
20
22.34682
10
4.67986
20
22.38961
10
4.65508
20
22.42998
10
4.62660
20
22.46767
10
4.59466
20
22.50244
10
4.55953
20
22.53404
10
4.52143
20
22.56222
10
4.48064
20
22.58674
10
4.43739
20
22.60736
10
4.39193
20
22.62382
10
4.34451
20
22.63589
10
4.29538
20
22.64331
10
4.24479
20
22.64583
0
LWPOLYLINE
8
INSIDE_Holes_6_apart
90
65
70
1
10
8.73438
20
22.64583
10
8.68379
20
22.64331
10
8.63466
20
22.63589
10
8.58724
20
22.62382
10
8.54178
20
22.60736
10
8.49853
20
22.58674
10
8.45773
20
22.56222
10
8.41964
20
22.53404
10
8.38450
20
22.50244
10
8.35257
20
22.46767
10
8.32409
20
22.42998
10
8.29930
20
22.38961
10
8.27847
20
22.34682
10
8.26183
20
22.30184
10
8.24964
20
22.25492
10
8.24214
20
22.20631
10
8.23958
20
22.15625
10
8.24214
20
22.10619
10
8.24964
20
22.05758
10
8.26183
20
22.01066
10
8.27847
20
21.96568
10
8.29930
20
21.92289
10
8.32409
20
21.88252
10
8.35257
20
21.84483
10
8.38450
20
21.81006
10
8.41964
20
21.77846
10
8.45773
20
21.75028
10
8.49853
20
21.72576
10
8.54178
20
21.70514
10
8.58724
20
21.68868
10
8.63466
20
21.67661
10
8.68379
20
21.66919
10
8.73438
20
21.66667
10
8.78496
20
21.66919
10
8.83409
20
21.67661
10
8.88151
20
21.68868
10
8.92697
20
21.70514
10
8.97022
20
21.72576
10
9.01102
20
21.75028
10
9.04911
20
21.77846
10
9.08425
20
21.81006
10
9.11618
20
21.84483
10
9.14466
20
21.88252
10
9.16945
20
21.92289
10
9.19028
20
21.96568
10
9.20692
20
22.01066
10
9.21911
20
22.05758
10
9.22661
20
22.10619
10
9.22917
20
22.15625
10
9.22661
20
22.20631
10
9.21911
20
22.25492
10
9.20692
20
22.30184
10
9.19028
20
22.34682
10
9.16945
20
22.38961
10
9.14466
20
22.42998
10
9.11618
20
22.46767
10
9.08425
20
22.50244
10
9.04911
20
22.53404
10
9.01102
20
22.56222
10
8.97022
20
22.58674
10
8.92697
20
22.60736
10
8.88151
20
22.62382
10
8.83409
20
22.63589
10
8.78496
20
22.64331
10
8.73438
20
22.64583
0
LWPOLYLINE
8
INSIDE_Holes_6_apart
90
65
70
1
10
13.22396
20
22.64583
10
13.17337
20
22.64331
10
13.12424
20
22.63589
10
13.07682
20
22.62382
10
13.03136
20
22.60736
10
12.98811
20
22.58674
10
12.94732
20
22.56222
10
12.90922
20
22.53404
10
12.87409
20
22.50244
10
12.84215
20
22.46767
10
12.81367
20
22.42998
10
12.78889
20
22.38961
10
12.76805
20
22.34682
10
12.75141
20
22.30184
10
12.73922
20
22.25492
10
12.73172
20
22.20631
10
12.72917
20
22.15625
10
12.73172
20
22.10619
10
12.73922
20
22.05758
10
12.75141
20
22.01066
10
12.76805
20
21.96568
10
12.78889
20
21.92289
10
12.81367
20
21.88252
10
12.84215
20
21.84483
10
12.87409
20
21.81006
10
12.90922
20
21.77846
10
12.94732
20
21.75028
10
12.98811
20
21.72576
10
13.03136
20
21.70514
10
13.07682
20
21.68868
10
13.12424
20
21.67661
10
13.17337
20
21.66919
10
13.22396
20
21.66667
10
13.27455
20
21.66919
10
13.32368
20
21.67661
10
13.37109
20
21.68868
10
13.41655
20
21.70514
10
13.45981
20
21.72576
10
13.50060
20
21.75028
10
13.53869
20
21.77846
10
13.57383
20
21.81006
10
13.60576
20
21.84483
10
13.63425
20
21.88252
10
13.65903
20
21.92289
10
13.67987
20
21.96568
10
13.69651
20
22.01066
10
13.70870
20
22.05758
10
13.71620
20
22.10619
10
13.71875
20
22.15625
10
13.71620
20
22.20631
10
13.70870
20
22.25492
10
13.69651
20
22.30184
10
13.67987
20
22.34682
10
13.65903
20
22.38961
10
13.63425
20
22.42998
10
13.60576
20
22.46767
10
13.57383
20
22.50244
10
13.53869
20
22.53404
10
13.50060
20
22.56222
10
13.45981
20
22.58674
10
13.41655
20
22.60736
10
13.37109
20
22.62382
10
13.32368
20
22.63589
10
13.27455
20
22.64331
10
13.22396
20
22.64583
0
LWPOLYLINE
8
INSIDE_Holes_6_apart
90
65
70
1
10
17.71354
20
22.64583
10
17.66295
20
22.64331
10
17.61382
20
22.63589
10
17.56641
20
22.62382
10
17.52095
20
22.60736
10
17.47769
20
22.58674
10
17.43690
20
22.56222
10
17.39881
20
22.53404
10
17.36367
20
22.50244
10
17.33174
20
22.46767
10
17.30325
20
22.42998
10
17.27847
20
22.38961
10
17.25763
20
22.34682
10
17.24099
20
22.30184
10
17.22880
20
22.25492
10
17.22130
20
22.20631
10
17.21875
20
22.15625
10
17.22130
20
22.10619
10
17.22880
20
22.05758
10
17.24099
20
22.01066
10
17.25763
20
21.96568
10
17.27847
20
21.92289
10
17.30325
20
21.88252
10
17.33174
20
21.84483
10
17.36367
20
21.81006
10
17.39881
20
21.77846
10
17.43690
20
21.75028
10
17.47769
20
21.72576
10
17.52095
20
21.70514
10
17.56641
20
21.68868
10
17.61382
20
21.67661
10
17.66295
20
21.66919
10
17.71354
20
21.66667
10
17.76413
20
21.66919
10
17.81326
20
21.67661
10
17.86068
20
21.68868
10
17.90614
20
21.70514
10
17.94939
20
21.72576
10
17.99018
20
21.75028
10
18.02828
20
21.77846
10
18.06341
20
21.81006
10
18.09535
20
21.84483
10
18.12383
20
21.88252
10
18.14861
20
21.92289
10
18.16945
20
21.96568
10
18.18609
20
22.01066
10
18.19828
20
22.05758
10
18.20578
20
22.10619
10
18.20833
20
22.15625
10
18.20578
20
22.20631
10
18.19828
20
22.25492
10
18.18609
20
22.30184
10
18.16945
20
22.34682
10
18.14861
20
22.38961
10
18.12383
20
22.42998
10
18.09535
20
22.46767
10
18.06341
20
22.50244
10
18.02828
20
22.53404
10
17.99018
20
22.56222
10
17.94939
20
22.58674
10
17.90614
20
22.60736
10
17.86068
20
22.62382
10
17.81326
20
22.63589
10
17.76413
20
22.64331
10
17.71354
20
22.64583
0
LWPOLYLINE
8
INSIDE_Holes_6_apart
90
65
70
1
10
22.20313
20
22.64583
10
22.15254
20
22.64331
10
22.10341
20
22.63589
10
22.05599
20
22.62382
10
22.01053
20
22.60736
10
21.96728
20
22.58674
10
21.92648
20
22.56222
10
21.88839
20
22.53404
10
21.85325
20
22.50244
10
21.82132
20
22.46767
10
21.79284
20
22.42998
10
21.76805
20
22.38961
10
21.74722
20
22.34682
10
21.73058
20
22.30184
10
21.71839
20
22.25492
10
21.71089
20
22.20631
10
21.70833
20
22.15625
10
21.71089
20
22.10619
10
21.71839
20
22.05758
10
21.73058
20
22.01066
10
21.74722
20
21.96568
10
21.76805
20
21.92289
10
21.79284
20
21.88252
10
21.82132
20
21.84483
10
21.85325
20
21.81006
10
21.88839
20
21.77846
10
21.92648
20
21.75028
10
21.96728
20
21.72576
10
22.01053
20
21.70514
10
22.05599
20
21.68868
10
22.10341
20
21.67661
10
22.15254
20
21.66919
10
22.20313
20
21.66667
10
22.25371
20
21.66919
10
22.30284
20
21.67661
10
22.35026
20
21.68868
10
22.39572
20
21.70514
10
22.43897
20
21.72576
10
22.47977
20
21.75028
10
22.51786
20
21.77846
10
22.55300
20
21.81006
10
22.58493
20
21.84483
10
22.61341
20
21.88252
10
22.63820
20
21.92289
10
22.65903
20
21.96568
10
22.67567
20
22.01066
10
22.68786
20
22.05758
10
22.69536
20
22.10619
10
22.69792
20
22.15625
10
22.69536
20
22.20631
10
22.68786
20
22.25492
10
22.67567
20
22.30184
10
22.65903
20
22.34682
10
22.63820
20
22.38961
10
22.61341
20
22.42998
10
22.58493
20
22.46767
10
22.55300
20
22.50244
10
22.51786
20
22.53404
10
22.47977
20
22.56222
10
22.43897
20
22.58674
10
22.39572
20
22.60736
10
22.35026
20
22.62382
10
22.30284
20
22.63589
10
22.25371
20
22.64331
10
22.20313
20
22.64583
0
LWPOLYLINE
8
INSIDE_Holes_6_apart
90
65
70
1
10
26.69271
20
22.64583
10
26.64212
20
22.64331
10
26.59299
20
22.63589
10
26.54557
20
22.62382
10
26.50011
20
22.60736
10
26.45686
20
22.58674
10
26.41607
20
22.56222
10
26.37797
20
22.53404
10
26.34284
20
22.50244
10
26.31090
20
22.46767
10
26.28242
20
22.42998
10
26.25764
20
22.38961
10
26.23680
20
22.34682
10
26.22016
20
22.30184
10
26.20797
20
22.25492
10
26.20047
20
22.20631
10
26.19792
20
22.15625
10
26.20047
20
22.10619
10
26.20797
20
22.05758
10
26.22016
20
22.01066
10
26.23680
20
21.96568
10
26.25764
20
21.92289
10
26.28242
20
21.88252
10
26.31090
20
21.84483
10
26.34284
20
21.81006
10
26.37797
20
21.77846
10
26.41607
20
21.75028
10
26.45686
20
21.72576
10
26.50011
20
21.70514
10
26.54557
20
21.68868
10
26.59299
20
21.67661
10
26.64212
20
21.66919
10
26.69271
20
21.66667
10
26.74330
20
21.66919
10
26.79243
20
21.67661
10
26.83984
20
21.68868
10
26.88530
20
21.70514
10
26.92856
20
21.72576
10
26.96935
20
21.75028
10
27.00744
20
21.77846
10
27.04258
20
21.81006
10
27.07451
20
21.84483
10
27.10300
20
21.88252
10
27.12778
20
21.92289
10
27.14862
20
21.96568
10
27.16526
20
22.01066
10
27.17745
20
22.05758
10
27.18495
20
22.10619
10
27.18750
20
22.15625
10
27.18495
20
22.20631
10
27.17745
20
22.25492
10
27.16526
20
22.30184
10
27.14862
20
22.34682
10
27.12778
20
22.38961
10
27.10300
20
22.42998
10
27.07451
20
22.46767
10
27.04258
20
22.50244
10
27.00744
20
22.53404
10
26.96935
20
22.56222
10
26.92856
20
22.58674
10
26.88530
20
22.60736
10
26.83984
20
22.62382
10
26.79243
20
22.63589
10
26.74330
20
22.64331
10
26.69271
20
22.64583
0
LWPOLYLINE
8
INSIDE_Holes_6_apart
90
65
70
1
10
31.18229
20
22.64583
10
31.13170
20
22.64331
10
31.08257
20
22.63589
10
31.03516
20
22.62382
10
30.98970
20
22.60736
10
30.94644
20
22.58674
10
30.90565
20
22.56222
10
30.86756
20
22.53404
10
30.83242
20
22.50244
10
30.80049
20
22.46767
10
30.77200
20
22.42998
10
30.74722
20
22.38961
10
30.72638
20
22.34682
10
30.70974
20
22.30184
10
30.69755
20
22.25492
10
30.69005
20
22.20631
10
30.68750
20
22.15625
10
30.69005
20
22.10619
10
30.69755
20
22.05758
10
30.70974
20
22.01066
10
30.72638
20
21.96568
10
30.74722
20
21.92289
10
30.77200
20
21.88252
10
30.80049
20
21.84483
10
30.83242
20
21.81006
10
30.86756
20
21.77846
10
30.90565
20
21.75028
10
30.94644
20
21.72576
10
30.98970
20
21.70514
10
31.03516
20
21.68868
10
31.08257
20
21.67661
10
31.13170
20
21.66919
10
31.18229
20
21.66667
10
31.23288
20
21.66919
10
31.28201
20
21.67661
10
31.32943
20
21.68868
10
31.37489
20
21.70514
10
31.41814
20
21.72576
10
31.45893
20
21.75028
10
31.49703
20
21.77846
10
31.53216
20
21.81006
10
31.56410
20
21.84483
10
31.59258
20
21.88252
10
31.61736
20
21.92289
10
31.63820
20
21.96568
10
31.65484
20
22.01066
10
31.66703
20
22.05758
10
31.67453
20
22.10619
10
31.67708
20
22.15625
10
31.67453
20
22.20631
10
31.66703
20
22.25492
10
31.65484
20
22.30184
10
31.63820
20
22.34682
10
31.61736
20
22.38961
10
31.59258
20
22.42998
10
31.56410
20
22.46767
10
31.53216
20
22.50244
10
31.49703
20
22.53404
10
31.45893
20
22.56222
10
31.41814
20
22.58674
10
31.37489
20
22.60736
10
31.32943
20
22.62382
10
31.28201
20
22.63589
10
31.23288
20
22.64331
10
31.18229
20
22.64583
0
LWPOLYLINE
8
INSIDE_Holes_6_apart
90
65
70
1
10
4.24479
20
27.12500
10
4.19420
20
27.12247
10
4.14507
20
27.11505
10
4.09766
20
27.10299
10
4.05220
20
27.08653
10
4.00894
20
27.06591
10
3.96815
20
27.04139
10
3.93006
20
27.01320
10
3.89492
20
26.98160
10
3.86299
20
26.94684
10
3.83450
20
26.90915
10
3.80972
20
26.86878
10
3.78888
20
26.82598
10
3.77224
20
26.78100
10
3.76005
20
26.73408
10
3.75255
20
26.68547
10
3.75000
20
26.63542
10
3.75255
20
26.58536
10
3.76005
20
26.53675
10
3.77224
20
26.48983
10
3.78888
20
26.44485
10
3.80972
20
26.40205
10
3.83450
20
26.36169
10
3.86299
20
26.32400
10
3.89492
20
26.28923
10
3.93006
20
26.25763
10
3.96815
20
26.22945
10
4.00894
20
26.20492
10
4.05220
20
26.18431
10
4.09766
20
26.16784
10
4.14507
20
26.15578
10
4.19420
20
26.14836
10
4.24479
20
26.14583
10
4.29538
20
26.14836
10
4.34451
20
26.15578
10
4.39193
20
26.16784
10
4.43739
20
26.18431
10
4.48064
20
26.20492
10
4.52143
20
26.22945
10
4.55953
20
26.25763
10
4.59466
20
26.28923
10
4.62660
20
26.32400
10
4.65508
20
26.36169
10
4.67986
20
26.40205
10
4.70070
20
26.44485
10
4.71734
20
26.48983
10
4.72953
20
26.53675
10
4.73703
20
26.58536
10
4.73958
20
26.63542
10
4.73703
20
26.68547
10
4.72953
20
26.73408
10
4.71734
20
26.78100
10
4.70070
20
26.82598
10
4.67986
20
26.86878
10
4.65508
20
26.90915
10
4.62660
20
26.94684
10
4.59466
20
26.98160
10
4.55953
20
27.01320
10
4.52143
20
27.04139
10
4.48064
20
27.06591
10
4.43739
20
27.08653
10
4.39193
20
27.10299
10
4.34451
20
27.11505
10
4.29538
20
27.12247
10
4.24479
20
27.12500
0
LWPOLYLINE
8
INSIDE_Holes_6_apart
90
65
70
1
10
8.73438
20
27.12500
10
8.68379
20
27.12247
10
8.63466
20
27.11505
10
8.58724
20
27.10299
10
8.54178
20
27.08653
10
8.49853
20
27.06591
10
8.45773
20
27.04139
10
8.41964
20
27.01320
10
8.38450
20
26.98160
10
8.35257
20
26.94684
10
8.32409
20
26.90915
10
8.29930
20
26.86878
10
8.27847
20
26.82598
10
8.26183
20
26.78100
10
8.24964
20
26.73408
10
8.24214
20
26.68547
10
8.23958
20
26.63542
10
8.24214
20
26.58536
10
8.24964
20
26.53675
10
8.26183
20
26.48983
10
8.27847
20
26.44485
10
8.29930
20
26.40205
10
8.32409
20
26.36169
10
8.35257
20
26.32400
10
8.38450
20
26.28923
10
8.41964
20
26.25763
10
8.45773
20
26.22945
10
8.49853
20
26.20492
10
8.54178
20
26.18431
10
8.58724
20
26.16784
10
8.63466
20
26.15578
10
8.68379
20
26.14836
10
8.73438
20
26.14583
10
8.78496
20
26.14836
10
8.83409
20
26.15578
10
8.88151
20
26.16784
10
8.92697
20
26.18431
10
8.97022
20
26.20492
10
9.01102
20
26.22945
10
9.04911
20
26.25763
10
9.08425
20
26.28923
10
9.11618
20
26.32400
10
9.14466
20
26.36169
10
9.16945
20
26.40205
10
9.19028
20
26.44485
10
9.20692
20
26.48983
10
9.21911
20
26.53675
10
9.22661
20
26.58536
10
9.22917
20
26.63542
10
9.22661
20
26.68547
10
9.21911
20
26.73408
10
9.20692
20
26.78100
10
9.19028
20
26.82598
10
9.16945
20
26.86878
10
9.14466
20
26.90915
10
9.11618
20
26.94684
10
9.08425
20
26.98160
10
9.04911
20
27.01320
10
9.01102
20
27.04139
10
8.97022
20
27.06591
10
8.92697
20
27.08653
10
8.88151
20
27.10299
10
8.83409
20
27.11505
10
8.78496
20
27.12247
10
8.73438
20
27.12500
0
LWPOLYLINE
8
INSIDE_Holes_6_apart
90
65
70
1
10
13.22396
20
27.12500
10
13.17337
20
27.12247
10
13.12424
20
27.11505
10
13.07682
20
27.10299
10
13.03136
20
27.08653
10
12.98811
20
27.06591
10
12.94732
20
27.04139
10
12.90922
20
27.01320
10
12.87409
20
26.98160
10
12.84215
20
26.94684
10
12.81367
20
26.90915
10
12.78889
20
26.86878
10
12.76805
20
26.82598
10
12.75141
20
26.78100
10
12.73922
20
26.73408
10
12.73172
20
26.68547
10
12.72917
20
26.63542
10
12.73172
20
26.58536
10
12.73922
20
26.53675
10
12.75141
20
26.48983
10
12.76805
20
26.44485
10
12.78889
20
26.40205
10
12.81367
20
26.36169
10
12.84215
20
26.32400
10
12.87409
20
26.28923
10
12.90922
20
26.25763
10
12.94732
20
26.22945
10
12.98811
20
26.20492
10
13.03136
20
26.18431
10
13.07682
20
26.16784
10
13.12424
20
26.15578
10
13.17337
20
26.14836
10
13.22396
20
26.14583
10
13.27455
20
26.14836
10
13.32368
20
26.15578
10
13.37109
20
26.16784
10
13.41655
20
26.18431
10
13.45981
20
26.20492
10
13.50060
20
26.22945
10
13.53869
20
26.25763
10
13.57383
20
26.28923
10
13.60576
20
26.32400
10
13.63425
20
26.36169
10
13.65903
20
26.40205
10
13.67987
20
26.44485
10
13.69651
20
26.48983
10
13.70870
20
26.53675
10
13.71620
20
26.58536
10
13.71875
20
26.63542
10
13.71620
20
26.68547
10
13.70870
20
26.73408
10
13.69651
20
26.78100
10
13.67987
20
26.82598
10
13.65903
20
26.86878
10
13.63425
20
26.90915
10
13.60576
20
26.94684
10
13.57383
20
26.98160
10
13.53869
20
27.01320
10
13.50060
20
27.04139
10
13.45981
20
27.06591
10
13.41655
20
27.08653
10
13.37109
20
27.10299
10
13.32368
20
27.11505
10
13.27455
20
27.12247
10
13.22396
20
27.12500
0
LWPOLYLINE
8
INSIDE_Holes_6_apart
90
65
70
1
10
17.71354
20
27.12500
10
17.66295
20
27.12247
10
17.61382
20
27.11505
10
17.56641
20
27.10299
10
17.52095
20
27.08653
10
17.47769
20
27.06591
10
17.43690
20
27.04139
10
17.39881
20
27.01320
10
17.36367
20
26.98160
10
17.33174
20
26.94684
10
17.30325
20
26.90915
10
17.27847
20
26.86878
10
17.25763
20
26.82598
10
17.24099
20
26.78100
10
17.22880
20
26.73408
10
17.22130
20
26.68547
10
17.21875
20
26.63542
10
17.22130
20
26.58536
10
17.22880
20
26.53675
10
17.24099
20
26.48983
10
17.25763
20
26.44485
10
17.27847
20
26.40205
10
17.30325
20
26.36169
10
17.33174
20
26.32400
10
17.36367
20
26.28923
10
17.39881
20
26.25763
10
17.43690
20
26.22945
10
17.47769
20
26.20492
10
17.52095
20
26.18431
10
17.56641
20
26.16784
10
17.61382
20
26.15578
10
17.66295
20
26.14836
10
17.71354
20
26.14583
10
17.76413
20
26.14836
10
17.81326
20
26.15578
10
17.86068
20
26.16784
10
17.90614
20
26.18431
10
17.94939
20
26.20492
10
17.99018
20
26.22945
10
18.02828
20
26.25763
10
18.06341
20
26.28923
10
18.09535
20
26.32400
10
18.12383
20
26.36169
10
18.14861
20
26.40205
10
18.16945
20
26.44485
10
18.18609
20
26.48983
10
18.19828
20
26.53675
10
18.20578
20
26.58536
10
18.20833
20
26.63542
10
18.20578
20
26.68547
10
18.19828
20
26.73408
10
18.18609
20
26.78100
10
18.16945
20
26.82598
10
18.14861
20
26.86878
10
18.12383
20
26.90915
10
18.09535
20
26.94684
10
18.06341
20
26.98160
10
18.02828
20
27.01320
10
17.99018
20
27.04139
10
17.94939
20
27.06591
10
17.90614
20
27.08653
10
17.86068
20
27.10299
10
17.81326
20
27.11505
10
17.76413
20
27.12247
10
17.71354
20
27.12500
0
LWPOLYLINE
8
INSIDE_Holes_6_apart
90
65
70
1
10
22.20313
20
27.12500
10
22.15254
20
27.12247
10
22.10341
20
27.11505
10
22.05599
20
27.10299
10
22.01053
20
27.08653
10
21.96728
20
27.06591
10
21.92648
20
27.04139
10
21.88839
20
27.01320
10
21.85325
20
26.98160
10
21.82132
20
26.94684
10
21.79284
20
26.90915
10
21.76805
20
26.86878
10
21.74722
20
26.82598
10
21.73058
20
26.78100
10
21.71839
20
26.73408
10
21.71089
20
26.68547
10
21.70833
20
26.63542
10
21.71089
20
26.58536
10
21.71839
20
26.53675
10
21.73058
20
26.48983
10
21.74722
20
26.44485
10
21.76805
20
26.40205
10
21.79284
20
26.36169
10
21.82132
20
26.32400
10
21.85325
20
26.28923
10
21.88839
20
26.25763
10
21.92648
20
26.22945
10
21.96728
20
26.20492
10
22.01053
20
26.18431
10
22.05599
20
26.16784
10
22.10341
20
26.15578
10
22.15254
20
26.14836
10
22.20313
20
26.14583
10
22.25371
20
26.14836
10
22.30284
20
26.15578
10
22.35026
20
26.16784
10
22.39572
20
26.18431
10
22.43897
20
26.20492
10
22.47977
20
26.22945
10
22.51786
20
26.25763
10
22.55300
20
26.28923
10
22.58493
20
26.32400
10
22.61341
20
26.36169
10
22.63820
20
26.40205
10
22.65903
20
26.44485
10
22.67567
20
26.48983
10
22.68786
20
26.53675
10
22.69536
20
26.58536
10
22.69792
20
26.63542
10
22.69536
20
26.68547
10
22.68786
20
26.73408
10
22.67567
20
26.78100
10
22.65903
20
26.82598
10
22.63820
20
26.86878
10
22.61341
20
26.90915
10
22.58493
20
26.94684
10
22.55300
20
26.98160
10
22.51786
20
27.01320
10
22.47977
20
27.04139
10
22.43897
20
27.06591
10
22.39572
20
27.08653
10
22.35026
20
27.10299
10
22.30284
20
27.11505
10
22.25371
20
27.12247
10
22.20313
20
27.12500
0
LWPOLYLINE
8
INSIDE_Holes_6_apart
90
65
70
1
10
26.69271
20
27.12500
10
26.64212
20
27.12247
10
26.59299
20
27.11505
10
26.54557
20
27.10299
10
26.50011
20
27.08653
10
26.45686
20
27.06591
10
26.41607
20
27.04139
10
26.37797
20
27.01320
10
26.34284
20
26.98160
10
26.31090
20
26.94684
10
26.28242
20
26.90915
10
26.25764
20
26.86878
10
26.23680
20
26.82598
10
26.22016
20
26.78100
10
26.20797
20
26.73408
10
26.20047
20
26.68547
10
26.19792
20
26.63542
10
26.20047
20
26.58536
10
26.20797
20
26.53675
10
26.22016
20
26.48983
10
26.23680
20
26.44485
10
26.25764
20
26.40205
10
26.28242
20
26.36169
10
26.31090
20
26.32400
10
26.34284
20
26.28923
10
26.37797
20
26.25763
10
26.41607
20
26.22945
10
26.45686
20
26.20492
10
26.50011
20
26.18431
10
26.54557
20
26.16784
10
26.59299
20
26.15578
10
26.64212
20
26.14836
10
26.69271
20
26.14583
10
26.74330
20
26.14836
10
26.79243
20
26.15578
10
26.83984
20
26.16784
10
26.88530
20
26.18431
10
26.92856
20
26.20492
10
26.96935
20
26.22945
10
27.00744
20
26.25763
10
27.04258
20
26.28923
10
27.07451
20
26.32400
10
27.10300
20
26.36169
10
27.12778
20
26.40205
10
27.14862
20
26.44485
10
27.16526
20
26.48983
10
27.17745
20
26.53675
10
27.18495
20
26.58536
10
27.18750
20
26.63542
10
27.18495
20
26.68547
10
27.17745
20
26.73408
10
27.16526
20
26.78100
10
27.14862
20
26.82598
10
27.12778
20
26.86878
10
27.10300
20
26.90915
10
27.07451
20
26.94684
10
27.04258
20
26.98160
10
27.00744
20
27.01320
10
26.96935
20
27.04139
10
26.92856
20
27.06591
10
26.88530
20
27.08653
10
26.83984
20
27.10299
10
26.79243
20
27.11505
10
26.74330
20
27.12247
10
26.69271
20
27.12500
0
LWPOLYLINE
8
INSIDE_Holes_6_apart
90
65
70
1
10
31.18229
20
27.12500
10
31.13170
20
27.12247
10
31.08257
20
27.11505
10
31.03516
20
27.10299
10
30.98970
20
27.08653
10
30.94644
20
27.06591
10
30.90565
20
27.04139
10
30.86756
20
27.01320
10
30.83242
20
26.98160
10
30.80049
20
26.94684
10
30.77200
20
26.90915
10
30.74722
20
26.86878
10
30.72638
20
26.82598
10
30.70974
20
26.78100
10
30.69755
20
26.73408
10
30.69005
20
26.68547
10
30.68750
20
26.63542
10
30.69005
20
26.58536
10
30.69755
20
26.53675
10
30.70974
20
26.48983
10
30.72638
20
26.44485
10
30.74722
20
26.40205
10
30.77200
20
26.36169
10
30.80049
20
26.32400
10
30.83242
20
26.28923
10
30.86756
20
26.25763
10
30.90565
20
26.22945
10
30.94644
20
26.20492
10
30.98970
20
26.18431
10
31.03516
20
26.16784
10
31.08257
20
26.15578
10
31.13170
20
26.14836
10
31.18229
20
26.14583
10
31.23288
20
26.14836
10
31.28201
20
26.15578
10
31.32943
20
26.16784
10
31.37489
20
26.18431
10
31.41814
20
26.20492
10
31.45893
20
26.22945
10
31.49703
20
26.25763
10
31.53216
20
26.28923
10
31.56410
20
26.32400
10
31.59258
20
26.36169
10
31.61736
20
26.40205
10
31.63820
20
26.44485
10
31.65484
20
26.48983
10
31.66703
20
26.53675
10
31.67453
20
26.58536
10
31.67708
20
26.63542
10
31.67453
20
26.68547
10
31.66703
20
26.73408
10
31.65484
20
26.78100
10
31.63820
20
26.82598
10
31.61736
20
26.86878
10
31.59258
20
26.90915
10
31.56410
20
26.94684
10
31.53216
20
26.98160
10
31.49703
20
27.01320
10
31.45893
20
27.04139
10
31.41814
20
27.06591
10
31.37489
20
27.08653
10
31.32943
20
27.10299
10
31.28201
20
27.11505
10
31.23288
20
27.12247
10
31.18229
20
27.12500
0
LWPOLYLINE
8
INSIDE_Holes_6_apart
90
65
70
1
10
4.24479
20
31.60417
10
4.19420
20
31.60164
10
4.14507
20
31.59422
10
4.09766
20
31.58216
10
4.05220
20
31.56569
10
4.00894
20
31.54508
10
3.96815
20
31.52055
10
3.93006
20
31.49237
10
3.89492
20
31.46077
10
3.86299
20
31.42600
10
3.83450
20
31.38831
10
3.80972
20
31.34795
10
3.78888
20
31.30515
10
3.77224
20
31.26017
10
3.76005
20
31.21325
10
3.75255
20
31.16464
10
3.75000
20
31.11458
10
3.75255
20
31.06453
10
3.76005
20
31.01592
10
3.77224
20
30.96900
10
3.78888
20
30.92402
10
3.80972
20
30.88122
10
3.83450
20
30.84085
10
3.86299
20
30.80316
10
3.89492
20
30.76840
10
3.93006
20
30.73680
10
3.96815
20
30.70861
10
4.00894
20
30.68409
10
4.05220
20
30.66347
10
4.09766
20
30.64701
10
4.14507
20
30.63495
10
4.19420
20
30.62753
10
4.24479
20
30.62500
10
4.29538
20
30.62753
10
4.34451
20
30.63495
10
4.39193
20
30.64701
10
4.43739
20
30.66347
10
4.48064
20
30.68409
10
4.52143
20
30.70861
10
4.55953
20
30.73680
10
4.59466
20
30.76840
10
4.62660
20
30.80316
10
4.65508
20
30.84085
10
4.67986
20
30.88122
10
4.70070
20
30.92402
10
4.71734
20
30.96900
10
4.72953
20
31.01592
10
4.73703
20
31.06453
10
4.73958
20
31.11458
10
4.73703
20
31.16464
10
4.72953
20
31.21325
10
4.71734
20
31.26017
10
4.70070
20
31.30515
10
4.67986
20
31.34795
10
4.65508
20
31.38831
10
4.62660
20
31.42600
10
4.59466
20
31.46077
10
4.55953
20
31.49237
10
4.52143
20
31.52055
10
4.48064
20
31.54508
10
4.43739
20
31.56569
10
4.39193
20
31.58216
10
4.34451
20
31.59422
10
4.29538
20
31.60164
10
4.24479
20
31.60417
0
LWPOLYLINE
8
INSIDE_Holes_6_apart
90
65
70
1
10
8.73438
20
31.60417
10
8.68379
20
31.60164
10
8.63466
20
31.59422
10
8.58724
20
31.58216
10
8.54178
20
31.56569
10
8.49853
20
31.54508
10
8.45773
20
31.52055
10
8.41964
20
31.49237
10
8.38450
20
31.46077
10
8.35257
20
31.42600
10
8.32409
20
31.38831
10
8.29930
20
31.34795
10
8.27847
20
31.30515
10
8.26183
20
31.26017
10
8.24964
20
31.21325
10
8.24214
20
31.16464
10
8.23958
20
31.11458
10
8.24214
20
31.06453
10
8.24964
20
31.01592
10
8.26183
20
30.96900
10
8.27847
20
30.92402
10
8.29930
20
30.88122
10
8.32409
20
30.84085
10
8.35257
20
30.80316
10
8.38450
20
30.76840
10
8.41964
20
30.73680
10
8.45773
20
30.70861
10
8.49853
20
30.68409
10
8.54178
20
30.66347
10
8.58724
20
30.64701
10
8.63466
20
30.63495
10
8.68379
20
30.62753
10
8.73438
20
30.62500
10
8.78496
20
30.62753
10
8.83409
20
30.63495
10
8.88151
20
30.64701
10
8.92697
20
30.66347
10
8.97022
20
30.68409
10
9.01102
20
30.70861
10
9.04911
20
30.73680
10
9.08425
20
30.76840
10
9.11618
20
30.80316
10
9.14466
20
30.84085
10
9.16945
20
30.88122
10
9.19028
20
30.92402
10
9.20692
20
30.96900
10
9.21911
20
31.01592
10
9.22661
20
31.06453
10
9.22917
20
31.11458
10
9.22661
20
31.16464
10
9.21911
20
31.21325
10
9.20692
20
31.26017
10
9.19028
20
31.30515
10
9.16945
20
31.34795
10
9.14466
20
31.38831
10
9.11618
20
31.42600
10
9.08425
20
31.46077
10
9.04911
20
31.49237
10
9.01102
20
31.52055
10
8.97022
20
31.54508
10
8.92697
20
31.56569
10
8.88151
20
31.58216
10
8.83409
20
31.59422
10
8.78496
20
31.60164
10
8.73438
20
31.60417
0
LWPOLYLINE
8
INSIDE_Holes_6_apart
90
65
70
1
10
13.22396
20
31.60417
10
13.17337
20
31.60164
10
13.12424
20
31.59422
10
13.07682
20
31.58216
10
13.03136
20
31.56569
10
12.98811
20
31.54508
10
12.94732
20
31.52055
10
12.90922
20
31.49237
10
12.87409
20
31.46077
10
12.84215
20
31.42600
10
12.81367
20
31.38831
10
12.78889
20
31.34795
10
12.76805
20
31.30515
10
12.75141
20
31.26017
10
12.73922
20
31.21325
10
12.73172
20
31.16464
10
12.72917
20
31.11458
10
12.73172
20
31.06453
10
12.73922
20
31.01592
10
12.75141
20
30.96900
10
12.76805
20
30.92402
10
12.78889
20
30.88122
10
12.81367
20
30.84085
10
12.84215
20
30.80316
10
12.87409
20
30.76840
10
12.90922
20
30.73680
10
12.94732
20
30.70861
10
12.98811
20
30.68409
10
13.03136
20
30.66347
10
13.07682
20
30.64701
10
13.12424
20
30.63495
10
13.17337
20
30.62753
10
13.22396
20
30.62500
10
13.27455
20
30.62753
10
13.32368
20
30.63495
10
13.37109
20
30.64701
10
13.41655
20
30.66347
10
13.45981
20
30.68409
10
13.50060
20
30.70861
10
13.53869
20
30.73680
10
13.57383
20
30.76840
10
13.60576
20
30.80316
10
13.63425
20
30.84085
10
13.65903
20
30.88122
10
13.67987
20
30.92402
10
13.69651
20
30.96900
10
13.70870
20
31.01592
10
13.71620
20
31.06453
10
13.71875
20
31.11458
10
13.71620
20
31.16464
10
13.70870
20
31.21325
10
13.69651
20
31.26017
10
13.67987
20
31.30515
10
13.65903
20
31.34795
10
13.63425
20
31.38831
10
13.60576
20
31.42600
10
13.57383
20
31.46077
10
13.53869
20
31.49237
10
13.50060
20
31.52055
10
13.45981
20
31.54508
10
13.41655
20
31.56569
10
13.37109
20
31.58216
10
13.32368
20
31.59422
10
13.27455
20
31.60164
10
13.22396
20
31.60417
0
LWPOLYLINE
8
INSIDE_Holes_6_apart
90
65
70
1
10
17.71354
20
31.60417
10
17.66295
20
31.60164
10
17.61382
20
31.59422
10
17.56641
20
31.58216
10
17.52095
20
31.56569
10
17.47769
20
31.54508
10
17.43690
20
31.52055
10
17.39881
20
31.49237
10
17.36367
20
31.46077
10
17.33174
20
31.42600
10
17.30325
20
31.38831
10
17.27847
20
31.34795
10
17.25763
20
31.30515
10
17.24099
20
31.26017
10
17.22880
20
31.21325
10
17.22130
20
31.16464
10
17.21875
20
31.11458
10
17.22130
20
31.06453
10
17.22880
20
31.01592
10
17.24099
20
30.96900
10
17.25763
20
30.92402
10
17.27847
20
30.88122
10
17.30325
20
30.84085
10
17.33174
20
30.80316
10
17.36367
20
30.76840
10
17.39881
20
30.73680
10
17.43690
20
30.70861
10
17.47769
20
30.68409
10
17.52095
20
30.66347
10
17.56641
20
30.64701
10
17.61382
20
30.63495
10
17.66295
20
30.62753
10
17.71354
20
30.62500
10
17.76413
20
30.62753
10
17.81326
20
30.63495
10
17.86068
20
30.64701
10
17.90614
20
30.66347
10
17.94939
20
30.68409
10
17.99018
20
30.70861
10
18.02828
20
30.73680
10
18.06341
20
30.76840
10
18.09535
20
30.80316
10
18.12383
20
30.84085
10
18.14861
20
30.88122
10
18.16945
20
30.92402
10
18.18609
20
30.96900
10
18.19828
20
31.01592
10
18.20578
20
31.06453
10
18.20833
20
31.11458
10
18.20578
20
31.16464
10
18.19828
20
31.21325
10
18.18609
20
31.26017
10
18.16945
20
31.30515
10
18.14861
20
31.34795
10
18.12383
20
31.38831
10
18.09535
20
31.42600
10
18.06341
20
31.46077
10
18.02828
20
31.49237
10
17.99018
20
31.52055
10
17.94939
20
31.54508
10
17.90614
20
31.56569
10
17.86068
20
31.58216
10
17.81326
20
31.59422
10
17.76413
20
31.60164
10
17.71354
20
31.60417
0
LWPOLYLINE
8
INSIDE_Holes_6_apart
90
65
70
1
10
22.20313
20
31.60417
10
22.15254
20
31.60164
10
22.10341
20
31.59422
10
22.05599
20
31.58216
10
22.01053
20
31.56569
10
21.96728
20
31.54508
10
21.92648
20
31.52055
10
21.88839
20
31.49237
10
21.85325
20
31.46077
10
21.82132
20
31.42600
10
21.79284
20
31.38831
10
21.76805
20
31.34795
10
21.74722
20
31.30515
10
21.73058
20
31.26017
10
21.71839
20
31.21325
10
21.71089
20
31.16464
10
21.70833
20
31.11458
10
21.71089
20
31.06453
10
21.71839
20
31.01592
10
21.73058
20
30.96900
10
21.74722
20
30.92402
10
21.76805
20
30.88122
10
21.79284
20
30.84085
10
21.82132
20
30.80316
10
21.85325
20
30.76840
10
21.88839
20
30.73680
10
21.92648
20
30.70861
10
21.96728
20
30.68409
10
22.01053
20
30.66347
10
22.05599
20
30.64701
10
22.10341
20
30.63495
10
22.15254
20
30.62753
10
22.20313
20
30.62500
10
22.25371
20
30.62753
10
22.30284
20
30.63495
10
22.35026
20
30.64701
10
22.39572
20
30.66347
10
22.43897
20
30.68409
10
22.47977
20
30.70861
10
22.51786
20
30.73680
10
22.55300
20
30.76840
10
22.58493
20
30.80316
10
22.61341
20
30.84085
10
22.63820
20
30.88122
10
22.65903
20
30.92402
10
22.67567
20
30.96900
10
22.68786
20
31.01592
10
22.69536
20
31.06453
10
22.69792
20
31.11458
10
22.69536
20
31.16464
10
22.68786
20
31.21325
10
22.67567
20
31.26017
10
22.65903
20
31.30515
10
22.63820
20
31.34795
10
22.61341
20
31.38831
10
22.58493
20
31.42600
10
22.55300
20
31.46077
10
22.51786
20
31.49237
10
22.47977
20
31.52055
10
22.43897
20
31.54508
10
22.39572
20
31.56569
10
22.35026
20
31.58216
10
22.30284
20
31.59422
10
22.25371
20
31.60164
10
22.20313
20
31.60417
0
LWPOLYLINE
8
INSIDE_Holes_6_apart
90
65
70
1
10
26.69271
20
31.60417
10
26.64212
20
31.60164
10
26.59299
20
31.59422
10
26.54557
20
31.58216
10
26.50011
20
31.56569
10
26.45686
20
31.54508
10
26.41607
20
31.52055
10
26.37797
20
31.49237
10
26.34284
20
31.46077
10
26.31090
20
31.42600
10
26.28242
20
31.38831
10
26.25764
20
31.34795
10
26.23680
20
31.30515
10
26.22016
20
31.26017
10
26.20797
20
31.21325
10
26.20047
20
31.16464
10
26.19792
20
31.11458
10
26.20047
20
31.06453
10
26.20797
20
31.01592
10
26.22016
20
30.96900
10
26.23680
20
30.92402
10
26.25764
20
30.88122
10
26.28242
20
30.84085
10
26.31090
20
30.80316
10
26.34284
20
30.76840
10
26.37797
20
30.73680
10
26.41607
20
30.70861
10
26.45686
20
30.68409
10
26.50011
20
30.66347
10
26.54557
20
30.64701
10
26.59299
20
30.63495
10
26.64212
20
30.62753
10
26.69271
20
30.62500
10
26.74330
20
30.62753
10
26.79243
20
30.63495
10
26.83984
20
30.64701
10
26.88530
20
30.66347
10
26.92856
20
30.68409
10
26.96935
20
30.70861
10
27.00744
20
30.73680
10
27.04258
20
30.76840
10
27.07451
20
30.80316
10
27.10300
20
30.84085
10
27.12778
20
30.88122
10
27.14862
20
30.92402
10
27.16526
20
30.96900
10
27.17745
20
31.01592
10
27.18495
20
31.06453
10
27.18750
20
31.11458
10
27.18495
20
31.16464
10
27.17745
20
31.21325
10
27.16526
20
31.26017
10
27.14862
20
31.30515
10
27.12778
20
31.34795
10
27.10300
20
31.38831
10
27.07451
20
31.42600
10
27.04258
20
31.46077
10
27.00744
20
31.49237
10
26.96935
20
31.52055
10
26.92856
20
31.54508
10
26.88530
20
31.56569
10
26.83984
20
31.58216
10
26.79243
20
31.59422
10
26.74330
20
31.60164
10
26.69271
20
31.60417
0
LWPOLYLINE
8
INSIDE_Holes_6_apart
90
65
70
1
10
31.18229
20
31.60417
10
31.13170
20
31.60164
10
31.08257
20
31.59422
10
31.03516
20
31.58216
10
30.98970
20
31.56569
10
30.94644
20
31.54508
10
30.90565
20
31.52055
10
30.86756
20
31.49237
10
30.83242
20
31.46077
10
30.80049
20
31.42600
10
30.77200
20
31.38831
10
30.74722
20
31.34795
10
30.72638
20
31.30515
10
30.70974
20
31.26017
10
30.69755
20
31.21325
10
30.69005
20
31.16464
10
30.68750
20
31.11458
10
30.69005
20
31.06453
10
30.69755
20
31.01592
10
30.70974
20
30.96900
10
30.72638
20
30.92402
10
30.74722
20
30.88122
10
30.77200
20
30.84085
10
30.80049
20
30.80316
10
30.83242
20
30.76840
10
30.86756
20
30.73680
10
30.90565
20
30.70861
10
30.94644
20
30.68409
10
30.98970
20
30.66347
10
31.03516
20
30.64701
10
31.08257
20
30.63495
10
31.13170
20
30.62753
10
31.18229
20
30.62500
10
31.23288
20
30.62753
10
31.28201
20
30.63495
10
31.32943
20
30.64701
10
31.37489
20
30.66347
10
31.41814
20
30.68409
10
31.45893
20
30.70861
10
31.49703
20
30.73680
10
31.53216
20
30.76840
10
31.56410
20
30.80316
10
31.59258
20
30.84085
10
31.61736
20
30.88122
10
31.63820
20
30.92402
10
31.65484
20
30.96900
10
31.66703
20
31.01592
10
31.67453
20
31.06453
10
31.67708
20
31.11458
10
31.67453
20
31.16464
10
31.66703
20
31.21325
10
31.65484
20
31.26017
10
31.63820
20
31.30515
10
31.61736
20
31.34795
10
31.59258
20
31.38831
10
31.56410
20
31.42600
10
31.53216
20
31.46077
10
31.49703
20
31.49237
10
31.45893
20
31.52055
10
31.41814
20
31.54508
10
31.37489
20
31.56569
10
31.32943
20
31.58216
10
31.28201
20
31.59422
10
31.23288
20
31.60164
10
31.18229
20
31.60417
0
ENDSEC
0
EOF