0
SECTION
2
ENTITIES
0
LWPOLYLINE
8
OUTSIDE
90
5
70
1
10
0.00000
20
0.00000
10
47.50000
20
0.00000
10
47.50000
20
23.50000
10
0.00000
20
23.50000
10
0.00000
20
0.00000
0
LWPOLYLINE
8
INSIDE_Holes_6_apart
90
65
70
1
10
5.29167
20
5.52083
10
5.24108
20
5.51831
10
5.19195
20
5.51089
10
5.14453
20
5.49882
10
5.09907
20
5.48236
10
5.05582
20
5.46174
10
5.01502
20
5.43722
10
4.97693
20
5.40904
10
4.94180
20
5.37744
10
4.90986
20
5.34267
10
4.88138
20
5.30498
10
4.85659
20
5.26461
10
4.83576
20
5.22182
10
4.81912
20
5.17684
10
4.80693
20
5.12992
10
4.79943
20
5.08131
10
4.79687
20
5.03125
10
4.79943
20
4.98119
10
4.80693
20
4.93258
10
4.81912
20
4.88566
10
4.83576
20
4.84068
10
4.85659
20
4.79789
10
4.88138
20
4.75752
10
4.90986
20
4.71983
10
4.94180
20
4.68506
10
4.97693
20
4.65346
10
5.01502
20
4.62528
10
5.05582
20
4.60076
10
5.09907
20
4.58014
10
5.14453
20
4.56368
10
5.19195
20
4.55161
10
5.24108
20
4.54419
10
5.29167
20
4.54167
10
5.34226
20
4.54419
10
5.39138
20
4.55161
10
5.43880
20
4.56368
10
5.48426
20
4.58014
10
5.52751
20
4.60076
10
5.56831
20
4.62528
10
5.60640
20
4.65346
10
5.64154
20
4.68506
10
5.67347
20
4.71983
10
5.70196
20
4.75752
10
5.72674
20
4.79789
10
5.74758
20
4.84068
10
5.76421
20
4.88566
10
5.77641
20
4.93258
10
5.78390
20
4.98119
10
5.78646
20
5.03125
10
5.78390
20
5.08131
10
5.77641
20
5.12992
10
5.76421
20
5.17684
10
5.74758
20
5.22182
10
5.72674
20
5.26461
10
5.70196
20
5.30498
10
5.67347
20
5.34267
10
5.64154
20
5.37744
10
5.60640
20
5.40904
10
5.56831
20
5.43722
10
5.52751
20
5.46174
10
5.48426
20
5.48236
10
5.43880
20
5.49882
10
5.39138
20
5.51089
10
5.34226
20
5.51831
10
5.29167
20
5.52083
0
LWPOLYLINE
8
INSIDE_Holes_6_apart
90
65
70
1
10
9.78125
20
5.52083
10
9.73066
20
5.51831
10
9.68153
20
5.51089
10
9.63411
20
5.49882
10
9.58865
20
5.48236
10
9.54540
20
5.46174
10
9.50461
20
5.43722
10
9.46652
20
5.40904
10
9.43138
20
5.37744
10
9.39944
20
5.34267
10
9.37096
20
5.30498
10
9.34618
20
5.26461
10
9.32534
20
5.22182
10
9.30870
20
5.17684
10
9.29651
20
5.12992
10
9.28901
20
5.08131
10
9.28646
20
5.03125
10
9.28901
20
4.98119
10
9.29651
20
4.93258
10
9.30870
20
4.88566
10
9.32534
20
4.84068
10
9.34618
20
4.79789
10
9.37096
20
4.75752
10
9.39944
20
4.71983
10
9.43138
20
4.68506
10
9.46652
20
4.65346
10
9.50461
20
4.62528
10
9.54540
20
4.60076
10
9.58865
20
4.58014
10
9.63411
20
4.56368
10
9.68153
20
4.55161
10
9.73066
20
4.54419
10
9.78125
20
4.54167
10
9.83184
20
4.54419
10
9.88097
20
4.55161
10
9.92839
20
4.56368
10
9.97385
20
4.58014
10
10.01710
20
4.60076
10
10.05789
20
4.62528
10
10.09598
20
4.65346
10
10.13112
20
4.68506
10
10.16306
20
4.71983
10
10.19154
20
4.75752
10
10.21632
20
4.79789
10
10.23716
20
4.84068
10
10.25380
20
4.88566
10
10.26599
20
4.93258
10
10.27349
20
4.98119
10
10.27604
20
5.03125
10
10.27349
20
5.08131
10
10.26599
20
5.12992
10
10.25380
20
5.17684
10
10.23716
20
5.22182
10
10.21632
20
5.26461
10
10.19154
20
5.30498
10
10.16306
20
5.34267
10
10.13112
20
5.37744
10
10.09598
20
5.40904
10
10.05789
20
5.43722
10
10.01710
20
5.46174
10
9.97385
20
5.48236
10
9.92839
20
5.49882
10
9.88097
20
5.51089
10
9.83184
20
5.51831
10
9.78125
20
5.52083
0
LWPOLYLINE
8
INSIDE_Holes_6_apart
90
65
70
1
10
14.27083
20
5.52083
10
14.22024
20
5.51831
10
14.17112
20
5.51089
10
14.12370
20
5.49882
10
14.07824
20
5.48236
10
14.03499
20
5.46174
10
13.99419
20
5.43722
10
13.95610
20
5.40904
10
13.92096
20
5.37744
10
13.88903
20
5.34267
10
13.86054
20
5.30498
10
13.83576
20
5.26461
10
13.81492
20
5.22182
10
13.79829
20
5.17684
10
13.78609
20
5.12992
10
13.77860
20
5.08131
10
13.77604
20
5.03125
10
13.77860
20
4.98119
10
13.78609
20
4.93258
10
13.79829
20
4.88566
10
13.81492
20
4.84068
10
13.83576
20
4.79789
10
13.86054
20
4.75752
10
13.88903
20
4.71983
10
13.92096
20
4.68506
10
13.95610
20
4.65346
10
13.99419
20
4.62528
10
14.03499
20
4.60076
10
14.07824
20
4.58014
10
14.12370
20
4.56368
10
14.17112
20
4.55161
10
14.22024
20
4.54419
10
14.27083
20
4.54167
10
14.32142
20
4.54419
10
14.37055
20
4.55161
10
14.41797
20
4.56368
10
14.46343
20
4.58014
10
14.50668
20
4.60076
10
14.54748
20
4.62528
10
14.58557
20
4.65346
10
14.62070
20
4.68506
10
14.65264
20
4.71983
10
14.68112
20
4.75752
10
14.70591
20
4.79789
10
14.72674
20
4.84068
10
14.74338
20
4.88566
10
14.75557
20
4.93258
10
14.76307
20
4.98119
10
14.76562
20
5.03125
10
14.76307
20
5.08131
10
14.75557
20
5.12992
10
14.74338
20
5.17684
10
14.72674
20
5.22182
10
14.70591
20
5.26461
10
14.68112
20
5.30498
10
14.65264
20
5.34267
10
14.62070
20
5.37744
10
14.58557
20
5.40904
10
14.54748
20
5.43722
10
14.50668
20
5.46174
10
14.46343
20
5.48236
10
14.41797
20
5.49882
10
14.37055
20
5.51089
10
14.32142
20
5.51831
10
14.27083
20
5.52083
0
LWPOLYLINE
8
INSIDE_Holes_6_apart
90
65
70
1
10
18.76042
20
5.52083
10
18.70983
20
5.51831
10
18.66070
20
5.51089
10
18.61328
20
5.49882
10
18.56782
20
5.48236
10
18.52457
20
5.46174
10
18.48377
20
5.43722
10
18.44568
20
5.40904
10
18.41055
20
5.37744
10
18.37861
20
5.34267
10
18.35013
20
5.30498
10
18.32534
20
5.26461
10
18.30451
20
5.22182
10
18.28787
20
5.17684
10
18.27568
20
5.12992
10
18.26818
20
5.08131
10
18.26562
20
5.03125
10
18.26818
20
4.98119
10
18.27568
20
4.93258
10
18.28787
20
4.88566
10
18.30451
20
4.84068
10
18.32534
20
4.79789
10
18.35013
20
4.75752
10
18.37861
20
4.71983
10
18.41055
20
4.68506
10
18.44568
20
4.65346
10
18.48377
20
4.62528
10
18.52457
20
4.60076
10
18.56782
20
4.58014
10
18.61328
20
4.56368
10
18.66070
20
4.55161
10
18.70983
20
4.54419
10
18.76042
20
4.54167
10
18.81101
20
4.54419
10
18.86013
20
4.55161
10
18.90755
20
4.56368
10
18.95301
20
4.58014
10
18.99626
20
4.60076
10
19.03706
20
4.62528
10
19.07515
20
4.65346
10
19.11029
20
4.68506
10
19.14222
20
4.71983
10
19.17071
20
4.75752
10
19.19549
20
4.79789
10
19.21633
20
4.84068
10
19.23296
20
4.88566
10
19.24516
20
4.93258
10
19.25265
20
4.98119
10
19.25521
20
5.03125
10
19.25265
20
5.08131
10
19.24516
20
5.12992
10
19.23296
20
5.17684
10
19.21633
20
5.22182
10
19.19549
20
5.26461
10
19.17071
20
5.30498
10
19.14222
20
5.34267
10
19.11029
20
5.37744
10
19.07515
20
5.40904
10
19.03706
20
5.43722
10
18.99626
20
5.46174
10
18.95301
20
5.48236
10
18.90755
20
5.49882
10
18.86013
20
5.51089
10
18.81101
20
5.51831
10
18.76042
20
5.52083
0
LWPOLYLINE
8
INSIDE_Holes_6_apart
90
65
70
1
10
23.25000
20
5.52083
10
23.19941
20
5.51831
10
23.15028
20
5.51089
10
23.10286
20
5.49882
10
23.05740
20
5.48236
10
23.01415
20
5.46174
10
22.97336
20
5.43722
10
22.93527
20
5.40904
10
22.90013
20
5.37744
10
22.86819
20
5.34267
10
22.83971
20
5.30498
10
22.81493
20
5.26461
10
22.79409
20
5.22182
10
22.77745
20
5.17684
10
22.76526
20
5.12992
10
22.75776
20
5.08131
10
22.75521
20
5.03125
10
22.75776
20
4.98119
10
22.76526
20
4.93258
10
22.77745
20
4.88566
10
22.79409
20
4.84068
10
22.81493
20
4.79789
10
22.83971
20
4.75752
10
22.86819
20
4.71983
10
22.90013
20
4.68506
10
22.93527
20
4.65346
10
22.97336
20
4.62528
10
23.01415
20
4.60076
10
23.05740
20
4.58014
10
23.10286
20
4.56368
10
23.15028
20
4.55161
10
23.19941
20
4.54419
10
23.25000
20
4.54167
10
23.30059
20
4.54419
10
23.34972
20
4.55161
10
23.39714
20
4.56368
10
23.44260
20
4.58014
10
23.48585
20
4.60076
10
23.52664
20
4.62528
10
23.56473
20
4.65346
10
23.59987
20
4.68506
10
23.63181
20
4.71983
10
23.66029
20
4.75752
10
23.68507
20
4.79789
10
23.70591
20
4.84068
10
23.72255
20
4.88566
10
23.73474
20
4.93258
10
23.74224
20
4.98119
10
23.74479
20
5.03125
10
23.74224
20
5.08131
10
23.73474
20
5.12992
10
23.72255
20
5.17684
10
23.70591
20
5.22182
10
23.68507
20
5.26461
10
23.66029
20
5.30498
10
23.63181
20
5.34267
10
23.59987
20
5.37744
10
23.56473
20
5.40904
10
23.52664
20
5.43722
10
23.48585
20
5.46174
10
23.44260
20
5.48236
10
23.39714
20
5.49882
10
23.34972
20
5.51089
10
23.30059
20
5.51831
10
23.25000
20
5.52083
0
LWPOLYLINE
8
INSIDE_Holes_6_apart
90
65
70
1
10
27.73958
20
5.52083
10
27.68899
20
5.51831
10
27.63987
20
5.51089
10
27.59245
20
5.49882
10
27.54699
20
5.48236
10
27.50374
20
5.46174
10
27.46294
20
5.43722
10
27.42485
20
5.40904
10
27.38971
20
5.37744
10
27.35778
20
5.34267
10
27.32929
20
5.30498
10
27.30451
20
5.26461
10
27.28367
20
5.22182
10
27.26704
20
5.17684
10
27.25484
20
5.12992
10
27.24735
20
5.08131
10
27.24479
20
5.03125
10
27.24735
20
4.98119
10
27.25484
20
4.93258
10
27.26704
20
4.88566
10
27.28367
20
4.84068
10
27.30451
20
4.79789
10
27.32929
20
4.75752
10
27.35778
20
4.71983
10
27.38971
20
4.68506
10
27.42485
20
4.65346
10
27.46294
20
4.62528
10
27.50374
20
4.60076
10
27.54699
20
4.58014
10
27.59245
20
4.56368
10
27.63987
20
4.55161
10
27.68899
20
4.54419
10
27.73958
20
4.54167
10
27.79017
20
4.54419
10
27.83930
20
4.55161
10
27.88672
20
4.56368
10
27.93218
20
4.58014
10
27.97543
20
4.60076
10
28.01623
20
4.62528
10
28.05432
20
4.65346
10
28.08945
20
4.68506
10
28.12139
20
4.71983
10
28.14987
20
4.75752
10
28.17466
20
4.79789
10
28.19549
20
4.84068
10
28.21213
20
4.88566
10
28.22432
20
4.93258
10
28.23182
20
4.98119
10
28.23437
20
5.03125
10
28.23182
20
5.08131
10
28.22432
20
5.12992
10
28.21213
20
5.17684
10
28.19549
20
5.22182
10
28.17466
20
5.26461
10
28.14987
20
5.30498
10
28.12139
20
5.34267
10
28.08945
20
5.37744
10
28.05432
20
5.40904
10
28.01623
20
5.43722
10
27.97543
20
5.46174
10
27.93218
20
5.48236
10
27.88672
20
5.49882
10
27.83930
20
5.51089
10
27.79017
20
5.51831
10
27.73958
20
5.52083
0
LWPOLYLINE
8
INSIDE_Holes_6_apart
90
65
70
1
10
32.22917
20
5.52083
10
32.17858
20
5.51831
10
32.12945
20
5.51089
10
32.08203
20
5.49882
10
32.03657
20
5.48236
10
31.99332
20
5.46174
10
31.95252
20
5.43722
10
31.91443
20
5.40904
10
31.87930
20
5.37744
10
31.84736
20
5.34267
10
31.81888
20
5.30498
10
31.79409
20
5.26461
10
31.77326
20
5.22182
10
31.75662
20
5.17684
10
31.74443
20
5.12992
10
31.73693
20
5.08131
10
31.73437
20
5.03125
10
31.73693
20
4.98119
10
31.74443
20
4.93258
10
31.75662
20
4.88566
10
31.77326
20
4.84068
10
31.79409
20
4.79789
10
31.81888
20
4.75752
10
31.84736
20
4.71983
10
31.87930
20
4.68506
10
31.91443
20
4.65346
10
31.95252
20
4.62528
10
31.99332
20
4.60076
10
32.03657
20
4.58014
10
32.08203
20
4.56368
10
32.12945
20
4.55161
10
32.17858
20
4.54419
10
32.22917
20
4.54167
10
32.27976
20
4.54419
10
32.32888
20
4.55161
10
32.37630
20
4.56368
10
32.42176
20
4.58014
10
32.46501
20
4.60076
10
32.50581
20
4.62528
10
32.54390
20
4.65346
10
32.57904
20
4.68506
10
32.61097
20
4.71983
10
32.63946
20
4.75752
10
32.66424
20
4.79789
10
32.68508
20
4.84068
10
32.70171
20
4.88566
10
32.71391
20
4.93258
10
32.72140
20
4.98119
10
32.72396
20
5.03125
10
32.72140
20
5.08131
10
32.71391
20
5.12992
10
32.70171
20
5.17684
10
32.68508
20
5.22182
10
32.66424
20
5.26461
10
32.63946
20
5.30498
10
32.61097
20
5.34267
10
32.57904
20
5.37744
10
32.54390
20
5.40904
10
32.50581
20
5.43722
10
32.46501
20
5.46174
10
32.42176
20
5.48236
10
32.37630
20
5.49882
10
32.32888
20
5.51089
10
32.27976
20
5.51831
10
32.22917
20
5.52083
0
LWPOLYLINE
8
INSIDE_Holes_6_apart
90
65
70
1
10
5.29167
20
10.00000
10
5.24108
20
9.99747
10
5.19195
20
9.99005
10
5.14453
20
9.97799
10
5.09907
20
9.96153
10
5.05582
20
9.94091
10
5.01502
20
9.91639
10
4.97693
20
9.88820
10
4.94180
20
9.85660
10
4.90986
20
9.82184
10
4.88138
20
9.78415
10
4.85659
20
9.74378
10
4.83576
20
9.70098
10
4.81912
20
9.65600
10
4.80693
20
9.60908
10
4.79943
20
9.56047
10
4.79687
20
9.51042
10
4.79943
20
9.46036
10
4.80693
20
9.41175
10
4.81912
20
9.36483
10
4.83576
20
9.31985
10
4.85659
20
9.27705
10
4.88138
20
9.23669
10
4.90986
20
9.19900
10
4.94180
20
9.16423
10
4.97693
20
9.13263
10
5.01502
20
9.10445
10
5.05582
20
9.07992
10
5.09907
20
9.05931
10
5.14453
20
9.04284
10
5.19195
20
9.03078
10
5.24108
20
9.02336
10
5.29167
20
9.02083
10
5.34226
20
9.02336
10
5.39138
20
9.03078
10
5.43880
20
9.04284
10
5.48426
20
9.05931
10
5.52751
20
9.07992
10
5.56831
20
9.10445
10
5.60640
20
9.13263
10
5.64154
20
9.16423
10
5.67347
20
9.19900
10
5.70196
20
9.23669
10
5.72674
20
9.27705
10
5.74758
20
9.31985
10
5.76421
20
9.36483
10
5.77641
20
9.41175
10
5.78390
20
9.46036
10
5.78646
20
9.51042
10
5.78390
20
9.56047
10
5.77641
20
9.60908
10
5.76421
20
9.65600
10
5.74758
20
9.70098
10
5.72674
20
9.74378
10
5.70196
20
9.78415
10
5.67347
20
9.82184
10
5.64154
20
9.85660
10
5.60640
20
9.88820
10
5.56831
20
9.91639
10
5.52751
20
9.94091
10
5.48426
20
9.96153
10
5.43880
20
9.97799
10
5.39138
20
9.99005
10
5.34226
20
9.99747
10
5.29167
20
10.00000
0
LWPOLYLINE
8
INSIDE_Holes_6_apart
90
65
70
1
10
9.78125
20
10.00000
10
9.73066
20
9.99747
10
9.68153
20
9.99005
10
9.63411
20
9.97799
10
9.58865
20
9.96153
10
9.54540
20
9.94091
10
9.50461
20
9.91639
10
9.46652
20
9.88820
10
9.43138
20
9.85660
10
9.39944
20
9.82184
10
9.37096
20
9.78415
10
9.34618
20
9.74378
10
9.32534
20
9.70098
10
9.30870
20
9.65600
10
9.29651
20
9.60908
10
9.28901
20
9.56047
10
9.28646
20
9.51042
10
9.28901
20
9.46036
10
9.29651
20
9.41175
10
9.30870
20
9.36483
10
9.32534
20
9.31985
10
9.34618
20
9.27705
10
9.37096
20
9.23669
10
9.39944
20
9.19900
10
9.43138
20
9.16423
10
9.46652
20
9.13263
10
9.50461
20
9.10445
10
9.54540
20
9.07992
10
9.58865
20
9.05931
10
9.63411
20
9.04284
10
9.68153
20
9.03078
10
9.73066
20
9.02336
10
9.78125
20
9.02083
10
9.83184
20
9.02336
10
9.88097
20
9.03078
10
9.92839
20
9.04284
10
9.97385
20
9.05931
10
10.01710
20
9.07992
10
10.05789
20
9.10445
10
10.09598
20
9.13263
10
10.13112
20
9.16423
10
10.16306
20
9.19900
10
10.19154
20
9.23669
10
10.21632
20
9.27705
10
10.23716
20
9.31985
10
10.25380
20
9.36483
10
10.26599
20
9.41175
10
10.27349
20
9.46036
10
10.27604
20
9.51042
10
10.27349
20
9.56047
10
10.26599
20
9.60908
10
10.25380
20
9.65600
10
10.23716
20
9.70098
10
10.21632
20
9.74378
10
10.19154
20
9.78415
10
10.16306
20
9.82184
10
10.13112
20
9.85660
10
10.09598
20
9.88820
10
10.05789
20
9.91639
10
10.01710
20
9.94091
10
9.97385
20
9.96153
10
9.92839
20
9.97799
10
9.88097
20
9.99005
10
9.83184
20
9.99747
10
9.78125
20
10.00000
0
LWPOLYLINE
8
INSIDE_Holes_6_apart
90
65
70
1
10
14.27083
20
10.00000
10
14.22024
20
9.99747
10
14.17112
20
9.99005
10
14.12370
20
9.97799
10
14.07824
20
9.96153
10
14.03499
20
9.94091
10
13.99419
20
9.91639
10
13.95610
20
9.88820
10
13.92096
20
9.85660
10
13.88903
20
9.82184
10
13.86054
20
9.78415
10
13.83576
20
9.74378
10
13.81492
20
9.70098
10
13.79829
20
9.65600
10
13.78609
20
9.60908
10
13.77860
20
9.56047
10
13.77604
20
9.51042
10
13.77860
20
9.46036
10
13.78609
20
9.41175
10
13.79829
20
9.36483
10
13.81492
20
9.31985
10
13.83576
20
9.27705
10
13.86054
20
9.23669
10
13.88903
20
9.19900
10
13.92096
20
9.16423
10
13.95610
20
9.13263
10
13.99419
20
9.10445
10
14.03499
20
9.07992
10
14.07824
20
9.05931
10
14.12370
20
9.04284
10
14.17112
20
9.03078
10
14.22024
20
9.02336
10
14.27083
20
9.02083
10
14.32142
20
9.02336
10
14.37055
20
9.03078
10
14.41797
20
9.04284
10
14.46343
20
9.05931
10
14.50668
20
9.07992
10
14.54748
20
9.10445
10
14.58557
20
9.13263
10
14.62070
20
9.16423
10
14.65264
20
9.19900
10
14.68112
20
9.23669
10
14.70591
20
9.27705
10
14.72674
20
9.31985
10
14.74338
20
9.36483
10
14.75557
20
9.41175
10
14.76307
20
9.46036
10
14.76562
20
9.51042
10
14.76307
20
9.56047
10
14.75557
20
9.60908
10
14.74338
20
9.65600
10
14.72674
20
9.70098
10
14.70591
20
9.74378
10
14.68112
20
9.78415
10
14.65264
20
9.82184
10
14.62070
20
9.85660
10
14.58557
20
9.88820
10
14.54748
20
9.91639
10
14.50668
20
9.94091
10
14.46343
20
9.96153
10
14.41797
20
9.97799
10
14.37055
20
9.99005
10
14.32142
20
9.99747
10
14.27083
20
10.00000
0
LWPOLYLINE
8
INSIDE_Holes_6_apart
90
65
70
1
10
18.76042
20
10.00000
10
18.70983
20
9.99747
10
18.66070
20
9.99005
10
18.61328
20
9.97799
10
18.56782
20
9.96153
10
18.52457
20
9.94091
10
18.48377
20
9.91639
10
18.44568
20
9.88820
10
18.41055
20
9.85660
10
18.37861
20
9.82184
10
18.35013
20
9.78415
10
18.32534
20
9.74378
10
18.30451
20
9.70098
10
18.28787
20
9.65600
10
18.27568
20
9.60908
10
18.26818
20
9.56047
10
18.26562
20
9.51042
10
18.26818
20
9.46036
10
18.27568
20
9.41175
10
18.28787
20
9.36483
10
18.30451
20
9.31985
10
18.32534
20
9.27705
10
18.35013
20
9.23669
10
18.37861
20
9.19900
10
18.41055
20
9.16423
10
18.44568
20
9.13263
10
18.48377
20
9.10445
10
18.52457
20
9.07992
10
18.56782
20
9.05931
10
18.61328
20
9.04284
10
18.66070
20
9.03078
10
18.70983
20
9.02336
10
18.76042
20
9.02083
10
18.81101
20
9.02336
10
18.86013
20
9.03078
10
18.90755
20
9.04284
10
18.95301
20
9.05931
10
18.99626
20
9.07992
10
19.03706
20
9.10445
10
19.07515
20
9.13263
10
19.11029
20
9.16423
10
19.14222
20
9.19900
10
19.17071
20
9.23669
10
19.19549
20
9.27705
10
19.21633
20
9.31985
10
19.23296
20
9.36483
10
19.24516
20
9.41175
10
19.25265
20
9.46036
10
19.25521
20
9.51042
10
19.25265
20
9.56047
10
19.24516
20
9.60908
10
19.23296
20
9.65600
10
19.21633
20
9.70098
10
19.19549
20
9.74378
10
19.17071
20
9.78415
10
19.14222
20
9.82184
10
19.11029
20
9.85660
10
19.07515
20
9.88820
10
19.03706
20
9.91639
10
18.99626
20
9.94091
10
18.95301
20
9.96153
10
18.90755
20
9.97799
10
18.86013
20
9.99005
10
18.81101
20
9.99747
10
18.76042
20
10.00000
0
LWPOLYLINE
8
INSIDE_Holes_6_apart
90
65
70
1
10
23.25000
20
10.00000
10
23.19941
20
9.99747
10
23.15028
20
9.99005
10
23.10286
20
9.97799
10
23.05740
20
9.96153
10
23.01415
20
9.94091
10
22.97336
20
9.91639
10
22.93527
20
9.88820
10
22.90013
20
9.85660
10
22.86819
20
9.82184
10
22.83971
20
9.78415
10
22.81493
20
9.74378
10
22.79409
20
9.70098
10
22.77745
20
9.65600
10
22.76526
20
9.60908
10
22.75776
20
9.56047
10
22.75521
20
9.51042
10
22.75776
20
9.46036
10
22.76526
20
9.41175
10
22.77745
20
9.36483
10
22.79409
20
9.31985
10
22.81493
20
9.27705
10
22.83971
20
9.23669
10
22.86819
20
9.19900
10
22.90013
20
9.16423
10
22.93527
20
9.13263
10
22.97336
20
9.10445
10
23.01415
20
9.07992
10
23.05740
20
9.05931
10
23.10286
20
9.04284
10
23.15028
20
9.03078
10
23.19941
20
9.02336
10
23.25000
20
9.02083
10
23.30059
20
9.02336
10
23.34972
20
9.03078
10
23.39714
20
9.04284
10
23.44260
20
9.05931
10
23.48585
20
9.07992
10
23.52664
20
9.10445
10
23.56473
20
9.13263
10
23.59987
20
9.16423
10
23.63181
20
9.19900
10
23.66029
20
9.23669
10
23.68507
20
9.27705
10
23.70591
20
9.31985
10
23.72255
20
9.36483
10
23.73474
20
9.41175
10
23.74224
20
9.46036
10
23.74479
20
9.51042
10
23.74224
20
9.56047
10
23.73474
20
9.60908
10
23.72255
20
9.65600
10
23.70591
20
9.70098
10
23.68507
20
9.74378
10
23.66029
20
9.78415
10
23.63181
20
9.82184
10
23.59987
20
9.85660
10
23.56473
20
9.88820
10
23.52664
20
9.91639
10
23.48585
20
9.94091
10
23.44260
20
9.96153
10
23.39714
20
9.97799
10
23.34972
20
9.99005
10
23.30059
20
9.99747
10
23.25000
20
10.00000
0
LWPOLYLINE
8
INSIDE_Holes_6_apart
90
65
70
1
10
27.73958
20
10.00000
10
27.68899
20
9.99747
10
27.63987
20
9.99005
10
27.59245
20
9.97799
10
27.54699
20
9.96153
10
27.50374
20
9.94091
10
27.46294
20
9.91639
10
27.42485
20
9.88820
10
27.38971
20
9.85660
10
27.35778
20
9.82184
10
27.32929
20
9.78415
10
27.30451
20
9.74378
10
27.28367
20
9.70098
10
27.26704
20
9.65600
10
27.25484
20
9.60908
10
27.24735
20
9.56047
10
27.24479
20
9.51042
10
27.24735
20
9.46036
10
27.25484
20
9.41175
10
27.26704
20
9.36483
10
27.28367
20
9.31985
10
27.30451
20
9.27705
10
27.32929
20
9.23669
10
27.35778
20
9.19900
10
27.38971
20
9.16423
10
27.42485
20
9.13263
10
27.46294
20
9.10445
10
27.50374
20
9.07992
10
27.54699
20
9.05931
10
27.59245
20
9.04284
10
27.63987
20
9.03078
10
27.68899
20
9.02336
10
27.73958
20
9.02083
10
27.79017
20
9.02336
10
27.83930
20
9.03078
10
27.88672
20
9.04284
10
27.93218
20
9.05931
10
27.97543
20
9.07992
10
28.01623
20
9.10445
10
28.05432
20
9.13263
10
28.08945
20
9.16423
10
28.12139
20
9.19900
10
28.14987
20
9.23669
10
28.17466
20
9.27705
10
28.19549
20
9.31985
10
28.21213
20
9.36483
10
28.22432
20
9.41175
10
28.23182
20
9.46036
10
28.23437
20
9.51042
10
28.23182
20
9.56047
10
28.22432
20
9.60908
10
28.21213
20
9.65600
10
28.19549
20
9.70098
10
28.17466
20
9.74378
10
28.14987
20
9.78415
10
28.12139
20
9.82184
10
28.08945
20
9.85660
10
28.05432
20
9.88820
10
28.01623
20
9.91639
10
27.97543
20
9.94091
10
27.93218
20
9.96153
10
27.88672
20
9.97799
10
27.83930
20
9.99005
10
27.79017
20
9.99747
10
27.73958
20
10.00000
0
LWPOLYLINE
8
INSIDE_Holes_6_apart
90
65
70
1
10
32.22917
20
10.00000
10
32.17858
20
9.99747
10
32.12945
20
9.99005
10
32.08203
20
9.97799
10
32.03657
20
9.96153
10
31.99332
20
9.94091
10
31.95252
20
9.91639
10
31.91443
20
9.88820
10
31.87930
20
9.85660
10
31.84736
20
9.82184
10
31.81888
20
9.78415
10
31.79409
20
9.74378
10
31.77326
20
9.70098
10
31.75662
20
9.65600
10
31.74443
20
9.60908
10
31.73693
20
9.56047
10
31.73437
20
9.51042
10
31.73693
20
9.46036
10
31.74443
20
9.41175
10
31.75662
20
9.36483
10
31.77326
20
9.31985
10
31.79409
20
9.27705
10
31.81888
20
9.23669
10
31.84736
20
9.19900
10
31.87930
20
9.16423
10
31.91443
20
9.13263
10
31.95252
20
9.10445
10
31.99332
20
9.07992
10
32.03657
20
9.05931
10
32.08203
20
9.04284
10
32.12945
20
9.03078
10
32.17858
20
9.02336
10
32.22917
20
9.02083
10
32.27976
20
9.02336
10
32.32888
20
9.03078
10
32.37630
20
9.04284
10
32.42176
20
9.05931
10
32.46501
20
9.07992
10
32.50581
20
9.10445
10
32.54390
20
9.13263
10
32.57904
20
9.16423
10
32.61097
20
9.19900
10
32.63946
20
9.23669
10
32.66424
20
9.27705
10
32.68508
20
9.31985
10
32.70171
20
9.36483
10
32.71391
20
9.41175
10
32.72140
20
9.46036
10
32.72396
20
9.51042
10
32.72140
20
9.56047
10
32.71391
20
9.60908
10
32.70171
20
9.65600
10
32.68508
20
9.70098
10
32.66424
20
9.74378
10
32.63946
20
9.78415
10
32.61097
20
9.82184
10
32.57904
20
9.85660
10
32.54390
20
9.88820
10
32.50581
20
9.91639
10
32.46501
20
9.94091
10
32.42176
20
9.96153
10
32.37630
20
9.97799
10
32.32888
20
9.99005
10
32.27976
20
9.99747
10
32.22917
20
10.00000
0
LWPOLYLINE
8
INSIDE_Holes_6_apart
90
65
70
1
10
5.29167
20
14.47917
10
5.24108
20
14.47664
10
5.19195
20
14.46922
10
5.14453
20
14.45716
10
5.09907
20
14.44069
10
5.05582
20
14.42008
10
5.01502
20
14.39555
10
4.97693
20
14.36737
10
4.94180
20
14.33577
10
4.90986
20
14.30100
10
4.88138
20
14.26331
10
4.85659
20
14.22295
10
4.83576
20
14.18015
10
4.81912
20
14.13517
10
4.80693
20
14.08825
10
4.79943
20
14.03964
10
4.79687
20
13.98958
10
4.79943
20
13.93953
10
4.80693
20
13.89092
10
4.81912
20
13.84400
10
4.83576
20
13.79902
10
4.85659
20
13.75622
10
4.88138
20
13.71585
10
4.90986
20
13.67816
10
4.94180
20
13.64340
10
4.97693
20
13.61180
10
5.01502
20
13.58361
10
5.05582
20
13.55909
10
5.09907
20
13.53847
10
5.14453
20
13.52201
10
5.19195
20
13.50995
10
5.24108
20
13.50253
10
5.29167
20
13.50000
10
5.34226
20
13.50253
10
5.39138
20
13.50995
10
5.43880
20
13.52201
10
5.48426
20
13.53847
10
5.52751
20
13.55909
10
5.56831
20
13.58361
10
5.60640
20
13.61180
10
5.64154
20
13.64340
10
5.67347
20
13.67816
10
5.70196
20
13.71585
10
5.72674
20
13.75622
10
5.74758
20
13.79902
10
5.76421
20
13.84400
10
5.77641
20
13.89092
10
5.78390
20
13.93953
10
5.78646
20
13.98958
10
5.78390
20
14.03964
10
5.77641
20
14.08825
10
5.76421
20
14.13517
10
5.74758
20
14.18015
10
5.72674
20
14.22295
10
5.70196
20
14.26331
10
5.67347
20
14.30100
10
5.64154
20
14.33577
10
5.60640
20
14.36737
10
5.56831
20
14.39555
10
5.52751
20
14.42008
10
5.48426
20
14.44069
10
5.43880
20
14.45716
10
5.39138
20
14.46922
10
5.34226
20
14.47664
10
5.29167
20
14.47917
0
LWPOLYLINE
8
INSIDE_Holes_6_apart
90
65
70
1
10
9.78125
20
14.47917
10
9.73066
20
14.47664
10
9.68153
20
14.46922
10
9.63411
20
14.45716
10
9.58865
20
14.44069
10
9.54540
20
14.42008
10
9.50461
20
14.39555
10
9.46652
20
14.36737
10
9.43138
20
14.33577
10
9.39944
20
14.30100
10
9.37096
20
14.26331
10
9.34618
20
14.22295
10
9.32534
20
14.18015
10
9.30870
20
14.13517
10
9.29651
20
14.08825
10
9.28901
20
14.03964
10
9.28646
20
13.98958
10
9.28901
20
13.93953
10
9.29651
20
13.89092
10
9.30870
20
13.84400
10
9.32534
20
13.79902
10
9.34618
20
13.75622
10
9.37096
20
13.71585
10
9.39944
20
13.67816
10
9.43138
20
13.64340
10
9.46652
20
13.61180
10
9.50461
20
13.58361
10
9.54540
20
13.55909
10
9.58865
20
13.53847
10
9.63411
20
13.52201
10
9.68153
20
13.50995
10
9.73066
20
13.50253
10
9.78125
20
13.50000
10
9.83184
20
13.50253
10
9.88097
20
13.50995
10
9.92839
20
13.52201
10
9.97385
20
13.53847
10
10.01710
20
13.55909
10
10.05789
20
13.58361
10
10.09598
20
13.61180
10
10.13112
20
13.64340
10
10.16306
20
13.67816
10
10.19154
20
13.71585
10
10.21632
20
13.75622
10
10.23716
20
13.79902
10
10.25380
20
13.84400
10
10.26599
20
13.89092
10
10.27349
20
13.93953
10
10.27604
20
13.98958
10
10.27349
20
14.03964
10
10.26599
20
14.08825
10
10.25380
20
14.13517
10
10.23716
20
14.18015
10
10.21632
20
14.22295
10
10.19154
20
14.26331
10
10.16306
20
14.30100
10
10.13112
20
14.33577
10
10.09598
20
14.36737
10
10.05789
20
14.39555
10
10.01710
20
14.42008
10
9.97385
20
14.44069
10
9.92839
20
14.45716
10
9.88097
20
14.46922
10
9.83184
20
14.47664
10
9.78125
20
14.47917
0
LWPOLYLINE
8
INSIDE_Holes_6_apart
90
65
70
1
10
14.27083
20
14.47917
10
14.22024
20
14.47664
10
14.17112
20
14.46922
10
14.12370
20
14.45716
10
14.07824
20
14.44069
10
14.03499
20
14.42008
10
13.99419
20
14.39555
10
13.95610
20
14.36737
10
13.92096
20
14.33577
10
13.88903
20
14.30100
10
13.86054
20
14.26331
10
13.83576
20
14.22295
10
13.81492
20
14.18015
10
13.79829
20
14.13517
10
13.78609
20
14.08825
10
13.77860
20
14.03964
10
13.77604
20
13.98958
10
13.77860
20
13.93953
10
13.78609
20
13.89092
10
13.79829
20
13.84400
10
13.81492
20
13.79902
10
13.83576
20
13.75622
10
13.86054
20
13.71585
10
13.88903
20
13.67816
10
13.92096
20
13.64340
10
13.95610
20
13.61180
10
13.99419
20
13.58361
10
14.03499
20
13.55909
10
14.07824
20
13.53847
10
14.12370
20
13.52201
10
14.17112
20
13.50995
10
14.22024
20
13.50253
10
14.27083
20
13.50000
10
14.32142
20
13.50253
10
14.37055
20
13.50995
10
14.41797
20
13.52201
10
14.46343
20
13.53847
10
14.50668
20
13.55909
10
14.54748
20
13.58361
10
14.58557
20
13.61180
10
14.62070
20
13.64340
10
14.65264
20
13.67816
10
14.68112
20
13.71585
10
14.70591
20
13.75622
10
14.72674
20
13.79902
10
14.74338
20
13.84400
10
14.75557
20
13.89092
10
14.76307
20
13.93953
10
14.76562
20
13.98958
10
14.76307
20
14.03964
10
14.75557
20
14.08825
10
14.74338
20
14.13517
10
14.72674
20
14.18015
10
14.70591
20
14.22295
10
14.68112
20
14.26331
10
14.65264
20
14.30100
10
14.62070
20
14.33577
10
14.58557
20
14.36737
10
14.54748
20
14.39555
10
14.50668
20
14.42008
10
14.46343
20
14.44069
10
14.41797
20
14.45716
10
14.37055
20
14.46922
10
14.32142
20
14.47664
10
14.27083
20
14.47917
0
LWPOLYLINE
8
INSIDE_Holes_6_apart
90
65
70
1
10
18.76042
20
14.47917
10
18.70983
20
14.47664
10
18.66070
20
14.46922
10
18.61328
20
14.45716
10
18.56782
20
14.44069
10
18.52457
20
14.42008
10
18.48377
20
14.39555
10
18.44568
20
14.36737
10
18.41055
20
14.33577
10
18.37861
20
14.30100
10
18.35013
20
14.26331
10
18.32534
20
14.22295
10
18.30451
20
14.18015
10
18.28787
20
14.13517
10
18.27568
20
14.08825
10
18.26818
20
14.03964
10
18.26562
20
13.98958
10
18.26818
20
13.93953
10
18.27568
20
13.89092
10
18.28787
20
13.84400
10
18.30451
20
13.79902
10
18.32534
20
13.75622
10
18.35013
20
13.71585
10
18.37861
20
13.67816
10
18.41055
20
13.64340
10
18.44568
20
13.61180
10
18.48377
20
13.58361
10
18.52457
20
13.55909
10
18.56782
20
13.53847
10
18.61328
20
13.52201
10
18.66070
20
13.50995
10
18.70983
20
13.50253
10
18.76042
20
13.50000
10
18.81101
20
13.50253
10
18.86013
20
13.50995
10
18.90755
20
13.52201
10
18.95301
20
13.53847
10
18.99626
20
13.55909
10
19.03706
20
13.58361
10
19.07515
20
13.61180
10
19.11029
20
13.64340
10
19.14222
20
13.67816
10
19.17071
20
13.71585
10
19.19549
20
13.75622
10
19.21633
20
13.79902
10
19.23296
20
13.84400
10
19.24516
20
13.89092
10
19.25265
20
13.93953
10
19.25521
20
13.98958
10
19.25265
20
14.03964
10
19.24516
20
14.08825
10
19.23296
20
14.13517
10
19.21633
20
14.18015
10
19.19549
20
14.22295
10
19.17071
20
14.26331
10
19.14222
20
14.30100
10
19.11029
20
14.33577
10
19.07515
20
14.36737
10
19.03706
20
14.39555
10
18.99626
20
14.42008
10
18.95301
20
14.44069
10
18.90755
20
14.45716
10
18.86013
20
14.46922
10
18.81101
20
14.47664
10
18.76042
20
14.47917
0
LWPOLYLINE
8
INSIDE_Holes_6_apart
90
65
70
1
10
23.25000
20
14.47917
10
23.19941
20
14.47664
10
23.15028
20
14.46922
10
23.10286
20
14.45716
10
23.05740
20
14.44069
10
23.01415
20
14.42008
10
22.97336
20
14.39555
10
22.93527
20
14.36737
10
22.90013
20
14.33577
10
22.86819
20
14.30100
10
22.83971
20
14.26331
10
22.81493
20
14.22295
10
22.79409
20
14.18015
10
22.77745
20
14.13517
10
22.76526
20
14.08825
10
22.75776
20
14.03964
10
22.75521
20
13.98958
10
22.75776
20
13.93953
10
22.76526
20
13.89092
10
22.77745
20
13.84400
10
22.79409
20
13.79902
10
22.81493
20
13.75622
10
22.83971
20
13.71585
10
22.86819
20
13.67816
10
22.90013
20
13.64340
10
22.93527
20
13.61180
10
22.97336
20
13.58361
10
23.01415
20
13.55909
10
23.05740
20
13.53847
10
23.10286
20
13.52201
10
23.15028
20
13.50995
10
23.19941
20
13.50253
10
23.25000
20
13.50000
10
23.30059
20
13.50253
10
23.34972
20
13.50995
10
23.39714
20
13.52201
10
23.44260
20
13.53847
10
23.48585
20
13.55909
10
23.52664
20
13.58361
10
23.56473
20
13.61180
10
23.59987
20
13.64340
10
23.63181
20
13.67816
10
23.66029
20
13.71585
10
23.68507
20
13.75622
10
23.70591
20
13.79902
10
23.72255
20
13.84400
10
23.73474
20
13.89092
10
23.74224
20
13.93953
10
23.74479
20
13.98958
10
23.74224
20
14.03964
10
23.73474
20
14.08825
10
23.72255
20
14.13517
10
23.70591
20
14.18015
10
23.68507
20
14.22295
10
23.66029
20
14.26331
10
23.63181
20
14.30100
10
23.59987
20
14.33577
10
23.56473
20
14.36737
10
23.52664
20
14.39555
10
23.48585
20
14.42008
10
23.44260
20
14.44069
10
23.39714
20
14.45716
10
23.34972
20
14.46922
10
23.30059
20
14.47664
10
23.25000
20
14.47917
0
LWPOLYLINE
8
INSIDE_Holes_6_apart
90
65
70
1
10
27.73958
20
14.47917
10
27.68899
20
14.47664
10
27.63987
20
14.46922
10
27.59245
20
14.45716
10
27.54699
20
14.44069
10
27.50374
20
14.42008
10
27.46294
20
14.39555
10
27.42485
20
14.36737
10
27.38971
20
14.33577
10
27.35778
20
14.30100
10
27.32929
20
14.26331
10
27.30451
20
14.22295
10
27.28367
20
14.18015
10
27.26704
20
14.13517
10
27.25484
20
14.08825
10
27.24735
20
14.03964
10
27.24479
20
13.98958
10
27.24735
20
13.93953
10
27.25484
20
13.89092
10
27.26704
20
13.84400
10
27.28367
20
13.79902
10
27.30451
20
13.75622
10
27.32929
20
13.71585
10
27.35778
20
13.67816
10
27.38971
20
13.64340
10
27.42485
20
13.61180
10
27.46294
20
13.58361
10
27.50374
20
13.55909
10
27.54699
20
13.53847
10
27.59245
20
13.52201
10
27.63987
20
13.50995
10
27.68899
20
13.50253
10
27.73958
20
13.50000
10
27.79017
20
13.50253
10
27.83930
20
13.50995
10
27.88672
20
13.52201
10
27.93218
20
13.53847
10
27.97543
20
13.55909
10
28.01623
20
13.58361
10
28.05432
20
13.61180
10
28.08945
20
13.64340
10
28.12139
20
13.67816
10
28.14987
20
13.71585
10
28.17466
20
13.75622
10
28.19549
20
13.79902
10
28.21213
20
13.84400
10
28.22432
20
13.89092
10
28.23182
20
13.93953
10
28.23437
20
13.98958
10
28.23182
20
14.03964
10
28.22432
20
14.08825
10
28.21213
20
14.13517
10
28.19549
20
14.18015
10
28.17466
20
14.22295
10
28.14987
20
14.26331
10
28.12139
20
14.30100
10
28.08945
20
14.33577
10
28.05432
20
14.36737
10
28.01623
20
14.39555
10
27.97543
20
14.42008
10
27.93218
20
14.44069
10
27.88672
20
14.45716
10
27.83930
20
14.46922
10
27.79017
20
14.47664
10
27.73958
20
14.47917
0
LWPOLYLINE
8
INSIDE_Holes_6_apart
90
65
70
1
10
32.22917
20
14.47917
10
32.17858
20
14.47664
10
32.12945
20
14.46922
10
32.08203
20
14.45716
10
32.03657
20
14.44069
10
31.99332
20
14.42008
10
31.95252
20
14.39555
10
31.91443
20
14.36737
10
31.87930
20
14.33577
10
31.84736
20
14.30100
10
31.81888
20
14.26331
10
31.79409
20
14.22295
10
31.77326
20
14.18015
10
31.75662
20
14.13517
10
31.74443
20
14.08825
10
31.73693
20
14.03964
10
31.73437
20
13.98958
10
31.73693
20
13.93953
10
31.74443
20
13.89092
10
31.75662
20
13.84400
10
31.77326
20
13.79902
10
31.79409
20
13.75622
10
31.81888
20
13.71585
10
31.84736
20
13.67816
10
31.87930
20
13.64340
10
31.91443
20
13.61180
10
31.95252
20
13.58361
10
31.99332
20
13.55909
10
32.03657
20
13.53847
10
32.08203
20
13.52201
10
32.12945
20
13.50995
10
32.17858
20
13.50253
10
32.22917
20
13.50000
10
32.27976
20
13.50253
10
32.32888
20
13.50995
10
32.37630
20
13.52201
10
32.42176
20
13.53847
10
32.46501
20
13.55909
10
32.50581
20
13.58361
10
32.54390
20
13.61180
10
32.57904
20
13.64340
10
32.61097
20
13.67816
10
32.63946
20
13.71585
10
32.66424
20
13.75622
10
32.68508
20
13.79902
10
32.70171
20
13.84400
10
32.71391
20
13.89092
10
32.72140
20
13.93953
10
32.72396
20
13.98958
10
32.72140
20
14.03964
10
32.71391
20
14.08825
10
32.70171
20
14.13517
10
32.68508
20
14.18015
10
32.66424
20
14.22295
10
32.63946
20
14.26331
10
32.61097
20
14.30100
10
32.57904
20
14.33577
10
32.54390
20
14.36737
10
32.50581
20
14.39555
10
32.46501
20
14.42008
10
32.42176
20
14.44069
10
32.37630
20
14.45716
10
32.32888
20
14.46922
10
32.27976
20
14.47664
10
32.22917
20
14.47917
0
LWPOLYLINE
8
INSIDE_Holes_6_apart
90
65
70
1
10
5.29167
20
18.95833
10
5.24108
20
18.95581
10
5.19195
20
18.94839
10
5.14453
20
18.93632
10
5.09907
20
18.91986
10
5.05582
20
18.89924
10
5.01502
20
18.87472
10
4.97693
20
18.84654
10
4.94180
20
18.81494
10
4.90986
20
18.78017
10
4.88138
20
18.74248
10
4.85659
20
18.70211
10
4.83576
20
18.65932
10
4.81912
20
18.61434
10
4.80693
20
18.56742
10
4.79943
20
18.51881
10
4.79687
20
18.46875
10
4.79943
20
18.41869
10
4.80693
20
18.37008
10
4.81912
20
18.32316
10
4.83576
20
18.27818
10
4.85659
20
18.23539
10
4.88138
20
18.19502
10
4.90986
20
18.15733
10
4.94180
20
18.12256
10
4.97693
20
18.09096
10
5.01502
20
18.06278
10
5.05582
20
18.03826
10
5.09907
20
18.01764
10
5.14453
20
18.00118
10
5.19195
20
17.98911
10
5.24108
20
17.98169
10
5.29167
20
17.97917
10
5.34226
20
17.98169
10
5.39138
20
17.98911
10
5.43880
20
18.00118
10
5.48426
20
18.01764
10
5.52751
20
18.03826
10
5.56831
20
18.06278
10
5.60640
20
18.09096
10
5.64154
20
18.12256
10
5.67347
20
18.15733
10
5.70196
20
18.19502
10
5.72674
20
18.23539
10
5.74758
20
18.27818
10
5.76421
20
18.32316
10
5.77641
20
18.37008
10
5.78390
20
18.41869
10
5.78646
20
18.46875
10
5.78390
20
18.51881
10
5.77641
20
18.56742
10
5.76421
20
18.61434
10
5.74758
20
18.65932
10
5.72674
20
18.70211
10
5.70196
20
18.74248
10
5.67347
20
18.78017
10
5.64154
20
18.81494
10
5.60640
20
18.84654
10
5.56831
20
18.87472
10
5.52751
20
18.89924
10
5.48426
20
18.91986
10
5.43880
20
18.93632
10
5.39138
20
18.94839
10
5.34226
20
18.95581
10
5.29167
20
18.95833
0
LWPOLYLINE
8
INSIDE_Holes_6_apart
90
65
70
1
10
9.78125
20
18.95833
10
9.73066
20
18.95581
10
9.68153
20
18.94839
10
9.63411
20
18.93632
10
9.58865
20
18.91986
10
9.54540
20
18.89924
10
9.50461
20
18.87472
10
9.46652
20
18.84654
10
9.43138
20
18.81494
10
9.39944
20
18.78017
10
9.37096
20
18.74248
10
9.34618
20
18.70211
10
9.32534
20
18.65932
10
9.30870
20
18.61434
10
9.29651
20
18.56742
10
9.28901
20
18.51881
10
9.28646
20
18.46875
10
9.28901
20
18.41869
10
9.29651
20
18.37008
10
9.30870
20
18.32316
10
9.32534
20
18.27818
10
9.34618
20
18.23539
10
9.37096
20
18.19502
10
9.39944
20
18.15733
10
9.43138
20
18.12256
10
9.46652
20
18.09096
10
9.50461
20
18.06278
10
9.54540
20
18.03826
10
9.58865
20
18.01764
10
9.63411
20
18.00118
10
9.68153
20
17.98911
10
9.73066
20
17.98169
10
9.78125
20
17.97917
10
9.83184
20
17.98169
10
9.88097
20
17.98911
10
9.92839
20
18.00118
10
9.97385
20
18.01764
10
10.01710
20
18.03826
10
10.05789
20
18.06278
10
10.09598
20
18.09096
10
10.13112
20
18.12256
10
10.16306
20
18.15733
10
10.19154
20
18.19502
10
10.21632
20
18.23539
10
10.23716
20
18.27818
10
10.25380
20
18.32316
10
10.26599
20
18.37008
10
10.27349
20
18.41869
10
10.27604
20
18.46875
10
10.27349
20
18.51881
10
10.26599
20
18.56742
10
10.25380
20
18.61434
10
10.23716
20
18.65932
10
10.21632
20
18.70211
10
10.19154
20
18.74248
10
10.16306
20
18.78017
10
10.13112
20
18.81494
10
10.09598
20
18.84654
10
10.05789
20
18.87472
10
10.01710
20
18.89924
10
9.97385
20
18.91986
10
9.92839
20
18.93632
10
9.88097
20
18.94839
10
9.83184
20
18.95581
10
9.78125
20
18.95833
0
LWPOLYLINE
8
INSIDE_Holes_6_apart
90
65
70
1
10
14.27083
20
18.95833
10
14.22024
20
18.95581
10
14.17112
20
18.94839
10
14.12370
20
18.93632
10
14.07824
20
18.91986
10
14.03499
20
18.89924
10
13.99419
20
18.87472
10
13.95610
20
18.84654
10
13.92096
20
18.81494
10
13.88903
20
18.78017
10
13.86054
20
18.74248
10
13.83576
20
18.70211
10
13.81492
20
18.65932
10
13.79829
20
18.61434
10
13.78609
20
18.56742
10
13.77860
20
18.51881
10
13.77604
20
18.46875
10
13.77860
20
18.41869
10
13.78609
20
18.37008
10
13.79829
20
18.32316
10
13.81492
20
18.27818
10
13.83576
20
18.23539
10
13.86054
20
18.19502
10
13.88903
20
18.15733
10
13.92096
20
18.12256
10
13.95610
20
18.09096
10
13.99419
20
18.06278
10
14.03499
20
18.03826
10
14.07824
20
18.01764
10
14.12370
20
18.00118
10
14.17112
20
17.98911
10
14.22024
20
17.98169
10
14.27083
20
17.97917
10
14.32142
20
17.98169
10
14.37055
20
17.98911
10
14.41797
20
18.00118
10
14.46343
20
18.01764
10
14.50668
20
18.03826
10
14.54748
20
18.06278
10
14.58557
20
18.09096
10
14.62070
20
18.12256
10
14.65264
20
18.15733
10
14.68112
20
18.19502
10
14.70591
20
18.23539
10
14.72674
20
18.27818
10
14.74338
20
18.32316
10
14.75557
20
18.37008
10
14.76307
20
18.41869
10
14.76562
20
18.46875
10
14.76307
20
18.51881
10
14.75557
20
18.56742
10
14.74338
20
18.61434
10
14.72674
20
18.65932
10
14.70591
20
18.70211
10
14.68112
20
18.74248
10
14.65264
20
18.78017
10
14.62070
20
18.81494
10
14.58557
20
18.84654
10
14.54748
20
18.87472
10
14.50668
20
18.89924
10
14.46343
20
18.91986
10
14.41797
20
18.93632
10
14.37055
20
18.94839
10
14.32142
20
18.95581
10
14.27083
20
18.95833
0
LWPOLYLINE
8
INSIDE_Holes_6_apart
90
65
70
1
10
18.76042
20
18.95833
10
18.70983
20
18.95581
10
18.66070
20
18.94839
10
18.61328
20
18.93632
10
18.56782
20
18.91986
10
18.52457
20
18.89924
10
18.48377
20
18.87472
10
18.44568
20
18.84654
10
18.41055
20
18.81494
10
18.37861
20
18.78017
10
18.35013
20
18.74248
10
18.32534
20
18.70211
10
18.30451
20
18.65932
10
18.28787
20
18.61434
10
18.27568
20
18.56742
10
18.26818
20
18.51881
10
18.26562
20
18.46875
10
18.26818
20
18.41869
10
18.27568
20
18.37008
10
18.28787
20
18.32316
10
18.30451
20
18.27818
10
18.32534
20
18.23539
10
18.35013
20
18.19502
10
18.37861
20
18.15733
10
18.41055
20
18.12256
10
18.44568
20
18.09096
10
18.48377
20
18.06278
10
18.52457
20
18.03826
10
18.56782
20
18.01764
10
18.61328
20
18.00118
10
18.66070
20
17.98911
10
18.70983
20
17.98169
10
18.76042
20
17.97917
10
18.81101
20
17.98169
10
18.86013
20
17.98911
10
18.90755
20
18.00118
10
18.95301
20
18.01764
10
18.99626
20
18.03826
10
19.03706
20
18.06278
10
19.07515
20
18.09096
10
19.11029
20
18.12256
10
19.14222
20
18.15733
10
19.17071
20
18.19502
10
19.19549
20
18.23539
10
19.21633
20
18.27818
10
19.23296
20
18.32316
10
19.24516
20
18.37008
10
19.25265
20
18.41869
10
19.25521
20
18.46875
10
19.25265
20
18.51881
10
19.24516
20
18.56742
10
19.23296
20
18.61434
10
19.21633
20
18.65932
10
19.19549
20
18.70211
10
19.17071
20
18.74248
10
19.14222
20
18.78017
10
19.11029
20
18.81494
10
19.07515
20
18.84654
10
19.03706
20
18.87472
10
18.99626
20
18.89924
10
18.95301
20
18.91986
10
18.90755
20
18.93632
10
18.86013
20
18.94839
10
18.81101
20
18.95581
10
18.76042
20
18.95833
0
LWPOLYLINE
8
INSIDE_Holes_6_apart
90
65
70
1
10
23.25000
20
18.95833
10
23.19941
20
18.95581
10
23.15028
20
18.94839
10
23.10286
20
18.93632
10
23.05740
20
18.91986
10
23.01415
20
18.89924
10
22.97336
20
18.87472
10
22.93527
20
18.84654
10
22.90013
20
18.81494
10
22.86819
20
18.78017
10
22.83971
20
18.74248
10
22.81493
20
18.70211
10
22.79409
20
18.65932
10
22.77745
20
18.61434
10
22.76526
20
18.56742
10
22.75776
20
18.51881
10
22.75521
20
18.46875
10
22.75776
20
18.41869
10
22.76526
20
18.37008
10
22.77745
20
18.32316
10
22.79409
20
18.27818
10
22.81493
20
18.23539
10
22.83971
20
18.19502
10
22.86819
20
18.15733
10
22.90013
20
18.12256
10
22.93527
20
18.09096
10
22.97336
20
18.06278
10
23.01415
20
18.03826
10
23.05740
20
18.01764
10
23.10286
20
18.00118
10
23.15028
20
17.98911
10
23.19941
20
17.98169
10
23.25000
20
17.97917
10
23.30059
20
17.98169
10
23.34972
20
17.98911
10
23.39714
20
18.00118
10
23.44260
20
18.01764
10
23.48585
20
18.03826
10
23.52664
20
18.06278
10
23.56473
20
18.09096
10
23.59987
20
18.12256
10
23.63181
20
18.15733
10
23.66029
20
18.19502
10
23.68507
20
18.23539
10
23.70591
20
18.27818
10
23.72255
20
18.32316
10
23.73474
20
18.37008
10
23.74224
20
18.41869
10
23.74479
20
18.46875
10
23.74224
20
18.51881
10
23.73474
20
18.56742
10
23.72255
20
18.61434
10
23.70591
20
18.65932
10
23.68507
20
18.70211
10
23.66029
20
18.74248
10
23.63181
20
18.78017
10
23.59987
20
18.81494
10
23.56473
20
18.84654
10
23.52664
20
18.87472
10
23.48585
20
18.89924
10
23.44260
20
18.91986
10
23.39714
20
18.93632
10
23.34972
20
18.94839
10
23.30059
20
18.95581
10
23.25000
20
18.95833
0
LWPOLYLINE
8
INSIDE_Holes_6_apart
90
65
70
1
10
27.73958
20
18.95833
10
27.68899
20
18.95581
10
27.63987
20
18.94839
10
27.59245
20
18.93632
10
27.54699
20
18.91986
10
27.50374
20
18.89924
10
27.46294
20
18.87472
10
27.42485
20
18.84654
10
27.38971
20
18.81494
10
27.35778
20
18.78017
10
27.32929
20
18.74248
10
27.30451
20
18.70211
10
27.28367
20
18.65932
10
27.26704
20
18.61434
10
27.25484
20
18.56742
10
27.24735
20
18.51881
10
27.24479
20
18.46875
10
27.24735
20
18.41869
10
27.25484
20
18.37008
10
27.26704
20
18.32316
10
27.28367
20
18.27818
10
27.30451
20
18.23539
10
27.32929
20
18.19502
10
27.35778
20
18.15733
10
27.38971
20
18.12256
10
27.42485
20
18.09096
10
27.46294
20
18.06278
10
27.50374
20
18.03826
10
27.54699
20
18.01764
10
27.59245
20
18.00118
10
27.63987
20
17.98911
10
27.68899
20
17.98169
10
27.73958
20
17.97917
10
27.79017
20
17.98169
10
27.83930
20
17.98911
10
27.88672
20
18.00118
10
27.93218
20
18.01764
10
27.97543
20
18.03826
10
28.01623
20
18.06278
10
28.05432
20
18.09096
10
28.08945
20
18.12256
10
28.12139
20
18.15733
10
28.14987
20
18.19502
10
28.17466
20
18.23539
10
28.19549
20
18.27818
10
28.21213
20
18.32316
10
28.22432
20
18.37008
10
28.23182
20
18.41869
10
28.23437
20
18.46875
10
28.23182
20
18.51881
10
28.22432
20
18.56742
10
28.21213
20
18.61434
10
28.19549
20
18.65932
10
28.17466
20
18.70211
10
28.14987
20
18.74248
10
28.12139
20
18.78017
10
28.08945
20
18.81494
10
28.05432
20
18.84654
10
28.01623
20
18.87472
10
27.97543
20
18.89924
10
27.93218
20
18.91986
10
27.88672
20
18.93632
10
27.83930
20
18.94839
10
27.79017
20
18.95581
10
27.73958
20
18.95833
0
LWPOLYLINE
8
INSIDE_Holes_6_apart
90
65
70
1
10
32.22917
20
18.95833
10
32.17858
20
18.95581
10
32.12945
20
18.94839
10
32.08203
20
18.93632
10
32.03657
20
18.91986
10
31.99332
20
18.89924
10
31.95252
20
18.87472
10
31.91443
20
18.84654
10
31.87930
20
18.81494
10
31.84736
20
18.78017
10
31.81888
20
18.74248
10
31.79409
20
18.70211
10
31.77326
20
18.65932
10
31.75662
20
18.61434
10
31.74443
20
18.56742
10
31.73693
20
18.51881
10
31.73437
20
18.46875
10
31.73693
20
18.41869
10
31.74443
20
18.37008
10
31.75662
20
18.32316
10
31.77326
20
18.27818
10
31.79409
20
18.23539
10
31.81888
20
18.19502
10
31.84736
20
18.15733
10
31.87930
20
18.12256
10
31.91443
20
18.09096
10
31.95252
20
18.06278
10
31.99332
20
18.03826
10
32.03657
20
18.01764
10
32.08203
20
18.00118
10
32.12945
20
17.98911
10
32.17858
20
17.98169
10
32.22917
20
17.97917
10
32.27976
20
17.98169
10
32.32888
20
17.98911
10
32.37630
20
18.00118
10
32.42176
20
18.01764
10
32.46501
20
18.03826
10
32.50581
20
18.06278
10
32.54390
20
18.09096
10
32.57904
20
18.12256
10
32.61097
20
18.15733
10
32.63946
20
18.19502
10
32.66424
20
18.23539
10
32.68508
20
18.27818
10
32.70171
20
18.32316
10
32.71391
20
18.37008
10
32.72140
20
18.41869
10
32.72396
20
18.46875
10
32.72140
20
18.51881
10
32.71391
20
18.56742
10
32.70171
20
18.61434
10
32.68508
20
18.65932
10
32.66424
20
18.70211
10
32.63946
20
18.74248
10
32.61097
20
18.78017
10
32.57904
20
18.81494
10
32.54390
20
18.84654
10
32.50581
20
18.87472
10
32.46501
20
18.89924
10
32.42176
20
18.91986
10
32.37630
20
18.93632
10
32.32888
20
18.94839
10
32.27976
20
18.95581
10
32.22917
20
18.95833
0
LWPOLYLINE
8
INSIDE_Holes_6_apart
90
65
70
1
10
37.21875
20
5.52083
10
37.16816
20
5.51831
10
37.11903
20
5.51089
10
37.07161
20
5.49882
10
37.02615
20
5.48236
10
36.98290
20
5.46174
10
36.94211
20
5.43722
10
36.90402
20
5.40904
10
36.86888
20
5.37744
10
36.83694
20
5.34267
10
36.80846
20
5.30498
10
36.78368
20
5.26461
10
36.76284
20
5.22182
10
36.74620
20
5.17684
10
36.73401
20
5.12992
10
36.72651
20
5.08131
10
36.72396
20
5.03125
10
36.72651
20
4.98119
10
36.73401
20
4.93258
10
36.74620
20
4.88566
10
36.76284
20
4.84068
10
36.78368
20
4.79789
10
36.80846
20
4.75752
10
36.83694
20
4.71983
10
36.86888
20
4.68506
10
36.90402
20
4.65346
10
36.94211
20
4.62528
10
36.98290
20
4.60076
10
37.02615
20
4.58014
10
37.07161
20
4.56368
10
37.11903
20
4.55161
10
37.16816
20
4.54419
10
37.21875
20
4.54167
10
37.26934
20
4.54419
10
37.31847
20
4.55161
10
37.36589
20
4.56368
10
37.41135
20
4.58014
10
37.45460
20
4.60076
10
37.49539
20
4.62528
10
37.53348
20
4.65346
10
37.56862
20
4.68506
10
37.60056
20
4.71983
10
37.62904
20
4.75752
10
37.65382
20
4.79789
10
37.67466
20
4.84068
10
37.69130
20
4.88566
10
37.70349
20
4.93258
10
37.71099
20
4.98119
10
37.71354
20
5.03125
10
37.71099
20
5.08131
10
37.70349
20
5.12992
10
37.69130
20
5.17684
10
37.67466
20
5.22182
10
37.65382
20
5.26461
10
37.62904
20
5.30498
10
37.60056
20
5.34267
10
37.56862
20
5.37744
10
37.53348
20
5.40904
10
37.49539
20
5.43722
10
37.45460
20
5.46174
10
37.41135
20
5.48236
10
37.36589
20
5.49882
10
37.31847
20
5.51089
10
37.26934
20
5.51831
10
37.21875
20
5.52083
0
LWPOLYLINE
8
INSIDE_Holes_6_apart
90
65
70
1
10
37.21875
20
10.00000
10
37.16816
20
9.99747
10
37.11903
20
9.99005
10
37.07161
20
9.97799
10
37.02615
20
9.96153
10
36.98290
20
9.94091
10
36.94211
20
9.91639
10
36.90402
20
9.88820
10
36.86888
20
9.85660
10
36.83694
20
9.82184
10
36.80846
20
9.78415
10
36.78368
20
9.74378
10
36.76284
20
9.70098
10
36.74620
20
9.65600
10
36.73401
20
9.60908
10
36.72651
20
9.56047
10
36.72396
20
9.51042
10
36.72651
20
9.46036
10
36.73401
20
9.41175
10
36.74620
20
9.36483
10
36.76284
20
9.31985
10
36.78368
20
9.27705
10
36.80846
20
9.23669
10
36.83694
20
9.19900
10
36.86888
20
9.16423
10
36.90402
20
9.13263
10
36.94211
20
9.10445
10
36.98290
20
9.07992
10
37.02615
20
9.05931
10
37.07161
20
9.04284
10
37.11903
20
9.03078
10
37.16816
20
9.02336
10
37.21875
20
9.02083
10
37.26934
20
9.02336
10
37.31847
20
9.03078
10
37.36589
20
9.04284
10
37.41135
20
9.05931
10
37.45460
20
9.07992
10
37.49539
20
9.10445
10
37.53348
20
9.13263
10
37.56862
20
9.16423
10
37.60056
20
9.19900
10
37.62904
20
9.23669
10
37.65382
20
9.27705
10
37.67466
20
9.31985
10
37.69130
20
9.36483
10
37.70349
20
9.41175
10
37.71099
20
9.46036
10
37.71354
20
9.51042
10
37.71099
20
9.56047
10
37.70349
20
9.60908
10
37.69130
20
9.65600
10
37.67466
20
9.70098
10
37.65382
20
9.74378
10
37.62904
20
9.78415
10
37.60056
20
9.82184
10
37.56862
20
9.85660
10
37.53348
20
9.88820
10
37.49539
20
9.91639
10
37.45460
20
9.94091
10
37.41135
20
9.96153
10
37.36589
20
9.97799
10
37.31847
20
9.99005
10
37.26934
20
9.99747
10
37.21875
20
10.00000
0
LWPOLYLINE
8
INSIDE_Holes_6_apart
90
65
70
1
10
37.21875
20
14.47917
10
37.16816
20
14.47664
10
37.11903
20
14.46922
10
37.07161
20
14.45716
10
37.02615
20
14.44069
10
36.98290
20
14.42008
10
36.94211
20
14.39555
10
36.90402
20
14.36737
10
36.86888
20
14.33577
10
36.83694
20
14.30100
10
36.80846
20
14.26331
10
36.78368
20
14.22295
10
36.76284
20
14.18015
10
36.74620
20
14.13517
10
36.73401
20
14.08825
10
36.72651
20
14.03964
10
36.72396
20
13.98958
10
36.72651
20
13.93953
10
36.73401
20
13.89092
10
36.74620
20
13.84400
10
36.76284
20
13.79902
10
36.78368
20
13.75622
10
36.80846
20
13.71585
10
36.83694
20
13.67816
10
36.86888
20
13.64340
10
36.90402
20
13.61180
10
36.94211
20
13.58361
10
36.98290
20
13.55909
10
37.02615
20
13.53847
10
37.07161
20
13.52201
10
37.11903
20
13.50995
10
37.16816
20
13.50253
10
37.21875
20
13.50000
10
37.26934
20
13.50253
10
37.31847
20
13.50995
10
37.36589
20
13.52201
10
37.41135
20
13.53847
10
37.45460
20
13.55909
10
37.49539
20
13.58361
10
37.53348
20
13.61180
10
37.56862
20
13.64340
10
37.60056
20
13.67816
10
37.62904
20
13.71585
10
37.65382
20
13.75622
10
37.67466
20
13.79902
10
37.69130
20
13.84400
10
37.70349
20
13.89092
10
37.71099
20
13.93953
10
37.71354
20
13.98958
10
37.71099
20
14.03964
10
37.70349
20
14.08825
10
37.69130
20
14.13517
10
37.67466
20
14.18015
10
37.65382
20
14.22295
10
37.62904
20
14.26331
10
37.60056
20
14.30100
10
37.56862
20
14.33577
10
37.53348
20
14.36737
10
37.49539
20
14.39555
10
37.45460
20
14.42008
10
37.41135
20
14.44069
10
37.36589
20
14.45716
10
37.31847
20
14.46922
10
37.26934
20
14.47664
10
37.21875
20
14.47917
0
LWPOLYLINE
8
INSIDE_Holes_6_apart
90
65
70
1
10
37.21875
20
18.95833
10
37.16816
20
18.95581
10
37.11903
20
18.94839
10
37.07161
20
18.93632
10
37.02615
20
18.91986
10
36.98290
20
18.89924
10
36.94211
20
18.87472
10
36.90402
20
18.84654
10
36.86888
20
18.81494
10
36.83694
20
18.78017
10
36.80846
20
18.74248
10
36.78368
20
18.70211
10
36.76284
20
18.65932
10
36.74620
20
18.61434
10
36.73401
20
18.56742
10
36.72651
20
18.51881
10
36.72396
20
18.46875
10
36.72651
20
18.41869
10
36.73401
20
18.37008
10
36.74620
20
18.32316
10
36.76284
20
18.27818
10
36.78368
20
18.23539
10
36.80846
20
18.19502
10
36.83694
20
18.15733
10
36.86888
20
18.12256
10
36.90402
20
18.09096
10
36.94211
20
18.06278
10
36.98290
20
18.03826
10
37.02615
20
18.01764
10
37.07161
20
18.00118
10
37.11903
20
17.98911
10
37.16816
20
17.98169
10
37.21875
20
17.97917
10
37.26934
20
17.98169
10
37.31847
20
17.98911
10
37.36589
20
18.00118
10
37.41135
20
18.01764
10
37.45460
20
18.03826
10
37.49539
20
18.06278
10
37.53348
20
18.09096
10
37.56862
20
18.12256
10
37.60056
20
18.15733
10
37.62904
20
18.19502
10
37.65382
20
18.23539
10
37.67466
20
18.27818
10
37.69130
20
18.32316
10
37.70349
20
18.37008
10
37.71099
20
18.41869
10
37.71354
20
18.46875
10
37.71099
20
18.51881
10
37.70349
20
18.56742
10
37.69130
20
18.61434
10
37.67466
20
18.65932
10
37.65382
20
18.70211
10
37.62904
20
18.74248
10
37.60056
20
18.78017
10
37.56862
20
18.81494
10
37.53348
20
18.84654
10
37.49539
20
18.87472
10
37.45460
20
18.89924
10
37.41135
20
18.91986
10
37.36589
20
18.93632
10
37.31847
20
18.94839
10
37.26934
20
18.95581
10
37.21875
20
18.95833
0
LWPOLYLINE
8
INSIDE_Holes_6_apart
90
65
70
1
10
42.20833
20
5.52083
10
42.15774
20
5.51831
10
42.10862
20
5.51089
10
42.06120
20
5.49882
10
42.01574
20
5.48236
10
41.97249
20
5.46174
10
41.93169
20
5.43722
10
41.89360
20
5.40904
10
41.85846
20
5.37744
10
41.82653
20
5.34267
10
41.79804
20
5.30498
10
41.77326
20
5.26461
10
41.75242
20
5.22182
10
41.73579
20
5.17684
10
41.72359
20
5.12992
10
41.71610
20
5.08131
10
41.71354
20
5.03125
10
41.71610
20
4.98119
10
41.72359
20
4.93258
10
41.73579
20
4.88566
10
41.75242
20
4.84068
10
41.77326
20
4.79789
10
41.79804
20
4.75752
10
41.82653
20
4.71983
10
41.85846
20
4.68506
10
41.89360
20
4.65346
10
41.93169
20
4.62528
10
41.97249
20
4.60076
10
42.01574
20
4.58014
10
42.06120
20
4.56368
10
42.10862
20
4.55161
10
42.15774
20
4.54419
10
42.20833
20
4.54167
10
42.25892
20
4.54419
10
42.30805
20
4.55161
10
42.35547
20
4.56368
10
42.40093
20
4.58014
10
42.44418
20
4.60076
10
42.48498
20
4.62528
10
42.52307
20
4.65346
10
42.55820
20
4.68506
10
42.59014
20
4.71983
10
42.61862
20
4.75752
10
42.64341
20
4.79789
10
42.66424
20
4.84068
10
42.68088
20
4.88566
10
42.69307
20
4.93258
10
42.70057
20
4.98119
10
42.70312
20
5.03125
10
42.70057
20
5.08131
10
42.69307
20
5.12992
10
42.68088
20
5.17684
10
42.66424
20
5.22182
10
42.64341
20
5.26461
10
42.61862
20
5.30498
10
42.59014
20
5.34267
10
42.55820
20
5.37744
10
42.52307
20
5.40904
10
42.48498
20
5.43722
10
42.44418
20
5.46174
10
42.40093
20
5.48236
10
42.35547
20
5.49882
10
42.30805
20
5.51089
10
42.25892
20
5.51831
10
42.20833
20
5.52083
0
LWPOLYLINE
8
INSIDE_Holes_6_apart
90
65
70
1
10
42.20833
20
10.00000
10
42.15774
20
9.99747
10
42.10862
20
9.99005
10
42.06120
20
9.97799
10
42.01574
20
9.96153
10
41.97249
20
9.94091
10
41.93169
20
9.91639
10
41.89360
20
9.88820
10
41.85846
20
9.85660
10
41.82653
20
9.82184
10
41.79804
20
9.78415
10
41.77326
20
9.74378
10
41.75242
20
9.70098
10
41.73579
20
9.65600
10
41.72359
20
9.60908
10
41.71610
20
9.56047
10
41.71354
20
9.51042
10
41.71610
20
9.46036
10
41.72359
20
9.41175
10
41.73579
20
9.36483
10
41.75242
20
9.31985
10
41.77326
20
9.27705
10
41.79804
20
9.23669
10
41.82653
20
9.19900
10
41.85846
20
9.16423
10
41.89360
20
9.13263
10
41.93169
20
9.10445
10
41.97249
20
9.07992
10
42.01574
20
9.05931
10
42.06120
20
9.04284
10
42.10862
20
9.03078
10
42.15774
20
9.02336
10
42.20833
20
9.02083
10
42.25892
20
9.02336
10
42.30805
20
9.03078
10
42.35547
20
9.04284
10
42.40093
20
9.05931
10
42.44418
20
9.07992
10
42.48498
20
9.10445
10
42.52307
20
9.13263
10
42.55820
20
9.16423
10
42.59014
20
9.19900
10
42.61862
20
9.23669
10
42.64341
20
9.27705
10
42.66424
20
9.31985
10
42.68088
20
9.36483
10
42.69307
20
9.41175
10
42.70057
20
9.46036
10
42.70312
20
9.51042
10
42.70057
20
9.56047
10
42.69307
20
9.60908
10
42.68088
20
9.65600
10
42.66424
20
9.70098
10
42.64341
20
9.74378
10
42.61862
20
9.78415
10
42.59014
20
9.82184
10
42.55820
20
9.85660
10
42.52307
20
9.88820
10
42.48498
20
9.91639
10
42.44418
20
9.94091
10
42.40093
20
9.96153
10
42.35547
20
9.97799
10
42.30805
20
9.99005
10
42.25892
20
9.99747
10
42.20833
20
10.00000
0
LWPOLYLINE
8
INSIDE_Holes_6_apart
90
65
70
1
10
42.20833
20
14.47917
10
42.15774
20
14.47664
10
42.10862
20
14.46922
10
42.06120
20
14.45716
10
42.01574
20
14.44069
10
41.97249
20
14.42008
10
41.93169
20
14.39555
10
41.89360
20
14.36737
10
41.85846
20
14.33577
10
41.82653
20
14.30100
10
41.79804
20
14.26331
10
41.77326
20
14.22295
10
41.75242
20
14.18015
10
41.73579
20
14.13517
10
41.72359
20
14.08825
10
41.71610
20
14.03964
10
41.71354
20
13.98958
10
41.71610
20
13.93953
10
41.72359
20
13.89092
10
41.73579
20
13.84400
10
41.75242
20
13.79902
10
41.77326
20
13.75622
10
41.79804
20
13.71585
10
41.82653
20
13.67816
10
41.85846
20
13.64340
10
41.89360
20
13.61180
10
41.93169
20
13.58361
10
41.97249
20
13.55909
10
42.01574
20
13.53847
10
42.06120
20
13.52201
10
42.10862
20
13.50995
10
42.15774
20
13.50253
10
42.20833
20
13.50000
10
42.25892
20
13.50253
10
42.30805
20
13.50995
10
42.35547
20
13.52201
10
42.40093
20
13.53847
10
42.44418
20
13.55909
10
42.48498
20
13.58361
10
42.52307
20
13.61180
10
42.55820
20
13.64340
10
42.59014
20
13.67816
10
42.61862
20
13.71585
10
42.64341
20
13.75622
10
42.66424
20
13.79902
10
42.68088
20
13.84400
10
42.69307
20
13.89092
10
42.70057
20
13.93953
10
42.70312
20
13.98958
10
42.70057
20
14.03964
10
42.69307
20
14.08825
10
42.68088
20
14.13517
10
42.66424
20
14.18015
10
42.64341
20
14.22295
10
42.61862
20
14.26331
10
42.59014
20
14.30100
10
42.55820
20
14.33577
10
42.52307
20
14.36737
10
42.48498
20
14.39555
10
42.44418
20
14.42008
10
42.40093
20
14.44069
10
42.35547
20
14.45716
10
42.30805
20
14.46922
10
42.25892
20
14.47664
10
42.20833
20
14.47917
0
LWPOLYLINE
8
INSIDE_Holes_6_apart
90
65
70
1
10
42.20833
20
18.95833
10
42.15774
20
18.95581
10
42.10862
20
18.94839
10
42.06120
20
18.93632
10
42.01574
20
18.91986
10
41.97249
20
18.89924
10
41.93169
20
18.87472
10
41.89360
20
18.84654
10
41.85846
20
18.81494
10
41.82653
20
18.78017
10
41.79804
20
18.74248
10
41.77326
20
18.70211
10
41.75242
20
18.65932
10
41.73579
20
18.61434
10
41.72359
20
18.56742
10
41.71610
20
18.51881
10
41.71354
20
18.46875
10
41.71610
20
18.41869
10
41.72359
20
18.37008
10
41.73579
20
18.32316
10
41.75242
20
18.27818
10
41.77326
20
18.23539
10
41.79804
20
18.19502
10
41.82653
20
18.15733
10
41.85846
20
18.12256
10
41.89360
20
18.09096
10
41.93169
20
18.06278
10
41.97249
20
18.03826
10
42.01574
20
18.01764
10
42.06120
20
18.00118
10
42.10862
20
17.98911
10
42.15774
20
17.98169
10
42.20833
20
17.97917
10
42.25892
20
17.98169
10
42.30805
20
17.98911
10
42.35547
20
18.00118
10
42.40093
20
18.01764
10
42.44418
20
18.03826
10
42.48498
20
18.06278
10
42.52307
20
18.09096
10
42.55820
20
18.12256
10
42.59014
20
18.15733
10
42.61862
20
18.19502
10
42.64341
20
18.23539
10
42.66424
20
18.27818
10
42.68088
20
18.32316
10
42.69307
20
18.37008
10
42.70057
20
18.41869
10
42.70312
20
18.46875
10
42.70057
20
18.51881
10
42.69307
20
18.56742
10
42.68088
20
18.61434
10
42.66424
20
18.65932
10
42.64341
20
18.70211
10
42.61862
20
18.74248
10
42.59014
20
18.78017
10
42.55820
20
18.81494
10
42.52307
20
18.84654
10
42.48498
20
18.87472
10
42.44418
20
18.89924
10
42.40093
20
18.91986
10
42.35547
20
18.93632
10
42.30805
20
18.94839
10
42.25892
20
18.95581
10
42.20833
20
18.95833
0
ENDSEC
0
EOF