0
SECTION
2
ENTITIES
0
LWPOLYLINE
8
OUTSIDE
90
5
70
1
10
0.00000
20
0.00000
10
35.50000
20
0.00000
10
35.50000
20
71.50000
10
0.00000
20
71.50000
10
0.00000
20
0.00000
0
LWPOLYLINE
8
INSIDE_Holes_6_apart
90
65
70
1
10
6.54167
20
41.73437
10
6.53914
20
41.78496
10
6.53172
20
41.83409
10
6.51966
20
41.88151
10
6.50319
20
41.92697
10
6.48258
20
41.97022
10
6.45805
20
42.01102
10
6.42987
20
42.04911
10
6.39827
20
42.08425
10
6.36350
20
42.11618
10
6.32581
20
42.14466
10
6.28545
20
42.16945
10
6.24265
20
42.19028
10
6.19767
20
42.20692
10
6.15075
20
42.21911
10
6.10214
20
42.22661
10
6.05208
20
42.22917
10
6.00203
20
42.22661
10
5.95342
20
42.21911
10
5.90650
20
42.20692
10
5.86152
20
42.19028
10
5.81872
20
42.16945
10
5.77835
20
42.14466
10
5.74066
20
42.11618
10
5.70590
20
42.08425
10
5.67430
20
42.04911
10
5.64611
20
42.01102
10
5.62159
20
41.97022
10
5.60097
20
41.92697
10
5.58451
20
41.88151
10
5.57245
20
41.83409
10
5.56503
20
41.78496
10
5.56250
20
41.73437
10
5.56503
20
41.68379
10
5.57245
20
41.63466
10
5.58451
20
41.58724
10
5.60097
20
41.54178
10
5.62159
20
41.49853
10
5.64611
20
41.45773
10
5.67430
20
41.41964
10
5.70590
20
41.38450
10
5.74066
20
41.35257
10
5.77835
20
41.32409
10
5.81872
20
41.29930
10
5.86152
20
41.27847
10
5.90650
20
41.26183
10
5.95342
20
41.24964
10
6.00203
20
41.24214
10
6.05208
20
41.23958
10
6.10214
20
41.24214
10
6.15075
20
41.24964
10
6.19767
20
41.26183
10
6.24265
20
41.27847
10
6.28545
20
41.29930
10
6.32581
20
41.32409
10
6.36350
20
41.35257
10
6.39827
20
41.38450
10
6.42987
20
41.41964
10
6.45805
20
41.45773
10
6.48258
20
41.49853
10
6.50319
20
41.54178
10
6.51966
20
41.58724
10
6.53172
20
41.63466
10
6.53914
20
41.68379
10
6.54167
20
41.73437
0
LWPOLYLINE
8
INSIDE_Holes_6_apart
90
65
70
1
10
6.54167
20
37.24479
10
6.53914
20
37.29538
10
6.53172
20
37.34451
10
6.51966
20
37.39193
10
6.50319
20
37.43739
10
6.48258
20
37.48064
10
6.45805
20
37.52143
10
6.42987
20
37.55953
10
6.39827
20
37.59466
10
6.36350
20
37.62660
10
6.32581
20
37.65508
10
6.28545
20
37.67986
10
6.24265
20
37.70070
10
6.19767
20
37.71734
10
6.15075
20
37.72953
10
6.10214
20
37.73703
10
6.05208
20
37.73958
10
6.00203
20
37.73703
10
5.95342
20
37.72953
10
5.90650
20
37.71734
10
5.86152
20
37.70070
10
5.81872
20
37.67986
10
5.77835
20
37.65508
10
5.74066
20
37.62660
10
5.70590
20
37.59466
10
5.67430
20
37.55953
10
5.64611
20
37.52143
10
5.62159
20
37.48064
10
5.60097
20
37.43739
10
5.58451
20
37.39193
10
5.57245
20
37.34451
10
5.56503
20
37.29538
10
5.56250
20
37.24479
10
5.56503
20
37.19420
10
5.57245
20
37.14507
10
5.58451
20
37.09766
10
5.60097
20
37.05220
10
5.62159
20
37.00894
10
5.64611
20
36.96815
10
5.67430
20
36.93006
10
5.70590
20
36.89492
10
5.74066
20
36.86299
10
5.77835
20
36.83450
10
5.81872
20
36.80972
10
5.86152
20
36.78888
10
5.90650
20
36.77224
10
5.95342
20
36.76005
10
6.00203
20
36.75255
10
6.05208
20
36.75000
10
6.10214
20
36.75255
10
6.15075
20
36.76005
10
6.19767
20
36.77224
10
6.24265
20
36.78888
10
6.28545
20
36.80972
10
6.32581
20
36.83450
10
6.36350
20
36.86299
10
6.39827
20
36.89492
10
6.42987
20
36.93006
10
6.45805
20
36.96815
10
6.48258
20
37.00894
10
6.50319
20
37.05220
10
6.51966
20
37.09766
10
6.53172
20
37.14507
10
6.53914
20
37.19420
10
6.54167
20
37.24479
0
LWPOLYLINE
8
INSIDE_Holes_6_apart
90
65
70
1
10
6.54167
20
32.75521
10
6.53914
20
32.80580
10
6.53172
20
32.85493
10
6.51966
20
32.90234
10
6.50319
20
32.94780
10
6.48258
20
32.99106
10
6.45805
20
33.03185
10
6.42987
20
33.06994
10
6.39827
20
33.10508
10
6.36350
20
33.13701
10
6.32581
20
33.16550
10
6.28545
20
33.19028
10
6.24265
20
33.21112
10
6.19767
20
33.22776
10
6.15075
20
33.23995
10
6.10214
20
33.24745
10
6.05208
20
33.25000
10
6.00203
20
33.24745
10
5.95342
20
33.23995
10
5.90650
20
33.22776
10
5.86152
20
33.21112
10
5.81872
20
33.19028
10
5.77835
20
33.16550
10
5.74066
20
33.13701
10
5.70590
20
33.10508
10
5.67430
20
33.06994
10
5.64611
20
33.03185
10
5.62159
20
32.99106
10
5.60097
20
32.94780
10
5.58451
20
32.90234
10
5.57245
20
32.85493
10
5.56503
20
32.80580
10
5.56250
20
32.75521
10
5.56503
20
32.70462
10
5.57245
20
32.65549
10
5.58451
20
32.60807
10
5.60097
20
32.56261
10
5.62159
20
32.51936
10
5.64611
20
32.47857
10
5.67430
20
32.44047
10
5.70590
20
32.40534
10
5.74066
20
32.37340
10
5.77835
20
32.34492
10
5.81872
20
32.32014
10
5.86152
20
32.29930
10
5.90650
20
32.28266
10
5.95342
20
32.27047
10
6.00203
20
32.26297
10
6.05208
20
32.26042
10
6.10214
20
32.26297
10
6.15075
20
32.27047
10
6.19767
20
32.28266
10
6.24265
20
32.29930
10
6.28545
20
32.32014
10
6.32581
20
32.34492
10
6.36350
20
32.37340
10
6.39827
20
32.40534
10
6.42987
20
32.44047
10
6.45805
20
32.47857
10
6.48258
20
32.51936
10
6.50319
20
32.56261
10
6.51966
20
32.60807
10
6.53172
20
32.65549
10
6.53914
20
32.70462
10
6.54167
20
32.75521
0
LWPOLYLINE
8
INSIDE_Holes_6_apart
90
65
70
1
10
6.54167
20
28.26562
10
6.53914
20
28.31621
10
6.53172
20
28.36534
10
6.51966
20
28.41276
10
6.50319
20
28.45822
10
6.48258
20
28.50147
10
6.45805
20
28.54227
10
6.42987
20
28.58036
10
6.39827
20
28.61550
10
6.36350
20
28.64743
10
6.32581
20
28.67591
10
6.28545
20
28.70070
10
6.24265
20
28.72153
10
6.19767
20
28.73817
10
6.15075
20
28.75036
10
6.10214
20
28.75786
10
6.05208
20
28.76042
10
6.00203
20
28.75786
10
5.95342
20
28.75036
10
5.90650
20
28.73817
10
5.86152
20
28.72153
10
5.81872
20
28.70070
10
5.77835
20
28.67591
10
5.74066
20
28.64743
10
5.70590
20
28.61550
10
5.67430
20
28.58036
10
5.64611
20
28.54227
10
5.62159
20
28.50147
10
5.60097
20
28.45822
10
5.58451
20
28.41276
10
5.57245
20
28.36534
10
5.56503
20
28.31621
10
5.56250
20
28.26562
10
5.56503
20
28.21504
10
5.57245
20
28.16591
10
5.58451
20
28.11849
10
5.60097
20
28.07303
10
5.62159
20
28.02978
10
5.64611
20
27.98898
10
5.67430
20
27.95089
10
5.70590
20
27.91575
10
5.74066
20
27.88382
10
5.77835
20
27.85534
10
5.81872
20
27.83055
10
5.86152
20
27.80972
10
5.90650
20
27.79308
10
5.95342
20
27.78089
10
6.00203
20
27.77339
10
6.05208
20
27.77083
10
6.10214
20
27.77339
10
6.15075
20
27.78089
10
6.19767
20
27.79308
10
6.24265
20
27.80972
10
6.28545
20
27.83055
10
6.32581
20
27.85534
10
6.36350
20
27.88382
10
6.39827
20
27.91575
10
6.42987
20
27.95089
10
6.45805
20
27.98898
10
6.48258
20
28.02978
10
6.50319
20
28.07303
10
6.51966
20
28.11849
10
6.53172
20
28.16591
10
6.53914
20
28.21504
10
6.54167
20
28.26562
0
LWPOLYLINE
8
INSIDE_Holes_6_apart
90
65
70
1
10
6.54167
20
23.77604
10
6.53914
20
23.82663
10
6.53172
20
23.87576
10
6.51966
20
23.92318
10
6.50319
20
23.96864
10
6.48258
20
24.01189
10
6.45805
20
24.05268
10
6.42987
20
24.09078
10
6.39827
20
24.12591
10
6.36350
20
24.15785
10
6.32581
20
24.18633
10
6.28545
20
24.21111
10
6.24265
20
24.23195
10
6.19767
20
24.24859
10
6.15075
20
24.26078
10
6.10214
20
24.26828
10
6.05208
20
24.27083
10
6.00203
20
24.26828
10
5.95342
20
24.26078
10
5.90650
20
24.24859
10
5.86152
20
24.23195
10
5.81872
20
24.21111
10
5.77835
20
24.18633
10
5.74066
20
24.15785
10
5.70590
20
24.12591
10
5.67430
20
24.09078
10
5.64611
20
24.05268
10
5.62159
20
24.01189
10
5.60097
20
23.96864
10
5.58451
20
23.92318
10
5.57245
20
23.87576
10
5.56503
20
23.82663
10
5.56250
20
23.77604
10
5.56503
20
23.72545
10
5.57245
20
23.67632
10
5.58451
20
23.62891
10
5.60097
20
23.58345
10
5.62159
20
23.54019
10
5.64611
20
23.49940
10
5.67430
20
23.46131
10
5.70590
20
23.42617
10
5.74066
20
23.39424
10
5.77835
20
23.36575
10
5.81872
20
23.34097
10
5.86152
20
23.32013
10
5.90650
20
23.30349
10
5.95342
20
23.29130
10
6.00203
20
23.28380
10
6.05208
20
23.28125
10
6.10214
20
23.28380
10
6.15075
20
23.29130
10
6.19767
20
23.30349
10
6.24265
20
23.32013
10
6.28545
20
23.34097
10
6.32581
20
23.36575
10
6.36350
20
23.39424
10
6.39827
20
23.42617
10
6.42987
20
23.46131
10
6.45805
20
23.49940
10
6.48258
20
23.54019
10
6.50319
20
23.58345
10
6.51966
20
23.62891
10
6.53172
20
23.67632
10
6.53914
20
23.72545
10
6.54167
20
23.77604
0
LWPOLYLINE
8
INSIDE_Holes_6_apart
90
65
70
1
10
6.54167
20
19.28646
10
6.53914
20
19.33705
10
6.53172
20
19.38618
10
6.51966
20
19.43359
10
6.50319
20
19.47905
10
6.48258
20
19.52231
10
6.45805
20
19.56310
10
6.42987
20
19.60119
10
6.39827
20
19.63633
10
6.36350
20
19.66826
10
6.32581
20
19.69675
10
6.28545
20
19.72153
10
6.24265
20
19.74237
10
6.19767
20
19.75901
10
6.15075
20
19.77120
10
6.10214
20
19.77870
10
6.05208
20
19.78125
10
6.00203
20
19.77870
10
5.95342
20
19.77120
10
5.90650
20
19.75901
10
5.86152
20
19.74237
10
5.81872
20
19.72153
10
5.77835
20
19.69675
10
5.74066
20
19.66826
10
5.70590
20
19.63633
10
5.67430
20
19.60119
10
5.64611
20
19.56310
10
5.62159
20
19.52231
10
5.60097
20
19.47905
10
5.58451
20
19.43359
10
5.57245
20
19.38618
10
5.56503
20
19.33705
10
5.56250
20
19.28646
10
5.56503
20
19.23587
10
5.57245
20
19.18674
10
5.58451
20
19.13932
10
5.60097
20
19.09386
10
5.62159
20
19.05061
10
5.64611
20
19.00982
10
5.67430
20
18.97172
10
5.70590
20
18.93659
10
5.74066
20
18.90465
10
5.77835
20
18.87617
10
5.81872
20
18.85139
10
5.86152
20
18.83055
10
5.90650
20
18.81391
10
5.95342
20
18.80172
10
6.00203
20
18.79422
10
6.05208
20
18.79167
10
6.10214
20
18.79422
10
6.15075
20
18.80172
10
6.19767
20
18.81391
10
6.24265
20
18.83055
10
6.28545
20
18.85139
10
6.32581
20
18.87617
10
6.36350
20
18.90465
10
6.39827
20
18.93659
10
6.42987
20
18.97172
10
6.45805
20
19.00982
10
6.48258
20
19.05061
10
6.50319
20
19.09386
10
6.51966
20
19.13932
10
6.53172
20
19.18674
10
6.53914
20
19.23587
10
6.54167
20
19.28646
0
LWPOLYLINE
8
INSIDE_Holes_6_apart
90
65
70
1
10
6.54167
20
14.79687
10
6.53914
20
14.84746
10
6.53172
20
14.89659
10
6.51966
20
14.94401
10
6.50319
20
14.98947
10
6.48258
20
15.03272
10
6.45805
20
15.07352
10
6.42987
20
15.11161
10
6.39827
20
15.14675
10
6.36350
20
15.17868
10
6.32581
20
15.20716
10
6.28545
20
15.23195
10
6.24265
20
15.25278
10
6.19767
20
15.26942
10
6.15075
20
15.28161
10
6.10214
20
15.28911
10
6.05208
20
15.29167
10
6.00203
20
15.28911
10
5.95342
20
15.28161
10
5.90650
20
15.26942
10
5.86152
20
15.25278
10
5.81872
20
15.23195
10
5.77835
20
15.20716
10
5.74066
20
15.17868
10
5.70590
20
15.14675
10
5.67430
20
15.11161
10
5.64611
20
15.07352
10
5.62159
20
15.03272
10
5.60097
20
14.98947
10
5.58451
20
14.94401
10
5.57245
20
14.89659
10
5.56503
20
14.84746
10
5.56250
20
14.79687
10
5.56503
20
14.74629
10
5.57245
20
14.69716
10
5.58451
20
14.64974
10
5.60097
20
14.60428
10
5.62159
20
14.56103
10
5.64611
20
14.52023
10
5.67430
20
14.48214
10
5.70590
20
14.44700
10
5.74066
20
14.41507
10
5.77835
20
14.38659
10
5.81872
20
14.36180
10
5.86152
20
14.34097
10
5.90650
20
14.32433
10
5.95342
20
14.31214
10
6.00203
20
14.30464
10
6.05208
20
14.30208
10
6.10214
20
14.30464
10
6.15075
20
14.31214
10
6.19767
20
14.32433
10
6.24265
20
14.34097
10
6.28545
20
14.36180
10
6.32581
20
14.38659
10
6.36350
20
14.41507
10
6.39827
20
14.44700
10
6.42987
20
14.48214
10
6.45805
20
14.52023
10
6.48258
20
14.56103
10
6.50319
20
14.60428
10
6.51966
20
14.64974
10
6.53172
20
14.69716
10
6.53914
20
14.74629
10
6.54167
20
14.79687
0
LWPOLYLINE
8
INSIDE_Holes_6_apart
90
65
70
1
10
11.02083
20
41.73437
10
11.01831
20
41.78496
10
11.01089
20
41.83409
10
10.99882
20
41.88151
10
10.98236
20
41.92697
10
10.96174
20
41.97022
10
10.93722
20
42.01102
10
10.90904
20
42.04911
10
10.87744
20
42.08425
10
10.84267
20
42.11618
10
10.80498
20
42.14466
10
10.76461
20
42.16945
10
10.72182
20
42.19028
10
10.67684
20
42.20692
10
10.62992
20
42.21911
10
10.58131
20
42.22661
10
10.53125
20
42.22917
10
10.48119
20
42.22661
10
10.43258
20
42.21911
10
10.38566
20
42.20692
10
10.34068
20
42.19028
10
10.29789
20
42.16945
10
10.25752
20
42.14466
10
10.21983
20
42.11618
10
10.18506
20
42.08425
10
10.15346
20
42.04911
10
10.12528
20
42.01102
10
10.10076
20
41.97022
10
10.08014
20
41.92697
10
10.06368
20
41.88151
10
10.05161
20
41.83409
10
10.04419
20
41.78496
10
10.04167
20
41.73437
10
10.04419
20
41.68379
10
10.05161
20
41.63466
10
10.06368
20
41.58724
10
10.08014
20
41.54178
10
10.10076
20
41.49853
10
10.12528
20
41.45773
10
10.15346
20
41.41964
10
10.18506
20
41.38450
10
10.21983
20
41.35257
10
10.25752
20
41.32409
10
10.29789
20
41.29930
10
10.34068
20
41.27847
10
10.38566
20
41.26183
10
10.43258
20
41.24964
10
10.48119
20
41.24214
10
10.53125
20
41.23958
10
10.58131
20
41.24214
10
10.62992
20
41.24964
10
10.67684
20
41.26183
10
10.72182
20
41.27847
10
10.76461
20
41.29930
10
10.80498
20
41.32409
10
10.84267
20
41.35257
10
10.87744
20
41.38450
10
10.90904
20
41.41964
10
10.93722
20
41.45773
10
10.96174
20
41.49853
10
10.98236
20
41.54178
10
10.99882
20
41.58724
10
11.01089
20
41.63466
10
11.01831
20
41.68379
10
11.02083
20
41.73437
0
LWPOLYLINE
8
INSIDE_Holes_6_apart
90
65
70
1
10
11.02083
20
37.24479
10
11.01831
20
37.29538
10
11.01089
20
37.34451
10
10.99882
20
37.39193
10
10.98236
20
37.43739
10
10.96174
20
37.48064
10
10.93722
20
37.52143
10
10.90904
20
37.55953
10
10.87744
20
37.59466
10
10.84267
20
37.62660
10
10.80498
20
37.65508
10
10.76461
20
37.67986
10
10.72182
20
37.70070
10
10.67684
20
37.71734
10
10.62992
20
37.72953
10
10.58131
20
37.73703
10
10.53125
20
37.73958
10
10.48119
20
37.73703
10
10.43258
20
37.72953
10
10.38566
20
37.71734
10
10.34068
20
37.70070
10
10.29789
20
37.67986
10
10.25752
20
37.65508
10
10.21983
20
37.62660
10
10.18506
20
37.59466
10
10.15346
20
37.55953
10
10.12528
20
37.52143
10
10.10076
20
37.48064
10
10.08014
20
37.43739
10
10.06368
20
37.39193
10
10.05161
20
37.34451
10
10.04419
20
37.29538
10
10.04167
20
37.24479
10
10.04419
20
37.19420
10
10.05161
20
37.14507
10
10.06368
20
37.09766
10
10.08014
20
37.05220
10
10.10076
20
37.00894
10
10.12528
20
36.96815
10
10.15346
20
36.93006
10
10.18506
20
36.89492
10
10.21983
20
36.86299
10
10.25752
20
36.83450
10
10.29789
20
36.80972
10
10.34068
20
36.78888
10
10.38566
20
36.77224
10
10.43258
20
36.76005
10
10.48119
20
36.75255
10
10.53125
20
36.75000
10
10.58131
20
36.75255
10
10.62992
20
36.76005
10
10.67684
20
36.77224
10
10.72182
20
36.78888
10
10.76461
20
36.80972
10
10.80498
20
36.83450
10
10.84267
20
36.86299
10
10.87744
20
36.89492
10
10.90904
20
36.93006
10
10.93722
20
36.96815
10
10.96174
20
37.00894
10
10.98236
20
37.05220
10
10.99882
20
37.09766
10
11.01089
20
37.14507
10
11.01831
20
37.19420
10
11.02083
20
37.24479
0
LWPOLYLINE
8
INSIDE_Holes_6_apart
90
65
70
1
10
11.02083
20
32.75521
10
11.01831
20
32.80580
10
11.01089
20
32.85493
10
10.99882
20
32.90234
10
10.98236
20
32.94780
10
10.96174
20
32.99106
10
10.93722
20
33.03185
10
10.90904
20
33.06994
10
10.87744
20
33.10508
10
10.84267
20
33.13701
10
10.80498
20
33.16550
10
10.76461
20
33.19028
10
10.72182
20
33.21112
10
10.67684
20
33.22776
10
10.62992
20
33.23995
10
10.58131
20
33.24745
10
10.53125
20
33.25000
10
10.48119
20
33.24745
10
10.43258
20
33.23995
10
10.38566
20
33.22776
10
10.34068
20
33.21112
10
10.29789
20
33.19028
10
10.25752
20
33.16550
10
10.21983
20
33.13701
10
10.18506
20
33.10508
10
10.15346
20
33.06994
10
10.12528
20
33.03185
10
10.10076
20
32.99106
10
10.08014
20
32.94780
10
10.06368
20
32.90234
10
10.05161
20
32.85493
10
10.04419
20
32.80580
10
10.04167
20
32.75521
10
10.04419
20
32.70462
10
10.05161
20
32.65549
10
10.06368
20
32.60807
10
10.08014
20
32.56261
10
10.10076
20
32.51936
10
10.12528
20
32.47857
10
10.15346
20
32.44047
10
10.18506
20
32.40534
10
10.21983
20
32.37340
10
10.25752
20
32.34492
10
10.29789
20
32.32014
10
10.34068
20
32.29930
10
10.38566
20
32.28266
10
10.43258
20
32.27047
10
10.48119
20
32.26297
10
10.53125
20
32.26042
10
10.58131
20
32.26297
10
10.62992
20
32.27047
10
10.67684
20
32.28266
10
10.72182
20
32.29930
10
10.76461
20
32.32014
10
10.80498
20
32.34492
10
10.84267
20
32.37340
10
10.87744
20
32.40534
10
10.90904
20
32.44047
10
10.93722
20
32.47857
10
10.96174
20
32.51936
10
10.98236
20
32.56261
10
10.99882
20
32.60807
10
11.01089
20
32.65549
10
11.01831
20
32.70462
10
11.02083
20
32.75521
0
LWPOLYLINE
8
INSIDE_Holes_6_apart
90
65
70
1
10
11.02083
20
28.26562
10
11.01831
20
28.31621
10
11.01089
20
28.36534
10
10.99882
20
28.41276
10
10.98236
20
28.45822
10
10.96174
20
28.50147
10
10.93722
20
28.54227
10
10.90904
20
28.58036
10
10.87744
20
28.61550
10
10.84267
20
28.64743
10
10.80498
20
28.67591
10
10.76461
20
28.70070
10
10.72182
20
28.72153
10
10.67684
20
28.73817
10
10.62992
20
28.75036
10
10.58131
20
28.75786
10
10.53125
20
28.76042
10
10.48119
20
28.75786
10
10.43258
20
28.75036
10
10.38566
20
28.73817
10
10.34068
20
28.72153
10
10.29789
20
28.70070
10
10.25752
20
28.67591
10
10.21983
20
28.64743
10
10.18506
20
28.61550
10
10.15346
20
28.58036
10
10.12528
20
28.54227
10
10.10076
20
28.50147
10
10.08014
20
28.45822
10
10.06368
20
28.41276
10
10.05161
20
28.36534
10
10.04419
20
28.31621
10
10.04167
20
28.26562
10
10.04419
20
28.21504
10
10.05161
20
28.16591
10
10.06368
20
28.11849
10
10.08014
20
28.07303
10
10.10076
20
28.02978
10
10.12528
20
27.98898
10
10.15346
20
27.95089
10
10.18506
20
27.91575
10
10.21983
20
27.88382
10
10.25752
20
27.85534
10
10.29789
20
27.83055
10
10.34068
20
27.80972
10
10.38566
20
27.79308
10
10.43258
20
27.78089
10
10.48119
20
27.77339
10
10.53125
20
27.77083
10
10.58131
20
27.77339
10
10.62992
20
27.78089
10
10.67684
20
27.79308
10
10.72182
20
27.80972
10
10.76461
20
27.83055
10
10.80498
20
27.85534
10
10.84267
20
27.88382
10
10.87744
20
27.91575
10
10.90904
20
27.95089
10
10.93722
20
27.98898
10
10.96174
20
28.02978
10
10.98236
20
28.07303
10
10.99882
20
28.11849
10
11.01089
20
28.16591
10
11.01831
20
28.21504
10
11.02083
20
28.26562
0
LWPOLYLINE
8
INSIDE_Holes_6_apart
90
65
70
1
10
11.02083
20
23.77604
10
11.01831
20
23.82663
10
11.01089
20
23.87576
10
10.99882
20
23.92318
10
10.98236
20
23.96864
10
10.96174
20
24.01189
10
10.93722
20
24.05268
10
10.90904
20
24.09078
10
10.87744
20
24.12591
10
10.84267
20
24.15785
10
10.80498
20
24.18633
10
10.76461
20
24.21111
10
10.72182
20
24.23195
10
10.67684
20
24.24859
10
10.62992
20
24.26078
10
10.58131
20
24.26828
10
10.53125
20
24.27083
10
10.48119
20
24.26828
10
10.43258
20
24.26078
10
10.38566
20
24.24859
10
10.34068
20
24.23195
10
10.29789
20
24.21111
10
10.25752
20
24.18633
10
10.21983
20
24.15785
10
10.18506
20
24.12591
10
10.15346
20
24.09078
10
10.12528
20
24.05268
10
10.10076
20
24.01189
10
10.08014
20
23.96864
10
10.06368
20
23.92318
10
10.05161
20
23.87576
10
10.04419
20
23.82663
10
10.04167
20
23.77604
10
10.04419
20
23.72545
10
10.05161
20
23.67632
10
10.06368
20
23.62891
10
10.08014
20
23.58345
10
10.10076
20
23.54019
10
10.12528
20
23.49940
10
10.15346
20
23.46131
10
10.18506
20
23.42617
10
10.21983
20
23.39424
10
10.25752
20
23.36575
10
10.29789
20
23.34097
10
10.34068
20
23.32013
10
10.38566
20
23.30349
10
10.43258
20
23.29130
10
10.48119
20
23.28380
10
10.53125
20
23.28125
10
10.58131
20
23.28380
10
10.62992
20
23.29130
10
10.67684
20
23.30349
10
10.72182
20
23.32013
10
10.76461
20
23.34097
10
10.80498
20
23.36575
10
10.84267
20
23.39424
10
10.87744
20
23.42617
10
10.90904
20
23.46131
10
10.93722
20
23.49940
10
10.96174
20
23.54019
10
10.98236
20
23.58345
10
10.99882
20
23.62891
10
11.01089
20
23.67632
10
11.01831
20
23.72545
10
11.02083
20
23.77604
0
LWPOLYLINE
8
INSIDE_Holes_6_apart
90
65
70
1
10
11.02083
20
19.28646
10
11.01831
20
19.33705
10
11.01089
20
19.38618
10
10.99882
20
19.43359
10
10.98236
20
19.47905
10
10.96174
20
19.52231
10
10.93722
20
19.56310
10
10.90904
20
19.60119
10
10.87744
20
19.63633
10
10.84267
20
19.66826
10
10.80498
20
19.69675
10
10.76461
20
19.72153
10
10.72182
20
19.74237
10
10.67684
20
19.75901
10
10.62992
20
19.77120
10
10.58131
20
19.77870
10
10.53125
20
19.78125
10
10.48119
20
19.77870
10
10.43258
20
19.77120
10
10.38566
20
19.75901
10
10.34068
20
19.74237
10
10.29789
20
19.72153
10
10.25752
20
19.69675
10
10.21983
20
19.66826
10
10.18506
20
19.63633
10
10.15346
20
19.60119
10
10.12528
20
19.56310
10
10.10076
20
19.52231
10
10.08014
20
19.47905
10
10.06368
20
19.43359
10
10.05161
20
19.38618
10
10.04419
20
19.33705
10
10.04167
20
19.28646
10
10.04419
20
19.23587
10
10.05161
20
19.18674
10
10.06368
20
19.13932
10
10.08014
20
19.09386
10
10.10076
20
19.05061
10
10.12528
20
19.00982
10
10.15346
20
18.97172
10
10.18506
20
18.93659
10
10.21983
20
18.90465
10
10.25752
20
18.87617
10
10.29789
20
18.85139
10
10.34068
20
18.83055
10
10.38566
20
18.81391
10
10.43258
20
18.80172
10
10.48119
20
18.79422
10
10.53125
20
18.79167
10
10.58131
20
18.79422
10
10.62992
20
18.80172
10
10.67684
20
18.81391
10
10.72182
20
18.83055
10
10.76461
20
18.85139
10
10.80498
20
18.87617
10
10.84267
20
18.90465
10
10.87744
20
18.93659
10
10.90904
20
18.97172
10
10.93722
20
19.00982
10
10.96174
20
19.05061
10
10.98236
20
19.09386
10
10.99882
20
19.13932
10
11.01089
20
19.18674
10
11.01831
20
19.23587
10
11.02083
20
19.28646
0
LWPOLYLINE
8
INSIDE_Holes_6_apart
90
65
70
1
10
11.02083
20
14.79687
10
11.01831
20
14.84746
10
11.01089
20
14.89659
10
10.99882
20
14.94401
10
10.98236
20
14.98947
10
10.96174
20
15.03272
10
10.93722
20
15.07352
10
10.90904
20
15.11161
10
10.87744
20
15.14675
10
10.84267
20
15.17868
10
10.80498
20
15.20716
10
10.76461
20
15.23195
10
10.72182
20
15.25278
10
10.67684
20
15.26942
10
10.62992
20
15.28161
10
10.58131
20
15.28911
10
10.53125
20
15.29167
10
10.48119
20
15.28911
10
10.43258
20
15.28161
10
10.38566
20
15.26942
10
10.34068
20
15.25278
10
10.29789
20
15.23195
10
10.25752
20
15.20716
10
10.21983
20
15.17868
10
10.18506
20
15.14675
10
10.15346
20
15.11161
10
10.12528
20
15.07352
10
10.10076
20
15.03272
10
10.08014
20
14.98947
10
10.06368
20
14.94401
10
10.05161
20
14.89659
10
10.04419
20
14.84746
10
10.04167
20
14.79687
10
10.04419
20
14.74629
10
10.05161
20
14.69716
10
10.06368
20
14.64974
10
10.08014
20
14.60428
10
10.10076
20
14.56103
10
10.12528
20
14.52023
10
10.15346
20
14.48214
10
10.18506
20
14.44700
10
10.21983
20
14.41507
10
10.25752
20
14.38659
10
10.29789
20
14.36180
10
10.34068
20
14.34097
10
10.38566
20
14.32433
10
10.43258
20
14.31214
10
10.48119
20
14.30464
10
10.53125
20
14.30208
10
10.58131
20
14.30464
10
10.62992
20
14.31214
10
10.67684
20
14.32433
10
10.72182
20
14.34097
10
10.76461
20
14.36180
10
10.80498
20
14.38659
10
10.84267
20
14.41507
10
10.87744
20
14.44700
10
10.90904
20
14.48214
10
10.93722
20
14.52023
10
10.96174
20
14.56103
10
10.98236
20
14.60428
10
10.99882
20
14.64974
10
11.01089
20
14.69716
10
11.01831
20
14.74629
10
11.02083
20
14.79687
0
LWPOLYLINE
8
INSIDE_Holes_6_apart
90
65
70
1
10
15.50000
20
41.73437
10
15.49747
20
41.78496
10
15.49005
20
41.83409
10
15.47799
20
41.88151
10
15.46153
20
41.92697
10
15.44091
20
41.97022
10
15.41639
20
42.01102
10
15.38820
20
42.04911
10
15.35660
20
42.08425
10
15.32184
20
42.11618
10
15.28415
20
42.14466
10
15.24378
20
42.16945
10
15.20098
20
42.19028
10
15.15600
20
42.20692
10
15.10908
20
42.21911
10
15.06047
20
42.22661
10
15.01042
20
42.22917
10
14.96036
20
42.22661
10
14.91175
20
42.21911
10
14.86483
20
42.20692
10
14.81985
20
42.19028
10
14.77705
20
42.16945
10
14.73669
20
42.14466
10
14.69900
20
42.11618
10
14.66423
20
42.08425
10
14.63263
20
42.04911
10
14.60445
20
42.01102
10
14.57992
20
41.97022
10
14.55931
20
41.92697
10
14.54284
20
41.88151
10
14.53078
20
41.83409
10
14.52336
20
41.78496
10
14.52083
20
41.73437
10
14.52336
20
41.68379
10
14.53078
20
41.63466
10
14.54284
20
41.58724
10
14.55931
20
41.54178
10
14.57992
20
41.49853
10
14.60445
20
41.45773
10
14.63263
20
41.41964
10
14.66423
20
41.38450
10
14.69900
20
41.35257
10
14.73669
20
41.32409
10
14.77705
20
41.29930
10
14.81985
20
41.27847
10
14.86483
20
41.26183
10
14.91175
20
41.24964
10
14.96036
20
41.24214
10
15.01042
20
41.23958
10
15.06047
20
41.24214
10
15.10908
20
41.24964
10
15.15600
20
41.26183
10
15.20098
20
41.27847
10
15.24378
20
41.29930
10
15.28415
20
41.32409
10
15.32184
20
41.35257
10
15.35660
20
41.38450
10
15.38820
20
41.41964
10
15.41639
20
41.45773
10
15.44091
20
41.49853
10
15.46153
20
41.54178
10
15.47799
20
41.58724
10
15.49005
20
41.63466
10
15.49747
20
41.68379
10
15.50000
20
41.73437
0
LWPOLYLINE
8
INSIDE_Holes_6_apart
90
65
70
1
10
15.50000
20
37.24479
10
15.49747
20
37.29538
10
15.49005
20
37.34451
10
15.47799
20
37.39193
10
15.46153
20
37.43739
10
15.44091
20
37.48064
10
15.41639
20
37.52143
10
15.38820
20
37.55953
10
15.35660
20
37.59466
10
15.32184
20
37.62660
10
15.28415
20
37.65508
10
15.24378
20
37.67986
10
15.20098
20
37.70070
10
15.15600
20
37.71734
10
15.10908
20
37.72953
10
15.06047
20
37.73703
10
15.01042
20
37.73958
10
14.96036
20
37.73703
10
14.91175
20
37.72953
10
14.86483
20
37.71734
10
14.81985
20
37.70070
10
14.77705
20
37.67986
10
14.73669
20
37.65508
10
14.69900
20
37.62660
10
14.66423
20
37.59466
10
14.63263
20
37.55953
10
14.60445
20
37.52143
10
14.57992
20
37.48064
10
14.55931
20
37.43739
10
14.54284
20
37.39193
10
14.53078
20
37.34451
10
14.52336
20
37.29538
10
14.52083
20
37.24479
10
14.52336
20
37.19420
10
14.53078
20
37.14507
10
14.54284
20
37.09766
10
14.55931
20
37.05220
10
14.57992
20
37.00894
10
14.60445
20
36.96815
10
14.63263
20
36.93006
10
14.66423
20
36.89492
10
14.69900
20
36.86299
10
14.73669
20
36.83450
10
14.77705
20
36.80972
10
14.81985
20
36.78888
10
14.86483
20
36.77224
10
14.91175
20
36.76005
10
14.96036
20
36.75255
10
15.01042
20
36.75000
10
15.06047
20
36.75255
10
15.10908
20
36.76005
10
15.15600
20
36.77224
10
15.20098
20
36.78888
10
15.24378
20
36.80972
10
15.28415
20
36.83450
10
15.32184
20
36.86299
10
15.35660
20
36.89492
10
15.38820
20
36.93006
10
15.41639
20
36.96815
10
15.44091
20
37.00894
10
15.46153
20
37.05220
10
15.47799
20
37.09766
10
15.49005
20
37.14507
10
15.49747
20
37.19420
10
15.50000
20
37.24479
0
LWPOLYLINE
8
INSIDE_Holes_6_apart
90
65
70
1
10
15.50000
20
32.75521
10
15.49747
20
32.80580
10
15.49005
20
32.85493
10
15.47799
20
32.90234
10
15.46153
20
32.94780
10
15.44091
20
32.99106
10
15.41639
20
33.03185
10
15.38820
20
33.06994
10
15.35660
20
33.10508
10
15.32184
20
33.13701
10
15.28415
20
33.16550
10
15.24378
20
33.19028
10
15.20098
20
33.21112
10
15.15600
20
33.22776
10
15.10908
20
33.23995
10
15.06047
20
33.24745
10
15.01042
20
33.25000
10
14.96036
20
33.24745
10
14.91175
20
33.23995
10
14.86483
20
33.22776
10
14.81985
20
33.21112
10
14.77705
20
33.19028
10
14.73669
20
33.16550
10
14.69900
20
33.13701
10
14.66423
20
33.10508
10
14.63263
20
33.06994
10
14.60445
20
33.03185
10
14.57992
20
32.99106
10
14.55931
20
32.94780
10
14.54284
20
32.90234
10
14.53078
20
32.85493
10
14.52336
20
32.80580
10
14.52083
20
32.75521
10
14.52336
20
32.70462
10
14.53078
20
32.65549
10
14.54284
20
32.60807
10
14.55931
20
32.56261
10
14.57992
20
32.51936
10
14.60445
20
32.47857
10
14.63263
20
32.44047
10
14.66423
20
32.40534
10
14.69900
20
32.37340
10
14.73669
20
32.34492
10
14.77705
20
32.32014
10
14.81985
20
32.29930
10
14.86483
20
32.28266
10
14.91175
20
32.27047
10
14.96036
20
32.26297
10
15.01042
20
32.26042
10
15.06047
20
32.26297
10
15.10908
20
32.27047
10
15.15600
20
32.28266
10
15.20098
20
32.29930
10
15.24378
20
32.32014
10
15.28415
20
32.34492
10
15.32184
20
32.37340
10
15.35660
20
32.40534
10
15.38820
20
32.44047
10
15.41639
20
32.47857
10
15.44091
20
32.51936
10
15.46153
20
32.56261
10
15.47799
20
32.60807
10
15.49005
20
32.65549
10
15.49747
20
32.70462
10
15.50000
20
32.75521
0
LWPOLYLINE
8
INSIDE_Holes_6_apart
90
65
70
1
10
15.50000
20
28.26562
10
15.49747
20
28.31621
10
15.49005
20
28.36534
10
15.47799
20
28.41276
10
15.46153
20
28.45822
10
15.44091
20
28.50147
10
15.41639
20
28.54227
10
15.38820
20
28.58036
10
15.35660
20
28.61550
10
15.32184
20
28.64743
10
15.28415
20
28.67591
10
15.24378
20
28.70070
10
15.20098
20
28.72153
10
15.15600
20
28.73817
10
15.10908
20
28.75036
10
15.06047
20
28.75786
10
15.01042
20
28.76042
10
14.96036
20
28.75786
10
14.91175
20
28.75036
10
14.86483
20
28.73817
10
14.81985
20
28.72153
10
14.77705
20
28.70070
10
14.73669
20
28.67591
10
14.69900
20
28.64743
10
14.66423
20
28.61550
10
14.63263
20
28.58036
10
14.60445
20
28.54227
10
14.57992
20
28.50147
10
14.55931
20
28.45822
10
14.54284
20
28.41276
10
14.53078
20
28.36534
10
14.52336
20
28.31621
10
14.52083
20
28.26562
10
14.52336
20
28.21504
10
14.53078
20
28.16591
10
14.54284
20
28.11849
10
14.55931
20
28.07303
10
14.57992
20
28.02978
10
14.60445
20
27.98898
10
14.63263
20
27.95089
10
14.66423
20
27.91575
10
14.69900
20
27.88382
10
14.73669
20
27.85534
10
14.77705
20
27.83055
10
14.81985
20
27.80972
10
14.86483
20
27.79308
10
14.91175
20
27.78089
10
14.96036
20
27.77339
10
15.01042
20
27.77083
10
15.06047
20
27.77339
10
15.10908
20
27.78089
10
15.15600
20
27.79308
10
15.20098
20
27.80972
10
15.24378
20
27.83055
10
15.28415
20
27.85534
10
15.32184
20
27.88382
10
15.35660
20
27.91575
10
15.38820
20
27.95089
10
15.41639
20
27.98898
10
15.44091
20
28.02978
10
15.46153
20
28.07303
10
15.47799
20
28.11849
10
15.49005
20
28.16591
10
15.49747
20
28.21504
10
15.50000
20
28.26562
0
LWPOLYLINE
8
INSIDE_Holes_6_apart
90
65
70
1
10
15.50000
20
23.77604
10
15.49747
20
23.82663
10
15.49005
20
23.87576
10
15.47799
20
23.92318
10
15.46153
20
23.96864
10
15.44091
20
24.01189
10
15.41639
20
24.05268
10
15.38820
20
24.09078
10
15.35660
20
24.12591
10
15.32184
20
24.15785
10
15.28415
20
24.18633
10
15.24378
20
24.21111
10
15.20098
20
24.23195
10
15.15600
20
24.24859
10
15.10908
20
24.26078
10
15.06047
20
24.26828
10
15.01042
20
24.27083
10
14.96036
20
24.26828
10
14.91175
20
24.26078
10
14.86483
20
24.24859
10
14.81985
20
24.23195
10
14.77705
20
24.21111
10
14.73669
20
24.18633
10
14.69900
20
24.15785
10
14.66423
20
24.12591
10
14.63263
20
24.09078
10
14.60445
20
24.05268
10
14.57992
20
24.01189
10
14.55931
20
23.96864
10
14.54284
20
23.92318
10
14.53078
20
23.87576
10
14.52336
20
23.82663
10
14.52083
20
23.77604
10
14.52336
20
23.72545
10
14.53078
20
23.67632
10
14.54284
20
23.62891
10
14.55931
20
23.58345
10
14.57992
20
23.54019
10
14.60445
20
23.49940
10
14.63263
20
23.46131
10
14.66423
20
23.42617
10
14.69900
20
23.39424
10
14.73669
20
23.36575
10
14.77705
20
23.34097
10
14.81985
20
23.32013
10
14.86483
20
23.30349
10
14.91175
20
23.29130
10
14.96036
20
23.28380
10
15.01042
20
23.28125
10
15.06047
20
23.28380
10
15.10908
20
23.29130
10
15.15600
20
23.30349
10
15.20098
20
23.32013
10
15.24378
20
23.34097
10
15.28415
20
23.36575
10
15.32184
20
23.39424
10
15.35660
20
23.42617
10
15.38820
20
23.46131
10
15.41639
20
23.49940
10
15.44091
20
23.54019
10
15.46153
20
23.58345
10
15.47799
20
23.62891
10
15.49005
20
23.67632
10
15.49747
20
23.72545
10
15.50000
20
23.77604
0
LWPOLYLINE
8
INSIDE_Holes_6_apart
90
65
70
1
10
15.50000
20
19.28646
10
15.49747
20
19.33705
10
15.49005
20
19.38618
10
15.47799
20
19.43359
10
15.46153
20
19.47905
10
15.44091
20
19.52231
10
15.41639
20
19.56310
10
15.38820
20
19.60119
10
15.35660
20
19.63633
10
15.32184
20
19.66826
10
15.28415
20
19.69675
10
15.24378
20
19.72153
10
15.20098
20
19.74237
10
15.15600
20
19.75901
10
15.10908
20
19.77120
10
15.06047
20
19.77870
10
15.01042
20
19.78125
10
14.96036
20
19.77870
10
14.91175
20
19.77120
10
14.86483
20
19.75901
10
14.81985
20
19.74237
10
14.77705
20
19.72153
10
14.73669
20
19.69675
10
14.69900
20
19.66826
10
14.66423
20
19.63633
10
14.63263
20
19.60119
10
14.60445
20
19.56310
10
14.57992
20
19.52231
10
14.55931
20
19.47905
10
14.54284
20
19.43359
10
14.53078
20
19.38618
10
14.52336
20
19.33705
10
14.52083
20
19.28646
10
14.52336
20
19.23587
10
14.53078
20
19.18674
10
14.54284
20
19.13932
10
14.55931
20
19.09386
10
14.57992
20
19.05061
10
14.60445
20
19.00982
10
14.63263
20
18.97172
10
14.66423
20
18.93659
10
14.69900
20
18.90465
10
14.73669
20
18.87617
10
14.77705
20
18.85139
10
14.81985
20
18.83055
10
14.86483
20
18.81391
10
14.91175
20
18.80172
10
14.96036
20
18.79422
10
15.01042
20
18.79167
10
15.06047
20
18.79422
10
15.10908
20
18.80172
10
15.15600
20
18.81391
10
15.20098
20
18.83055
10
15.24378
20
18.85139
10
15.28415
20
18.87617
10
15.32184
20
18.90465
10
15.35660
20
18.93659
10
15.38820
20
18.97172
10
15.41639
20
19.00982
10
15.44091
20
19.05061
10
15.46153
20
19.09386
10
15.47799
20
19.13932
10
15.49005
20
19.18674
10
15.49747
20
19.23587
10
15.50000
20
19.28646
0
LWPOLYLINE
8
INSIDE_Holes_6_apart
90
65
70
1
10
15.50000
20
14.79687
10
15.49747
20
14.84746
10
15.49005
20
14.89659
10
15.47799
20
14.94401
10
15.46153
20
14.98947
10
15.44091
20
15.03272
10
15.41639
20
15.07352
10
15.38820
20
15.11161
10
15.35660
20
15.14675
10
15.32184
20
15.17868
10
15.28415
20
15.20716
10
15.24378
20
15.23195
10
15.20098
20
15.25278
10
15.15600
20
15.26942
10
15.10908
20
15.28161
10
15.06047
20
15.28911
10
15.01042
20
15.29167
10
14.96036
20
15.28911
10
14.91175
20
15.28161
10
14.86483
20
15.26942
10
14.81985
20
15.25278
10
14.77705
20
15.23195
10
14.73669
20
15.20716
10
14.69900
20
15.17868
10
14.66423
20
15.14675
10
14.63263
20
15.11161
10
14.60445
20
15.07352
10
14.57992
20
15.03272
10
14.55931
20
14.98947
10
14.54284
20
14.94401
10
14.53078
20
14.89659
10
14.52336
20
14.84746
10
14.52083
20
14.79687
10
14.52336
20
14.74629
10
14.53078
20
14.69716
10
14.54284
20
14.64974
10
14.55931
20
14.60428
10
14.57992
20
14.56103
10
14.60445
20
14.52023
10
14.63263
20
14.48214
10
14.66423
20
14.44700
10
14.69900
20
14.41507
10
14.73669
20
14.38659
10
14.77705
20
14.36180
10
14.81985
20
14.34097
10
14.86483
20
14.32433
10
14.91175
20
14.31214
10
14.96036
20
14.30464
10
15.01042
20
14.30208
10
15.06047
20
14.30464
10
15.10908
20
14.31214
10
15.15600
20
14.32433
10
15.20098
20
14.34097
10
15.24378
20
14.36180
10
15.28415
20
14.38659
10
15.32184
20
14.41507
10
15.35660
20
14.44700
10
15.38820
20
14.48214
10
15.41639
20
14.52023
10
15.44091
20
14.56103
10
15.46153
20
14.60428
10
15.47799
20
14.64974
10
15.49005
20
14.69716
10
15.49747
20
14.74629
10
15.50000
20
14.79687
0
LWPOLYLINE
8
INSIDE_Holes_6_apart
90
65
70
1
10
19.97917
20
41.73437
10
19.97664
20
41.78496
10
19.96922
20
41.83409
10
19.95716
20
41.88151
10
19.94069
20
41.92697
10
19.92008
20
41.97022
10
19.89555
20
42.01102
10
19.86737
20
42.04911
10
19.83577
20
42.08425
10
19.80100
20
42.11618
10
19.76331
20
42.14466
10
19.72295
20
42.16945
10
19.68015
20
42.19028
10
19.63517
20
42.20692
10
19.58825
20
42.21911
10
19.53964
20
42.22661
10
19.48958
20
42.22917
10
19.43953
20
42.22661
10
19.39092
20
42.21911
10
19.34400
20
42.20692
10
19.29902
20
42.19028
10
19.25622
20
42.16945
10
19.21585
20
42.14466
10
19.17816
20
42.11618
10
19.14340
20
42.08425
10
19.11180
20
42.04911
10
19.08361
20
42.01102
10
19.05909
20
41.97022
10
19.03847
20
41.92697
10
19.02201
20
41.88151
10
19.00995
20
41.83409
10
19.00253
20
41.78496
10
19.00000
20
41.73437
10
19.00253
20
41.68379
10
19.00995
20
41.63466
10
19.02201
20
41.58724
10
19.03847
20
41.54178
10
19.05909
20
41.49853
10
19.08361
20
41.45773
10
19.11180
20
41.41964
10
19.14340
20
41.38450
10
19.17816
20
41.35257
10
19.21585
20
41.32409
10
19.25622
20
41.29930
10
19.29902
20
41.27847
10
19.34400
20
41.26183
10
19.39092
20
41.24964
10
19.43953
20
41.24214
10
19.48958
20
41.23958
10
19.53964
20
41.24214
10
19.58825
20
41.24964
10
19.63517
20
41.26183
10
19.68015
20
41.27847
10
19.72295
20
41.29930
10
19.76331
20
41.32409
10
19.80100
20
41.35257
10
19.83577
20
41.38450
10
19.86737
20
41.41964
10
19.89555
20
41.45773
10
19.92008
20
41.49853
10
19.94069
20
41.54178
10
19.95716
20
41.58724
10
19.96922
20
41.63466
10
19.97664
20
41.68379
10
19.97917
20
41.73437
0
LWPOLYLINE
8
INSIDE_Holes_6_apart
90
65
70
1
10
19.97917
20
37.24479
10
19.97664
20
37.29538
10
19.96922
20
37.34451
10
19.95716
20
37.39193
10
19.94069
20
37.43739
10
19.92008
20
37.48064
10
19.89555
20
37.52143
10
19.86737
20
37.55953
10
19.83577
20
37.59466
10
19.80100
20
37.62660
10
19.76331
20
37.65508
10
19.72295
20
37.67986
10
19.68015
20
37.70070
10
19.63517
20
37.71734
10
19.58825
20
37.72953
10
19.53964
20
37.73703
10
19.48958
20
37.73958
10
19.43953
20
37.73703
10
19.39092
20
37.72953
10
19.34400
20
37.71734
10
19.29902
20
37.70070
10
19.25622
20
37.67986
10
19.21585
20
37.65508
10
19.17816
20
37.62660
10
19.14340
20
37.59466
10
19.11180
20
37.55953
10
19.08361
20
37.52143
10
19.05909
20
37.48064
10
19.03847
20
37.43739
10
19.02201
20
37.39193
10
19.00995
20
37.34451
10
19.00253
20
37.29538
10
19.00000
20
37.24479
10
19.00253
20
37.19420
10
19.00995
20
37.14507
10
19.02201
20
37.09766
10
19.03847
20
37.05220
10
19.05909
20
37.00894
10
19.08361
20
36.96815
10
19.11180
20
36.93006
10
19.14340
20
36.89492
10
19.17816
20
36.86299
10
19.21585
20
36.83450
10
19.25622
20
36.80972
10
19.29902
20
36.78888
10
19.34400
20
36.77224
10
19.39092
20
36.76005
10
19.43953
20
36.75255
10
19.48958
20
36.75000
10
19.53964
20
36.75255
10
19.58825
20
36.76005
10
19.63517
20
36.77224
10
19.68015
20
36.78888
10
19.72295
20
36.80972
10
19.76331
20
36.83450
10
19.80100
20
36.86299
10
19.83577
20
36.89492
10
19.86737
20
36.93006
10
19.89555
20
36.96815
10
19.92008
20
37.00894
10
19.94069
20
37.05220
10
19.95716
20
37.09766
10
19.96922
20
37.14507
10
19.97664
20
37.19420
10
19.97917
20
37.24479
0
LWPOLYLINE
8
INSIDE_Holes_6_apart
90
65
70
1
10
19.97917
20
32.75521
10
19.97664
20
32.80580
10
19.96922
20
32.85493
10
19.95716
20
32.90234
10
19.94069
20
32.94780
10
19.92008
20
32.99106
10
19.89555
20
33.03185
10
19.86737
20
33.06994
10
19.83577
20
33.10508
10
19.80100
20
33.13701
10
19.76331
20
33.16550
10
19.72295
20
33.19028
10
19.68015
20
33.21112
10
19.63517
20
33.22776
10
19.58825
20
33.23995
10
19.53964
20
33.24745
10
19.48958
20
33.25000
10
19.43953
20
33.24745
10
19.39092
20
33.23995
10
19.34400
20
33.22776
10
19.29902
20
33.21112
10
19.25622
20
33.19028
10
19.21585
20
33.16550
10
19.17816
20
33.13701
10
19.14340
20
33.10508
10
19.11180
20
33.06994
10
19.08361
20
33.03185
10
19.05909
20
32.99106
10
19.03847
20
32.94780
10
19.02201
20
32.90234
10
19.00995
20
32.85493
10
19.00253
20
32.80580
10
19.00000
20
32.75521
10
19.00253
20
32.70462
10
19.00995
20
32.65549
10
19.02201
20
32.60807
10
19.03847
20
32.56261
10
19.05909
20
32.51936
10
19.08361
20
32.47857
10
19.11180
20
32.44047
10
19.14340
20
32.40534
10
19.17816
20
32.37340
10
19.21585
20
32.34492
10
19.25622
20
32.32014
10
19.29902
20
32.29930
10
19.34400
20
32.28266
10
19.39092
20
32.27047
10
19.43953
20
32.26297
10
19.48958
20
32.26042
10
19.53964
20
32.26297
10
19.58825
20
32.27047
10
19.63517
20
32.28266
10
19.68015
20
32.29930
10
19.72295
20
32.32014
10
19.76331
20
32.34492
10
19.80100
20
32.37340
10
19.83577
20
32.40534
10
19.86737
20
32.44047
10
19.89555
20
32.47857
10
19.92008
20
32.51936
10
19.94069
20
32.56261
10
19.95716
20
32.60807
10
19.96922
20
32.65549
10
19.97664
20
32.70462
10
19.97917
20
32.75521
0
LWPOLYLINE
8
INSIDE_Holes_6_apart
90
65
70
1
10
19.97917
20
28.26562
10
19.97664
20
28.31621
10
19.96922
20
28.36534
10
19.95716
20
28.41276
10
19.94069
20
28.45822
10
19.92008
20
28.50147
10
19.89555
20
28.54227
10
19.86737
20
28.58036
10
19.83577
20
28.61550
10
19.80100
20
28.64743
10
19.76331
20
28.67591
10
19.72295
20
28.70070
10
19.68015
20
28.72153
10
19.63517
20
28.73817
10
19.58825
20
28.75036
10
19.53964
20
28.75786
10
19.48958
20
28.76042
10
19.43953
20
28.75786
10
19.39092
20
28.75036
10
19.34400
20
28.73817
10
19.29902
20
28.72153
10
19.25622
20
28.70070
10
19.21585
20
28.67591
10
19.17816
20
28.64743
10
19.14340
20
28.61550
10
19.11180
20
28.58036
10
19.08361
20
28.54227
10
19.05909
20
28.50147
10
19.03847
20
28.45822
10
19.02201
20
28.41276
10
19.00995
20
28.36534
10
19.00253
20
28.31621
10
19.00000
20
28.26562
10
19.00253
20
28.21504
10
19.00995
20
28.16591
10
19.02201
20
28.11849
10
19.03847
20
28.07303
10
19.05909
20
28.02978
10
19.08361
20
27.98898
10
19.11180
20
27.95089
10
19.14340
20
27.91575
10
19.17816
20
27.88382
10
19.21585
20
27.85534
10
19.25622
20
27.83055
10
19.29902
20
27.80972
10
19.34400
20
27.79308
10
19.39092
20
27.78089
10
19.43953
20
27.77339
10
19.48958
20
27.77083
10
19.53964
20
27.77339
10
19.58825
20
27.78089
10
19.63517
20
27.79308
10
19.68015
20
27.80972
10
19.72295
20
27.83055
10
19.76331
20
27.85534
10
19.80100
20
27.88382
10
19.83577
20
27.91575
10
19.86737
20
27.95089
10
19.89555
20
27.98898
10
19.92008
20
28.02978
10
19.94069
20
28.07303
10
19.95716
20
28.11849
10
19.96922
20
28.16591
10
19.97664
20
28.21504
10
19.97917
20
28.26562
0
LWPOLYLINE
8
INSIDE_Holes_6_apart
90
65
70
1
10
19.97917
20
23.77604
10
19.97664
20
23.82663
10
19.96922
20
23.87576
10
19.95716
20
23.92318
10
19.94069
20
23.96864
10
19.92008
20
24.01189
10
19.89555
20
24.05268
10
19.86737
20
24.09078
10
19.83577
20
24.12591
10
19.80100
20
24.15785
10
19.76331
20
24.18633
10
19.72295
20
24.21111
10
19.68015
20
24.23195
10
19.63517
20
24.24859
10
19.58825
20
24.26078
10
19.53964
20
24.26828
10
19.48958
20
24.27083
10
19.43953
20
24.26828
10
19.39092
20
24.26078
10
19.34400
20
24.24859
10
19.29902
20
24.23195
10
19.25622
20
24.21111
10
19.21585
20
24.18633
10
19.17816
20
24.15785
10
19.14340
20
24.12591
10
19.11180
20
24.09078
10
19.08361
20
24.05268
10
19.05909
20
24.01189
10
19.03847
20
23.96864
10
19.02201
20
23.92318
10
19.00995
20
23.87576
10
19.00253
20
23.82663
10
19.00000
20
23.77604
10
19.00253
20
23.72545
10
19.00995
20
23.67632
10
19.02201
20
23.62891
10
19.03847
20
23.58345
10
19.05909
20
23.54019
10
19.08361
20
23.49940
10
19.11180
20
23.46131
10
19.14340
20
23.42617
10
19.17816
20
23.39424
10
19.21585
20
23.36575
10
19.25622
20
23.34097
10
19.29902
20
23.32013
10
19.34400
20
23.30349
10
19.39092
20
23.29130
10
19.43953
20
23.28380
10
19.48958
20
23.28125
10
19.53964
20
23.28380
10
19.58825
20
23.29130
10
19.63517
20
23.30349
10
19.68015
20
23.32013
10
19.72295
20
23.34097
10
19.76331
20
23.36575
10
19.80100
20
23.39424
10
19.83577
20
23.42617
10
19.86737
20
23.46131
10
19.89555
20
23.49940
10
19.92008
20
23.54019
10
19.94069
20
23.58345
10
19.95716
20
23.62891
10
19.96922
20
23.67632
10
19.97664
20
23.72545
10
19.97917
20
23.77604
0
LWPOLYLINE
8
INSIDE_Holes_6_apart
90
65
70
1
10
19.97917
20
19.28646
10
19.97664
20
19.33705
10
19.96922
20
19.38618
10
19.95716
20
19.43359
10
19.94069
20
19.47905
10
19.92008
20
19.52231
10
19.89555
20
19.56310
10
19.86737
20
19.60119
10
19.83577
20
19.63633
10
19.80100
20
19.66826
10
19.76331
20
19.69675
10
19.72295
20
19.72153
10
19.68015
20
19.74237
10
19.63517
20
19.75901
10
19.58825
20
19.77120
10
19.53964
20
19.77870
10
19.48958
20
19.78125
10
19.43953
20
19.77870
10
19.39092
20
19.77120
10
19.34400
20
19.75901
10
19.29902
20
19.74237
10
19.25622
20
19.72153
10
19.21585
20
19.69675
10
19.17816
20
19.66826
10
19.14340
20
19.63633
10
19.11180
20
19.60119
10
19.08361
20
19.56310
10
19.05909
20
19.52231
10
19.03847
20
19.47905
10
19.02201
20
19.43359
10
19.00995
20
19.38618
10
19.00253
20
19.33705
10
19.00000
20
19.28646
10
19.00253
20
19.23587
10
19.00995
20
19.18674
10
19.02201
20
19.13932
10
19.03847
20
19.09386
10
19.05909
20
19.05061
10
19.08361
20
19.00982
10
19.11180
20
18.97172
10
19.14340
20
18.93659
10
19.17816
20
18.90465
10
19.21585
20
18.87617
10
19.25622
20
18.85139
10
19.29902
20
18.83055
10
19.34400
20
18.81391
10
19.39092
20
18.80172
10
19.43953
20
18.79422
10
19.48958
20
18.79167
10
19.53964
20
18.79422
10
19.58825
20
18.80172
10
19.63517
20
18.81391
10
19.68015
20
18.83055
10
19.72295
20
18.85139
10
19.76331
20
18.87617
10
19.80100
20
18.90465
10
19.83577
20
18.93659
10
19.86737
20
18.97172
10
19.89555
20
19.00982
10
19.92008
20
19.05061
10
19.94069
20
19.09386
10
19.95716
20
19.13932
10
19.96922
20
19.18674
10
19.97664
20
19.23587
10
19.97917
20
19.28646
0
LWPOLYLINE
8
INSIDE_Holes_6_apart
90
65
70
1
10
19.97917
20
14.79687
10
19.97664
20
14.84746
10
19.96922
20
14.89659
10
19.95716
20
14.94401
10
19.94069
20
14.98947
10
19.92008
20
15.03272
10
19.89555
20
15.07352
10
19.86737
20
15.11161
10
19.83577
20
15.14675
10
19.80100
20
15.17868
10
19.76331
20
15.20716
10
19.72295
20
15.23195
10
19.68015
20
15.25278
10
19.63517
20
15.26942
10
19.58825
20
15.28161
10
19.53964
20
15.28911
10
19.48958
20
15.29167
10
19.43953
20
15.28911
10
19.39092
20
15.28161
10
19.34400
20
15.26942
10
19.29902
20
15.25278
10
19.25622
20
15.23195
10
19.21585
20
15.20716
10
19.17816
20
15.17868
10
19.14340
20
15.14675
10
19.11180
20
15.11161
10
19.08361
20
15.07352
10
19.05909
20
15.03272
10
19.03847
20
14.98947
10
19.02201
20
14.94401
10
19.00995
20
14.89659
10
19.00253
20
14.84746
10
19.00000
20
14.79687
10
19.00253
20
14.74629
10
19.00995
20
14.69716
10
19.02201
20
14.64974
10
19.03847
20
14.60428
10
19.05909
20
14.56103
10
19.08361
20
14.52023
10
19.11180
20
14.48214
10
19.14340
20
14.44700
10
19.17816
20
14.41507
10
19.21585
20
14.38659
10
19.25622
20
14.36180
10
19.29902
20
14.34097
10
19.34400
20
14.32433
10
19.39092
20
14.31214
10
19.43953
20
14.30464
10
19.48958
20
14.30208
10
19.53964
20
14.30464
10
19.58825
20
14.31214
10
19.63517
20
14.32433
10
19.68015
20
14.34097
10
19.72295
20
14.36180
10
19.76331
20
14.38659
10
19.80100
20
14.41507
10
19.83577
20
14.44700
10
19.86737
20
14.48214
10
19.89555
20
14.52023
10
19.92008
20
14.56103
10
19.94069
20
14.60428
10
19.95716
20
14.64974
10
19.96922
20
14.69716
10
19.97664
20
14.74629
10
19.97917
20
14.79687
0
LWPOLYLINE
8
INSIDE_Holes_6_apart
90
65
70
1
10
6.54167
20
9.80729
10
6.53914
20
9.85788
10
6.53172
20
9.90701
10
6.51966
20
9.95443
10
6.50319
20
9.99989
10
6.48258
20
10.04314
10
6.45805
20
10.08393
10
6.42987
20
10.12203
10
6.39827
20
10.15716
10
6.36350
20
10.18910
10
6.32581
20
10.21758
10
6.28545
20
10.24236
10
6.24265
20
10.26320
10
6.19767
20
10.27984
10
6.15075
20
10.29203
10
6.10214
20
10.29953
10
6.05208
20
10.30208
10
6.00203
20
10.29953
10
5.95342
20
10.29203
10
5.90650
20
10.27984
10
5.86152
20
10.26320
10
5.81872
20
10.24236
10
5.77835
20
10.21758
10
5.74066
20
10.18910
10
5.70590
20
10.15716
10
5.67430
20
10.12203
10
5.64611
20
10.08393
10
5.62159
20
10.04314
10
5.60097
20
9.99989
10
5.58451
20
9.95443
10
5.57245
20
9.90701
10
5.56503
20
9.85788
10
5.56250
20
9.80729
10
5.56503
20
9.75670
10
5.57245
20
9.70757
10
5.58451
20
9.66016
10
5.60097
20
9.61470
10
5.62159
20
9.57144
10
5.64611
20
9.53065
10
5.67430
20
9.49256
10
5.70590
20
9.45742
10
5.74066
20
9.42549
10
5.77835
20
9.39700
10
5.81872
20
9.37222
10
5.86152
20
9.35138
10
5.90650
20
9.33474
10
5.95342
20
9.32255
10
6.00203
20
9.31505
10
6.05208
20
9.31250
10
6.10214
20
9.31505
10
6.15075
20
9.32255
10
6.19767
20
9.33474
10
6.24265
20
9.35138
10
6.28545
20
9.37222
10
6.32581
20
9.39700
10
6.36350
20
9.42549
10
6.39827
20
9.45742
10
6.42987
20
9.49256
10
6.45805
20
9.53065
10
6.48258
20
9.57144
10
6.50319
20
9.61470
10
6.51966
20
9.66016
10
6.53172
20
9.70757
10
6.53914
20
9.75670
10
6.54167
20
9.80729
0
LWPOLYLINE
8
INSIDE_Holes_6_apart
90
65
70
1
10
11.02083
20
9.80729
10
11.01831
20
9.85788
10
11.01089
20
9.90701
10
10.99882
20
9.95443
10
10.98236
20
9.99989
10
10.96174
20
10.04314
10
10.93722
20
10.08393
10
10.90904
20
10.12203
10
10.87744
20
10.15716
10
10.84267
20
10.18910
10
10.80498
20
10.21758
10
10.76461
20
10.24236
10
10.72182
20
10.26320
10
10.67684
20
10.27984
10
10.62992
20
10.29203
10
10.58131
20
10.29953
10
10.53125
20
10.30208
10
10.48119
20
10.29953
10
10.43258
20
10.29203
10
10.38566
20
10.27984
10
10.34068
20
10.26320
10
10.29789
20
10.24236
10
10.25752
20
10.21758
10
10.21983
20
10.18910
10
10.18506
20
10.15716
10
10.15346
20
10.12203
10
10.12528
20
10.08393
10
10.10076
20
10.04314
10
10.08014
20
9.99989
10
10.06368
20
9.95443
10
10.05161
20
9.90701
10
10.04419
20
9.85788
10
10.04167
20
9.80729
10
10.04419
20
9.75670
10
10.05161
20
9.70757
10
10.06368
20
9.66016
10
10.08014
20
9.61470
10
10.10076
20
9.57144
10
10.12528
20
9.53065
10
10.15346
20
9.49256
10
10.18506
20
9.45742
10
10.21983
20
9.42549
10
10.25752
20
9.39700
10
10.29789
20
9.37222
10
10.34068
20
9.35138
10
10.38566
20
9.33474
10
10.43258
20
9.32255
10
10.48119
20
9.31505
10
10.53125
20
9.31250
10
10.58131
20
9.31505
10
10.62992
20
9.32255
10
10.67684
20
9.33474
10
10.72182
20
9.35138
10
10.76461
20
9.37222
10
10.80498
20
9.39700
10
10.84267
20
9.42549
10
10.87744
20
9.45742
10
10.90904
20
9.49256
10
10.93722
20
9.53065
10
10.96174
20
9.57144
10
10.98236
20
9.61470
10
10.99882
20
9.66016
10
11.01089
20
9.70757
10
11.01831
20
9.75670
10
11.02083
20
9.80729
0
LWPOLYLINE
8
INSIDE_Holes_6_apart
90
65
70
1
10
15.50000
20
9.80729
10
15.49747
20
9.85788
10
15.49005
20
9.90701
10
15.47799
20
9.95443
10
15.46153
20
9.99989
10
15.44091
20
10.04314
10
15.41639
20
10.08393
10
15.38820
20
10.12203
10
15.35660
20
10.15716
10
15.32184
20
10.18910
10
15.28415
20
10.21758
10
15.24378
20
10.24236
10
15.20098
20
10.26320
10
15.15600
20
10.27984
10
15.10908
20
10.29203
10
15.06047
20
10.29953
10
15.01042
20
10.30208
10
14.96036
20
10.29953
10
14.91175
20
10.29203
10
14.86483
20
10.27984
10
14.81985
20
10.26320
10
14.77705
20
10.24236
10
14.73669
20
10.21758
10
14.69900
20
10.18910
10
14.66423
20
10.15716
10
14.63263
20
10.12203
10
14.60445
20
10.08393
10
14.57992
20
10.04314
10
14.55931
20
9.99989
10
14.54284
20
9.95443
10
14.53078
20
9.90701
10
14.52336
20
9.85788
10
14.52083
20
9.80729
10
14.52336
20
9.75670
10
14.53078
20
9.70757
10
14.54284
20
9.66016
10
14.55931
20
9.61470
10
14.57992
20
9.57144
10
14.60445
20
9.53065
10
14.63263
20
9.49256
10
14.66423
20
9.45742
10
14.69900
20
9.42549
10
14.73669
20
9.39700
10
14.77705
20
9.37222
10
14.81985
20
9.35138
10
14.86483
20
9.33474
10
14.91175
20
9.32255
10
14.96036
20
9.31505
10
15.01042
20
9.31250
10
15.06047
20
9.31505
10
15.10908
20
9.32255
10
15.15600
20
9.33474
10
15.20098
20
9.35138
10
15.24378
20
9.37222
10
15.28415
20
9.39700
10
15.32184
20
9.42549
10
15.35660
20
9.45742
10
15.38820
20
9.49256
10
15.41639
20
9.53065
10
15.44091
20
9.57144
10
15.46153
20
9.61470
10
15.47799
20
9.66016
10
15.49005
20
9.70757
10
15.49747
20
9.75670
10
15.50000
20
9.80729
0
LWPOLYLINE
8
INSIDE_Holes_6_apart
90
65
70
1
10
19.97917
20
9.80729
10
19.97664
20
9.85788
10
19.96922
20
9.90701
10
19.95716
20
9.95443
10
19.94069
20
9.99989
10
19.92008
20
10.04314
10
19.89555
20
10.08393
10
19.86737
20
10.12203
10
19.83577
20
10.15716
10
19.80100
20
10.18910
10
19.76331
20
10.21758
10
19.72295
20
10.24236
10
19.68015
20
10.26320
10
19.63517
20
10.27984
10
19.58825
20
10.29203
10
19.53964
20
10.29953
10
19.48958
20
10.30208
10
19.43953
20
10.29953
10
19.39092
20
10.29203
10
19.34400
20
10.27984
10
19.29902
20
10.26320
10
19.25622
20
10.24236
10
19.21585
20
10.21758
10
19.17816
20
10.18910
10
19.14340
20
10.15716
10
19.11180
20
10.12203
10
19.08361
20
10.08393
10
19.05909
20
10.04314
10
19.03847
20
9.99989
10
19.02201
20
9.95443
10
19.00995
20
9.90701
10
19.00253
20
9.85788
10
19.00000
20
9.80729
10
19.00253
20
9.75670
10
19.00995
20
9.70757
10
19.02201
20
9.66016
10
19.03847
20
9.61470
10
19.05909
20
9.57144
10
19.08361
20
9.53065
10
19.11180
20
9.49256
10
19.14340
20
9.45742
10
19.17816
20
9.42549
10
19.21585
20
9.39700
10
19.25622
20
9.37222
10
19.29902
20
9.35138
10
19.34400
20
9.33474
10
19.39092
20
9.32255
10
19.43953
20
9.31505
10
19.48958
20
9.31250
10
19.53964
20
9.31505
10
19.58825
20
9.32255
10
19.63517
20
9.33474
10
19.68015
20
9.35138
10
19.72295
20
9.37222
10
19.76331
20
9.39700
10
19.80100
20
9.42549
10
19.83577
20
9.45742
10
19.86737
20
9.49256
10
19.89555
20
9.53065
10
19.92008
20
9.57144
10
19.94069
20
9.61470
10
19.95716
20
9.66016
10
19.96922
20
9.70757
10
19.97664
20
9.75670
10
19.97917
20
9.80729
0
LWPOLYLINE
8
INSIDE_Holes_6_apart
90
65
70
1
10
6.54167
20
4.81771
10
6.53914
20
4.86830
10
6.53172
20
4.91743
10
6.51966
20
4.96484
10
6.50319
20
5.01030
10
6.48258
20
5.05356
10
6.45805
20
5.09435
10
6.42987
20
5.13244
10
6.39827
20
5.16758
10
6.36350
20
5.19951
10
6.32581
20
5.22800
10
6.28545
20
5.25278
10
6.24265
20
5.27362
10
6.19767
20
5.29026
10
6.15075
20
5.30245
10
6.10214
20
5.30995
10
6.05208
20
5.31250
10
6.00203
20
5.30995
10
5.95342
20
5.30245
10
5.90650
20
5.29026
10
5.86152
20
5.27362
10
5.81872
20
5.25278
10
5.77835
20
5.22800
10
5.74066
20
5.19951
10
5.70590
20
5.16758
10
5.67430
20
5.13244
10
5.64611
20
5.09435
10
5.62159
20
5.05356
10
5.60097
20
5.01030
10
5.58451
20
4.96484
10
5.57245
20
4.91743
10
5.56503
20
4.86830
10
5.56250
20
4.81771
10
5.56503
20
4.76712
10
5.57245
20
4.71799
10
5.58451
20
4.67057
10
5.60097
20
4.62511
10
5.62159
20
4.58186
10
5.64611
20
4.54107
10
5.67430
20
4.50297
10
5.70590
20
4.46784
10
5.74066
20
4.43590
10
5.77835
20
4.40742
10
5.81872
20
4.38264
10
5.86152
20
4.36180
10
5.90650
20
4.34516
10
5.95342
20
4.33297
10
6.00203
20
4.32547
10
6.05208
20
4.32292
10
6.10214
20
4.32547
10
6.15075
20
4.33297
10
6.19767
20
4.34516
10
6.24265
20
4.36180
10
6.28545
20
4.38264
10
6.32581
20
4.40742
10
6.36350
20
4.43590
10
6.39827
20
4.46784
10
6.42987
20
4.50297
10
6.45805
20
4.54107
10
6.48258
20
4.58186
10
6.50319
20
4.62511
10
6.51966
20
4.67057
10
6.53172
20
4.71799
10
6.53914
20
4.76712
10
6.54167
20
4.81771
0
LWPOLYLINE
8
INSIDE_Holes_6_apart
90
65
70
1
10
11.02083
20
4.81771
10
11.01831
20
4.86830
10
11.01089
20
4.91743
10
10.99882
20
4.96484
10
10.98236
20
5.01030
10
10.96174
20
5.05356
10
10.93722
20
5.09435
10
10.90904
20
5.13244
10
10.87744
20
5.16758
10
10.84267
20
5.19951
10
10.80498
20
5.22800
10
10.76461
20
5.25278
10
10.72182
20
5.27362
10
10.67684
20
5.29026
10
10.62992
20
5.30245
10
10.58131
20
5.30995
10
10.53125
20
5.31250
10
10.48119
20
5.30995
10
10.43258
20
5.30245
10
10.38566
20
5.29026
10
10.34068
20
5.27362
10
10.29789
20
5.25278
10
10.25752
20
5.22800
10
10.21983
20
5.19951
10
10.18506
20
5.16758
10
10.15346
20
5.13244
10
10.12528
20
5.09435
10
10.10076
20
5.05356
10
10.08014
20
5.01030
10
10.06368
20
4.96484
10
10.05161
20
4.91743
10
10.04419
20
4.86830
10
10.04167
20
4.81771
10
10.04419
20
4.76712
10
10.05161
20
4.71799
10
10.06368
20
4.67057
10
10.08014
20
4.62511
10
10.10076
20
4.58186
10
10.12528
20
4.54107
10
10.15346
20
4.50297
10
10.18506
20
4.46784
10
10.21983
20
4.43590
10
10.25752
20
4.40742
10
10.29789
20
4.38264
10
10.34068
20
4.36180
10
10.38566
20
4.34516
10
10.43258
20
4.33297
10
10.48119
20
4.32547
10
10.53125
20
4.32292
10
10.58131
20
4.32547
10
10.62992
20
4.33297
10
10.67684
20
4.34516
10
10.72182
20
4.36180
10
10.76461
20
4.38264
10
10.80498
20
4.40742
10
10.84267
20
4.43590
10
10.87744
20
4.46784
10
10.90904
20
4.50297
10
10.93722
20
4.54107
10
10.96174
20
4.58186
10
10.98236
20
4.62511
10
10.99882
20
4.67057
10
11.01089
20
4.71799
10
11.01831
20
4.76712
10
11.02083
20
4.81771
0
LWPOLYLINE
8
INSIDE_Holes_6_apart
90
65
70
1
10
15.50000
20
4.81771
10
15.49747
20
4.86830
10
15.49005
20
4.91743
10
15.47799
20
4.96484
10
15.46153
20
5.01030
10
15.44091
20
5.05356
10
15.41639
20
5.09435
10
15.38820
20
5.13244
10
15.35660
20
5.16758
10
15.32184
20
5.19951
10
15.28415
20
5.22800
10
15.24378
20
5.25278
10
15.20098
20
5.27362
10
15.15600
20
5.29026
10
15.10908
20
5.30245
10
15.06047
20
5.30995
10
15.01042
20
5.31250
10
14.96036
20
5.30995
10
14.91175
20
5.30245
10
14.86483
20
5.29026
10
14.81985
20
5.27362
10
14.77705
20
5.25278
10
14.73669
20
5.22800
10
14.69900
20
5.19951
10
14.66423
20
5.16758
10
14.63263
20
5.13244
10
14.60445
20
5.09435
10
14.57992
20
5.05356
10
14.55931
20
5.01030
10
14.54284
20
4.96484
10
14.53078
20
4.91743
10
14.52336
20
4.86830
10
14.52083
20
4.81771
10
14.52336
20
4.76712
10
14.53078
20
4.71799
10
14.54284
20
4.67057
10
14.55931
20
4.62511
10
14.57992
20
4.58186
10
14.60445
20
4.54107
10
14.63263
20
4.50297
10
14.66423
20
4.46784
10
14.69900
20
4.43590
10
14.73669
20
4.40742
10
14.77705
20
4.38264
10
14.81985
20
4.36180
10
14.86483
20
4.34516
10
14.91175
20
4.33297
10
14.96036
20
4.32547
10
15.01042
20
4.32292
10
15.06047
20
4.32547
10
15.10908
20
4.33297
10
15.15600
20
4.34516
10
15.20098
20
4.36180
10
15.24378
20
4.38264
10
15.28415
20
4.40742
10
15.32184
20
4.43590
10
15.35660
20
4.46784
10
15.38820
20
4.50297
10
15.41639
20
4.54107
10
15.44091
20
4.58186
10
15.46153
20
4.62511
10
15.47799
20
4.67057
10
15.49005
20
4.71799
10
15.49747
20
4.76712
10
15.50000
20
4.81771
0
LWPOLYLINE
8
INSIDE_Holes_6_apart
90
65
70
1
10
19.97917
20
4.81771
10
19.97664
20
4.86830
10
19.96922
20
4.91743
10
19.95716
20
4.96484
10
19.94069
20
5.01030
10
19.92008
20
5.05356
10
19.89555
20
5.09435
10
19.86737
20
5.13244
10
19.83577
20
5.16758
10
19.80100
20
5.19951
10
19.76331
20
5.22800
10
19.72295
20
5.25278
10
19.68015
20
5.27362
10
19.63517
20
5.29026
10
19.58825
20
5.30245
10
19.53964
20
5.30995
10
19.48958
20
5.31250
10
19.43953
20
5.30995
10
19.39092
20
5.30245
10
19.34400
20
5.29026
10
19.29902
20
5.27362
10
19.25622
20
5.25278
10
19.21585
20
5.22800
10
19.17816
20
5.19951
10
19.14340
20
5.16758
10
19.11180
20
5.13244
10
19.08361
20
5.09435
10
19.05909
20
5.05356
10
19.03847
20
5.01030
10
19.02201
20
4.96484
10
19.00995
20
4.91743
10
19.00253
20
4.86830
10
19.00000
20
4.81771
10
19.00253
20
4.76712
10
19.00995
20
4.71799
10
19.02201
20
4.67057
10
19.03847
20
4.62511
10
19.05909
20
4.58186
10
19.08361
20
4.54107
10
19.11180
20
4.50297
10
19.14340
20
4.46784
10
19.17816
20
4.43590
10
19.21585
20
4.40742
10
19.25622
20
4.38264
10
19.29902
20
4.36180
10
19.34400
20
4.34516
10
19.39092
20
4.33297
10
19.43953
20
4.32547
10
19.48958
20
4.32292
10
19.53964
20
4.32547
10
19.58825
20
4.33297
10
19.63517
20
4.34516
10
19.68015
20
4.36180
10
19.72295
20
4.38264
10
19.76331
20
4.40742
10
19.80100
20
4.43590
10
19.83577
20
4.46784
10
19.86737
20
4.50297
10
19.89555
20
4.54107
10
19.92008
20
4.58186
10
19.94069
20
4.62511
10
19.95716
20
4.67057
10
19.96922
20
4.71799
10
19.97664
20
4.76712
10
19.97917
20
4.81771
0
LWPOLYLINE
8
INSIDE_Holes_6_apart
90
65
70
1
10
24.95833
20
41.73437
10
24.95581
20
41.78496
10
24.94839
20
41.83409
10
24.93632
20
41.88151
10
24.91986
20
41.92697
10
24.89924
20
41.97022
10
24.87472
20
42.01102
10
24.84654
20
42.04911
10
24.81494
20
42.08425
10
24.78017
20
42.11618
10
24.74248
20
42.14466
10
24.70211
20
42.16945
10
24.65932
20
42.19028
10
24.61434
20
42.20692
10
24.56742
20
42.21911
10
24.51881
20
42.22661
10
24.46875
20
42.22917
10
24.41869
20
42.22661
10
24.37008
20
42.21911
10
24.32316
20
42.20692
10
24.27818
20
42.19028
10
24.23539
20
42.16945
10
24.19502
20
42.14466
10
24.15733
20
42.11618
10
24.12256
20
42.08425
10
24.09096
20
42.04911
10
24.06278
20
42.01102
10
24.03826
20
41.97022
10
24.01764
20
41.92697
10
24.00118
20
41.88151
10
23.98911
20
41.83409
10
23.98169
20
41.78496
10
23.97917
20
41.73437
10
23.98169
20
41.68379
10
23.98911
20
41.63466
10
24.00118
20
41.58724
10
24.01764
20
41.54178
10
24.03826
20
41.49853
10
24.06278
20
41.45773
10
24.09096
20
41.41964
10
24.12256
20
41.38450
10
24.15733
20
41.35257
10
24.19502
20
41.32409
10
24.23539
20
41.29930
10
24.27818
20
41.27847
10
24.32316
20
41.26183
10
24.37008
20
41.24964
10
24.41869
20
41.24214
10
24.46875
20
41.23958
10
24.51881
20
41.24214
10
24.56742
20
41.24964
10
24.61434
20
41.26183
10
24.65932
20
41.27847
10
24.70211
20
41.29930
10
24.74248
20
41.32409
10
24.78017
20
41.35257
10
24.81494
20
41.38450
10
24.84654
20
41.41964
10
24.87472
20
41.45773
10
24.89924
20
41.49853
10
24.91986
20
41.54178
10
24.93632
20
41.58724
10
24.94839
20
41.63466
10
24.95581
20
41.68379
10
24.95833
20
41.73437
0
LWPOLYLINE
8
INSIDE_Holes_6_apart
90
65
70
1
10
24.95833
20
37.24479
10
24.95581
20
37.29538
10
24.94839
20
37.34451
10
24.93632
20
37.39193
10
24.91986
20
37.43739
10
24.89924
20
37.48064
10
24.87472
20
37.52143
10
24.84654
20
37.55953
10
24.81494
20
37.59466
10
24.78017
20
37.62660
10
24.74248
20
37.65508
10
24.70211
20
37.67986
10
24.65932
20
37.70070
10
24.61434
20
37.71734
10
24.56742
20
37.72953
10
24.51881
20
37.73703
10
24.46875
20
37.73958
10
24.41869
20
37.73703
10
24.37008
20
37.72953
10
24.32316
20
37.71734
10
24.27818
20
37.70070
10
24.23539
20
37.67986
10
24.19502
20
37.65508
10
24.15733
20
37.62660
10
24.12256
20
37.59466
10
24.09096
20
37.55953
10
24.06278
20
37.52143
10
24.03826
20
37.48064
10
24.01764
20
37.43739
10
24.00118
20
37.39193
10
23.98911
20
37.34451
10
23.98169
20
37.29538
10
23.97917
20
37.24479
10
23.98169
20
37.19420
10
23.98911
20
37.14507
10
24.00118
20
37.09766
10
24.01764
20
37.05220
10
24.03826
20
37.00894
10
24.06278
20
36.96815
10
24.09096
20
36.93006
10
24.12256
20
36.89492
10
24.15733
20
36.86299
10
24.19502
20
36.83450
10
24.23539
20
36.80972
10
24.27818
20
36.78888
10
24.32316
20
36.77224
10
24.37008
20
36.76005
10
24.41869
20
36.75255
10
24.46875
20
36.75000
10
24.51881
20
36.75255
10
24.56742
20
36.76005
10
24.61434
20
36.77224
10
24.65932
20
36.78888
10
24.70211
20
36.80972
10
24.74248
20
36.83450
10
24.78017
20
36.86299
10
24.81494
20
36.89492
10
24.84654
20
36.93006
10
24.87472
20
36.96815
10
24.89924
20
37.00894
10
24.91986
20
37.05220
10
24.93632
20
37.09766
10
24.94839
20
37.14507
10
24.95581
20
37.19420
10
24.95833
20
37.24479
0
LWPOLYLINE
8
INSIDE_Holes_6_apart
90
65
70
1
10
24.95833
20
32.75521
10
24.95581
20
32.80580
10
24.94839
20
32.85493
10
24.93632
20
32.90234
10
24.91986
20
32.94780
10
24.89924
20
32.99106
10
24.87472
20
33.03185
10
24.84654
20
33.06994
10
24.81494
20
33.10508
10
24.78017
20
33.13701
10
24.74248
20
33.16550
10
24.70211
20
33.19028
10
24.65932
20
33.21112
10
24.61434
20
33.22776
10
24.56742
20
33.23995
10
24.51881
20
33.24745
10
24.46875
20
33.25000
10
24.41869
20
33.24745
10
24.37008
20
33.23995
10
24.32316
20
33.22776
10
24.27818
20
33.21112
10
24.23539
20
33.19028
10
24.19502
20
33.16550
10
24.15733
20
33.13701
10
24.12256
20
33.10508
10
24.09096
20
33.06994
10
24.06278
20
33.03185
10
24.03826
20
32.99106
10
24.01764
20
32.94780
10
24.00118
20
32.90234
10
23.98911
20
32.85493
10
23.98169
20
32.80580
10
23.97917
20
32.75521
10
23.98169
20
32.70462
10
23.98911
20
32.65549
10
24.00118
20
32.60807
10
24.01764
20
32.56261
10
24.03826
20
32.51936
10
24.06278
20
32.47857
10
24.09096
20
32.44047
10
24.12256
20
32.40534
10
24.15733
20
32.37340
10
24.19502
20
32.34492
10
24.23539
20
32.32014
10
24.27818
20
32.29930
10
24.32316
20
32.28266
10
24.37008
20
32.27047
10
24.41869
20
32.26297
10
24.46875
20
32.26042
10
24.51881
20
32.26297
10
24.56742
20
32.27047
10
24.61434
20
32.28266
10
24.65932
20
32.29930
10
24.70211
20
32.32014
10
24.74248
20
32.34492
10
24.78017
20
32.37340
10
24.81494
20
32.40534
10
24.84654
20
32.44047
10
24.87472
20
32.47857
10
24.89924
20
32.51936
10
24.91986
20
32.56261
10
24.93632
20
32.60807
10
24.94839
20
32.65549
10
24.95581
20
32.70462
10
24.95833
20
32.75521
0
LWPOLYLINE
8
INSIDE_Holes_6_apart
90
65
70
1
10
24.95833
20
28.26562
10
24.95581
20
28.31621
10
24.94839
20
28.36534
10
24.93632
20
28.41276
10
24.91986
20
28.45822
10
24.89924
20
28.50147
10
24.87472
20
28.54227
10
24.84654
20
28.58036
10
24.81494
20
28.61550
10
24.78017
20
28.64743
10
24.74248
20
28.67591
10
24.70211
20
28.70070
10
24.65932
20
28.72153
10
24.61434
20
28.73817
10
24.56742
20
28.75036
10
24.51881
20
28.75786
10
24.46875
20
28.76042
10
24.41869
20
28.75786
10
24.37008
20
28.75036
10
24.32316
20
28.73817
10
24.27818
20
28.72153
10
24.23539
20
28.70070
10
24.19502
20
28.67591
10
24.15733
20
28.64743
10
24.12256
20
28.61550
10
24.09096
20
28.58036
10
24.06278
20
28.54227
10
24.03826
20
28.50147
10
24.01764
20
28.45822
10
24.00118
20
28.41276
10
23.98911
20
28.36534
10
23.98169
20
28.31621
10
23.97917
20
28.26562
10
23.98169
20
28.21504
10
23.98911
20
28.16591
10
24.00118
20
28.11849
10
24.01764
20
28.07303
10
24.03826
20
28.02978
10
24.06278
20
27.98898
10
24.09096
20
27.95089
10
24.12256
20
27.91575
10
24.15733
20
27.88382
10
24.19502
20
27.85534
10
24.23539
20
27.83055
10
24.27818
20
27.80972
10
24.32316
20
27.79308
10
24.37008
20
27.78089
10
24.41869
20
27.77339
10
24.46875
20
27.77083
10
24.51881
20
27.77339
10
24.56742
20
27.78089
10
24.61434
20
27.79308
10
24.65932
20
27.80972
10
24.70211
20
27.83055
10
24.74248
20
27.85534
10
24.78017
20
27.88382
10
24.81494
20
27.91575
10
24.84654
20
27.95089
10
24.87472
20
27.98898
10
24.89924
20
28.02978
10
24.91986
20
28.07303
10
24.93632
20
28.11849
10
24.94839
20
28.16591
10
24.95581
20
28.21504
10
24.95833
20
28.26562
0
LWPOLYLINE
8
INSIDE_Holes_6_apart
90
65
70
1
10
24.95833
20
23.77604
10
24.95581
20
23.82663
10
24.94839
20
23.87576
10
24.93632
20
23.92318
10
24.91986
20
23.96864
10
24.89924
20
24.01189
10
24.87472
20
24.05268
10
24.84654
20
24.09078
10
24.81494
20
24.12591
10
24.78017
20
24.15785
10
24.74248
20
24.18633
10
24.70211
20
24.21111
10
24.65932
20
24.23195
10
24.61434
20
24.24859
10
24.56742
20
24.26078
10
24.51881
20
24.26828
10
24.46875
20
24.27083
10
24.41869
20
24.26828
10
24.37008
20
24.26078
10
24.32316
20
24.24859
10
24.27818
20
24.23195
10
24.23539
20
24.21111
10
24.19502
20
24.18633
10
24.15733
20
24.15785
10
24.12256
20
24.12591
10
24.09096
20
24.09078
10
24.06278
20
24.05268
10
24.03826
20
24.01189
10
24.01764
20
23.96864
10
24.00118
20
23.92318
10
23.98911
20
23.87576
10
23.98169
20
23.82663
10
23.97917
20
23.77604
10
23.98169
20
23.72545
10
23.98911
20
23.67632
10
24.00118
20
23.62891
10
24.01764
20
23.58345
10
24.03826
20
23.54019
10
24.06278
20
23.49940
10
24.09096
20
23.46131
10
24.12256
20
23.42617
10
24.15733
20
23.39424
10
24.19502
20
23.36575
10
24.23539
20
23.34097
10
24.27818
20
23.32013
10
24.32316
20
23.30349
10
24.37008
20
23.29130
10
24.41869
20
23.28380
10
24.46875
20
23.28125
10
24.51881
20
23.28380
10
24.56742
20
23.29130
10
24.61434
20
23.30349
10
24.65932
20
23.32013
10
24.70211
20
23.34097
10
24.74248
20
23.36575
10
24.78017
20
23.39424
10
24.81494
20
23.42617
10
24.84654
20
23.46131
10
24.87472
20
23.49940
10
24.89924
20
23.54019
10
24.91986
20
23.58345
10
24.93632
20
23.62891
10
24.94839
20
23.67632
10
24.95581
20
23.72545
10
24.95833
20
23.77604
0
LWPOLYLINE
8
INSIDE_Holes_6_apart
90
65
70
1
10
24.95833
20
19.28646
10
24.95581
20
19.33705
10
24.94839
20
19.38618
10
24.93632
20
19.43359
10
24.91986
20
19.47905
10
24.89924
20
19.52231
10
24.87472
20
19.56310
10
24.84654
20
19.60119
10
24.81494
20
19.63633
10
24.78017
20
19.66826
10
24.74248
20
19.69675
10
24.70211
20
19.72153
10
24.65932
20
19.74237
10
24.61434
20
19.75901
10
24.56742
20
19.77120
10
24.51881
20
19.77870
10
24.46875
20
19.78125
10
24.41869
20
19.77870
10
24.37008
20
19.77120
10
24.32316
20
19.75901
10
24.27818
20
19.74237
10
24.23539
20
19.72153
10
24.19502
20
19.69675
10
24.15733
20
19.66826
10
24.12256
20
19.63633
10
24.09096
20
19.60119
10
24.06278
20
19.56310
10
24.03826
20
19.52231
10
24.01764
20
19.47905
10
24.00118
20
19.43359
10
23.98911
20
19.38618
10
23.98169
20
19.33705
10
23.97917
20
19.28646
10
23.98169
20
19.23587
10
23.98911
20
19.18674
10
24.00118
20
19.13932
10
24.01764
20
19.09386
10
24.03826
20
19.05061
10
24.06278
20
19.00982
10
24.09096
20
18.97172
10
24.12256
20
18.93659
10
24.15733
20
18.90465
10
24.19502
20
18.87617
10
24.23539
20
18.85139
10
24.27818
20
18.83055
10
24.32316
20
18.81391
10
24.37008
20
18.80172
10
24.41869
20
18.79422
10
24.46875
20
18.79167
10
24.51881
20
18.79422
10
24.56742
20
18.80172
10
24.61434
20
18.81391
10
24.65932
20
18.83055
10
24.70211
20
18.85139
10
24.74248
20
18.87617
10
24.78017
20
18.90465
10
24.81494
20
18.93659
10
24.84654
20
18.97172
10
24.87472
20
19.00982
10
24.89924
20
19.05061
10
24.91986
20
19.09386
10
24.93632
20
19.13932
10
24.94839
20
19.18674
10
24.95581
20
19.23587
10
24.95833
20
19.28646
0
LWPOLYLINE
8
INSIDE_Holes_6_apart
90
65
70
1
10
24.95833
20
14.79687
10
24.95581
20
14.84746
10
24.94839
20
14.89659
10
24.93632
20
14.94401
10
24.91986
20
14.98947
10
24.89924
20
15.03272
10
24.87472
20
15.07352
10
24.84654
20
15.11161
10
24.81494
20
15.14675
10
24.78017
20
15.17868
10
24.74248
20
15.20716
10
24.70211
20
15.23195
10
24.65932
20
15.25278
10
24.61434
20
15.26942
10
24.56742
20
15.28161
10
24.51881
20
15.28911
10
24.46875
20
15.29167
10
24.41869
20
15.28911
10
24.37008
20
15.28161
10
24.32316
20
15.26942
10
24.27818
20
15.25278
10
24.23539
20
15.23195
10
24.19502
20
15.20716
10
24.15733
20
15.17868
10
24.12256
20
15.14675
10
24.09096
20
15.11161
10
24.06278
20
15.07352
10
24.03826
20
15.03272
10
24.01764
20
14.98947
10
24.00118
20
14.94401
10
23.98911
20
14.89659
10
23.98169
20
14.84746
10
23.97917
20
14.79687
10
23.98169
20
14.74629
10
23.98911
20
14.69716
10
24.00118
20
14.64974
10
24.01764
20
14.60428
10
24.03826
20
14.56103
10
24.06278
20
14.52023
10
24.09096
20
14.48214
10
24.12256
20
14.44700
10
24.15733
20
14.41507
10
24.19502
20
14.38659
10
24.23539
20
14.36180
10
24.27818
20
14.34097
10
24.32316
20
14.32433
10
24.37008
20
14.31214
10
24.41869
20
14.30464
10
24.46875
20
14.30208
10
24.51881
20
14.30464
10
24.56742
20
14.31214
10
24.61434
20
14.32433
10
24.65932
20
14.34097
10
24.70211
20
14.36180
10
24.74248
20
14.38659
10
24.78017
20
14.41507
10
24.81494
20
14.44700
10
24.84654
20
14.48214
10
24.87472
20
14.52023
10
24.89924
20
14.56103
10
24.91986
20
14.60428
10
24.93632
20
14.64974
10
24.94839
20
14.69716
10
24.95581
20
14.74629
10
24.95833
20
14.79687
0
LWPOLYLINE
8
INSIDE_Holes_6_apart
90
65
70
1
10
24.95833
20
9.80729
10
24.95581
20
9.85788
10
24.94839
20
9.90701
10
24.93632
20
9.95443
10
24.91986
20
9.99989
10
24.89924
20
10.04314
10
24.87472
20
10.08393
10
24.84654
20
10.12203
10
24.81494
20
10.15716
10
24.78017
20
10.18910
10
24.74248
20
10.21758
10
24.70211
20
10.24236
10
24.65932
20
10.26320
10
24.61434
20
10.27984
10
24.56742
20
10.29203
10
24.51881
20
10.29953
10
24.46875
20
10.30208
10
24.41869
20
10.29953
10
24.37008
20
10.29203
10
24.32316
20
10.27984
10
24.27818
20
10.26320
10
24.23539
20
10.24236
10
24.19502
20
10.21758
10
24.15733
20
10.18910
10
24.12256
20
10.15716
10
24.09096
20
10.12203
10
24.06278
20
10.08393
10
24.03826
20
10.04314
10
24.01764
20
9.99989
10
24.00118
20
9.95443
10
23.98911
20
9.90701
10
23.98169
20
9.85788
10
23.97917
20
9.80729
10
23.98169
20
9.75670
10
23.98911
20
9.70757
10
24.00118
20
9.66016
10
24.01764
20
9.61470
10
24.03826
20
9.57144
10
24.06278
20
9.53065
10
24.09096
20
9.49256
10
24.12256
20
9.45742
10
24.15733
20
9.42549
10
24.19502
20
9.39700
10
24.23539
20
9.37222
10
24.27818
20
9.35138
10
24.32316
20
9.33474
10
24.37008
20
9.32255
10
24.41869
20
9.31505
10
24.46875
20
9.31250
10
24.51881
20
9.31505
10
24.56742
20
9.32255
10
24.61434
20
9.33474
10
24.65932
20
9.35138
10
24.70211
20
9.37222
10
24.74248
20
9.39700
10
24.78017
20
9.42549
10
24.81494
20
9.45742
10
24.84654
20
9.49256
10
24.87472
20
9.53065
10
24.89924
20
9.57144
10
24.91986
20
9.61470
10
24.93632
20
9.66016
10
24.94839
20
9.70757
10
24.95581
20
9.75670
10
24.95833
20
9.80729
0
LWPOLYLINE
8
INSIDE_Holes_6_apart
90
65
70
1
10
24.95833
20
4.81771
10
24.95581
20
4.86830
10
24.94839
20
4.91743
10
24.93632
20
4.96484
10
24.91986
20
5.01030
10
24.89924
20
5.05356
10
24.87472
20
5.09435
10
24.84654
20
5.13244
10
24.81494
20
5.16758
10
24.78017
20
5.19951
10
24.74248
20
5.22800
10
24.70211
20
5.25278
10
24.65932
20
5.27362
10
24.61434
20
5.29026
10
24.56742
20
5.30245
10
24.51881
20
5.30995
10
24.46875
20
5.31250
10
24.41869
20
5.30995
10
24.37008
20
5.30245
10
24.32316
20
5.29026
10
24.27818
20
5.27362
10
24.23539
20
5.25278
10
24.19502
20
5.22800
10
24.15733
20
5.19951
10
24.12256
20
5.16758
10
24.09096
20
5.13244
10
24.06278
20
5.09435
10
24.03826
20
5.05356
10
24.01764
20
5.01030
10
24.00118
20
4.96484
10
23.98911
20
4.91743
10
23.98169
20
4.86830
10
23.97917
20
4.81771
10
23.98169
20
4.76712
10
23.98911
20
4.71799
10
24.00118
20
4.67057
10
24.01764
20
4.62511
10
24.03826
20
4.58186
10
24.06278
20
4.54107
10
24.09096
20
4.50297
10
24.12256
20
4.46784
10
24.15733
20
4.43590
10
24.19502
20
4.40742
10
24.23539
20
4.38264
10
24.27818
20
4.36180
10
24.32316
20
4.34516
10
24.37008
20
4.33297
10
24.41869
20
4.32547
10
24.46875
20
4.32292
10
24.51881
20
4.32547
10
24.56742
20
4.33297
10
24.61434
20
4.34516
10
24.65932
20
4.36180
10
24.70211
20
4.38264
10
24.74248
20
4.40742
10
24.78017
20
4.43590
10
24.81494
20
4.46784
10
24.84654
20
4.50297
10
24.87472
20
4.54107
10
24.89924
20
4.58186
10
24.91986
20
4.62511
10
24.93632
20
4.67057
10
24.94839
20
4.71799
10
24.95581
20
4.76712
10
24.95833
20
4.81771
0
LWPOLYLINE
8
INSIDE_Holes_6_apart
90
65
70
1
10
29.93750
20
41.73437
10
29.93497
20
41.78496
10
29.92755
20
41.83409
10
29.91549
20
41.88151
10
29.89903
20
41.92697
10
29.87841
20
41.97022
10
29.85389
20
42.01102
10
29.82570
20
42.04911
10
29.79410
20
42.08425
10
29.75934
20
42.11618
10
29.72165
20
42.14466
10
29.68128
20
42.16945
10
29.63848
20
42.19028
10
29.59350
20
42.20692
10
29.54658
20
42.21911
10
29.49797
20
42.22661
10
29.44792
20
42.22917
10
29.39786
20
42.22661
10
29.34925
20
42.21911
10
29.30233
20
42.20692
10
29.25735
20
42.19028
10
29.21455
20
42.16945
10
29.17419
20
42.14466
10
29.13650
20
42.11618
10
29.10173
20
42.08425
10
29.07013
20
42.04911
10
29.04195
20
42.01102
10
29.01742
20
41.97022
10
28.99681
20
41.92697
10
28.98034
20
41.88151
10
28.96828
20
41.83409
10
28.96086
20
41.78496
10
28.95833
20
41.73437
10
28.96086
20
41.68379
10
28.96828
20
41.63466
10
28.98034
20
41.58724
10
28.99681
20
41.54178
10
29.01742
20
41.49853
10
29.04195
20
41.45773
10
29.07013
20
41.41964
10
29.10173
20
41.38450
10
29.13650
20
41.35257
10
29.17419
20
41.32409
10
29.21455
20
41.29930
10
29.25735
20
41.27847
10
29.30233
20
41.26183
10
29.34925
20
41.24964
10
29.39786
20
41.24214
10
29.44792
20
41.23958
10
29.49797
20
41.24214
10
29.54658
20
41.24964
10
29.59350
20
41.26183
10
29.63848
20
41.27847
10
29.68128
20
41.29930
10
29.72165
20
41.32409
10
29.75934
20
41.35257
10
29.79410
20
41.38450
10
29.82570
20
41.41964
10
29.85389
20
41.45773
10
29.87841
20
41.49853
10
29.89903
20
41.54178
10
29.91549
20
41.58724
10
29.92755
20
41.63466
10
29.93497
20
41.68379
10
29.93750
20
41.73437
0
LWPOLYLINE
8
INSIDE_Holes_6_apart
90
65
70
1
10
29.93750
20
37.24479
10
29.93497
20
37.29538
10
29.92755
20
37.34451
10
29.91549
20
37.39193
10
29.89903
20
37.43739
10
29.87841
20
37.48064
10
29.85389
20
37.52143
10
29.82570
20
37.55953
10
29.79410
20
37.59466
10
29.75934
20
37.62660
10
29.72165
20
37.65508
10
29.68128
20
37.67986
10
29.63848
20
37.70070
10
29.59350
20
37.71734
10
29.54658
20
37.72953
10
29.49797
20
37.73703
10
29.44792
20
37.73958
10
29.39786
20
37.73703
10
29.34925
20
37.72953
10
29.30233
20
37.71734
10
29.25735
20
37.70070
10
29.21455
20
37.67986
10
29.17419
20
37.65508
10
29.13650
20
37.62660
10
29.10173
20
37.59466
10
29.07013
20
37.55953
10
29.04195
20
37.52143
10
29.01742
20
37.48064
10
28.99681
20
37.43739
10
28.98034
20
37.39193
10
28.96828
20
37.34451
10
28.96086
20
37.29538
10
28.95833
20
37.24479
10
28.96086
20
37.19420
10
28.96828
20
37.14507
10
28.98034
20
37.09766
10
28.99681
20
37.05220
10
29.01742
20
37.00894
10
29.04195
20
36.96815
10
29.07013
20
36.93006
10
29.10173
20
36.89492
10
29.13650
20
36.86299
10
29.17419
20
36.83450
10
29.21455
20
36.80972
10
29.25735
20
36.78888
10
29.30233
20
36.77224
10
29.34925
20
36.76005
10
29.39786
20
36.75255
10
29.44792
20
36.75000
10
29.49797
20
36.75255
10
29.54658
20
36.76005
10
29.59350
20
36.77224
10
29.63848
20
36.78888
10
29.68128
20
36.80972
10
29.72165
20
36.83450
10
29.75934
20
36.86299
10
29.79410
20
36.89492
10
29.82570
20
36.93006
10
29.85389
20
36.96815
10
29.87841
20
37.00894
10
29.89903
20
37.05220
10
29.91549
20
37.09766
10
29.92755
20
37.14507
10
29.93497
20
37.19420
10
29.93750
20
37.24479
0
LWPOLYLINE
8
INSIDE_Holes_6_apart
90
65
70
1
10
29.93750
20
32.75521
10
29.93497
20
32.80580
10
29.92755
20
32.85493
10
29.91549
20
32.90234
10
29.89903
20
32.94780
10
29.87841
20
32.99106
10
29.85389
20
33.03185
10
29.82570
20
33.06994
10
29.79410
20
33.10508
10
29.75934
20
33.13701
10
29.72165
20
33.16550
10
29.68128
20
33.19028
10
29.63848
20
33.21112
10
29.59350
20
33.22776
10
29.54658
20
33.23995
10
29.49797
20
33.24745
10
29.44792
20
33.25000
10
29.39786
20
33.24745
10
29.34925
20
33.23995
10
29.30233
20
33.22776
10
29.25735
20
33.21112
10
29.21455
20
33.19028
10
29.17419
20
33.16550
10
29.13650
20
33.13701
10
29.10173
20
33.10508
10
29.07013
20
33.06994
10
29.04195
20
33.03185
10
29.01742
20
32.99106
10
28.99681
20
32.94780
10
28.98034
20
32.90234
10
28.96828
20
32.85493
10
28.96086
20
32.80580
10
28.95833
20
32.75521
10
28.96086
20
32.70462
10
28.96828
20
32.65549
10
28.98034
20
32.60807
10
28.99681
20
32.56261
10
29.01742
20
32.51936
10
29.04195
20
32.47857
10
29.07013
20
32.44047
10
29.10173
20
32.40534
10
29.13650
20
32.37340
10
29.17419
20
32.34492
10
29.21455
20
32.32014
10
29.25735
20
32.29930
10
29.30233
20
32.28266
10
29.34925
20
32.27047
10
29.39786
20
32.26297
10
29.44792
20
32.26042
10
29.49797
20
32.26297
10
29.54658
20
32.27047
10
29.59350
20
32.28266
10
29.63848
20
32.29930
10
29.68128
20
32.32014
10
29.72165
20
32.34492
10
29.75934
20
32.37340
10
29.79410
20
32.40534
10
29.82570
20
32.44047
10
29.85389
20
32.47857
10
29.87841
20
32.51936
10
29.89903
20
32.56261
10
29.91549
20
32.60807
10
29.92755
20
32.65549
10
29.93497
20
32.70462
10
29.93750
20
32.75521
0
LWPOLYLINE
8
INSIDE_Holes_6_apart
90
65
70
1
10
29.93750
20
28.26562
10
29.93497
20
28.31621
10
29.92755
20
28.36534
10
29.91549
20
28.41276
10
29.89903
20
28.45822
10
29.87841
20
28.50147
10
29.85389
20
28.54227
10
29.82570
20
28.58036
10
29.79410
20
28.61550
10
29.75934
20
28.64743
10
29.72165
20
28.67591
10
29.68128
20
28.70070
10
29.63848
20
28.72153
10
29.59350
20
28.73817
10
29.54658
20
28.75036
10
29.49797
20
28.75786
10
29.44792
20
28.76042
10
29.39786
20
28.75786
10
29.34925
20
28.75036
10
29.30233
20
28.73817
10
29.25735
20
28.72153
10
29.21455
20
28.70070
10
29.17419
20
28.67591
10
29.13650
20
28.64743
10
29.10173
20
28.61550
10
29.07013
20
28.58036
10
29.04195
20
28.54227
10
29.01742
20
28.50147
10
28.99681
20
28.45822
10
28.98034
20
28.41276
10
28.96828
20
28.36534
10
28.96086
20
28.31621
10
28.95833
20
28.26562
10
28.96086
20
28.21504
10
28.96828
20
28.16591
10
28.98034
20
28.11849
10
28.99681
20
28.07303
10
29.01742
20
28.02978
10
29.04195
20
27.98898
10
29.07013
20
27.95089
10
29.10173
20
27.91575
10
29.13650
20
27.88382
10
29.17419
20
27.85534
10
29.21455
20
27.83055
10
29.25735
20
27.80972
10
29.30233
20
27.79308
10
29.34925
20
27.78089
10
29.39786
20
27.77339
10
29.44792
20
27.77083
10
29.49797
20
27.77339
10
29.54658
20
27.78089
10
29.59350
20
27.79308
10
29.63848
20
27.80972
10
29.68128
20
27.83055
10
29.72165
20
27.85534
10
29.75934
20
27.88382
10
29.79410
20
27.91575
10
29.82570
20
27.95089
10
29.85389
20
27.98898
10
29.87841
20
28.02978
10
29.89903
20
28.07303
10
29.91549
20
28.11849
10
29.92755
20
28.16591
10
29.93497
20
28.21504
10
29.93750
20
28.26562
0
LWPOLYLINE
8
INSIDE_Holes_6_apart
90
65
70
1
10
29.93750
20
23.77604
10
29.93497
20
23.82663
10
29.92755
20
23.87576
10
29.91549
20
23.92318
10
29.89903
20
23.96864
10
29.87841
20
24.01189
10
29.85389
20
24.05268
10
29.82570
20
24.09078
10
29.79410
20
24.12591
10
29.75934
20
24.15785
10
29.72165
20
24.18633
10
29.68128
20
24.21111
10
29.63848
20
24.23195
10
29.59350
20
24.24859
10
29.54658
20
24.26078
10
29.49797
20
24.26828
10
29.44792
20
24.27083
10
29.39786
20
24.26828
10
29.34925
20
24.26078
10
29.30233
20
24.24859
10
29.25735
20
24.23195
10
29.21455
20
24.21111
10
29.17419
20
24.18633
10
29.13650
20
24.15785
10
29.10173
20
24.12591
10
29.07013
20
24.09078
10
29.04195
20
24.05268
10
29.01742
20
24.01189
10
28.99681
20
23.96864
10
28.98034
20
23.92318
10
28.96828
20
23.87576
10
28.96086
20
23.82663
10
28.95833
20
23.77604
10
28.96086
20
23.72545
10
28.96828
20
23.67632
10
28.98034
20
23.62891
10
28.99681
20
23.58345
10
29.01742
20
23.54019
10
29.04195
20
23.49940
10
29.07013
20
23.46131
10
29.10173
20
23.42617
10
29.13650
20
23.39424
10
29.17419
20
23.36575
10
29.21455
20
23.34097
10
29.25735
20
23.32013
10
29.30233
20
23.30349
10
29.34925
20
23.29130
10
29.39786
20
23.28380
10
29.44792
20
23.28125
10
29.49797
20
23.28380
10
29.54658
20
23.29130
10
29.59350
20
23.30349
10
29.63848
20
23.32013
10
29.68128
20
23.34097
10
29.72165
20
23.36575
10
29.75934
20
23.39424
10
29.79410
20
23.42617
10
29.82570
20
23.46131
10
29.85389
20
23.49940
10
29.87841
20
23.54019
10
29.89903
20
23.58345
10
29.91549
20
23.62891
10
29.92755
20
23.67632
10
29.93497
20
23.72545
10
29.93750
20
23.77604
0
LWPOLYLINE
8
INSIDE_Holes_6_apart
90
65
70
1
10
29.93750
20
19.28646
10
29.93497
20
19.33705
10
29.92755
20
19.38618
10
29.91549
20
19.43359
10
29.89903
20
19.47905
10
29.87841
20
19.52231
10
29.85389
20
19.56310
10
29.82570
20
19.60119
10
29.79410
20
19.63633
10
29.75934
20
19.66826
10
29.72165
20
19.69675
10
29.68128
20
19.72153
10
29.63848
20
19.74237
10
29.59350
20
19.75901
10
29.54658
20
19.77120
10
29.49797
20
19.77870
10
29.44792
20
19.78125
10
29.39786
20
19.77870
10
29.34925
20
19.77120
10
29.30233
20
19.75901
10
29.25735
20
19.74237
10
29.21455
20
19.72153
10
29.17419
20
19.69675
10
29.13650
20
19.66826
10
29.10173
20
19.63633
10
29.07013
20
19.60119
10
29.04195
20
19.56310
10
29.01742
20
19.52231
10
28.99681
20
19.47905
10
28.98034
20
19.43359
10
28.96828
20
19.38618
10
28.96086
20
19.33705
10
28.95833
20
19.28646
10
28.96086
20
19.23587
10
28.96828
20
19.18674
10
28.98034
20
19.13932
10
28.99681
20
19.09386
10
29.01742
20
19.05061
10
29.04195
20
19.00982
10
29.07013
20
18.97172
10
29.10173
20
18.93659
10
29.13650
20
18.90465
10
29.17419
20
18.87617
10
29.21455
20
18.85139
10
29.25735
20
18.83055
10
29.30233
20
18.81391
10
29.34925
20
18.80172
10
29.39786
20
18.79422
10
29.44792
20
18.79167
10
29.49797
20
18.79422
10
29.54658
20
18.80172
10
29.59350
20
18.81391
10
29.63848
20
18.83055
10
29.68128
20
18.85139
10
29.72165
20
18.87617
10
29.75934
20
18.90465
10
29.79410
20
18.93659
10
29.82570
20
18.97172
10
29.85389
20
19.00982
10
29.87841
20
19.05061
10
29.89903
20
19.09386
10
29.91549
20
19.13932
10
29.92755
20
19.18674
10
29.93497
20
19.23587
10
29.93750
20
19.28646
0
LWPOLYLINE
8
INSIDE_Holes_6_apart
90
65
70
1
10
29.93750
20
14.79687
10
29.93497
20
14.84746
10
29.92755
20
14.89659
10
29.91549
20
14.94401
10
29.89903
20
14.98947
10
29.87841
20
15.03272
10
29.85389
20
15.07352
10
29.82570
20
15.11161
10
29.79410
20
15.14675
10
29.75934
20
15.17868
10
29.72165
20
15.20716
10
29.68128
20
15.23195
10
29.63848
20
15.25278
10
29.59350
20
15.26942
10
29.54658
20
15.28161
10
29.49797
20
15.28911
10
29.44792
20
15.29167
10
29.39786
20
15.28911
10
29.34925
20
15.28161
10
29.30233
20
15.26942
10
29.25735
20
15.25278
10
29.21455
20
15.23195
10
29.17419
20
15.20716
10
29.13650
20
15.17868
10
29.10173
20
15.14675
10
29.07013
20
15.11161
10
29.04195
20
15.07352
10
29.01742
20
15.03272
10
28.99681
20
14.98947
10
28.98034
20
14.94401
10
28.96828
20
14.89659
10
28.96086
20
14.84746
10
28.95833
20
14.79687
10
28.96086
20
14.74629
10
28.96828
20
14.69716
10
28.98034
20
14.64974
10
28.99681
20
14.60428
10
29.01742
20
14.56103
10
29.04195
20
14.52023
10
29.07013
20
14.48214
10
29.10173
20
14.44700
10
29.13650
20
14.41507
10
29.17419
20
14.38659
10
29.21455
20
14.36180
10
29.25735
20
14.34097
10
29.30233
20
14.32433
10
29.34925
20
14.31214
10
29.39786
20
14.30464
10
29.44792
20
14.30208
10
29.49797
20
14.30464
10
29.54658
20
14.31214
10
29.59350
20
14.32433
10
29.63848
20
14.34097
10
29.68128
20
14.36180
10
29.72165
20
14.38659
10
29.75934
20
14.41507
10
29.79410
20
14.44700
10
29.82570
20
14.48214
10
29.85389
20
14.52023
10
29.87841
20
14.56103
10
29.89903
20
14.60428
10
29.91549
20
14.64974
10
29.92755
20
14.69716
10
29.93497
20
14.74629
10
29.93750
20
14.79687
0
LWPOLYLINE
8
INSIDE_Holes_6_apart
90
65
70
1
10
29.93750
20
9.80729
10
29.93497
20
9.85788
10
29.92755
20
9.90701
10
29.91549
20
9.95443
10
29.89903
20
9.99989
10
29.87841
20
10.04314
10
29.85389
20
10.08393
10
29.82570
20
10.12203
10
29.79410
20
10.15716
10
29.75934
20
10.18910
10
29.72165
20
10.21758
10
29.68128
20
10.24236
10
29.63848
20
10.26320
10
29.59350
20
10.27984
10
29.54658
20
10.29203
10
29.49797
20
10.29953
10
29.44792
20
10.30208
10
29.39786
20
10.29953
10
29.34925
20
10.29203
10
29.30233
20
10.27984
10
29.25735
20
10.26320
10
29.21455
20
10.24236
10
29.17419
20
10.21758
10
29.13650
20
10.18910
10
29.10173
20
10.15716
10
29.07013
20
10.12203
10
29.04195
20
10.08393
10
29.01742
20
10.04314
10
28.99681
20
9.99989
10
28.98034
20
9.95443
10
28.96828
20
9.90701
10
28.96086
20
9.85788
10
28.95833
20
9.80729
10
28.96086
20
9.75670
10
28.96828
20
9.70757
10
28.98034
20
9.66016
10
28.99681
20
9.61470
10
29.01742
20
9.57144
10
29.04195
20
9.53065
10
29.07013
20
9.49256
10
29.10173
20
9.45742
10
29.13650
20
9.42549
10
29.17419
20
9.39700
10
29.21455
20
9.37222
10
29.25735
20
9.35138
10
29.30233
20
9.33474
10
29.34925
20
9.32255
10
29.39786
20
9.31505
10
29.44792
20
9.31250
10
29.49797
20
9.31505
10
29.54658
20
9.32255
10
29.59350
20
9.33474
10
29.63848
20
9.35138
10
29.68128
20
9.37222
10
29.72165
20
9.39700
10
29.75934
20
9.42549
10
29.79410
20
9.45742
10
29.82570
20
9.49256
10
29.85389
20
9.53065
10
29.87841
20
9.57144
10
29.89903
20
9.61470
10
29.91549
20
9.66016
10
29.92755
20
9.70757
10
29.93497
20
9.75670
10
29.93750
20
9.80729
0
LWPOLYLINE
8
INSIDE_Holes_6_apart
90
65
70
1
10
29.93750
20
4.81771
10
29.93497
20
4.86830
10
29.92755
20
4.91743
10
29.91549
20
4.96484
10
29.89903
20
5.01030
10
29.87841
20
5.05356
10
29.85389
20
5.09435
10
29.82570
20
5.13244
10
29.79410
20
5.16758
10
29.75934
20
5.19951
10
29.72165
20
5.22800
10
29.68128
20
5.25278
10
29.63848
20
5.27362
10
29.59350
20
5.29026
10
29.54658
20
5.30245
10
29.49797
20
5.30995
10
29.44792
20
5.31250
10
29.39786
20
5.30995
10
29.34925
20
5.30245
10
29.30233
20
5.29026
10
29.25735
20
5.27362
10
29.21455
20
5.25278
10
29.17419
20
5.22800
10
29.13650
20
5.19951
10
29.10173
20
5.16758
10
29.07013
20
5.13244
10
29.04195
20
5.09435
10
29.01742
20
5.05356
10
28.99681
20
5.01030
10
28.98034
20
4.96484
10
28.96828
20
4.91743
10
28.96086
20
4.86830
10
28.95833
20
4.81771
10
28.96086
20
4.76712
10
28.96828
20
4.71799
10
28.98034
20
4.67057
10
28.99681
20
4.62511
10
29.01742
20
4.58186
10
29.04195
20
4.54107
10
29.07013
20
4.50297
10
29.10173
20
4.46784
10
29.13650
20
4.43590
10
29.17419
20
4.40742
10
29.21455
20
4.38264
10
29.25735
20
4.36180
10
29.30233
20
4.34516
10
29.34925
20
4.33297
10
29.39786
20
4.32547
10
29.44792
20
4.32292
10
29.49797
20
4.32547
10
29.54658
20
4.33297
10
29.59350
20
4.34516
10
29.63848
20
4.36180
10
29.68128
20
4.38264
10
29.72165
20
4.40742
10
29.75934
20
4.43590
10
29.79410
20
4.46784
10
29.82570
20
4.50297
10
29.85389
20
4.54107
10
29.87841
20
4.58186
10
29.89903
20
4.62511
10
29.91549
20
4.67057
10
29.92755
20
4.71799
10
29.93497
20
4.76712
10
29.93750
20
4.81771
0
LWPOLYLINE
8
INSIDE_Holes_6_apart
90
65
70
1
10
6.54167
20
46.72396
10
6.53914
20
46.77455
10
6.53172
20
46.82368
10
6.51966
20
46.87109
10
6.50319
20
46.91655
10
6.48258
20
46.95981
10
6.45805
20
47.00060
10
6.42987
20
47.03869
10
6.39827
20
47.07383
10
6.36350
20
47.10576
10
6.32581
20
47.13425
10
6.28545
20
47.15903
10
6.24265
20
47.17987
10
6.19767
20
47.19651
10
6.15075
20
47.20870
10
6.10214
20
47.21620
10
6.05208
20
47.21875
10
6.00203
20
47.21620
10
5.95342
20
47.20870
10
5.90650
20
47.19651
10
5.86152
20
47.17987
10
5.81872
20
47.15903
10
5.77835
20
47.13425
10
5.74066
20
47.10576
10
5.70590
20
47.07383
10
5.67430
20
47.03869
10
5.64611
20
47.00060
10
5.62159
20
46.95981
10
5.60097
20
46.91655
10
5.58451
20
46.87109
10
5.57245
20
46.82368
10
5.56503
20
46.77455
10
5.56250
20
46.72396
10
5.56503
20
46.67337
10
5.57245
20
46.62424
10
5.58451
20
46.57682
10
5.60097
20
46.53136
10
5.62159
20
46.48811
10
5.64611
20
46.44732
10
5.67430
20
46.40922
10
5.70590
20
46.37409
10
5.74066
20
46.34215
10
5.77835
20
46.31367
10
5.81872
20
46.28889
10
5.86152
20
46.26805
10
5.90650
20
46.25141
10
5.95342
20
46.23922
10
6.00203
20
46.23172
10
6.05208
20
46.22917
10
6.10214
20
46.23172
10
6.15075
20
46.23922
10
6.19767
20
46.25141
10
6.24265
20
46.26805
10
6.28545
20
46.28889
10
6.32581
20
46.31367
10
6.36350
20
46.34215
10
6.39827
20
46.37409
10
6.42987
20
46.40922
10
6.45805
20
46.44732
10
6.48258
20
46.48811
10
6.50319
20
46.53136
10
6.51966
20
46.57682
10
6.53172
20
46.62424
10
6.53914
20
46.67337
10
6.54167
20
46.72396
0
LWPOLYLINE
8
INSIDE_Holes_6_apart
90
65
70
1
10
11.02083
20
46.72396
10
11.01831
20
46.77455
10
11.01089
20
46.82368
10
10.99882
20
46.87109
10
10.98236
20
46.91655
10
10.96174
20
46.95981
10
10.93722
20
47.00060
10
10.90904
20
47.03869
10
10.87744
20
47.07383
10
10.84267
20
47.10576
10
10.80498
20
47.13425
10
10.76461
20
47.15903
10
10.72182
20
47.17987
10
10.67684
20
47.19651
10
10.62992
20
47.20870
10
10.58131
20
47.21620
10
10.53125
20
47.21875
10
10.48119
20
47.21620
10
10.43258
20
47.20870
10
10.38566
20
47.19651
10
10.34068
20
47.17987
10
10.29789
20
47.15903
10
10.25752
20
47.13425
10
10.21983
20
47.10576
10
10.18506
20
47.07383
10
10.15346
20
47.03869
10
10.12528
20
47.00060
10
10.10076
20
46.95981
10
10.08014
20
46.91655
10
10.06368
20
46.87109
10
10.05161
20
46.82368
10
10.04419
20
46.77455
10
10.04167
20
46.72396
10
10.04419
20
46.67337
10
10.05161
20
46.62424
10
10.06368
20
46.57682
10
10.08014
20
46.53136
10
10.10076
20
46.48811
10
10.12528
20
46.44732
10
10.15346
20
46.40922
10
10.18506
20
46.37409
10
10.21983
20
46.34215
10
10.25752
20
46.31367
10
10.29789
20
46.28889
10
10.34068
20
46.26805
10
10.38566
20
46.25141
10
10.43258
20
46.23922
10
10.48119
20
46.23172
10
10.53125
20
46.22917
10
10.58131
20
46.23172
10
10.62992
20
46.23922
10
10.67684
20
46.25141
10
10.72182
20
46.26805
10
10.76461
20
46.28889
10
10.80498
20
46.31367
10
10.84267
20
46.34215
10
10.87744
20
46.37409
10
10.90904
20
46.40922
10
10.93722
20
46.44732
10
10.96174
20
46.48811
10
10.98236
20
46.53136
10
10.99882
20
46.57682
10
11.01089
20
46.62424
10
11.01831
20
46.67337
10
11.02083
20
46.72396
0
LWPOLYLINE
8
INSIDE_Holes_6_apart
90
65
70
1
10
15.50000
20
46.72396
10
15.49747
20
46.77455
10
15.49005
20
46.82368
10
15.47799
20
46.87109
10
15.46153
20
46.91655
10
15.44091
20
46.95981
10
15.41639
20
47.00060
10
15.38820
20
47.03869
10
15.35660
20
47.07383
10
15.32184
20
47.10576
10
15.28415
20
47.13425
10
15.24378
20
47.15903
10
15.20098
20
47.17987
10
15.15600
20
47.19651
10
15.10908
20
47.20870
10
15.06047
20
47.21620
10
15.01042
20
47.21875
10
14.96036
20
47.21620
10
14.91175
20
47.20870
10
14.86483
20
47.19651
10
14.81985
20
47.17987
10
14.77705
20
47.15903
10
14.73669
20
47.13425
10
14.69900
20
47.10576
10
14.66423
20
47.07383
10
14.63263
20
47.03869
10
14.60445
20
47.00060
10
14.57992
20
46.95981
10
14.55931
20
46.91655
10
14.54284
20
46.87109
10
14.53078
20
46.82368
10
14.52336
20
46.77455
10
14.52083
20
46.72396
10
14.52336
20
46.67337
10
14.53078
20
46.62424
10
14.54284
20
46.57682
10
14.55931
20
46.53136
10
14.57992
20
46.48811
10
14.60445
20
46.44732
10
14.63263
20
46.40922
10
14.66423
20
46.37409
10
14.69900
20
46.34215
10
14.73669
20
46.31367
10
14.77705
20
46.28889
10
14.81985
20
46.26805
10
14.86483
20
46.25141
10
14.91175
20
46.23922
10
14.96036
20
46.23172
10
15.01042
20
46.22917
10
15.06047
20
46.23172
10
15.10908
20
46.23922
10
15.15600
20
46.25141
10
15.20098
20
46.26805
10
15.24378
20
46.28889
10
15.28415
20
46.31367
10
15.32184
20
46.34215
10
15.35660
20
46.37409
10
15.38820
20
46.40922
10
15.41639
20
46.44732
10
15.44091
20
46.48811
10
15.46153
20
46.53136
10
15.47799
20
46.57682
10
15.49005
20
46.62424
10
15.49747
20
46.67337
10
15.50000
20
46.72396
0
LWPOLYLINE
8
INSIDE_Holes_6_apart
90
65
70
1
10
19.97917
20
46.72396
10
19.97664
20
46.77455
10
19.96922
20
46.82368
10
19.95716
20
46.87109
10
19.94069
20
46.91655
10
19.92008
20
46.95981
10
19.89555
20
47.00060
10
19.86737
20
47.03869
10
19.83577
20
47.07383
10
19.80100
20
47.10576
10
19.76331
20
47.13425
10
19.72295
20
47.15903
10
19.68015
20
47.17987
10
19.63517
20
47.19651
10
19.58825
20
47.20870
10
19.53964
20
47.21620
10
19.48958
20
47.21875
10
19.43953
20
47.21620
10
19.39092
20
47.20870
10
19.34400
20
47.19651
10
19.29902
20
47.17987
10
19.25622
20
47.15903
10
19.21585
20
47.13425
10
19.17816
20
47.10576
10
19.14340
20
47.07383
10
19.11180
20
47.03869
10
19.08361
20
47.00060
10
19.05909
20
46.95981
10
19.03847
20
46.91655
10
19.02201
20
46.87109
10
19.00995
20
46.82368
10
19.00253
20
46.77455
10
19.00000
20
46.72396
10
19.00253
20
46.67337
10
19.00995
20
46.62424
10
19.02201
20
46.57682
10
19.03847
20
46.53136
10
19.05909
20
46.48811
10
19.08361
20
46.44732
10
19.11180
20
46.40922
10
19.14340
20
46.37409
10
19.17816
20
46.34215
10
19.21585
20
46.31367
10
19.25622
20
46.28889
10
19.29902
20
46.26805
10
19.34400
20
46.25141
10
19.39092
20
46.23922
10
19.43953
20
46.23172
10
19.48958
20
46.22917
10
19.53964
20
46.23172
10
19.58825
20
46.23922
10
19.63517
20
46.25141
10
19.68015
20
46.26805
10
19.72295
20
46.28889
10
19.76331
20
46.31367
10
19.80100
20
46.34215
10
19.83577
20
46.37409
10
19.86737
20
46.40922
10
19.89555
20
46.44732
10
19.92008
20
46.48811
10
19.94069
20
46.53136
10
19.95716
20
46.57682
10
19.96922
20
46.62424
10
19.97664
20
46.67337
10
19.97917
20
46.72396
0
LWPOLYLINE
8
INSIDE_Holes_6_apart
90
65
70
1
10
24.95833
20
46.72396
10
24.95581
20
46.77455
10
24.94839
20
46.82368
10
24.93632
20
46.87109
10
24.91986
20
46.91655
10
24.89924
20
46.95981
10
24.87472
20
47.00060
10
24.84654
20
47.03869
10
24.81494
20
47.07383
10
24.78017
20
47.10576
10
24.74248
20
47.13425
10
24.70211
20
47.15903
10
24.65932
20
47.17987
10
24.61434
20
47.19651
10
24.56742
20
47.20870
10
24.51881
20
47.21620
10
24.46875
20
47.21875
10
24.41869
20
47.21620
10
24.37008
20
47.20870
10
24.32316
20
47.19651
10
24.27818
20
47.17987
10
24.23539
20
47.15903
10
24.19502
20
47.13425
10
24.15733
20
47.10576
10
24.12256
20
47.07383
10
24.09096
20
47.03869
10
24.06278
20
47.00060
10
24.03826
20
46.95981
10
24.01764
20
46.91655
10
24.00118
20
46.87109
10
23.98911
20
46.82368
10
23.98169
20
46.77455
10
23.97917
20
46.72396
10
23.98169
20
46.67337
10
23.98911
20
46.62424
10
24.00118
20
46.57682
10
24.01764
20
46.53136
10
24.03826
20
46.48811
10
24.06278
20
46.44732
10
24.09096
20
46.40922
10
24.12256
20
46.37409
10
24.15733
20
46.34215
10
24.19502
20
46.31367
10
24.23539
20
46.28889
10
24.27818
20
46.26805
10
24.32316
20
46.25141
10
24.37008
20
46.23922
10
24.41869
20
46.23172
10
24.46875
20
46.22917
10
24.51881
20
46.23172
10
24.56742
20
46.23922
10
24.61434
20
46.25141
10
24.65932
20
46.26805
10
24.70211
20
46.28889
10
24.74248
20
46.31367
10
24.78017
20
46.34215
10
24.81494
20
46.37409
10
24.84654
20
46.40922
10
24.87472
20
46.44732
10
24.89924
20
46.48811
10
24.91986
20
46.53136
10
24.93632
20
46.57682
10
24.94839
20
46.62424
10
24.95581
20
46.67337
10
24.95833
20
46.72396
0
LWPOLYLINE
8
INSIDE_Holes_6_apart
90
65
70
1
10
29.93750
20
46.72396
10
29.93497
20
46.77455
10
29.92755
20
46.82368
10
29.91549
20
46.87109
10
29.89903
20
46.91655
10
29.87841
20
46.95981
10
29.85389
20
47.00060
10
29.82570
20
47.03869
10
29.79410
20
47.07383
10
29.75934
20
47.10576
10
29.72165
20
47.13425
10
29.68128
20
47.15903
10
29.63848
20
47.17987
10
29.59350
20
47.19651
10
29.54658
20
47.20870
10
29.49797
20
47.21620
10
29.44792
20
47.21875
10
29.39786
20
47.21620
10
29.34925
20
47.20870
10
29.30233
20
47.19651
10
29.25735
20
47.17987
10
29.21455
20
47.15903
10
29.17419
20
47.13425
10
29.13650
20
47.10576
10
29.10173
20
47.07383
10
29.07013
20
47.03869
10
29.04195
20
47.00060
10
29.01742
20
46.95981
10
28.99681
20
46.91655
10
28.98034
20
46.87109
10
28.96828
20
46.82368
10
28.96086
20
46.77455
10
28.95833
20
46.72396
10
28.96086
20
46.67337
10
28.96828
20
46.62424
10
28.98034
20
46.57682
10
28.99681
20
46.53136
10
29.01742
20
46.48811
10
29.04195
20
46.44732
10
29.07013
20
46.40922
10
29.10173
20
46.37409
10
29.13650
20
46.34215
10
29.17419
20
46.31367
10
29.21455
20
46.28889
10
29.25735
20
46.26805
10
29.30233
20
46.25141
10
29.34925
20
46.23922
10
29.39786
20
46.23172
10
29.44792
20
46.22917
10
29.49797
20
46.23172
10
29.54658
20
46.23922
10
29.59350
20
46.25141
10
29.63848
20
46.26805
10
29.68128
20
46.28889
10
29.72165
20
46.31367
10
29.75934
20
46.34215
10
29.79410
20
46.37409
10
29.82570
20
46.40922
10
29.85389
20
46.44732
10
29.87841
20
46.48811
10
29.89903
20
46.53136
10
29.91549
20
46.57682
10
29.92755
20
46.62424
10
29.93497
20
46.67337
10
29.93750
20
46.72396
0
LWPOLYLINE
8
INSIDE_Holes_6_apart
90
65
70
1
10
6.54167
20
51.71354
10
6.53914
20
51.76413
10
6.53172
20
51.81326
10
6.51966
20
51.86068
10
6.50319
20
51.90614
10
6.48258
20
51.94939
10
6.45805
20
51.99018
10
6.42987
20
52.02828
10
6.39827
20
52.06341
10
6.36350
20
52.09535
10
6.32581
20
52.12383
10
6.28545
20
52.14861
10
6.24265
20
52.16945
10
6.19767
20
52.18609
10
6.15075
20
52.19828
10
6.10214
20
52.20578
10
6.05208
20
52.20833
10
6.00203
20
52.20578
10
5.95342
20
52.19828
10
5.90650
20
52.18609
10
5.86152
20
52.16945
10
5.81872
20
52.14861
10
5.77835
20
52.12383
10
5.74066
20
52.09535
10
5.70590
20
52.06341
10
5.67430
20
52.02828
10
5.64611
20
51.99018
10
5.62159
20
51.94939
10
5.60097
20
51.90614
10
5.58451
20
51.86068
10
5.57245
20
51.81326
10
5.56503
20
51.76413
10
5.56250
20
51.71354
10
5.56503
20
51.66295
10
5.57245
20
51.61382
10
5.58451
20
51.56641
10
5.60097
20
51.52095
10
5.62159
20
51.47769
10
5.64611
20
51.43690
10
5.67430
20
51.39881
10
5.70590
20
51.36367
10
5.74066
20
51.33174
10
5.77835
20
51.30325
10
5.81872
20
51.27847
10
5.86152
20
51.25763
10
5.90650
20
51.24099
10
5.95342
20
51.22880
10
6.00203
20
51.22130
10
6.05208
20
51.21875
10
6.10214
20
51.22130
10
6.15075
20
51.22880
10
6.19767
20
51.24099
10
6.24265
20
51.25763
10
6.28545
20
51.27847
10
6.32581
20
51.30325
10
6.36350
20
51.33174
10
6.39827
20
51.36367
10
6.42987
20
51.39881
10
6.45805
20
51.43690
10
6.48258
20
51.47769
10
6.50319
20
51.52095
10
6.51966
20
51.56641
10
6.53172
20
51.61382
10
6.53914
20
51.66295
10
6.54167
20
51.71354
0
LWPOLYLINE
8
INSIDE_Holes_6_apart
90
65
70
1
10
11.02083
20
51.71354
10
11.01831
20
51.76413
10
11.01089
20
51.81326
10
10.99882
20
51.86068
10
10.98236
20
51.90614
10
10.96174
20
51.94939
10
10.93722
20
51.99018
10
10.90904
20
52.02828
10
10.87744
20
52.06341
10
10.84267
20
52.09535
10
10.80498
20
52.12383
10
10.76461
20
52.14861
10
10.72182
20
52.16945
10
10.67684
20
52.18609
10
10.62992
20
52.19828
10
10.58131
20
52.20578
10
10.53125
20
52.20833
10
10.48119
20
52.20578
10
10.43258
20
52.19828
10
10.38566
20
52.18609
10
10.34068
20
52.16945
10
10.29789
20
52.14861
10
10.25752
20
52.12383
10
10.21983
20
52.09535
10
10.18506
20
52.06341
10
10.15346
20
52.02828
10
10.12528
20
51.99018
10
10.10076
20
51.94939
10
10.08014
20
51.90614
10
10.06368
20
51.86068
10
10.05161
20
51.81326
10
10.04419
20
51.76413
10
10.04167
20
51.71354
10
10.04419
20
51.66295
10
10.05161
20
51.61382
10
10.06368
20
51.56641
10
10.08014
20
51.52095
10
10.10076
20
51.47769
10
10.12528
20
51.43690
10
10.15346
20
51.39881
10
10.18506
20
51.36367
10
10.21983
20
51.33174
10
10.25752
20
51.30325
10
10.29789
20
51.27847
10
10.34068
20
51.25763
10
10.38566
20
51.24099
10
10.43258
20
51.22880
10
10.48119
20
51.22130
10
10.53125
20
51.21875
10
10.58131
20
51.22130
10
10.62992
20
51.22880
10
10.67684
20
51.24099
10
10.72182
20
51.25763
10
10.76461
20
51.27847
10
10.80498
20
51.30325
10
10.84267
20
51.33174
10
10.87744
20
51.36367
10
10.90904
20
51.39881
10
10.93722
20
51.43690
10
10.96174
20
51.47769
10
10.98236
20
51.52095
10
10.99882
20
51.56641
10
11.01089
20
51.61382
10
11.01831
20
51.66295
10
11.02083
20
51.71354
0
LWPOLYLINE
8
INSIDE_Holes_6_apart
90
65
70
1
10
15.50000
20
51.71354
10
15.49747
20
51.76413
10
15.49005
20
51.81326
10
15.47799
20
51.86068
10
15.46153
20
51.90614
10
15.44091
20
51.94939
10
15.41639
20
51.99018
10
15.38820
20
52.02828
10
15.35660
20
52.06341
10
15.32184
20
52.09535
10
15.28415
20
52.12383
10
15.24378
20
52.14861
10
15.20098
20
52.16945
10
15.15600
20
52.18609
10
15.10908
20
52.19828
10
15.06047
20
52.20578
10
15.01042
20
52.20833
10
14.96036
20
52.20578
10
14.91175
20
52.19828
10
14.86483
20
52.18609
10
14.81985
20
52.16945
10
14.77705
20
52.14861
10
14.73669
20
52.12383
10
14.69900
20
52.09535
10
14.66423
20
52.06341
10
14.63263
20
52.02828
10
14.60445
20
51.99018
10
14.57992
20
51.94939
10
14.55931
20
51.90614
10
14.54284
20
51.86068
10
14.53078
20
51.81326
10
14.52336
20
51.76413
10
14.52083
20
51.71354
10
14.52336
20
51.66295
10
14.53078
20
51.61382
10
14.54284
20
51.56641
10
14.55931
20
51.52095
10
14.57992
20
51.47769
10
14.60445
20
51.43690
10
14.63263
20
51.39881
10
14.66423
20
51.36367
10
14.69900
20
51.33174
10
14.73669
20
51.30325
10
14.77705
20
51.27847
10
14.81985
20
51.25763
10
14.86483
20
51.24099
10
14.91175
20
51.22880
10
14.96036
20
51.22130
10
15.01042
20
51.21875
10
15.06047
20
51.22130
10
15.10908
20
51.22880
10
15.15600
20
51.24099
10
15.20098
20
51.25763
10
15.24378
20
51.27847
10
15.28415
20
51.30325
10
15.32184
20
51.33174
10
15.35660
20
51.36367
10
15.38820
20
51.39881
10
15.41639
20
51.43690
10
15.44091
20
51.47769
10
15.46153
20
51.52095
10
15.47799
20
51.56641
10
15.49005
20
51.61382
10
15.49747
20
51.66295
10
15.50000
20
51.71354
0
LWPOLYLINE
8
INSIDE_Holes_6_apart
90
65
70
1
10
19.97917
20
51.71354
10
19.97664
20
51.76413
10
19.96922
20
51.81326
10
19.95716
20
51.86068
10
19.94069
20
51.90614
10
19.92008
20
51.94939
10
19.89555
20
51.99018
10
19.86737
20
52.02828
10
19.83577
20
52.06341
10
19.80100
20
52.09535
10
19.76331
20
52.12383
10
19.72295
20
52.14861
10
19.68015
20
52.16945
10
19.63517
20
52.18609
10
19.58825
20
52.19828
10
19.53964
20
52.20578
10
19.48958
20
52.20833
10
19.43953
20
52.20578
10
19.39092
20
52.19828
10
19.34400
20
52.18609
10
19.29902
20
52.16945
10
19.25622
20
52.14861
10
19.21585
20
52.12383
10
19.17816
20
52.09535
10
19.14340
20
52.06341
10
19.11180
20
52.02828
10
19.08361
20
51.99018
10
19.05909
20
51.94939
10
19.03847
20
51.90614
10
19.02201
20
51.86068
10
19.00995
20
51.81326
10
19.00253
20
51.76413
10
19.00000
20
51.71354
10
19.00253
20
51.66295
10
19.00995
20
51.61382
10
19.02201
20
51.56641
10
19.03847
20
51.52095
10
19.05909
20
51.47769
10
19.08361
20
51.43690
10
19.11180
20
51.39881
10
19.14340
20
51.36367
10
19.17816
20
51.33174
10
19.21585
20
51.30325
10
19.25622
20
51.27847
10
19.29902
20
51.25763
10
19.34400
20
51.24099
10
19.39092
20
51.22880
10
19.43953
20
51.22130
10
19.48958
20
51.21875
10
19.53964
20
51.22130
10
19.58825
20
51.22880
10
19.63517
20
51.24099
10
19.68015
20
51.25763
10
19.72295
20
51.27847
10
19.76331
20
51.30325
10
19.80100
20
51.33174
10
19.83577
20
51.36367
10
19.86737
20
51.39881
10
19.89555
20
51.43690
10
19.92008
20
51.47769
10
19.94069
20
51.52095
10
19.95716
20
51.56641
10
19.96922
20
51.61382
10
19.97664
20
51.66295
10
19.97917
20
51.71354
0
LWPOLYLINE
8
INSIDE_Holes_6_apart
90
65
70
1
10
24.95833
20
51.71354
10
24.95581
20
51.76413
10
24.94839
20
51.81326
10
24.93632
20
51.86068
10
24.91986
20
51.90614
10
24.89924
20
51.94939
10
24.87472
20
51.99018
10
24.84654
20
52.02828
10
24.81494
20
52.06341
10
24.78017
20
52.09535
10
24.74248
20
52.12383
10
24.70211
20
52.14861
10
24.65932
20
52.16945
10
24.61434
20
52.18609
10
24.56742
20
52.19828
10
24.51881
20
52.20578
10
24.46875
20
52.20833
10
24.41869
20
52.20578
10
24.37008
20
52.19828
10
24.32316
20
52.18609
10
24.27818
20
52.16945
10
24.23539
20
52.14861
10
24.19502
20
52.12383
10
24.15733
20
52.09535
10
24.12256
20
52.06341
10
24.09096
20
52.02828
10
24.06278
20
51.99018
10
24.03826
20
51.94939
10
24.01764
20
51.90614
10
24.00118
20
51.86068
10
23.98911
20
51.81326
10
23.98169
20
51.76413
10
23.97917
20
51.71354
10
23.98169
20
51.66295
10
23.98911
20
51.61382
10
24.00118
20
51.56641
10
24.01764
20
51.52095
10
24.03826
20
51.47769
10
24.06278
20
51.43690
10
24.09096
20
51.39881
10
24.12256
20
51.36367
10
24.15733
20
51.33174
10
24.19502
20
51.30325
10
24.23539
20
51.27847
10
24.27818
20
51.25763
10
24.32316
20
51.24099
10
24.37008
20
51.22880
10
24.41869
20
51.22130
10
24.46875
20
51.21875
10
24.51881
20
51.22130
10
24.56742
20
51.22880
10
24.61434
20
51.24099
10
24.65932
20
51.25763
10
24.70211
20
51.27847
10
24.74248
20
51.30325
10
24.78017
20
51.33174
10
24.81494
20
51.36367
10
24.84654
20
51.39881
10
24.87472
20
51.43690
10
24.89924
20
51.47769
10
24.91986
20
51.52095
10
24.93632
20
51.56641
10
24.94839
20
51.61382
10
24.95581
20
51.66295
10
24.95833
20
51.71354
0
LWPOLYLINE
8
INSIDE_Holes_6_apart
90
65
70
1
10
29.93750
20
51.71354
10
29.93497
20
51.76413
10
29.92755
20
51.81326
10
29.91549
20
51.86068
10
29.89903
20
51.90614
10
29.87841
20
51.94939
10
29.85389
20
51.99018
10
29.82570
20
52.02828
10
29.79410
20
52.06341
10
29.75934
20
52.09535
10
29.72165
20
52.12383
10
29.68128
20
52.14861
10
29.63848
20
52.16945
10
29.59350
20
52.18609
10
29.54658
20
52.19828
10
29.49797
20
52.20578
10
29.44792
20
52.20833
10
29.39786
20
52.20578
10
29.34925
20
52.19828
10
29.30233
20
52.18609
10
29.25735
20
52.16945
10
29.21455
20
52.14861
10
29.17419
20
52.12383
10
29.13650
20
52.09535
10
29.10173
20
52.06341
10
29.07013
20
52.02828
10
29.04195
20
51.99018
10
29.01742
20
51.94939
10
28.99681
20
51.90614
10
28.98034
20
51.86068
10
28.96828
20
51.81326
10
28.96086
20
51.76413
10
28.95833
20
51.71354
10
28.96086
20
51.66295
10
28.96828
20
51.61382
10
28.98034
20
51.56641
10
28.99681
20
51.52095
10
29.01742
20
51.47769
10
29.04195
20
51.43690
10
29.07013
20
51.39881
10
29.10173
20
51.36367
10
29.13650
20
51.33174
10
29.17419
20
51.30325
10
29.21455
20
51.27847
10
29.25735
20
51.25763
10
29.30233
20
51.24099
10
29.34925
20
51.22880
10
29.39786
20
51.22130
10
29.44792
20
51.21875
10
29.49797
20
51.22130
10
29.54658
20
51.22880
10
29.59350
20
51.24099
10
29.63848
20
51.25763
10
29.68128
20
51.27847
10
29.72165
20
51.30325
10
29.75934
20
51.33174
10
29.79410
20
51.36367
10
29.82570
20
51.39881
10
29.85389
20
51.43690
10
29.87841
20
51.47769
10
29.89903
20
51.52095
10
29.91549
20
51.56641
10
29.92755
20
51.61382
10
29.93497
20
51.66295
10
29.93750
20
51.71354
0
LWPOLYLINE
8
INSIDE_Holes_6_apart
90
65
70
1
10
6.54167
20
56.70312
10
6.53914
20
56.75371
10
6.53172
20
56.80284
10
6.51966
20
56.85026
10
6.50319
20
56.89572
10
6.48258
20
56.93897
10
6.45805
20
56.97977
10
6.42987
20
57.01786
10
6.39827
20
57.05300
10
6.36350
20
57.08493
10
6.32581
20
57.11341
10
6.28545
20
57.13820
10
6.24265
20
57.15903
10
6.19767
20
57.17567
10
6.15075
20
57.18786
10
6.10214
20
57.19536
10
6.05208
20
57.19792
10
6.00203
20
57.19536
10
5.95342
20
57.18786
10
5.90650
20
57.17567
10
5.86152
20
57.15903
10
5.81872
20
57.13820
10
5.77835
20
57.11341
10
5.74066
20
57.08493
10
5.70590
20
57.05300
10
5.67430
20
57.01786
10
5.64611
20
56.97977
10
5.62159
20
56.93897
10
5.60097
20
56.89572
10
5.58451
20
56.85026
10
5.57245
20
56.80284
10
5.56503
20
56.75371
10
5.56250
20
56.70312
10
5.56503
20
56.65254
10
5.57245
20
56.60341
10
5.58451
20
56.55599
10
5.60097
20
56.51053
10
5.62159
20
56.46728
10
5.64611
20
56.42648
10
5.67430
20
56.38839
10
5.70590
20
56.35325
10
5.74066
20
56.32132
10
5.77835
20
56.29284
10
5.81872
20
56.26805
10
5.86152
20
56.24722
10
5.90650
20
56.23058
10
5.95342
20
56.21839
10
6.00203
20
56.21089
10
6.05208
20
56.20833
10
6.10214
20
56.21089
10
6.15075
20
56.21839
10
6.19767
20
56.23058
10
6.24265
20
56.24722
10
6.28545
20
56.26805
10
6.32581
20
56.29284
10
6.36350
20
56.32132
10
6.39827
20
56.35325
10
6.42987
20
56.38839
10
6.45805
20
56.42648
10
6.48258
20
56.46728
10
6.50319
20
56.51053
10
6.51966
20
56.55599
10
6.53172
20
56.60341
10
6.53914
20
56.65254
10
6.54167
20
56.70312
0
LWPOLYLINE
8
INSIDE_Holes_6_apart
90
65
70
1
10
11.02083
20
56.70312
10
11.01831
20
56.75371
10
11.01089
20
56.80284
10
10.99882
20
56.85026
10
10.98236
20
56.89572
10
10.96174
20
56.93897
10
10.93722
20
56.97977
10
10.90904
20
57.01786
10
10.87744
20
57.05300
10
10.84267
20
57.08493
10
10.80498
20
57.11341
10
10.76461
20
57.13820
10
10.72182
20
57.15903
10
10.67684
20
57.17567
10
10.62992
20
57.18786
10
10.58131
20
57.19536
10
10.53125
20
57.19792
10
10.48119
20
57.19536
10
10.43258
20
57.18786
10
10.38566
20
57.17567
10
10.34068
20
57.15903
10
10.29789
20
57.13820
10
10.25752
20
57.11341
10
10.21983
20
57.08493
10
10.18506
20
57.05300
10
10.15346
20
57.01786
10
10.12528
20
56.97977
10
10.10076
20
56.93897
10
10.08014
20
56.89572
10
10.06368
20
56.85026
10
10.05161
20
56.80284
10
10.04419
20
56.75371
10
10.04167
20
56.70312
10
10.04419
20
56.65254
10
10.05161
20
56.60341
10
10.06368
20
56.55599
10
10.08014
20
56.51053
10
10.10076
20
56.46728
10
10.12528
20
56.42648
10
10.15346
20
56.38839
10
10.18506
20
56.35325
10
10.21983
20
56.32132
10
10.25752
20
56.29284
10
10.29789
20
56.26805
10
10.34068
20
56.24722
10
10.38566
20
56.23058
10
10.43258
20
56.21839
10
10.48119
20
56.21089
10
10.53125
20
56.20833
10
10.58131
20
56.21089
10
10.62992
20
56.21839
10
10.67684
20
56.23058
10
10.72182
20
56.24722
10
10.76461
20
56.26805
10
10.80498
20
56.29284
10
10.84267
20
56.32132
10
10.87744
20
56.35325
10
10.90904
20
56.38839
10
10.93722
20
56.42648
10
10.96174
20
56.46728
10
10.98236
20
56.51053
10
10.99882
20
56.55599
10
11.01089
20
56.60341
10
11.01831
20
56.65254
10
11.02083
20
56.70312
0
LWPOLYLINE
8
INSIDE_Holes_6_apart
90
65
70
1
10
15.50000
20
56.70312
10
15.49747
20
56.75371
10
15.49005
20
56.80284
10
15.47799
20
56.85026
10
15.46153
20
56.89572
10
15.44091
20
56.93897
10
15.41639
20
56.97977
10
15.38820
20
57.01786
10
15.35660
20
57.05300
10
15.32184
20
57.08493
10
15.28415
20
57.11341
10
15.24378
20
57.13820
10
15.20098
20
57.15903
10
15.15600
20
57.17567
10
15.10908
20
57.18786
10
15.06047
20
57.19536
10
15.01042
20
57.19792
10
14.96036
20
57.19536
10
14.91175
20
57.18786
10
14.86483
20
57.17567
10
14.81985
20
57.15903
10
14.77705
20
57.13820
10
14.73669
20
57.11341
10
14.69900
20
57.08493
10
14.66423
20
57.05300
10
14.63263
20
57.01786
10
14.60445
20
56.97977
10
14.57992
20
56.93897
10
14.55931
20
56.89572
10
14.54284
20
56.85026
10
14.53078
20
56.80284
10
14.52336
20
56.75371
10
14.52083
20
56.70312
10
14.52336
20
56.65254
10
14.53078
20
56.60341
10
14.54284
20
56.55599
10
14.55931
20
56.51053
10
14.57992
20
56.46728
10
14.60445
20
56.42648
10
14.63263
20
56.38839
10
14.66423
20
56.35325
10
14.69900
20
56.32132
10
14.73669
20
56.29284
10
14.77705
20
56.26805
10
14.81985
20
56.24722
10
14.86483
20
56.23058
10
14.91175
20
56.21839
10
14.96036
20
56.21089
10
15.01042
20
56.20833
10
15.06047
20
56.21089
10
15.10908
20
56.21839
10
15.15600
20
56.23058
10
15.20098
20
56.24722
10
15.24378
20
56.26805
10
15.28415
20
56.29284
10
15.32184
20
56.32132
10
15.35660
20
56.35325
10
15.38820
20
56.38839
10
15.41639
20
56.42648
10
15.44091
20
56.46728
10
15.46153
20
56.51053
10
15.47799
20
56.55599
10
15.49005
20
56.60341
10
15.49747
20
56.65254
10
15.50000
20
56.70312
0
LWPOLYLINE
8
INSIDE_Holes_6_apart
90
65
70
1
10
19.97917
20
56.70312
10
19.97664
20
56.75371
10
19.96922
20
56.80284
10
19.95716
20
56.85026
10
19.94069
20
56.89572
10
19.92008
20
56.93897
10
19.89555
20
56.97977
10
19.86737
20
57.01786
10
19.83577
20
57.05300
10
19.80100
20
57.08493
10
19.76331
20
57.11341
10
19.72295
20
57.13820
10
19.68015
20
57.15903
10
19.63517
20
57.17567
10
19.58825
20
57.18786
10
19.53964
20
57.19536
10
19.48958
20
57.19792
10
19.43953
20
57.19536
10
19.39092
20
57.18786
10
19.34400
20
57.17567
10
19.29902
20
57.15903
10
19.25622
20
57.13820
10
19.21585
20
57.11341
10
19.17816
20
57.08493
10
19.14340
20
57.05300
10
19.11180
20
57.01786
10
19.08361
20
56.97977
10
19.05909
20
56.93897
10
19.03847
20
56.89572
10
19.02201
20
56.85026
10
19.00995
20
56.80284
10
19.00253
20
56.75371
10
19.00000
20
56.70312
10
19.00253
20
56.65254
10
19.00995
20
56.60341
10
19.02201
20
56.55599
10
19.03847
20
56.51053
10
19.05909
20
56.46728
10
19.08361
20
56.42648
10
19.11180
20
56.38839
10
19.14340
20
56.35325
10
19.17816
20
56.32132
10
19.21585
20
56.29284
10
19.25622
20
56.26805
10
19.29902
20
56.24722
10
19.34400
20
56.23058
10
19.39092
20
56.21839
10
19.43953
20
56.21089
10
19.48958
20
56.20833
10
19.53964
20
56.21089
10
19.58825
20
56.21839
10
19.63517
20
56.23058
10
19.68015
20
56.24722
10
19.72295
20
56.26805
10
19.76331
20
56.29284
10
19.80100
20
56.32132
10
19.83577
20
56.35325
10
19.86737
20
56.38839
10
19.89555
20
56.42648
10
19.92008
20
56.46728
10
19.94069
20
56.51053
10
19.95716
20
56.55599
10
19.96922
20
56.60341
10
19.97664
20
56.65254
10
19.97917
20
56.70312
0
LWPOLYLINE
8
INSIDE_Holes_6_apart
90
65
70
1
10
24.95833
20
56.70312
10
24.95581
20
56.75371
10
24.94839
20
56.80284
10
24.93632
20
56.85026
10
24.91986
20
56.89572
10
24.89924
20
56.93897
10
24.87472
20
56.97977
10
24.84654
20
57.01786
10
24.81494
20
57.05300
10
24.78017
20
57.08493
10
24.74248
20
57.11341
10
24.70211
20
57.13820
10
24.65932
20
57.15903
10
24.61434
20
57.17567
10
24.56742
20
57.18786
10
24.51881
20
57.19536
10
24.46875
20
57.19792
10
24.41869
20
57.19536
10
24.37008
20
57.18786
10
24.32316
20
57.17567
10
24.27818
20
57.15903
10
24.23539
20
57.13820
10
24.19502
20
57.11341
10
24.15733
20
57.08493
10
24.12256
20
57.05300
10
24.09096
20
57.01786
10
24.06278
20
56.97977
10
24.03826
20
56.93897
10
24.01764
20
56.89572
10
24.00118
20
56.85026
10
23.98911
20
56.80284
10
23.98169
20
56.75371
10
23.97917
20
56.70312
10
23.98169
20
56.65254
10
23.98911
20
56.60341
10
24.00118
20
56.55599
10
24.01764
20
56.51053
10
24.03826
20
56.46728
10
24.06278
20
56.42648
10
24.09096
20
56.38839
10
24.12256
20
56.35325
10
24.15733
20
56.32132
10
24.19502
20
56.29284
10
24.23539
20
56.26805
10
24.27818
20
56.24722
10
24.32316
20
56.23058
10
24.37008
20
56.21839
10
24.41869
20
56.21089
10
24.46875
20
56.20833
10
24.51881
20
56.21089
10
24.56742
20
56.21839
10
24.61434
20
56.23058
10
24.65932
20
56.24722
10
24.70211
20
56.26805
10
24.74248
20
56.29284
10
24.78017
20
56.32132
10
24.81494
20
56.35325
10
24.84654
20
56.38839
10
24.87472
20
56.42648
10
24.89924
20
56.46728
10
24.91986
20
56.51053
10
24.93632
20
56.55599
10
24.94839
20
56.60341
10
24.95581
20
56.65254
10
24.95833
20
56.70312
0
LWPOLYLINE
8
INSIDE_Holes_6_apart
90
65
70
1
10
29.93750
20
56.70312
10
29.93497
20
56.75371
10
29.92755
20
56.80284
10
29.91549
20
56.85026
10
29.89903
20
56.89572
10
29.87841
20
56.93897
10
29.85389
20
56.97977
10
29.82570
20
57.01786
10
29.79410
20
57.05300
10
29.75934
20
57.08493
10
29.72165
20
57.11341
10
29.68128
20
57.13820
10
29.63848
20
57.15903
10
29.59350
20
57.17567
10
29.54658
20
57.18786
10
29.49797
20
57.19536
10
29.44792
20
57.19792
10
29.39786
20
57.19536
10
29.34925
20
57.18786
10
29.30233
20
57.17567
10
29.25735
20
57.15903
10
29.21455
20
57.13820
10
29.17419
20
57.11341
10
29.13650
20
57.08493
10
29.10173
20
57.05300
10
29.07013
20
57.01786
10
29.04195
20
56.97977
10
29.01742
20
56.93897
10
28.99681
20
56.89572
10
28.98034
20
56.85026
10
28.96828
20
56.80284
10
28.96086
20
56.75371
10
28.95833
20
56.70312
10
28.96086
20
56.65254
10
28.96828
20
56.60341
10
28.98034
20
56.55599
10
28.99681
20
56.51053
10
29.01742
20
56.46728
10
29.04195
20
56.42648
10
29.07013
20
56.38839
10
29.10173
20
56.35325
10
29.13650
20
56.32132
10
29.17419
20
56.29284
10
29.21455
20
56.26805
10
29.25735
20
56.24722
10
29.30233
20
56.23058
10
29.34925
20
56.21839
10
29.39786
20
56.21089
10
29.44792
20
56.20833
10
29.49797
20
56.21089
10
29.54658
20
56.21839
10
29.59350
20
56.23058
10
29.63848
20
56.24722
10
29.68128
20
56.26805
10
29.72165
20
56.29284
10
29.75934
20
56.32132
10
29.79410
20
56.35325
10
29.82570
20
56.38839
10
29.85389
20
56.42648
10
29.87841
20
56.46728
10
29.89903
20
56.51053
10
29.91549
20
56.55599
10
29.92755
20
56.60341
10
29.93497
20
56.65254
10
29.93750
20
56.70312
0
LWPOLYLINE
8
INSIDE_Holes_6_apart
90
65
70
1
10
6.54167
20
61.69271
10
6.53914
20
61.74330
10
6.53172
20
61.79243
10
6.51966
20
61.83984
10
6.50319
20
61.88530
10
6.48258
20
61.92856
10
6.45805
20
61.96935
10
6.42987
20
62.00744
10
6.39827
20
62.04258
10
6.36350
20
62.07451
10
6.32581
20
62.10300
10
6.28545
20
62.12778
10
6.24265
20
62.14862
10
6.19767
20
62.16526
10
6.15075
20
62.17745
10
6.10214
20
62.18495
10
6.05208
20
62.18750
10
6.00203
20
62.18495
10
5.95342
20
62.17745
10
5.90650
20
62.16526
10
5.86152
20
62.14862
10
5.81872
20
62.12778
10
5.77835
20
62.10300
10
5.74066
20
62.07451
10
5.70590
20
62.04258
10
5.67430
20
62.00744
10
5.64611
20
61.96935
10
5.62159
20
61.92856
10
5.60097
20
61.88530
10
5.58451
20
61.83984
10
5.57245
20
61.79243
10
5.56503
20
61.74330
10
5.56250
20
61.69271
10
5.56503
20
61.64212
10
5.57245
20
61.59299
10
5.58451
20
61.54557
10
5.60097
20
61.50011
10
5.62159
20
61.45686
10
5.64611
20
61.41607
10
5.67430
20
61.37797
10
5.70590
20
61.34284
10
5.74066
20
61.31090
10
5.77835
20
61.28242
10
5.81872
20
61.25764
10
5.86152
20
61.23680
10
5.90650
20
61.22016
10
5.95342
20
61.20797
10
6.00203
20
61.20047
10
6.05208
20
61.19792
10
6.10214
20
61.20047
10
6.15075
20
61.20797
10
6.19767
20
61.22016
10
6.24265
20
61.23680
10
6.28545
20
61.25764
10
6.32581
20
61.28242
10
6.36350
20
61.31090
10
6.39827
20
61.34284
10
6.42987
20
61.37797
10
6.45805
20
61.41607
10
6.48258
20
61.45686
10
6.50319
20
61.50011
10
6.51966
20
61.54557
10
6.53172
20
61.59299
10
6.53914
20
61.64212
10
6.54167
20
61.69271
0
LWPOLYLINE
8
INSIDE_Holes_6_apart
90
65
70
1
10
11.02083
20
61.69271
10
11.01831
20
61.74330
10
11.01089
20
61.79243
10
10.99882
20
61.83984
10
10.98236
20
61.88530
10
10.96174
20
61.92856
10
10.93722
20
61.96935
10
10.90904
20
62.00744
10
10.87744
20
62.04258
10
10.84267
20
62.07451
10
10.80498
20
62.10300
10
10.76461
20
62.12778
10
10.72182
20
62.14862
10
10.67684
20
62.16526
10
10.62992
20
62.17745
10
10.58131
20
62.18495
10
10.53125
20
62.18750
10
10.48119
20
62.18495
10
10.43258
20
62.17745
10
10.38566
20
62.16526
10
10.34068
20
62.14862
10
10.29789
20
62.12778
10
10.25752
20
62.10300
10
10.21983
20
62.07451
10
10.18506
20
62.04258
10
10.15346
20
62.00744
10
10.12528
20
61.96935
10
10.10076
20
61.92856
10
10.08014
20
61.88530
10
10.06368
20
61.83984
10
10.05161
20
61.79243
10
10.04419
20
61.74330
10
10.04167
20
61.69271
10
10.04419
20
61.64212
10
10.05161
20
61.59299
10
10.06368
20
61.54557
10
10.08014
20
61.50011
10
10.10076
20
61.45686
10
10.12528
20
61.41607
10
10.15346
20
61.37797
10
10.18506
20
61.34284
10
10.21983
20
61.31090
10
10.25752
20
61.28242
10
10.29789
20
61.25764
10
10.34068
20
61.23680
10
10.38566
20
61.22016
10
10.43258
20
61.20797
10
10.48119
20
61.20047
10
10.53125
20
61.19792
10
10.58131
20
61.20047
10
10.62992
20
61.20797
10
10.67684
20
61.22016
10
10.72182
20
61.23680
10
10.76461
20
61.25764
10
10.80498
20
61.28242
10
10.84267
20
61.31090
10
10.87744
20
61.34284
10
10.90904
20
61.37797
10
10.93722
20
61.41607
10
10.96174
20
61.45686
10
10.98236
20
61.50011
10
10.99882
20
61.54557
10
11.01089
20
61.59299
10
11.01831
20
61.64212
10
11.02083
20
61.69271
0
LWPOLYLINE
8
INSIDE_Holes_6_apart
90
65
70
1
10
15.50000
20
61.69271
10
15.49747
20
61.74330
10
15.49005
20
61.79243
10
15.47799
20
61.83984
10
15.46153
20
61.88530
10
15.44091
20
61.92856
10
15.41639
20
61.96935
10
15.38820
20
62.00744
10
15.35660
20
62.04258
10
15.32184
20
62.07451
10
15.28415
20
62.10300
10
15.24378
20
62.12778
10
15.20098
20
62.14862
10
15.15600
20
62.16526
10
15.10908
20
62.17745
10
15.06047
20
62.18495
10
15.01042
20
62.18750
10
14.96036
20
62.18495
10
14.91175
20
62.17745
10
14.86483
20
62.16526
10
14.81985
20
62.14862
10
14.77705
20
62.12778
10
14.73669
20
62.10300
10
14.69900
20
62.07451
10
14.66423
20
62.04258
10
14.63263
20
62.00744
10
14.60445
20
61.96935
10
14.57992
20
61.92856
10
14.55931
20
61.88530
10
14.54284
20
61.83984
10
14.53078
20
61.79243
10
14.52336
20
61.74330
10
14.52083
20
61.69271
10
14.52336
20
61.64212
10
14.53078
20
61.59299
10
14.54284
20
61.54557
10
14.55931
20
61.50011
10
14.57992
20
61.45686
10
14.60445
20
61.41607
10
14.63263
20
61.37797
10
14.66423
20
61.34284
10
14.69900
20
61.31090
10
14.73669
20
61.28242
10
14.77705
20
61.25764
10
14.81985
20
61.23680
10
14.86483
20
61.22016
10
14.91175
20
61.20797
10
14.96036
20
61.20047
10
15.01042
20
61.19792
10
15.06047
20
61.20047
10
15.10908
20
61.20797
10
15.15600
20
61.22016
10
15.20098
20
61.23680
10
15.24378
20
61.25764
10
15.28415
20
61.28242
10
15.32184
20
61.31090
10
15.35660
20
61.34284
10
15.38820
20
61.37797
10
15.41639
20
61.41607
10
15.44091
20
61.45686
10
15.46153
20
61.50011
10
15.47799
20
61.54557
10
15.49005
20
61.59299
10
15.49747
20
61.64212
10
15.50000
20
61.69271
0
LWPOLYLINE
8
INSIDE_Holes_6_apart
90
65
70
1
10
19.97917
20
61.69271
10
19.97664
20
61.74330
10
19.96922
20
61.79243
10
19.95716
20
61.83984
10
19.94069
20
61.88530
10
19.92008
20
61.92856
10
19.89555
20
61.96935
10
19.86737
20
62.00744
10
19.83577
20
62.04258
10
19.80100
20
62.07451
10
19.76331
20
62.10300
10
19.72295
20
62.12778
10
19.68015
20
62.14862
10
19.63517
20
62.16526
10
19.58825
20
62.17745
10
19.53964
20
62.18495
10
19.48958
20
62.18750
10
19.43953
20
62.18495
10
19.39092
20
62.17745
10
19.34400
20
62.16526
10
19.29902
20
62.14862
10
19.25622
20
62.12778
10
19.21585
20
62.10300
10
19.17816
20
62.07451
10
19.14340
20
62.04258
10
19.11180
20
62.00744
10
19.08361
20
61.96935
10
19.05909
20
61.92856
10
19.03847
20
61.88530
10
19.02201
20
61.83984
10
19.00995
20
61.79243
10
19.00253
20
61.74330
10
19.00000
20
61.69271
10
19.00253
20
61.64212
10
19.00995
20
61.59299
10
19.02201
20
61.54557
10
19.03847
20
61.50011
10
19.05909
20
61.45686
10
19.08361
20
61.41607
10
19.11180
20
61.37797
10
19.14340
20
61.34284
10
19.17816
20
61.31090
10
19.21585
20
61.28242
10
19.25622
20
61.25764
10
19.29902
20
61.23680
10
19.34400
20
61.22016
10
19.39092
20
61.20797
10
19.43953
20
61.20047
10
19.48958
20
61.19792
10
19.53964
20
61.20047
10
19.58825
20
61.20797
10
19.63517
20
61.22016
10
19.68015
20
61.23680
10
19.72295
20
61.25764
10
19.76331
20
61.28242
10
19.80100
20
61.31090
10
19.83577
20
61.34284
10
19.86737
20
61.37797
10
19.89555
20
61.41607
10
19.92008
20
61.45686
10
19.94069
20
61.50011
10
19.95716
20
61.54557
10
19.96922
20
61.59299
10
19.97664
20
61.64212
10
19.97917
20
61.69271
0
LWPOLYLINE
8
INSIDE_Holes_6_apart
90
65
70
1
10
24.95833
20
61.69271
10
24.95581
20
61.74330
10
24.94839
20
61.79243
10
24.93632
20
61.83984
10
24.91986
20
61.88530
10
24.89924
20
61.92856
10
24.87472
20
61.96935
10
24.84654
20
62.00744
10
24.81494
20
62.04258
10
24.78017
20
62.07451
10
24.74248
20
62.10300
10
24.70211
20
62.12778
10
24.65932
20
62.14862
10
24.61434
20
62.16526
10
24.56742
20
62.17745
10
24.51881
20
62.18495
10
24.46875
20
62.18750
10
24.41869
20
62.18495
10
24.37008
20
62.17745
10
24.32316
20
62.16526
10
24.27818
20
62.14862
10
24.23539
20
62.12778
10
24.19502
20
62.10300
10
24.15733
20
62.07451
10
24.12256
20
62.04258
10
24.09096
20
62.00744
10
24.06278
20
61.96935
10
24.03826
20
61.92856
10
24.01764
20
61.88530
10
24.00118
20
61.83984
10
23.98911
20
61.79243
10
23.98169
20
61.74330
10
23.97917
20
61.69271
10
23.98169
20
61.64212
10
23.98911
20
61.59299
10
24.00118
20
61.54557
10
24.01764
20
61.50011
10
24.03826
20
61.45686
10
24.06278
20
61.41607
10
24.09096
20
61.37797
10
24.12256
20
61.34284
10
24.15733
20
61.31090
10
24.19502
20
61.28242
10
24.23539
20
61.25764
10
24.27818
20
61.23680
10
24.32316
20
61.22016
10
24.37008
20
61.20797
10
24.41869
20
61.20047
10
24.46875
20
61.19792
10
24.51881
20
61.20047
10
24.56742
20
61.20797
10
24.61434
20
61.22016
10
24.65932
20
61.23680
10
24.70211
20
61.25764
10
24.74248
20
61.28242
10
24.78017
20
61.31090
10
24.81494
20
61.34284
10
24.84654
20
61.37797
10
24.87472
20
61.41607
10
24.89924
20
61.45686
10
24.91986
20
61.50011
10
24.93632
20
61.54557
10
24.94839
20
61.59299
10
24.95581
20
61.64212
10
24.95833
20
61.69271
0
LWPOLYLINE
8
INSIDE_Holes_6_apart
90
65
70
1
10
29.93750
20
61.69271
10
29.93497
20
61.74330
10
29.92755
20
61.79243
10
29.91549
20
61.83984
10
29.89903
20
61.88530
10
29.87841
20
61.92856
10
29.85389
20
61.96935
10
29.82570
20
62.00744
10
29.79410
20
62.04258
10
29.75934
20
62.07451
10
29.72165
20
62.10300
10
29.68128
20
62.12778
10
29.63848
20
62.14862
10
29.59350
20
62.16526
10
29.54658
20
62.17745
10
29.49797
20
62.18495
10
29.44792
20
62.18750
10
29.39786
20
62.18495
10
29.34925
20
62.17745
10
29.30233
20
62.16526
10
29.25735
20
62.14862
10
29.21455
20
62.12778
10
29.17419
20
62.10300
10
29.13650
20
62.07451
10
29.10173
20
62.04258
10
29.07013
20
62.00744
10
29.04195
20
61.96935
10
29.01742
20
61.92856
10
28.99681
20
61.88530
10
28.98034
20
61.83984
10
28.96828
20
61.79243
10
28.96086
20
61.74330
10
28.95833
20
61.69271
10
28.96086
20
61.64212
10
28.96828
20
61.59299
10
28.98034
20
61.54557
10
28.99681
20
61.50011
10
29.01742
20
61.45686
10
29.04195
20
61.41607
10
29.07013
20
61.37797
10
29.10173
20
61.34284
10
29.13650
20
61.31090
10
29.17419
20
61.28242
10
29.21455
20
61.25764
10
29.25735
20
61.23680
10
29.30233
20
61.22016
10
29.34925
20
61.20797
10
29.39786
20
61.20047
10
29.44792
20
61.19792
10
29.49797
20
61.20047
10
29.54658
20
61.20797
10
29.59350
20
61.22016
10
29.63848
20
61.23680
10
29.68128
20
61.25764
10
29.72165
20
61.28242
10
29.75934
20
61.31090
10
29.79410
20
61.34284
10
29.82570
20
61.37797
10
29.85389
20
61.41607
10
29.87841
20
61.45686
10
29.89903
20
61.50011
10
29.91549
20
61.54557
10
29.92755
20
61.59299
10
29.93497
20
61.64212
10
29.93750
20
61.69271
0
LWPOLYLINE
8
INSIDE_Holes_6_apart
90
65
70
1
10
6.54167
20
66.68229
10
6.53914
20
66.73288
10
6.53172
20
66.78201
10
6.51966
20
66.82943
10
6.50319
20
66.87489
10
6.48258
20
66.91814
10
6.45805
20
66.95893
10
6.42987
20
66.99703
10
6.39827
20
67.03216
10
6.36350
20
67.06410
10
6.32581
20
67.09258
10
6.28545
20
67.11736
10
6.24265
20
67.13820
10
6.19767
20
67.15484
10
6.15075
20
67.16703
10
6.10214
20
67.17453
10
6.05208
20
67.17708
10
6.00203
20
67.17453
10
5.95342
20
67.16703
10
5.90650
20
67.15484
10
5.86152
20
67.13820
10
5.81872
20
67.11736
10
5.77835
20
67.09258
10
5.74066
20
67.06410
10
5.70590
20
67.03216
10
5.67430
20
66.99703
10
5.64611
20
66.95893
10
5.62159
20
66.91814
10
5.60097
20
66.87489
10
5.58451
20
66.82943
10
5.57245
20
66.78201
10
5.56503
20
66.73288
10
5.56250
20
66.68229
10
5.56503
20
66.63170
10
5.57245
20
66.58257
10
5.58451
20
66.53516
10
5.60097
20
66.48970
10
5.62159
20
66.44644
10
5.64611
20
66.40565
10
5.67430
20
66.36756
10
5.70590
20
66.33242
10
5.74066
20
66.30049
10
5.77835
20
66.27200
10
5.81872
20
66.24722
10
5.86152
20
66.22638
10
5.90650
20
66.20974
10
5.95342
20
66.19755
10
6.00203
20
66.19005
10
6.05208
20
66.18750
10
6.10214
20
66.19005
10
6.15075
20
66.19755
10
6.19767
20
66.20974
10
6.24265
20
66.22638
10
6.28545
20
66.24722
10
6.32581
20
66.27200
10
6.36350
20
66.30049
10
6.39827
20
66.33242
10
6.42987
20
66.36756
10
6.45805
20
66.40565
10
6.48258
20
66.44644
10
6.50319
20
66.48970
10
6.51966
20
66.53516
10
6.53172
20
66.58257
10
6.53914
20
66.63170
10
6.54167
20
66.68229
0
LWPOLYLINE
8
INSIDE_Holes_6_apart
90
65
70
1
10
11.02083
20
66.68229
10
11.01831
20
66.73288
10
11.01089
20
66.78201
10
10.99882
20
66.82943
10
10.98236
20
66.87489
10
10.96174
20
66.91814
10
10.93722
20
66.95893
10
10.90904
20
66.99703
10
10.87744
20
67.03216
10
10.84267
20
67.06410
10
10.80498
20
67.09258
10
10.76461
20
67.11736
10
10.72182
20
67.13820
10
10.67684
20
67.15484
10
10.62992
20
67.16703
10
10.58131
20
67.17453
10
10.53125
20
67.17708
10
10.48119
20
67.17453
10
10.43258
20
67.16703
10
10.38566
20
67.15484
10
10.34068
20
67.13820
10
10.29789
20
67.11736
10
10.25752
20
67.09258
10
10.21983
20
67.06410
10
10.18506
20
67.03216
10
10.15346
20
66.99703
10
10.12528
20
66.95893
10
10.10076
20
66.91814
10
10.08014
20
66.87489
10
10.06368
20
66.82943
10
10.05161
20
66.78201
10
10.04419
20
66.73288
10
10.04167
20
66.68229
10
10.04419
20
66.63170
10
10.05161
20
66.58257
10
10.06368
20
66.53516
10
10.08014
20
66.48970
10
10.10076
20
66.44644
10
10.12528
20
66.40565
10
10.15346
20
66.36756
10
10.18506
20
66.33242
10
10.21983
20
66.30049
10
10.25752
20
66.27200
10
10.29789
20
66.24722
10
10.34068
20
66.22638
10
10.38566
20
66.20974
10
10.43258
20
66.19755
10
10.48119
20
66.19005
10
10.53125
20
66.18750
10
10.58131
20
66.19005
10
10.62992
20
66.19755
10
10.67684
20
66.20974
10
10.72182
20
66.22638
10
10.76461
20
66.24722
10
10.80498
20
66.27200
10
10.84267
20
66.30049
10
10.87744
20
66.33242
10
10.90904
20
66.36756
10
10.93722
20
66.40565
10
10.96174
20
66.44644
10
10.98236
20
66.48970
10
10.99882
20
66.53516
10
11.01089
20
66.58257
10
11.01831
20
66.63170
10
11.02083
20
66.68229
0
LWPOLYLINE
8
INSIDE_Holes_6_apart
90
65
70
1
10
15.50000
20
66.68229
10
15.49747
20
66.73288
10
15.49005
20
66.78201
10
15.47799
20
66.82943
10
15.46153
20
66.87489
10
15.44091
20
66.91814
10
15.41639
20
66.95893
10
15.38820
20
66.99703
10
15.35660
20
67.03216
10
15.32184
20
67.06410
10
15.28415
20
67.09258
10
15.24378
20
67.11736
10
15.20098
20
67.13820
10
15.15600
20
67.15484
10
15.10908
20
67.16703
10
15.06047
20
67.17453
10
15.01042
20
67.17708
10
14.96036
20
67.17453
10
14.91175
20
67.16703
10
14.86483
20
67.15484
10
14.81985
20
67.13820
10
14.77705
20
67.11736
10
14.73669
20
67.09258
10
14.69900
20
67.06410
10
14.66423
20
67.03216
10
14.63263
20
66.99703
10
14.60445
20
66.95893
10
14.57992
20
66.91814
10
14.55931
20
66.87489
10
14.54284
20
66.82943
10
14.53078
20
66.78201
10
14.52336
20
66.73288
10
14.52083
20
66.68229
10
14.52336
20
66.63170
10
14.53078
20
66.58257
10
14.54284
20
66.53516
10
14.55931
20
66.48970
10
14.57992
20
66.44644
10
14.60445
20
66.40565
10
14.63263
20
66.36756
10
14.66423
20
66.33242
10
14.69900
20
66.30049
10
14.73669
20
66.27200
10
14.77705
20
66.24722
10
14.81985
20
66.22638
10
14.86483
20
66.20974
10
14.91175
20
66.19755
10
14.96036
20
66.19005
10
15.01042
20
66.18750
10
15.06047
20
66.19005
10
15.10908
20
66.19755
10
15.15600
20
66.20974
10
15.20098
20
66.22638
10
15.24378
20
66.24722
10
15.28415
20
66.27200
10
15.32184
20
66.30049
10
15.35660
20
66.33242
10
15.38820
20
66.36756
10
15.41639
20
66.40565
10
15.44091
20
66.44644
10
15.46153
20
66.48970
10
15.47799
20
66.53516
10
15.49005
20
66.58257
10
15.49747
20
66.63170
10
15.50000
20
66.68229
0
LWPOLYLINE
8
INSIDE_Holes_6_apart
90
65
70
1
10
19.97917
20
66.68229
10
19.97664
20
66.73288
10
19.96922
20
66.78201
10
19.95716
20
66.82943
10
19.94069
20
66.87489
10
19.92008
20
66.91814
10
19.89555
20
66.95893
10
19.86737
20
66.99703
10
19.83577
20
67.03216
10
19.80100
20
67.06410
10
19.76331
20
67.09258
10
19.72295
20
67.11736
10
19.68015
20
67.13820
10
19.63517
20
67.15484
10
19.58825
20
67.16703
10
19.53964
20
67.17453
10
19.48958
20
67.17708
10
19.43953
20
67.17453
10
19.39092
20
67.16703
10
19.34400
20
67.15484
10
19.29902
20
67.13820
10
19.25622
20
67.11736
10
19.21585
20
67.09258
10
19.17816
20
67.06410
10
19.14340
20
67.03216
10
19.11180
20
66.99703
10
19.08361
20
66.95893
10
19.05909
20
66.91814
10
19.03847
20
66.87489
10
19.02201
20
66.82943
10
19.00995
20
66.78201
10
19.00253
20
66.73288
10
19.00000
20
66.68229
10
19.00253
20
66.63170
10
19.00995
20
66.58257
10
19.02201
20
66.53516
10
19.03847
20
66.48970
10
19.05909
20
66.44644
10
19.08361
20
66.40565
10
19.11180
20
66.36756
10
19.14340
20
66.33242
10
19.17816
20
66.30049
10
19.21585
20
66.27200
10
19.25622
20
66.24722
10
19.29902
20
66.22638
10
19.34400
20
66.20974
10
19.39092
20
66.19755
10
19.43953
20
66.19005
10
19.48958
20
66.18750
10
19.53964
20
66.19005
10
19.58825
20
66.19755
10
19.63517
20
66.20974
10
19.68015
20
66.22638
10
19.72295
20
66.24722
10
19.76331
20
66.27200
10
19.80100
20
66.30049
10
19.83577
20
66.33242
10
19.86737
20
66.36756
10
19.89555
20
66.40565
10
19.92008
20
66.44644
10
19.94069
20
66.48970
10
19.95716
20
66.53516
10
19.96922
20
66.58257
10
19.97664
20
66.63170
10
19.97917
20
66.68229
0
LWPOLYLINE
8
INSIDE_Holes_6_apart
90
65
70
1
10
24.95833
20
66.68229
10
24.95581
20
66.73288
10
24.94839
20
66.78201
10
24.93632
20
66.82943
10
24.91986
20
66.87489
10
24.89924
20
66.91814
10
24.87472
20
66.95893
10
24.84654
20
66.99703
10
24.81494
20
67.03216
10
24.78017
20
67.06410
10
24.74248
20
67.09258
10
24.70211
20
67.11736
10
24.65932
20
67.13820
10
24.61434
20
67.15484
10
24.56742
20
67.16703
10
24.51881
20
67.17453
10
24.46875
20
67.17708
10
24.41869
20
67.17453
10
24.37008
20
67.16703
10
24.32316
20
67.15484
10
24.27818
20
67.13820
10
24.23539
20
67.11736
10
24.19502
20
67.09258
10
24.15733
20
67.06410
10
24.12256
20
67.03216
10
24.09096
20
66.99703
10
24.06278
20
66.95893
10
24.03826
20
66.91814
10
24.01764
20
66.87489
10
24.00118
20
66.82943
10
23.98911
20
66.78201
10
23.98169
20
66.73288
10
23.97917
20
66.68229
10
23.98169
20
66.63170
10
23.98911
20
66.58257
10
24.00118
20
66.53516
10
24.01764
20
66.48970
10
24.03826
20
66.44644
10
24.06278
20
66.40565
10
24.09096
20
66.36756
10
24.12256
20
66.33242
10
24.15733
20
66.30049
10
24.19502
20
66.27200
10
24.23539
20
66.24722
10
24.27818
20
66.22638
10
24.32316
20
66.20974
10
24.37008
20
66.19755
10
24.41869
20
66.19005
10
24.46875
20
66.18750
10
24.51881
20
66.19005
10
24.56742
20
66.19755
10
24.61434
20
66.20974
10
24.65932
20
66.22638
10
24.70211
20
66.24722
10
24.74248
20
66.27200
10
24.78017
20
66.30049
10
24.81494
20
66.33242
10
24.84654
20
66.36756
10
24.87472
20
66.40565
10
24.89924
20
66.44644
10
24.91986
20
66.48970
10
24.93632
20
66.53516
10
24.94839
20
66.58257
10
24.95581
20
66.63170
10
24.95833
20
66.68229
0
LWPOLYLINE
8
INSIDE_Holes_6_apart
90
65
70
1
10
29.93750
20
66.68229
10
29.93497
20
66.73288
10
29.92755
20
66.78201
10
29.91549
20
66.82943
10
29.89903
20
66.87489
10
29.87841
20
66.91814
10
29.85389
20
66.95893
10
29.82570
20
66.99703
10
29.79410
20
67.03216
10
29.75934
20
67.06410
10
29.72165
20
67.09258
10
29.68128
20
67.11736
10
29.63848
20
67.13820
10
29.59350
20
67.15484
10
29.54658
20
67.16703
10
29.49797
20
67.17453
10
29.44792
20
67.17708
10
29.39786
20
67.17453
10
29.34925
20
67.16703
10
29.30233
20
67.15484
10
29.25735
20
67.13820
10
29.21455
20
67.11736
10
29.17419
20
67.09258
10
29.13650
20
67.06410
10
29.10173
20
67.03216
10
29.07013
20
66.99703
10
29.04195
20
66.95893
10
29.01742
20
66.91814
10
28.99681
20
66.87489
10
28.98034
20
66.82943
10
28.96828
20
66.78201
10
28.96086
20
66.73288
10
28.95833
20
66.68229
10
28.96086
20
66.63170
10
28.96828
20
66.58257
10
28.98034
20
66.53516
10
28.99681
20
66.48970
10
29.01742
20
66.44644
10
29.04195
20
66.40565
10
29.07013
20
66.36756
10
29.10173
20
66.33242
10
29.13650
20
66.30049
10
29.17419
20
66.27200
10
29.21455
20
66.24722
10
29.25735
20
66.22638
10
29.30233
20
66.20974
10
29.34925
20
66.19755
10
29.39786
20
66.19005
10
29.44792
20
66.18750
10
29.49797
20
66.19005
10
29.54658
20
66.19755
10
29.59350
20
66.20974
10
29.63848
20
66.22638
10
29.68128
20
66.24722
10
29.72165
20
66.27200
10
29.75934
20
66.30049
10
29.79410
20
66.33242
10
29.82570
20
66.36756
10
29.85389
20
66.40565
10
29.87841
20
66.44644
10
29.89903
20
66.48970
10
29.91549
20
66.53516
10
29.92755
20
66.58257
10
29.93497
20
66.63170
10
29.93750
20
66.68229
0
ENDSEC
0
EOF