0
SECTION
2
ENTITIES
0
LWPOLYLINE
8
OUTSIDE
90
611
70
1
10
26.03320
20
7.15011
10
26.18731
20
7.26487
10
26.36141
20
7.02953
10
26.54905
20
6.78141
10
26.74946
20
6.52255
10
26.96187
20
6.25500
10
27.18552
20
5.98082
10
27.41964
20
5.70207
10
27.66346
20
5.42078
10
27.91622
20
5.13902
10
28.17715
20
4.85884
10
28.44548
20
4.58228
10
28.72046
20
4.31140
10
29.00131
20
4.04826
10
29.28726
20
3.79491
10
29.43191
20
3.67254
10
29.57756
20
3.55339
10
29.72409
20
3.43771
10
29.87143
20
3.32576
10
30.01946
20
3.21779
10
30.16811
20
3.11407
10
30.31726
20
3.01485
10
30.46683
20
2.92038
10
30.61671
20
2.83092
10
30.76682
20
2.74673
10
30.91706
20
2.66807
10
31.06733
20
2.59518
10
31.21753
20
2.52834
10
31.36758
20
2.46778
10
31.51737
20
2.41378
10
31.66681
20
2.36659
10
31.81580
20
2.32646
10
31.96425
20
2.29365
10
32.11206
20
2.26842
10
32.25913
20
2.25102
10
32.40537
20
2.24171
10
32.55069
20
2.24075
10
32.69499
20
2.24839
10
32.83817
20
2.26489
10
32.98013
20
2.29050
10
33.12079
20
2.32549
10
33.26004
20
2.37011
10
33.39779
20
2.42461
10
33.53395
20
2.48926
10
33.66841
20
2.56430
10
33.80108
20
2.65000
10
33.93187
20
2.74661
10
34.06068
20
2.85439
10
34.18742
20
2.97359
10
34.31198
20
3.10447
10
34.43428
20
3.24730
10
34.55421
20
3.40231
10
34.67169
20
3.56978
10
34.77092
20
3.72221
10
34.86337
20
3.87261
10
34.94914
20
4.02098
10
35.02831
20
4.16734
10
35.10099
20
4.31171
10
35.16725
20
4.45410
10
35.22721
20
4.59452
10
35.28094
20
4.73298
10
35.32855
20
4.86950
10
35.37012
20
5.00409
10
35.40575
20
5.13676
10
35.43554
20
5.26754
10
35.45957
20
5.39642
10
35.47793
20
5.52343
10
35.49073
20
5.64858
10
35.49806
20
5.77187
10
35.50000
20
5.89334
10
35.49665
20
6.01298
10
35.48811
20
6.13081
10
35.47447
20
6.24685
10
35.45581
20
6.36111
10
35.43224
20
6.47360
10
35.40385
20
6.58433
10
35.37072
20
6.69332
10
35.33296
20
6.80059
10
35.29066
20
6.90614
10
35.24390
20
7.00999
10
35.19279
20
7.11215
10
35.13742
20
7.21263
10
35.07787
20
7.31146
10
35.01424
20
7.40863
10
34.94663
20
7.50418
10
34.87513
20
7.59810
10
34.79983
20
7.69041
10
34.72082
20
7.78113
10
34.63820
20
7.87027
10
34.55206
20
7.95784
10
34.46250
20
8.04386
10
34.36960
20
8.12834
10
34.27346
20
8.21128
10
34.17418
20
8.29272
10
34.07184
20
8.37265
10
33.85838
20
8.52807
10
33.63382
20
8.67765
10
33.39891
20
8.82150
10
33.15440
20
8.95971
10
32.90102
20
9.09241
10
32.63953
20
9.21969
10
32.37066
20
9.34167
10
32.09518
20
9.45844
10
31.81381
20
9.57013
10
31.52730
20
9.67683
10
31.23641
20
9.77865
10
31.52570
20
9.88514
10
31.81053
20
9.99643
10
32.09016
20
10.11261
10
32.36384
20
10.23379
10
32.63081
20
10.36006
10
32.89034
20
10.49151
10
33.14168
20
10.62823
10
33.38407
20
10.77034
10
33.61678
20
10.91791
10
33.83906
20
11.07105
10
34.05015
20
11.22985
10
34.15128
20
11.31141
10
34.24932
20
11.39441
10
34.34420
20
11.47888
10
34.43582
20
11.56482
10
34.52408
20
11.65226
10
34.60889
20
11.74119
10
34.69016
20
11.83163
10
34.76779
20
11.92359
10
34.84170
20
12.01709
10
34.91178
20
12.11214
10
34.97795
20
12.20875
10
35.04011
20
12.30692
10
35.09817
20
12.40669
10
35.15203
20
12.50804
10
35.20161
20
12.61100
10
35.24680
20
12.71559
10
35.28751
20
12.82180
10
35.32366
20
12.92965
10
35.35514
20
13.03916
10
35.38187
20
13.15034
10
35.40375
20
13.26320
10
35.42069
20
13.37774
10
35.43259
20
13.49399
10
35.43936
20
13.61196
10
35.44091
20
13.73165
10
35.43715
20
13.85308
10
35.42797
20
13.97626
10
35.41329
20
14.10120
10
35.39302
20
14.22792
10
35.36706
20
14.35642
10
35.33531
20
14.48672
10
35.29769
20
14.61883
10
35.25410
20
14.75277
10
35.20445
20
14.88854
10
35.14864
20
15.02615
10
35.08658
20
15.16563
10
35.01818
20
15.30697
10
34.94335
20
15.45020
10
34.86198
20
15.59532
10
34.77399
20
15.74234
10
34.67928
20
15.89129
10
34.57777
20
16.04216
10
34.48090
20
16.17888
10
34.38356
20
16.30943
10
34.28579
20
16.43389
10
34.18758
20
16.55234
10
34.08897
20
16.66485
10
33.98996
20
16.77150
10
33.89057
20
16.87235
10
33.79083
20
16.96749
10
33.69074
20
17.05699
10
33.59032
20
17.14091
10
33.48960
20
17.21934
10
33.38858
20
17.29235
10
33.28728
20
17.36001
10
33.18573
20
17.42239
10
33.08393
20
17.47958
10
32.98191
20
17.53164
10
32.87968
20
17.57865
10
32.77725
20
17.62068
10
32.67465
20
17.65781
10
32.57189
20
17.69011
10
32.46899
20
17.71765
10
32.36596
20
17.74051
10
32.26282
20
17.75877
10
32.15959
20
17.77249
10
32.05629
20
17.78175
10
31.95292
20
17.78662
10
31.84952
20
17.78719
10
31.74609
20
17.78351
10
31.64265
20
17.77568
10
31.53922
20
17.76375
10
31.43582
20
17.74781
10
31.33246
20
17.72792
10
31.22916
20
17.70417
10
31.12593
20
17.67662
10
31.02280
20
17.64535
10
30.91977
20
17.61044
10
30.81687
20
17.57196
10
30.71412
20
17.52998
10
30.61152
20
17.48457
10
30.50910
20
17.43582
10
30.30485
20
17.32855
10
30.10151
20
17.20878
10
29.89921
20
17.07708
10
29.69809
20
16.93406
10
29.49827
20
16.78030
10
29.29990
20
16.61640
10
29.10310
20
16.44295
10
28.90801
20
16.26054
10
28.71477
20
16.06975
10
28.52351
20
15.87120
10
28.33436
20
15.66545
10
28.14746
20
15.45312
10
28.15044
20
15.53637
10
28.14779
20
15.61834
10
28.13320
20
15.77161
10
28.11148
20
15.92506
10
28.08272
20
16.07862
10
28.04704
20
16.23223
10
28.00454
20
16.38583
10
27.95533
20
16.53936
10
27.89952
20
16.69275
10
27.83722
20
16.84595
10
27.76853
20
16.99890
10
27.69357
20
17.15153
10
27.61243
20
17.30378
10
27.52524
20
17.45560
10
27.43209
20
17.60692
10
27.33309
20
17.75769
10
27.22835
20
17.90783
10
27.11799
20
18.05730
10
27.00210
20
18.20602
10
26.88080
20
18.35395
10
26.75420
20
18.50101
10
26.62239
20
18.64715
10
26.48549
20
18.79231
10
26.34361
20
18.93642
10
26.19686
20
19.07943
10
26.04534
20
19.22127
10
25.88916
20
19.36188
10
25.72843
20
19.50121
10
25.56326
20
19.63919
10
25.39375
20
19.77576
10
25.22001
20
19.91087
10
25.04215
20
20.04444
10
24.86029
20
20.17642
10
24.67452
20
20.30675
10
24.48495
20
20.43537
10
24.29169
20
20.56221
10
24.09486
20
20.68722
10
23.89455
20
20.81034
10
23.69088
20
20.93150
10
23.48395
20
21.05064
10
23.27388
20
21.16771
10
23.06076
20
21.28264
10
22.84471
20
21.39537
10
22.62584
20
21.50584
10
22.40425
20
21.61399
10
22.18005
20
21.71976
10
21.95335
20
21.82309
10
21.72426
20
21.92392
10
21.49288
20
22.02218
10
21.25932
20
22.11782
10
21.02370
20
22.21078
10
20.78611
20
22.30099
10
20.54667
20
22.38839
10
20.30549
20
22.47293
10
20.06266
20
22.55454
10
19.81831
20
22.63316
10
19.57253
20
22.70874
10
19.32545
20
22.78120
10
19.07715
20
22.85049
10
18.82776
20
22.91655
10
18.57737
20
22.97932
10
18.32611
20
23.03873
10
18.07407
20
23.09474
10
17.82136
20
23.14726
10
17.56809
20
23.19625
10
17.31437
20
23.24165
10
17.06065
20
23.28332
10
16.80735
20
23.32120
10
16.55457
20
23.35532
10
16.30241
20
23.38573
10
16.05094
20
23.41247
10
15.80027
20
23.43557
10
15.55048
20
23.45507
10
15.30167
20
23.47101
10
15.05392
20
23.48344
10
14.80733
20
23.49239
10
14.56199
20
23.49789
10
14.31798
20
23.50000
10
14.07540
20
23.49874
10
13.83435
20
23.49417
10
13.59490
20
23.48631
10
13.35716
20
23.47520
10
13.12121
20
23.46089
10
12.88715
20
23.44341
10
12.65506
20
23.42281
10
12.42504
20
23.39912
10
12.19717
20
23.37238
10
11.97155
20
23.34264
10
11.74827
20
23.30992
10
11.52742
20
23.27427
10
11.30910
20
23.23573
10
11.09338
20
23.19434
10
10.88037
20
23.15013
10
10.67015
20
23.10316
10
10.46282
20
23.05344
10
10.25846
20
23.00103
10
10.05717
20
22.94596
10
9.85904
20
22.88828
10
9.66415
20
22.82802
10
9.47261
20
22.76522
10
9.28449
20
22.69992
10
9.09990
20
22.63216
10
8.91892
20
22.56197
10
8.74165
20
22.48941
10
8.56817
20
22.41450
10
8.39857
20
22.33729
10
8.23295
20
22.25781
10
8.07140
20
22.17611
10
7.91401
20
22.09222
10
7.76087
20
22.00618
10
7.61207
20
21.91804
10
7.46769
20
21.82782
10
7.32785
20
21.73558
10
7.19261
20
21.64135
10
7.06208
20
21.54516
10
6.93634
20
21.44707
10
6.81550
20
21.34709
10
6.69962
20
21.24529
10
6.58882
20
21.14169
10
6.48318
20
21.03634
10
6.38278
20
20.92927
10
6.28773
20
20.82052
10
6.19811
20
20.71013
10
6.11401
20
20.59815
10
6.03552
20
20.48460
10
5.96275
20
20.36954
10
5.89576
20
20.25299
10
5.83467
20
20.13500
10
5.77955
20
20.01561
10
5.73050
20
19.89486
10
5.69735
20
19.79895
10
5.66869
20
19.69856
10
5.64438
20
19.59390
10
5.62429
20
19.48521
10
5.60826
20
19.37271
10
5.59615
20
19.25664
10
5.58782
20
19.13722
10
5.58312
20
19.01467
10
5.58192
20
18.88924
10
5.58406
20
18.76114
10
5.59780
20
18.49787
10
5.62321
20
18.22670
10
5.65913
20
17.94944
10
5.45612
20
17.83322
10
5.25693
20
17.71341
10
5.06163
20
17.59001
10
4.87031
20
17.46304
10
4.68307
20
17.33249
10
4.50000
20
17.19838
10
4.32119
20
17.06071
10
4.14672
20
16.91949
10
3.97670
20
16.77471
10
3.81121
20
16.62639
10
3.65034
20
16.47453
10
3.49418
20
16.31914
10
3.34283
20
16.16022
10
3.19637
20
15.99779
10
3.05490
20
15.83183
10
2.91850
20
15.66237
10
2.78727
20
15.48940
10
2.66130
20
15.31293
10
2.54068
20
15.13297
10
2.42549
20
14.94953
10
2.31584
20
14.76260
10
2.21181
20
14.57219
10
2.11349
20
14.37832
10
2.02098
20
14.18098
10
1.93436
20
13.98018
10
1.85372
20
13.77593
10
1.77916
20
13.56823
10
1.71077
20
13.35709
10
1.64863
20
13.14251
10
1.59285
20
12.92450
10
1.54350
20
12.70306
10
1.50068
20
12.47821
10
1.41315
20
12.48690
10
1.32405
20
12.49132
10
1.18867
20
12.48627
10
1.05721
20
12.47147
10
0.93032
20
12.44740
10
0.80867
20
12.41456
10
0.69293
20
12.37343
10
0.58376
20
12.32451
10
0.48183
20
12.26829
10
0.38781
20
12.20526
10
0.30235
20
12.13592
10
0.22613
20
12.06075
10
0.15981
20
11.98025
10
0.10405
20
11.89491
10
0.08034
20
11.85058
10
0.05953
20
11.80522
10
0.04168
20
11.75890
10
0.02690
20
11.71167
10
0.01526
20
11.66360
10
0.00684
20
11.61476
10
0.00172
20
11.56519
10
0.00000
20
11.51497
10
0.00217
20
11.45918
10
0.00860
20
11.40428
10
0.01917
20
11.35035
10
0.03374
20
11.29745
10
0.05219
20
11.24568
10
0.07440
20
11.19509
10
0.10024
20
11.14577
10
0.12958
20
11.09778
10
0.16231
20
11.05121
10
0.19828
20
11.00612
10
0.23738
20
10.96260
10
0.27949
20
10.92071
10
0.32447
20
10.88053
10
0.37219
20
10.84214
10
0.42255
20
10.80560
10
0.47540
20
10.77099
10
0.42255
20
10.73645
10
0.37219
20
10.69997
10
0.32447
20
10.66162
10
0.27949
20
10.62149
10
0.23738
20
10.57964
10
0.19828
20
10.53614
10
0.16231
20
10.49109
10
0.12958
20
10.44454
10
0.10024
20
10.39658
10
0.07440
20
10.34727
10
0.05219
20
10.29670
10
0.03374
20
10.24495
10
0.01917
20
10.19207
10
0.00860
20
10.13815
10
0.00217
20
10.08327
10
0.00000
20
10.02750
10
0.00172
20
9.97725
10
0.00684
20
9.92766
10
0.01526
20
9.87879
10
0.02690
20
9.83070
10
0.04168
20
9.78346
10
0.05953
20
9.73712
10
0.08034
20
9.69174
10
0.10405
20
9.64739
10
0.15981
20
9.56203
10
0.22613
20
9.48150
10
0.30235
20
9.40632
10
0.38781
20
9.33696
10
0.48183
20
9.27392
10
0.58376
20
9.21770
10
0.69293
20
9.16877
10
0.80867
20
9.12764
10
0.93032
20
9.09480
10
1.05721
20
9.07073
10
1.18867
20
9.05592
10
1.32405
20
9.05088
10
1.40192
20
9.05288
10
1.47833
20
9.05856
10
1.55342
20
9.06749
10
1.62732
20
9.07919
10
1.69099
20
8.84207
10
1.76177
20
8.60938
10
1.83954
20
8.38113
10
1.92420
20
8.15731
10
2.01566
20
7.93794
10
2.11381
20
7.72301
10
2.21855
20
7.51252
10
2.32977
20
7.30648
10
2.44737
20
7.10488
10
2.57125
20
6.90773
10
2.70130
20
6.71502
10
2.83743
20
6.52677
10
2.97952
20
6.34296
10
3.12749
20
6.16361
10
3.28121
20
5.98871
10
3.44060
20
5.81826
10
3.60554
20
5.65227
10
3.77594
20
5.49074
10
3.95170
20
5.33366
10
4.13270
20
5.18105
10
4.31885
20
5.03289
10
4.51004
20
4.88920
10
4.70617
20
4.74996
10
4.90714
20
4.61520
10
5.11284
20
4.48490
10
5.32318
20
4.35906
10
5.53805
20
4.23770
10
5.75734
20
4.12080
10
5.98095
20
4.00838
10
6.20879
20
3.90042
10
6.44074
20
3.79694
10
6.67671
20
3.69794
10
6.87229
20
3.54720
10
7.07299
20
3.39839
10
7.27865
20
3.25162
10
7.48912
20
3.10695
10
7.70426
20
2.96447
10
7.92391
20
2.82428
10
8.14792
20
2.68645
10
8.37613
20
2.55107
10
8.60841
20
2.41823
10
8.84459
20
2.28800
10
9.08452
20
2.16048
10
9.32806
20
2.03575
10
9.57505
20
1.91390
10
9.82534
20
1.79501
10
10.07878
20
1.67916
10
10.33523
20
1.56644
10
10.59451
20
1.45694
10
10.85650
20
1.35074
10
11.12103
20
1.24793
10
11.38796
20
1.14859
10
11.65712
20
1.05281
10
11.92838
20
0.96066
10
12.20159
20
0.87225
10
12.47658
20
0.78764
10
12.75321
20
0.70693
10
13.03132
20
0.63021
10
13.31077
20
0.55755
10
13.59141
20
0.48905
10
13.87308
20
0.42478
10
14.15564
20
0.36483
10
14.43892
20
0.30930
10
14.72278
20
0.25825
10
14.97651
20
0.21659
10
15.22981
20
0.17872
10
15.48259
20
0.14460
10
15.73475
20
0.11420
10
15.98622
20
0.08748
10
16.23689
20
0.06439
10
16.48668
20
0.04489
10
16.73550
20
0.02896
10
16.98325
20
0.01654
10
17.22985
20
0.00760
10
17.47519
20
0.00210
10
17.71920
20
-0.00000
10
17.96178
20
0.00126
10
18.20284
20
0.00585
10
18.44229
20
0.01372
10
18.68004
20
0.02483
10
18.91599
20
0.03915
10
19.15006
20
0.05663
10
19.38216
20
0.07724
10
19.61219
20
0.10093
10
19.84006
20
0.12768
10
20.06568
20
0.15743
10
20.28896
20
0.19016
10
20.50982
20
0.22581
10
20.72815
20
0.26436
10
20.94387
20
0.30575
10
21.15689
20
0.34996
10
21.36712
20
0.39695
10
21.57445
20
0.44667
10
21.77882
20
0.49908
10
21.98012
20
0.55415
10
22.17825
20
0.61184
10
22.37314
20
0.67211
10
22.56469
20
0.73491
10
22.75281
20
0.80021
10
22.93741
20
0.86798
10
23.11840
20
0.93816
10
23.29568
20
1.01073
10
23.46916
20
1.08564
10
23.63876
20
1.16286
10
23.80439
20
1.24233
10
23.96594
20
1.32404
10
24.12334
20
1.40793
10
24.27649
20
1.49397
10
24.42529
20
1.58211
10
24.56967
20
1.67232
10
24.70952
20
1.76457
10
24.84476
20
1.85880
10
24.97530
20
1.95498
10
25.10104
20
2.05308
10
25.22189
20
2.15305
10
25.33776
20
2.25485
10
25.44857
20
2.35845
10
25.55422
20
2.46380
10
25.65461
20
2.57087
10
25.74967
20
2.67961
10
25.83929
20
2.78999
10
25.92339
20
2.90197
10
26.00188
20
3.01551
10
26.07465
20
3.13057
10
26.14164
20
3.24711
10
26.20273
20
3.36510
10
26.25785
20
3.48448
10
26.30690
20
3.60523
10
26.33535
20
3.68646
10
26.36052
20
3.77104
10
26.38250
20
3.85883
10
26.40139
20
3.94967
10
26.41726
20
4.04342
10
26.43022
20
4.13995
10
26.44772
20
4.34074
10
26.45461
20
4.55088
10
26.45160
20
4.76922
10
26.43939
20
4.99461
10
26.41870
20
5.22590
10
26.39024
20
5.46193
10
26.35473
20
5.70155
10
26.31286
20
5.94360
10
26.26536
20
6.18695
10
26.21293
20
6.43042
10
26.15629
20
6.67287
10
26.09614
20
6.91315
10
26.03320
20
7.15011
0
LWPOLYLINE
8
INSIDE_Pocket
90
65
70
1
10
6.57569
20
13.60349
10
6.52261
20
13.59938
10
6.47080
20
13.58458
10
6.42051
20
13.55962
10
6.37202
20
13.52503
10
6.32560
20
13.48135
10
6.28154
20
13.42909
10
6.24009
20
13.36879
10
6.20154
20
13.30097
10
6.16616
20
13.22618
10
6.13421
20
13.14493
10
6.10599
20
13.05775
10
6.08175
20
12.96518
10
6.06177
20
12.86774
10
6.04632
20
12.76596
10
6.03568
20
12.66037
10
6.03013
20
12.55151
10
6.02993
20
12.44242
10
6.03499
20
12.33634
10
6.04505
20
12.23380
10
6.05988
20
12.13536
10
6.07922
20
12.04156
10
6.10283
20
11.95292
10
6.13046
20
11.87001
10
6.16187
20
11.79336
10
6.19680
20
11.72351
10
6.23502
20
11.66100
10
6.27627
20
11.60639
10
6.32032
20
11.56020
10
6.36690
20
11.52299
10
6.41578
20
11.49529
10
6.46671
20
11.47764
10
6.51945
20
11.47060
10
6.57248
20
11.47470
10
6.62426
20
11.48948
10
6.67453
20
11.51441
10
6.72302
20
11.54897
10
6.76944
20
11.59262
10
6.81352
20
11.64484
10
6.85499
20
11.70510
10
6.89358
20
11.77288
10
6.92900
20
11.84764
10
6.96100
20
11.92885
10
6.98929
20
12.01600
10
7.01360
20
12.10856
10
7.03366
20
12.20598
10
7.04919
20
12.30776
10
7.05992
20
12.41335
10
7.06557
20
12.52224
10
7.06573
20
12.63144
10
7.06065
20
12.73759
10
7.05056
20
12.84016
10
7.03572
20
12.93862
10
7.01637
20
13.03242
10
6.99275
20
13.12103
10
6.96510
20
13.20391
10
6.93369
20
13.28053
10
6.89873
20
13.35034
10
6.86049
20
13.41282
10
6.81921
20
13.46742
10
6.77512
20
13.51361
10
6.72849
20
13.55084
10
6.67954
20
13.57859
10
6.62852
20
13.59632
10
6.57569
20
13.60349
0
LWPOLYLINE
8
INSIDE_Engrave
90
133
70
0
10
26.18731
20
7.26488
10
26.48810
20
7.49632
10
26.78122
20
7.73256
10
27.06509
20
7.97308
10
27.33812
20
8.21738
10
27.59872
20
8.46495
10
27.72387
20
8.58980
10
27.84531
20
8.71528
10
27.96285
20
8.84132
10
28.07629
20
8.96787
10
28.18544
20
9.09484
10
28.29009
20
9.22219
10
28.39005
20
9.34985
10
28.48511
20
9.47775
10
28.57508
20
9.60583
10
28.65977
20
9.73403
10
28.73897
20
9.86228
10
28.81248
20
9.99053
10
28.88011
20
10.11870
10
28.94165
20
10.24673
10
28.99692
20
10.37456
10
29.04570
20
10.50213
10
29.08781
20
10.62937
10
29.12304
20
10.75622
10
29.15120
20
10.88261
10
29.17208
20
11.00849
10
29.18550
20
11.13378
10
29.19124
20
11.25842
10
29.19023
20
11.36432
10
29.18410
20
11.47042
10
29.17296
20
11.57670
10
29.15690
20
11.68315
10
29.13601
20
11.78973
10
29.11040
20
11.89642
10
29.08016
20
12.00320
10
29.04538
20
12.11004
10
29.00617
20
12.21693
10
28.96261
20
12.32383
10
28.91480
20
12.43072
10
28.86284
20
12.53758
10
28.80682
20
12.64439
10
28.74684
20
12.75111
10
28.68300
20
12.85773
10
28.61539
20
12.96423
10
28.54410
20
13.07057
10
28.46924
20
13.17673
10
28.30917
20
13.38844
10
28.13593
20
13.59915
10
27.95030
20
13.80868
10
27.75305
20
14.01684
10
27.54493
20
14.22343
10
27.32672
20
14.42826
10
27.09918
20
14.63114
10
26.86308
20
14.83187
10
26.61919
20
15.03028
10
26.36826
20
15.22615
10
26.11108
20
15.41930
10
25.84840
20
15.60955
10
25.58099
20
15.79669
10
25.30961
20
15.98054
10
25.03504
20
16.16090
10
24.75804
20
16.33759
10
24.47938
20
16.51040
10
24.19982
20
16.67915
10
23.92012
20
16.84365
10
23.64107
20
17.00370
10
23.36341
20
17.15911
10
23.08793
20
17.30970
10
22.81538
20
17.45526
10
22.55492
20
17.59007
10
22.29220
20
17.72072
10
22.02731
20
17.84722
10
21.76035
20
17.96957
10
21.49143
20
18.08778
10
21.22062
20
18.20185
10
20.94805
20
18.31179
10
20.67379
20
18.41761
10
20.39796
20
18.51931
10
20.12065
20
18.61690
10
19.84195
20
18.71038
10
19.56197
20
18.79976
10
19.28080
20
18.88505
10
18.99853
20
18.96626
10
18.71528
20
19.04338
10
18.43113
20
19.11643
10
18.14619
20
19.18540
10
17.86055
20
19.25032
10
17.57431
20
19.31118
10
17.28756
20
19.36798
10
17.00041
20
19.42074
10
16.71296
20
19.46947
10
16.42529
20
19.51416
10
16.13752
20
19.55482
10
15.84973
20
19.59147
10
15.56202
20
19.62410
10
15.27450
20
19.65272
10
14.98726
20
19.67734
10
14.70039
20
19.69796
10
14.41401
20
19.71460
10
14.12819
20
19.72724
10
13.84305
20
19.73592
10
13.55868
20
19.74062
10
13.27518
20
19.74135
10
12.99264
20
19.73812
10
12.71117
20
19.73094
10
12.43086
20
19.71982
10
12.15180
20
19.70475
10
11.87411
20
19.68575
10
11.59787
20
19.66281
10
11.32318
20
19.63596
10
11.05014
20
19.60518
10
10.77885
20
19.57050
10
10.50941
20
19.53191
10
10.24192
20
19.48942
10
9.97646
20
19.44304
10
9.71315
20
19.39277
10
9.45207
20
19.33863
10
9.19333
20
19.28060
10
8.93703
20
19.21871
10
8.68325
20
19.15296
10
8.43211
20
19.08335
10
8.18369
20
19.00989
10
7.93810
20
18.93259
10
7.69543
20
18.85144
10
7.45579
20
18.76647
10
7.21926
20
18.67767
10
6.98595
20
18.58505
10
6.75595
20
18.48861
10
6.52937
20
18.38837
10
6.30630
20
18.28433
10
6.08683
20
18.17649
10
5.87108
20
18.06486
10
5.65912
20
17.94945
0
LWPOLYLINE
8
INSIDE_Engrave
90
164
70
1
10
10.51221
20
10.79198
10
10.47491
20
10.76438
10
10.43919
20
10.73391
10
10.40505
20
10.70063
10
10.37247
20
10.66461
10
10.31199
20
10.58454
10
10.25769
20
10.49420
10
10.20953
20
10.39405
10
10.16745
20
10.28457
10
10.13139
20
10.16624
10
10.10131
20
10.03953
10
10.07714
20
9.90492
10
10.05884
20
9.76289
10
10.04635
20
9.61392
10
10.03962
20
9.45848
10
10.03859
20
9.29704
10
10.04321
20
9.13009
10
10.05342
20
8.95810
10
10.06918
20
8.78155
10
10.09043
20
8.60091
10
10.11711
20
8.41666
10
10.14917
20
8.22928
10
10.18656
20
8.03925
10
10.22922
20
7.84703
10
10.27711
20
7.65312
10
10.33015
20
7.45797
10
10.38832
20
7.26208
10
10.45153
20
7.06592
10
10.51976
20
6.86996
10
10.59293
20
6.67468
10
10.67101
20
6.48055
10
10.75392
20
6.28807
10
10.84163
20
6.09769
10
10.93407
20
5.90990
10
11.03120
20
5.72517
10
11.13295
20
5.54399
10
11.23928
20
5.36682
10
11.35013
20
5.19415
10
11.46544
20
5.02644
10
11.58518
20
4.86419
10
11.70927
20
4.70786
10
11.83766
20
4.55793
10
11.97031
20
4.41487
10
12.10716
20
4.27917
10
12.24815
20
4.15130
10
12.39324
20
4.03174
10
12.54236
20
3.92096
10
12.69547
20
3.81945
10
12.85250
20
3.72766
10
13.01341
20
3.64610
10
13.17815
20
3.57522
10
13.26193
20
3.54394
10
13.34665
20
3.51551
10
13.43230
20
3.49000
10
13.51887
20
3.46745
10
13.60636
20
3.44793
10
13.69475
20
3.43150
10
13.78405
20
3.41823
10
13.87424
20
3.40816
10
13.96532
20
3.40136
10
14.05728
20
3.39788
10
14.15012
20
3.39780
10
14.24382
20
3.40116
10
14.33839
20
3.40803
10
14.43381
20
3.41846
10
14.53008
20
3.43253
10
14.62719
20
3.45027
10
14.72514
20
3.47176
10
14.82391
20
3.49706
10
14.92350
20
3.52622
10
15.02391
20
3.55931
10
15.12513
20
3.59637
10
15.22715
20
3.63748
10
15.32996
20
3.68270
10
15.43357
20
3.73207
10
15.53795
20
3.78567
10
15.64310
20
3.84355
10
15.74903
20
3.90577
10
15.85571
20
3.97239
10
15.96315
20
4.04347
10
16.07134
20
4.11907
10
16.18026
20
4.19925
10
16.28992
20
4.28407
10
16.39748
20
4.37126
10
16.50014
20
4.45850
10
16.59795
20
4.54578
10
16.69099
20
4.63308
10
16.77930
20
4.72039
10
16.86295
20
4.80770
10
16.94200
20
4.89498
10
17.01651
20
4.98223
10
17.08653
20
5.06943
10
17.15213
20
5.15656
10
17.21336
20
5.24361
10
17.27029
20
5.33056
10
17.32297
20
5.41741
10
17.37146
20
5.50412
10
17.41583
20
5.59070
10
17.45612
20
5.67713
10
17.49241
20
5.76338
10
17.52475
20
5.84945
10
17.55321
20
5.93531
10
17.57783
20
6.02097
10
17.59867
20
6.10639
10
17.61581
20
6.19157
10
17.62930
20
6.27649
10
17.63919
20
6.36113
10
17.64555
20
6.44549
10
17.64844
20
6.52954
10
17.64791
20
6.61327
10
17.64402
20
6.69667
10
17.63684
20
6.77971
10
17.62643
20
6.86240
10
17.61283
20
6.94470
10
17.59612
20
7.02662
10
17.57635
20
7.10812
10
17.55359
20
7.18920
10
17.49929
20
7.35003
10
17.43372
20
7.50899
10
17.35734
20
7.66596
10
17.27062
20
7.82082
10
17.17405
20
7.97344
10
17.06810
20
8.12372
10
16.95325
20
8.27153
10
16.82996
20
8.41675
10
16.69872
20
8.55927
10
16.56000
20
8.69896
10
16.41427
20
8.83570
10
16.26202
20
8.96938
10
16.10371
20
9.09988
10
15.93982
20
9.22708
10
15.77083
20
9.35085
10
15.59721
20
9.47108
10
15.41943
20
9.58766
10
15.23798
20
9.70045
10
15.05333
20
9.80935
10
14.86594
20
9.91423
10
14.67631
20
10.01497
10
14.48490
20
10.11146
10
14.29218
20
10.20357
10
14.09865
20
10.29119
10
13.90475
20
10.37419
10
13.71099
20
10.45246
10
13.51782
20
10.52588
10
13.32573
20
10.59433
10
13.13519
20
10.65769
10
12.94667
20
10.71585
10
12.76065
20
10.76867
10
12.57761
20
10.81605
10
12.39802
20
10.85785
10
12.22235
20
10.89398
10
12.05109
20
10.92430
10
11.88470
20
10.94869
10
11.72366
20
10.96705
10
11.56846
20
10.97924
10
11.41955
20
10.98514
10
11.27742
20
10.98465
10
11.14255
20
10.97764
10
11.01540
20
10.96399
10
10.89645
20
10.94358
10
10.78619
20
10.91629
10
10.68507
20
10.88201
10
10.59359
20
10.84061
10
10.51221
20
10.79198
0
LWPOLYLINE
8
INSIDE_Engrave
90
129
70
1
10
6.59840
20
14.46081
10
6.50225
20
14.45830
10
6.40737
20
14.45087
10
6.31387
20
14.43864
10
6.22187
20
14.42171
10
6.13148
20
14.40023
10
6.04283
20
14.37430
10
5.95602
20
14.34405
10
5.87119
20
14.30960
10
5.78844
20
14.27107
10
5.70789
20
14.22858
10
5.62965
20
14.18226
10
5.55386
20
14.13221
10
5.48062
20
14.07857
10
5.41005
20
14.02146
10
5.34227
20
13.96099
10
5.27739
20
13.89728
10
5.21554
20
13.83047
10
5.15683
20
13.76066
10
5.10137
20
13.68799
10
5.04929
20
13.61256
10
5.00071
20
13.53451
10
4.95573
20
13.45395
10
4.91448
20
13.37100
10
4.87707
20
13.28579
10
4.84363
20
13.19843
10
4.81426
20
13.10905
10
4.78909
20
13.01776
10
4.76823
20
12.92470
10
4.75181
20
12.82997
10
4.73993
20
12.73371
10
4.73271
20
12.63603
10
4.73028
20
12.53704
10
4.73271
20
12.43807
10
4.73993
20
12.34039
10
4.75181
20
12.24414
10
4.76823
20
12.14942
10
4.78909
20
12.05637
10
4.81426
20
11.96510
10
4.84363
20
11.87573
10
4.87707
20
11.78838
10
4.91448
20
11.70318
10
4.95573
20
11.62025
10
5.00071
20
11.53970
10
5.04929
20
11.46166
10
5.10137
20
11.38625
10
5.15683
20
11.31359
10
5.21554
20
11.24380
10
5.27739
20
11.17700
10
5.34227
20
11.11331
10
5.41005
20
11.05285
10
5.48062
20
10.99575
10
5.55386
20
10.94212
10
5.62965
20
10.89209
10
5.70789
20
10.84578
10
5.78844
20
10.80330
10
5.87119
20
10.76478
10
5.95602
20
10.73034
10
6.04283
20
10.70010
10
6.13148
20
10.67418
10
6.22187
20
10.65270
10
6.31387
20
10.63579
10
6.40737
20
10.62355
10
6.50225
20
10.61612
10
6.59840
20
10.61362
10
6.69454
20
10.61612
10
6.78942
20
10.62355
10
6.88291
20
10.63579
10
6.97491
20
10.65270
10
7.06530
20
10.67418
10
7.15395
20
10.70010
10
7.24075
20
10.73034
10
7.32559
20
10.76478
10
7.40834
20
10.80330
10
7.48889
20
10.84578
10
7.56712
20
10.89209
10
7.64291
20
10.94212
10
7.71615
20
10.99575
10
7.78672
20
11.05285
10
7.85450
20
11.11331
10
7.91937
20
11.17700
10
7.98123
20
11.24380
10
8.03994
20
11.31359
10
8.09539
20
11.38625
10
8.14747
20
11.46166
10
8.19606
20
11.53970
10
8.24104
20
11.62025
10
8.28229
20
11.70318
10
8.31969
20
11.78838
10
8.35314
20
11.87573
10
8.38250
20
11.96510
10
8.40767
20
12.05637
10
8.42853
20
12.14942
10
8.44496
20
12.24414
10
8.45684
20
12.34039
10
8.46405
20
12.43807
10
8.46648
20
12.53704
10
8.46405
20
12.63603
10
8.45684
20
12.73371
10
8.44496
20
12.82997
10
8.42853
20
12.92470
10
8.40767
20
13.01776
10
8.38250
20
13.10905
10
8.35314
20
13.19843
10
8.31969
20
13.28579
10
8.28229
20
13.37100
10
8.24104
20
13.45395
10
8.19606
20
13.53451
10
8.14747
20
13.61256
10
8.09539
20
13.68799
10
8.03994
20
13.76066
10
7.98123
20
13.83047
10
7.91937
20
13.89728
10
7.85450
20
13.96099
10
7.78672
20
14.02146
10
7.71615
20
14.07857
10
7.64291
20
14.13221
10
7.56712
20
14.18226
10
7.48889
20
14.22858
10
7.40834
20
14.27107
10
7.32559
20
14.30960
10
7.24075
20
14.34405
10
7.15395
20
14.37430
10
7.06530
20
14.40023
10
6.97491
20
14.42171
10
6.88291
20
14.43864
10
6.78942
20
14.45087
10
6.69454
20
14.45830
10
6.59840
20
14.46081
0
LWPOLYLINE
8
INSIDE_Engrave
90
73
70
0
10
6.67669
20
3.69793
10
6.88420
20
3.61581
10
7.09458
20
3.53704
10
7.30776
20
3.46163
10
7.52367
20
3.38959
10
7.74225
20
3.32090
10
7.96343
20
3.25557
10
8.18714
20
3.19360
10
8.41331
20
3.13500
10
8.64189
20
3.07976
10
8.87280
20
3.02789
10
9.10597
20
2.97938
10
9.34134
20
2.93423
10
9.57884
20
2.89246
10
9.81841
20
2.85405
10
10.05997
20
2.81901
10
10.30347
20
2.78733
10
10.54883
20
2.75903
10
10.79599
20
2.73410
10
11.04487
20
2.71254
10
11.29543
20
2.69436
10
11.54758
20
2.67954
10
11.80125
20
2.66810
10
12.05640
20
2.66004
10
12.31294
20
2.65535
10
12.57080
20
2.65404
10
12.82994
20
2.65611
10
13.09026
20
2.66155
10
13.35172
20
2.67038
10
13.61424
20
2.68258
10
13.87775
20
2.69817
10
14.14219
20
2.71713
10
14.40750
20
2.73948
10
14.67360
20
2.76521
10
14.94043
20
2.79433
10
15.20791
20
2.82683
10
15.47600
20
2.86272
10
15.74461
20
2.90200
10
16.01368
20
2.94466
10
16.28315
20
2.99071
10
16.55294
20
3.04015
10
16.82299
20
3.09298
10
17.09324
20
3.14920
10
17.36361
20
3.20881
10
17.63405
20
3.27181
10
17.90447
20
3.33821
10
18.17482
20
3.40800
10
18.44504
20
3.48119
10
18.71504
20
3.55777
10
18.98477
20
3.63775
10
19.25416
20
3.72113
10
19.52314
20
3.80791
10
19.79165
20
3.89808
10
20.05961
20
3.99165
10
20.32697
20
4.08863
10
20.59365
20
4.18901
10
20.85959
20
4.29279
10
21.12472
20
4.39997
10
21.38897
20
4.51056
10
21.65228
20
4.62455
10
21.91458
20
4.74194
10
22.17581
20
4.86275
10
22.43589
20
4.98696
10
22.69476
20
5.11458
10
22.95236
20
5.24561
10
23.31165
20
5.43539
10
23.68459
20
5.64097
10
24.06805
20
5.86136
10
24.45888
20
6.09555
10
24.85395
20
6.34252
10
25.25012
20
6.60128
10
25.64425
20
6.87082
10
26.03319
20
7.15012
0
ENDSEC
0
EOF