0
SECTION
2
ENTITIES
0
LWPOLYLINE
8
OUTSIDE
90
681
70
1
10
34.83316
20
10.80123
10
35.03936
20
10.97459
10
35.27232
20
10.61908
10
35.52338
20
10.24426
10
35.79153
20
9.85321
10
36.07574
20
9.44905
10
36.37499
20
9.03486
10
36.68824
20
8.61376
10
37.01448
20
8.18884
10
37.35268
20
7.76320
10
37.70181
20
7.33994
10
38.06086
20
6.92217
10
38.24377
20
6.71630
10
38.42878
20
6.51297
10
38.61575
20
6.31256
10
38.80456
20
6.11546
10
38.99508
20
5.92205
10
39.18718
20
5.73273
10
39.38073
20
5.54788
10
39.57560
20
5.36788
10
39.77167
20
5.19313
10
39.96881
20
5.02402
10
40.16689
20
4.86092
10
40.36577
20
4.70423
10
40.56535
20
4.55434
10
40.76547
20
4.41163
10
40.96602
20
4.27650
10
41.16688
20
4.14932
10
41.36790
20
4.03048
10
41.56896
20
3.92038
10
41.76994
20
3.81940
10
41.97071
20
3.72793
10
42.17113
20
3.64635
10
42.37108
20
3.57506
10
42.57043
20
3.51444
10
42.76906
20
3.46488
10
42.96683
20
3.42676
10
43.16362
20
3.40048
10
43.26161
20
3.39189
10
43.35930
20
3.38641
10
43.45669
20
3.38409
10
43.55374
20
3.38496
10
43.65046
20
3.38908
10
43.74682
20
3.39650
10
43.84280
20
3.40727
10
43.93839
20
3.42143
10
44.03358
20
3.43903
10
44.12835
20
3.46012
10
44.22268
20
3.48475
10
44.31655
20
3.51298
10
44.40995
20
3.54483
10
44.50287
20
3.58038
10
44.59529
20
3.61965
10
44.68719
20
3.66271
10
44.77855
20
3.70960
10
44.86936
20
3.76036
10
44.95961
20
3.81506
10
45.04928
20
3.87373
10
45.13835
20
3.93642
10
45.22680
20
4.00319
10
45.31462
20
4.07407
10
45.40180
20
4.14913
10
45.48832
20
4.22841
10
45.57415
20
4.31195
10
45.65929
20
4.39980
10
45.74373
20
4.49202
10
45.82743
20
4.58865
10
45.91040
20
4.68974
10
45.99260
20
4.79534
10
46.07403
20
4.90549
10
46.15468
20
5.02025
10
46.23451
20
5.13966
10
46.31352
20
5.26378
10
46.39170
20
5.39265
10
46.52447
20
5.62292
10
46.64817
20
5.85011
10
46.76293
20
6.07425
10
46.86887
20
6.29535
10
46.96611
20
6.51344
10
47.05478
20
6.72853
10
47.13500
20
6.94065
10
47.20689
20
7.14982
10
47.27059
20
7.35605
10
47.32622
20
7.55937
10
47.37389
20
7.75979
10
47.41375
20
7.95734
10
47.44590
20
8.15204
10
47.47047
20
8.34390
10
47.48760
20
8.53296
10
47.49740
20
8.71922
10
47.50000
20
8.90270
10
47.49552
20
9.08344
10
47.48409
20
9.26144
10
47.46584
20
9.43673
10
47.44088
20
9.60934
10
47.40934
20
9.77927
10
47.37135
20
9.94654
10
47.32703
20
10.11119
10
47.27650
20
10.27323
10
47.21990
20
10.43268
10
47.15734
20
10.58955
10
47.08895
20
10.74388
10
47.01485
20
10.89568
10
46.93517
20
11.04497
10
46.85004
20
11.19177
10
46.75958
20
11.33610
10
46.66390
20
11.47798
10
46.56315
20
11.61743
10
46.45744
20
11.75448
10
46.34689
20
11.88913
10
46.23163
20
12.02142
10
46.11179
20
12.15136
10
45.98749
20
12.27897
10
45.85886
20
12.40428
10
45.72602
20
12.52730
10
45.58909
20
12.64805
10
45.44819
20
12.76656
10
45.30347
20
12.88284
10
45.15503
20
12.99691
10
45.00300
20
13.10880
10
44.84751
20
13.21852
10
44.68869
20
13.32609
10
44.52665
20
13.43154
10
44.36152
20
13.53489
10
44.19342
20
13.63615
10
44.02249
20
13.73534
10
43.84884
20
13.83249
10
43.67261
20
13.92762
10
43.31286
20
14.11188
10
42.94425
20
14.28829
10
42.56777
20
14.45700
10
42.18442
20
14.61818
10
41.79519
20
14.77200
10
42.18227
20
14.93287
10
42.56339
20
15.10099
10
42.93754
20
15.27650
10
43.30372
20
15.45956
10
43.66094
20
15.65030
10
43.83588
20
15.74860
10
44.00820
20
15.84887
10
44.17778
20
15.95114
10
44.34450
20
16.05542
10
44.50822
20
16.16173
10
44.66883
20
16.27008
10
44.82620
20
16.38051
10
44.98020
20
16.49301
10
45.13072
20
16.60762
10
45.27761
20
16.72435
10
45.42077
20
16.84322
10
45.56007
20
16.96424
10
45.69537
20
17.08744
10
45.82656
20
17.21283
10
45.95351
20
17.34044
10
46.07609
20
17.47027
10
46.19419
20
17.60234
10
46.30767
20
17.73669
10
46.41641
20
17.87331
10
46.52029
20
18.01224
10
46.61918
20
18.15348
10
46.71295
20
18.29706
10
46.80149
20
18.44300
10
46.88466
20
18.59131
10
46.96234
20
18.74201
10
47.03441
20
18.89513
10
47.10074
20
19.05066
10
47.16121
20
19.20865
10
47.21569
20
19.36910
10
47.26405
20
19.53203
10
47.30618
20
19.69746
10
47.34194
20
19.86541
10
47.37122
20
20.03589
10
47.39388
20
20.20893
10
47.40980
20
20.38454
10
47.41887
20
20.56274
10
47.42094
20
20.74355
10
47.41590
20
20.92699
10
47.40362
20
21.11307
10
47.38399
20
21.30181
10
47.35686
20
21.49323
10
47.32212
20
21.68736
10
47.27965
20
21.88419
10
47.22931
20
22.08377
10
47.17098
20
22.28610
10
47.10455
20
22.49119
10
47.02987
20
22.69908
10
46.94684
20
22.90978
10
46.85531
20
23.12330
10
46.75518
20
23.33966
10
46.64631
20
23.55888
10
46.52858
20
23.78099
10
46.40186
20
24.00599
10
46.26603
20
24.23391
10
46.13641
20
24.44043
10
46.00618
20
24.63765
10
45.87535
20
24.82567
10
45.74395
20
25.00460
10
45.61200
20
25.17457
10
45.47952
20
25.33567
10
45.34654
20
25.48803
10
45.21308
20
25.63174
10
45.07916
20
25.76694
10
44.94480
20
25.89371
10
44.81003
20
26.01219
10
44.67486
20
26.12248
10
44.53932
20
26.22469
10
44.40344
20
26.31893
10
44.26723
20
26.40532
10
44.13072
20
26.48397
10
43.99393
20
26.55498
10
43.85688
20
26.61848
10
43.71960
20
26.67456
10
43.58210
20
26.72336
10
43.44442
20
26.76496
10
43.30656
20
26.79950
10
43.16856
20
26.82707
10
43.03044
20
26.84780
10
42.89221
20
26.86179
10
42.75391
20
26.86916
10
42.61555
20
26.87001
10
42.47716
20
26.86446
10
42.33876
20
26.85262
10
42.20037
20
26.83460
10
42.06201
20
26.81051
10
41.92371
20
26.78047
10
41.78549
20
26.74459
10
41.64737
20
26.70298
10
41.50937
20
26.65575
10
41.37152
20
26.60301
10
41.23384
20
26.54487
10
41.09635
20
26.48146
10
40.95907
20
26.41286
10
40.82203
20
26.33921
10
40.68525
20
26.26061
10
40.54874
20
26.17718
10
40.41255
20
26.08901
10
40.27667
20
25.99624
10
40.14114
20
25.89896
10
40.00599
20
25.79730
10
39.87123
20
25.69135
10
39.73688
20
25.58124
10
39.60297
20
25.46708
10
39.46952
20
25.34897
10
39.33655
20
25.22703
10
39.20409
20
25.10137
10
38.94077
20
24.83935
10
38.67974
20
24.56379
10
38.42117
20
24.27559
10
38.16526
20
23.97564
10
37.91217
20
23.66484
10
37.66209
20
23.34407
10
37.66608
20
23.46984
10
37.66253
20
23.59366
10
37.64302
20
23.82521
10
37.61395
20
24.05701
10
37.57547
20
24.28899
10
37.52773
20
24.52103
10
37.47087
20
24.75306
10
37.40502
20
24.98499
10
37.33035
20
25.21671
10
37.24699
20
25.44814
10
37.15508
20
25.67919
10
37.05477
20
25.90976
10
36.94621
20
26.13976
10
36.82954
20
26.36910
10
36.70490
20
26.59769
10
36.57244
20
26.82544
10
36.43231
20
27.05226
10
36.28463
20
27.27805
10
36.12958
20
27.50272
10
35.96727
20
27.72618
10
35.79787
20
27.94833
10
35.62151
20
28.16910
10
35.43834
20
28.38838
10
35.24850
20
28.60608
10
35.05214
20
28.82211
10
34.84940
20
29.03638
10
34.64043
20
29.24880
10
34.42536
20
29.45928
10
34.20436
20
29.66772
10
33.97755
20
29.87403
10
33.74508
20
30.07812
10
33.50711
20
30.27990
10
33.26376
20
30.47927
10
33.01520
20
30.67615
10
32.76155
20
30.87045
10
32.50297
20
31.06207
10
32.23960
20
31.25091
10
31.97158
20
31.43689
10
31.69907
20
31.61992
10
31.42219
20
31.79991
10
31.14110
20
31.97675
10
30.85595
20
32.15037
10
30.56687
20
32.32067
10
30.27401
20
32.48755
10
29.97752
20
32.65093
10
29.67753
20
32.81071
10
29.37420
20
32.96680
10
29.06767
20
33.11911
10
28.75808
20
33.26755
10
28.44557
20
33.41203
10
28.13030
20
33.55245
10
27.81240
20
33.68873
10
27.49203
20
33.82077
10
27.16931
20
33.94847
10
26.84441
20
34.07175
10
26.51746
20
34.19052
10
26.18860
20
34.30469
10
25.85799
20
34.41415
10
25.52576
20
34.51882
10
25.19207
20
34.61862
10
24.85705
20
34.71344
10
24.52085
20
34.80319
10
24.18361
20
34.88779
10
23.84548
20
34.96714
10
23.50660
20
35.04115
10
23.16712
20
35.10973
10
22.82763
20
35.17268
10
22.48871
20
35.22990
10
22.15049
20
35.28144
10
21.81308
20
35.32738
10
21.47662
20
35.36777
10
21.14121
20
35.40266
10
20.80699
20
35.43212
10
20.47407
20
35.45621
10
20.14257
20
35.47498
10
19.81262
20
35.48850
10
19.48435
20
35.49682
10
19.15786
20
35.50000
10
18.83329
20
35.49810
10
18.51075
20
35.49119
10
18.19036
20
35.47931
10
17.87226
20
35.46254
10
17.55655
20
35.44092
10
17.24337
20
35.41452
10
16.93282
20
35.38340
10
16.62505
20
35.34761
10
16.32016
20
35.30722
10
16.01827
20
35.26228
10
15.71952
20
35.21286
10
15.42402
20
35.15901
10
15.13189
20
35.10079
10
14.84326
20
35.03826
10
14.55824
20
34.97148
10
14.27696
20
34.90051
10
13.99954
20
34.82541
10
13.72611
20
34.74624
10
13.45677
20
34.66305
10
13.19167
20
34.57591
10
12.93091
20
34.48488
10
12.67462
20
34.39001
10
12.42291
20
34.29136
10
12.17593
20
34.18900
10
11.93377
20
34.08298
10
11.69657
20
33.97336
10
11.46445
20
33.86020
10
11.23753
20
33.74356
10
11.01592
20
33.62350
10
10.79976
20
33.50008
10
10.58917
20
33.37335
10
10.38426
20
33.24338
10
10.18516
20
33.11023
10
9.99199
20
32.97395
10
9.80486
20
32.83460
10
9.62392
20
32.69225
10
9.44926
20
32.54695
10
9.28102
20
32.39876
10
9.11933
20
32.24774
10
8.96429
20
32.09395
10
8.81603
20
31.93745
10
8.67467
20
31.77830
10
8.54034
20
31.61655
10
8.41316
20
31.45227
10
8.29324
20
31.28552
10
8.18072
20
31.11635
10
8.07570
20
30.94482
10
7.97832
20
30.77100
10
7.88870
20
30.59494
10
7.80695
20
30.41671
10
7.73320
20
30.23635
10
7.66757
20
30.05393
10
7.62321
20
29.90906
10
7.58486
20
29.75740
10
7.55234
20
29.59930
10
7.52546
20
29.43511
10
7.50401
20
29.26516
10
7.48781
20
29.08982
10
7.47666
20
28.90941
10
7.47037
20
28.72429
10
7.46876
20
28.53481
10
7.47162
20
28.34130
10
7.47877
20
28.14411
10
7.49002
20
27.94359
10
7.50516
20
27.74009
10
7.52401
20
27.53394
10
7.54638
20
27.32550
10
7.57207
20
27.11511
10
7.30045
20
26.93954
10
7.03392
20
26.75855
10
6.77260
20
26.57214
10
6.51661
20
26.38034
10
6.26608
20
26.18313
10
6.02113
20
25.98054
10
5.78187
20
25.77256
10
5.54843
20
25.55922
10
5.32094
20
25.34052
10
5.09951
20
25.11646
10
4.88426
20
24.88706
10
4.67531
20
24.65232
10
4.47280
20
24.41225
10
4.27683
20
24.16687
10
4.08754
20
23.91617
10
3.90504
20
23.66017
10
3.72945
20
23.39888
10
3.56089
20
23.13230
10
3.39950
20
22.86045
10
3.24538
20
22.58333
10
3.09866
20
22.30095
10
2.95947
20
22.01331
10
2.82791
20
21.72044
10
2.70413
20
21.42233
10
2.58823
20
21.11900
10
2.48033
20
20.81044
10
2.38057
20
20.49668
10
2.28906
20
20.17773
10
2.20592
20
19.85357
10
2.13127
20
19.52424
10
2.06525
20
19.18973
10
2.00795
20
18.85006
10
1.89083
20
18.86319
10
1.83167
20
18.86798
10
1.77161
20
18.86986
10
1.68045
20
18.86794
10
1.59048
20
18.86224
10
1.50182
20
18.85286
10
1.41457
20
18.83988
10
1.32886
20
18.82341
10
1.24479
20
18.80352
10
1.16248
20
18.78032
10
1.08202
20
18.75390
10
1.00355
20
18.72436
10
0.92716
20
18.69178
10
0.85297
20
18.65625
10
0.78109
20
18.61787
10
0.71163
20
18.57674
10
0.64471
20
18.53295
10
0.58042
20
18.48658
10
0.51890
20
18.43774
10
0.46024
20
18.38650
10
0.40455
20
18.33298
10
0.35196
20
18.27726
10
0.30257
20
18.21943
10
0.25648
20
18.15959
10
0.21383
20
18.09782
10
0.17470
20
18.03423
10
0.13922
20
17.96890
10
0.10750
20
17.90193
10
0.07965
20
17.83341
10
0.05578
20
17.76344
10
0.03599
20
17.69210
10
0.02041
20
17.61949
10
0.00915
20
17.54570
10
0.00231
20
17.47083
10
0.00000
20
17.39496
10
0.00291
20
17.31068
10
0.01151
20
17.22774
10
0.02564
20
17.14627
10
0.04514
20
17.06637
10
0.06983
20
16.98815
10
0.09955
20
16.91173
10
0.13412
20
16.83722
10
0.17339
20
16.76473
10
0.21717
20
16.69438
10
0.26531
20
16.62627
10
0.31763
20
16.56052
10
0.37396
20
16.49724
10
0.43414
20
16.43655
10
0.49801
20
16.37854
10
0.56538
20
16.32335
10
0.63609
20
16.27107
10
0.56538
20
16.21889
10
0.49801
20
16.16378
10
0.43414
20
16.10586
10
0.37396
20
16.04523
10
0.31763
20
15.98200
10
0.26531
20
15.91630
10
0.21717
20
15.84824
10
0.17339
20
15.77792
10
0.13412
20
15.70547
10
0.09955
20
15.63099
10
0.06983
20
15.55460
10
0.04514
20
15.47641
10
0.02564
20
15.39653
10
0.01151
20
15.31508
10
0.00291
20
15.23218
10
0.00000
20
15.14793
10
0.00231
20
15.07202
10
0.00915
20
14.99711
10
0.02041
20
14.92328
10
0.03599
20
14.85064
10
0.05578
20
14.77927
10
0.07965
20
14.70926
10
0.10750
20
14.64072
10
0.13922
20
14.57372
10
0.17470
20
14.50837
10
0.21383
20
14.44476
10
0.25648
20
14.38298
10
0.30257
20
14.32312
10
0.35196
20
14.26528
10
0.40455
20
14.20954
10
0.46024
20
14.15601
10
0.51890
20
14.10477
10
0.58042
20
14.05592
10
0.64471
20
14.00954
10
0.71163
20
13.96574
10
0.78109
20
13.92460
10
0.85297
20
13.88623
10
0.92716
20
13.85070
10
1.00355
20
13.81811
10
1.08202
20
13.78856
10
1.16248
20
13.76214
10
1.24479
20
13.73895
10
1.32886
20
13.71906
10
1.41457
20
13.70259
10
1.50182
20
13.68961
10
1.59048
20
13.68023
10
1.68045
20
13.67453
10
1.77161
20
13.67261
10
1.87580
20
13.67562
10
1.97805
20
13.68421
10
2.07852
20
13.69769
10
2.17740
20
13.71537
10
2.26260
20
13.35716
10
2.35729
20
13.00566
10
2.46135
20
12.66085
10
2.57464
20
12.32275
10
2.69701
20
11.99136
10
2.82834
20
11.66668
10
2.96848
20
11.34871
10
3.11729
20
11.03745
10
3.27465
20
10.73291
10
3.44040
20
10.43508
10
3.61442
20
10.14397
10
3.79656
20
9.85959
10
3.98669
20
9.58192
10
4.18466
20
9.31099
10
4.39035
20
9.04678
10
4.60362
20
8.78929
10
4.82432
20
8.53854
10
5.05232
20
8.29452
10
5.28748
20
8.05724
10
5.52967
20
7.82669
10
5.77874
20
7.60288
10
6.03456
20
7.38581
10
6.29699
20
7.17548
10
6.56589
20
6.97190
10
6.84113
20
6.77506
10
7.12256
20
6.58497
10
7.41006
20
6.40163
10
7.70348
20
6.22504
10
8.00268
20
6.05521
10
8.30753
20
5.89213
10
8.61789
20
5.73581
10
8.93362
20
5.58625
10
9.19531
20
5.35853
10
9.46385
20
5.13375
10
9.73904
20
4.91202
10
10.02066
20
4.69347
10
10.30852
20
4.47825
10
10.60241
20
4.26646
10
10.90214
20
4.05825
10
11.20750
20
3.85374
10
11.51829
20
3.65306
10
11.83431
20
3.45634
10
12.15535
20
3.26371
10
12.48121
20
3.07529
10
12.81169
20
2.89121
10
13.14658
20
2.71161
10
13.48570
20
2.53660
10
13.82882
20
2.36633
10
14.17576
20
2.20091
10
14.52630
20
2.04049
10
14.88025
20
1.88517
10
15.23741
20
1.73510
10
15.59756
20
1.59041
10
15.96051
20
1.45121
10
16.32607
20
1.31765
10
16.69401
20
1.18984
10
17.06415
20
1.06792
10
17.43628
20
0.95202
10
17.81019
20
0.84226
10
18.18569
20
0.73877
10
18.56257
20
0.64169
10
18.94064
20
0.55113
10
19.31968
20
0.46723
10
19.69950
20
0.39012
10
20.03899
20
0.32719
10
20.37791
20
0.26998
10
20.71614
20
0.21845
10
21.05354
20
0.17252
10
21.39001
20
0.13215
10
21.72542
20
0.09726
10
22.05965
20
0.06782
10
22.39257
20
0.04374
10
22.72407
20
0.02498
10
23.05402
20
0.01148
10
23.38230
20
0.00317
10
23.70879
20
-0.00000
10
24.03337
20
0.00191
10
24.35592
20
0.00883
10
24.67631
20
0.02072
10
24.99442
20
0.03751
10
25.31013
20
0.05914
10
25.62332
20
0.08555
10
25.93387
20
0.11668
10
26.24166
20
0.15248
10
26.54655
20
0.19288
10
26.84845
20
0.23782
10
27.14721
20
0.28726
10
27.44271
20
0.34112
10
27.73485
20
0.39935
10
28.02349
20
0.46188
10
28.30852
20
0.52867
10
28.58980
20
0.59964
10
28.86723
20
0.67475
10
29.14067
20
0.75393
10
29.41001
20
0.83712
10
29.67513
20
0.92427
10
29.93590
20
1.01531
10
30.19220
20
1.11018
10
30.44391
20
1.20883
10
30.69090
20
1.31120
10
30.93306
20
1.41723
10
31.17027
20
1.52685
10
31.40240
20
1.64001
10
31.62933
20
1.75666
10
31.85094
20
1.87672
10
32.06711
20
2.00014
10
32.27771
20
2.12687
10
32.48262
20
2.25684
10
32.68173
20
2.39000
10
32.87491
20
2.52628
10
33.06204
20
2.66562
10
33.24299
20
2.80798
10
33.41765
20
2.95327
10
33.58589
20
3.10146
10
33.74760
20
3.25248
10
33.90264
20
3.40626
10
34.05090
20
3.56276
10
34.19226
20
3.72191
10
34.32660
20
3.88365
10
34.45378
20
4.04792
10
34.57370
20
4.21467
10
34.68623
20
4.38383
10
34.79124
20
4.55535
10
34.88862
20
4.72916
10
34.97825
20
4.90522
10
35.06000
20
5.08344
10
35.13374
20
5.26379
10
35.19937
20
5.44620
10
35.23743
20
5.56891
10
35.27111
20
5.69668
10
35.30053
20
5.82929
10
35.32580
20
5.96652
10
35.34704
20
6.10815
10
35.36438
20
6.25397
10
35.37792
20
6.40375
10
35.38780
20
6.55729
10
35.39412
20
6.71435
10
35.39702
20
6.87473
10
35.39660
20
7.03821
10
35.39298
20
7.20457
10
35.37665
20
7.54505
10
35.34897
20
7.89444
10
35.31089
20
8.25100
10
35.26337
20
8.61298
10
35.20735
20
8.97864
10
35.14379
20
9.34624
10
35.07364
20
9.71404
10
34.99785
20
10.08030
10
34.91737
20
10.44327
10
34.83316
20
10.80123
0
LWPOLYLINE
8
INSIDE_Pocket
90
81
70
1
10
8.79845
20
20.54995
10
8.76276
20
20.54891
10
8.72744
20
20.54374
10
8.69254
20
20.53453
10
8.65811
20
20.52138
10
8.62418
20
20.50440
10
8.59082
20
20.48368
10
8.55805
20
20.45932
10
8.52594
20
20.43143
10
8.46383
20
20.36544
10
8.40487
20
20.28649
10
8.34942
20
20.19540
10
8.29783
20
20.09296
10
8.25049
20
19.97997
10
8.20775
20
19.85723
10
8.16998
20
19.72554
10
8.13755
20
19.58570
10
8.11081
20
19.43850
10
8.09015
20
19.28475
10
8.07592
20
19.12525
10
8.06848
20
18.96079
10
8.06822
20
18.79599
10
8.07498
20
18.63574
10
8.08845
20
18.48085
10
8.10829
20
18.33214
10
8.13417
20
18.19044
10
8.16576
20
18.05655
10
8.20273
20
17.93129
10
8.24475
20
17.81550
10
8.29150
20
17.70998
10
8.34263
20
17.61556
10
8.39783
20
17.53305
10
8.45676
20
17.46328
10
8.48752
20
17.43343
10
8.51910
20
17.40707
10
8.55143
20
17.38430
10
8.58450
20
17.36522
10
8.61825
20
17.34994
10
8.65265
20
17.33857
10
8.68764
20
17.33119
10
8.72321
20
17.32793
10
8.75887
20
17.32896
10
8.79416
20
17.33412
10
8.82904
20
17.34332
10
8.86345
20
17.35645
10
8.89736
20
17.37342
10
8.93072
20
17.39411
10
8.96347
20
17.41845
10
8.99559
20
17.44631
10
9.05770
20
17.51226
10
9.11668
20
17.59114
10
9.17217
20
17.68217
10
9.22380
20
17.78456
10
9.27120
20
17.89749
10
9.31402
20
18.02018
10
9.35187
20
18.15184
10
9.38440
20
18.29165
10
9.41124
20
18.43883
10
9.43202
20
18.59257
10
9.44637
20
18.75209
10
9.45394
20
18.91658
10
9.45415
20
19.08153
10
9.44735
20
19.24189
10
9.43385
20
19.39684
10
9.41399
20
19.54557
10
9.38810
20
19.68727
10
9.35649
20
19.82113
10
9.31951
20
19.94633
10
9.27747
20
20.06207
10
9.23070
20
20.16754
10
9.17953
20
20.26192
10
9.12429
20
20.34440
10
9.06531
20
20.41417
10
9.03451
20
20.44404
10
9.00290
20
20.47042
10
8.97052
20
20.49323
10
8.93741
20
20.51234
10
8.90360
20
20.52768
10
8.86915
20
20.53913
10
8.83409
20
20.54658
10
8.79845
20
20.54995
0
LWPOLYLINE
8
INSIDE_Engrave
90
142
70
0
10
35.03936
20
10.97460
10
35.44182
20
11.32423
10
35.63934
20
11.50180
10
35.83403
20
11.68109
10
36.02562
20
11.86201
10
36.21386
20
12.04444
10
36.39846
20
12.22830
10
36.57918
20
12.41349
10
36.75573
20
12.59992
10
36.92787
20
12.78748
10
37.09531
20
12.97609
10
37.25781
20
13.16564
10
37.41508
20
13.35604
10
37.56687
20
13.54720
10
37.71291
20
13.73902
10
37.85294
20
13.93139
10
37.98668
20
14.12424
10
38.11388
20
14.31745
10
38.23427
20
14.51093
10
38.34758
20
14.70460
10
38.45355
20
14.89834
10
38.55191
20
15.09207
10
38.64240
20
15.28569
10
38.72475
20
15.47910
10
38.79869
20
15.67221
10
38.86397
20
15.86492
10
38.92031
20
16.05713
10
38.96745
20
16.24875
10
39.00513
20
16.43969
10
39.03307
20
16.62984
10
39.05102
20
16.81911
10
39.05871
20
17.00741
10
39.05734
20
17.16737
10
39.04915
20
17.32765
10
39.03424
20
17.48821
10
39.01275
20
17.64901
10
38.98481
20
17.81001
10
38.95054
20
17.97119
10
38.91008
20
18.13249
10
38.86354
20
18.29390
10
38.81107
20
18.45536
10
38.75278
20
18.61685
10
38.68882
20
18.77833
10
38.61929
20
18.93975
10
38.54434
20
19.10110
10
38.46408
20
19.26232
10
38.37866
20
19.42338
10
38.28819
20
19.58426
10
38.19281
20
19.74490
10
38.09264
20
19.90528
10
37.98782
20
20.06535
10
37.87846
20
20.22509
10
37.76470
20
20.38445
10
37.64667
20
20.54340
10
37.52449
20
20.70191
10
37.39829
20
20.85993
10
37.26821
20
21.01743
10
37.13436
20
21.17438
10
36.99688
20
21.33073
10
36.85589
20
21.48646
10
36.56392
20
21.79588
10
36.25947
20
22.10236
10
35.94356
20
22.40560
10
35.61722
20
22.70531
10
35.28148
20
23.00120
10
34.93736
20
23.29299
10
34.58588
20
23.58038
10
34.22808
20
23.86309
10
33.86497
20
24.14082
10
33.49759
20
24.41328
10
33.12696
20
24.68018
10
32.75410
20
24.94124
10
32.38004
20
25.19616
10
32.00580
20
25.44466
10
31.63242
20
25.68644
10
31.26091
20
25.92121
10
30.89230
20
26.14869
10
30.52762
20
26.36858
10
30.17912
20
26.57223
10
29.82759
20
26.76960
10
29.47316
20
26.96069
10
29.11597
20
27.14552
10
28.75613
20
27.32409
10
28.39379
20
27.49641
10
28.02908
20
27.66249
10
27.66212
20
27.82234
10
27.29305
20
27.97598
10
26.92199
20
28.12340
10
26.54909
20
28.26462
10
26.17446
20
28.39964
10
25.79825
20
28.52849
10
25.42057
20
28.65115
10
25.04157
20
28.76766
10
24.66138
20
28.87800
10
24.28011
20
28.98220
10
23.89792
20
29.08027
10
23.51492
20
29.17220
10
23.13125
20
29.25802
10
22.74703
20
29.33772
10
22.36241
20
29.41132
10
21.97750
20
29.47884
10
21.59245
20
29.54027
10
21.20738
20
29.59562
10
20.82242
20
29.64491
10
20.43771
20
29.68815
10
20.05337
20
29.72534
10
19.66954
20
29.75650
10
19.28635
20
29.78162
10
18.90392
20
29.80073
10
18.52240
20
29.81383
10
18.14190
20
29.82093
10
17.76256
20
29.82204
10
17.38452
20
29.81717
10
17.00790
20
29.80632
10
16.63284
20
29.78951
10
16.25946
20
29.76675
10
15.88789
20
29.73804
10
15.51827
20
29.70340
10
15.15073
20
29.66283
10
14.78540
20
29.61634
10
14.42241
20
29.56395
10
14.06189
20
29.50565
10
13.70397
20
29.44147
10
13.34879
20
29.37140
10
12.99647
20
29.29547
10
12.64714
20
29.21367
10
12.30094
20
29.12602
10
11.95799
20
29.03252
10
11.61844
20
28.93319
10
11.28240
20
28.82804
10
10.95001
20
28.71707
10
10.62140
20
28.60029
10
10.29670
20
28.47771
10
9.97605
20
28.34935
10
9.65957
20
28.21520
10
9.34739
20
28.07529
10
9.03965
20
27.92961
10
8.73648
20
27.77818
10
8.43800
20
27.62101
10
8.14435
20
27.45810
10
7.85567
20
27.28947
10
7.57207
20
27.11513
0
LWPOLYLINE
8
INSIDE_Engrave
90
186
70
1
10
14.06563
20
16.30278
10
14.01573
20
16.26108
10
13.96793
20
16.21506
10
13.92225
20
16.16479
10
13.87866
20
16.11036
10
13.83716
20
16.05188
10
13.79773
20
15.98942
10
13.76038
20
15.92307
10
13.72508
20
15.85294
10
13.69184
20
15.77910
10
13.66064
20
15.70165
10
13.63147
20
15.62067
10
13.60433
20
15.53626
10
13.55609
20
15.35751
10
13.51584
20
15.16610
10
13.48350
20
14.96276
10
13.45901
20
14.74820
10
13.44230
20
14.52316
10
13.43329
20
14.28834
10
13.43191
20
14.04447
10
13.43809
20
13.79226
10
13.45176
20
13.53245
10
13.47285
20
13.26574
10
13.50128
20
12.99286
10
13.53698
20
12.71453
10
13.57988
20
12.43147
10
13.62990
20
12.14439
10
13.68699
20
11.85403
10
13.75106
20
11.56109
10
13.82204
20
11.26630
10
13.89986
20
10.97038
10
13.98445
20
10.67404
10
14.07573
20
10.37802
10
14.17364
20
10.08302
10
14.27811
20
9.78977
10
14.38905
20
9.49899
10
14.50641
20
9.21140
10
14.63010
20
8.92772
10
14.76005
20
8.64867
10
14.89620
20
8.37496
10
15.03847
20
8.10732
10
15.18679
20
7.84648
10
15.34109
20
7.59314
10
15.50129
20
7.34803
10
15.66733
20
7.11187
10
15.83913
20
6.88538
10
16.01661
20
6.66927
10
16.19972
20
6.46428
10
16.29336
20
6.36617
10
16.38837
20
6.27112
10
16.48476
20
6.17920
10
16.58250
20
6.09050
10
16.68159
20
6.00513
10
16.78203
20
5.92316
10
16.88380
20
5.84468
10
16.98689
20
5.76980
10
17.09130
20
5.69859
10
17.19701
20
5.63115
10
17.30402
20
5.56757
10
17.41231
20
5.50794
10
17.52189
20
5.45234
10
17.63273
20
5.40087
10
17.74484
20
5.35362
10
17.85820
20
5.31067
10
17.97280
20
5.27212
10
18.08863
20
5.23806
10
18.20569
20
5.20858
10
18.32396
20
5.18376
10
18.44344
20
5.16370
10
18.56412
20
5.14849
10
18.68599
20
5.13822
10
18.80904
20
5.13297
10
18.93325
20
5.13284
10
19.05863
20
5.13792
10
19.18517
20
5.14830
10
19.31284
20
5.16406
10
19.44165
20
5.18531
10
19.57159
20
5.21211
10
19.70265
20
5.24458
10
19.83481
20
5.28279
10
19.96807
20
5.32684
10
20.10242
20
5.37682
10
20.23785
20
5.43282
10
20.37436
20
5.49492
10
20.51192
20
5.56322
10
20.65054
20
5.63781
10
20.79021
20
5.71878
10
20.93091
20
5.80621
10
21.07264
20
5.90021
10
21.21539
20
6.00084
10
21.35914
20
6.10822
10
21.50390
20
6.22243
10
21.64965
20
6.34355
10
21.79638
20
6.47168
10
21.94029
20
6.60339
10
22.07765
20
6.73518
10
22.20853
20
6.86702
10
22.33301
20
6.99891
10
22.45118
20
7.13080
10
22.56311
20
7.26269
10
22.66888
20
7.39455
10
22.76857
20
7.52635
10
22.86226
20
7.65807
10
22.95003
20
7.78969
10
23.03196
20
7.92119
10
23.10813
20
8.05255
10
23.17862
20
8.18374
10
23.24350
20
8.31474
10
23.30287
20
8.44553
10
23.35679
20
8.57608
10
23.40534
20
8.70638
10
23.44862
20
8.83640
10
23.48668
20
8.96611
10
23.51963
20
9.09550
10
23.54752
20
9.22455
10
23.57045
20
9.35322
10
23.58850
20
9.48150
10
23.60173
20
9.60937
10
23.61024
20
9.73680
10
23.61410
20
9.86377
10
23.61340
20
9.99026
10
23.60820
20
10.11624
10
23.59859
20
10.24170
10
23.58466
20
10.36660
10
23.56647
20
10.49094
10
23.54411
20
10.61468
10
23.51766
20
10.73780
10
23.48719
20
10.86028
10
23.45280
20
10.98210
10
23.41455
20
11.10324
10
23.37253
20
11.22367
10
23.32681
20
11.34337
10
23.27747
20
11.46232
10
23.22461
20
11.58049
10
23.16828
20
11.69787
10
23.10858
20
11.81442
10
23.04558
20
11.93014
10
22.97937
20
12.04499
10
22.91002
20
12.15895
10
22.83760
20
12.27200
10
22.68392
20
12.49529
10
22.51896
20
12.71467
10
22.34336
20
12.92996
10
22.15775
20
13.14098
10
21.96276
20
13.34755
10
21.75904
20
13.54949
10
21.54721
20
13.74663
10
21.32793
20
13.93877
10
21.10181
20
14.12575
10
20.86950
20
14.30738
10
20.63163
20
14.48348
10
20.38885
20
14.65387
10
20.14177
20
14.81838
10
19.89105
20
14.97681
10
19.63731
20
15.12899
10
19.38120
20
15.27475
10
19.12335
20
15.41390
10
18.86438
20
15.54626
10
18.60495
20
15.67165
10
18.34569
20
15.78989
10
18.08723
20
15.90080
10
17.83020
20
16.00421
10
17.57525
20
16.09992
10
17.32301
20
16.18777
10
17.07411
20
16.26756
10
16.82919
20
16.33913
10
16.58890
20
16.40229
10
16.35385
20
16.45686
10
16.12470
20
16.50266
10
15.90206
20
16.53952
10
15.68659
20
16.56724
10
15.47892
20
16.58565
10
15.27968
20
16.59458
10
15.08951
20
16.59383
10
14.90904
20
16.58324
10
14.73891
20
16.56262
10
14.65792
20
16.54849
10
14.57976
20
16.53179
10
14.50450
20
16.51249
10
14.43222
20
16.49057
10
14.36300
20
16.46601
10
14.29693
20
16.43878
10
14.23408
20
16.40887
10
14.17452
20
16.37624
10
14.11835
20
16.34089
10
14.06563
20
16.30278
0
LWPOLYLINE
8
INSIDE_Engrave
90
129
70
1
10
8.82884
20
21.84505
10
8.70020
20
21.84126
10
8.57324
20
21.83004
10
8.44814
20
21.81156
10
8.32504
20
21.78599
10
8.20410
20
21.75354
10
8.08548
20
21.71437
10
7.96933
20
21.66868
10
7.85581
20
21.61663
10
7.74509
20
21.55843
10
7.63731
20
21.49424
10
7.53264
20
21.42426
10
7.43122
20
21.34866
10
7.33322
20
21.26763
10
7.23880
20
21.18135
10
7.14811
20
21.09000
10
7.06130
20
20.99377
10
6.97854
20
20.89284
10
6.89998
20
20.78738
10
6.82578
20
20.67760
10
6.75610
20
20.56366
10
6.69109
20
20.44575
10
6.63091
20
20.32405
10
6.57571
20
20.19874
10
6.52566
20
20.07002
10
6.48091
20
19.93805
10
6.44162
20
19.80303
10
6.40794
20
19.66513
10
6.38003
20
19.52455
10
6.35805
20
19.38145
10
6.34216
20
19.23603
10
6.33251
20
19.08846
10
6.32925
20
18.93894
10
6.33251
20
18.78942
10
6.34216
20
18.64187
10
6.35805
20
18.49646
10
6.38003
20
18.35338
10
6.40794
20
18.21281
10
6.44162
20
18.07493
10
6.48091
20
17.93993
10
6.52566
20
17.80798
10
6.57571
20
17.67928
10
6.63091
20
17.55399
10
6.69109
20
17.43231
10
6.75610
20
17.31443
10
6.82578
20
17.20051
10
6.89998
20
17.09074
10
6.97854
20
16.98531
10
7.06130
20
16.88440
10
7.14811
20
16.78819
10
7.23880
20
16.69686
10
7.33322
20
16.61060
10
7.43122
20
16.52959
10
7.53264
20
16.45401
10
7.63731
20
16.38405
10
7.74509
20
16.31988
10
7.85581
20
16.26169
10
7.96933
20
16.20966
10
8.08548
20
16.16398
10
8.20410
20
16.12482
10
8.32504
20
16.09238
10
8.44814
20
16.06682
10
8.57324
20
16.04835
10
8.70020
20
16.03712
10
8.82884
20
16.03334
10
8.95748
20
16.03712
10
9.08443
20
16.04835
10
9.20953
20
16.06682
10
9.33263
20
16.09238
10
9.45357
20
16.12482
10
9.57219
20
16.16398
10
9.68833
20
16.20966
10
9.80184
20
16.26169
10
9.91257
20
16.31988
10
10.02034
20
16.38405
10
10.12502
20
16.45401
10
10.22643
20
16.52959
10
10.32443
20
16.61060
10
10.41885
20
16.69686
10
10.50954
20
16.78819
10
10.59635
20
16.88440
10
10.67911
20
16.98531
10
10.75766
20
17.09074
10
10.83186
20
17.20051
10
10.90155
20
17.31443
10
10.96656
20
17.43231
10
11.02674
20
17.55399
10
11.08193
20
17.67928
10
11.13198
20
17.80798
10
11.17673
20
17.93993
10
11.21603
20
18.07493
10
11.24970
20
18.21281
10
11.27761
20
18.35338
10
11.29959
20
18.49646
10
11.31548
20
18.64187
10
11.32514
20
18.78942
10
11.32839
20
18.93894
10
11.32514
20
19.08846
10
11.31548
20
19.23603
10
11.29959
20
19.38145
10
11.27761
20
19.52455
10
11.24970
20
19.66513
10
11.21603
20
19.80303
10
11.17673
20
19.93805
10
11.13198
20
20.07002
10
11.08193
20
20.19874
10
11.02674
20
20.32405
10
10.96656
20
20.44575
10
10.90155
20
20.56366
10
10.83186
20
20.67760
10
10.75766
20
20.78738
10
10.67911
20
20.89284
10
10.59635
20
20.99377
10
10.50954
20
21.09000
10
10.41885
20
21.18135
10
10.32443
20
21.26763
10
10.22643
20
21.34866
10
10.12502
20
21.42426
10
10.02034
20
21.49424
10
9.91257
20
21.55843
10
9.80184
20
21.61663
10
9.68833
20
21.66868
10
9.57219
20
21.71437
10
9.45357
20
21.75354
10
9.33263
20
21.78599
10
9.20953
20
21.81156
10
9.08443
20
21.83004
10
8.95748
20
21.84126
10
8.82884
20
21.84505
0
LWPOLYLINE
8
INSIDE_Engrave
90
78
70
0
10
8.93360
20
5.58624
10
9.21125
20
5.46218
10
9.49275
20
5.34319
10
9.77799
20
5.22928
10
10.06688
20
5.12044
10
10.35935
20
5.01667
10
10.65529
20
4.91799
10
10.95462
20
4.82438
10
11.25725
20
4.73585
10
11.56309
20
4.65241
10
11.87205
20
4.57404
10
12.18404
20
4.50076
10
12.49897
20
4.43257
10
12.81676
20
4.36946
10
13.13731
20
4.31143
10
13.46053
20
4.25850
10
13.78633
20
4.21065
10
14.11463
20
4.16790
10
14.44533
20
4.13024
10
14.77835
20
4.09767
10
15.11360
20
4.07020
10
15.45098
20
4.04782
10
15.79041
20
4.03054
10
16.13180
20
4.01836
10
16.47505
20
4.01128
10
16.82009
20
4.00930
10
17.16681
20
4.01242
10
17.51514
20
4.02064
10
17.86498
20
4.03397
10
18.21623
20
4.05241
10
18.56882
20
4.07595
10
18.92265
20
4.10461
10
19.27764
20
4.13837
10
19.63369
20
4.17724
10
19.99071
20
4.22122
10
20.34862
20
4.27032
10
20.70732
20
4.32454
10
21.06673
20
4.38387
10
21.42676
20
4.44831
10
21.78731
20
4.51788
10
22.14830
20
4.59256
10
22.50964
20
4.67237
10
22.87124
20
4.75730
10
23.23300
20
4.84735
10
23.59485
20
4.94253
10
23.95669
20
5.04283
10
24.31843
20
5.14826
10
24.67998
20
5.25882
10
25.04125
20
5.37451
10
25.40216
20
5.49533
10
25.76261
20
5.62128
10
26.12251
20
5.75237
10
26.48178
20
5.88859
10
26.84032
20
6.02995
10
27.19805
20
6.17644
10
27.55488
20
6.32807
10
27.91071
20
6.48485
10
28.26546
20
6.64676
10
28.61904
20
6.81382
10
28.97136
20
6.98602
10
29.32233
20
7.16336
10
29.67186
20
7.34585
10
30.01985
20
7.53349
10
30.36623
20
7.72628
10
30.71090
20
7.92422
10
31.19164
20
8.21090
10
31.69065
20
8.52147
10
32.20373
20
8.85440
10
32.46423
20
9.02877
10
32.72667
20
9.20817
10
32.99054
20
9.39240
10
33.25529
20
9.58126
10
33.52041
20
9.77458
10
33.78537
20
9.97215
10
34.04965
20
10.17380
10
34.31272
20
10.37932
10
34.57406
20
10.58854
10
34.83315
20
10.80125
0
ENDSEC
0
EOF