  0
SECTION
  2
HEADER
  9
$ACADVER
  1
AC1009
  9
$DWGCODEPAGE
  3
ansi_1252
  9
$INSBASE
 10
0.0
 20
0.0
 30
0.0
  9
$EXTMIN
 10
0.0
 20
1.387867206255794
 30
0.0
  9
$EXTMAX
 10
3.54003920732759
 20
93.58998027233062
 30
0.0
  9
$LIMMIN
 10
0.0
 20
0.0
  9
$LIMMAX
 10
12.0
 20
9.0
  9
$ORTHOMODE
 70
     0
  9
$REGENMODE
 70
     1
  9
$FILLMODE
 70
     1
  9
$QTEXTMODE
 70
     0
  9
$MIRRTEXT
 70
     1
  9
$DRAGMODE
 70
     2
  9
$LTSCALE
 40
1.0
  9
$OSMODE
 70
    37
  9
$ATTMODE
 70
     1
  9
$TEXTSIZE
 40
0.2
  9
$TRACEWID
 40
0.05
  9
$TEXTSTYLE
  7
STANDARD
  9
$CLAYER
  8
0
  9
$CELTYPE
  6
BYLAYER
  9
$CECOLOR
 62
   256
  9
$DIMSCALE
 40
1.0
  9
$DIMASZ
 40
0.18
  9
$DIMEXO
 40
0.0625
  9
$DIMDLI
 40
0.38
  9
$DIMRND
 40
0.0
  9
$DIMDLE
 40
0.0
  9
$DIMEXE
 40
0.18
  9
$DIMTP
 40
0.0
  9
$DIMTM
 40
0.0
  9
$DIMTXT
 40
0.18
  9
$DIMCEN
 40
0.09
  9
$DIMTSZ
 40
0.0
  9
$DIMTOL
 70
     0
  9
$DIMLIM
 70
     0
  9
$DIMTIH
 70
     1
  9
$DIMTOH
 70
     1
  9
$DIMSE1
 70
     0
  9
$DIMSE2
 70
     0
  9
$DIMTAD
 70
     0
  9
$DIMZIN
 70
     0
  9
$DIMBLK
  1

  9
$DIMASO
 70
     1
  9
$DIMSHO
 70
     1
  9
$DIMPOST
  1

  9
$DIMAPOST
  1

  9
$DIMALT
 70
     0
  9
$DIMALTD
 70
     2
  9
$DIMALTF
 40
25.4
  9
$DIMLFAC
 40
1.0
  9
$DIMTOFL
 70
     0
  9
$DIMTVP
 40
0.0
  9
$DIMTIX
 70
     0
  9
$DIMSOXD
 70
     0
  9
$DIMSAH
 70
     0
  9
$DIMBLK1
  1

  9
$DIMBLK2
  1

  9
$DIMSTYLE
  2
STANDARD
  9
$DIMCLRD
 70
     0
  9
$DIMCLRE
 70
     0
  9
$DIMCLRT
 70
     0
  9
$DIMTFAC
 40
1.0
  9
$DIMGAP
 40
0.09
  9
$LUNITS
 70
     2
  9
$LUPREC
 70
     4
  9
$SKETCHINC
 40
0.1
  9
$FILLETRAD
 40
0.5
  9
$AUNITS
 70
     0
  9
$AUPREC
 70
     0
  9
$MENU
  1
.
  9
$ELEVATION
 40
0.0
  9
$PELEVATION
 40
0.0
  9
$THICKNESS
 40
0.0
  9
$LIMCHECK
 70
     0
  9
$CHAMFERA
 40
0.0
  9
$CHAMFERB
 40
0.0
  9
$SKPOLY
 70
     0
  9
$TDCREATE
 40
2454910.5
  9
$TDUPDATE
 40
2461252.036318298
  9
$TDINDWG
 40
0.0000000116
  9
$TDUSRTIMER
 40
0.0000000116
  9
$USRTIMER
 70
     1
  9
$ANGBASE
 50
0.0
  9
$ANGDIR
 70
     0
  9
$PDMODE
 70
     0
  9
$PDSIZE
 40
0.0
  9
$PLINEWID
 40
0.0
  9
$COORDS
 70
     1
  9
$SPLFRAME
 70
     0
  9
$SPLINETYPE
 70
     6
  9
$SPLINESEGS
 70
     8
  9
$ATTDIA
 70
     0
  9
$ATTREQ
 70
     1
  9
$HANDLING
 70
     1
  9
$HANDSEED
  5
77E
  9
$SURFTAB1
 70
     6
  9
$SURFTAB2
 70
     6
  9
$SURFTYPE
 70
     6
  9
$SURFU
 70
     6
  9
$SURFV
 70
     6
  9
$UCSNAME
  2

  9
$UCSORG
 10
0.0
 20
0.0
 30
0.0
  9
$UCSXDIR
 10
1.0
 20
0.0
 30
0.0
  9
$UCSYDIR
 10
0.0
 20
1.0
 30
0.0
  9
$PUCSNAME
  2

  9
$PUCSORG
 10
0.0
 20
0.0
 30
0.0
  9
$PUCSXDIR
 10
1.0
 20
0.0
 30
0.0
  9
$PUCSYDIR
 10
0.0
 20
1.0
 30
0.0
  9
$USERI1
 70
     0
  9
$USERI2
 70
     0
  9
$USERI3
 70
     0
  9
$USERI4
 70
     0
  9
$USERI5
 70
     0
  9
$USERR1
 40
0.0
  9
$USERR2
 40
0.0
  9
$USERR3
 40
0.0
  9
$USERR4
 40
0.0
  9
$USERR5
 40
0.0
  9
$WORLDVIEW
 70
     1
  9
$SHADEDGE
 70
     3
  9
$SHADEDIF
 70
    70
  9
$TILEMODE
 70
     1
  9
$MAXACTVP
 70
    64
  9
$PLIMCHECK
 70
     0
  9
$PEXTMIN
 10
1.000000000000000E+20
 20
1.000000000000000E+20
 30
1.000000000000000E+20
  9
$PEXTMAX
 10
-1.000000000000000E+20
 20
-1.000000000000000E+20
 30
-1.000000000000000E+20
  9
$PLIMMIN
 10
0.0
 20
0.0
  9
$PLIMMAX
 10
12.0
 20
9.0
  9
$UNITMODE
 70
     0
  9
$VISRETAIN
 70
     1
  9
$PLINEGEN
 70
     0
  9
$PSLTSCALE
 70
     1
  0
ENDSEC
  0
SECTION
  2
TABLES
  0
TABLE
  2
VPORT
 70
     1
  0
VPORT
  2
*ACTIVE
 70
     0
 10
0.0
 20
0.0
 11
1.0
 21
1.0
 12
10.42990654205607
 22
4.5
 13
0.0
 23
0.0
 14
0.5
 24
0.5
 15
0.5
 25
0.5
 16
0.0
 26
0.0
 36
1.0
 17
0.0
 27
0.0
 37
0.0
 40
9.0
 41
1.972972972850329
 42
50.0
 43
0.0
 44
0.0
 50
0.0
 51
0.0
 71
     0
 72
   100
 73
     1
 74
     3
 75
     0
 76
     0
 77
     0
 78
     0
  0
ENDTAB
  0
TABLE
  2
LTYPE
 70
     2
  0
LTYPE
  2
CONTINUOUS
 70
     0
  3
Solid line
 72
    65
 73
     0
 40
0.0
  0
LTYPE
  2
CONTINUOUS2
 70
     0
  3
Solid Line
 72
    65
 73
     0
 40
0.0
  0
ENDTAB
  0
TABLE
  2
LAYER
 70
     8
  0
LAYER
  2
0
 70
     0
 62
     7
  6
CONTINUOUS
  0
LAYER
  2
T8_DRILL
 70
     0
 62
    18
  6
CONTINUOUS
  0
LAYER
  2
T3_PROFILE_INSIDE
 70
     0
 62
    18
  6
CONTINUOUS
  0
LAYER
  2
T5_BEVEL_0_1
 70
     0
 62
    18
  6
CONTINUOUS
  0
LAYER
  2
T9_COUNTERSINK_0_1
 70
     0
 62
    18
  6
CONTINUOUS
  0
LAYER
  2
T9-T3_POCKET
 70
     0
 62
    18
  6
CONTINUOUS
  0
LAYER
  2
T3_PROFILE_INSIDE_2
 70
     0
 62
    18
  6
CONTINUOUS
  0
LAYER
  2
T9_COUNTERSINK_0_6
 70
     0
 62
    18
  6
CONTINUOUS
  0
ENDTAB
  0
TABLE
  2
STYLE
 70
     1
  0
STYLE
  2
STANDARD
 70
     0
 40
0.0
 41
1.0
 50
0.0
 71
     0
 42
0.2
  3
txt
  4

  0
ENDTAB
  0
TABLE
  2
VIEW
 70
     0
  0
ENDTAB
  0
TABLE
  2
UCS
 70
     0
  0
ENDTAB
  0
TABLE
  2
APPID
 70
     1
  0
APPID
  2
ACAD
 70
     0
  0
ENDTAB
  0
TABLE
  2
DIMSTYLE
 70
     1
  0
DIMSTYLE
  2
STANDARD
 70
     0
  3

  4

  5

  6

  7

 40
1.0
 41
0.18
 42
0.0625
 43
0.38
 44
0.18
 45
0.0
 46
0.0
 47
0.0
 48
0.0
140
0.18
141
0.09
142
0.0
143
25.4
144
1.0
145
0.0
146
1.0
147
0.09
 71
     0
 72
     0
 73
     1
 74
     1
 75
     0
 76
     0
 77
     0
 78
     0
170
     0
171
     2
172
     0
173
     0
174
     0
175
     0
176
     0
177
     0
178
     0
  0
ENDTAB
  0
ENDSEC
  0
SECTION
  2
BLOCKS
  0
BLOCK
  8
0
  2
$MODEL_SPACE
 70
     0
 10
0.0
 20
0.0
 30
0.0
  3
$MODEL_SPACE
  1

  0
ENDBLK
  5
21
  8
0
  0
BLOCK
 67
     1
  8
0
  2
$PAPER_SPACE
 70
     0
 10
0.0
 20
0.0
 30
0.0
  3
$PAPER_SPACE
  1

  0
ENDBLK
  5
1D
 67
     1
  8
0
  0
ENDSEC
  0
SECTION
  2
ENTITIES
  0
POLYLINE
  5
70
  8
T8_DRILL
 66
     1
 10
0.0
 20
0.0
 30
0.0
 70
     1
  0
VERTEX
  5
94
  8
T8_DRILL
 10
2.812673818372105
 20
90.91787357879481
 30
0.0
  0
VERTEX
  5
95
  8
T8_DRILL
 10
2.812429761231512
 20
90.90822466544816
 30
0.0
  0
VERTEX
  5
96
  8
T8_DRILL
 10
2.811705623071375
 20
90.89870244519133
 30
0.0
  0
VERTEX
  5
97
  8
T8_DRILL
 10
2.810513183786052
 20
90.88931869770028
 30
0.0
  0
VERTEX
  5
98
  8
T8_DRILL
 10
2.808864223269901
 20
90.88008520265099
 30
0.0
  0
VERTEX
  5
99
  8
T8_DRILL
 10
2.80677052141728
 20
90.87101373971939
 30
0.0
  0
VERTEX
  5
9A
  8
T8_DRILL
 10
2.804243858122547
 20
90.86211608858143
 30
0.0
  0
VERTEX
  5
9B
  8
T8_DRILL
 10
2.80129601328006
 20
90.85340402891308
 30
0.0
  0
VERTEX
  5
9C
  8
T8_DRILL
 10
2.797938766784178
 20
90.84488934039027
 30
0.0
  0
VERTEX
  5
9D
  8
T8_DRILL
 10
2.794183898529258
 20
90.83658380268898
 30
0.0
  0
VERTEX
  5
9E
  8
T8_DRILL
 10
2.790043188409657
 20
90.82849919548514
 30
0.0
  0
VERTEX
  5
9F
  8
T8_DRILL
 10
2.785528416319735
 20
90.8206472984547
 30
0.0
  0
VERTEX
  5
A0
  8
T8_DRILL
 10
2.78065136215385
 20
90.81303989127365
 30
0.0
  0
VERTEX
  5
A1
  8
T8_DRILL
 10
2.775423805806359
 20
90.80568875361791
 30
0.0
  0
VERTEX
  5
A2
  8
T8_DRILL
 10
2.76985752717162
 20
90.79860566516345
 30
0.0
  0
VERTEX
  5
A3
  8
T8_DRILL
 10
2.763964306143992
 20
90.79180240558622
 30
0.0
  0
VERTEX
  5
A4
  8
T8_DRILL
 10
2.757755922617832
 20
90.78529075456217
 30
0.0
  0
VERTEX
  5
A5
  8
T8_DRILL
 10
2.751244156487499
 20
90.77908249176724
 30
0.0
  0
VERTEX
  5
A6
  8
T8_DRILL
 10
2.744440787647351
 20
90.7731893968774
 30
0.0
  0
VERTEX
  5
A7
  8
T8_DRILL
 10
2.737357595991745
 20
90.7676232495686
 30
0.0
  0
VERTEX
  5
A8
  8
T8_DRILL
 10
2.73000636141504
 20
90.76239582951682
 30
0.0
  0
VERTEX
  5
A9
  8
T8_DRILL
 10
2.722398863811594
 20
90.75751891639797
 30
0.0
  0
VERTEX
  5
AA
  8
T8_DRILL
 10
2.714546883075765
 20
90.75300428988803
 30
0.0
  0
VERTEX
  5
AB
  8
T8_DRILL
 10
2.706462199101911
 20
90.74886372966293
 30
0.0
  0
VERTEX
  5
AC
  8
T8_DRILL
 10
2.698156591784389
 20
90.74510901539864
 30
0.0
  0
VERTEX
  5
AD
  8
T8_DRILL
 10
2.68964184101756
 20
90.74175192677112
 30
0.0
  0
VERTEX
  5
AE
  8
T8_DRILL
 10
2.680929726695778
 20
90.73880424345629
 30
0.0
  0
VERTEX
  5
AF
  8
T8_DRILL
 10
2.672032028713404
 20
90.73627774513015
 30
0.0
  0
VERTEX
  5
B0
  8
T8_DRILL
 10
2.662960526964794
 20
90.73418421146862
 30
0.0
  0
VERTEX
  5
B1
  8
T8_DRILL
 10
2.653727001344309
 20
90.73253542214766
 30
0.0
  0
VERTEX
  5
B2
  8
T8_DRILL
 10
2.644343231746304
 20
90.73134315684322
 30
0.0
  0
VERTEX
  5
B3
  8
T8_DRILL
 10
2.634820998065138
 20
90.73061919523127
 30
0.0
  0
VERTEX
  5
B4
  8
T8_DRILL
 10
2.625172080195171
 20
90.73037531698778
 30
0.0
  0
VERTEX
  5
B5
  8
T8_DRILL
 10
2.615523166848519
 20
90.73061937412837
 30
0.0
  0
VERTEX
  5
B6
  8
T8_DRILL
 10
2.6060009465917
 20
90.73134351228848
 30
0.0
  0
VERTEX
  5
B7
  8
T8_DRILL
 10
2.596617199100667
 20
90.7325359515738
 30
0.0
  0
VERTEX
  5
B8
  8
T8_DRILL
 10
2.587383704051374
 20
90.73418491208993
 30
0.0
  0
VERTEX
  5
B9
  8
T8_DRILL
 10
2.578312241119773
 20
90.73627861394255
 30
0.0
  0
VERTEX
  5
BA
  8
T8_DRILL
 10
2.569414589981818
 20
90.73880527723725
 30
0.0
  0
VERTEX
  5
BB
  8
T8_DRILL
 10
2.560702530313464
 20
90.74175312207973
 30
0.0
  0
VERTEX
  5
BC
  8
T8_DRILL
 10
2.552187841790662
 20
90.74511036857561
 30
0.0
  0
VERTEX
  5
BD
  8
T8_DRILL
 10
2.543882304089367
 20
90.74886523683053
 30
0.0
  0
VERTEX
  5
BE
  8
T8_DRILL
 10
2.535797696885532
 20
90.75300594695013
 30
0.0
  0
VERTEX
  5
BF
  8
T8_DRILL
 10
2.52794579985511
 20
90.75752071904004
 30
0.0
  0
VERTEX
  5
C0
  8
T8_DRILL
 10
2.520338392674055
 20
90.76239777320592
 30
0.0
  0
VERTEX
  5
C1
  8
T8_DRILL
 10
2.51298725501832
 20
90.7676253295534
 30
0.0
  0
VERTEX
  5
C2
  8
T8_DRILL
 10
2.505904166563859
 20
90.77319160818816
 30
0.0
  0
VERTEX
  5
C3
  8
T8_DRILL
 10
2.499100906986625
 20
90.77908482921579
 30
0.0
  0
VERTEX
  5
C4
  8
T8_DRILL
 10
2.492589255962571
 20
90.78529321274195
 30
0.0
  0
VERTEX
  5
C5
  8
T8_DRILL
 10
2.486380993167651
 20
90.79180497887228
 30
0.0
  0
VERTEX
  5
C6
  8
T8_DRILL
 10
2.480487898277818
 20
90.79860834771243
 30
0.0
  0
VERTEX
  5
C7
  8
T8_DRILL
 10
2.474921750969027
 20
90.80569153936804
 30
0.0
  0
VERTEX
  5
C8
  8
T8_DRILL
 10
2.469694330917229
 20
90.81304277394474
 30
0.0
  0
VERTEX
  5
C9
  8
T8_DRILL
 10
2.464817417798379
 20
90.8206502715482
 30
0.0
  0
VERTEX
  5
CA
  8
T8_DRILL
 10
2.46030279128843
 20
90.82850225228404
 30
0.0
  0
VERTEX
  5
CB
  8
T8_DRILL
 10
2.456162231063336
 20
90.8365869362579
 30
0.0
  0
VERTEX
  5
CC
  8
T8_DRILL
 10
2.452407516799049
 20
90.84489254357541
 30
0.0
  0
VERTEX
  5
CD
  8
T8_DRILL
 10
2.449050428171523
 20
90.85340729434225
 30
0.0
  0
VERTEX
  5
CE
  8
T8_DRILL
 10
2.446102744856713
 20
90.86211940866403
 30
0.0
  0
VERTEX
  5
CF
  8
T8_DRILL
 10
2.44357624653057
 20
90.8710171066464
 30
0.0
  0
VERTEX
  5
D0
  8
T8_DRILL
 10
2.441482712869049
 20
90.88008860839503
 30
0.0
  0
VERTEX
  5
D1
  8
T8_DRILL
 10
2.439833923548103
 20
90.88932213401552
 30
0.0
  0
VERTEX
  5
D2
  8
T8_DRILL
 10
2.438641658243685
 20
90.89870590361352
 30
0.0
  0
VERTEX
  5
D3
  8
T8_DRILL
 10
2.437917696631749
 20
90.90822813729469
 30
0.0
  0
VERTEX
  5
D4
  8
T8_DRILL
 10
2.437673818388248
 20
90.91787705516465
 30
0.0
  0
VERTEX
  5
D5
  8
T8_DRILL
 10
2.43791787552882
 20
90.9275259685113
 30
0.0
  0
VERTEX
  5
D6
  8
T8_DRILL
 10
2.438642013688938
 20
90.93704818876812
 30
0.0
  0
VERTEX
  5
D7
  8
T8_DRILL
 10
2.439834452974242
 20
90.94643193625915
 30
0.0
  0
VERTEX
  5
D8
  8
T8_DRILL
 10
2.441483413490376
 20
90.95566543130843
 30
0.0
  0
VERTEX
  5
D9
  8
T8_DRILL
 10
2.443577115342982
 20
90.96473689424005
 30
0.0
  0
VERTEX
  5
DA
  8
T8_DRILL
 10
2.4461037786377
 20
90.97363454537799
 30
0.0
  0
VERTEX
  5
DB
  8
T8_DRILL
 10
2.449051623480173
 20
90.98234660504636
 30
0.0
  0
VERTEX
  5
DC
  8
T8_DRILL
 10
2.452408869976043
 20
90.99086129356915
 30
0.0
  0
VERTEX
  5
DD
  8
T8_DRILL
 10
2.456163738230952
 20
90.99916683127046
 30
0.0
  0
VERTEX
  5
DE
  8
T8_DRILL
 10
2.460304448350542
 20
91.00725143847428
 30
0.0
  0
VERTEX
  5
DF
  8
T8_DRILL
 10
2.464819220440454
 20
91.0151033355047
 30
0.0
  0
VERTEX
  5
E0
  8
T8_DRILL
 10
2.469696274606331
 20
91.02271074268576
 30
0.0
  0
VERTEX
  5
E1
  8
T8_DRILL
 10
2.474923830953814
 20
91.03006188034149
 30
0.0
  0
VERTEX
  5
E2
  8
T8_DRILL
 10
2.480490109588546
 20
91.03714496879596
 30
0.0
  0
VERTEX
  5
E3
  8
T8_DRILL
 10
2.486383330616167
 20
91.04394822837318
 30
0.0
  0
VERTEX
  5
E4
  8
T8_DRILL
 10
2.492591714142321
 20
91.05045987939724
 30
0.0
  0
VERTEX
  5
E5
  8
T8_DRILL
 10
2.499103480272649
 20
91.05666814219217
 30
0.0
  0
VERTEX
  5
E6
  8
T8_DRILL
 10
2.505906849112793
 20
91.06256123708201
 30
0.0
  0
VERTEX
  5
E7
  8
T8_DRILL
 10
2.512990040768395
 20
91.0681273843908
 30
0.0
  0
VERTEX
  5
E8
  8
T8_DRILL
 10
2.520341275345097
 20
91.07335480444259
 30
0.0
  0
VERTEX
  5
E9
  8
T8_DRILL
 10
2.52794877294854
 20
91.07823171756144
 30
0.0
  0
VERTEX
  5
EA
  8
T8_DRILL
 10
2.535800753684367
 20
91.08274634407138
 30
0.0
  0
VERTEX
  5
EB
  8
T8_DRILL
 10
2.543885437658219
 20
91.08688690429648
 30
0.0
  0
VERTEX
  5
EC
  8
T8_DRILL
 10
2.552191044975739
 20
91.09064161856077
 30
0.0
  0
VERTEX
  5
ED
  8
T8_DRILL
 10
2.560705795742569
 20
91.09399870718829
 30
0.0
  0
VERTEX
  5
EE
  8
T8_DRILL
 10
2.569417910064349
 20
91.09694639050312
 30
0.0
  0
VERTEX
  5
EF
  8
T8_DRILL
 10
2.578315608046722
 20
91.09947288882925
 30
0.0
  0
VERTEX
  5
F0
  8
T8_DRILL
 10
2.587387109795331
 20
91.10156642249079
 30
0.0
  0
VERTEX
  5
F1
  8
T8_DRILL
 10
2.596620635415817
 20
91.10321521181174
 30
0.0
  0
VERTEX
  5
F2
  8
T8_DRILL
 10
2.606004405013821
 20
91.10440747711618
 30
0.0
  0
VERTEX
  5
F3
  8
T8_DRILL
 10
2.615526638694987
 20
91.10513143872814
 30
0.0
  0
VERTEX
  5
F4
  8
T8_DRILL
 10
2.625175556564955
 20
91.10537531697163
 30
0.0
  0
VERTEX
  5
F5
  8
T8_DRILL
 10
2.634824469911606
 20
91.10513125983104
 30
0.0
  0
VERTEX
  5
F6
  8
T8_DRILL
 10
2.644346690168425
 20
91.10440712167093
 30
0.0
  0
VERTEX
  5
F7
  8
T8_DRILL
 10
2.653730437659458
 20
91.10321468238561
 30
0.0
  0
VERTEX
  5
F8
  8
T8_DRILL
 10
2.662963932708752
 20
91.10156572186948
 30
0.0
  0
VERTEX
  5
F9
  8
T8_DRILL
 10
2.672035395640353
 20
91.09947202001686
 30
0.0
  0
VERTEX
  5
FA
  8
T8_DRILL
 10
2.680933046778308
 20
91.09694535672216
 30
0.0
  0
VERTEX
  5
FB
  8
T8_DRILL
 10
2.689645106446664
 20
91.09399751187968
 30
0.0
  0
VERTEX
  5
FC
  8
T8_DRILL
 10
2.698159794969467
 20
91.0906402653838
 30
0.0
  0
VERTEX
  5
FD
  8
T8_DRILL
 10
2.706465332670764
 20
91.08688539712888
 30
0.0
  0
VERTEX
  5
FE
  8
T8_DRILL
 10
2.714549939874601
 20
91.08274468700928
 30
0.0
  0
VERTEX
  5
FF
  8
T8_DRILL
 10
2.722401836905025
 20
91.07822991491936
 30
0.0
  0
VERTEX
  5
100
  8
T8_DRILL
 10
2.730009244086082
 20
91.07335286075349
 30
0.0
  0
VERTEX
  5
101
  8
T8_DRILL
 10
2.73736038174182
 20
91.06812530440601
 30
0.0
  0
VERTEX
  5
102
  8
T8_DRILL
 10
2.744443470196285
 20
91.06255902577125
 30
0.0
  0
VERTEX
  5
103
  8
T8_DRILL
 10
2.751246729773524
 20
91.05666580474362
 30
0.0
  0
VERTEX
  5
104
  8
T8_DRILL
 10
2.757758380797583
 20
91.05045742121746
 30
0.0
  0
VERTEX
  5
105
  8
T8_DRILL
 10
2.763966643592508
 20
91.04394565508713
 30
0.0
  0
VERTEX
  5
106
  8
T8_DRILL
 10
2.769859738482347
 20
91.03714228624699
 30
0.0
  0
VERTEX
  5
107
  8
T8_DRILL
 10
2.775425885791146
 20
91.0300590945914
 30
0.0
  0
VERTEX
  5
108
  8
T8_DRILL
 10
2.780653305842951
 20
91.02270786001468
 30
0.0
  0
VERTEX
  5
109
  8
T8_DRILL
 10
2.78553021896181
 20
91.01510036241122
 30
0.0
  0
VERTEX
  5
10A
  8
T8_DRILL
 10
2.790044845471769
 20
91.0072483816754
 30
0.0
  0
VERTEX
  5
10B
  8
T8_DRILL
 10
2.794185405696874
 20
90.99916369770153
 30
0.0
  0
VERTEX
  5
10C
  8
T8_DRILL
 10
2.797940119961172
 20
90.99085809038402
 30
0.0
  0
VERTEX
  5
10D
  8
T8_DRILL
 10
2.80129720858871
 20
90.98234333961719
 30
0.0
  0
VERTEX
  5
10E
  8
T8_DRILL
 10
2.804244891903534
 20
90.9736312252954
 30
0.0
  0
VERTEX
  5
10F
  8
T8_DRILL
 10
2.806771390229692
 20
90.96473352731303
 30
0.0
  0
VERTEX
  5
110
  8
T8_DRILL
 10
2.808864923891229
 20
90.95566202556442
 30
0.0
  0
VERTEX
  5
111
  8
T8_DRILL
 10
2.810513713212192
 20
90.94642849994395
 30
0.0
  0
VERTEX
  5
112
  8
T8_DRILL
 10
2.811705978516628
 20
90.93704473034595
 30
0.0
  0
VERTEX
  5
113
  8
T8_DRILL
 10
2.812429940128583
 20
90.92752249666478
 30
0.0
  0
SEQEND
  5
767
  8
T8_DRILL
  0
POLYLINE
  5
71
  8
T8_DRILL
 66
     1
 10
0.0
 20
0.0
 30
0.0
 70
     1
  0
VERTEX
  5
114
  8
T8_DRILL
 10
1.062688303321693
 20
92.48038980178696
 30
0.0
  0
VERTEX
  5
115
  8
T8_DRILL
 10
1.06244424618112
 20
92.4707408884403
 30
0.0
  0
VERTEX
  5
116
  8
T8_DRILL
 10
1.061720108021001
 20
92.46121866818349
 30
0.0
  0
VERTEX
  5
117
  8
T8_DRILL
 10
1.060527668735693
 20
92.45183492069246
 30
0.0
  0
VERTEX
  5
118
  8
T8_DRILL
 10
1.058878708219555
 20
92.44260142564318
 30
0.0
  0
VERTEX
  5
119
  8
T8_DRILL
 10
1.056785006366944
 20
92.43352996271159
 30
0.0
  0
VERTEX
  5
11A
  8
T8_DRILL
 10
1.05425834307222
 20
92.42463231157363
 30
0.0
  0
VERTEX
  5
11B
  8
T8_DRILL
 10
1.05131049822974
 20
92.41592025190528
 30
0.0
  0
VERTEX
  5
11C
  8
T8_DRILL
 10
1.047953251733862
 20
92.40740556338248
 30
0.0
  0
VERTEX
  5
11D
  8
T8_DRILL
 10
1.044198383478945
 20
92.39910002568118
 30
0.0
  0
VERTEX
  5
11E
  8
T8_DRILL
 10
1.040057673359346
 20
92.39101541847735
 30
0.0
  0
VERTEX
  5
11F
  8
T8_DRILL
 10
1.035542901269424
 20
92.38316352144693
 30
0.0
  0
VERTEX
  5
120
  8
T8_DRILL
 10
1.030665847103538
 20
92.37555611426588
 30
0.0
  0
VERTEX
  5
121
  8
T8_DRILL
 10
1.025438290756045
 20
92.36820497661014
 30
0.0
  0
VERTEX
  5
122
  8
T8_DRILL
 10
1.019872012121303
 20
92.36112188815568
 30
0.0
  0
VERTEX
  5
123
  8
T8_DRILL
 10
1.01397879109367
 20
92.35431862857845
 30
0.0
  0
VERTEX
  5
124
  8
T8_DRILL
 10
1.007770407567506
 20
92.3478069775544
 30
0.0
  0
VERTEX
  5
125
  8
T8_DRILL
 10
1.001258641437167
 20
92.34159871475947
 30
0.0
  0
VERTEX
  5
126
  8
T8_DRILL
 10
0.9944552725970126
 20
92.33570561986963
 30
0.0
  0
VERTEX
  5
127
  8
T8_DRILL
 10
0.9873720809414004
 20
92.33013947256083
 30
0.0
  0
VERTEX
  5
128
  8
T8_DRILL
 10
0.9800208463646887
 20
92.32491205250905
 30
0.0
  0
VERTEX
  5
129
  8
T8_DRILL
 10
0.9724133487612355
 20
92.3200351393902
 30
0.0
  0
VERTEX
  5
12A
  8
T8_DRILL
 10
0.9645613680253993
 20
92.31552051288025
 30
0.0
  0
VERTEX
  5
12B
  8
T8_DRILL
 10
0.956476684051538
 20
92.31137995265513
 30
0.0
  0
VERTEX
  5
12C
  8
T8_DRILL
 10
0.9481710767340097
 20
92.30762523839084
 30
0.0
  0
VERTEX
  5
12D
  8
T8_DRILL
 10
0.9396563259671729
 20
92.30426814976332
 30
0.0
  0
VERTEX
  5
12E
  8
T8_DRILL
 10
0.9309442116453854
 20
92.30132046644849
 30
0.0
  0
VERTEX
  5
12F
  8
T8_DRILL
 10
0.9220465136630058
 20
92.29879396812235
 30
0.0
  0
VERTEX
  5
130
  8
T8_DRILL
 10
0.912975011914392
 20
92.29670043446082
 30
0.0
  0
VERTEX
  5
131
  8
T8_DRILL
 10
0.9037414862939022
 20
92.29505164513986
 30
0.0
  0
VERTEX
  5
132
  8
T8_DRILL
 10
0.8943577166958947
 20
92.29385937983542
 30
0.0
  0
VERTEX
  5
133
  8
T8_DRILL
 10
0.8848354830147275
 20
92.29313541822347
 30
0.0
  0
VERTEX
  5
134
  8
T8_DRILL
 10
0.8751865651447588
 20
92.29289153997998
 30
0.0
  0
VERTEX
  5
135
  8
T8_DRILL
 10
0.8655376517981076
 20
92.29313559712057
 30
0.0
  0
VERTEX
  5
136
  8
T8_DRILL
 10
0.8560154315412896
 20
92.29385973528068
 30
0.0
  0
VERTEX
  5
137
  8
T8_DRILL
 10
0.8466316840502581
 20
92.295052174566
 30
0.0
  0
VERTEX
  5
138
  8
T8_DRILL
 10
0.8373981890009665
 20
92.29670113508213
 30
0.0
  0
VERTEX
  5
139
  8
T8_DRILL
 10
0.8283267260693682
 20
92.29879483693475
 30
0.0
  0
VERTEX
  5
13A
  8
T8_DRILL
 10
0.8194290749314164
 20
92.30132150022945
 30
0.0
  0
VERTEX
  5
13B
  8
T8_DRILL
 10
0.8107170152630647
 20
92.30426934507193
 30
0.0
  0
VERTEX
  5
13C
  8
T8_DRILL
 10
0.8022023267402663
 20
92.30762659156781
 30
0.0
  0
VERTEX
  5
13D
  8
T8_DRILL
 10
0.7938967890389745
 20
92.31138145982273
 30
0.0
  0
VERTEX
  5
13E
  8
T8_DRILL
 10
0.7858121818351429
 20
92.31552216994233
 30
0.0
  0
VERTEX
  5
13F
  8
T8_DRILL
 10
0.7779602848047247
 20
92.32003694203225
 30
0.0
  0
VERTEX
  5
140
  8
T8_DRILL
 10
0.770352877623673
 20
92.32491399619812
 30
0.0
  0
VERTEX
  5
141
  8
T8_DRILL
 10
0.7630017399679416
 20
92.3301415525456
 30
0.0
  0
VERTEX
  5
142
  8
T8_DRILL
 10
0.7559186515134837
 20
92.33570783118036
 30
0.0
  0
VERTEX
  5
143
  8
T8_DRILL
 10
0.7491153919362527
 20
92.34160105220799
 30
0.0
  0
VERTEX
  5
144
  8
T8_DRILL
 10
0.7426037409122017
 20
92.34780943573415
 30
0.0
  0
VERTEX
  5
145
  8
T8_DRILL
 10
0.7363954781172845
 20
92.35432120186448
 30
0.0
  0
VERTEX
  5
146
  8
T8_DRILL
 10
0.730502383227454
 20
92.36112457070463
 30
0.0
  0
VERTEX
  5
147
  8
T8_DRILL
 10
0.724936235918664
 20
92.36820776236024
 30
0.0
  0
VERTEX
  5
148
  8
T8_DRILL
 10
0.7197088158668674
 20
92.37555899693695
 30
0.0
  0
VERTEX
  5
149
  8
T8_DRILL
 10
0.7148319027480179
 20
92.3831664945404
 30
0.0
  0
VERTEX
  5
14A
  8
T8_DRILL
 10
0.7103172762380687
 20
92.39101847527624
 30
0.0
  0
VERTEX
  5
14B
  8
T8_DRILL
 10
0.7061767160129735
 20
92.3991031592501
 30
0.0
  0
VERTEX
  5
14C
  8
T8_DRILL
 10
0.7024220017486851
 20
92.40740876656761
 30
0.0
  0
VERTEX
  5
14D
  8
T8_DRILL
 10
0.6990649131211573
 20
92.41592351733445
 30
0.0
  0
VERTEX
  5
14E
  8
T8_DRILL
 10
0.6961172298063432
 20
92.42463563165623
 30
0.0
  0
VERTEX
  5
14F
  8
T8_DRILL
 10
0.6935907314801961
 20
92.4335333296386
 30
0.0
  0
VERTEX
  5
150
  8
T8_DRILL
 10
0.6914971978186697
 20
92.44260483138723
 30
0.0
  0
VERTEX
  5
151
  8
T8_DRILL
 10
0.6898484084977172
 20
92.45183835700772
 30
0.0
  0
VERTEX
  5
152
  8
T8_DRILL
 10
0.6886561431932918
 20
92.46122212660572
 30
0.0
  0
VERTEX
  5
153
  8
T8_DRILL
 10
0.6879321815813471
 20
92.47074436028689
 30
0.0
  0
VERTEX
  5
154
  8
T8_DRILL
 10
0.6876883033378363
 20
92.48039327815685
 30
0.0
  0
VERTEX
  5
155
  8
T8_DRILL
 10
0.6879323604784089
 20
92.4900421915035
 30
0.0
  0
VERTEX
  5
156
  8
T8_DRILL
 10
0.6886564986385283
 20
92.49956441176032
 30
0.0
  0
VERTEX
  5
157
  8
T8_DRILL
 10
0.6898489379238361
 20
92.50894815925135
 30
0.0
  0
VERTEX
  5
158
  8
T8_DRILL
 10
0.691497898439974
 20
92.51818165430063
 30
0.0
  0
VERTEX
  5
159
  8
T8_DRILL
 10
0.6935916002925839
 20
92.52725311723225
 30
0.0
  0
VERTEX
  5
15A
  8
T8_DRILL
 10
0.6961182635873077
 20
92.53615076837019
 30
0.0
  0
VERTEX
  5
15B
  8
T8_DRILL
 10
0.6990661084297869
 20
92.54486282803856
 30
0.0
  0
VERTEX
  5
15C
  8
T8_DRILL
 10
0.7024233549256635
 20
92.55337751656135
 30
0.0
  0
VERTEX
  5
15D
  8
T8_DRILL
 10
0.7061782231805793
 20
92.56168305426266
 30
0.0
  0
VERTEX
  5
15E
  8
T8_DRILL
 10
0.7103189333001759
 20
92.56976766146649
 30
0.0
  0
VERTEX
  5
15F
  8
T8_DRILL
 10
0.7148337053900953
 20
92.5776195584969
 30
0.0
  0
VERTEX
  5
160
  8
T8_DRILL
 10
0.7197107595559791
 20
92.58522696567796
 30
0.0
  0
VERTEX
  5
161
  8
T8_DRILL
 10
0.7249383159034691
 20
92.5925781033337
 30
0.0
  0
VERTEX
  5
162
  8
T8_DRILL
 10
0.7305045945382073
 20
92.59966119178816
 30
0.0
  0
VERTEX
  5
163
  8
T8_DRILL
 10
0.7363978155658353
 20
92.60646445136538
 30
0.0
  0
VERTEX
  5
164
  8
T8_DRILL
 10
0.7426061990919948
 20
92.61297610238944
 30
0.0
  0
VERTEX
  5
165
  8
T8_DRILL
 10
0.7491179652223277
 20
92.61918436518437
 30
0.0
  0
VERTEX
  5
166
  8
T8_DRILL
 10
0.7559213340624759
 20
92.62507746007421
 30
0.0
  0
VERTEX
  5
167
  8
T8_DRILL
 10
0.763004525718081
 20
92.630643607383
 30
0.0
  0
VERTEX
  5
168
  8
T8_DRILL
 10
0.7703557602947848
 20
92.63587102743479
 30
0.0
  0
VERTEX
  5
169
  8
T8_DRILL
 10
0.7779632578982292
 20
92.64074794055364
 30
0.0
  0
VERTEX
  5
16A
  8
T8_DRILL
 10
0.7858152386340559
 20
92.64526256706358
 30
0.0
  0
VERTEX
  5
16B
  8
T8_DRILL
 10
0.7938999226079066
 20
92.6494031272887
 30
0.0
  0
VERTEX
  5
16C
  8
T8_DRILL
 10
0.8022055299254234
 20
92.653157841553
 30
0.0
  0
VERTEX
  5
16D
  8
T8_DRILL
 10
0.8107202806922478
 20
92.65651493018052
 30
0.0
  0
VERTEX
  5
16E
  8
T8_DRILL
 10
0.8194323950140215
 20
92.65946261349535
 30
0.0
  0
VERTEX
  5
16F
  8
T8_DRILL
 10
0.8283300929963866
 20
92.66198911182151
 30
0.0
  0
VERTEX
  5
170
  8
T8_DRILL
 10
0.8374015947449847
 20
92.66408264548303
 30
0.0
  0
VERTEX
  5
171
  8
T8_DRILL
 10
0.8466351203654575
 20
92.665731434804
 30
0.0
  0
VERTEX
  5
172
  8
T8_DRILL
 10
0.856018889963447
 20
92.66692370010844
 30
0.0
  0
VERTEX
  5
173
  8
T8_DRILL
 10
0.8655411236445949
 20
92.6676476617204
 30
0.0
  0
VERTEX
  5
174
  8
T8_DRILL
 10
0.8751900415145428
 20
92.66789153996389
 30
0.0
  0
VERTEX
  5
175
  8
T8_DRILL
 10
0.8848389548612043
 20
92.6676474828233
 30
0.0
  0
VERTEX
  5
176
  8
T8_DRILL
 10
0.894361175118032
 20
92.66692334466319
 30
0.0
  0
VERTEX
  5
177
  8
T8_DRILL
 10
0.9037449226090726
 20
92.66573090537787
 30
0.0
  0
VERTEX
  5
178
  8
T8_DRILL
 10
0.9129784176583728
 20
92.66408194486172
 30
0.0
  0
VERTEX
  5
179
  8
T8_DRILL
 10
0.9220498805899793
 20
92.6619882430091
 30
0.0
  0
VERTEX
  5
17A
  8
T8_DRILL
 10
0.9309475317279385
 20
92.65946157971439
 30
0.0
  0
VERTEX
  5
17B
  8
T8_DRILL
 10
0.9396595913962975
 20
92.65651373487191
 30
0.0
  0
VERTEX
  5
17C
  8
T8_DRILL
 10
0.9481742799191029
 20
92.65315648837603
 30
0.0
  0
VERTEX
  5
17D
  8
T8_DRILL
 10
0.956479817620401
 20
92.64940162012111
 30
0.0
  0
VERTEX
  5
17E
  8
T8_DRILL
 10
0.9645644248242391
 20
92.64526091000151
 30
0.0
  0
VERTEX
  5
17F
  8
T8_DRILL
 10
0.9724163218546633
 20
92.64074613791159
 30
0.0
  0
VERTEX
  5
180
  8
T8_DRILL
 10
0.9800237290357205
 20
92.63586908374572
 30
0.0
  0
VERTEX
  5
181
  8
T8_DRILL
 10
0.9873748666914575
 20
92.63064152739824
 30
0.0
  0
VERTEX
  5
182
  8
T8_DRILL
 10
0.994457955145921
 20
92.62507524876348
 30
0.0
  0
VERTEX
  5
183
  8
T8_DRILL
 10
1.001261214723157
 20
92.61918202773585
 30
0.0
  0
VERTEX
  5
184
  8
T8_DRILL
 10
1.007772865747214
 20
92.61297364420969
 30
0.0
  0
VERTEX
  5
185
  8
T8_DRILL
 10
1.013981128542136
 20
92.60646187807936
 30
0.0
  0
VERTEX
  5
186
  8
T8_DRILL
 10
1.019874223431972
 20
92.5996585092392
 30
0.0
  0
VERTEX
  5
187
  8
T8_DRILL
 10
1.025440370740768
 20
92.5925753175836
 30
0.0
  0
VERTEX
  5
188
  8
T8_DRILL
 10
1.03066779079257
 20
92.58522408300689
 30
0.0
  0
VERTEX
  5
189
  8
T8_DRILL
 10
1.035544703911425
 20
92.57761658540343
 30
0.0
  0
VERTEX
  5
18A
  8
T8_DRILL
 10
1.04005933042138
 20
92.5697646046676
 30
0.0
  0
VERTEX
  5
18B
  8
T8_DRILL
 10
1.044199890646482
 20
92.56167992069373
 30
0.0
  0
VERTEX
  5
18C
  8
T8_DRILL
 10
1.047954604910776
 20
92.55337431337622
 30
0.0
  0
VERTEX
  5
18D
  8
T8_DRILL
 10
1.051311693538311
 20
92.54485956260939
 30
0.0
  0
VERTEX
  5
18E
  8
T8_DRILL
 10
1.054259376853133
 20
92.53614744828761
 30
0.0
  0
VERTEX
  5
18F
  8
T8_DRILL
 10
1.056785875179287
 20
92.52724975030523
 30
0.0
  0
VERTEX
  5
190
  8
T8_DRILL
 10
1.058879408840822
 20
92.51817824855661
 30
0.0
  0
VERTEX
  5
191
  8
T8_DRILL
 10
1.060528198161783
 20
92.50894472293612
 30
0.0
  0
VERTEX
  5
192
  8
T8_DRILL
 10
1.061720463466217
 20
92.4995609533381
 30
0.0
  0
VERTEX
  5
193
  8
T8_DRILL
 10
1.062444425078171
 20
92.49003871965694
 30
0.0
  0
SEQEND
  5
768
  8
T8_DRILL
  0
POLYLINE
  5
72
  8
T8_DRILL
 66
     1
 10
0.0
 20
0.0
 30
0.0
 70
     1
  0
VERTEX
  5
194
  8
T8_DRILL
 10
0.8208019237872577
 20
75.43265753759165
 30
0.0
  0
VERTEX
  5
195
  8
T8_DRILL
 10
0.820557866646675
 20
75.423008624245
 30
0.0
  0
VERTEX
  5
196
  8
T8_DRILL
 10
0.8198337284865469
 20
75.41348640398817
 30
0.0
  0
VERTEX
  5
197
  8
T8_DRILL
 10
0.8186412892012315
 20
75.40410265649712
 30
0.0
  0
VERTEX
  5
198
  8
T8_DRILL
 10
0.8169923286850869
 20
75.39486916144783
 30
0.0
  0
VERTEX
  5
199
  8
T8_DRILL
 10
0.8148986268324712
 20
75.38579769851623
 30
0.0
  0
VERTEX
  5
19A
  8
T8_DRILL
 10
0.8123719635377427
 20
75.37690004737827
 30
0.0
  0
VERTEX
  5
19B
  8
T8_DRILL
 10
0.8094241186952591
 20
75.36818798770992
 30
0.0
  0
VERTEX
  5
19C
  8
T8_DRILL
 10
0.8060668721993789
 20
75.35967329918711
 30
0.0
  0
VERTEX
  5
19D
  8
T8_DRILL
 10
0.80231200394446
 20
75.35136776148582
 30
0.0
  0
VERTEX
  5
19E
  8
T8_DRILL
 10
0.7981712938248606
 20
75.34328315428198
 30
0.0
  0
VERTEX
  5
19F
  8
T8_DRILL
 10
0.793656521734939
 20
75.33543125725154
 30
0.0
  0
VERTEX
  5
1A0
  8
T8_DRILL
 10
0.7887794675690529
 20
75.32782385007049
 30
0.0
  0
VERTEX
  5
1A1
  8
T8_DRILL
 10
0.7835519112215608
 20
75.32047271241476
 30
0.0
  0
VERTEX
  5
1A2
  8
T8_DRILL
 10
0.7779856325868204
 20
75.31338962396029
 30
0.0
  0
VERTEX
  5
1A3
  8
T8_DRILL
 10
0.7720924115591903
 20
75.30658636438307
 30
0.0
  0
VERTEX
  5
1A4
  8
T8_DRILL
 10
0.7658840280330281
 20
75.30007471335901
 30
0.0
  0
VERTEX
  5
1A5
  8
T8_DRILL
 10
0.7593722619026924
 20
75.29386645056408
 30
0.0
  0
VERTEX
  5
1A6
  8
T8_DRILL
 10
0.7525688930625409
 20
75.28797335567424
 30
0.0
  0
VERTEX
  5
1A7
  8
T8_DRILL
 10
0.745485701406932
 20
75.28240720836544
 30
0.0
  0
VERTEX
  5
1A8
  8
T8_DRILL
 10
0.7381344668302237
 20
75.27717978831366
 30
0.0
  0
VERTEX
  5
1A9
  8
T8_DRILL
 10
0.7305269692267742
 20
75.27230287519481
 30
0.0
  0
VERTEX
  5
1AA
  8
T8_DRILL
 10
0.7226749884909414
 20
75.26778824868487
 30
0.0
  0
VERTEX
  5
1AB
  8
T8_DRILL
 10
0.7145903045170834
 20
75.26364768845977
 30
0.0
  0
VERTEX
  5
1AC
  8
T8_DRILL
 10
0.7062846971995587
 20
75.25989297419548
 30
0.0
  0
VERTEX
  5
1AD
  8
T8_DRILL
 10
0.6977699464327249
 20
75.25653588556796
 30
0.0
  0
VERTEX
  5
1AE
  8
T8_DRILL
 10
0.6890578321109406
 20
75.25358820225313
 30
0.0
  0
VERTEX
  5
1AF
  8
T8_DRILL
 10
0.6801601341285637
 20
75.251061703927
 30
0.0
  0
VERTEX
  5
1B0
  8
T8_DRILL
 10
0.6710886323799523
 20
75.24896817026546
 30
0.0
  0
VERTEX
  5
1B1
  8
T8_DRILL
 10
0.6618551067594645
 20
75.2473193809445
 30
0.0
  0
VERTEX
  5
1B2
  8
T8_DRILL
 10
0.6524713371614583
 20
75.24612711564006
 30
0.0
  0
VERTEX
  5
1B3
  8
T8_DRILL
 10
0.6429491034802921
 20
75.24540315402811
 30
0.0
  0
VERTEX
  5
1B4
  8
T8_DRILL
 10
0.6333001856103238
 20
75.24515927578462
 30
0.0
  0
VERTEX
  5
1B5
  8
T8_DRILL
 10
0.6236512722636722
 20
75.2454033329252
 30
0.0
  0
VERTEX
  5
1B6
  8
T8_DRILL
 10
0.6141290520068533
 20
75.24612747108532
 30
0.0
  0
VERTEX
  5
1B7
  8
T8_DRILL
 10
0.6047453045158203
 20
75.24731991037063
 30
0.0
  0
VERTEX
  5
1B8
  8
T8_DRILL
 10
0.5955118094665268
 20
75.24896887088677
 30
0.0
  0
VERTEX
  5
1B9
  8
T8_DRILL
 10
0.586440346534926
 20
75.25106257273939
 30
0.0
  0
VERTEX
  5
1BA
  8
T8_DRILL
 10
0.5775426953969717
 20
75.25358923603409
 30
0.0
  0
VERTEX
  5
1BB
  8
T8_DRILL
 10
0.5688306357286169
 20
75.25653708087657
 30
0.0
  0
VERTEX
  5
1BC
  8
T8_DRILL
 10
0.5603159472058152
 20
75.25989432737245
 30
0.0
  0
VERTEX
  5
1BD
  8
T8_DRILL
 10
0.5520104095045201
 20
75.26364919562737
 30
0.0
  0
VERTEX
  5
1BE
  8
T8_DRILL
 10
0.5439258023006849
 20
75.26778990574697
 30
0.0
  0
VERTEX
  5
1BF
  8
T8_DRILL
 10
0.5360739052702631
 20
75.27230467783689
 30
0.0
  0
VERTEX
  5
1C0
  8
T8_DRILL
 10
0.528466498089208
 20
75.27718173200276
 30
0.0
  0
VERTEX
  5
1C1
  8
T8_DRILL
 10
0.5211153604334732
 20
75.28240928835024
 30
0.0
  0
VERTEX
  5
1C2
  8
T8_DRILL
 10
0.5140322719790119
 20
75.287975566985
 30
0.0
  0
VERTEX
  5
1C3
  8
T8_DRILL
 10
0.5072290124017778
 20
75.29386878801263
 30
0.0
  0
VERTEX
  5
1C4
  8
T8_DRILL
 10
0.500717361377724
 20
75.30007717153879
 30
0.0
  0
VERTEX
  5
1C5
  8
T8_DRILL
 10
0.4945090985828042
 20
75.30658893766912
 30
0.0
  0
VERTEX
  5
1C6
  8
T8_DRILL
 10
0.4886160036929718
 20
75.31339230650927
 30
0.0
  0
VERTEX
  5
1C7
  8
T8_DRILL
 10
0.48304985638418
 20
75.32047549816488
 30
0.0
  0
VERTEX
  5
1C8
  8
T8_DRILL
 10
0.4778224363323824
 20
75.32782673274158
 30
0.0
  0
VERTEX
  5
1C9
  8
T8_DRILL
 10
0.4729455232135324
 20
75.33543423034504
 30
0.0
  0
VERTEX
  5
1CA
  8
T8_DRILL
 10
0.4684308967035834
 20
75.34328621108088
 30
0.0
  0
VERTEX
  5
1CB
  8
T8_DRILL
 10
0.4642903364784888
 20
75.35137089505474
 30
0.0
  0
VERTEX
  5
1CC
  8
T8_DRILL
 10
0.4605356222142021
 20
75.35967650237225
 30
0.0
  0
VERTEX
  5
1CD
  8
T8_DRILL
 10
0.4571785335866766
 20
75.36819125313909
 30
0.0
  0
VERTEX
  5
1CE
  8
T8_DRILL
 10
0.4542308502718658
 20
75.37690336746087
 30
0.0
  0
VERTEX
  5
1CF
  8
T8_DRILL
 10
0.4517043519457231
 20
75.38580106544325
 30
0.0
  0
VERTEX
  5
1D0
  8
T8_DRILL
 10
0.449610818284202
 20
75.39487256719187
 30
0.0
  0
VERTEX
  5
1D1
  8
T8_DRILL
 10
0.4479620289632559
 20
75.40410609281236
 30
0.0
  0
VERTEX
  5
1D2
  8
T8_DRILL
 10
0.446769763658838
 20
75.41348986241036
 30
0.0
  0
VERTEX
  5
1D3
  8
T8_DRILL
 10
0.446045802046902
 20
75.42301209609153
 30
0.0
  0
VERTEX
  5
1D4
  8
T8_DRILL
 10
0.4458019238034012
 20
75.43266101396149
 30
0.0
  0
VERTEX
  5
1D5
  8
T8_DRILL
 10
0.4460459809439736
 20
75.44230992730814
 30
0.0
  0
VERTEX
  5
1D6
  8
T8_DRILL
 10
0.446770119104092
 20
75.45183214756496
 30
0.0
  0
VERTEX
  5
1D7
  8
T8_DRILL
 10
0.4479625583893985
 20
75.46121589505599
 30
0.0
  0
VERTEX
  5
1D8
  8
T8_DRILL
 10
0.4496115189055347
 20
75.47044939010527
 30
0.0
  0
VERTEX
  5
1D9
  8
T8_DRILL
 10
0.4517052207581428
 20
75.47952085303686
 30
0.0
  0
VERTEX
  5
1DA
  8
T8_DRILL
 10
0.4542318840528644
 20
75.48841850417482
 30
0.0
  0
VERTEX
  5
1DB
  8
T8_DRILL
 10
0.4571797288953415
 20
75.49713056384317
 30
0.0
  0
VERTEX
  5
1DC
  8
T8_DRILL
 10
0.4605369753912161
 20
75.50564525236597
 30
0.0
  0
VERTEX
  5
1DD
  8
T8_DRILL
 10
0.4642918436461299
 20
75.51395079006727
 30
0.0
  0
VERTEX
  5
1DE
  8
T8_DRILL
 10
0.4684325537657249
 20
75.5220353972711
 30
0.0
  0
VERTEX
  5
1DF
  8
T8_DRILL
 10
0.472947325855643
 20
75.52988729430152
 30
0.0
  0
VERTEX
  5
1E0
  8
T8_DRILL
 10
0.4778243800215261
 20
75.53749470148256
 30
0.0
  0
VERTEX
  5
1E1
  8
T8_DRILL
 10
0.4830519363690159
 20
75.54484583913829
 30
0.0
  0
VERTEX
  5
1E2
  8
T8_DRILL
 10
0.4886182150037546
 20
75.55192892759275
 30
0.0
  0
VERTEX
  5
1E3
  8
T8_DRILL
 10
0.4945114360313838
 20
75.55873218717
 30
0.0
  0
VERTEX
  5
1E4
  8
T8_DRILL
 10
0.5007198195575455
 20
75.56524383819404
 30
0.0
  0
VERTEX
  5
1E5
  8
T8_DRILL
 10
0.5072315856878817
 20
75.57145210098895
 30
0.0
  0
VERTEX
  5
1E6
  8
T8_DRILL
 10
0.514034954528034
 20
75.57734519587879
 30
0.0
  0
VERTEX
  5
1E7
  8
T8_DRILL
 10
0.5211181461836447
 20
75.58291134318759
 30
0.0
  0
VERTEX
  5
1E8
  8
T8_DRILL
 10
0.5284693807603553
 20
75.58813876323939
 30
0.0
  0
VERTEX
  5
1E9
  8
T8_DRILL
 10
0.5360768783638079
 20
75.59301567635825
 30
0.0
  0
VERTEX
  5
1EA
  8
T8_DRILL
 10
0.5439288590996443
 20
75.5975303028682
 30
0.0
  0
VERTEX
  5
1EB
  8
T8_DRILL
 10
0.5520135430735065
 20
75.60167086309329
 30
0.0
  0
VERTEX
  5
1EC
  8
T8_DRILL
 10
0.5603191503910363
 20
75.60542557735758
 30
0.0
  0
VERTEX
  5
1ED
  8
T8_DRILL
 10
0.5688339011578756
 20
75.6087826659851
 30
0.0
  0
VERTEX
  5
1EE
  8
T8_DRILL
 10
0.5775460154796663
 20
75.61173034929993
 30
0.0
  0
VERTEX
  5
1EF
  8
T8_DRILL
 10
0.5864437134620502
 20
75.6142568476261
 30
0.0
  0
VERTEX
  5
1F0
  8
T8_DRILL
 10
0.5955152152106693
 20
75.61635038128762
 30
0.0
  0
VERTEX
  5
1F1
  8
T8_DRILL
 10
0.6047487408311655
 20
75.61799917060858
 30
0.0
  0
VERTEX
  5
1F2
  8
T8_DRILL
 10
0.6141325104291806
 20
75.61919143591302
 30
0.0
  0
VERTEX
  5
1F3
  8
T8_DRILL
 10
0.6236547441103565
 20
75.61991539752498
 30
0.0
  0
VERTEX
  5
1F4
  8
T8_DRILL
 10
0.6333036619803352
 20
75.62015927576847
 30
0.0
  0
VERTEX
  5
1F5
  8
T8_DRILL
 10
0.642952575326976
 20
75.61991521862788
 30
0.0
  0
VERTEX
  5
1F6
  8
T8_DRILL
 10
0.6524747955837844
 20
75.61919108046777
 30
0.0
  0
VERTEX
  5
1F7
  8
T8_DRILL
 10
0.661858543074807
 20
75.61799864118245
 30
0.0
  0
VERTEX
  5
1F8
  8
T8_DRILL
 10
0.6710920381240901
 20
75.61634968066632
 30
0.0
  0
VERTEX
  5
1F9
  8
T8_DRILL
 10
0.6801635010556808
 20
75.6142559788137
 30
0.0
  0
VERTEX
  5
1FA
  8
T8_DRILL
 10
0.6890611521936256
 20
75.611729315519
 30
0.0
  0
VERTEX
  5
1FB
  8
T8_DRILL
 10
0.697773211861971
 20
75.60878147067652
 30
0.0
  0
VERTEX
  5
1FC
  8
T8_DRILL
 10
0.7062879003847637
 20
75.60542422418064
 30
0.0
  0
VERTEX
  5
1FD
  8
T8_DRILL
 10
0.7145934380860506
 20
75.60166935592572
 30
0.0
  0
VERTEX
  5
1FE
  8
T8_DRILL
 10
0.7226780452898778
 20
75.59752864580612
 30
0.0
  0
VERTEX
  5
1FF
  8
T8_DRILL
 10
0.7305299423202924
 20
75.5930138737162
 30
0.0
  0
VERTEX
  5
200
  8
T8_DRILL
 10
0.738137349501341
 20
75.58813681955033
 30
0.0
  0
VERTEX
  5
201
  8
T8_DRILL
 10
0.7454884871570702
 20
75.58290926320285
 30
0.0
  0
VERTEX
  5
202
  8
T8_DRILL
 10
0.7525715756115263
 20
75.57734298456809
 30
0.0
  0
VERTEX
  5
203
  8
T8_DRILL
 10
0.7593748351887565
 20
75.57144976354046
 30
0.0
  0
VERTEX
  5
204
  8
T8_DRILL
 10
0.765886486212807
 20
75.5652413800143
 30
0.0
  0
VERTEX
  5
205
  8
T8_DRILL
 10
0.7720947490077247
 20
75.55872961388397
 30
0.0
  0
VERTEX
  5
206
  8
T8_DRILL
 10
0.777987843897556
 20
75.55192624504383
 30
0.0
  0
VERTEX
  5
207
  8
T8_DRILL
 10
0.7835539912063478
 20
75.54484305338823
 30
0.0
  0
VERTEX
  5
208
  8
T8_DRILL
 10
0.7887814112581466
 20
75.53749181881152
 30
0.0
  0
VERTEX
  5
209
  8
T8_DRILL
 10
0.7936583243769992
 20
75.52988432120806
 30
0.0
  0
VERTEX
  5
20A
  8
T8_DRILL
 10
0.798172950886952
 20
75.52203234047224
 30
0.0
  0
VERTEX
  5
20B
  8
T8_DRILL
 10
0.8023135111120516
 20
75.51394765649837
 30
0.0
  0
VERTEX
  5
20C
  8
T8_DRILL
 10
0.8060682253763449
 20
75.50564204918086
 30
0.0
  0
VERTEX
  5
20D
  8
T8_DRILL
 10
0.8094253140038785
 20
75.49712729841403
 30
0.0
  0
VERTEX
  5
20E
  8
T8_DRILL
 10
0.8123729973186988
 20
75.48841518409225
 30
0.0
  0
VERTEX
  5
20F
  8
T8_DRILL
 10
0.8148994956448529
 20
75.47951748610987
 30
0.0
  0
VERTEX
  5
210
  8
T8_DRILL
 10
0.816993029306387
 20
75.47044598436126
 30
0.0
  0
VERTEX
  5
211
  8
T8_DRILL
 10
0.8186418186273479
 20
75.46121245874079
 30
0.0
  0
VERTEX
  5
212
  8
T8_DRILL
 10
0.8198340839317821
 20
75.45182868914279
 30
0.0
  0
VERTEX
  5
213
  8
T8_DRILL
 10
0.8205580455437366
 20
75.44230645546162
 30
0.0
  0
SEQEND
  5
769
  8
T8_DRILL
  0
POLYLINE
  5
73
  8
T8_DRILL
 66
     1
 10
0.0
 20
0.0
 30
0.0
 70
     1
  0
VERTEX
  5
214
  8
T8_DRILL
 10
3.044099877234999
 20
72.92870828131818
 30
0.0
  0
VERTEX
  5
215
  8
T8_DRILL
 10
3.043855820094426
 20
72.91905936797153
 30
0.0
  0
VERTEX
  5
216
  8
T8_DRILL
 10
3.043131681934308
 20
72.9095371477147
 30
0.0
  0
VERTEX
  5
217
  8
T8_DRILL
 10
3.041939242649002
 20
72.90015340022366
 30
0.0
  0
VERTEX
  5
218
  8
T8_DRILL
 10
3.040290282132865
 20
72.89091990517437
 30
0.0
  0
VERTEX
  5
219
  8
T8_DRILL
 10
3.038196580280257
 20
72.88184844224276
 30
0.0
  0
VERTEX
  5
21A
  8
T8_DRILL
 10
3.035669916985536
 20
72.87295079110481
 30
0.0
  0
VERTEX
  5
21B
  8
T8_DRILL
 10
3.032722072143059
 20
72.86423873143646
 30
0.0
  0
VERTEX
  5
21C
  8
T8_DRILL
 10
3.029364825647185
 20
72.85572404291366
 30
0.0
  0
VERTEX
  5
21D
  8
T8_DRILL
 10
3.025609957392272
 20
72.84741850521237
 30
0.0
  0
VERTEX
  5
21E
  8
T8_DRILL
 10
3.021469247272679
 20
72.83933389800853
 30
0.0
  0
VERTEX
  5
21F
  8
T8_DRILL
 10
3.016954475182762
 20
72.8314820009781
 30
0.0
  0
VERTEX
  5
220
  8
T8_DRILL
 10
3.01207742101688
 20
72.82387459379704
 30
0.0
  0
VERTEX
  5
221
  8
T8_DRILL
 10
3.006849864669391
 20
72.81652345614131
 30
0.0
  0
VERTEX
  5
222
  8
T8_DRILL
 10
3.001283586034655
 20
72.80944036768685
 30
0.0
  0
VERTEX
  5
223
  8
T8_DRILL
 10
2.995390365007028
 20
72.80263710810962
 30
0.0
  0
VERTEX
  5
224
  8
T8_DRILL
 10
2.989181981480868
 20
72.79612545708557
 30
0.0
  0
VERTEX
  5
225
  8
T8_DRILL
 10
2.982670215350535
 20
72.78991719429064
 30
0.0
  0
VERTEX
  5
226
  8
T8_DRILL
 10
2.975866846510386
 20
72.7840240994008
 30
0.0
  0
VERTEX
  5
227
  8
T8_DRILL
 10
2.968783654854779
 20
72.778457952092
 30
0.0
  0
VERTEX
  5
228
  8
T8_DRILL
 10
2.961432420278072
 20
72.77323053204022
 30
0.0
  0
VERTEX
  5
229
  8
T8_DRILL
 10
2.953824922674624
 20
72.76835361892137
 30
0.0
  0
VERTEX
  5
22A
  8
T8_DRILL
 10
2.945972941938792
 20
72.76383899241142
 30
0.0
  0
VERTEX
  5
22B
  8
T8_DRILL
 10
2.937888257964936
 20
72.75969843218633
 30
0.0
  0
VERTEX
  5
22C
  8
T8_DRILL
 10
2.929582650647411
 20
72.75594371792204
 30
0.0
  0
VERTEX
  5
22D
  8
T8_DRILL
 10
2.921067899880579
 20
72.75258662929451
 30
0.0
  0
VERTEX
  5
22E
  8
T8_DRILL
 10
2.912355785558795
 20
72.74963894597968
 30
0.0
  0
VERTEX
  5
22F
  8
T8_DRILL
 10
2.903458087576418
 20
72.74711244765352
 30
0.0
  0
VERTEX
  5
230
  8
T8_DRILL
 10
2.894386585827807
 20
72.745018913992
 30
0.0
  0
VERTEX
  5
231
  8
T8_DRILL
 10
2.885153060207319
 20
72.74337012467103
 30
0.0
  0
VERTEX
  5
232
  8
T8_DRILL
 10
2.875769290609313
 20
72.74217785936659
 30
0.0
  0
VERTEX
  5
233
  8
T8_DRILL
 10
2.866247056928146
 20
72.74145389775464
 30
0.0
  0
VERTEX
  5
234
  8
T8_DRILL
 10
2.856598139058178
 20
72.74121001951114
 30
0.0
  0
VERTEX
  5
235
  8
T8_DRILL
 10
2.846949225711527
 20
72.74145407665173
 30
0.0
  0
VERTEX
  5
236
  8
T8_DRILL
 10
2.837427005454708
 20
72.74217821481184
 30
0.0
  0
VERTEX
  5
237
  8
T8_DRILL
 10
2.828043257963675
 20
72.74337065409716
 30
0.0
  0
VERTEX
  5
238
  8
T8_DRILL
 10
2.818809762914381
 20
72.7450196146133
 30
0.0
  0
VERTEX
  5
239
  8
T8_DRILL
 10
2.80973829998278
 20
72.74711331646591
 30
0.0
  0
VERTEX
  5
23A
  8
T8_DRILL
 10
2.800840648844825
 20
72.74963997976064
 30
0.0
  0
VERTEX
  5
23B
  8
T8_DRILL
 10
2.792128589176469
 20
72.75258782460313
 30
0.0
  0
VERTEX
  5
23C
  8
T8_DRILL
 10
2.783613900653666
 20
72.75594507109899
 30
0.0
  0
VERTEX
  5
23D
  8
T8_DRILL
 10
2.775308362952369
 20
72.75969993935391
 30
0.0
  0
VERTEX
  5
23E
  8
T8_DRILL
 10
2.767223755748532
 20
72.76384064947351
 30
0.0
  0
VERTEX
  5
23F
  8
T8_DRILL
 10
2.759371858718108
 20
72.76835542156343
 30
0.0
  0
VERTEX
  5
240
  8
T8_DRILL
 10
2.751764451537051
 20
72.77323247572932
 30
0.0
  0
VERTEX
  5
241
  8
T8_DRILL
 10
2.744413313881313
 20
72.7784600320768
 30
0.0
  0
VERTEX
  5
242
  8
T8_DRILL
 10
2.737330225426847
 20
72.78402631071155
 30
0.0
  0
VERTEX
  5
243
  8
T8_DRILL
 10
2.730526965849609
 20
72.78991953173919
 30
0.0
  0
VERTEX
  5
244
  8
T8_DRILL
 10
2.72401531482555
 20
72.79612791526534
 30
0.0
  0
VERTEX
  5
245
  8
T8_DRILL
 10
2.717807052030625
 20
72.80263968139568
 30
0.0
  0
VERTEX
  5
246
  8
T8_DRILL
 10
2.711913957140786
 20
72.80944305023583
 30
0.0
  0
VERTEX
  5
247
  8
T8_DRILL
 10
2.706347809831987
 20
72.81652624189144
 30
0.0
  0
VERTEX
  5
248
  8
T8_DRILL
 10
2.701120389780181
 20
72.82387747646814
 30
0.0
  0
VERTEX
  5
249
  8
T8_DRILL
 10
2.696243476661323
 20
72.8314849740716
 30
0.0
  0
VERTEX
  5
24A
  8
T8_DRILL
 10
2.691728850151364
 20
72.83933695480744
 30
0.0
  0
VERTEX
  5
24B
  8
T8_DRILL
 10
2.687588289926259
 20
72.8474216387813
 30
0.0
  0
VERTEX
  5
24C
  8
T8_DRILL
 10
2.683833575661961
 20
72.85572724609881
 30
0.0
  0
VERTEX
  5
24D
  8
T8_DRILL
 10
2.680476487034423
 20
72.86424199686564
 30
0.0
  0
VERTEX
  5
24E
  8
T8_DRILL
 10
2.677528803719599
 20
72.87295411118743
 30
0.0
  0
VERTEX
  5
24F
  8
T8_DRILL
 10
2.675002305393441
 20
72.8818518091698
 30
0.0
  0
VERTEX
  5
250
  8
T8_DRILL
 10
2.672908771731904
 20
72.89092331091841
 30
0.0
  0
VERTEX
  5
251
  8
T8_DRILL
 10
2.671259982410941
 20
72.90015683653888
 30
0.0
  0
VERTEX
  5
252
  8
T8_DRILL
 10
2.670067717106505
 20
72.90954060613689
 30
0.0
  0
VERTEX
  5
253
  8
T8_DRILL
 10
2.66934375549455
 20
72.91906283981805
 30
0.0
  0
VERTEX
  5
254
  8
T8_DRILL
 10
2.669099877251028
 20
72.92871175768802
 30
0.0
  0
VERTEX
  5
255
  8
T8_DRILL
 10
2.669343934391621
 20
72.93836067103467
 30
0.0
  0
VERTEX
  5
256
  8
T8_DRILL
 10
2.670068072551759
 20
72.94788289129148
 30
0.0
  0
VERTEX
  5
257
  8
T8_DRILL
 10
2.671260511837083
 20
72.95726663878251
 30
0.0
  0
VERTEX
  5
258
  8
T8_DRILL
 10
2.672909472353236
 20
72.9665001338318
 30
0.0
  0
VERTEX
  5
259
  8
T8_DRILL
 10
2.67500317420586
 20
72.97557159676342
 30
0.0
  0
VERTEX
  5
25A
  8
T8_DRILL
 10
2.677529837500596
 20
72.98446924790136
 30
0.0
  0
VERTEX
  5
25B
  8
T8_DRILL
 10
2.680477682343085
 20
72.99318130756973
 30
0.0
  0
VERTEX
  5
25C
  8
T8_DRILL
 10
2.683834928838971
 20
73.00169599609252
 30
0.0
  0
VERTEX
  5
25D
  8
T8_DRILL
 10
2.687589797093895
 20
73.01000153379383
 30
0.0
  0
VERTEX
  5
25E
  8
T8_DRILL
 10
2.691730507213499
 20
73.01808614099765
 30
0.0
  0
VERTEX
  5
25F
  8
T8_DRILL
 10
2.696245279303424
 20
73.02593803802807
 30
0.0
  0
VERTEX
  5
260
  8
T8_DRILL
 10
2.701122333469313
 20
73.03354544520911
 30
0.0
  0
VERTEX
  5
261
  8
T8_DRILL
 10
2.706349889816808
 20
73.04089658286485
 30
0.0
  0
VERTEX
  5
262
  8
T8_DRILL
 10
2.71191616845155
 20
73.04797967131931
 30
0.0
  0
VERTEX
  5
263
  8
T8_DRILL
 10
2.717809389479181
 20
73.05478293089655
 30
0.0
  0
VERTEX
  5
264
  8
T8_DRILL
 10
2.724017773005343
 20
73.06129458192059
 30
0.0
  0
VERTEX
  5
265
  8
T8_DRILL
 10
2.730529539135679
 20
73.0675028447155
 30
0.0
  0
VERTEX
  5
266
  8
T8_DRILL
 10
2.737332907975829
 20
73.07339593960535
 30
0.0
  0
VERTEX
  5
267
  8
T8_DRILL
 10
2.744416099631436
 20
73.07896208691415
 30
0.0
  0
VERTEX
  5
268
  8
T8_DRILL
 10
2.751767334208142
 20
73.08418950696594
 30
0.0
  0
VERTEX
  5
269
  8
T8_DRILL
 10
2.759374831811589
 20
73.0890664200848
 30
0.0
  0
VERTEX
  5
26A
  8
T8_DRILL
 10
2.767226812547418
 20
73.09358104659475
 30
0.0
  0
VERTEX
  5
26B
  8
T8_DRILL
 10
2.775311496521272
 20
73.09772160681985
 30
0.0
  0
VERTEX
  5
26C
  8
T8_DRILL
 10
2.783617103838791
 20
73.10147632108415
 30
0.0
  0
VERTEX
  5
26D
  8
T8_DRILL
 10
2.79213185460562
 20
73.10483340971169
 30
0.0
  0
VERTEX
  5
26E
  8
T8_DRILL
 10
2.800843968927397
 20
73.10778109302649
 30
0.0
  0
VERTEX
  5
26F
  8
T8_DRILL
 10
2.809741666909768
 20
73.11030759135265
 30
0.0
  0
VERTEX
  5
270
  8
T8_DRILL
 10
2.818813168658371
 20
73.11240112501417
 30
0.0
  0
VERTEX
  5
271
  8
T8_DRILL
 10
2.828046694278851
 20
73.11404991433514
 30
0.0
  0
VERTEX
  5
272
  8
T8_DRILL
 10
2.837430463876847
 20
73.11524217963958
 30
0.0
  0
VERTEX
  5
273
  8
T8_DRILL
 10
2.846952697558004
 20
73.11596614125153
 30
0.0
  0
VERTEX
  5
274
  8
T8_DRILL
 10
2.856601615427962
 20
73.11621001949506
 30
0.0
  0
VERTEX
  5
275
  8
T8_DRILL
 10
2.866250528774614
 20
73.11596596235447
 30
0.0
  0
VERTEX
  5
276
  8
T8_DRILL
 10
2.875772749031433
 20
73.11524182419436
 30
0.0
  0
VERTEX
  5
277
  8
T8_DRILL
 10
2.885156496522466
 20
73.11404938490904
 30
0.0
  0
VERTEX
  5
278
  8
T8_DRILL
 10
2.894389991571759
 20
73.1124004243929
 30
0.0
  0
VERTEX
  5
279
  8
T8_DRILL
 10
2.90346145450336
 20
73.11030672254029
 30
0.0
  0
VERTEX
  5
27A
  8
T8_DRILL
 10
2.912359105641316
 20
73.10778005924556
 30
0.0
  0
VERTEX
  5
27B
  8
T8_DRILL
 10
2.92107116530967
 20
73.10483221440307
 30
0.0
  0
VERTEX
  5
27C
  8
T8_DRILL
 10
2.929585853832473
 20
73.10147496790721
 30
0.0
  0
VERTEX
  5
27D
  8
T8_DRILL
 10
2.937891391533769
 20
73.09772009965229
 30
0.0
  0
VERTEX
  5
27E
  8
T8_DRILL
 10
2.945975998737605
 20
73.09357938953269
 30
0.0
  0
VERTEX
  5
27F
  8
T8_DRILL
 10
2.953827895768028
 20
73.08906461744277
 30
0.0
  0
VERTEX
  5
280
  8
T8_DRILL
 10
2.961435302949084
 20
73.08418756327688
 30
0.0
  0
VERTEX
  5
281
  8
T8_DRILL
 10
2.968786440604821
 20
73.0789600069294
 30
0.0
  0
VERTEX
  5
282
  8
T8_DRILL
 10
2.975869529059284
 20
73.07339372829465
 30
0.0
  0
VERTEX
  5
283
  8
T8_DRILL
 10
2.98267278863652
 20
73.06750050726701
 30
0.0
  0
VERTEX
  5
284
  8
T8_DRILL
 10
2.989184439660576
 20
73.06129212374086
 30
0.0
  0
VERTEX
  5
285
  8
T8_DRILL
 10
2.995392702455499
 20
73.05478035761053
 30
0.0
  0
VERTEX
  5
286
  8
T8_DRILL
 10
3.001285797345334
 20
73.04797698877037
 30
0.0
  0
VERTEX
  5
287
  8
T8_DRILL
 10
3.00685194465413
 20
73.04089379711476
 30
0.0
  0
VERTEX
  5
288
  8
T8_DRILL
 10
3.012079364705931
 20
73.03354256253806
 30
0.0
  0
VERTEX
  5
289
  8
T8_DRILL
 10
3.016956277824786
 20
73.0259350649346
 30
0.0
  0
VERTEX
  5
28A
  8
T8_DRILL
 10
3.021470904334739
 20
73.01808308419876
 30
0.0
  0
VERTEX
  5
28B
  8
T8_DRILL
 10
3.02561146455984
 20
73.0099984002249
 30
0.0
  0
VERTEX
  5
28C
  8
T8_DRILL
 10
3.029366178824132
 20
73.00169279290739
 30
0.0
  0
VERTEX
  5
28D
  8
T8_DRILL
 10
3.032723267451664
 20
72.99317804214056
 30
0.0
  0
VERTEX
  5
28E
  8
T8_DRILL
 10
3.035670950766481
 20
72.98446592781877
 30
0.0
  0
VERTEX
  5
28F
  8
T8_DRILL
 10
3.038197449092631
 20
72.9755682298364
 30
0.0
  0
VERTEX
  5
290
  8
T8_DRILL
 10
3.04029098275416
 20
72.96649672808779
 30
0.0
  0
VERTEX
  5
291
  8
T8_DRILL
 10
3.041939772075115
 20
72.95726320246732
 30
0.0
  0
VERTEX
  5
292
  8
T8_DRILL
 10
3.043132037379542
 20
72.94787943286931
 30
0.0
  0
VERTEX
  5
293
  8
T8_DRILL
 10
3.043855998991488
 20
72.93835719918815
 30
0.0
  0
SEQEND
  5
76A
  8
T8_DRILL
  0
POLYLINE
  5
74
  8
T8_DRILL
 66
     1
 10
0.0
 20
0.0
 30
0.0
 70
     1
  0
VERTEX
  5
294
  8
T8_DRILL
 10
2.675513047605175
 20
70.79417866107929
 30
0.0
  0
VERTEX
  5
295
  8
T8_DRILL
 10
2.665954421683047
 20
70.79283351577322
 30
0.0
  0
VERTEX
  5
296
  8
T8_DRILL
 10
2.656441800761205
 20
70.79198268289382
 30
0.0
  0
VERTEX
  5
297
  8
T8_DRILL
 10
2.646988746319157
 20
70.79161648196248
 30
0.0
  0
VERTEX
  5
298
  8
T8_DRILL
 10
2.637608819836416
 20
70.79172523250065
 30
0.0
  0
VERTEX
  5
299
  8
T8_DRILL
 10
2.62831558279249
 20
70.79229925402976
 30
0.0
  0
VERTEX
  5
29A
  8
T8_DRILL
 10
2.619122596666891
 20
70.79332886607125
 30
0.0
  0
VERTEX
  5
29B
  8
T8_DRILL
 10
2.610043422939128
 20
70.79480438814653
 30
0.0
  0
VERTEX
  5
29C
  8
T8_DRILL
 10
2.601091623088712
 20
70.79671613977706
 30
0.0
  0
VERTEX
  5
29D
  8
T8_DRILL
 10
2.592280758595154
 20
70.79905444048426
 30
0.0
  0
VERTEX
  5
29E
  8
T8_DRILL
 10
2.583624390937961
 20
70.80180960978954
 30
0.0
  0
VERTEX
  5
29F
  8
T8_DRILL
 10
2.575136081596647
 20
70.80497196721436
 30
0.0
  0
VERTEX
  5
2A0
  8
T8_DRILL
 10
2.56682939205072
 20
70.80853183228015
 30
0.0
  0
VERTEX
  5
2A1
  8
T8_DRILL
 10
2.558717883779691
 20
70.81247952450833
 30
0.0
  0
VERTEX
  5
2A2
  8
T8_DRILL
 10
2.550815118263071
 20
70.81680536342036
 30
0.0
  0
VERTEX
  5
2A3
  8
T8_DRILL
 10
2.543134656980368
 20
70.82149966853764
 30
0.0
  0
VERTEX
  5
2A4
  8
T8_DRILL
 10
2.535690061411094
 20
70.8265527593816
 30
0.0
  0
VERTEX
  5
2A5
  8
T8_DRILL
 10
2.528494893034758
 20
70.83195495547369
 30
0.0
  0
VERTEX
  5
2A6
  8
T8_DRILL
 10
2.521562713330872
 20
70.83769657633535
 30
0.0
  0
VERTEX
  5
2A7
  8
T8_DRILL
 10
2.514907083778945
 20
70.84376794148798
 30
0.0
  0
VERTEX
  5
2A8
  8
T8_DRILL
 10
2.508541565858487
 20
70.85015937045304
 30
0.0
  0
VERTEX
  5
2A9
  8
T8_DRILL
 10
2.502479721049009
 20
70.85686118275197
 30
0.0
  0
VERTEX
  5
2AA
  8
T8_DRILL
 10
2.496735110830021
 20
70.86386369790617
 30
0.0
  0
VERTEX
  5
2AB
  8
T8_DRILL
 10
2.491321296681034
 20
70.8711572354371
 30
0.0
  0
VERTEX
  5
2AC
  8
T8_DRILL
 10
2.486251840081556
 20
70.87873211486617
 30
0.0
  0
VERTEX
  5
2AD
  8
T8_DRILL
 10
2.481540302511099
 20
70.88657865571483
 30
0.0
  0
VERTEX
  5
2AE
  8
T8_DRILL
 10
2.477200245449173
 20
70.8946871775045
 30
0.0
  0
VERTEX
  5
2AF
  8
T8_DRILL
 10
2.473245230375287
 20
70.90304799975661
 30
0.0
  0
VERTEX
  5
2B0
  8
T8_DRILL
 10
2.469688818768954
 20
70.9116514419926
 30
0.0
  0
VERTEX
  5
2B1
  8
T8_DRILL
 10
2.466544572109681
 20
70.92048782373391
 30
0.0
  0
VERTEX
  5
2B2
  8
T8_DRILL
 10
2.463826051876981
 20
70.92954746450195
 30
0.0
  0
VERTEX
  5
2B3
  8
T8_DRILL
 10
2.461546819550362
 20
70.93882068381816
 30
0.0
  0
VERTEX
  5
2B4
  8
T8_DRILL
 10
2.459720436609336
 20
70.94829780120399
 30
0.0
  0
VERTEX
  5
2B5
  8
T8_DRILL
 10
2.458374084780914
 20
70.95785630194283
 30
0.0
  0
VERTEX
  5
2B6
  8
T8_DRILL
 10
2.457522167116332
 20
70.96736873168082
 30
0.0
  0
VERTEX
  5
2B7
  8
T8_DRILL
 10
2.457155000305937
 20
70.97682153371595
 30
0.0
  0
VERTEX
  5
2B8
  8
T8_DRILL
 10
2.457262901040076
 20
70.98620115134622
 30
0.0
  0
VERTEX
  5
2B9
  8
T8_DRILL
 10
2.457836186009095
 20
70.99549402786963
 30
0.0
  0
VERTEX
  5
2BA
  8
T8_DRILL
 10
2.458865171903342
 20
71.00468660658412
 30
0.0
  0
VERTEX
  5
2BB
  8
T8_DRILL
 10
2.460340175413162
 20
71.0137653307877
 30
0.0
  0
VERTEX
  5
2BC
  8
T8_DRILL
 10
2.462251513228903
 20
71.02271664377837
 30
0.0
  0
VERTEX
  5
2BD
  8
T8_DRILL
 10
2.464589502040911
 20
71.0315269888541
 30
0.0
  0
VERTEX
  5
2BE
  8
T8_DRILL
 10
2.467344458539534
 20
71.04018280931288
 30
0.0
  0
VERTEX
  5
2BF
  8
T8_DRILL
 10
2.470506699415117
 20
71.04867054845272
 30
0.0
  0
VERTEX
  5
2C0
  8
T8_DRILL
 10
2.474066541358008
 20
71.05697664957158
 30
0.0
  0
VERTEX
  5
2C1
  8
T8_DRILL
 10
2.478014301058554
 20
71.06508755596747
 30
0.0
  0
VERTEX
  5
2C2
  8
T8_DRILL
 10
2.482340295207101
 20
71.07298971093834
 30
0.0
  0
VERTEX
  5
2C3
  8
T8_DRILL
 10
2.487034840493996
 20
71.08066955778223
 30
0.0
  0
VERTEX
  5
2C4
  8
T8_DRILL
 10
2.492088253609586
 20
71.08811353979709
 30
0.0
  0
VERTEX
  5
2C5
  8
T8_DRILL
 10
2.497490851244217
 20
71.09530810028093
 30
0.0
  0
VERTEX
  5
2C6
  8
T8_DRILL
 10
2.503232950088236
 20
71.10223968253172
 30
0.0
  0
VERTEX
  5
2C7
  8
T8_DRILL
 10
2.50930486683199
 20
71.10889472984744
 30
0.0
  0
VERTEX
  5
2C8
  8
T8_DRILL
 10
2.515696918165827
 20
71.1152596855261
 30
0.0
  0
VERTEX
  5
2C9
  8
T8_DRILL
 10
2.522399420780092
 20
71.12132099286568
 30
0.0
  0
VERTEX
  5
2CA
  8
T8_DRILL
 10
2.529402691365132
 20
71.12706509516417
 30
0.0
  0
VERTEX
  5
2CB
  8
T8_DRILL
 10
2.536697046611293
 20
71.13247843571953
 30
0.0
  0
VERTEX
  5
2CC
  8
T8_DRILL
 10
2.544272803208924
 20
71.13754745782978
 30
0.0
  0
VERTEX
  5
2CD
  8
T8_DRILL
 10
2.55212027784837
 20
71.1422586047929
 30
0.0
  0
VERTEX
  5
2CE
  8
T8_DRILL
 10
2.560229787219978
 20
71.14659831990687
 30
0.0
  0
VERTEX
  5
2CF
  8
T8_DRILL
 10
2.568591648014095
 20
71.1505530464697
 30
0.0
  0
VERTEX
  5
2D0
  8
T8_DRILL
 10
2.577196176921069
 20
71.15410922777934
 30
0.0
  0
VERTEX
  5
2D1
  8
T8_DRILL
 10
2.586033690631244
 20
71.1572533071338
 30
0.0
  0
VERTEX
  5
2D2
  8
T8_DRILL
 10
2.595094505834969
 20
71.15997172783108
 30
0.0
  0
VERTEX
  5
2D3
  8
T8_DRILL
 10
2.604368939222589
 20
71.16225093316915
 30
0.0
  0
VERTEX
  5
2D4
  8
T8_DRILL
 10
2.613847307484454
 20
71.164077366446
 30
0.0
  0
VERTEX
  5
2D5
  8
T8_DRILL
 10
2.62340454069961
 20
71.16542362794934
 30
0.0
  0
VERTEX
  5
2D6
  8
T8_DRILL
 10
2.632915707779889
 20
71.16627545688131
 30
0.0
  0
VERTEX
  5
2D7
  8
T8_DRILL
 10
2.642367256889242
 20
71.16664253814405
 30
0.0
  0
VERTEX
  5
2D8
  8
T8_DRILL
 10
2.651745636191621
 20
71.16653455663968
 30
0.0
  0
VERTEX
  5
2D9
  8
T8_DRILL
 10
2.661037293850979
 20
71.16596119727035
 30
0.0
  0
VERTEX
  5
2DA
  8
T8_DRILL
 10
2.67022867803127
 20
71.16493214493816
 30
0.0
  0
VERTEX
  5
2DB
  8
T8_DRILL
 10
2.679306236896444
 20
71.16345708454527
 30
0.0
  0
VERTEX
  5
2DC
  8
T8_DRILL
 10
2.688256418610454
 20
71.1615457009938
 30
0.0
  0
VERTEX
  5
2DD
  8
T8_DRILL
 10
2.697065671337253
 20
71.15920767918588
 30
0.0
  0
VERTEX
  5
2DE
  8
T8_DRILL
 10
2.705720443240793
 20
71.15645270402365
 30
0.0
  0
VERTEX
  5
2DF
  8
T8_DRILL
 10
2.714207182485027
 20
71.15329046040921
 30
0.0
  0
VERTEX
  5
2E0
  8
T8_DRILL
 10
2.722512337233907
 20
71.14973063324472
 30
0.0
  0
VERTEX
  5
2E1
  8
T8_DRILL
 10
2.730622355651385
 20
71.1457829074323
 30
0.0
  0
VERTEX
  5
2E2
  8
T8_DRILL
 10
2.738523685901415
 20
71.14145696787409
 30
0.0
  0
VERTEX
  5
2E3
  8
T8_DRILL
 10
2.746202776147948
 20
71.13676249947221
 30
0.0
  0
VERTEX
  5
2E4
  8
T8_DRILL
 10
2.753646074554937
 20
71.13170918712879
 30
0.0
  0
VERTEX
  5
2E5
  8
T8_DRILL
 10
2.760840029286335
 20
71.12630671574598
 30
0.0
  0
VERTEX
  5
2E6
  8
T8_DRILL
 10
2.767771088506093
 20
71.12056477022587
 30
0.0
  0
VERTEX
  5
2E7
  8
T8_DRILL
 10
2.774425700378165
 20
71.11449303547062
 30
0.0
  0
VERTEX
  5
2E8
  8
T8_DRILL
 10
2.780790313066502
 20
71.10810119638236
 30
0.0
  0
VERTEX
  5
2E9
  8
T8_DRILL
 10
2.786851374735058
 20
71.10139893786322
 30
0.0
  0
VERTEX
  5
2EA
  8
T8_DRILL
 10
2.792595333547784
 20
71.09439594481533
 30
0.0
  0
VERTEX
  5
2EB
  8
T8_DRILL
 10
2.798008637668633
 20
71.08710190214082
 30
0.0
  0
VERTEX
  5
2EC
  8
T8_DRILL
 10
2.803077735261558
 20
71.07952649474181
 30
0.0
  0
VERTEX
  5
2ED
  8
T8_DRILL
 10
2.807789074490511
 20
71.07167940752045
 30
0.0
  0
VERTEX
  5
2EE
  8
T8_DRILL
 10
2.812129103519444
 20
71.06357032537886
 30
0.0
  0
VERTEX
  5
2EF
  8
T8_DRILL
 10
2.81608427051231
 20
71.05520893321916
 30
0.0
  0
VERTEX
  5
2F0
  8
T8_DRILL
 10
2.819641023633062
 20
71.04660491594349
 30
0.0
  0
VERTEX
  5
2F1
  8
T8_DRILL
 10
2.822785811045651
 20
71.03776795845398
 30
0.0
  0
VERTEX
  5
2F2
  8
T8_DRILL
 10
2.82550508091403
 20
71.02870774565278
 30
0.0
  0
VERTEX
  5
2F3
  8
T8_DRILL
 10
2.827785281402152
 20
71.01943396244198
 30
0.0
  0
VERTEX
  5
2F4
  8
T8_DRILL
 10
2.829612860673969
 20
71.00995629372375
 30
0.0
  0
VERTEX
  5
2F5
  8
T8_DRILL
 10
2.830959126939815
 20
71.00039900254467
 30
0.0
  0
VERTEX
  5
2F6
  8
T8_DRILL
 10
2.831810972223712
 20
70.99088766752976
 30
0.0
  0
VERTEX
  5
2F7
  8
T8_DRILL
 10
2.832178084524344
 20
70.98143584945072
 30
0.0
  0
VERTEX
  5
2F8
  8
T8_DRILL
 10
2.832070151840393
 20
70.97205710907926
 30
0.0
  0
VERTEX
  5
2F9
  8
T8_DRILL
 10
2.831496862170544
 20
70.96276500718706
 30
0.0
  0
VERTEX
  5
2FA
  8
T8_DRILL
 10
2.830467903513481
 20
70.95357310454587
 30
0.0
  0
VERTEX
  5
2FB
  8
T8_DRILL
 10
2.828992963867886
 20
70.94449496192735
 30
0.0
  0
VERTEX
  5
2FC
  8
T8_DRILL
 10
2.827081731232444
 20
70.93554414010325
 30
0.0
  0
VERTEX
  5
2FD
  8
T8_DRILL
 10
2.824743893605838
 20
70.92673419984523
 30
0.0
  0
VERTEX
  5
2FE
  8
T8_DRILL
 10
2.821989138986753
 20
70.91807870192504
 30
0.0
  0
VERTEX
  5
2FF
  8
T8_DRILL
 10
2.818827155373871
 20
70.90959120711435
 30
0.0
  0
VERTEX
  5
300
  8
T8_DRILL
 10
2.815267630765876
 20
70.9012852761849
 30
0.0
  0
VERTEX
  5
301
  8
T8_DRILL
 10
2.811320253161453
 20
70.89317446990835
 30
0.0
  0
VERTEX
  5
302
  8
T8_DRILL
 10
2.806994710559283
 20
70.88527234905645
 30
0.0
  0
VERTEX
  5
303
  8
T8_DRILL
 10
2.802300690958053
 20
70.87759247440087
 30
0.0
  0
VERTEX
  5
304
  8
T8_DRILL
 10
2.797247882356444
 20
70.87014840671337
 30
0.0
  0
VERTEX
  5
305
  8
T8_DRILL
 10
2.791845972753142
 20
70.86295370676561
 30
0.0
  0
VERTEX
  5
306
  8
T8_DRILL
 10
2.786104650146828
 20
70.8560219353293
 30
0.0
  0
VERTEX
  5
307
  8
T8_DRILL
 10
2.780033602536187
 20
70.84936665317613
 30
0.0
  0
VERTEX
  5
308
  8
T8_DRILL
 10
2.773642517919903
 20
70.84300142107786
 30
0.0
  0
VERTEX
  5
309
  8
T8_DRILL
 10
2.76694108429666
 20
70.83693979980615
 30
0.0
  0
VERTEX
  5
30A
  8
T8_DRILL
 10
2.75993898966514
 20
70.83119535013273
 30
0.0
  0
VERTEX
  5
30B
  8
T8_DRILL
 10
2.752645922024028
 20
70.82578163282929
 30
0.0
  0
VERTEX
  5
30C
  8
T8_DRILL
 10
2.745071569372008
 20
70.82071220866756
 30
0.0
  0
VERTEX
  5
30D
  8
T8_DRILL
 10
2.737225619707763
 20
70.81600063841923
 30
0.0
  0
VERTEX
  5
30E
  8
T8_DRILL
 10
2.729117761029976
 20
70.81166048285598
 30
0.0
  0
VERTEX
  5
30F
  8
T8_DRILL
 10
2.720757681337332
 20
70.80770530274955
 30
0.0
  0
VERTEX
  5
310
  8
T8_DRILL
 10
2.712155068628514
 20
70.80414865887164
 30
0.0
  0
VERTEX
  5
311
  8
T8_DRILL
 10
2.703319610902205
 20
70.80100411199396
 30
0.0
  0
VERTEX
  5
312
  8
T8_DRILL
 10
2.69426099615709
 20
70.79828522288821
 30
0.0
  0
VERTEX
  5
313
  8
T8_DRILL
 10
2.684988912391852
 20
70.79600555232608
 30
0.0
  0
SEQEND
  5
76B
  8
T8_DRILL
  0
POLYLINE
  5
75
  8
T8_DRILL
 66
     1
 10
0.0
 20
0.0
 30
0.0
 70
     1
  0
VERTEX
  5
314
  8
T8_DRILL
 10
0.5712051237540869
 20
68.18942025741981
 30
0.0
  0
VERTEX
  5
315
  8
T8_DRILL
 10
0.5616477269440359
 20
68.18807519990281
 30
0.0
  0
VERTEX
  5
316
  8
T8_DRILL
 10
0.5521362583405699
 20
68.18722444932749
 30
0.0
  0
VERTEX
  5
317
  8
T8_DRILL
 10
0.5426842819004152
 20
68.18685832539217
 30
0.0
  0
VERTEX
  5
318
  8
T8_DRILL
 10
0.5333053615802978
 20
68.18696714779529
 30
0.0
  0
VERTEX
  5
319
  8
T8_DRILL
 10
0.5240130613369447
 20
68.18754123623518
 30
0.0
  0
VERTEX
  5
31A
  8
T8_DRILL
 10
0.5148209451270821
 20
68.18857091041019
 30
0.0
  0
VERTEX
  5
31B
  8
T8_DRILL
 10
0.5057425769074362
 20
68.19004649001873
 30
0.0
  0
VERTEX
  5
31C
  8
T8_DRILL
 10
0.4967915206347336
 20
68.19195829475912
 30
0.0
  0
VERTEX
  5
31D
  8
T8_DRILL
 10
0.4879813402657007
 20
68.19429664432975
 30
0.0
  0
VERTEX
  5
31E
  8
T8_DRILL
 10
0.4793255997570637
 20
68.19705185842899
 30
0.0
  0
VERTEX
  5
31F
  8
T8_DRILL
 10
0.4708378630655491
 20
68.2002142567552
 30
0.0
  0
VERTEX
  5
320
  8
T8_DRILL
 10
0.4625316941478834
 20
68.20377415900676
 30
0.0
  0
VERTEX
  5
321
  8
T8_DRILL
 10
0.4544206569607929
 20
68.207721884882
 30
0.0
  0
VERTEX
  5
322
  8
T8_DRILL
 10
0.446518315461004
 20
68.21204775407935
 30
0.0
  0
VERTEX
  5
323
  8
T8_DRILL
 10
0.438838233605243
 20
68.2167420862971
 30
0.0
  0
VERTEX
  5
324
  8
T8_DRILL
 10
0.4313939753502365
 20
68.22179520123368
 30
0.0
  0
VERTEX
  5
325
  8
T8_DRILL
 10
0.4241991046527107
 20
68.22719741858742
 30
0.0
  0
VERTEX
  5
326
  8
T8_DRILL
 10
0.4172671854693921
 20
68.23293905805667
 30
0.0
  0
VERTEX
  5
327
  8
T8_DRILL
 10
0.4106117817570071
 20
68.23901043933986
 30
0.0
  0
VERTEX
  5
328
  8
T8_DRILL
 10
0.4042464574722821
 20
68.24540188213531
 30
0.0
  0
VERTEX
  5
329
  8
T8_DRILL
 10
0.3981847765719434
 20
68.2521037061414
 30
0.0
  0
VERTEX
  5
32A
  8
T8_DRILL
 10
0.3924403030127175
 20
68.2591062310565
 30
0.0
  0
VERTEX
  5
32B
  8
T8_DRILL
 10
0.3870266007513308
 20
68.26639977657896
 30
0.0
  0
VERTEX
  5
32C
  8
T8_DRILL
 10
0.3819572337445095
 20
68.27397466240717
 30
0.0
  0
VERTEX
  5
32D
  8
T8_DRILL
 10
0.3772457659489802
 20
68.28182120823948
 30
0.0
  0
VERTEX
  5
32E
  8
T8_DRILL
 10
0.3729057613214693
 20
68.28992973377426
 30
0.0
  0
VERTEX
  5
32F
  8
T8_DRILL
 10
0.3689507838187031
 20
68.29829055870988
 30
0.0
  0
VERTEX
  5
330
  8
T8_DRILL
 10
0.365394397397408
 20
68.3068940027447
 30
0.0
  0
VERTEX
  5
331
  8
T8_DRILL
 10
0.3622501660143104
 20
68.31573038557708
 30
0.0
  0
VERTEX
  5
332
  8
T8_DRILL
 10
0.3595316536261368
 20
68.32479002690542
 30
0.0
  0
VERTEX
  5
333
  8
T8_DRILL
 10
0.3572524241896134
 20
68.33406324642804
 30
0.0
  0
VERTEX
  5
334
  8
T8_DRILL
 10
0.3554260416614667
 20
68.34354036384336
 30
0.0
  0
VERTEX
  5
335
  8
T8_DRILL
 10
0.354079728229885
 20
68.35309886732469
 30
0.0
  0
VERTEX
  5
336
  8
T8_DRILL
 10
0.3532279208014123
 20
68.36261130493627
 30
0.0
  0
VERTEX
  5
337
  8
T8_DRILL
 10
0.3528609286347469
 20
68.3720641194453
 30
0.0
  0
VERTEX
  5
338
  8
T8_DRILL
 10
0.352969060988587
 20
68.38144375361894
 30
0.0
  0
VERTEX
  5
339
  8
T8_DRILL
 10
0.3535426271216311
 20
68.3907366502244
 30
0.0
  0
VERTEX
  5
33A
  8
T8_DRILL
 10
0.3545719362925773
 20
68.39992925202885
 30
0.0
  0
VERTEX
  5
33B
  8
T8_DRILL
 10
0.356047297760124
 20
68.40900800179949
 30
0.0
  0
VERTEX
  5
33C
  8
T8_DRILL
 10
0.3579590207829696
 20
68.41795934230348
 30
0.0
  0
VERTEX
  5
33D
  8
T8_DRILL
 10
0.3602974146198122
 20
68.426769716308
 30
0.0
  0
VERTEX
  5
33E
  8
T8_DRILL
 10
0.3630527885293503
 20
68.43542556658028
 30
0.0
  0
VERTEX
  5
33F
  8
T8_DRILL
 10
0.366215451770282
 20
68.44391333588746
 30
0.0
  0
VERTEX
  5
340
  8
T8_DRILL
 10
0.3697757136013057
 20
68.45221946699674
 30
0.0
  0
VERTEX
  5
341
  8
T8_DRILL
 10
0.3737238832811197
 20
68.46033040267528
 30
0.0
  0
VERTEX
  5
342
  8
T8_DRILL
 10
0.3780502700684223
 20
68.46823258569032
 30
0.0
  0
VERTEX
  5
343
  8
T8_DRILL
 10
0.3827451832219118
 20
68.47591245880898
 30
0.0
  0
VERTEX
  5
344
  8
T8_DRILL
 10
0.3877989320002864
 20
68.48335646479848
 30
0.0
  0
VERTEX
  5
345
  8
T8_DRILL
 10
0.3932018256622445
 20
68.49055104642598
 30
0.0
  0
VERTEX
  5
346
  8
T8_DRILL
 10
0.3989441734664845
 20
68.49748264645869
 30
0.0
  0
VERTEX
  5
347
  8
T8_DRILL
 10
0.4050162846717045
 20
68.50413770766379
 30
0.0
  0
VERTEX
  5
348
  8
T8_DRILL
 10
0.4114084685366028
 20
68.51050267280844
 30
0.0
  0
VERTEX
  5
349
  8
T8_DRILL
 10
0.4181110343198778
 20
68.51656398465985
 30
0.0
  0
VERTEX
  5
34A
  8
T8_DRILL
 10
0.4251142912802278
 20
68.52230808598519
 30
0.0
  0
VERTEX
  5
34B
  8
T8_DRILL
 10
0.4324085486763511
 20
68.52772141955165
 30
0.0
  0
VERTEX
  5
34C
  8
T8_DRILL
 10
0.4399841157669461
 20
68.5327904281264
 30
0.0
  0
VERTEX
  5
34D
  8
T8_DRILL
 10
0.4478313018107108
 20
68.53750155447665
 30
0.0
  0
VERTEX
  5
34E
  8
T8_DRILL
 10
0.4559404160663437
 20
68.54184124136955
 30
0.0
  0
VERTEX
  5
34F
  8
T8_DRILL
 10
0.4643017677925431
 20
68.54579593157231
 30
0.0
  0
VERTEX
  5
350
  8
T8_DRILL
 10
0.4729056662480073
 20
68.54935206785211
 30
0.0
  0
VERTEX
  5
351
  8
T8_DRILL
 10
0.4817424206914346
 20
68.55249609297613
 30
0.0
  0
VERTEX
  5
352
  8
T8_DRILL
 10
0.4908023403815232
 20
68.55521444971154
 30
0.0
  0
VERTEX
  5
353
  8
T8_DRILL
 10
0.5000757345769714
 20
68.55749358082556
 30
0.0
  0
VERTEX
  5
354
  8
T8_DRILL
 10
0.5095529125364777
 20
68.55931992908535
 30
0.0
  0
VERTEX
  5
355
  8
T8_DRILL
 10
0.5191089965865688
 20
68.56066552961886
 30
0.0
  0
VERTEX
  5
356
  8
T8_DRILL
 10
0.52861915764991
 20
68.56151681984872
 30
0.0
  0
VERTEX
  5
357
  8
T8_DRILL
 10
0.5380698369896088
 20
68.56188347671466
 30
0.0
  0
VERTEX
  5
358
  8
T8_DRILL
 10
0.5474474758687732
 20
68.56177517715632
 30
0.0
  0
VERTEX
  5
359
  8
T8_DRILL
 10
0.5567385155505109
 20
68.5612015981134
 30
0.0
  0
VERTEX
  5
35A
  8
T8_DRILL
 10
0.5659293972979298
 20
68.56017241652555
 30
0.0
  0
VERTEX
  5
35B
  8
T8_DRILL
 10
0.5750065623741375
 20
68.55869730933246
 30
0.0
  0
VERTEX
  5
35C
  8
T8_DRILL
 10
0.583956452042242
 20
68.55678595347382
 30
0.0
  0
VERTEX
  5
35D
  8
T8_DRILL
 10
0.592765507565351
 20
68.55444802588931
 30
0.0
  0
VERTEX
  5
35E
  8
T8_DRILL
 10
0.601420170206572
 20
68.5516932035186
 30
0.0
  0
VERTEX
  5
35F
  8
T8_DRILL
 10
0.6099068812290132
 20
68.54853116330133
 30
0.0
  0
VERTEX
  5
360
  8
T8_DRILL
 10
0.6182120818957823
 20
68.54497158217727
 30
0.0
  0
VERTEX
  5
361
  8
T8_DRILL
 10
0.6263222134699868
 20
68.54102413708603
 30
0.0
  0
VERTEX
  5
362
  8
T8_DRILL
 10
0.6342237172147348
 20
68.53669850496729
 30
0.0
  0
VERTEX
  5
363
  8
T8_DRILL
 10
0.6419030343931338
 20
68.53200436276074
 30
0.0
  0
VERTEX
  5
364
  8
T8_DRILL
 10
0.6493466062682919
 20
68.52695138740609
 30
0.0
  0
VERTEX
  5
365
  8
T8_DRILL
 10
0.6565408741033167
 20
68.52154925584296
 30
0.0
  0
VERTEX
  5
366
  8
T8_DRILL
 10
0.6634722791613159
 20
68.51580764501105
 30
0.0
  0
VERTEX
  5
367
  8
T8_DRILL
 10
0.6701272627053972
 20
68.50973623185007
 30
0.0
  0
VERTEX
  5
368
  8
T8_DRILL
 10
0.6764922659986687
 20
68.50334469329967
 30
0.0
  0
VERTEX
  5
369
  8
T8_DRILL
 10
0.6825537303042382
 20
68.49664270629953
 30
0.0
  0
VERTEX
  5
36A
  8
T8_DRILL
 10
0.688298096885213
 20
68.4896399477893
 30
0.0
  0
VERTEX
  5
36B
  8
T8_DRILL
 10
0.6937118070047015
 20
68.4823460947087
 30
0.0
  0
VERTEX
  5
36C
  8
T8_DRILL
 10
0.6987813019258111
 20
68.47477082399742
 30
0.0
  0
VERTEX
  5
36D
  8
T8_DRILL
 10
0.7034930229116497
 20
68.4669238125951
 30
0.0
  0
VERTEX
  5
36E
  8
T8_DRILL
 10
0.707833411225325
 20
68.45881473744144
 30
0.0
  0
VERTEX
  5
36F
  8
T8_DRILL
 10
0.7117889081299447
 20
68.45045327547612
 30
0.0
  0
VERTEX
  5
370
  8
T8_DRILL
 10
0.7153459548886167
 20
68.44184910363879
 30
0.0
  0
VERTEX
  5
371
  8
T8_DRILL
 10
0.7184909927644489
 20
68.43301189886913
 30
0.0
  0
VERTEX
  5
372
  8
T8_DRILL
 10
0.7212104630205489
 20
68.42395133810686
 30
0.0
  0
VERTEX
  5
373
  8
T8_DRILL
 10
0.7234908069200245
 20
68.41467709829163
 30
0.0
  0
VERTEX
  5
374
  8
T8_DRILL
 10
0.7253184657259837
 20
68.40519885636313
 30
0.0
  0
VERTEX
  5
375
  8
T8_DRILL
 10
0.7266647727162636
 20
68.39564098920181
 30
0.0
  0
VERTEX
  5
376
  8
T8_DRILL
 10
0.7275166482853201
 20
68.38612918950244
 30
0.0
  0
VERTEX
  5
377
  8
T8_DRILL
 10
0.7278837784854246
 20
68.37667701042815
 30
0.0
  0
VERTEX
  5
378
  8
T8_DRILL
 10
0.7277758493688484
 20
68.36729800514206
 30
0.0
  0
VERTEX
  5
379
  8
T8_DRILL
 10
0.7272025469878629
 20
68.3580057268073
 30
0.0
  0
VERTEX
  5
37A
  8
T8_DRILL
 10
0.7261735573947394
 20
68.34881372858698
 30
0.0
  0
VERTEX
  5
37B
  8
T8_DRILL
 10
0.7246985666417494
 20
68.33973556364421
 30
0.0
  0
VERTEX
  5
37C
  8
T8_DRILL
 10
0.7227872607811641
 20
68.33078478514216
 30
0.0
  0
VERTEX
  5
37D
  8
T8_DRILL
 10
0.7204493258652549
 20
68.3219749462439
 30
0.0
  0
VERTEX
  5
37E
  8
T8_DRILL
 10
0.7176944479462932
 20
68.3133196001126
 30
0.0
  0
VERTEX
  5
37F
  8
T8_DRILL
 10
0.7145323130765504
 20
68.30483229991134
 30
0.0
  0
VERTEX
  5
380
  8
T8_DRILL
 10
0.7109726073082978
 20
68.29652659880328
 30
0.0
  0
VERTEX
  5
381
  8
T8_DRILL
 10
0.7070250166938067
 20
68.28841604995152
 30
0.0
  0
VERTEX
  5
382
  8
T8_DRILL
 10
0.7026992272853486
 20
68.2805142065192
 30
0.0
  0
VERTEX
  5
383
  8
T8_DRILL
 10
0.6980049251351949
 20
68.27283462166942
 30
0.0
  0
VERTEX
  5
384
  8
T8_DRILL
 10
0.6929517962956167
 20
68.26539084856532
 30
0.0
  0
VERTEX
  5
385
  8
T8_DRILL
 10
0.6875495268188855
 20
68.25819644037001
 30
0.0
  0
VERTEX
  5
386
  8
T8_DRILL
 10
0.6818078027572727
 20
68.25126495024664
 30
0.0
  0
VERTEX
  5
387
  8
T8_DRILL
 10
0.6757363101630497
 20
68.24460993135831
 30
0.0
  0
VERTEX
  5
388
  8
T8_DRILL
 10
0.6693447350884878
 20
68.23824493686813
 30
0.0
  0
VERTEX
  5
389
  8
T8_DRILL
 10
0.6626427635858584
 20
68.23218351993926
 30
0.0
  0
VERTEX
  5
38A
  8
T8_DRILL
 10
0.6556400817074328
 20
68.2264392337348
 30
0.0
  0
VERTEX
  5
38B
  8
T8_DRILL
 10
0.6483463755054824
 20
68.22102563141786
 30
0.0
  0
VERTEX
  5
38C
  8
T8_DRILL
 10
0.6407713310322786
 20
68.21595626615158
 30
0.0
  0
VERTEX
  5
38D
  8
T8_DRILL
 10
0.6329246343400927
 20
68.2112446910991
 30
0.0
  0
VERTEX
  5
38E
  8
T8_DRILL
 10
0.6248159714811959
 20
68.2069044594235
 30
0.0
  0
VERTEX
  5
38F
  8
T8_DRILL
 10
0.6164550285078598
 20
68.20294912428793
 30
0.0
  0
VERTEX
  5
390
  8
T8_DRILL
 10
0.6078514914723558
 20
68.19939223885552
 30
0.0
  0
VERTEX
  5
391
  8
T8_DRILL
 10
0.5990150464269551
 20
68.19624735628938
 30
0.0
  0
VERTEX
  5
392
  8
T8_DRILL
 10
0.5899553794239292
 20
68.19352802975263
 30
0.0
  0
VERTEX
  5
393
  8
T8_DRILL
 10
0.5806821765155494
 20
68.19124781240839
 30
0.0
  0
SEQEND
  5
76C
  8
T8_DRILL
  0
POLYLINE
  5
76
  8
T8_DRILL
 66
     1
 10
0.0
 20
0.0
 30
0.0
 70
     1
  0
VERTEX
  5
394
  8
T8_DRILL
 10
1.512956984514655
 20
54.61410150679347
 30
0.0
  0
VERTEX
  5
395
  8
T8_DRILL
 10
1.513887793643489
 20
54.60449442636429
 30
0.0
  0
VERTEX
  5
396
  8
T8_DRILL
 10
1.515288506560936
 20
54.59504792858894
 30
0.0
  0
VERTEX
  5
397
  8
T8_DRILL
 10
1.517146527198397
 20
54.58577292317204
 30
0.0
  0
VERTEX
  5
398
  8
T8_DRILL
 10
1.519449259487274
 20
54.57668031981823
 30
0.0
  0
VERTEX
  5
399
  8
T8_DRILL
 10
1.522184107358967
 20
54.56778102823212
 30
0.0
  0
VERTEX
  5
39A
  8
T8_DRILL
 10
1.525338474744879
 20
54.55908595811835
 30
0.0
  0
VERTEX
  5
39B
  8
T8_DRILL
 10
1.528899765576409
 20
54.55060601918153
 30
0.0
  0
VERTEX
  5
39C
  8
T8_DRILL
 10
1.53285538378496
 20
54.54235212112629
 30
0.0
  0
VERTEX
  5
39D
  8
T8_DRILL
 10
1.537192733301934
 20
54.53433517365725
 30
0.0
  0
VERTEX
  5
39E
  8
T8_DRILL
 10
1.54189921805873
 20
54.52656608647904
 30
0.0
  0
VERTEX
  5
39F
  8
T8_DRILL
 10
1.54696224198675
 20
54.51905576929628
 30
0.0
  0
VERTEX
  5
3A0
  8
T8_DRILL
 10
1.552369209017396
 20
54.5118151318136
 30
0.0
  0
VERTEX
  5
3A1
  8
T8_DRILL
 10
1.55810752308207
 20
54.50485508373563
 30
0.0
  0
VERTEX
  5
3A2
  8
T8_DRILL
 10
1.564164588112171
 20
54.49818653476697
 30
0.0
  0
VERTEX
  5
3A3
  8
T8_DRILL
 10
1.570527808039101
 20
54.49182039461227
 30
0.0
  0
VERTEX
  5
3A4
  8
T8_DRILL
 10
1.577184586794263
 20
54.48576757297614
 30
0.0
  0
VERTEX
  5
3A5
  8
T8_DRILL
 10
1.584122328309057
 20
54.4800389795632
 30
0.0
  0
VERTEX
  5
3A6
  8
T8_DRILL
 10
1.591328436514883
 20
54.4746455240781
 30
0.0
  0
VERTEX
  5
3A7
  8
T8_DRILL
 10
1.598790315343145
 20
54.46959811622544
 30
0.0
  0
VERTEX
  5
3A8
  8
T8_DRILL
 10
1.606495368725242
 20
54.46490766570986
 30
0.0
  0
VERTEX
  5
3A9
  8
T8_DRILL
 10
1.614431000592576
 20
54.46058508223597
 30
0.0
  0
VERTEX
  5
3AA
  8
T8_DRILL
 10
1.622584614876548
 20
54.4566412755084
 30
0.0
  0
VERTEX
  5
3AB
  8
T8_DRILL
 10
1.63094361550856
 20
54.45308715523178
 30
0.0
  0
VERTEX
  5
3AC
  8
T8_DRILL
 10
1.639495406420013
 20
54.44993363111073
 30
0.0
  0
VERTEX
  5
3AD
  8
T8_DRILL
 10
1.648227391542308
 20
54.44719161284988
 30
0.0
  0
VERTEX
  5
3AE
  8
T8_DRILL
 10
1.657126974806847
 20
54.44487201015384
 30
0.0
  0
VERTEX
  5
3AF
  8
T8_DRILL
 10
1.666181560145031
 20
54.44298573272724
 30
0.0
  0
VERTEX
  5
3B0
  8
T8_DRILL
 10
1.67537855148826
 20
54.44154369027473
 30
0.0
  0
VERTEX
  5
3B1
  8
T8_DRILL
 10
1.684705352767936
 20
54.4405567925009
 30
0.0
  0
VERTEX
  5
3B2
  8
T8_DRILL
 10
1.694149367915461
 20
54.44003594911038
 30
0.0
  0
VERTEX
  5
3B3
  8
T8_DRILL
 10
1.703698000862236
 20
54.4399920698078
 30
0.0
  0
VERTEX
  5
3B4
  8
T8_DRILL
 10
1.713338655539662
 20
54.4404360642978
 30
0.0
  0
VERTEX
  5
3B5
  8
T8_DRILL
 10
1.722945738711325
 20
54.44136683502978
 30
0.0
  0
VERTEX
  5
3B6
  8
T8_DRILL
 10
1.73239224436026
 20
54.44276743771111
 30
0.0
  0
VERTEX
  5
3B7
  8
T8_DRILL
 10
1.741667262251039
 20
54.44462528370482
 30
0.0
  0
VERTEX
  5
3B8
  8
T8_DRILL
 10
1.750759882148232
 20
54.44692778437399
 30
0.0
  0
VERTEX
  5
3B9
  8
T8_DRILL
 10
1.759659193816412
 20
54.44966235108164
 30
0.0
  0
VERTEX
  5
3BA
  8
T8_DRILL
 10
1.76835428702015
 20
54.45281639519085
 30
0.0
  0
VERTEX
  5
3BB
  8
T8_DRILL
 10
1.776834251524018
 20
54.45637732806465
 30
0.0
  0
VERTEX
  5
3BC
  8
T8_DRILL
 10
1.785088177092589
 20
54.46033256106608
 30
0.0
  0
VERTEX
  5
3BD
  8
T8_DRILL
 10
1.793105153490433
 20
54.46466950555821
 30
0.0
  0
VERTEX
  5
3BE
  8
T8_DRILL
 10
1.800874270482122
 20
54.46937557290408
 30
0.0
  0
VERTEX
  5
3BF
  8
T8_DRILL
 10
1.808384617832228
 20
54.47443817446674
 30
0.0
  0
VERTEX
  5
3C0
  8
T8_DRILL
 10
1.815625285305324
 20
54.47984472160925
 30
0.0
  0
VERTEX
  5
3C1
  8
T8_DRILL
 10
1.82258536266598
 20
54.48558262569465
 30
0.0
  0
VERTEX
  5
3C2
  8
T8_DRILL
 10
1.829253939678768
 20
54.49163929808599
 30
0.0
  0
VERTEX
  5
3C3
  8
T8_DRILL
 10
1.83562010610826
 20
54.49800215014631
 30
0.0
  0
VERTEX
  5
3C4
  8
T8_DRILL
 10
1.841672951719028
 20
54.50465859323869
 30
0.0
  0
VERTEX
  5
3C5
  8
T8_DRILL
 10
1.847401566275644
 20
54.51159603872615
 30
0.0
  0
VERTEX
  5
3C6
  8
T8_DRILL
 10
1.852795039542679
 20
54.51880189797176
 30
0.0
  0
VERTEX
  5
3C7
  8
T8_DRILL
 10
1.857842461284705
 20
54.52626358233855
 30
0.0
  0
VERTEX
  5
3C8
  8
T8_DRILL
 10
1.862532921266293
 20
54.53396850318958
 30
0.0
  0
VERTEX
  5
3C9
  8
T8_DRILL
 10
1.866855509252016
 20
54.5419040718879
 30
0.0
  0
VERTEX
  5
3CA
  8
T8_DRILL
 10
1.870799315006445
 20
54.55005769979656
 30
0.0
  0
VERTEX
  5
3CB
  8
T8_DRILL
 10
1.874353428294152
 20
54.55841679827861
 30
0.0
  0
VERTEX
  5
3CC
  8
T8_DRILL
 10
1.877506938879709
 20
54.5669687786971
 30
0.0
  0
VERTEX
  5
3CD
  8
T8_DRILL
 10
1.880248936527687
 20
54.57570105241508
 30
0.0
  0
VERTEX
  5
3CE
  8
T8_DRILL
 10
1.882568511002658
 20
54.5846010307956
 30
0.0
  0
VERTEX
  5
3CF
  8
T8_DRILL
 10
1.884454752069195
 20
54.59365612520171
 30
0.0
  0
VERTEX
  5
3D0
  8
T8_DRILL
 10
1.885896749491867
 20
54.60285374699646
 30
0.0
  0
VERTEX
  5
3D1
  8
T8_DRILL
 10
1.886883593035248
 20
54.61218130754289
 30
0.0
  0
VERTEX
  5
3D2
  8
T8_DRILL
 10
1.887404372463909
 20
54.62162621820406
 30
0.0
  0
VERTEX
  5
3D3
  8
T8_DRILL
 10
1.887448177542422
 20
54.63117589034301
 30
0.0
  0
VERTEX
  5
3D4
  8
T8_DRILL
 10
1.887004098035359
 20
54.6408177353228
 30
0.0
  0
VERTEX
  5
3D5
  8
T8_DRILL
 10
1.886073327303376
 20
54.65042481849446
 30
0.0
  0
VERTEX
  5
3D6
  8
T8_DRILL
 10
1.884672724622048
 20
54.6598713241434
 30
0.0
  0
VERTEX
  5
3D7
  8
T8_DRILL
 10
1.882814878628326
 20
54.66914634203417
 30
0.0
  0
VERTEX
  5
3D8
  8
T8_DRILL
 10
1.880512377959159
 20
54.67823896193137
 30
0.0
  0
VERTEX
  5
3D9
  8
T8_DRILL
 10
1.877777811251499
 20
54.68713827359954
 30
0.0
  0
VERTEX
  5
3DA
  8
T8_DRILL
 10
1.874623767142295
 20
54.69583336680329
 30
0.0
  0
VERTEX
  5
3DB
  8
T8_DRILL
 10
1.871062834268498
 20
54.70431333130716
 30
0.0
  0
VERTEX
  5
3DC
  8
T8_DRILL
 10
1.867107601267057
 20
54.71256725687572
 30
0.0
  0
VERTEX
  5
3DD
  8
T8_DRILL
 10
1.862770656774924
 20
54.72058423327356
 30
0.0
  0
VERTEX
  5
3DE
  8
T8_DRILL
 10
1.858064589429049
 20
54.72835335026525
 30
0.0
  0
VERTEX
  5
3DF
  8
T8_DRILL
 10
1.853001987866381
 20
54.73586369761536
 30
0.0
  0
VERTEX
  5
3E0
  8
T8_DRILL
 10
1.847595440723872
 20
54.74310436508846
 30
0.0
  0
VERTEX
  5
3E1
  8
T8_DRILL
 10
1.841857536638471
 20
54.75006444244911
 30
0.0
  0
VERTEX
  5
3E2
  8
T8_DRILL
 10
1.835800864247128
 20
54.7567330194619
 30
0.0
  0
VERTEX
  5
3E3
  8
T8_DRILL
 10
1.829438012186795
 20
54.76309918589139
 30
0.0
  0
VERTEX
  5
3E4
  8
T8_DRILL
 10
1.822781569094421
 20
54.76915203150216
 30
0.0
  0
VERTEX
  5
3E5
  8
T8_DRILL
 10
1.815844123606957
 20
54.77488064605878
 30
0.0
  0
VERTEX
  5
3E6
  8
T8_DRILL
 10
1.808638264361353
 20
54.78027411932581
 30
0.0
  0
VERTEX
  5
3E7
  8
T8_DRILL
 10
1.801176579994559
 20
54.78532154106784
 30
0.0
  0
VERTEX
  5
3E8
  8
T8_DRILL
 10
1.793471659143525
 20
54.79001200104943
 30
0.0
  0
VERTEX
  5
3E9
  8
T8_DRILL
 10
1.785536090445202
 20
54.79433458903515
 30
0.0
  0
VERTEX
  5
3EA
  8
T8_DRILL
 10
1.777382462536541
 20
54.79827839478958
 30
0.0
  0
VERTEX
  5
3EB
  8
T8_DRILL
 10
1.769023364054491
 20
54.8018325080773
 30
0.0
  0
VERTEX
  5
3EC
  8
T8_DRILL
 10
1.760471383636003
 20
54.80498601866285
 30
0.0
  0
VERTEX
  5
3ED
  8
T8_DRILL
 10
1.751739109918026
 20
54.80772801631083
 30
0.0
  0
VERTEX
  5
3EE
  8
T8_DRILL
 10
1.742839131537512
 20
54.8100475907858
 30
0.0
  0
VERTEX
  5
3EF
  8
T8_DRILL
 10
1.733784037131411
 20
54.81193383185234
 30
0.0
  0
VERTEX
  5
3F0
  8
T8_DRILL
 10
1.724586415336673
 20
54.81337582927502
 30
0.0
  0
VERTEX
  5
3F1
  8
T8_DRILL
 10
1.715258854790247
 20
54.8143626728184
 30
0.0
  0
VERTEX
  5
3F2
  8
T8_DRILL
 10
1.705813944129086
 20
54.81488345224707
 30
0.0
  0
VERTEX
  5
3F3
  8
T8_DRILL
 10
1.696264271990138
 20
54.81492725732559
 30
0.0
  0
VERTEX
  5
3F4
  8
T8_DRILL
 10
1.686622427010354
 20
54.81448317781852
 30
0.0
  0
VERTEX
  5
3F5
  8
T8_DRILL
 10
1.677016534141048
 20
54.81355249210361
 30
0.0
  0
VERTEX
  5
3F6
  8
T8_DRILL
 10
1.667571067684287
 20
54.81215196364634
 30
0.0
  0
VERTEX
  5
3F7
  8
T8_DRILL
 10
1.658296945307145
 20
54.81029418161448
 30
0.0
  0
VERTEX
  5
3F8
  8
T8_DRILL
 10
1.649205084676701
 20
54.80799173517576
 30
0.0
  0
VERTEX
  5
3F9
  8
T8_DRILL
 10
1.64030640346003
 20
54.80525721349795
 30
0.0
  0
VERTEX
  5
3FA
  8
T8_DRILL
 10
1.63161181932421
 20
54.8021032057488
 30
0.0
  0
VERTEX
  5
3FB
  8
T8_DRILL
 10
1.623132249936316
 20
54.79854230109606
 30
0.0
  0
VERTEX
  5
3FC
  8
T8_DRILL
 10
1.614878612963427
 20
54.7945870887075
 30
0.0
  0
VERTEX
  5
3FD
  8
T8_DRILL
 10
1.606861826072619
 20
54.79025015775086
 30
0.0
  0
VERTEX
  5
3FE
  8
T8_DRILL
 10
1.599092806930967
 20
54.7855440973939
 30
0.0
  0
VERTEX
  5
3FF
  8
T8_DRILL
 10
1.59158247320555
 20
54.78048149680437
 30
0.0
  0
VERTEX
  5
400
  8
T8_DRILL
 10
1.584341742563443
 20
54.77507494515002
 30
0.0
  0
VERTEX
  5
401
  8
T8_DRILL
 10
1.577381532671723
 20
54.76933703159862
 30
0.0
  0
VERTEX
  5
402
  8
T8_DRILL
 10
1.570712761197468
 20
54.76328034531791
 30
0.0
  0
VERTEX
  5
403
  8
T8_DRILL
 10
1.564346345807753
 20
54.75691747547565
 30
0.0
  0
VERTEX
  5
404
  8
T8_DRILL
 10
1.558293204169656
 20
54.75026101123959
 30
0.0
  0
VERTEX
  5
405
  8
T8_DRILL
 10
1.552564253950253
 20
54.7433235417775
 30
0.0
  0
VERTEX
  5
406
  8
T8_DRILL
 10
1.54717041281662
 20
54.73611765625711
 30
0.0
  0
VERTEX
  5
407
  8
T8_DRILL
 10
1.542122598435836
 20
54.72865594384617
 30
0.0
  0
VERTEX
  5
408
  8
T8_DRILL
 10
1.537431728474975
 20
54.72095099371246
 30
0.0
  0
VERTEX
  5
409
  8
T8_DRILL
 10
1.533108720601115
 20
54.71301539502372
 30
0.0
  0
VERTEX
  5
40A
  8
T8_DRILL
 10
1.529164492481333
 20
54.70486173694771
 30
0.0
  0
VERTEX
  5
40B
  8
T8_DRILL
 10
1.525609961782705
 20
54.69650260865218
 30
0.0
  0
VERTEX
  5
40C
  8
T8_DRILL
 10
1.522456046172309
 20
54.68795059930488
 30
0.0
  0
VERTEX
  5
40D
  8
T8_DRILL
 10
1.51971366331722
 20
54.67921829807358
 30
0.0
  0
VERTEX
  5
40E
  8
T8_DRILL
 10
1.517393730884515
 20
54.67031829412602
 30
0.0
  0
VERTEX
  5
40F
  8
T8_DRILL
 10
1.515507166541272
 20
54.66126317662995
 30
0.0
  0
VERTEX
  5
410
  8
T8_DRILL
 10
1.514064887954566
 20
54.65206553475313
 30
0.0
  0
VERTEX
  5
411
  8
T8_DRILL
 10
1.513077812791475
 20
54.64273795766332
 30
0.0
  0
VERTEX
  5
412
  8
T8_DRILL
 10
1.512556858719075
 20
54.63329303452827
 30
0.0
  0
VERTEX
  5
413
  8
T8_DRILL
 10
1.512512943404442
 20
54.62374335451574
 30
0.0
  0
SEQEND
  5
76D
  8
T8_DRILL
  0
POLYLINE
  5
77
  8
T8_DRILL
 66
     1
 10
0.0
 20
0.0
 30
0.0
 70
     1
  0
VERTEX
  5
414
  8
T8_DRILL
 10
1.52661052855523
 20
40.17958518955575
 30
0.0
  0
VERTEX
  5
415
  8
T8_DRILL
 10
1.527541354826646
 20
40.16997840944465
 30
0.0
  0
VERTEX
  5
416
  8
T8_DRILL
 10
1.528942159424195
 20
40.16053217934093
 30
0.0
  0
VERTEX
  5
417
  8
T8_DRILL
 10
1.530800338714931
 20
40.15125741027634
 30
0.0
  0
VERTEX
  5
418
  8
T8_DRILL
 10
1.533103289065904
 20
40.1421650132826
 30
0.0
  0
VERTEX
  5
419
  8
T8_DRILL
 10
1.535838406844166
 20
40.13326589939145
 30
0.0
  0
VERTEX
  5
41A
  8
T8_DRILL
 10
1.53899308841677
 20
40.12457097963461
 30
0.0
  0
VERTEX
  5
41B
  8
T8_DRILL
 10
1.542554730150767
 20
40.11609116504383
 30
0.0
  0
VERTEX
  5
41C
  8
T8_DRILL
 10
1.546510728413208
 20
40.10783736665084
 30
0.0
  0
VERTEX
  5
41D
  8
T8_DRILL
 10
1.550848479571147
 20
40.09982049548736
 30
0.0
  0
VERTEX
  5
41E
  8
T8_DRILL
 10
1.555555379991635
 20
40.09205146258514
 30
0.0
  0
VERTEX
  5
41F
  8
T8_DRILL
 10
1.560618826041723
 20
40.0845411789759
 30
0.0
  0
VERTEX
  5
420
  8
T8_DRILL
 10
1.566026214088464
 20
40.07730055569138
 30
0.0
  0
VERTEX
  5
421
  8
T8_DRILL
 10
1.57176494049891
 20
40.0703405037633
 30
0.0
  0
VERTEX
  5
422
  8
T8_DRILL
 10
1.577822401640112
 20
40.06367193422341
 30
0.0
  0
VERTEX
  5
423
  8
T8_DRILL
 10
1.584185993879121
 20
40.05730575810343
 30
0.0
  0
VERTEX
  5
424
  8
T8_DRILL
 10
1.590843113582992
 20
40.05125288643511
 30
0.0
  0
VERTEX
  5
425
  8
T8_DRILL
 10
1.597781157118774
 20
40.04552423025017
 30
0.0
  0
VERTEX
  5
426
  8
T8_DRILL
 10
1.60498752085352
 20
40.04013070058033
 30
0.0
  0
VERTEX
  5
427
  8
T8_DRILL
 10
1.612449601154282
 20
40.03508320845734
 30
0.0
  0
VERTEX
  5
428
  8
T8_DRILL
 10
1.620154794388112
 20
40.03039266491294
 30
0.0
  0
VERTEX
  5
429
  8
T8_DRILL
 10
1.628090496922062
 20
40.02606998097885
 30
0.0
  0
VERTEX
  5
42A
  8
T8_DRILL
 10
1.636244105123182
 20
40.0221260676868
 30
0.0
  0
VERTEX
  5
42B
  8
T8_DRILL
 10
1.644603015358526
 20
40.01857183606852
 30
0.0
  0
VERTEX
  5
42C
  8
T8_DRILL
 10
1.653154623995146
 20
40.01541819715577
 30
0.0
  0
VERTEX
  5
42D
  8
T8_DRILL
 10
1.661886327400092
 20
40.01267606198025
 30
0.0
  0
VERTEX
  5
42E
  8
T8_DRILL
 10
1.670785521940418
 20
40.01035634157371
 30
0.0
  0
VERTEX
  5
42F
  8
T8_DRILL
 10
1.679839603983174
 20
40.00846994696789
 30
0.0
  0
VERTEX
  5
430
  8
T8_DRILL
 10
1.689035969895413
 20
40.0070277891945
 30
0.0
  0
VERTEX
  5
431
  8
T8_DRILL
 10
1.698362016044187
 20
40.00604077928529
 30
0.0
  0
VERTEX
  5
432
  8
T8_DRILL
 10
1.707805138796548
 20
40.00551982827199
 30
0.0
  0
VERTEX
  5
433
  8
T8_DRILL
 10
1.717352734519547
 20
40.00547584718632
 30
0.0
  0
VERTEX
  5
434
  8
T8_DRILL
 10
1.726992199580236
 20
40.00591974706003
 30
0.0
  0
VERTEX
  5
435
  8
T8_DRILL
 10
1.736599282066288
 20
40.00685052739122
 30
0.0
  0
VERTEX
  5
436
  8
T8_DRILL
 10
1.746045785746835
 20
40.00825115763158
 30
0.0
  0
VERTEX
  5
437
  8
T8_DRILL
 10
1.755320800519148
 20
40.01010904728624
 30
0.0
  0
VERTEX
  5
438
  8
T8_DRILL
 10
1.764413416280502
 20
40.01241160586034
 30
0.0
  0
VERTEX
  5
439
  8
T8_DRILL
 10
1.773312722928168
 20
40.015146242859
 30
0.0
  0
VERTEX
  5
43A
  8
T8_DRILL
 10
1.782007810359419
 20
40.01830036778738
 30
0.0
  0
VERTEX
  5
43B
  8
T8_DRILL
 10
1.790487768471529
 20
40.0218613901506
 30
0.0
  0
VERTEX
  5
43C
  8
T8_DRILL
 10
1.798741687161769
 20
40.02581671945383
 30
0.0
  0
VERTEX
  5
43D
  8
T8_DRILL
 10
1.806758656327413
 20
40.03015376520217
 30
0.0
  0
VERTEX
  5
43E
  8
T8_DRILL
 10
1.814527765865734
 20
40.03485993690077
 30
0.0
  0
VERTEX
  5
43F
  8
T8_DRILL
 10
1.822038105674003
 20
40.03992264405478
 30
0.0
  0
VERTEX
  5
440
  8
T8_DRILL
 10
1.829278765649495
 20
40.04532929616932
 30
0.0
  0
VERTEX
  5
441
  8
T8_DRILL
 10
1.836238835689481
 20
40.05106730274954
 30
0.0
  0
VERTEX
  5
442
  8
T8_DRILL
 10
1.842907405691234
 20
40.05712407330057
 30
0.0
  0
VERTEX
  5
443
  8
T8_DRILL
 10
1.849273565552027
 20
40.06348701732756
 30
0.0
  0
VERTEX
  5
444
  8
T8_DRILL
 10
1.855326405169134
 20
40.07014354433563
 30
0.0
  0
VERTEX
  5
445
  8
T8_DRILL
 10
1.861055014439825
 20
40.07708106382992
 30
0.0
  0
VERTEX
  5
446
  8
T8_DRILL
 10
1.866448483261375
 20
40.08428698531559
 30
0.0
  0
VERTEX
  5
447
  8
T8_DRILL
 10
1.871495901531057
 20
40.09174871829775
 30
0.0
  0
VERTEX
  5
448
  8
T8_DRILL
 10
1.876186359146141
 20
40.09945367228155
 30
0.0
  0
VERTEX
  5
449
  8
T8_DRILL
 10
1.880508946003903
 20
40.10738925677212
 30
0.0
  0
VERTEX
  5
44A
  8
T8_DRILL
 10
1.884452752001613
 20
40.11554288127461
 30
0.0
  0
VERTEX
  5
44B
  8
T8_DRILL
 10
1.888006867036546
 20
40.12390195529416
 30
0.0
  0
VERTEX
  5
44C
  8
T8_DRILL
 10
1.891160381005974
 20
40.13245388833589
 30
0.0
  0
VERTEX
  5
44D
  8
T8_DRILL
 10
1.893902383807168
 20
40.14118608990494
 30
0.0
  0
VERTEX
  5
44E
  8
T8_DRILL
 10
1.896221965337404
 20
40.15008596950646
 30
0.0
  0
VERTEX
  5
44F
  8
T8_DRILL
 10
1.898108215493952
 20
40.15914093664558
 30
0.0
  0
VERTEX
  5
450
  8
T8_DRILL
 10
1.899550224174086
 20
40.16833840082745
 30
0.0
  0
VERTEX
  5
451
  8
T8_DRILL
 10
1.900537081275078
 20
40.17766577155719
 30
0.0
  0
VERTEX
  5
452
  8
T8_DRILL
 10
1.901057876694202
 20
40.18711045833994
 30
0.0
  0
VERTEX
  5
453
  8
T8_DRILL
 10
1.901101700328729
 20
40.19665987068085
 30
0.0
  0
VERTEX
  5
454
  8
T8_DRILL
 10
1.900657642075934
 20
40.20630141808505
 30
0.0
  0
VERTEX
  5
455
  8
T8_DRILL
 10
1.899726892598219
 20
40.21590820368112
 30
0.0
  0
VERTEX
  5
456
  8
T8_DRILL
 10
1.898326308472907
 20
40.22535444953202
 30
0.0
  0
VERTEX
  5
457
  8
T8_DRILL
 10
1.89646847846965
 20
40.23462924354439
 30
0.0
  0
VERTEX
  5
458
  8
T8_DRILL
 10
1.894165991358098
 20
40.2437216736249
 30
0.0
  0
VERTEX
  5
459
  8
T8_DRILL
 10
1.891431435907903
 20
40.2526208276802
 30
0.0
  0
VERTEX
  5
45A
  8
T8_DRILL
 10
1.888277400888716
 20
40.26131579361696
 30
0.0
  0
VERTEX
  5
45B
  8
T8_DRILL
 10
1.884716475070189
 20
40.26979565934184
 30
0.0
  0
VERTEX
  5
45C
  8
T8_DRILL
 10
1.880761247221971
 20
40.27804951276148
 30
0.0
  0
VERTEX
  5
45D
  8
T8_DRILL
 10
1.876424306113716
 20
40.28606644178257
 30
0.0
  0
VERTEX
  5
45E
  8
T8_DRILL
 10
1.871718240515073
 20
40.29383553431175
 30
0.0
  0
VERTEX
  5
45F
  8
T8_DRILL
 10
1.866655639195694
 20
40.30134587825569
 30
0.0
  0
VERTEX
  5
460
  8
T8_DRILL
 10
1.861249090925229
 20
40.30858656152103
 30
0.0
  0
VERTEX
  5
461
  8
T8_DRILL
 10
1.855511184473332
 20
40.31554667201445
 30
0.0
  0
VERTEX
  5
462
  8
T8_DRILL
 10
1.849454508609651
 20
40.3222152976426
 30
0.0
  0
VERTEX
  5
463
  8
T8_DRILL
 10
1.84309165210384
 20
40.32858152631215
 30
0.0
  0
VERTEX
  5
464
  8
T8_DRILL
 10
1.836435203725548
 20
40.33463444592975
 30
0.0
  0
VERTEX
  5
465
  8
T8_DRILL
 10
1.829497752244427
 20
40.34036314440207
 30
0.0
  0
VERTEX
  5
466
  8
T8_DRILL
 10
1.822291886430128
 20
40.34575670963575
 30
0.0
  0
VERTEX
  5
467
  8
T8_DRILL
 10
1.814830195052302
 20
40.35080422953747
 30
0.0
  0
VERTEX
  5
468
  8
T8_DRILL
 10
1.807125266880601
 20
40.35549479201387
 30
0.0
  0
VERTEX
  5
469
  8
T8_DRILL
 10
1.799189690684676
 20
40.35981748497162
 30
0.0
  0
VERTEX
  5
46A
  8
T8_DRILL
 10
1.791036055234178
 20
40.36376139631739
 30
0.0
  0
VERTEX
  5
46B
  8
T8_DRILL
 10
1.782676949298757
 20
40.36731561395783
 30
0.0
  0
VERTEX
  5
46C
  8
T8_DRILL
 10
1.774124961648066
 20
40.3704692257996
 30
0.0
  0
VERTEX
  5
46D
  8
T8_DRILL
 10
1.765392681051755
 20
40.37321131974935
 30
0.0
  0
VERTEX
  5
46E
  8
T8_DRILL
 10
1.756492696279475
 20
40.37553098371376
 30
0.0
  0
VERTEX
  5
46F
  8
T8_DRILL
 10
1.747437596100879
 20
40.37741730559947
 30
0.0
  0
VERTEX
  5
470
  8
T8_DRILL
 10
1.738239969285616
 20
40.37885937331315
 30
0.0
  0
VERTEX
  5
471
  8
T8_DRILL
 10
1.728912404603338
 20
40.37984627476146
 30
0.0
  0
VERTEX
  5
472
  8
T8_DRILL
 10
1.719467490823697
 20
40.38036709785106
 30
0.0
  0
VERTEX
  5
473
  8
T8_DRILL
 10
1.709917816716343
 20
40.38041093048859
 30
0.0
  0
VERTEX
  5
474
  8
T8_DRILL
 10
1.700275971050928
 20
40.37996686058075
 30
0.0
  0
VERTEX
  5
475
  8
T8_DRILL
 10
1.690671269169602
 20
40.37903625028369
 30
0.0
  0
VERTEX
  5
476
  8
T8_DRILL
 10
1.681226843873411
 20
40.37763576849145
 30
0.0
  0
VERTEX
  5
477
  8
T8_DRILL
 10
1.671953620128378
 20
40.3757780067605
 30
0.0
  0
VERTEX
  5
478
  8
T8_DRILL
 10
1.662862522900528
 20
40.37347555664731
 30
0.0
  0
VERTEX
  5
479
  8
T8_DRILL
 10
1.653964477155885
 20
40.37074100970834
 30
0.0
  0
VERTEX
  5
47A
  8
T8_DRILL
 10
1.645270407860474
 20
40.36758695750007
 30
0.0
  0
VERTEX
  5
47B
  8
T8_DRILL
 10
1.636791239980318
 20
40.36402599157898
 30
0.0
  0
VERTEX
  5
47C
  8
T8_DRILL
 10
1.628537898481442
 20
40.36007070350152
 30
0.0
  0
VERTEX
  5
47D
  8
T8_DRILL
 10
1.62052130832987
 20
40.35573368482417
 30
0.0
  0
VERTEX
  5
47E
  8
T8_DRILL
 10
1.612752394491625
 20
40.35102752710339
 30
0.0
  0
VERTEX
  5
47F
  8
T8_DRILL
 10
1.605242081932733
 20
40.34596482189567
 30
0.0
  0
VERTEX
  5
480
  8
T8_DRILL
 10
1.598001295619218
 20
40.34055816075746
 30
0.0
  0
VERTEX
  5
481
  8
T8_DRILL
 10
1.591040960517103
 20
40.33482013524524
 30
0.0
  0
VERTEX
  5
482
  8
T8_DRILL
 10
1.584372001592413
 20
40.32876333691548
 30
0.0
  0
VERTEX
  5
483
  8
T8_DRILL
 10
1.578005343811173
 20
40.32240035732465
 30
0.0
  0
VERTEX
  5
484
  8
T8_DRILL
 10
1.571951912139405
 20
40.31574378802921
 30
0.0
  0
VERTEX
  5
485
  8
T8_DRILL
 10
1.566222631543135
 20
40.30880622058564
 30
0.0
  0
VERTEX
  5
486
  8
T8_DRILL
 10
1.560828426988386
 20
40.30160024655041
 30
0.0
  0
VERTEX
  5
487
  8
T8_DRILL
 10
1.555780223441184
 20
40.29413845747999
 30
0.0
  0
VERTEX
  5
488
  8
T8_DRILL
 10
1.551088945867551
 20
40.28643344493084
 30
0.0
  0
VERTEX
  5
489
  8
T8_DRILL
 10
1.546765519233513
 20
40.27849780045943
 30
0.0
  0
VERTEX
  5
48A
  8
T8_DRILL
 10
1.542820868505093
 20
40.27034411562225
 30
0.0
  0
VERTEX
  5
48B
  8
T8_DRILL
 10
1.539265918648316
 20
40.26198498197576
 30
0.0
  0
VERTEX
  5
48C
  8
T8_DRILL
 10
1.536111594629205
 20
40.25343299107642
 30
0.0
  0
VERTEX
  5
48D
  8
T8_DRILL
 10
1.533368821413786
 20
40.24470073448071
 30
0.0
  0
VERTEX
  5
48E
  8
T8_DRILL
 10
1.531048523968081
 20
40.23580080374509
 30
0.0
  0
VERTEX
  5
48F
  8
T8_DRILL
 10
1.529161627258116
 20
40.22674579042604
 30
0.0
  0
VERTEX
  5
490
  8
T8_DRILL
 10
1.527719056249915
 20
40.21754828608003
 30
0.0
  0
VERTEX
  5
491
  8
T8_DRILL
 10
1.526731735909502
 20
40.20822088226353
 30
0.0
  0
VERTEX
  5
492
  8
T8_DRILL
 10
1.5262105912029
 20
40.19877617053301
 30
0.0
  0
VERTEX
  5
493
  8
T8_DRILL
 10
1.526166547096135
 20
40.18922674244493
 30
0.0
  0
SEQEND
  5
76E
  8
T8_DRILL
  0
POLYLINE
  5
78
  8
T8_DRILL
 66
     1
 10
0.0
 20
0.0
 30
0.0
 70
     1
  0
VERTEX
  5
494
  8
T8_DRILL
 10
1.601611758987364
 20
25.72535510098551
 30
0.0
  0
VERTEX
  5
495
  8
T8_DRILL
 10
1.602542529719347
 20
25.71574801781384
 30
0.0
  0
VERTEX
  5
496
  8
T8_DRILL
 10
1.603943132400675
 20
25.70630151216491
 30
0.0
  0
VERTEX
  5
497
  8
T8_DRILL
 10
1.605800978394397
 20
25.69702649427413
 30
0.0
  0
VERTEX
  5
498
  8
T8_DRILL
 10
1.608103479063563
 20
25.68793387437693
 30
0.0
  0
VERTEX
  5
499
  8
T8_DRILL
 10
1.610838045771224
 20
25.67903456270875
 30
0.0
  0
VERTEX
  5
49A
  8
T8_DRILL
 10
1.613992089880428
 20
25.67033946950501
 30
0.0
  0
VERTEX
  5
49B
  8
T8_DRILL
 10
1.617553022754225
 20
25.66185950500114
 30
0.0
  0
VERTEX
  5
49C
  8
T8_DRILL
 10
1.621508255755666
 20
25.65360557943257
 30
0.0
  0
VERTEX
  5
49D
  8
T8_DRILL
 10
1.625845200247799
 20
25.64558860303472
 30
0.0
  0
VERTEX
  5
49E
  8
T8_DRILL
 10
1.630551267593674
 20
25.63781948604304
 30
0.0
  0
VERTEX
  5
49F
  8
T8_DRILL
 10
1.635613869156342
 20
25.63030913869293
 30
0.0
  0
VERTEX
  5
4A0
  8
T8_DRILL
 10
1.641020416298852
 20
25.62306847121983
 30
0.0
  0
VERTEX
  5
4A1
  8
T8_DRILL
 10
1.646758320384253
 20
25.61610839385918
 30
0.0
  0
VERTEX
  5
4A2
  8
T8_DRILL
 10
1.652814992775595
 20
25.60943981684639
 30
0.0
  0
VERTEX
  5
4A3
  8
T8_DRILL
 10
1.659177844835928
 20
25.6030736504169
 30
0.0
  0
VERTEX
  5
4A4
  8
T8_DRILL
 10
1.665834287928302
 20
25.59702080480614
 30
0.0
  0
VERTEX
  5
4A5
  8
T8_DRILL
 10
1.672771733415766
 20
25.59129219024952
 30
0.0
  0
VERTEX
  5
4A6
  8
T8_DRILL
 10
1.679977592661371
 20
25.58589871698249
 30
0.0
  0
VERTEX
  5
4A7
  8
T8_DRILL
 10
1.687439277028165
 20
25.58085129524046
 30
0.0
  0
VERTEX
  5
4A8
  8
T8_DRILL
 10
1.695144197879198
 20
25.57616083525888
 30
0.0
  0
VERTEX
  5
4A9
  8
T8_DRILL
 10
1.703079766577521
 20
25.57183824727316
 30
0.0
  0
VERTEX
  5
4AA
  8
T8_DRILL
 10
1.711233394486182
 20
25.56789444151873
 30
0.0
  0
VERTEX
  5
4AB
  8
T8_DRILL
 10
1.719592492968232
 20
25.56434032823103
 30
0.0
  0
VERTEX
  5
4AC
  8
T8_DRILL
 10
1.72814447338672
 20
25.56118681764547
 30
0.0
  0
VERTEX
  5
4AD
  8
T8_DRILL
 10
1.736876747104697
 20
25.5584448199975
 30
0.0
  0
VERTEX
  5
4AE
  8
T8_DRILL
 10
1.745776725485211
 20
25.55612524552252
 30
0.0
  0
VERTEX
  5
4AF
  8
T8_DRILL
 10
1.754831819891312
 20
25.55423900445599
 30
0.0
  0
VERTEX
  5
4B0
  8
T8_DRILL
 10
1.764029441686051
 20
25.55279700703332
 30
0.0
  0
VERTEX
  5
4B1
  8
T8_DRILL
 10
1.773357002232476
 20
25.55181016348993
 30
0.0
  0
VERTEX
  5
4B2
  8
T8_DRILL
 10
1.782801912893638
 20
25.55128938406127
 30
0.0
  0
VERTEX
  5
4B3
  8
T8_DRILL
 10
1.792351585032586
 20
25.55124557898276
 30
0.0
  0
VERTEX
  5
4B4
  8
T8_DRILL
 10
1.801993430012369
 20
25.55168965848982
 30
0.0
  0
VERTEX
  5
4B5
  8
T8_DRILL
 10
1.811599322881685
 20
25.55262034420473
 30
0.0
  0
VERTEX
  5
4B6
  8
T8_DRILL
 10
1.821044789338455
 20
25.554020872662
 30
0.0
  0
VERTEX
  5
4B7
  8
T8_DRILL
 10
1.830318911715604
 20
25.55587865469387
 30
0.0
  0
VERTEX
  5
4B8
  8
T8_DRILL
 10
1.839410772346055
 20
25.55818110113258
 30
0.0
  0
VERTEX
  5
4B9
  8
T8_DRILL
 10
1.848309453562731
 20
25.56091562281039
 30
0.0
  0
VERTEX
  5
4BA
  8
T8_DRILL
 10
1.857004037698555
 20
25.56406963055953
 30
0.0
  0
VERTEX
  5
4BB
  8
T8_DRILL
 10
1.865483607086452
 20
25.56763053521226
 30
0.0
  0
VERTEX
  5
4BC
  8
T8_DRILL
 10
1.873737244059343
 20
25.57158574760082
 30
0.0
  0
VERTEX
  5
4BD
  8
T8_DRILL
 10
1.881754030950153
 20
25.57592267855746
 30
0.0
  0
VERTEX
  5
4BE
  8
T8_DRILL
 10
1.889523050091805
 20
25.58062873891441
 30
0.0
  0
VERTEX
  5
4BF
  8
T8_DRILL
 10
1.897033383817223
 20
25.58569133950394
 30
0.0
  0
VERTEX
  5
4C0
  8
T8_DRILL
 10
1.904274114459329
 20
25.59109789115828
 30
0.0
  0
VERTEX
  5
4C1
  8
T8_DRILL
 10
1.911234324351048
 20
25.59683580470968
 30
0.0
  0
VERTEX
  5
4C2
  8
T8_DRILL
 10
1.917903095825302
 20
25.60289249099039
 30
0.0
  0
VERTEX
  5
4C3
  8
T8_DRILL
 10
1.924269511215015
 20
25.60925536083265
 30
0.0
  0
VERTEX
  5
4C4
  8
T8_DRILL
 10
1.930322652853109
 20
25.61591182506871
 30
0.0
  0
VERTEX
  5
4C5
  8
T8_DRILL
 10
1.93605160307251
 20
25.62284929453081
 30
0.0
  0
VERTEX
  5
4C6
  8
T8_DRILL
 10
1.941445444206139
 20
25.6300551800512
 30
0.0
  0
VERTEX
  5
4C7
  8
T8_DRILL
 10
1.94649325858692
 20
25.63751689246212
 30
0.0
  0
VERTEX
  5
4C8
  8
T8_DRILL
 10
1.951184128547778
 20
25.64522184259583
 30
0.0
  0
VERTEX
  5
4C9
  8
T8_DRILL
 10
1.955507136421634
 20
25.65315744128457
 30
0.0
  0
VERTEX
  5
4CA
  8
T8_DRILL
 10
1.959451364541412
 20
25.66131109936057
 30
0.0
  0
VERTEX
  5
4CB
  8
T8_DRILL
 10
1.963005895240036
 20
25.66967022765611
 30
0.0
  0
VERTEX
  5
4CC
  8
T8_DRILL
 10
1.96615981085043
 20
25.6782222370034
 30
0.0
  0
VERTEX
  5
4CD
  8
T8_DRILL
 10
1.968902193705515
 20
25.6869545382347
 30
0.0
  0
VERTEX
  5
4CE
  8
T8_DRILL
 10
1.971222126138217
 20
25.69585454218227
 30
0.0
  0
VERTEX
  5
4CF
  8
T8_DRILL
 10
1.973108690481458
 20
25.70490965967834
 30
0.0
  0
VERTEX
  5
4D0
  8
T8_DRILL
 10
1.974550969068161
 20
25.71410730155515
 30
0.0
  0
VERTEX
  5
4D1
  8
T8_DRILL
 10
1.97553804423125
 20
25.72343487864497
 30
0.0
  0
VERTEX
  5
4D2
  8
T8_DRILL
 10
1.976058998303648
 20
25.73287980178002
 30
0.0
  0
VERTEX
  5
4D3
  8
T8_DRILL
 10
1.976102913618279
 20
25.74242948179255
 30
0.0
  0
VERTEX
  5
4D4
  8
T8_DRILL
 10
1.975658872508066
 20
25.75207132951483
 30
0.0
  0
VERTEX
  5
4D5
  8
T8_DRILL
 10
1.974728105887768
 20
25.76167781479283
 30
0.0
  0
VERTEX
  5
4D6
  8
T8_DRILL
 10
1.973327430082352
 20
25.77112379297209
 30
0.0
  0
VERTEX
  5
4D7
  8
T8_DRILL
 10
1.97146944142582
 20
25.78039835063216
 30
0.0
  0
VERTEX
  5
4D8
  8
T8_DRILL
 10
1.969166736252172
 20
25.7894905743526
 30
0.0
  0
VERTEX
  5
4D9
  8
T8_DRILL
 10
1.966431910895407
 20
25.79838955071295
 30
0.0
  0
VERTEX
  5
4DA
  8
T8_DRILL
 10
1.963277561689528
 20
25.80708436629277
 30
0.0
  0
VERTEX
  5
4DB
  8
T8_DRILL
 10
1.959716284968534
 20
25.81556410767161
 30
0.0
  0
VERTEX
  5
4DC
  8
T8_DRILL
 10
1.955760677066426
 20
25.823817861429
 30
0.0
  0
VERTEX
  5
4DD
  8
T8_DRILL
 10
1.951423334317205
 20
25.83183471414452
 30
0.0
  0
VERTEX
  5
4DE
  8
T8_DRILL
 10
1.94671685305487
 20
25.83960375239771
 30
0.0
  0
VERTEX
  5
4DF
  8
T8_DRILL
 10
1.941653829613423
 20
25.84711406276813
 30
0.0
  0
VERTEX
  5
4E0
  8
T8_DRILL
 10
1.936246860326865
 20
25.85435473183532
 30
0.0
  0
VERTEX
  5
4E1
  8
T8_DRILL
 10
1.930508541529195
 20
25.86131484617883
 30
0.0
  0
VERTEX
  5
4E2
  8
T8_DRILL
 10
1.924451469554414
 20
25.86798349237822
 30
0.0
  0
VERTEX
  5
4E3
  8
T8_DRILL
 10
1.918088240736523
 20
25.87434975701303
 30
0.0
  0
VERTEX
  5
4E4
  8
T8_DRILL
 10
1.911431451409523
 20
25.88040272666283
 30
0.0
  0
VERTEX
  5
4E5
  8
T8_DRILL
 10
1.904493697907413
 20
25.88613148790715
 30
0.0
  0
VERTEX
  5
4E6
  8
T8_DRILL
 10
1.897287576564195
 20
25.89152512732556
 30
0.0
  0
VERTEX
  5
4E7
  8
T8_DRILL
 10
1.889825683713869
 20
25.8965727314976
 30
0.0
  0
VERTEX
  5
4E8
  8
T8_DRILL
 10
1.882120615690436
 20
25.90126338700282
 30
0.0
  0
VERTEX
  5
4E9
  8
T8_DRILL
 10
1.874184968827896
 20
25.90558618042077
 30
0.0
  0
VERTEX
  5
4EA
  8
T8_DRILL
 10
1.866031339460249
 20
25.90953019833102
 30
0.0
  0
VERTEX
  5
4EB
  8
T8_DRILL
 10
1.857672323921497
 20
25.9130845273131
 30
0.0
  0
VERTEX
  5
4EC
  8
T8_DRILL
 10
1.849120518545639
 20
25.91623825394657
 30
0.0
  0
VERTEX
  5
4ED
  8
T8_DRILL
 10
1.840388519666677
 20
25.91898046481098
 30
0.0
  0
VERTEX
  5
4EE
  8
T8_DRILL
 10
1.831488923618611
 20
25.92130024648588
 30
0.0
  0
VERTEX
  5
4EF
  8
T8_DRILL
 10
1.822434326735441
 20
25.92318668555083
 30
0.0
  0
VERTEX
  5
4F0
  8
T8_DRILL
 10
1.813237325351169
 20
25.92462886858537
 30
0.0
  0
VERTEX
  5
4F1
  8
T8_DRILL
 10
1.803910515799794
 20
25.92561588216906
 30
0.0
  0
VERTEX
  5
4F2
  8
T8_DRILL
 10
1.794466494415317
 20
25.92613681288144
 30
0.0
  0
VERTEX
  5
4F3
  8
T8_DRILL
 10
1.784917857531739
 20
25.92618074730207
 30
0.0
  0
VERTEX
  5
4F4
  8
T8_DRILL
 10
1.77527720148306
 20
25.9257367720105
 30
0.0
  0
VERTEX
  5
4F5
  8
T8_DRILL
 10
1.765670119682639
 20
25.92480598208009
 30
0.0
  0
VERTEX
  5
4F6
  8
T8_DRILL
 10
1.756223617970499
 20
25.92340532428071
 30
0.0
  0
VERTEX
  5
4F7
  8
T8_DRILL
 10
1.746948606316665
 20
25.92154739096512
 30
0.0
  0
VERTEX
  5
4F8
  8
T8_DRILL
 10
1.737855994691164
 20
25.9192447744861
 30
0.0
  0
VERTEX
  5
4F9
  8
T8_DRILL
 10
1.728956693064023
 20
25.91651006719642
 30
0.0
  0
VERTEX
  5
4FA
  8
T8_DRILL
 10
1.720261611405266
 20
25.91335586144887
 30
0.0
  0
VERTEX
  5
4FB
  8
T8_DRILL
 10
1.711781659684922
 20
25.90979474959621
 30
0.0
  0
VERTEX
  5
4FC
  8
T8_DRILL
 10
1.703527747873016
 20
25.90583932399121
 30
0.0
  0
VERTEX
  5
4FD
  8
T8_DRILL
 10
1.695510785939575
 20
25.90150217698666
 30
0.0
  0
VERTEX
  5
4FE
  8
T8_DRILL
 10
1.687741683854626
 20
25.89679590093533
 30
0.0
  0
VERTEX
  5
4FF
  8
T8_DRILL
 10
1.680231351588193
 20
25.89173308818999
 30
0.0
  0
VERTEX
  5
500
  8
T8_DRILL
 10
1.672990699110304
 20
25.88632633110341
 30
0.0
  0
VERTEX
  5
501
  8
T8_DRILL
 10
1.666030636390986
 20
25.88058822202837
 30
0.0
  0
VERTEX
  5
502
  8
T8_DRILL
 10
1.659362073400264
 20
25.87453135331766
 30
0.0
  0
VERTEX
  5
503
  8
T8_DRILL
 10
1.652995920108165
 20
25.86816831732403
 30
0.0
  0
VERTEX
  5
504
  8
T8_DRILL
 10
1.646943086484716
 20
25.86151170640026
 30
0.0
  0
VERTEX
  5
505
  8
T8_DRILL
 10
1.641214482499942
 20
25.85457411289913
 30
0.0
  0
VERTEX
  5
506
  8
T8_DRILL
 10
1.63582101812387
 20
25.84736812917342
 30
0.0
  0
VERTEX
  5
507
  8
T8_DRILL
 10
1.630773603326527
 20
25.83990634757589
 30
0.0
  0
VERTEX
  5
508
  8
T8_DRILL
 10
1.626083148077939
 20
25.83220136045933
 30
0.0
  0
VERTEX
  5
509
  8
T8_DRILL
 10
1.621760562348132
 20
25.8242657601765
 30
0.0
  0
VERTEX
  5
50A
  8
T8_DRILL
 10
1.617816756107133
 20
25.81611213908019
 30
0.0
  0
VERTEX
  5
50B
  8
T8_DRILL
 10
1.614262639324968
 20
25.80775308952315
 30
0.0
  0
VERTEX
  5
50C
  8
T8_DRILL
 10
1.611109121971663
 20
25.79920120385818
 30
0.0
  0
VERTEX
  5
50D
  8
T8_DRILL
 10
1.608367114017245
 20
25.79046907443804
 30
0.0
  0
VERTEX
  5
50E
  8
T8_DRILL
 10
1.60604752543174
 20
25.78156929361552
 30
0.0
  0
VERTEX
  5
50F
  8
T8_DRILL
 10
1.604161266185174
 20
25.77251445374337
 30
0.0
  0
VERTEX
  5
510
  8
T8_DRILL
 10
1.602719246247575
 20
25.76331714717438
 30
0.0
  0
VERTEX
  5
511
  8
T8_DRILL
 10
1.601732375588968
 20
25.75398996626133
 30
0.0
  0
VERTEX
  5
512
  8
T8_DRILL
 10
1.601211564179379
 20
25.74454550335698
 30
0.0
  0
VERTEX
  5
513
  8
T8_DRILL
 10
1.601167721988836
 20
25.73499635081412
 30
0.0
  0
SEQEND
  5
76F
  8
T8_DRILL
  0
POLYLINE
  5
79
  8
T8_DRILL
 66
     1
 10
0.0
 20
0.0
 30
0.0
 70
     1
  0
VERTEX
  5
514
  8
T8_DRILL
 10
1.750242618736076
 20
11.82536774842658
 30
0.0
  0
VERTEX
  5
515
  8
T8_DRILL
 10
1.7405931463266
 20
11.82512381318421
 30
0.0
  0
VERTEX
  5
516
  8
T8_DRILL
 10
1.731070415026347
 20
11.82439978744039
 30
0.0
  0
VERTEX
  5
517
  8
T8_DRILL
 10
1.721686199527418
 20
11.82320745137183
 30
0.0
  0
VERTEX
  5
518
  8
T8_DRILL
 10
1.712452274521911
 20
11.82155858515525
 30
0.0
  0
VERTEX
  5
519
  8
T8_DRILL
 10
1.703380414701926
 20
11.81946496896736
 30
0.0
  0
VERTEX
  5
51A
  8
T8_DRILL
 10
1.694482394759562
 20
11.81693838298487
 30
0.0
  0
VERTEX
  5
51B
  8
T8_DRILL
 10
1.68576998938692
 20
11.8139906073845
 30
0.0
  0
VERTEX
  5
51C
  8
T8_DRILL
 10
1.677254973276096
 20
11.81063342234296
 30
0.0
  0
VERTEX
  5
51D
  8
T8_DRILL
 10
1.668949121119193
 20
11.80687860803696
 30
0.0
  0
VERTEX
  5
51E
  8
T8_DRILL
 10
1.660864207608309
 20
11.80273794464322
 30
0.0
  0
VERTEX
  5
51F
  8
T8_DRILL
 10
1.653012007435543
 20
11.79822321233846
 30
0.0
  0
VERTEX
  5
520
  8
T8_DRILL
 10
1.645404295292995
 20
11.79334619129938
 30
0.0
  0
VERTEX
  5
521
  8
T8_DRILL
 10
1.638052845872764
 20
11.7881186617027
 30
0.0
  0
VERTEX
  5
522
  8
T8_DRILL
 10
1.630969433866949
 20
11.78255240372513
 30
0.0
  0
VERTEX
  5
523
  8
T8_DRILL
 10
1.624165833967651
 20
11.7766591975434
 30
0.0
  0
VERTEX
  5
524
  8
T8_DRILL
 10
1.617653820866968
 20
11.7704508233342
 30
0.0
  0
VERTEX
  5
525
  8
T8_DRILL
 10
1.611445169257001
 20
11.76393906127426
 30
0.0
  0
VERTEX
  5
526
  8
T8_DRILL
 10
1.605551653829847
 20
11.75713569154029
 30
0.0
  0
VERTEX
  5
527
  8
T8_DRILL
 10
1.599985049277607
 20
11.750052494309
 30
0.0
  0
VERTEX
  5
528
  8
T8_DRILL
 10
1.594757130292381
 20
11.74270124975711
 30
0.0
  0
VERTEX
  5
529
  8
T8_DRILL
 10
1.589879671566267
 20
11.73509373806133
 30
0.0
  0
VERTEX
  5
52A
  8
T8_DRILL
 10
1.585364447791365
 20
11.72724173939837
 30
0.0
  0
VERTEX
  5
52B
  8
T8_DRILL
 10
1.581223233659774
 20
11.71915703394495
 30
0.0
  0
VERTEX
  5
52C
  8
T8_DRILL
 10
1.577467803863595
 20
11.71085140187779
 30
0.0
  0
VERTEX
  5
52D
  8
T8_DRILL
 10
1.574109933094925
 20
11.70233662337359
 30
0.0
  0
VERTEX
  5
52E
  8
T8_DRILL
 10
1.571161396045865
 20
11.69362447860907
 30
0.0
  0
VERTEX
  5
52F
  8
T8_DRILL
 10
1.568633967408515
 20
11.68472674776094
 30
0.0
  0
VERTEX
  5
530
  8
T8_DRILL
 10
1.566539421874973
 20
11.67565521100592
 30
0.0
  0
VERTEX
  5
531
  8
T8_DRILL
 10
1.564889534137338
 20
11.66642164852072
 30
0.0
  0
VERTEX
  5
532
  8
T8_DRILL
 10
1.563696078887712
 20
11.65703784048206
 30
0.0
  0
VERTEX
  5
533
  8
T8_DRILL
 10
1.562970830818192
 20
11.64751556706664
 30
0.0
  0
VERTEX
  5
534
  8
T8_DRILL
 10
1.562725564620878
 20
11.63786660845119
 30
0.0
  0
VERTEX
  5
535
  8
T8_DRILL
 10
1.562970655844997
 20
11.6282179717363
 30
0.0
  0
VERTEX
  5
536
  8
T8_DRILL
 10
1.563695728240976
 20
11.61869598584539
 30
0.0
  0
VERTEX
  5
537
  8
T8_DRILL
 10
1.564889004839238
 20
11.60931243285797
 30
0.0
  0
VERTEX
  5
538
  8
T8_DRILL
 10
1.566538708670207
 20
11.60007909485351
 30
0.0
  0
VERTEX
  5
539
  8
T8_DRILL
 10
1.568633062764306
 20
11.59100775391153
 30
0.0
  0
VERTEX
  5
53A
  8
T8_DRILL
 10
1.571160290151958
 20
11.58211019211152
 30
0.0
  0
VERTEX
  5
53B
  8
T8_DRILL
 10
1.574108613863587
 20
11.57339819153298
 30
0.0
  0
VERTEX
  5
53C
  8
T8_DRILL
 10
1.577466256929616
 20
11.5648835342554
 30
0.0
  0
VERTEX
  5
53D
  8
T8_DRILL
 10
1.581221442380469
 20
11.5565780023583
 30
0.0
  0
VERTEX
  5
53E
  8
T8_DRILL
 10
1.585362393246569
 20
11.54849337792115
 30
0.0
  0
VERTEX
  5
53F
  8
T8_DRILL
 10
1.58987733255834
 20
11.54064144302346
 30
0.0
  0
VERTEX
  5
540
  8
T8_DRILL
 10
1.594754483346205
 20
11.53303397974473
 30
0.0
  0
VERTEX
  5
541
  8
T8_DRILL
 10
1.599982068640588
 20
11.52568277016446
 30
0.0
  0
VERTEX
  5
542
  8
T8_DRILL
 10
1.605548311471912
 20
11.51859959636214
 30
0.0
  0
VERTEX
  5
543
  8
T8_DRILL
 10
1.611441434870599
 20
11.51179624041727
 30
0.0
  0
VERTEX
  5
544
  8
T8_DRILL
 10
1.617649661867075
 20
11.50528448440934
 30
0.0
  0
VERTEX
  5
545
  8
T8_DRILL
 10
1.624161215491762
 20
11.49907611041787
 30
0.0
  0
VERTEX
  5
546
  8
T8_DRILL
 10
1.630964318775084
 20
11.49318290052234
 30
0.0
  0
VERTEX
  5
547
  8
T8_DRILL
 10
1.638047194747464
 20
11.48761663680225
 30
0.0
  0
VERTEX
  5
548
  8
T8_DRILL
 10
1.645398066439326
 20
11.48238910133709
 30
0.0
  0
VERTEX
  5
549
  8
T8_DRILL
 10
1.653005156881094
 20
11.47751207620638
 30
0.0
  0
VERTEX
  5
54A
  8
T8_DRILL
 10
1.660856689103189
 20
11.4729973434896
 30
0.0
  0
VERTEX
  5
54B
  8
T8_DRILL
 10
1.668940886136037
 20
11.46885668526625
 30
0.0
  0
VERTEX
  5
54C
  8
T8_DRILL
 10
1.67724597101006
 20
11.46510188361584
 30
0.0
  0
VERTEX
  5
54D
  8
T8_DRILL
 10
1.685760166755682
 20
11.46174472061785
 30
0.0
  0
VERTEX
  5
54E
  8
T8_DRILL
 10
1.694471696403327
 20
11.45879697835178
 30
0.0
  0
VERTEX
  5
54F
  8
T8_DRILL
 10
1.703368782983417
 20
11.45627043889714
 30
0.0
  0
VERTEX
  5
550
  8
T8_DRILL
 10
1.712439649526377
 20
11.45417688433342
 30
0.0
  0
VERTEX
  5
551
  8
T8_DRILL
 10
1.721672519062629
 20
11.45252809674012
 30
0.0
  0
VERTEX
  5
552
  8
T8_DRILL
 10
1.731055614622597
 20
11.45133585819674
 30
0.0
  0
VERTEX
  5
553
  8
T8_DRILL
 10
1.740577159236705
 20
11.45061195078277
 30
0.0
  0
VERTEX
  5
554
  8
T8_DRILL
 10
1.750225375935377
 20
11.45036815657771
 30
0.0
  0
VERTEX
  5
555
  8
T8_DRILL
 10
1.759876027950028
 20
11.45061232079585
 30
0.0
  0
VERTEX
  5
556
  8
T8_DRILL
 10
1.769399787258569
 20
11.45133653667682
 30
0.0
  0
VERTEX
  5
557
  8
T8_DRILL
 10
1.778784883990631
 20
11.45252902625568
 30
0.0
  0
VERTEX
  5
558
  8
T8_DRILL
 10
1.788019548275845
 20
11.45417801156749
 30
0.0
  0
VERTEX
  5
559
  8
T8_DRILL
 10
1.797092010243844
 20
11.45627171464734
 30
0.0
  0
VERTEX
  5
55A
  8
T8_DRILL
 10
1.80599050002426
 20
11.45879835753028
 30
0.0
  0
VERTEX
  5
55B
  8
T8_DRILL
 10
1.814703247746724
 20
11.46174616225138
 30
0.0
  0
VERTEX
  5
55C
  8
T8_DRILL
 10
1.823218483540869
 20
11.46510335084572
 30
0.0
  0
VERTEX
  5
55D
  8
T8_DRILL
 10
1.831524437536326
 20
11.46885814534835
 30
0.0
  0
VERTEX
  5
55E
  8
T8_DRILL
 10
1.839609339862728
 20
11.47299876779435
 30
0.0
  0
VERTEX
  5
55F
  8
T8_DRILL
 10
1.847461420649706
 20
11.47751344021878
 30
0.0
  0
VERTEX
  5
560
  8
T8_DRILL
 10
1.855068910026893
 20
11.48239038465671
 30
0.0
  0
VERTEX
  5
561
  8
T8_DRILL
 10
1.86242003812392
 20
11.48761782314321
 30
0.0
  0
VERTEX
  5
562
  8
T8_DRILL
 10
1.869503035070419
 20
11.49318397771335
 30
0.0
  0
VERTEX
  5
563
  8
T8_DRILL
 10
1.876306130996022
 20
11.49907707040218
 30
0.0
  0
VERTEX
  5
564
  8
T8_DRILL
 10
1.882817556030361
 20
11.50528532324479
 30
0.0
  0
VERTEX
  5
565
  8
T8_DRILL
 10
1.889025540303069
 20
11.51179695827623
 30
0.0
  0
VERTEX
  5
566
  8
T8_DRILL
 10
1.894918313943776
 20
11.51860019753159
 30
0.0
  0
VERTEX
  5
567
  8
T8_DRILL
 10
1.900484107082116
 20
11.52568326304591
 30
0.0
  0
VERTEX
  5
568
  8
T8_DRILL
 10
1.90571114984772
 20
11.53303437685427
 30
0.0
  0
VERTEX
  5
569
  8
T8_DRILL
 10
1.910587672370219
 20
11.54064176099174
 30
0.0
  0
VERTEX
  5
56A
  8
T8_DRILL
 10
1.915101904779246
 20
11.54849363749339
 30
0.0
  0
VERTEX
  5
56B
  8
T8_DRILL
 10
1.919242077204433
 20
11.55657822839428
 30
0.0
  0
VERTEX
  5
56C
  8
T8_DRILL
 10
1.922996419775412
 20
11.56488375572948
 30
0.0
  0
VERTEX
  5
56D
  8
T8_DRILL
 10
1.926353162621815
 20
11.57339844153405
 30
0.0
  0
VERTEX
  5
56E
  8
T8_DRILL
 10
1.929300535873273
 20
11.58211050784307
 30
0.0
  0
VERTEX
  5
56F
  8
T8_DRILL
 10
1.931826769659419
 20
11.59100817669161
 30
0.0
  0
VERTEX
  5
570
  8
T8_DRILL
 10
1.933920094109884
 20
11.60007967011472
 30
0.0
  0
VERTEX
  5
571
  8
T8_DRILL
 10
1.935568739354301
 20
11.60931321014748
 30
0.0
  0
VERTEX
  5
572
  8
T8_DRILL
 10
1.936760935522301
 20
11.61869701882496
 30
0.0
  0
VERTEX
  5
573
  8
T8_DRILL
 10
1.937484912743517
 20
11.62821931818221
 30
0.0
  0
VERTEX
  5
574
  8
T8_DRILL
 10
1.93772890114758
 20
11.63786833025432
 30
0.0
  0
VERTEX
  5
575
  8
T8_DRILL
 10
1.937486278704691
 20
11.64751698893041
 30
0.0
  0
VERTEX
  5
576
  8
T8_DRILL
 10
1.936763518317587
 20
11.65703899554451
 30
0.0
  0
VERTEX
  5
577
  8
T8_DRILL
 10
1.93557239943306
 20
11.66642256819405
 30
0.0
  0
VERTEX
  5
578
  8
T8_DRILL
 10
1.933924701497903
 20
11.67565592497646
 30
0.0
  0
VERTEX
  5
579
  8
T8_DRILL
 10
1.931832203958909
 20
11.68472728398919
 30
0.0
  0
VERTEX
  5
57A
  8
T8_DRILL
 10
1.929306686262871
 20
11.69362486332968
 30
0.0
  0
VERTEX
  5
57B
  8
T8_DRILL
 10
1.926359927856581
 20
11.70233688109535
 30
0.0
  0
VERTEX
  5
57C
  8
T8_DRILL
 10
1.923003708186832
 20
11.71085155538365
 30
0.0
  0
VERTEX
  5
57D
  8
T8_DRILL
 10
1.919249806700416
 20
11.71915710429202
 30
0.0
  0
VERTEX
  5
57E
  8
T8_DRILL
 10
1.915110002844127
 20
11.72724174591788
 30
0.0
  0
VERTEX
  5
57F
  8
T8_DRILL
 10
1.910596076064756
 20
11.73509369835868
 30
0.0
  0
VERTEX
  5
580
  8
T8_DRILL
 10
1.905719805809097
 20
11.74270117971185
 30
0.0
  0
VERTEX
  5
581
  8
T8_DRILL
 10
1.900492971523942
 20
11.75005240807483
 30
0.0
  0
VERTEX
  5
582
  8
T8_DRILL
 10
1.894927352656085
 20
11.75713560154507
 30
0.0
  0
VERTEX
  5
583
  8
T8_DRILL
 10
1.889034728652317
 20
11.76393897821998
 30
0.0
  0
VERTEX
  5
584
  8
T8_DRILL
 10
1.882826878959431
 20
11.77045075619702
 30
0.0
  0
VERTEX
  5
585
  8
T8_DRILL
 10
1.87631558302422
 20
11.77665915357361
 30
0.0
  0
VERTEX
  5
586
  8
T8_DRILL
 10
1.869512620293477
 20
11.7825523884472
 30
0.0
  0
VERTEX
  5
587
  8
T8_DRILL
 10
1.862429770213994
 20
11.78811867891522
 30
0.0
  0
VERTEX
  5
588
  8
T8_DRILL
 10
1.855078812232565
 20
11.79334624307511
 30
0.0
  0
VERTEX
  5
589
  8
T8_DRILL
 10
1.847471525795981
 20
11.79822329902431
 30
0.0
  0
VERTEX
  5
58A
  8
T8_DRILL
 10
1.839619690351035
 20
11.80273806486025
 30
0.0
  0
VERTEX
  5
58B
  8
T8_DRILL
 10
1.83153508534452
 20
11.80687875868037
 30
0.0
  0
VERTEX
  5
58C
  8
T8_DRILL
 10
1.823229490223229
 20
11.8106335985821
 30
0.0
  0
VERTEX
  5
58D
  8
T8_DRILL
 10
1.814714684433954
 20
11.81399080266289
 30
0.0
  0
VERTEX
  5
58E
  8
T8_DRILL
 10
1.806002447423489
 20
11.81693858902016
 30
0.0
  0
VERTEX
  5
58F
  8
T8_DRILL
 10
1.797104558638625
 20
11.81946517575137
 30
0.0
  0
VERTEX
  5
590
  8
T8_DRILL
 10
1.788032797526156
 20
11.82155878095394
 30
0.0
  0
VERTEX
  5
591
  8
T8_DRILL
 10
1.778798943532873
 20
11.82320762272531
 30
0.0
  0
VERTEX
  5
592
  8
T8_DRILL
 10
1.769414776105571
 20
11.82439991916291
 30
0.0
  0
VERTEX
  5
593
  8
T8_DRILL
 10
1.759892074691041
 20
11.82512388836419
 30
0.0
  0
SEQEND
  5
770
  8
T8_DRILL
  0
POLYLINE
  5
7B
  8
T3_PROFILE_INSIDE
 66
     1
 10
0.0
 20
0.0
 30
0.0
  0
VERTEX
  5
594
  8
T3_PROFILE_INSIDE
 10
0.0464393539102268
 20
71.11208053769316
 30
0.0
  0
VERTEX
  5
595
  8
T3_PROFILE_INSIDE
 10
3.54003920732759
 20
71.70785131760745
 30
0.0
  0
SEQEND
  5
771
  8
T3_PROFILE_INSIDE
  0
POLYLINE
  5
7C
  8
T3_PROFILE_INSIDE
 66
     1
 10
0.0
 20
0.0
 30
0.0
  0
VERTEX
  5
596
  8
T3_PROFILE_INSIDE
 10
3.500241991359662
 20
1.637869596396936
 30
0.0
  0
VERTEX
  5
597
  8
T3_PROFILE_INSIDE
 10
0.0002482566283213
 20
1.387867206255794
 30
0.0
  0
SEQEND
  5
772
  8
T3_PROFILE_INSIDE
  0
POLYLINE
  5
7E
  8
T5_BEVEL_0_1
 66
     1
 10
0.0
 20
0.0
 30
0.0
  0
VERTEX
  5
598
  8
T5_BEVEL_0_1
 10
3.499999999849706
 20
72.16786720625579
 30
0.0
  0
VERTEX
  5
599
  8
T5_BEVEL_0_1
 10
0.0
 20
72.1678996523744
 30
0.0
  0
SEQEND
  5
773
  8
T5_BEVEL_0_1
  0
POLYLINE
  5
80
  8
T9_COUNTERSINK_0_1
 66
     1
 10
0.0
 20
0.0
 30
0.0
 70
     1
  0
VERTEX
  5
59A
  8
T9_COUNTERSINK_0_1
 10
0.8129110377051179
 20
2.385510786431847
 30
0.0
  0
VERTEX
  5
59B
  8
T9_COUNTERSINK_0_1
 10
0.8033271656546832
 20
2.385027030560677
 30
0.0
  0
VERTEX
  5
59C
  8
T9_COUNTERSINK_0_1
 10
0.7940197820771547
 20
2.383606589103652
 30
0.0
  0
VERTEX
  5
59D
  8
T9_COUNTERSINK_0_1
 10
0.7850360746553094
 20
2.381296592853097
 30
0.0
  0
VERTEX
  5
59E
  8
T9_COUNTERSINK_0_1
 10
0.7764232310719247
 20
2.378144172601336
 30
0.0
  0
VERTEX
  5
59F
  8
T9_COUNTERSINK_0_1
 10
0.7682284390097777
 20
2.374196459140693
 30
0.0
  0
VERTEX
  5
5A0
  8
T9_COUNTERSINK_0_1
 10
0.7604988861516454
 20
2.369500583263495
 30
0.0
  0
VERTEX
  5
5A1
  8
T9_COUNTERSINK_0_1
 10
0.7532817601803052
 20
2.364103675762064
 30
0.0
  0
VERTEX
  5
5A2
  8
T9_COUNTERSINK_0_1
 10
0.7466242487785343
 20
2.358052867428726
 30
0.0
  0
VERTEX
  5
5A3
  8
T9_COUNTERSINK_0_1
 10
0.7405735396291099
 20
2.351395289055806
 30
0.0
  0
VERTEX
  5
5A4
  8
T9_COUNTERSINK_0_1
 10
0.7351768204148091
 20
2.344178071435628
 30
0.0
  0
VERTEX
  5
5A5
  8
T9_COUNTERSINK_0_1
 10
0.7304812788184094
 20
2.336448345360516
 30
0.0
  0
VERTEX
  5
5A6
  8
T9_COUNTERSINK_0_1
 10
0.7265341025226877
 20
2.328253241622795
 30
0.0
  0
VERTEX
  5
5A7
  8
T9_COUNTERSINK_0_1
 10
0.7233824792104213
 20
2.319639891014791
 30
0.0
  0
VERTEX
  5
5A8
  8
T9_COUNTERSINK_0_1
 10
0.7210735965643873
 20
2.310655424328827
 30
0.0
  0
VERTEX
  5
5A9
  8
T9_COUNTERSINK_0_1
 10
0.7196546422673631
 20
2.301346972357228
 30
0.0
  0
VERTEX
  5
5AA
  8
T9_COUNTERSINK_0_1
 10
0.7191728040021257
 20
2.291761665892319
 30
0.0
  0
VERTEX
  5
5AB
  8
T9_COUNTERSINK_0_1
 10
0.719654468602855
 20
2.282176045053636
 30
0.0
  0
VERTEX
  5
5AC
  8
T9_COUNTERSINK_0_1
 10
0.7210732532328208
 20
2.272867366370535
 30
0.0
  0
VERTEX
  5
5AD
  8
T9_COUNTERSINK_0_1
 10
0.7233819710524356
 20
2.263882748163974
 30
0.0
  0
VERTEX
  5
5AE
  8
T9_COUNTERSINK_0_1
 10
0.726533435222112
 20
2.255269308754908
 30
0.0
  0
VERTEX
  5
5AF
  8
T9_COUNTERSINK_0_1
 10
0.7304804589022627
 20
2.247074166464293
 30
0.0
  0
VERTEX
  5
5B0
  8
T9_COUNTERSINK_0_1
 10
0.7351758552533001
 20
2.239344439613084
 30
0.0
  0
VERTEX
  5
5B1
  8
T9_COUNTERSINK_0_1
 10
0.7405724374356368
 20
2.232127246522237
 30
0.0
  0
VERTEX
  5
5B2
  8
T9_COUNTERSINK_0_1
 10
0.7466230186096855
 20
2.225469705512706
 30
0.0
  0
VERTEX
  5
5B3
  8
T9_COUNTERSINK_0_1
 10
0.7532804119358587
 20
2.21941893490545
 30
0.0
  0
VERTEX
  5
5B4
  8
T9_COUNTERSINK_0_1
 10
0.7604974305745691
 20
2.214022053021422
 30
0.0
  0
VERTEX
  5
5B5
  8
T9_COUNTERSINK_0_1
 10
0.7682268876862293
 20
2.209326178181579
 30
0.0
  0
VERTEX
  5
5B6
  8
T9_COUNTERSINK_0_1
 10
0.7764215964312516
 20
2.205378428706876
 30
0.0
  0
VERTEX
  5
5B7
  8
T9_COUNTERSINK_0_1
 10
0.7850343699700489
 20
2.202225922918269
 30
0.0
  0
VERTEX
  5
5B8
  8
T9_COUNTERSINK_0_1
 10
0.7940180214630337
 20
2.199915779136713
 30
0.0
  0
VERTEX
  5
5B9
  8
T9_COUNTERSINK_0_1
 10
0.8033253640706186
 20
2.198495115683165
 30
0.0
  0
VERTEX
  5
5BA
  8
T9_COUNTERSINK_0_1
 10
0.8129092109532161
 20
2.198011050878579
 30
0.0
  0
VERTEX
  5
5BB
  8
T9_COUNTERSINK_0_1
 10
0.8224954445289626
 20
2.198495255529687
 30
0.0
  0
VERTEX
  5
5BC
  8
T9_COUNTERSINK_0_1
 10
0.8318048974969663
 20
2.199916052695231
 30
0.0
  0
VERTEX
  5
5BD
  8
T9_COUNTERSINK_0_1
 10
0.8407904014613757
 20
2.202226320430011
 30
0.0
  0
VERTEX
  5
5BE
  8
T9_COUNTERSINK_0_1
 10
0.8494047880263396
 20
2.205378936788828
 30
0.0
  0
VERTEX
  5
5BF
  8
T9_COUNTERSINK_0_1
 10
0.8576008887960062
 20
2.209326779826482
 30
0.0
  0
VERTEX
  5
5C0
  8
T9_COUNTERSINK_0_1
 10
0.8653315353745241
 20
2.214022727597775
 30
0.0
  0
VERTEX
  5
5C1
  8
T9_COUNTERSINK_0_1
 10
0.8725495593660421
 20
2.219419658157506
 30
0.0
  0
VERTEX
  5
5C2
  8
T9_COUNTERSINK_0_1
 10
0.8792077923747083
 20
2.225470449560475
 30
0.0
  0
VERTEX
  5
5C3
  8
T9_COUNTERSINK_0_1
 10
0.8852590660046713
 20
2.232127979861485
 30
0.0
  0
VERTEX
  5
5C4
  8
T9_COUNTERSINK_0_1
 10
0.89065621186008
 20
2.239345127115334
 30
0.0
  0
VERTEX
  5
5C5
  8
T9_COUNTERSINK_0_1
 10
0.8953520615450825
 20
2.247074769376824
 30
0.0
  0
VERTEX
  5
5C6
  8
T9_COUNTERSINK_0_1
 10
0.8992994466638277
 20
2.255269784700754
 30
0.0
  0
VERTEX
  5
5C7
  8
T9_COUNTERSINK_0_1
 10
0.9024511988204638
 20
2.263883051141927
 30
0.0
  0
VERTEX
  5
5C8
  8
T9_COUNTERSINK_0_1
 10
0.9047601496191394
 20
2.272867446755142
 30
0.0
  0
VERTEX
  5
5C9
  8
T9_COUNTERSINK_0_1
 10
0.9061791306640032
 20
2.282175849595199
 30
0.0
  0
VERTEX
  5
5CA
  8
T9_COUNTERSINK_0_1
 10
0.9066609735592035
 20
2.291761137716899
 30
0.0
  0
VERTEX
  5
5CB
  8
T9_COUNTERSINK_0_1
 10
0.9061769271962872
 20
2.301346593107246
 30
0.0
  0
VERTEX
  5
5CC
  8
T9_COUNTERSINK_0_1
 10
0.904756057495032
 20
2.310655135625112
 30
0.0
  0
VERTEX
  5
5CD
  8
T9_COUNTERSINK_0_1
 10
0.9024455316099972
 20
2.319639643676153
 30
0.0
  0
VERTEX
  5
5CE
  8
T9_COUNTERSINK_0_1
 10
0.8992925166957423
 20
2.328252995666024
 30
0.0
  0
VERTEX
  5
5CF
  8
T9_COUNTERSINK_0_1
 10
0.8953441799068266
 20
2.336448070000382
 30
0.0
  0
VERTEX
  5
5D0
  8
T9_COUNTERSINK_0_1
 10
0.8906476883978094
 20
2.344177745084881
 30
0.0
  0
VERTEX
  5
5D1
  8
T9_COUNTERSINK_0_1
 10
0.8852502093232503
 20
2.351394899325177
 30
0.0
  0
VERTEX
  5
5D2
  8
T9_COUNTERSINK_0_1
 10
0.8791989098377083
 20
2.358052411126924
 30
0.0
  0
VERTEX
  5
5D3
  8
T9_COUNTERSINK_0_1
 10
0.8725409570957431
 20
2.36410315889578
 30
0.0
  0
VERTEX
  5
5D4
  8
T9_COUNTERSINK_0_1
 10
0.8653235182519138
 20
2.369500021037399
 30
0.0
  0
VERTEX
  5
5D5
  8
T9_COUNTERSINK_0_1
 10
0.8575937604607798
 20
2.374195875957436
 30
0.0
  0
VERTEX
  5
5D6
  8
T9_COUNTERSINK_0_1
 10
0.8493988508769006
 20
2.378143602061548
 30
0.0
  0
VERTEX
  5
5D7
  8
T9_COUNTERSINK_0_1
 10
0.8407859566548354
 20
2.38129607775539
 30
0.0
  0
VERTEX
  5
5D8
  8
T9_COUNTERSINK_0_1
 10
0.8318022449491436
 20
2.383606181444616
 30
0.0
  0
VERTEX
  5
5D9
  8
T9_COUNTERSINK_0_1
 10
0.8224948829143846
 20
2.385026791534884
 30
0.0
  0
SEQEND
  5
774
  8
T9_COUNTERSINK_0_1
  0
POLYLINE
  5
81
  8
T9_COUNTERSINK_0_1
 66
     1
 10
0.0
 20
0.0
 30
0.0
 70
     1
  0
VERTEX
  5
5DA
  8
T9_COUNTERSINK_0_1
 10
2.558464234135066
 20
2.510186519568621
 30
0.0
  0
VERTEX
  5
5DB
  8
T9_COUNTERSINK_0_1
 10
2.548880362084632
 20
2.509702763697451
 30
0.0
  0
VERTEX
  5
5DC
  8
T9_COUNTERSINK_0_1
 10
2.539572978507104
 20
2.508282322240426
 30
0.0
  0
VERTEX
  5
5DD
  8
T9_COUNTERSINK_0_1
 10
2.530589271085258
 20
2.50597232598987
 30
0.0
  0
VERTEX
  5
5DE
  8
T9_COUNTERSINK_0_1
 10
2.521976427501874
 20
2.502819905738109
 30
0.0
  0
VERTEX
  5
5DF
  8
T9_COUNTERSINK_0_1
 10
2.513781635439726
 20
2.498872192277467
 30
0.0
  0
VERTEX
  5
5E0
  8
T9_COUNTERSINK_0_1
 10
2.506052082581594
 20
2.494176316400268
 30
0.0
  0
VERTEX
  5
5E1
  8
T9_COUNTERSINK_0_1
 10
2.498834956610254
 20
2.488779408898837
 30
0.0
  0
VERTEX
  5
5E2
  8
T9_COUNTERSINK_0_1
 10
2.492177445208483
 20
2.482728600565499
 30
0.0
  0
VERTEX
  5
5E3
  8
T9_COUNTERSINK_0_1
 10
2.486126736059059
 20
2.476071022192579
 30
0.0
  0
VERTEX
  5
5E4
  8
T9_COUNTERSINK_0_1
 10
2.480730016844758
 20
2.468853804572401
 30
0.0
  0
VERTEX
  5
5E5
  8
T9_COUNTERSINK_0_1
 10
2.476034475248358
 20
2.461124078497289
 30
0.0
  0
VERTEX
  5
5E6
  8
T9_COUNTERSINK_0_1
 10
2.472087298952636
 20
2.45292897475957
 30
0.0
  0
VERTEX
  5
5E7
  8
T9_COUNTERSINK_0_1
 10
2.468935675640369
 20
2.444315624151566
 30
0.0
  0
VERTEX
  5
5E8
  8
T9_COUNTERSINK_0_1
 10
2.466626792994334
 20
2.435331157465602
 30
0.0
  0
VERTEX
  5
5E9
  8
T9_COUNTERSINK_0_1
 10
2.465207838697309
 20
2.426022705494004
 30
0.0
  0
VERTEX
  5
5EA
  8
T9_COUNTERSINK_0_1
 10
2.464726000432071
 20
2.416437399029095
 30
0.0
  0
VERTEX
  5
5EB
  8
T9_COUNTERSINK_0_1
 10
2.465207665032801
 20
2.406851778190411
 30
0.0
  0
VERTEX
  5
5EC
  8
T9_COUNTERSINK_0_1
 10
2.466626449662768
 20
2.397543099507311
 30
0.0
  0
VERTEX
  5
5ED
  8
T9_COUNTERSINK_0_1
 10
2.468935167482384
 20
2.388558481300749
 30
0.0
  0
VERTEX
  5
5EE
  8
T9_COUNTERSINK_0_1
 10
2.47208663165206
 20
2.379945041891683
 30
0.0
  0
VERTEX
  5
5EF
  8
T9_COUNTERSINK_0_1
 10
2.476033655332211
 20
2.371749899601067
 30
0.0
  0
VERTEX
  5
5F0
  8
T9_COUNTERSINK_0_1
 10
2.480729051683249
 20
2.364020172749858
 30
0.0
  0
VERTEX
  5
5F1
  8
T9_COUNTERSINK_0_1
 10
2.486125633865586
 20
2.356802979659011
 30
0.0
  0
VERTEX
  5
5F2
  8
T9_COUNTERSINK_0_1
 10
2.492176215039635
 20
2.350145438649481
 30
0.0
  0
VERTEX
  5
5F3
  8
T9_COUNTERSINK_0_1
 10
2.498833608365809
 20
2.344094668042224
 30
0.0
  0
VERTEX
  5
5F4
  8
T9_COUNTERSINK_0_1
 10
2.506050627004519
 20
2.338697786158196
 30
0.0
  0
VERTEX
  5
5F5
  8
T9_COUNTERSINK_0_1
 10
2.513780084116179
 20
2.334001911318353
 30
0.0
  0
VERTEX
  5
5F6
  8
T9_COUNTERSINK_0_1
 10
2.521974792861201
 20
2.33005416184365
 30
0.0
  0
VERTEX
  5
5F7
  8
T9_COUNTERSINK_0_1
 10
2.530587566399998
 20
2.326901656055043
 30
0.0
  0
VERTEX
  5
5F8
  8
T9_COUNTERSINK_0_1
 10
2.539571217892982
 20
2.324591512273487
 30
0.0
  0
VERTEX
  5
5F9
  8
T9_COUNTERSINK_0_1
 10
2.548878560500567
 20
2.323170848819939
 30
0.0
  0
VERTEX
  5
5FA
  8
T9_COUNTERSINK_0_1
 10
2.558462407383164
 20
2.322686784015353
 30
0.0
  0
VERTEX
  5
5FB
  8
T9_COUNTERSINK_0_1
 10
2.568048640958911
 20
2.323170988666461
 30
0.0
  0
VERTEX
  5
5FC
  8
T9_COUNTERSINK_0_1
 10
2.577358093926914
 20
2.324591785832005
 30
0.0
  0
VERTEX
  5
5FD
  8
T9_COUNTERSINK_0_1
 10
2.586343597891323
 20
2.326902053566785
 30
0.0
  0
VERTEX
  5
5FE
  8
T9_COUNTERSINK_0_1
 10
2.594957984456287
 20
2.330054669925602
 30
0.0
  0
VERTEX
  5
5FF
  8
T9_COUNTERSINK_0_1
 10
2.603154085225953
 20
2.334002512963257
 30
0.0
  0
VERTEX
  5
600
  8
T9_COUNTERSINK_0_1
 10
2.610884731804472
 20
2.338698460734549
 30
0.0
  0
VERTEX
  5
601
  8
T9_COUNTERSINK_0_1
 10
2.618102755795989
 20
2.34409539129428
 30
0.0
  0
VERTEX
  5
602
  8
T9_COUNTERSINK_0_1
 10
2.624760988804655
 20
2.350146182697249
 30
0.0
  0
VERTEX
  5
603
  8
T9_COUNTERSINK_0_1
 10
2.630812262434619
 20
2.356803712998259
 30
0.0
  0
VERTEX
  5
604
  8
T9_COUNTERSINK_0_1
 10
2.636209408290027
 20
2.364020860252108
 30
0.0
  0
VERTEX
  5
605
  8
T9_COUNTERSINK_0_1
 10
2.64090525797503
 20
2.371750502513598
 30
0.0
  0
VERTEX
  5
606
  8
T9_COUNTERSINK_0_1
 10
2.644852643093775
 20
2.379945517837529
 30
0.0
  0
VERTEX
  5
607
  8
T9_COUNTERSINK_0_1
 10
2.648004395250411
 20
2.388558784278701
 30
0.0
  0
VERTEX
  5
608
  8
T9_COUNTERSINK_0_1
 10
2.650313346049086
 20
2.397543179891916
 30
0.0
  0
VERTEX
  5
609
  8
T9_COUNTERSINK_0_1
 10
2.65173232709395
 20
2.406851582731973
 30
0.0
  0
VERTEX
  5
60A
  8
T9_COUNTERSINK_0_1
 10
2.652214169989151
 20
2.416436870853674
 30
0.0
  0
VERTEX
  5
60B
  8
T9_COUNTERSINK_0_1
 10
2.651730123626234
 20
2.42602232624402
 30
0.0
  0
VERTEX
  5
60C
  8
T9_COUNTERSINK_0_1
 10
2.650309253924979
 20
2.435330868761886
 30
0.0
  0
VERTEX
  5
60D
  8
T9_COUNTERSINK_0_1
 10
2.647998728039944
 20
2.444315376812927
 30
0.0
  0
VERTEX
  5
60E
  8
T9_COUNTERSINK_0_1
 10
2.644845713125689
 20
2.452928728802799
 30
0.0
  0
VERTEX
  5
60F
  8
T9_COUNTERSINK_0_1
 10
2.640897376336773
 20
2.461123803137156
 30
0.0
  0
VERTEX
  5
610
  8
T9_COUNTERSINK_0_1
 10
2.636200884827756
 20
2.468853478221654
 30
0.0
  0
VERTEX
  5
611
  8
T9_COUNTERSINK_0_1
 10
2.630803405753197
 20
2.47607063246195
 30
0.0
  0
VERTEX
  5
612
  8
T9_COUNTERSINK_0_1
 10
2.624752106267655
 20
2.482728144263698
 30
0.0
  0
VERTEX
  5
613
  8
T9_COUNTERSINK_0_1
 10
2.61809415352569
 20
2.488778892032553
 30
0.0
  0
VERTEX
  5
614
  8
T9_COUNTERSINK_0_1
 10
2.610876714681861
 20
2.494175754174172
 30
0.0
  0
VERTEX
  5
615
  8
T9_COUNTERSINK_0_1
 10
2.603146956890726
 20
2.49887160909421
 30
0.0
  0
VERTEX
  5
616
  8
T9_COUNTERSINK_0_1
 10
2.594952047306847
 20
2.502819335198322
 30
0.0
  0
VERTEX
  5
617
  8
T9_COUNTERSINK_0_1
 10
2.586339153084783
 20
2.505971810892164
 30
0.0
  0
VERTEX
  5
618
  8
T9_COUNTERSINK_0_1
 10
2.577355441379091
 20
2.50828191458139
 30
0.0
  0
VERTEX
  5
619
  8
T9_COUNTERSINK_0_1
 10
2.568048079344332
 20
2.509702524671658
 30
0.0
  0
SEQEND
  5
775
  8
T9_COUNTERSINK_0_1
  0
POLYLINE
  5
83
  8
T9-T3_POCKET
 66
     1
 10
0.0
 20
0.0
 30
0.0
 70
     1
  0
VERTEX
  5
61A
  8
T9-T3_POCKET
 10
1.76021059855755
 20
16.2236
 30
0.0
  0
VERTEX
  5
61B
  8
T9-T3_POCKET
 10
0.2402105985575496
 20
16.2236
 30
0.0
  0
VERTEX
  5
61C
  8
T9-T3_POCKET
 10
0.2402105985575496
 20
19.9736
 30
0.0
  0
VERTEX
  5
61D
  8
T9-T3_POCKET
 10
1.76021059855755
 20
19.9736
 30
0.0
  0
SEQEND
  5
776
  8
T9-T3_POCKET
  0
POLYLINE
  5
84
  8
T9-T3_POCKET
 66
     1
 10
0.0
 20
0.0
 30
0.0
 70
     1
  0
VERTEX
  5
61E
  8
T9-T3_POCKET
 10
3.280210598557549
 20
46.9828
 30
0.0
  0
VERTEX
  5
61F
  8
T9-T3_POCKET
 10
1.760210598557549
 20
46.9828
 30
0.0
  0
VERTEX
  5
620
  8
T9-T3_POCKET
 10
1.760210598557549
 20
50.7328
 30
0.0
  0
VERTEX
  5
621
  8
T9-T3_POCKET
 10
3.280210598557549
 20
50.7328
 30
0.0
  0
SEQEND
  5
777
  8
T9-T3_POCKET
  0
POLYLINE
  5
86
  8
T3_PROFILE_INSIDE_2
 66
     1
 10
0.0
 20
0.0
 30
0.0
  0
VERTEX
  5
622
  8
T3_PROFILE_INSIDE_2
 10
0.0223197276693847
 20
91.18747136882325
 30
0.0
  0
VERTEX
  5
623
  8
T3_PROFILE_INSIDE_2
 10
0.4589014131869513
 20
93.58998027233062
 30
0.0
  0
VERTEX
  5
624
  8
T3_PROFILE_INSIDE_2
 10
3.522337055402834
 20
93.05661760129087
 30
0.0
  0
SEQEND
  5
778
  8
T3_PROFILE_INSIDE_2
  0
POLYLINE
  5
88
  8
T9_COUNTERSINK_0_6
 66
     1
 10
0.0
 20
0.0
 30
0.0
 70
     1
  0
VERTEX
  5
625
  8
T9_COUNTERSINK_0_6
 10
2.520341633996626
 20
47.90447781344775
 30
0.0
  0
VERTEX
  5
626
  8
T9_COUNTERSINK_0_6
 10
2.529923260637073
 20
47.90496212055395
 30
0.0
  0
VERTEX
  5
627
  8
T9_COUNTERSINK_0_6
 10
2.539228967935681
 20
47.90638284945582
 30
0.0
  0
VERTEX
  5
628
  8
T9_COUNTERSINK_0_6
 10
2.548211531142516
 20
47.90869290881625
 30
0.0
  0
VERTEX
  5
629
  8
T9_COUNTERSINK_0_6
 10
2.556823725507645
 20
47.91184520729807
 30
0.0
  0
VERTEX
  5
62A
  8
T9_COUNTERSINK_0_6
 10
2.565018326281133
 20
47.91579265356414
 30
0.0
  0
VERTEX
  5
62B
  8
T9_COUNTERSINK_0_6
 10
2.572748108713049
 20
47.92048815627732
 30
0.0
  0
VERTEX
  5
62C
  8
T9_COUNTERSINK_0_6
 10
2.579965848053458
 20
47.92588462410045
 30
0.0
  0
VERTEX
  5
62D
  8
T9_COUNTERSINK_0_6
 10
2.586624319552428
 20
47.93193496569641
 30
0.0
  0
VERTEX
  5
62E
  8
T9_COUNTERSINK_0_6
 10
2.592676298460023
 20
47.93859208972803
 30
0.0
  0
VERTEX
  5
62F
  8
T9_COUNTERSINK_0_6
 10
2.598074560026312
 20
47.94580890485818
 30
0.0
  0
VERTEX
  5
630
  8
T9_COUNTERSINK_0_6
 10
2.602771879501359
 20
47.95353831974971
 30
0.0
  0
VERTEX
  5
631
  8
T9_COUNTERSINK_0_6
 10
2.606721032135233
 20
47.96173324306548
 30
0.0
  0
VERTEX
  5
632
  8
T9_COUNTERSINK_0_6
 10
2.609874793177998
 20
47.97034658346834
 30
0.0
  0
VERTEX
  5
633
  8
T9_COUNTERSINK_0_6
 10
2.612185937879724
 20
47.97933124962115
 30
0.0
  0
VERTEX
  5
634
  8
T9_COUNTERSINK_0_6
 10
2.613607241490475
 20
47.98864015018677
 30
0.0
  0
VERTEX
  5
635
  8
T9_COUNTERSINK_0_6
 10
2.614091479260317
 20
47.99822619382804
 30
0.0
  0
VERTEX
  5
636
  8
T9_COUNTERSINK_0_6
 10
2.613605074524891
 20
48.00781245202776
 30
0.0
  0
VERTEX
  5
637
  8
T9_COUNTERSINK_0_6
 10
2.612182413617747
 20
48.01712162376388
 30
0.0
  0
VERTEX
  5
638
  8
T9_COUNTERSINK_0_6
 10
2.609870606277754
 20
48.02610660248512
 30
0.0
  0
VERTEX
  5
639
  8
T9_COUNTERSINK_0_6
 10
2.606716762243781
 20
48.03472028164018
 30
0.0
  0
VERTEX
  5
63A
  8
T9_COUNTERSINK_0_6
 10
2.602767991254699
 20
48.04291555467775
 30
0.0
  0
VERTEX
  5
63B
  8
T9_COUNTERSINK_0_6
 10
2.598071403049377
 20
48.05064531504654
 30
0.0
  0
VERTEX
  5
63C
  8
T9_COUNTERSINK_0_6
 10
2.592674107366683
 20
48.05786245619526
 30
0.0
  0
VERTEX
  5
63D
  8
T9_COUNTERSINK_0_6
 10
2.586623213945488
 20
48.06451987157261
 30
0.0
  0
VERTEX
  5
63E
  8
T9_COUNTERSINK_0_6
 10
2.579965832524661
 20
48.07057045462729
 30
0.0
  0
VERTEX
  5
63F
  8
T9_COUNTERSINK_0_6
 10
2.572749072843072
 20
48.075967098808
 30
0.0
  0
VERTEX
  5
640
  8
T9_COUNTERSINK_0_6
 10
2.56502004463959
 20
48.08066269756345
 30
0.0
  0
VERTEX
  5
641
  8
T9_COUNTERSINK_0_6
 10
2.556825857653084
 20
48.08461014434234
 30
0.0
  0
VERTEX
  5
642
  8
T9_COUNTERSINK_0_6
 10
2.548213621622424
 20
48.08776233259338
 30
0.0
  0
VERTEX
  5
643
  8
T9_COUNTERSINK_0_6
 10
2.539230446286479
 20
48.09007215576527
 30
0.0
  0
VERTEX
  5
644
  8
T9_COUNTERSINK_0_6
 10
2.529923441384119
 20
48.09149250730671
 30
0.0
  0
VERTEX
  5
645
  8
T9_COUNTERSINK_0_6
 10
2.520339716654213
 20
48.09197628066639
 30
0.0
  0
VERTEX
  5
646
  8
T9_COUNTERSINK_0_6
 10
2.510753670834987
 20
48.0914928494161
 30
0.0
  0
VERTEX
  5
647
  8
T9_COUNTERSINK_0_6
 10
2.501444683523686
 20
48.09007277059393
 30
0.0
  0
VERTEX
  5
648
  8
T9_COUNTERSINK_0_6
 10
2.492459861625476
 20
48.08776315889319
 30
0.0
  0
VERTEX
  5
649
  8
T9_COUNTERSINK_0_6
 10
2.483846312045522
 20
48.08461112900719
 30
0.0
  0
VERTEX
  5
64A
  8
T9_COUNTERSINK_0_6
 10
2.475651141688991
 20
48.08066379562922
 30
0.0
  0
VERTEX
  5
64B
  8
T9_COUNTERSINK_0_6
 10
2.467921457461048
 20
48.07596827345258
 30
0.0
  0
VERTEX
  5
64C
  8
T9_COUNTERSINK_0_6
 10
2.46070436626686
 20
48.07057167717058
 30
0.0
  0
VERTEX
  5
64D
  8
T9_COUNTERSINK_0_6
 10
2.454046975011593
 20
48.06452112147653
 30
0.0
  0
VERTEX
  5
64E
  8
T9_COUNTERSINK_0_6
 10
2.447996390600412
 20
48.05786372106371
 30
0.0
  0
VERTEX
  5
64F
  8
T9_COUNTERSINK_0_6
 10
2.442599719938484
 20
48.05064659062543
 30
0.0
  0
VERTEX
  5
650
  8
T9_COUNTERSINK_0_6
 10
2.437904069930975
 20
48.04291684485501
 30
0.0
  0
VERTEX
  5
651
  8
T9_COUNTERSINK_0_6
 10
2.433956547483052
 20
48.03472159844573
 30
0.0
  0
VERTEX
  5
652
  8
T9_COUNTERSINK_0_6
 10
2.430804259499879
 20
48.0261079660909
 30
0.0
  0
VERTEX
  5
653
  8
T9_COUNTERSINK_0_6
 10
2.428494312886623
 20
48.01712306248381
 30
0.0
  0
VERTEX
  5
654
  8
T9_COUNTERSINK_0_6
 10
2.42707381454845
 20
48.00781400231777
 30
0.0
  0
VERTEX
  5
655
  8
T9_COUNTERSINK_0_6
 10
2.426589871390526
 20
47.9982279002861
 30
0.0
  0
VERTEX
  5
656
  8
T9_COUNTERSINK_0_6
 10
2.427071519870953
 20
47.9886419818008
 30
0.0
  0
VERTEX
  5
657
  8
T9_COUNTERSINK_0_6
 10
2.428490058690431
 20
47.97933310448383
 30
0.0
  0
VERTEX
  5
658
  8
T9_COUNTERSINK_0_6
 10
2.430798378110092
 20
47.9703483748865
 30
0.0
  0
VERTEX
  5
659
  8
T9_COUNTERSINK_0_6
 10
2.433949368391064
 20
47.9617348995601
 30
0.0
  0
VERTEX
  5
65A
  8
T9_COUNTERSINK_0_6
 10
2.43789591979448
 20
47.95353978505592
 30
0.0
  0
VERTEX
  5
65B
  8
T9_COUNTERSINK_0_6
 10
2.442590922581469
 20
47.94581013792527
 30
0.0
  0
VERTEX
  5
65C
  8
T9_COUNTERSINK_0_6
 10
2.447987267013162
 20
47.93859306471943
 30
0.0
  0
VERTEX
  5
65D
  8
T9_COUNTERSINK_0_6
 10
2.454037843350691
 20
47.93193567198972
 30
0.0
  0
VERTEX
  5
65E
  8
T9_COUNTERSINK_0_6
 10
2.460695541855184
 20
47.92588506628742
 30
0.0
  0
VERTEX
  5
65F
  8
T9_COUNTERSINK_0_6
 10
2.467913252787773
 20
47.92048835416382
 30
0.0
  0
VERTEX
  5
660
  8
T9_COUNTERSINK_0_6
 10
2.475643866409588
 20
47.91579264217023
 30
0.0
  0
VERTEX
  5
661
  8
T9_COUNTERSINK_0_6
 10
2.48384027298176
 20
47.91184503685794
 30
0.0
  0
VERTEX
  5
662
  8
T9_COUNTERSINK_0_6
 10
2.492455362765419
 20
47.90869264477826
 30
0.0
  0
VERTEX
  5
663
  8
T9_COUNTERSINK_0_6
 10
2.501442026021696
 20
47.90638257248246
 30
0.0
  0
VERTEX
  5
664
  8
T9_COUNTERSINK_0_6
 10
2.510753153011722
 20
47.90496192652186
 30
0.0
  0
SEQEND
  5
779
  8
T9_COUNTERSINK_0_6
  0
POLYLINE
  5
89
  8
T9_COUNTERSINK_0_6
 66
     1
 10
0.0
 20
0.0
 30
0.0
 70
     1
  0
VERTEX
  5
665
  8
T9_COUNTERSINK_0_6
 10
2.520341633996626
 20
47.90447781344775
 30
0.0
  0
VERTEX
  5
666
  8
T9_COUNTERSINK_0_6
 10
2.529923260637073
 20
47.90496212055395
 30
0.0
  0
VERTEX
  5
667
  8
T9_COUNTERSINK_0_6
 10
2.539228967935681
 20
47.90638284945582
 30
0.0
  0
VERTEX
  5
668
  8
T9_COUNTERSINK_0_6
 10
2.548211531142516
 20
47.90869290881625
 30
0.0
  0
VERTEX
  5
669
  8
T9_COUNTERSINK_0_6
 10
2.556823725507645
 20
47.91184520729807
 30
0.0
  0
VERTEX
  5
66A
  8
T9_COUNTERSINK_0_6
 10
2.565018326281133
 20
47.91579265356414
 30
0.0
  0
VERTEX
  5
66B
  8
T9_COUNTERSINK_0_6
 10
2.572748108713049
 20
47.92048815627732
 30
0.0
  0
VERTEX
  5
66C
  8
T9_COUNTERSINK_0_6
 10
2.579965848053458
 20
47.92588462410045
 30
0.0
  0
VERTEX
  5
66D
  8
T9_COUNTERSINK_0_6
 10
2.586624319552428
 20
47.93193496569641
 30
0.0
  0
VERTEX
  5
66E
  8
T9_COUNTERSINK_0_6
 10
2.592676298460023
 20
47.93859208972803
 30
0.0
  0
VERTEX
  5
66F
  8
T9_COUNTERSINK_0_6
 10
2.598074560026312
 20
47.94580890485818
 30
0.0
  0
VERTEX
  5
670
  8
T9_COUNTERSINK_0_6
 10
2.602771879501359
 20
47.95353831974971
 30
0.0
  0
VERTEX
  5
671
  8
T9_COUNTERSINK_0_6
 10
2.606721032135233
 20
47.96173324306548
 30
0.0
  0
VERTEX
  5
672
  8
T9_COUNTERSINK_0_6
 10
2.609874793177998
 20
47.97034658346834
 30
0.0
  0
VERTEX
  5
673
  8
T9_COUNTERSINK_0_6
 10
2.612185937879724
 20
47.97933124962115
 30
0.0
  0
VERTEX
  5
674
  8
T9_COUNTERSINK_0_6
 10
2.613607241490475
 20
47.98864015018677
 30
0.0
  0
VERTEX
  5
675
  8
T9_COUNTERSINK_0_6
 10
2.614091479260317
 20
47.99822619382804
 30
0.0
  0
VERTEX
  5
676
  8
T9_COUNTERSINK_0_6
 10
2.613605074524891
 20
48.00781245202776
 30
0.0
  0
VERTEX
  5
677
  8
T9_COUNTERSINK_0_6
 10
2.612182413617747
 20
48.01712162376388
 30
0.0
  0
VERTEX
  5
678
  8
T9_COUNTERSINK_0_6
 10
2.609870606277754
 20
48.02610660248512
 30
0.0
  0
VERTEX
  5
679
  8
T9_COUNTERSINK_0_6
 10
2.606716762243781
 20
48.03472028164018
 30
0.0
  0
VERTEX
  5
67A
  8
T9_COUNTERSINK_0_6
 10
2.602767991254699
 20
48.04291555467775
 30
0.0
  0
VERTEX
  5
67B
  8
T9_COUNTERSINK_0_6
 10
2.598071403049377
 20
48.05064531504654
 30
0.0
  0
VERTEX
  5
67C
  8
T9_COUNTERSINK_0_6
 10
2.592674107366683
 20
48.05786245619526
 30
0.0
  0
VERTEX
  5
67D
  8
T9_COUNTERSINK_0_6
 10
2.586623213945488
 20
48.06451987157261
 30
0.0
  0
VERTEX
  5
67E
  8
T9_COUNTERSINK_0_6
 10
2.579965832524661
 20
48.07057045462729
 30
0.0
  0
VERTEX
  5
67F
  8
T9_COUNTERSINK_0_6
 10
2.572749072843072
 20
48.075967098808
 30
0.0
  0
VERTEX
  5
680
  8
T9_COUNTERSINK_0_6
 10
2.56502004463959
 20
48.08066269756345
 30
0.0
  0
VERTEX
  5
681
  8
T9_COUNTERSINK_0_6
 10
2.556825857653084
 20
48.08461014434234
 30
0.0
  0
VERTEX
  5
682
  8
T9_COUNTERSINK_0_6
 10
2.548213621622424
 20
48.08776233259338
 30
0.0
  0
VERTEX
  5
683
  8
T9_COUNTERSINK_0_6
 10
2.539230446286479
 20
48.09007215576527
 30
0.0
  0
VERTEX
  5
684
  8
T9_COUNTERSINK_0_6
 10
2.529923441384119
 20
48.09149250730671
 30
0.0
  0
VERTEX
  5
685
  8
T9_COUNTERSINK_0_6
 10
2.520339716654213
 20
48.09197628066639
 30
0.0
  0
VERTEX
  5
686
  8
T9_COUNTERSINK_0_6
 10
2.510753670834987
 20
48.0914928494161
 30
0.0
  0
VERTEX
  5
687
  8
T9_COUNTERSINK_0_6
 10
2.501444683523686
 20
48.09007277059393
 30
0.0
  0
VERTEX
  5
688
  8
T9_COUNTERSINK_0_6
 10
2.492459861625476
 20
48.08776315889319
 30
0.0
  0
VERTEX
  5
689
  8
T9_COUNTERSINK_0_6
 10
2.483846312045522
 20
48.08461112900719
 30
0.0
  0
VERTEX
  5
68A
  8
T9_COUNTERSINK_0_6
 10
2.475651141688991
 20
48.08066379562922
 30
0.0
  0
VERTEX
  5
68B
  8
T9_COUNTERSINK_0_6
 10
2.467921457461048
 20
48.07596827345258
 30
0.0
  0
VERTEX
  5
68C
  8
T9_COUNTERSINK_0_6
 10
2.46070436626686
 20
48.07057167717058
 30
0.0
  0
VERTEX
  5
68D
  8
T9_COUNTERSINK_0_6
 10
2.454046975011593
 20
48.06452112147653
 30
0.0
  0
VERTEX
  5
68E
  8
T9_COUNTERSINK_0_6
 10
2.447996390600412
 20
48.05786372106371
 30
0.0
  0
VERTEX
  5
68F
  8
T9_COUNTERSINK_0_6
 10
2.442599719938484
 20
48.05064659062543
 30
0.0
  0
VERTEX
  5
690
  8
T9_COUNTERSINK_0_6
 10
2.437904069930975
 20
48.04291684485501
 30
0.0
  0
VERTEX
  5
691
  8
T9_COUNTERSINK_0_6
 10
2.433956547483052
 20
48.03472159844573
 30
0.0
  0
VERTEX
  5
692
  8
T9_COUNTERSINK_0_6
 10
2.430804259499879
 20
48.0261079660909
 30
0.0
  0
VERTEX
  5
693
  8
T9_COUNTERSINK_0_6
 10
2.428494312886623
 20
48.01712306248381
 30
0.0
  0
VERTEX
  5
694
  8
T9_COUNTERSINK_0_6
 10
2.42707381454845
 20
48.00781400231777
 30
0.0
  0
VERTEX
  5
695
  8
T9_COUNTERSINK_0_6
 10
2.426589871390526
 20
47.9982279002861
 30
0.0
  0
VERTEX
  5
696
  8
T9_COUNTERSINK_0_6
 10
2.427071519870953
 20
47.9886419818008
 30
0.0
  0
VERTEX
  5
697
  8
T9_COUNTERSINK_0_6
 10
2.428490058690431
 20
47.97933310448383
 30
0.0
  0
VERTEX
  5
698
  8
T9_COUNTERSINK_0_6
 10
2.430798378110092
 20
47.9703483748865
 30
0.0
  0
VERTEX
  5
699
  8
T9_COUNTERSINK_0_6
 10
2.433949368391064
 20
47.9617348995601
 30
0.0
  0
VERTEX
  5
69A
  8
T9_COUNTERSINK_0_6
 10
2.43789591979448
 20
47.95353978505592
 30
0.0
  0
VERTEX
  5
69B
  8
T9_COUNTERSINK_0_6
 10
2.442590922581469
 20
47.94581013792527
 30
0.0
  0
VERTEX
  5
69C
  8
T9_COUNTERSINK_0_6
 10
2.447987267013162
 20
47.93859306471943
 30
0.0
  0
VERTEX
  5
69D
  8
T9_COUNTERSINK_0_6
 10
2.454037843350691
 20
47.93193567198972
 30
0.0
  0
VERTEX
  5
69E
  8
T9_COUNTERSINK_0_6
 10
2.460695541855184
 20
47.92588506628742
 30
0.0
  0
VERTEX
  5
69F
  8
T9_COUNTERSINK_0_6
 10
2.467913252787773
 20
47.92048835416382
 30
0.0
  0
VERTEX
  5
6A0
  8
T9_COUNTERSINK_0_6
 10
2.475643866409588
 20
47.91579264217023
 30
0.0
  0
VERTEX
  5
6A1
  8
T9_COUNTERSINK_0_6
 10
2.48384027298176
 20
47.91184503685794
 30
0.0
  0
VERTEX
  5
6A2
  8
T9_COUNTERSINK_0_6
 10
2.492455362765419
 20
47.90869264477826
 30
0.0
  0
VERTEX
  5
6A3
  8
T9_COUNTERSINK_0_6
 10
2.501442026021696
 20
47.90638257248246
 30
0.0
  0
VERTEX
  5
6A4
  8
T9_COUNTERSINK_0_6
 10
2.510753153011722
 20
47.90496192652186
 30
0.0
  0
SEQEND
  5
77A
  8
T9_COUNTERSINK_0_6
  0
POLYLINE
  5
8A
  8
T9_COUNTERSINK_0_6
 66
     1
 10
0.0
 20
0.0
 30
0.0
 70
     1
  0
VERTEX
  5
6A5
  8
T9_COUNTERSINK_0_6
 10
2.520037026167671
 20
49.81106744323166
 30
0.0
  0
VERTEX
  5
6A6
  8
T9_COUNTERSINK_0_6
 10
2.529620890919553
 20
49.81058358517532
 30
0.0
  0
VERTEX
  5
6A7
  8
T9_COUNTERSINK_0_6
 10
2.538928264456043
 20
49.80916300313628
 30
0.0
  0
VERTEX
  5
6A8
  8
T9_COUNTERSINK_0_6
 10
2.547911959890569
 20
49.80685283905432
 30
0.0
  0
VERTEX
  5
6A9
  8
T9_COUNTERSINK_0_6
 10
2.55652479033656
 20
49.80370023486925
 30
0.0
  0
VERTEX
  5
6AA
  8
T9_COUNTERSINK_0_6
 10
2.564719568907444
 20
49.79975233252087
 30
0.0
  0
VERTEX
  5
6AB
  8
T9_COUNTERSINK_0_6
 10
2.57244910871665
 20
49.79505627394899
 30
0.0
  0
VERTEX
  5
6AC
  8
T9_COUNTERSINK_0_6
 10
2.579666222877606
 20
49.78965920109337
 30
0.0
  0
VERTEX
  5
6AD
  8
T9_COUNTERSINK_0_6
 10
2.58632372450374
 20
49.78360825589384
 30
0.0
  0
VERTEX
  5
6AE
  8
T9_COUNTERSINK_0_6
 10
2.592374426708481
 20
49.77695058029019
 30
0.0
  0
VERTEX
  5
6AF
  8
T9_COUNTERSINK_0_6
 10
2.597771142605259
 20
49.7697333162222
 30
0.0
  0
VERTEX
  5
6B0
  8
T9_COUNTERSINK_0_6
 10
2.6024666853075
 20
49.7620036056297
 30
0.0
  0
VERTEX
  5
6B1
  8
T9_COUNTERSINK_0_6
 10
2.606413867928633
 20
49.75380859045245
 30
0.0
  0
VERTEX
  5
6B2
  8
T9_COUNTERSINK_0_6
 10
2.609565503582087
 20
49.74519541263027
 30
0.0
  0
VERTEX
  5
6B3
  8
T9_COUNTERSINK_0_6
 10
2.611874405381291
 20
49.73621121410295
 30
0.0
  0
VERTEX
  5
6B4
  8
T9_COUNTERSINK_0_6
 10
2.613293386439673
 20
49.7269031368103
 30
0.0
  0
VERTEX
  5
6B5
  8
T9_COUNTERSINK_0_6
 10
2.613775259870661
 20
49.71731832269211
 30
0.0
  0
VERTEX
  5
6B6
  8
T9_COUNTERSINK_0_6
 10
2.613293589261527
 20
49.70773261773128
 30
0.0
  0
VERTEX
  5
6B7
  8
T9_COUNTERSINK_0_6
 10
2.611874797959652
 20
49.69842384563648
 30
0.0
  0
VERTEX
  5
6B8
  8
T9_COUNTERSINK_0_6
 10
2.609566072848858
 20
49.68943912534797
 30
0.0
  0
VERTEX
  5
6B9
  8
T9_COUNTERSINK_0_6
 10
2.606414600812964
 20
49.680825575806
 30
0.0
  0
VERTEX
  5
6BA
  8
T9_COUNTERSINK_0_6
 10
2.602467568735793
 20
49.67263031595083
 30
0.0
  0
VERTEX
  5
6BB
  8
T9_COUNTERSINK_0_6
 10
2.597772163501165
 20
49.66490046472273
 30
0.0
  0
VERTEX
  5
6BC
  8
T9_COUNTERSINK_0_6
 10
2.5923755719929
 20
49.65768314106195
 30
0.0
  0
VERTEX
  5
6BD
  8
T9_COUNTERSINK_0_6
 10
2.586324981094822
 20
49.65102546390875
 30
0.0
  0
VERTEX
  5
6BE
  8
T9_COUNTERSINK_0_6
 10
2.579667577690749
 20
49.6449745522034
 30
0.0
  0
VERTEX
  5
6BF
  8
T9_COUNTERSINK_0_6
 10
2.572450548664504
 20
49.63957752488615
 30
0.0
  0
VERTEX
  5
6C0
  8
T9_COUNTERSINK_0_6
 10
2.564721080899908
 20
49.63488150089725
 30
0.0
  0
VERTEX
  5
6C1
  8
T9_COUNTERSINK_0_6
 10
2.55652636128078
 20
49.63093359917697
 30
0.0
  0
VERTEX
  5
6C2
  8
T9_COUNTERSINK_0_6
 10
2.547913576690944
 20
49.62778093866558
 30
0.0
  0
VERTEX
  5
6C3
  8
T9_COUNTERSINK_0_6
 10
2.538929914014219
 20
49.62547063830333
 30
0.0
  0
VERTEX
  5
6C4
  8
T9_COUNTERSINK_0_6
 10
2.529622560134426
 20
49.62404981703047
 30
0.0
  0
VERTEX
  5
6C5
  8
T9_COUNTERSINK_0_6
 10
2.520038701935388
 20
49.62356559378728
 30
0.0
  0
VERTEX
  5
6C6
  8
T9_COUNTERSINK_0_6
 10
2.510452495563334
 20
49.62405017931036
 30
0.0
  0
VERTEX
  5
6C7
  8
T9_COUNTERSINK_0_6
 10
2.501143067410405
 20
49.62547132390546
 30
0.0
  0
VERTEX
  5
6C8
  8
T9_COUNTERSINK_0_6
 10
2.492157585607053
 20
49.62778190191156
 30
0.0
  0
VERTEX
  5
6C9
  8
T9_COUNTERSINK_0_6
 10
2.483543218283725
 20
49.63093478766763
 30
0.0
  0
VERTEX
  5
6CA
  8
T9_COUNTERSINK_0_6
 10
2.475347133570873
 20
49.63488285551264
 30
0.0
  0
VERTEX
  5
6CB
  8
T9_COUNTERSINK_0_6
 10
2.467616499598944
 20
49.63957897978558
 30
0.0
  0
VERTEX
  5
6CC
  8
T9_COUNTERSINK_0_6
 10
2.460398484498389
 20
49.64497603482542
 30
0.0
  0
VERTEX
  5
6CD
  8
T9_COUNTERSINK_0_6
 10
2.453740256399658
 20
49.65102689497113
 30
0.0
  0
VERTEX
  5
6CE
  8
T9_COUNTERSINK_0_6
 10
2.447688983433199
 20
49.6576844345617
 30
0.0
  0
VERTEX
  5
6CF
  8
T9_COUNTERSINK_0_6
 10
2.442291833729463
 20
49.6649015279361
 30
0.0
  0
VERTEX
  5
6D0
  8
T9_COUNTERSINK_0_6
 10
2.4375959754189
 20
49.67263104943329
 30
0.0
  0
VERTEX
  5
6D1
  8
T9_COUNTERSINK_0_6
 10
2.433648576631958
 20
49.68082587339228
 30
0.0
  0
VERTEX
  5
6D2
  8
T9_COUNTERSINK_0_6
 10
2.430496805499087
 20
49.68943887415202
 30
0.0
  0
VERTEX
  5
6D3
  8
T9_COUNTERSINK_0_6
 10
2.428187830150737
 20
49.69842292605149
 30
0.0
  0
VERTEX
  5
6D4
  8
T9_COUNTERSINK_0_6
 10
2.426768818717357
 20
49.70773090342966
 30
0.0
  0
VERTEX
  5
6D5
  8
T9_COUNTERSINK_0_6
 10
2.426286939329398
 20
49.71731568062553
 30
0.0
  0
VERTEX
  5
6D6
  8
T9_COUNTERSINK_0_6
 10
2.426770991368966
 20
49.72690121549324
 30
0.0
  0
VERTEX
  5
6D7
  8
T9_COUNTERSINK_0_6
 10
2.42819186683534
 20
49.73620983872708
 30
0.0
  0
VERTEX
  5
6D8
  8
T9_COUNTERSINK_0_6
 10
2.430502398662429
 20
49.74519442997131
 30
0.0
  0
VERTEX
  5
6D9
  8
T9_COUNTERSINK_0_6
 10
2.433655419784139
 20
49.75380786887018
 30
0.0
  0
VERTEX
  5
6DA
  8
T9_COUNTERSINK_0_6
 10
2.437603763134379
 20
49.76200303506798
 30
0.0
  0
VERTEX
  5
6DB
  8
T9_COUNTERSINK_0_6
 10
2.442300261647057
 20
49.76973280820896
 30
0.0
  0
VERTEX
  5
6DC
  8
T9_COUNTERSINK_0_6
 10
2.447697748256082
 20
49.77695006793738
 30
0.0
  0
VERTEX
  5
6DD
  8
T9_COUNTERSINK_0_6
 10
2.453749055895359
 20
49.78360769389751
 30
0.0
  0
VERTEX
  5
6DE
  8
T9_COUNTERSINK_0_6
 10
2.460407017498799
 20
49.78965856573362
 30
0.0
  0
VERTEX
  5
6DF
  8
T9_COUNTERSINK_0_6
 10
2.467624466000308
 20
49.79505556308995
 30
0.0
  0
VERTEX
  5
6E0
  8
T9_COUNTERSINK_0_6
 10
2.475354234333795
 20
49.79975156561078
 30
0.0
  0
VERTEX
  5
6E1
  8
T9_COUNTERSINK_0_6
 10
2.483549155433167
 20
49.80369945294038
 30
0.0
  0
VERTEX
  5
6E2
  8
T9_COUNTERSINK_0_6
 10
2.492162062232333
 20
49.80685210472301
 30
0.0
  0
VERTEX
  5
6E3
  8
T9_COUNTERSINK_0_6
 10
2.5011457876652
 20
49.80916240060291
 30
0.0
  0
VERTEX
  5
6E4
  8
T9_COUNTERSINK_0_6
 10
2.510453164665677
 20
49.81058322022439
 30
0.0
  0
SEQEND
  5
77B
  8
T9_COUNTERSINK_0_6
  0
POLYLINE
  5
8B
  8
T9_COUNTERSINK_0_6
 66
     1
 10
0.0
 20
0.0
 30
0.0
 70
     1
  0
VERTEX
  5
6E5
  8
T9_COUNTERSINK_0_6
 10
1.000173639709209
 20
17.33291919312259
 30
0.0
  0
VERTEX
  5
6E6
  8
T9_COUNTERSINK_0_6
 10
1.009762118689031
 20
17.33243500549609
 30
0.0
  0
VERTEX
  5
6E7
  8
T9_COUNTERSINK_0_6
 10
1.019073254291104
 20
17.33101415475239
 30
0.0
  0
VERTEX
  5
6E8
  8
T9_COUNTERSINK_0_6
 10
1.028059958717504
 20
17.32870377575389
 30
0.0
  0
VERTEX
  5
6E9
  8
T9_COUNTERSINK_0_6
 10
1.036675144170305
 20
17.32555100336301
 30
0.0
  0
VERTEX
  5
6EA
  8
T9_COUNTERSINK_0_6
 10
1.044871722851582
 20
17.32160297244217
 30
0.0
  0
VERTEX
  5
6EB
  8
T9_COUNTERSINK_0_6
 10
1.052602606963409
 20
17.31690681785377
 30
0.0
  0
VERTEX
  5
6EC
  8
T9_COUNTERSINK_0_6
 10
1.059820708707862
 20
17.31150967446024
 30
0.0
  0
VERTEX
  5
6ED
  8
T9_COUNTERSINK_0_6
 10
1.066478940287015
 20
17.30545867712398
 30
0.0
  0
VERTEX
  5
6EE
  8
T9_COUNTERSINK_0_6
 10
1.072530213902944
 20
17.29880096070742
 30
0.0
  0
VERTEX
  5
6EF
  8
T9_COUNTERSINK_0_6
 10
1.077927441757722
 20
17.29158366007295
 30
0.0
  0
VERTEX
  5
6F0
  8
T9_COUNTERSINK_0_6
 10
1.082623536053424
 20
17.283853910083
 30
0.0
  0
VERTEX
  5
6F1
  8
T9_COUNTERSINK_0_6
 10
1.086571408992126
 20
17.27565884559999
 30
0.0
  0
VERTEX
  5
6F2
  8
T9_COUNTERSINK_0_6
 10
1.089723972775902
 20
17.26704560148632
 30
0.0
  0
VERTEX
  5
6F3
  8
T9_COUNTERSINK_0_6
 10
1.092034139606827
 20
17.2580613126044
 30
0.0
  0
VERTEX
  5
6F4
  8
T9_COUNTERSINK_0_6
 10
1.093454821686975
 20
17.24875311381667
 30
0.0
  0
VERTEX
  5
6F5
  8
T9_COUNTERSINK_0_6
 10
1.093938931218422
 20
17.23916813998551
 30
0.0
  0
VERTEX
  5
6F6
  8
T9_COUNTERSINK_0_6
 10
1.093452797697825
 20
17.22958279154988
 30
0.0
  0
VERTEX
  5
6F7
  8
T9_COUNTERSINK_0_6
 10
1.092030658054553
 20
17.22027436359842
 30
0.0
  0
VERTEX
  5
6F8
  8
T9_COUNTERSINK_0_6
 10
1.089719539745923
 20
17.21128997400912
 30
0.0
  0
VERTEX
  5
6F9
  8
T9_COUNTERSINK_0_6
 10
1.086566470229248
 20
17.20267674065997
 30
0.0
  0
VERTEX
  5
6FA
  8
T9_COUNTERSINK_0_6
 10
1.082618476961844
 20
17.19448178142896
 30
0.0
  0
VERTEX
  5
6FB
  8
T9_COUNTERSINK_0_6
 10
1.077922587401025
 20
17.18675221419408
 30
0.0
  0
VERTEX
  5
6FC
  8
T9_COUNTERSINK_0_6
 10
1.072525829004106
 20
17.17953515683333
 30
0.0
  0
VERTEX
  5
6FD
  8
T9_COUNTERSINK_0_6
 10
1.066475229228401
 20
17.17287772722471
 30
0.0
  0
VERTEX
  5
6FE
  8
T9_COUNTERSINK_0_6
 10
1.059817815531226
 20
17.16682704324619
 30
0.0
  0
VERTEX
  5
6FF
  8
T9_COUNTERSINK_0_6
 10
1.052600615369896
 20
17.16143022277578
 30
0.0
  0
VERTEX
  5
700
  8
T9_COUNTERSINK_0_6
 10
1.044870656201725
 20
17.15673438369146
 30
0.0
  0
VERTEX
  5
701
  8
T9_COUNTERSINK_0_6
 10
1.036674965484028
 20
17.15278664387123
 30
0.0
  0
VERTEX
  5
702
  8
T9_COUNTERSINK_0_6
 10
1.02806057067412
 20
17.1496341211931
 30
0.0
  0
VERTEX
  5
703
  8
T9_COUNTERSINK_0_6
 10
1.019074499229315
 20
17.14732393353502
 30
0.0
  0
VERTEX
  5
704
  8
T9_COUNTERSINK_0_6
 10
1.009763778606928
 20
17.14590319877502
 30
0.0
  0
VERTEX
  5
705
  8
T9_COUNTERSINK_0_6
 10
1.000175436264275
 20
17.14541903479108
 30
0.0
  0
VERTEX
  5
706
  8
T9_COUNTERSINK_0_6
 10
0.9905917155153978
 20
17.14590286388814
 30
0.0
  0
VERTEX
  5
707
  8
T9_COUNTERSINK_0_6
 10
0.9812847214945155
 20
17.14732336777837
 30
0.0
  0
VERTEX
  5
708
  8
T9_COUNTERSINK_0_6
 10
0.9723015623480861
 20
17.14963341761553
 30
0.0
  0
VERTEX
  5
709
  8
T9_COUNTERSINK_0_6
 10
0.9636893462225677
 20
17.15278588455338
 30
0.0
  0
VERTEX
  5
70A
  8
T9_COUNTERSINK_0_6
 10
0.9554951812644186
 20
17.15673363974568
 30
0.0
  0
VERTEX
  5
70B
  8
T9_COUNTERSINK_0_6
 10
0.9477661756200968
 20
17.16142955434619
 30
0.0
  0
VERTEX
  5
70C
  8
T9_COUNTERSINK_0_6
 10
0.9405494374360603
 20
17.16682649950867
 30
0.0
  0
VERTEX
  5
70D
  8
T9_COUNTERSINK_0_6
 10
0.9338920748587677
 20
17.17287734638687
 30
0.0
  0
VERTEX
  5
70E
  8
T9_COUNTERSINK_0_6
 10
0.9278411960346767
 20
17.17953496613454
 30
0.0
  0
VERTEX
  5
70F
  8
T9_COUNTERSINK_0_6
 10
0.9224439091102457
 20
17.18675222990546
 30
0.0
  0
VERTEX
  5
710
  8
T9_COUNTERSINK_0_6
 10
0.9177473222319326
 20
17.19448200885337
 30
0.0
  0
VERTEX
  5
711
  8
T9_COUNTERSINK_0_6
 10
0.9137985435461957
 20
17.20267717413204
 30
0.0
  0
VERTEX
  5
712
  8
T9_COUNTERSINK_0_6
 10
0.9106446811994933
 20
17.21129059689522
 30
0.0
  0
VERTEX
  5
713
  8
T9_COUNTERSINK_0_6
 10
0.9083328433382831
 20
17.22027514829668
 30
0.0
  0
VERTEX
  5
714
  8
T9_COUNTERSINK_0_6
 10
0.9069101381090238
 20
17.22958369949016
 30
0.0
  0
VERTEX
  5
715
  8
T9_COUNTERSINK_0_6
 10
0.906423673658173
 20
17.23916912162942
 30
0.0
  0
VERTEX
  5
716
  8
T9_COUNTERSINK_0_6
 10
0.9069099352576613
 20
17.2487542181563
 30
0.0
  0
VERTEX
  5
717
  8
T9_COUNTERSINK_0_6
 10
0.9083324505239762
 20
17.25806251346019
 30
0.0
  0
VERTEX
  5
718
  8
T9_COUNTERSINK_0_6
 10
0.9106441111364747
 20
17.26704687303005
 30
0.0
  0
VERTEX
  5
719
  8
T9_COUNTERSINK_0_6
 10
0.9137978087745141
 20
17.27566016235485
 30
0.0
  0
VERTEX
  5
71A
  8
T9_COUNTERSINK_0_6
 10
0.9177464351174517
 20
17.28385524692356
 30
0.0
  0
VERTEX
  5
71B
  8
T9_COUNTERSINK_0_6
 10
0.9224428818446446
 20
17.29158499222515
 30
0.0
  0
VERTEX
  5
71C
  8
T9_COUNTERSINK_0_6
 10
0.9278400406354501
 20
17.29880226374859
 30
0.0
  0
VERTEX
  5
71D
  8
T9_COUNTERSINK_0_6
 10
0.9338908031692256
 20
17.30545992698285
 30
0.0
  0
VERTEX
  5
71E
  8
T9_COUNTERSINK_0_6
 10
0.9405480611253281
 20
17.31151084741689
 30
0.0
  0
VERTEX
  5
71F
  8
T9_COUNTERSINK_0_6
 10
0.9477647061831147
 20
17.31690789053969
 30
0.0
  0
VERTEX
  5
720
  8
T9_COUNTERSINK_0_6
 10
0.955493630021943
 20
17.32160392184021
 30
0.0
  0
VERTEX
  5
721
  8
T9_COUNTERSINK_0_6
 10
0.9636877243211699
 20
17.32555180680743
 30
0.0
  0
VERTEX
  5
722
  8
T9_COUNTERSINK_0_6
 10
0.9722998807601527
 20
17.32870441093031
 30
0.0
  0
VERTEX
  5
723
  8
T9_COUNTERSINK_0_6
 10
0.9812829910182488
 20
17.33101459969781
 30
0.0
  0
VERTEX
  5
724
  8
T9_COUNTERSINK_0_6
 10
0.9905899467748153
 20
17.33243523859892
 30
0.0
  0
SEQEND
  5
77C
  8
T9_COUNTERSINK_0_6
  0
POLYLINE
  5
8C
  8
T9_COUNTERSINK_0_6
 66
     1
 10
0.0
 20
0.0
 30
0.0
 70
     1
  0
VERTEX
  5
725
  8
T9_COUNTERSINK_0_6
 10
1.000189966612589
 20
19.05171731126894
 30
0.0
  0
VERTEX
  5
726
  8
T9_COUNTERSINK_0_6
 10
1.009775916855996
 20
19.05123332293075
 30
0.0
  0
VERTEX
  5
727
  8
T9_COUNTERSINK_0_6
 10
1.019084565657264
 20
19.04981270084821
 30
0.0
  0
VERTEX
  5
728
  8
T9_COUNTERSINK_0_6
 10
1.02806886432312
 20
19.04750256962114
 30
0.0
  0
VERTEX
  5
729
  8
T9_COUNTERSINK_0_6
 10
1.036681764160294
 20
19.04435005384934
 30
0.0
  0
VERTEX
  5
72A
  8
T9_COUNTERSINK_0_6
 10
1.044876216475516
 20
19.04040227813262
 30
0.0
  0
VERTEX
  5
72B
  8
T9_COUNTERSINK_0_6
 10
1.052605172575515
 20
19.03570636707081
 30
0.0
  0
VERTEX
  5
72C
  8
T9_COUNTERSINK_0_6
 10
1.05982158376702
 20
19.0303094452637
 30
0.0
  0
VERTEX
  5
72D
  8
T9_COUNTERSINK_0_6
 10
1.066478401356761
 20
19.02425863731111
 30
0.0
  0
VERTEX
  5
72E
  8
T9_COUNTERSINK_0_6
 10
1.072528576651466
 20
19.01760106781286
 30
0.0
  0
VERTEX
  5
72F
  8
T9_COUNTERSINK_0_6
 10
1.077925060957866
 20
19.01038386136876
 30
0.0
  0
VERTEX
  5
730
  8
T9_COUNTERSINK_0_6
 10
1.08262080558269
 20
19.00265414257861
 30
0.0
  0
VERTEX
  5
731
  8
T9_COUNTERSINK_0_6
 10
1.086568761832666
 20
18.99445903604222
 30
0.0
  0
VERTEX
  5
732
  8
T9_COUNTERSINK_0_6
 10
1.089721881014525
 20
18.98584566635942
 30
0.0
  0
VERTEX
  5
733
  8
T9_COUNTERSINK_0_6
 10
1.092033114434995
 20
18.97686115813001
 30
0.0
  0
VERTEX
  5
734
  8
T9_COUNTERSINK_0_6
 10
1.093455413400806
 20
18.9675526359538
 30
0.0
  0
VERTEX
  5
735
  8
T9_COUNTERSINK_0_6
 10
1.093941729218687
 20
18.95796722443061
 30
0.0
  0
VERTEX
  5
736
  8
T9_COUNTERSINK_0_6
 10
1.093455449041067
 20
18.94838186779603
 30
0.0
  0
VERTEX
  5
737
  8
T9_COUNTERSINK_0_6
 10
1.092032922627873
 20
18.93907341642753
 30
0.0
  0
VERTEX
  5
738
  8
T9_COUNTERSINK_0_6
 10
1.089721257238141
 20
18.93008898997283
 30
0.0
  0
VERTEX
  5
739
  8
T9_COUNTERSINK_0_6
 10
1.086567560130906
 20
18.92147570807968
 30
0.0
  0
VERTEX
  5
73A
  8
T9_COUNTERSINK_0_6
 10
1.082618938565202
 20
18.91328069039581
 30
0.0
  0
VERTEX
  5
73B
  8
T9_COUNTERSINK_0_6
 10
1.077922499800066
 20
18.90555105656895
 30
0.0
  0
VERTEX
  5
73C
  8
T9_COUNTERSINK_0_6
 10
1.072525351094532
 20
18.89833392624683
 30
0.0
  0
VERTEX
  5
73D
  8
T9_COUNTERSINK_0_6
 10
1.066474599707636
 20
18.89167641907719
 30
0.0
  0
VERTEX
  5
73E
  8
T9_COUNTERSINK_0_6
 10
1.059817352898413
 20
18.88562565470776
 30
0.0
  0
VERTEX
  5
73F
  8
T9_COUNTERSINK_0_6
 10
1.052600717925898
 20
18.88022875278628
 30
0.0
  0
VERTEX
  5
740
  8
T9_COUNTERSINK_0_6
 10
1.044871802049126
 20
18.87553283296049
 30
0.0
  0
VERTEX
  5
741
  8
T9_COUNTERSINK_0_6
 10
1.036677712527133
 20
18.87158501487811
 30
0.0
  0
VERTEX
  5
742
  8
T9_COUNTERSINK_0_6
 10
1.028065556618954
 20
18.86843241818689
 30
0.0
  0
VERTEX
  5
743
  8
T9_COUNTERSINK_0_6
 10
1.019082441583624
 20
18.86612216253454
 30
0.0
  0
VERTEX
  5
744
  8
T9_COUNTERSINK_0_6
 10
1.009775474680178
 20
18.86470136756882
 30
0.0
  0
VERTEX
  5
745
  8
T9_COUNTERSINK_0_6
 10
1.000191763167651
 20
18.86421715293745
 30
0.0
  0
VERTEX
  5
746
  8
T9_COUNTERSINK_0_6
 10
0.9906034301667792
 20
18.86470129278963
 30
0.0
  0
VERTEX
  5
747
  8
T9_COUNTERSINK_0_6
 10
0.9812926935738355
 20
18.8661220129502
 30
0.0
  0
VERTEX
  5
748
  8
T9_COUNTERSINK_0_6
 10
0.9723065827951656
 20
18.86843219766647
 30
0.0
  0
VERTEX
  5
749
  8
T9_COUNTERSINK_0_6
 10
0.9636921272371142
 20
18.87158473118576
 30
0.0
  0
VERTEX
  5
74A
  8
T9_COUNTERSINK_0_6
 10
0.955496356306027
 20
18.87553249775538
 30
0.0
  0
VERTEX
  5
74B
  8
T9_COUNTERSINK_0_6
 10
0.947766299408249
 20
18.88022838162264
 30
0.0
  0
VERTEX
  5
74C
  8
T9_COUNTERSINK_0_6
 10
0.9405489859501257
 20
18.88562526703485
 30
0.0
  0
VERTEX
  5
74D
  8
T9_COUNTERSINK_0_6
 10
0.933891445338002
 20
18.89167603823934
 30
0.0
  0
VERTEX
  5
74E
  8
T9_COUNTERSINK_0_6
 10
0.9278407069782234
 20
18.89833357948341
 30
0.0
  0
VERTEX
  5
74F
  8
T9_COUNTERSINK_0_6
 10
0.9224438002771354
 20
18.90555077501437
 30
0.0
  0
VERTEX
  5
750
  8
T9_COUNTERSINK_0_6
 10
0.9177477546410828
 20
18.91328050907955
 30
0.0
  0
VERTEX
  5
751
  8
T9_COUNTERSINK_0_6
 10
0.9137995994764114
 20
18.92147566592624
 30
0.0
  0
VERTEX
  5
752
  8
T9_COUNTERSINK_0_6
 10
0.9106463641894662
 20
18.93008912980178
 30
0.0
  0
VERTEX
  5
753
  8
T9_COUNTERSINK_0_6
 10
0.9083350781865922
 20
18.93907378495346
 30
0.0
  0
VERTEX
  5
754
  8
T9_COUNTERSINK_0_6
 10
0.9069127708741351
 20
18.9483825156286
 30
0.0
  0
VERTEX
  5
755
  8
T9_COUNTERSINK_0_6
 10
0.90642647165844
 20
18.95796820607452
 30
0.0
  0
VERTEX
  5
756
  8
T9_COUNTERSINK_0_6
 10
0.9069126065060467
 20
18.96755357308926
 30
0.0
  0
VERTEX
  5
757
  8
T9_COUNTERSINK_0_6
 10
0.9083347497764769
 20
18.97686205182366
 30
0.0
  0
VERTEX
  5
758
  8
T9_COUNTERSINK_0_6
 10
0.9106458734816123
 20
18.98584651696805
 30
0.0
  0
VERTEX
  5
759
  8
T9_COUNTERSINK_0_6
 10
0.9137989496333342
 20
18.99445984321281
 30
0.0
  0
VERTEX
  5
75A
  8
T9_COUNTERSINK_0_6
 10
0.9177469502435239
 20
19.00265490524829
 30
0.0
  0
VERTEX
  5
75B
  8
T9_COUNTERSINK_0_6
 10
0.9224428473240632
 20
19.01038457776485
 30
0.0
  0
VERTEX
  5
75C
  8
T9_COUNTERSINK_0_6
 10
0.9278396128868334
 20
19.01760173545286
 30
0.0
  0
VERTEX
  5
75D
  8
T9_COUNTERSINK_0_6
 10
0.9338902189437158
 20
19.02425925300266
 30
0.0
  0
VERTEX
  5
75E
  8
T9_COUNTERSINK_0_6
 10
0.940547637506592
 20
19.03031000510463
 30
0.0
  0
VERTEX
  5
75F
  8
T9_COUNTERSINK_0_6
 10
0.9477648405873431
 20
19.0357068664491
 30
0.0
  0
VERTEX
  5
760
  8
T9_COUNTERSINK_0_6
 10
0.9554948001978509
 20
19.04040271172646
 30
0.0
  0
VERTEX
  5
761
  8
T9_COUNTERSINK_0_6
 10
0.9636904883499967
 20
19.04435041562705
 30
0.0
  0
VERTEX
  5
762
  8
T9_COUNTERSINK_0_6
 10
0.9723048770556619
 20
19.04750285284124
 30
0.0
  0
VERTEX
  5
763
  8
T9_COUNTERSINK_0_6
 10
0.9812909383267281
 20
19.04981289805937
 30
0.0
  0
VERTEX
  5
764
  8
T9_COUNTERSINK_0_6
 10
0.9906016441750767
 20
19.05123342597182
 30
0.0
  0
SEQEND
  5
77D
  8
T9_COUNTERSINK_0_6
  0
ENDSEC
  0
EOF
