  0
SECTION
  2
HEADER
  9
$ACADVER
  1
AC1009
  9
$DWGCODEPAGE
  3
ansi_1252
  9
$INSBASE
 10
0.0
 20
0.0
 30
0.0
  9
$EXTMIN
 10
0.0
 20
2.5256
 30
0.0
  9
$EXTMAX
 10
3.559362003885539
 20
92.47438696727053
 30
0.0
  9
$LIMMIN
 10
0.0
 20
0.0
  9
$LIMMAX
 10
12.0
 20
9.0
  9
$ORTHOMODE
 70
     0
  9
$REGENMODE
 70
     1
  9
$FILLMODE
 70
     1
  9
$QTEXTMODE
 70
     0
  9
$MIRRTEXT
 70
     1
  9
$DRAGMODE
 70
     2
  9
$LTSCALE
 40
1.0
  9
$OSMODE
 70
    37
  9
$ATTMODE
 70
     1
  9
$TEXTSIZE
 40
0.2
  9
$TRACEWID
 40
0.05
  9
$TEXTSTYLE
  7
STANDARD
  9
$CLAYER
  8
0
  9
$CELTYPE
  6
BYLAYER
  9
$CECOLOR
 62
   256
  9
$DIMSCALE
 40
1.0
  9
$DIMASZ
 40
0.18
  9
$DIMEXO
 40
0.0625
  9
$DIMDLI
 40
0.38
  9
$DIMRND
 40
0.0
  9
$DIMDLE
 40
0.0
  9
$DIMEXE
 40
0.18
  9
$DIMTP
 40
0.0
  9
$DIMTM
 40
0.0
  9
$DIMTXT
 40
0.18
  9
$DIMCEN
 40
0.09
  9
$DIMTSZ
 40
0.0
  9
$DIMTOL
 70
     0
  9
$DIMLIM
 70
     0
  9
$DIMTIH
 70
     1
  9
$DIMTOH
 70
     1
  9
$DIMSE1
 70
     0
  9
$DIMSE2
 70
     0
  9
$DIMTAD
 70
     0
  9
$DIMZIN
 70
     0
  9
$DIMBLK
  1

  9
$DIMASO
 70
     1
  9
$DIMSHO
 70
     1
  9
$DIMPOST
  1

  9
$DIMAPOST
  1

  9
$DIMALT
 70
     0
  9
$DIMALTD
 70
     2
  9
$DIMALTF
 40
25.4
  9
$DIMLFAC
 40
1.0
  9
$DIMTOFL
 70
     0
  9
$DIMTVP
 40
0.0
  9
$DIMTIX
 70
     0
  9
$DIMSOXD
 70
     0
  9
$DIMSAH
 70
     0
  9
$DIMBLK1
  1

  9
$DIMBLK2
  1

  9
$DIMSTYLE
  2
STANDARD
  9
$DIMCLRD
 70
     0
  9
$DIMCLRE
 70
     0
  9
$DIMCLRT
 70
     0
  9
$DIMTFAC
 40
1.0
  9
$DIMGAP
 40
0.09
  9
$LUNITS
 70
     2
  9
$LUPREC
 70
     4
  9
$SKETCHINC
 40
0.1
  9
$FILLETRAD
 40
0.5
  9
$AUNITS
 70
     0
  9
$AUPREC
 70
     0
  9
$MENU
  1
.
  9
$ELEVATION
 40
0.0
  9
$PELEVATION
 40
0.0
  9
$THICKNESS
 40
0.0
  9
$LIMCHECK
 70
     0
  9
$CHAMFERA
 40
0.0
  9
$CHAMFERB
 40
0.0
  9
$SKPOLY
 70
     0
  9
$TDCREATE
 40
2454910.5
  9
$TDUPDATE
 40
2461252.028268739
  9
$TDINDWG
 40
0.0000000116
  9
$TDUSRTIMER
 40
0.0000000116
  9
$USRTIMER
 70
     1
  9
$ANGBASE
 50
0.0
  9
$ANGDIR
 70
     0
  9
$PDMODE
 70
     0
  9
$PDSIZE
 40
0.0
  9
$PLINEWID
 40
0.0
  9
$COORDS
 70
     1
  9
$SPLFRAME
 70
     0
  9
$SPLINETYPE
 70
     6
  9
$SPLINESEGS
 70
     8
  9
$ATTDIA
 70
     0
  9
$ATTREQ
 70
     1
  9
$HANDLING
 70
     1
  9
$HANDSEED
  5
332
  9
$SURFTAB1
 70
     6
  9
$SURFTAB2
 70
     6
  9
$SURFTYPE
 70
     6
  9
$SURFU
 70
     6
  9
$SURFV
 70
     6
  9
$UCSNAME
  2

  9
$UCSORG
 10
0.0
 20
0.0
 30
0.0
  9
$UCSXDIR
 10
1.0
 20
0.0
 30
0.0
  9
$UCSYDIR
 10
0.0
 20
1.0
 30
0.0
  9
$PUCSNAME
  2

  9
$PUCSORG
 10
0.0
 20
0.0
 30
0.0
  9
$PUCSXDIR
 10
1.0
 20
0.0
 30
0.0
  9
$PUCSYDIR
 10
0.0
 20
1.0
 30
0.0
  9
$USERI1
 70
     0
  9
$USERI2
 70
     0
  9
$USERI3
 70
     0
  9
$USERI4
 70
     0
  9
$USERI5
 70
     0
  9
$USERR1
 40
0.0
  9
$USERR2
 40
0.0
  9
$USERR3
 40
0.0
  9
$USERR4
 40
0.0
  9
$USERR5
 40
0.0
  9
$WORLDVIEW
 70
     1
  9
$SHADEDGE
 70
     3
  9
$SHADEDIF
 70
    70
  9
$TILEMODE
 70
     1
  9
$MAXACTVP
 70
    64
  9
$PLIMCHECK
 70
     0
  9
$PEXTMIN
 10
1.000000000000000E+20
 20
1.000000000000000E+20
 30
1.000000000000000E+20
  9
$PEXTMAX
 10
-1.000000000000000E+20
 20
-1.000000000000000E+20
 30
-1.000000000000000E+20
  9
$PLIMMIN
 10
0.0
 20
0.0
  9
$PLIMMAX
 10
12.0
 20
9.0
  9
$UNITMODE
 70
     0
  9
$VISRETAIN
 70
     1
  9
$PLINEGEN
 70
     0
  9
$PSLTSCALE
 70
     1
  0
ENDSEC
  0
SECTION
  2
TABLES
  0
TABLE
  2
VPORT
 70
     1
  0
VPORT
  2
*ACTIVE
 70
     0
 10
0.0
 20
0.0
 11
1.0
 21
1.0
 12
10.42990654205607
 22
4.5
 13
0.0
 23
0.0
 14
0.5
 24
0.5
 15
0.5
 25
0.5
 16
0.0
 26
0.0
 36
1.0
 17
0.0
 27
0.0
 37
0.0
 40
9.0
 41
1.972972972850329
 42
50.0
 43
0.0
 44
0.0
 50
0.0
 51
0.0
 71
     0
 72
   100
 73
     1
 74
     3
 75
     0
 76
     0
 77
     0
 78
     0
  0
ENDTAB
  0
TABLE
  2
LTYPE
 70
     2
  0
LTYPE
  2
CONTINUOUS
 70
     0
  3
Solid line
 72
    65
 73
     0
 40
0.0
  0
LTYPE
  2
CONTINUOUS2
 70
     0
  3
Solid Line
 72
    65
 73
     0
 40
0.0
  0
ENDTAB
  0
TABLE
  2
LAYER
 70
     8
  0
LAYER
  2
0
 70
     0
 62
     7
  6
CONTINUOUS
  0
LAYER
  2
PART_LETTERS
 70
     0
 62
    18
  6
CONTINUOUS
  0
LAYER
  2
T10_COUNTERSINK
 70
     0
 62
    18
  6
CONTINUOUS
  0
LAYER
  2
T8_DRILL
 70
     0
 62
    18
  6
CONTINUOUS
  0
LAYER
  2
T3_POCKET
 70
     0
 62
    18
  6
CONTINUOUS
  0
LAYER
  2
T3_PROFILE_INSIDE
 70
     0
 62
    18
  6
CONTINUOUS
  0
LAYER
  2
T5_BEVEL_OUTSIDE
 70
     0
 62
    18
  6
CONTINUOUS
  0
LAYER
  2
REAR_LEG
 70
     0
 62
    18
  6
CONTINUOUS
  0
ENDTAB
  0
TABLE
  2
STYLE
 70
     1
  0
STYLE
  2
STANDARD
 70
     0
 40
0.0
 41
1.0
 50
0.0
 71
     0
 42
0.2
  3
txt
  4

  0
ENDTAB
  0
TABLE
  2
VIEW
 70
     0
  0
ENDTAB
  0
TABLE
  2
UCS
 70
     0
  0
ENDTAB
  0
TABLE
  2
APPID
 70
     1
  0
APPID
  2
ACAD
 70
     0
  0
ENDTAB
  0
TABLE
  2
DIMSTYLE
 70
     1
  0
DIMSTYLE
  2
STANDARD
 70
     0
  3

  4

  5

  6

  7

 40
1.0
 41
0.18
 42
0.0625
 43
0.38
 44
0.18
 45
0.0
 46
0.0
 47
0.0
 48
0.0
140
0.18
141
0.09
142
0.0
143
25.4
144
1.0
145
0.0
146
1.0
147
0.09
 71
     0
 72
     0
 73
     1
 74
     1
 75
     0
 76
     0
 77
     0
 78
     0
170
     0
171
     2
172
     0
173
     0
174
     0
175
     0
176
     0
177
     0
178
     0
  0
ENDTAB
  0
ENDSEC
  0
SECTION
  2
BLOCKS
  0
BLOCK
  8
0
  2
$MODEL_SPACE
 70
     0
 10
0.0
 20
0.0
 30
0.0
  3
$MODEL_SPACE
  1

  0
ENDBLK
  5
21
  8
0
  0
BLOCK
 67
     1
  8
0
  2
$PAPER_SPACE
 70
     0
 10
0.0
 20
0.0
 30
0.0
  3
$PAPER_SPACE
  1

  0
ENDBLK
  5
1D
 67
     1
  8
0
  0
ENDSEC
  0
SECTION
  2
ENTITIES
  0
POLYLINE
  5
70
  8
PART_LETTERS
 66
     1
 10
0.0
 20
0.0
 30
0.0
 70
     1
  0
VERTEX
  5
8C
  8
PART_LETTERS
 10
0.5720392972330652
 20
22.82348703735579
 30
0.0
  0
VERTEX
  5
8D
  8
PART_LETTERS
 10
0.5720392972330652
 20
24.21138703735579
 30
0.0
  0
VERTEX
  5
8E
  8
PART_LETTERS
 10
1.28681726449091
 20
24.21138703735579
 30
0.0
  0
VERTEX
  5
8F
  8
PART_LETTERS
 10
1.335055901726585
 20
24.21085450410204
 30
0.0
  0
VERTEX
  5
90
  8
PART_LETTERS
 10
1.380365606066626
 20
24.20925690434078
 30
0.0
  0
VERTEX
  5
91
  8
PART_LETTERS
 10
1.401922108400784
 20
24.20805870451984
 30
0.0
  0
VERTEX
  5
92
  8
PART_LETTERS
 10
1.422746377511032
 20
24.20659423807202
 30
0.0
  0
VERTEX
  5
93
  8
PART_LETTERS
 10
1.442838413397373
 20
24.20486350499733
 30
0.0
  0
VERTEX
  5
94
  8
PART_LETTERS
 10
1.462198216059805
 20
24.20286650529576
 30
0.0
  0
VERTEX
  5
95
  8
PART_LETTERS
 10
1.480825785498328
 20
24.20060323896732
 30
0.0
  0
VERTEX
  5
96
  8
PART_LETTERS
 10
1.498721121712943
 20
24.198073706012
 30
0.0
  0
VERTEX
  5
97
  8
PART_LETTERS
 10
1.515884224703649
 20
24.1952779064298
 30
0.0
  0
VERTEX
  5
98
  8
PART_LETTERS
 10
1.532315094470446
 20
24.19221584022073
 30
0.0
  0
VERTEX
  5
99
  8
PART_LETTERS
 10
1.548013731013335
 20
24.18888750738478
 30
0.0
  0
VERTEX
  5
9A
  8
PART_LETTERS
 10
1.562980134332315
 20
24.18529290792196
 30
0.0
  0
VERTEX
  5
9B
  8
PART_LETTERS
 10
1.577214304427387
 20
24.18143204183226
 30
0.0
  0
VERTEX
  5
9C
  8
PART_LETTERS
 10
1.59071624129855
 20
24.17730490911568
 30
0.0
  0
VERTEX
  5
9D
  8
PART_LETTERS
 10
1.603693041211152
 20
24.17281720700854
 30
0.0
  0
VERTEX
  5
9E
  8
PART_LETTERS
 10
1.616351800430541
 20
24.16787463274716
 30
0.0
  0
VERTEX
  5
9F
  8
PART_LETTERS
 10
1.628692518956718
 20
24.16247718633153
 30
0.0
  0
VERTEX
  5
A0
  8
PART_LETTERS
 10
1.640715196789682
 20
24.15662486776165
 30
0.0
  0
VERTEX
  5
A1
  8
PART_LETTERS
 10
1.652419833929433
 20
24.15031767703753
 30
0.0
  0
VERTEX
  5
A2
  8
PART_LETTERS
 10
1.663806430375971
 20
24.14355561415917
 30
0.0
  0
VERTEX
  5
A3
  8
PART_LETTERS
 10
1.674874986129296
 20
24.13633867912655
 30
0.0
  0
VERTEX
  5
A4
  8
PART_LETTERS
 10
1.685625501189409
 20
24.12866687193969
 30
0.0
  0
VERTEX
  5
A5
  8
PART_LETTERS
 10
1.696057975556308
 20
24.12054019259859
 30
0.0
  0
VERTEX
  5
A6
  8
PART_LETTERS
 10
1.706172409229996
 20
24.11195864110323
 30
0.0
  0
VERTEX
  5
A7
  8
PART_LETTERS
 10
1.71596880221047
 20
24.10292221745364
 30
0.0
  0
VERTEX
  5
A8
  8
PART_LETTERS
 10
1.725447154497731
 20
24.09343092164979
 30
0.0
  0
VERTEX
  5
A9
  8
PART_LETTERS
 10
1.734607466091779
 20
24.0834847536917
 30
0.0
  0
VERTEX
  5
AA
  8
PART_LETTERS
 10
1.743449736992615
 20
24.07308371357936
 30
0.0
  0
VERTEX
  5
AB
  8
PART_LETTERS
 10
1.751973967200238
 20
24.06222780131278
 30
0.0
  0
VERTEX
  5
AC
  8
PART_LETTERS
 10
1.760180156714648
 20
24.05091701689194
 30
0.0
  0
VERTEX
  5
AD
  8
PART_LETTERS
 10
1.767975851845957
 20
24.03922162512118
 30
0.0
  0
VERTEX
  5
AE
  8
PART_LETTERS
 10
1.775268598904279
 20
24.0272118908048
 30
0.0
  0
VERTEX
  5
AF
  8
PART_LETTERS
 10
1.782058397889613
 20
24.01488781394281
 30
0.0
  0
VERTEX
  5
B0
  8
PART_LETTERS
 10
1.78834524880196
 20
24.00224939453519
 30
0.0
  0
VERTEX
  5
B1
  8
PART_LETTERS
 10
1.794129151641319
 20
23.98929663258196
 30
0.0
  0
VERTEX
  5
B2
  8
PART_LETTERS
 10
1.79941010640769
 20
23.97602952808311
 30
0.0
  0
VERTEX
  5
B3
  8
PART_LETTERS
 10
1.804188113101073
 20
23.96244808103865
 30
0.0
  0
VERTEX
  5
B4
  8
PART_LETTERS
 10
1.808463171721469
 20
23.94855229144856
 30
0.0
  0
VERTEX
  5
B5
  8
PART_LETTERS
 10
1.812235282268877
 20
23.93434215931286
 30
0.0
  0
VERTEX
  5
B6
  8
PART_LETTERS
 10
1.815504444743297
 20
23.91981768463154
 30
0.0
  0
VERTEX
  5
B7
  8
PART_LETTERS
 10
1.818270659144729
 20
23.9049788674046
 30
0.0
  0
VERTEX
  5
B8
  8
PART_LETTERS
 10
1.820533925473174
 20
23.88982570763205
 30
0.0
  0
VERTEX
  5
B9
  8
PART_LETTERS
 10
1.822294243728631
 20
23.87435820531388
 30
0.0
  0
VERTEX
  5
BA
  8
PART_LETTERS
 10
1.8235516139111
 20
23.85857636045009
 30
0.0
  0
VERTEX
  5
BB
  8
PART_LETTERS
 10
1.824306036020582
 20
23.84248017304069
 30
0.0
  0
VERTEX
  5
BC
  8
PART_LETTERS
 10
1.824557510057076
 20
23.82606964308567
 30
0.0
  0
VERTEX
  5
BD
  8
PART_LETTERS
 10
1.824365090814998
 20
23.81175596281729
 30
0.0
  0
VERTEX
  5
BE
  8
PART_LETTERS
 10
1.823787833088763
 20
23.79769005843782
 30
0.0
  0
VERTEX
  5
BF
  8
PART_LETTERS
 10
1.822825736878371
 20
23.78387192994724
 30
0.0
  0
VERTEX
  5
C0
  8
PART_LETTERS
 10
1.821478802183824
 20
23.77030157734556
 30
0.0
  0
VERTEX
  5
C1
  8
PART_LETTERS
 10
1.819747029005119
 20
23.75697900063278
 30
0.0
  0
VERTEX
  5
C2
  8
PART_LETTERS
 10
1.817630417342259
 20
23.74390419980889
 30
0.0
  0
VERTEX
  5
C3
  8
PART_LETTERS
 10
1.815128967195242
 20
23.73107717487391
 30
0.0
  0
VERTEX
  5
C4
  8
PART_LETTERS
 10
1.812242678564068
 20
23.71849792582782
 30
0.0
  0
VERTEX
  5
C5
  8
PART_LETTERS
 10
1.808971551448737
 20
23.70616645267064
 30
0.0
  0
VERTEX
  5
C6
  8
PART_LETTERS
 10
1.805315585849251
 20
23.69408275540234
 30
0.0
  0
VERTEX
  5
C7
  8
PART_LETTERS
 10
1.801274781765607
 20
23.68224683402295
 30
0.0
  0
VERTEX
  5
C8
  8
PART_LETTERS
 10
1.796849139197808
 20
23.67065868853246
 30
0.0
  0
VERTEX
  5
C9
  8
PART_LETTERS
 10
1.792038658145851
 20
23.65931831893087
 30
0.0
  0
VERTEX
  5
CA
  8
PART_LETTERS
 10
1.786843338609739
 20
23.64822572521817
 30
0.0
  0
VERTEX
  5
CB
  8
PART_LETTERS
 10
1.781263180589469
 20
23.63738090739437
 30
0.0
  0
VERTEX
  5
CC
  8
PART_LETTERS
 10
1.775298184085043
 20
23.62678386545947
 30
0.0
  0
VERTEX
  5
CD
  8
PART_LETTERS
 10
1.768996482798759
 20
23.61643459941347
 30
0.0
  0
VERTEX
  5
CE
  8
PART_LETTERS
 10
1.762406210432913
 20
23.60633310925637
 30
0.0
  0
VERTEX
  5
CF
  8
PART_LETTERS
 10
1.755527366987506
 20
23.59647939498817
 30
0.0
  0
VERTEX
  5
D0
  8
PART_LETTERS
 10
1.748359952462538
 20
23.58687345660886
 30
0.0
  0
VERTEX
  5
D1
  8
PART_LETTERS
 10
1.740903966858008
 20
23.57751529411845
 30
0.0
  0
VERTEX
  5
D2
  8
PART_LETTERS
 10
1.733159410173917
 20
23.56840490751694
 30
0.0
  0
VERTEX
  5
D3
  8
PART_LETTERS
 10
1.725126282410265
 20
23.55954229680433
 30
0.0
  0
VERTEX
  5
D4
  8
PART_LETTERS
 10
1.716804583567052
 20
23.55092746198062
 30
0.0
  0
VERTEX
  5
D5
  8
PART_LETTERS
 10
1.708194313644278
 20
23.5425604030458
 30
0.0
  0
VERTEX
  5
D6
  8
PART_LETTERS
 10
1.699295472641942
 20
23.53444111999989
 30
0.0
  0
VERTEX
  5
D7
  8
PART_LETTERS
 10
1.690108060560046
 20
23.52656961284287
 30
0.0
  0
VERTEX
  5
D8
  8
PART_LETTERS
 10
1.680632077398588
 20
23.51894588157475
 30
0.0
  0
VERTEX
  5
D9
  8
PART_LETTERS
 10
1.670867523157569
 20
23.51156992619553
 30
0.0
  0
VERTEX
  5
DA
  8
PART_LETTERS
 10
1.660814397836988
 20
23.50444174670521
 30
0.0
  0
VERTEX
  5
DB
  8
PART_LETTERS
 10
1.650472701436847
 20
23.49756134310378
 30
0.0
  0
VERTEX
  5
DC
  8
PART_LETTERS
 10
1.639842433957144
 20
23.49092871539126
 30
0.0
  0
VERTEX
  5
DD
  8
PART_LETTERS
 10
1.62547097013259
 20
23.48282237586193
 30
0.0
  0
VERTEX
  5
DE
  8
PART_LETTERS
 10
1.609826418998285
 20
23.47507105850176
 30
0.0
  0
VERTEX
  5
DF
  8
PART_LETTERS
 10
1.59290878055423
 20
23.46767476331076
 30
0.0
  0
VERTEX
  5
E0
  8
PART_LETTERS
 10
1.574718054800425
 20
23.46063349028894
 30
0.0
  0
VERTEX
  5
E1
  8
PART_LETTERS
 10
1.55525424173687
 20
23.45394723943628
 30
0.0
  0
VERTEX
  5
E2
  8
PART_LETTERS
 10
1.534517341363565
 20
23.44761601075279
 30
0.0
  0
VERTEX
  5
E3
  8
PART_LETTERS
 10
1.512507353680509
 20
23.44163980423846
 30
0.0
  0
VERTEX
  5
E4
  8
PART_LETTERS
 10
1.489224278687704
 20
23.43601861989331
 30
0.0
  0
VERTEX
  5
E5
  8
PART_LETTERS
 10
1.50773050265825
 20
23.42962105568732
 30
0.0
  0
VERTEX
  5
E6
  8
PART_LETTERS
 10
1.524936365480528
 20
23.42322395374978
 30
0.0
  0
VERTEX
  5
E7
  8
PART_LETTERS
 10
1.540841867154541
 20
23.41682731408069
 30
0.0
  0
VERTEX
  5
E8
  8
PART_LETTERS
 10
1.555447007680285
 20
23.41043113668006
 30
0.0
  0
VERTEX
  5
E9
  8
PART_LETTERS
 10
1.568751787057764
 20
23.40403542154787
 30
0.0
  0
VERTEX
  5
EA
  8
PART_LETTERS
 10
1.580756205286975
 20
23.39764016868413
 30
0.0
  0
VERTEX
  5
EB
  8
PART_LETTERS
 10
1.591460262367919
 20
23.39124537808884
 30
0.0
  0
VERTEX
  5
EC
  8
PART_LETTERS
 10
1.600863958300596
 20
23.384851049762
 30
0.0
  0
VERTEX
  5
ED
  8
PART_LETTERS
 10
1.607109898455167
 20
23.37998001154317
 30
0.0
  0
VERTEX
  5
EE
  8
PART_LETTERS
 10
1.614021042908479
 20
23.37389482524189
 30
0.0
  0
VERTEX
  5
EF
  8
PART_LETTERS
 10
1.62159739166053
 20
23.36659549085816
 30
0.0
  0
VERTEX
  5
F0
  8
PART_LETTERS
 10
1.629838944711322
 20
23.35808200839199
 30
0.0
  0
VERTEX
  5
F1
  8
PART_LETTERS
 10
1.638745702060854
 20
23.34835437784336
 30
0.0
  0
VERTEX
  5
F2
  8
PART_LETTERS
 10
1.648317663709127
 20
23.3374125992123
 30
0.0
  0
VERTEX
  5
F3
  8
PART_LETTERS
 10
1.669457199901892
 20
23.31188659770282
 30
0.0
  0
VERTEX
  5
F4
  8
PART_LETTERS
 10
1.690064202840905
 20
23.28553128659506
 30
0.0
  0
VERTEX
  5
F5
  8
PART_LETTERS
 10
1.706945322077455
 20
23.2623739486205
 30
0.0
  0
VERTEX
  5
F6
  8
PART_LETTERS
 10
1.713988675307305
 20
23.25199451955817
 30
0.0
  0
VERTEX
  5
F7
  8
PART_LETTERS
 10
1.72010055761154
 20
23.24241458377914
 30
0.0
  0
VERTEX
  5
F8
  8
PART_LETTERS
 10
1.725280968990158
 20
23.23363414128342
 30
0.0
  0
VERTEX
  5
F9
  8
PART_LETTERS
 10
1.729529909443161
 20
23.225653192071
 30
0.0
  0
VERTEX
  5
FA
  8
PART_LETTERS
 10
1.937217878406326
 20
22.82348703735579
 30
0.0
  0
VERTEX
  5
FB
  8
PART_LETTERS
 10
1.452627410082656
 20
22.82348703735579
 30
0.0
  0
VERTEX
  5
FC
  8
PART_LETTERS
 10
1.223386636932929
 20
23.24762018878826
 30
0.0
  0
VERTEX
  5
FD
  8
PART_LETTERS
 10
1.212647216315602
 20
23.26730912658669
 30
0.0
  0
VERTEX
  5
FE
  8
PART_LETTERS
 10
1.202203647505916
 20
23.28519336835852
 30
0.0
  0
VERTEX
  5
FF
  8
PART_LETTERS
 10
1.19205593050387
 20
23.30127291410374
 30
0.0
  0
VERTEX
  5
100
  8
PART_LETTERS
 10
1.182204065309464
 20
23.31554776382237
 30
0.0
  0
VERTEX
  5
101
  8
PART_LETTERS
 10
1.172648051922697
 20
23.32801791751439
 30
0.0
  0
VERTEX
  5
102
  8
PART_LETTERS
 10
1.16338789034357
 20
23.3386833751798
 30
0.0
  0
VERTEX
  5
103
  8
PART_LETTERS
 10
1.154423580572083
 20
23.34754413681861
 30
0.0
  0
VERTEX
  5
104
  8
PART_LETTERS
 10
1.150052370114204
 20
23.35129775662804
 30
0.0
  0
VERTEX
  5
105
  8
PART_LETTERS
 10
1.145755122608236
 20
23.35460020243082
 30
0.0
  0
VERTEX
  5
106
  8
PART_LETTERS
 10
1.133965428073788
 20
23.36214442352564
 30
0.0
  0
VERTEX
  5
107
  8
PART_LETTERS
 10
1.121791126189409
 20
23.36868274847448
 30
0.0
  0
VERTEX
  5
108
  8
PART_LETTERS
 10
1.109232216955098
 20
23.37421517727734
 30
0.0
  0
VERTEX
  5
109
  8
PART_LETTERS
 10
1.096288700370855
 20
23.37874170993423
 30
0.0
  0
VERTEX
  5
10A
  8
PART_LETTERS
 10
1.082960576436681
 20
23.38226234644515
 30
0.0
  0
VERTEX
  5
10B
  8
PART_LETTERS
 10
1.069247845152574
 20
23.38477708681009
 30
0.0
  0
VERTEX
  5
10C
  8
PART_LETTERS
 10
1.055150506518536
 20
23.38628593102905
 30
0.0
  0
VERTEX
  5
10D
  8
PART_LETTERS
 10
1.040668560534566
 20
23.38678887910204
 30
0.0
  0
VERTEX
  5
10E
  8
PART_LETTERS
 10
1.002799529156667
 20
23.38678887910204
 30
0.0
  0
VERTEX
  5
10F
  8
PART_LETTERS
 10
1.002799529156667
 20
22.82348703735579
 30
0.0
  0
SEQEND
  5
323
  8
PART_LETTERS
  0
POLYLINE
  5
71
  8
PART_LETTERS
 66
     1
 10
0.0
 20
0.0
 30
0.0
 70
     1
  0
VERTEX
  5
110
  8
PART_LETTERS
 10
1.002799529156667
 20
23.64903192139399
 30
0.0
  0
VERTEX
  5
111
  8
PART_LETTERS
 10
1.183624153986135
 20
23.64903192139399
 30
0.0
  0
VERTEX
  5
112
  8
PART_LETTERS
 10
1.191819249057758
 20
23.64932777320163
 30
0.0
  0
VERTEX
  5
113
  8
PART_LETTERS
 10
1.201730284613693
 20
23.65021532862455
 30
0.0
  0
VERTEX
  5
114
  8
PART_LETTERS
 10
1.213357260653938
 20
23.65169458766275
 30
0.0
  0
VERTEX
  5
115
  8
PART_LETTERS
 10
1.226700177178495
 20
23.65376555031623
 30
0.0
  0
VERTEX
  5
116
  8
PART_LETTERS
 10
1.258533831680541
 20
23.65968258646902
 30
0.0
  0
VERTEX
  5
117
  8
PART_LETTERS
 10
1.297231248119832
 20
23.66796643708294
 30
0.0
  0
VERTEX
  5
118
  8
PART_LETTERS
 10
1.307637835453563
 20
23.67051076262864
 30
0.0
  0
VERTEX
  5
119
  8
PART_LETTERS
 10
1.317556267304689
 20
23.67388347323573
 30
0.0
  0
VERTEX
  5
11A
  8
PART_LETTERS
 10
1.326986543673208
 20
23.67808456890422
 30
0.0
  0
VERTEX
  5
11B
  8
PART_LETTERS
 10
1.335928664559122
 20
23.6831140496341
 30
0.0
  0
VERTEX
  5
11C
  8
PART_LETTERS
 10
1.344382629962431
 20
23.68897191542537
 30
0.0
  0
VERTEX
  5
11D
  8
PART_LETTERS
 10
1.352348439883134
 20
23.69565816627803
 30
0.0
  0
VERTEX
  5
11E
  8
PART_LETTERS
 10
1.35982609432123
 20
23.70317280219208
 30
0.0
  0
VERTEX
  5
11F
  8
PART_LETTERS
 10
1.366815593276721
 20
23.71151582316752
 30
0.0
  0
VERTEX
  5
120
  8
PART_LETTERS
 10
1.373139425665023
 20
23.72043575516787
 30
0.0
  0
VERTEX
  5
121
  8
PART_LETTERS
 10
1.378620080401551
 20
23.72968112415661
 30
0.0
  0
VERTEX
  5
122
  8
PART_LETTERS
 10
1.383257557486305
 20
23.73925193013376
 30
0.0
  0
VERTEX
  5
123
  8
PART_LETTERS
 10
1.387051856919286
 20
23.74914817309931
 30
0.0
  0
VERTEX
  5
124
  8
PART_LETTERS
 10
1.390002978700493
 20
23.75936985305326
 30
0.0
  0
VERTEX
  5
125
  8
PART_LETTERS
 10
1.392110922829927
 20
23.76991696999563
 30
0.0
  0
VERTEX
  5
126
  8
PART_LETTERS
 10
1.393375689307588
 20
23.78078952392639
 30
0.0
  0
VERTEX
  5
127
  8
PART_LETTERS
 10
1.393797278133474
 20
23.79198751484556
 30
0.0
  0
VERTEX
  5
128
  8
PART_LETTERS
 10
1.393630861491677
 20
23.80026766731187
 30
0.0
  0
VERTEX
  5
129
  8
PART_LETTERS
 10
1.393131611566285
 20
23.80830374203689
 30
0.0
  0
VERTEX
  5
12A
  8
PART_LETTERS
 10
1.392299528357298
 20
23.8160957390206
 30
0.0
  0
VERTEX
  5
12B
  8
PART_LETTERS
 10
1.391134611864716
 20
23.82364365826302
 30
0.0
  0
VERTEX
  5
12C
  8
PART_LETTERS
 10
1.389636862088539
 20
23.83094749976412
 30
0.0
  0
VERTEX
  5
12D
  8
PART_LETTERS
 10
1.387806279028768
 20
23.83800726352393
 30
0.0
  0
VERTEX
  5
12E
  8
PART_LETTERS
 10
1.385642862685402
 20
23.84482294954243
 30
0.0
  0
VERTEX
  5
12F
  8
PART_LETTERS
 10
1.38314661305844
 20
23.85139455781964
 30
0.0
  0
VERTEX
  5
130
  8
PART_LETTERS
 10
1.380317530147884
 20
23.85772208835553
 30
0.0
  0
VERTEX
  5
131
  8
PART_LETTERS
 10
1.377155613953734
 20
23.86380554115013
 30
0.0
  0
VERTEX
  5
132
  8
PART_LETTERS
 10
1.373660864475988
 20
23.86964491620341
 30
0.0
  0
VERTEX
  5
133
  8
PART_LETTERS
 10
1.369833281714648
 20
23.8752402135154
 30
0.0
  0
VERTEX
  5
134
  8
PART_LETTERS
 10
1.365672865669712
 20
23.88059143308609
 30
0.0
  0
VERTEX
  5
135
  8
PART_LETTERS
 10
1.361179616341182
 20
23.88569857491547
 30
0.0
  0
VERTEX
  5
136
  8
PART_LETTERS
 10
1.356353533729057
 20
23.89056163900355
 30
0.0
  0
VERTEX
  5
137
  8
PART_LETTERS
 10
1.351194617833338
 20
23.89518062535033
 30
0.0
  0
VERTEX
  5
138
  8
PART_LETTERS
 10
1.345577131635777
 20
23.89953704321783
 30
0.0
  0
VERTEX
  5
139
  8
PART_LETTERS
 10
1.339375338118127
 20
23.90361240186807
 30
0.0
  0
VERTEX
  5
13A
  8
PART_LETTERS
 10
1.332589237280388
 20
23.90740670130105
 30
0.0
  0
VERTEX
  5
13B
  8
PART_LETTERS
 10
1.32521882912256
 20
23.91091994151677
 30
0.0
  0
VERTEX
  5
13C
  8
PART_LETTERS
 10
1.317264113644644
 20
23.91415212251524
 30
0.0
  0
VERTEX
  5
13D
  8
PART_LETTERS
 10
1.308725090846639
 20
23.91710324429645
 30
0.0
  0
VERTEX
  5
13E
  8
PART_LETTERS
 10
1.299601760728546
 20
23.9197733068604
 30
0.0
  0
VERTEX
  5
13F
  8
PART_LETTERS
 10
1.289894123290364
 20
23.92216231020709
 30
0.0
  0
VERTEX
  5
140
  8
PART_LETTERS
 10
1.279602178532093
 20
23.92427025433652
 30
0.0
  0
VERTEX
  5
141
  8
PART_LETTERS
 10
1.268725926453734
 20
23.9260971392487
 30
0.0
  0
VERTEX
  5
142
  8
PART_LETTERS
 10
1.257265367055286
 20
23.92764296494362
 30
0.0
  0
VERTEX
  5
143
  8
PART_LETTERS
 10
1.245220500336749
 20
23.92890773142127
 30
0.0
  0
VERTEX
  5
144
  8
PART_LETTERS
 10
1.232591326298123
 20
23.92989143868168
 30
0.0
  0
VERTEX
  5
145
  8
PART_LETTERS
 10
1.219377844939409
 20
23.93059408672482
 30
0.0
  0
VERTEX
  5
146
  8
PART_LETTERS
 10
1.191197960261714
 20
23.93115620515934
 30
0.0
  0
VERTEX
  5
147
  8
PART_LETTERS
 10
1.002799529156667
 20
23.93115620515934
 30
0.0
  0
SEQEND
  5
324
  8
PART_LETTERS
  0
POLYLINE
  5
72
  8
PART_LETTERS
 66
     1
 10
0.0
 20
0.0
 30
0.0
 70
     1
  0
VERTEX
  5
148
  8
PART_LETTERS
 10
1.999701780179841
 20
23.28264904281281
 30
0.0
  0
VERTEX
  5
149
  8
PART_LETTERS
 10
2.407740593276703
 20
23.3082106389929
 30
0.0
  0
VERTEX
  5
14A
  8
PART_LETTERS
 10
2.411483118643347
 20
23.28409871667025
 30
0.0
  0
VERTEX
  5
14B
  8
PART_LETTERS
 10
2.416083614252146
 20
23.2614660533858
 30
0.0
  0
VERTEX
  5
14C
  8
PART_LETTERS
 10
2.418705600897354
 20
23.2507044438829
 30
0.0
  0
VERTEX
  5
14D
  8
PART_LETTERS
 10
2.421542080103101
 20
23.24031264913955
 30
0.0
  0
VERTEX
  5
14E
  8
PART_LETTERS
 10
2.424593051869387
 20
23.23029066915576
 30
0.0
  0
VERTEX
  5
14F
  8
PART_LETTERS
 10
2.427858516196212
 20
23.2206385039315
 30
0.0
  0
VERTEX
  5
150
  8
PART_LETTERS
 10
2.431338473083575
 20
23.2113561534668
 30
0.0
  0
VERTEX
  5
151
  8
PART_LETTERS
 10
2.435032922531478
 20
23.20244361776165
 30
0.0
  0
VERTEX
  5
152
  8
PART_LETTERS
 10
2.438941864539919
 20
23.19390089681605
 30
0.0
  0
VERTEX
  5
153
  8
PART_LETTERS
 10
2.443065299108899
 20
23.18572799063
 30
0.0
  0
VERTEX
  5
154
  8
PART_LETTERS
 10
2.447403226238419
 20
23.1779248992035
 30
0.0
  0
VERTEX
  5
155
  8
PART_LETTERS
 10
2.451955645928476
 20
23.17049162253655
 30
0.0
  0
VERTEX
  5
156
  8
PART_LETTERS
 10
2.456722558179073
 20
23.16342816062915
 30
0.0
  0
VERTEX
  5
157
  8
PART_LETTERS
 10
2.461703962990209
 20
23.1567345134813
 30
0.0
  0
VERTEX
  5
158
  8
PART_LETTERS
 10
2.470209702459854
 20
23.14653132426532
 30
0.0
  0
VERTEX
  5
159
  8
PART_LETTERS
 10
2.47915921964096
 20
23.13698640532134
 30
0.0
  0
VERTEX
  5
15A
  8
PART_LETTERS
 10
2.488552514533525
 20
23.12809975664936
 30
0.0
  0
VERTEX
  5
15B
  8
PART_LETTERS
 10
2.498389587137549
 20
23.11987137824938
 30
0.0
  0
VERTEX
  5
15C
  8
PART_LETTERS
 10
2.508670437453033
 20
23.11230127012139
 30
0.0
  0
VERTEX
  5
15D
  8
PART_LETTERS
 10
2.519395065479977
 20
23.10538943226541
 30
0.0
  0
VERTEX
  5
15E
  8
PART_LETTERS
 10
2.530563471218381
 20
23.09913586468142
 30
0.0
  0
VERTEX
  5
15F
  8
PART_LETTERS
 10
2.542175654668244
 20
23.09354056736943
 30
0.0
  0
VERTEX
  5
160
  8
PART_LETTERS
 10
2.554231615829567
 20
23.08860354032944
 30
0.0
  0
VERTEX
  5
161
  8
PART_LETTERS
 10
2.566731354702351
 20
23.08432478356145
 30
0.0
  0
VERTEX
  5
162
  8
PART_LETTERS
 10
2.579674871286593
 20
23.08070429706546
 30
0.0
  0
VERTEX
  5
163
  8
PART_LETTERS
 10
2.593062165582296
 20
23.07774208084146
 30
0.0
  0
VERTEX
  5
164
  8
PART_LETTERS
 10
2.606893237589458
 20
23.07543813488947
 30
0.0
  0
VERTEX
  5
165
  8
PART_LETTERS
 10
2.621168087308081
 20
23.07379245920947
 30
0.0
  0
VERTEX
  5
166
  8
PART_LETTERS
 10
2.635886714738162
 20
23.07280505380147
 30
0.0
  0
VERTEX
  5
167
  8
PART_LETTERS
 10
2.651049119879704
 20
23.07247591866548
 30
0.0
  0
VERTEX
  5
168
  8
PART_LETTERS
 10
2.66236360244813
 20
23.07264418438107
 30
0.0
  0
VERTEX
  5
169
  8
PART_LETTERS
 10
2.673348949880556
 20
23.07314898152786
 30
0.0
  0
VERTEX
  5
16A
  8
PART_LETTERS
 10
2.684005162176983
 20
23.07399031010583
 30
0.0
  0
VERTEX
  5
16B
  8
PART_LETTERS
 10
2.694332239337411
 20
23.075168170115
 30
0.0
  0
VERTEX
  5
16C
  8
PART_LETTERS
 10
2.70433018136184
 20
23.07668256155536
 30
0.0
  0
VERTEX
  5
16D
  8
PART_LETTERS
 10
2.71399898825027
 20
23.0785334844269
 30
0.0
  0
VERTEX
  5
16E
  8
PART_LETTERS
 10
2.723338660002701
 20
23.08072093872964
 30
0.0
  0
VERTEX
  5
16F
  8
PART_LETTERS
 10
2.732349196619131
 20
23.08324492446356
 30
0.0
  0
VERTEX
  5
170
  8
PART_LETTERS
 10
2.741030598099562
 20
23.08610544162868
 30
0.0
  0
VERTEX
  5
171
  8
PART_LETTERS
 10
2.749382864443994
 20
23.08930249022499
 30
0.0
  0
VERTEX
  5
172
  8
PART_LETTERS
 10
2.757405995652427
 20
23.09283607025249
 30
0.0
  0
VERTEX
  5
173
  8
PART_LETTERS
 10
2.765099991724861
 20
23.09670618171118
 30
0.0
  0
VERTEX
  5
174
  8
PART_LETTERS
 10
2.772464852661296
 20
23.10091282460106
 30
0.0
  0
VERTEX
  5
175
  8
PART_LETTERS
 10
2.779500578461731
 20
23.10545599892213
 30
0.0
  0
VERTEX
  5
176
  8
PART_LETTERS
 10
2.786207169126166
 20
23.11033570467439
 30
0.0
  0
VERTEX
  5
177
  8
PART_LETTERS
 10
2.792584624654602
 20
23.11555194185783
 30
0.0
  0
VERTEX
  5
178
  8
PART_LETTERS
 10
2.798603359866275
 20
23.12099006789702
 30
0.0
  0
VERTEX
  5
179
  8
PART_LETTERS
 10
2.804233789580421
 20
23.12653544021646
 30
0.0
  0
VERTEX
  5
17A
  8
PART_LETTERS
 10
2.809475913797039
 20
23.13218805881618
 30
0.0
  0
VERTEX
  5
17B
  8
PART_LETTERS
 10
2.81432973251613
 20
23.13794792369617
 30
0.0
  0
VERTEX
  5
17C
  8
PART_LETTERS
 10
2.818795245737694
 20
23.14381503485643
 30
0.0
  0
VERTEX
  5
17D
  8
PART_LETTERS
 10
2.822872453461731
 20
23.14978939229696
 30
0.0
  0
VERTEX
  5
17E
  8
PART_LETTERS
 10
2.82656135568824
 20
23.15587099601775
 30
0.0
  0
VERTEX
  5
17F
  8
PART_LETTERS
 10
2.829861952417221
 20
23.16205984601882
 30
0.0
  0
VERTEX
  5
180
  8
PART_LETTERS
 10
2.832774243648676
 20
23.16835594230016
 30
0.0
  0
VERTEX
  5
181
  8
PART_LETTERS
 10
2.835298229382603
 20
23.17475928486176
 30
0.0
  0
VERTEX
  5
182
  8
PART_LETTERS
 10
2.837433909619003
 20
23.18126987370363
 30
0.0
  0
VERTEX
  5
183
  8
PART_LETTERS
 10
2.839181284357876
 20
23.18788770882578
 30
0.0
  0
VERTEX
  5
184
  8
PART_LETTERS
 10
2.840540353599221
 20
23.19461279022819
 30
0.0
  0
VERTEX
  5
185
  8
PART_LETTERS
 10
2.841511117343039
 20
23.20144511791088
 30
0.0
  0
VERTEX
  5
186
  8
PART_LETTERS
 10
2.84209357558933
 20
23.20838469187383
 30
0.0
  0
VERTEX
  5
187
  8
PART_LETTERS
 10
2.842287728338094
 20
23.21543151211705
 30
0.0
  0
VERTEX
  5
188
  8
PART_LETTERS
 10
2.842102820958319
 20
23.22213255556009
 30
0.0
  0
VERTEX
  5
189
  8
PART_LETTERS
 10
2.841548098818994
 20
23.22874484346084
 30
0.0
  0
VERTEX
  5
18A
  8
PART_LETTERS
 10
2.840623561920119
 20
23.2352683758193
 30
0.0
  0
VERTEX
  5
18B
  8
PART_LETTERS
 10
2.839329210261695
 20
23.24170315263546
 30
0.0
  0
VERTEX
  5
18C
  8
PART_LETTERS
 10
2.837665043843721
 20
23.24804917390933
 30
0.0
  0
VERTEX
  5
18D
  8
PART_LETTERS
 10
2.835631062666197
 20
23.25430643964092
 30
0.0
  0
VERTEX
  5
18E
  8
PART_LETTERS
 10
2.833227266729124
 20
23.26047494983021
 30
0.0
  0
VERTEX
  5
18F
  8
PART_LETTERS
 10
2.830453656032501
 20
23.26655470447721
 30
0.0
  0
VERTEX
  5
190
  8
PART_LETTERS
 10
2.827310230576327
 20
23.27254570358192
 30
0.0
  0
VERTEX
  5
191
  8
PART_LETTERS
 10
2.823796990360604
 20
23.27844794714433
 30
0.0
  0
VERTEX
  5
192
  8
PART_LETTERS
 10
2.819913935385331
 20
23.28426143516445
 30
0.0
  0
VERTEX
  5
193
  8
PART_LETTERS
 10
2.815661065650509
 20
23.28998616764228
 30
0.0
  0
VERTEX
  5
194
  8
PART_LETTERS
 10
2.811038381156136
 20
23.29562214457782
 30
0.0
  0
VERTEX
  5
195
  8
PART_LETTERS
 10
2.806045881902214
 20
23.30116936597107
 30
0.0
  0
VERTEX
  5
196
  8
PART_LETTERS
 10
2.800683567888742
 20
23.30662783182202
 30
0.0
  0
VERTEX
  5
197
  8
PART_LETTERS
 10
2.79495143911572
 20
23.31199754213069
 30
0.0
  0
VERTEX
  5
198
  8
PART_LETTERS
 10
2.788546247480318
 20
23.31730438393022
 30
0.0
  0
VERTEX
  5
199
  8
PART_LETTERS
 10
2.781164744879704
 20
23.32257424425381
 30
0.0
  0
VERTEX
  5
19A
  8
PART_LETTERS
 10
2.772806931313879
 20
23.32780712310144
 30
0.0
  0
VERTEX
  5
19B
  8
PART_LETTERS
 10
2.763472806782842
 20
23.33300302047311
 30
0.0
  0
VERTEX
  5
19C
  8
PART_LETTERS
 10
2.753162371286594
 20
23.33816193636883
 30
0.0
  0
VERTEX
  5
19D
  8
PART_LETTERS
 10
2.741875624825134
 20
23.3432838707886
 30
0.0
  0
VERTEX
  5
19E
  8
PART_LETTERS
 10
2.729612567398463
 20
23.34836882373241
 30
0.0
  0
VERTEX
  5
19F
  8
PART_LETTERS
 10
2.71637319900658
 20
23.35341679520027
 30
0.0
  0
VERTEX
  5
1A0
  8
PART_LETTERS
 10
2.702157519649486
 20
23.35842778519217
 30
0.0
  0
VERTEX
  5
1A1
  8
PART_LETTERS
 10
2.68696552932718
 20
23.36340179370811
 30
0.0
  0
VERTEX
  5
1A2
  8
PART_LETTERS
 10
2.670797228039663
 20
23.3683388207481
 30
0.0
  0
VERTEX
  5
1A3
  8
PART_LETTERS
 10
2.653652615786935
 20
23.37323886631214
 30
0.0
  0
VERTEX
  5
1A4
  8
PART_LETTERS
 10
2.616434458385843
 20
23.38292801301234
 30
0.0
  0
VERTEX
  5
1A5
  8
PART_LETTERS
 10
2.575311057123906
 20
23.39246923380872
 30
0.0
  0
VERTEX
  5
1A6
  8
PART_LETTERS
 10
2.540677904892068
 20
23.40056078074767
 30
0.0
  0
VERTEX
  5
1A7
  8
PART_LETTERS
 10
2.50730951913789
 20
23.40897776467503
 30
0.0
  0
VERTEX
  5
1A8
  8
PART_LETTERS
 10
2.475205899861372
 20
23.41772018559079
 30
0.0
  0
VERTEX
  5
1A9
  8
PART_LETTERS
 10
2.444367047062515
 20
23.42678804349494
 30
0.0
  0
VERTEX
  5
1AA
  8
PART_LETTERS
 10
2.414792960741317
 20
23.43618133838751
 30
0.0
  0
VERTEX
  5
1AB
  8
PART_LETTERS
 10
2.38648364089778
 20
23.44590007026848
 30
0.0
  0
VERTEX
  5
1AC
  8
PART_LETTERS
 10
2.359439087531904
 20
23.45594423913785
 30
0.0
  0
VERTEX
  5
1AD
  8
PART_LETTERS
 10
2.333659300643688
 20
23.46631384499563
 30
0.0
  0
VERTEX
  5
1AE
  8
PART_LETTERS
 10
2.309144280233132
 20
23.47700888784181
 30
0.0
  0
VERTEX
  5
1AF
  8
PART_LETTERS
 10
2.285894026300236
 20
23.48802936767639
 30
0.0
  0
VERTEX
  5
1B0
  8
PART_LETTERS
 10
2.263908538845001
 20
23.49937528449938
 30
0.0
  0
VERTEX
  5
1B1
  8
PART_LETTERS
 10
2.243187817867426
 20
23.51104663831077
 30
0.0
  0
VERTEX
  5
1B2
  8
PART_LETTERS
 10
2.223731863367512
 20
23.52304342911057
 30
0.0
  0
VERTEX
  5
1B3
  8
PART_LETTERS
 10
2.205540675345257
 20
23.53536565689876
 30
0.0
  0
VERTEX
  5
1B4
  8
PART_LETTERS
 10
2.188614253800663
 20
23.54801332167537
 30
0.0
  0
VERTEX
  5
1B5
  8
PART_LETTERS
 10
2.172952598733729
 20
23.56098642344037
 30
0.0
  0
VERTEX
  5
1B6
  8
PART_LETTERS
 10
2.158278349074793
 20
23.57434783070291
 30
0.0
  0
VERTEX
  5
1B7
  8
PART_LETTERS
 10
2.144550825200304
 20
23.58816041197209
 30
0.0
  0
VERTEX
  5
1B8
  8
PART_LETTERS
 10
2.131770027110263
 20
23.60242416724792
 30
0.0
  0
VERTEX
  5
1B9
  8
PART_LETTERS
 10
2.11993595480467
 20
23.61713909653042
 30
0.0
  0
VERTEX
  5
1BA
  8
PART_LETTERS
 10
2.109048608283524
 20
23.63230519981955
 30
0.0
  0
VERTEX
  5
1BB
  8
PART_LETTERS
 10
2.099107987546825
 20
23.64792247711534
 30
0.0
  0
VERTEX
  5
1BC
  8
PART_LETTERS
 10
2.090114092594574
 20
23.66399092841778
 30
0.0
  0
VERTEX
  5
1BD
  8
PART_LETTERS
 10
2.082066923426771
 20
23.68051055372687
 30
0.0
  0
VERTEX
  5
1BE
  8
PART_LETTERS
 10
2.074966480043415
 20
23.69748135304261
 30
0.0
  0
VERTEX
  5
1BF
  8
PART_LETTERS
 10
2.068812762444506
 20
23.714903326365
 30
0.0
  0
VERTEX
  5
1C0
  8
PART_LETTERS
 10
2.063605770630045
 20
23.73277647369404
 30
0.0
  0
VERTEX
  5
1C1
  8
PART_LETTERS
 10
2.059345504600032
 20
23.75110079502973
 30
0.0
  0
VERTEX
  5
1C2
  8
PART_LETTERS
 10
2.056031964354465
 20
23.76987629037207
 30
0.0
  0
VERTEX
  5
1C3
  8
PART_LETTERS
 10
2.053665149893346
 20
23.78910295972107
 30
0.0
  0
VERTEX
  5
1C4
  8
PART_LETTERS
 10
2.052245061216675
 20
23.80878080307671
 30
0.0
  0
VERTEX
  5
1C5
  8
PART_LETTERS
 10
2.051771698324452
 20
23.82890982043901
 30
0.0
  0
VERTEX
  5
1C6
  8
PART_LETTERS
 10
2.052013926991957
 20
23.84223609529938
 30
0.0
  0
VERTEX
  5
1C7
  8
PART_LETTERS
 10
2.052740612994472
 20
23.85546991646988
 30
0.0
  0
VERTEX
  5
1C8
  8
PART_LETTERS
 10
2.053951756331998
 20
23.86861128395048
 30
0.0
  0
VERTEX
  5
1C9
  8
PART_LETTERS
 10
2.055647357004533
 20
23.88166019774119
 30
0.0
  0
VERTEX
  5
1CA
  8
PART_LETTERS
 10
2.057827415012079
 20
23.89461665784201
 30
0.0
  0
VERTEX
  5
1CB
  8
PART_LETTERS
 10
2.060491930354635
 20
23.90748066425296
 30
0.0
  0
VERTEX
  5
1CC
  8
PART_LETTERS
 10
2.063640903032202
 20
23.92025221697401
 30
0.0
  0
VERTEX
  5
1CD
  8
PART_LETTERS
 10
2.067274333044779
 20
23.93293131600517
 30
0.0
  0
VERTEX
  5
1CE
  8
PART_LETTERS
 10
2.071392220392366
 20
23.94551796134645
 30
0.0
  0
VERTEX
  5
1CF
  8
PART_LETTERS
 10
2.075994565074963
 20
23.95801215299784
 30
0.0
  0
VERTEX
  5
1D0
  8
PART_LETTERS
 10
2.081081367092571
 20
23.97041389095934
 30
0.0
  0
VERTEX
  5
1D1
  8
PART_LETTERS
 10
2.086652626445188
 20
23.98272317523096
 30
0.0
  0
VERTEX
  5
1D2
  8
PART_LETTERS
 10
2.092708343132816
 20
23.99494000581269
 30
0.0
  0
VERTEX
  5
1D3
  8
PART_LETTERS
 10
2.099248517155454
 20
24.00706438270453
 30
0.0
  0
VERTEX
  5
1D4
  8
PART_LETTERS
 10
2.106273148513103
 20
24.01909630590648
 30
0.0
  0
VERTEX
  5
1D5
  8
PART_LETTERS
 10
2.113782237205761
 20
24.03103577541854
 30
0.0
  0
VERTEX
  5
1D6
  8
PART_LETTERS
 10
2.121777632307228
 20
24.04276999773906
 30
0.0
  0
VERTEX
  5
1D7
  8
PART_LETTERS
 10
2.1302611828913
 20
24.05418617936636
 30
0.0
  0
VERTEX
  5
1D8
  8
PART_LETTERS
 10
2.139232888957979
 20
24.06528432030045
 30
0.0
  0
VERTEX
  5
1D9
  8
PART_LETTERS
 10
2.148692750507262
 20
24.07606442054133
 30
0.0
  0
VERTEX
  5
1DA
  8
PART_LETTERS
 10
2.158640767539152
 20
24.08652648008899
 30
0.0
  0
VERTEX
  5
1DB
  8
PART_LETTERS
 10
2.169076940053647
 20
24.09667049894344
 30
0.0
  0
VERTEX
  5
1DC
  8
PART_LETTERS
 10
2.180001268050748
 20
24.10649647710468
 30
0.0
  0
VERTEX
  5
1DD
  8
PART_LETTERS
 10
2.191413751530455
 20
24.11600441457271
 30
0.0
  0
VERTEX
  5
1DE
  8
PART_LETTERS
 10
2.203314390492767
 20
24.12519431134752
 30
0.0
  0
VERTEX
  5
1DF
  8
PART_LETTERS
 10
2.215703184937685
 20
24.13406616742912
 30
0.0
  0
VERTEX
  5
1E0
  8
PART_LETTERS
 10
2.228580134865209
 20
24.14261998281751
 30
0.0
  0
VERTEX
  5
1E1
  8
PART_LETTERS
 10
2.241945240275339
 20
24.15085575751268
 30
0.0
  0
VERTEX
  5
1E2
  8
PART_LETTERS
 10
2.255798501168074
 20
24.15877349151464
 30
0.0
  0
VERTEX
  5
1E3
  8
PART_LETTERS
 10
2.270139917543415
 20
24.16637318482339
 30
0.0
  0
VERTEX
  5
1E4
  8
PART_LETTERS
 10
2.284969489401362
 20
24.17365483743892
 30
0.0
  0
VERTEX
  5
1E5
  8
PART_LETTERS
 10
2.300287216741914
 20
24.18061844936125
 30
0.0
  0
VERTEX
  5
1E6
  8
PART_LETTERS
 10
2.316209591214331
 20
24.18721039745022
 30
0.0
  0
VERTEX
  5
1E7
  8
PART_LETTERS
 10
2.332853104467869
 20
24.19337705856572
 30
0.0
  0
VERTEX
  5
1E8
  8
PART_LETTERS
 10
2.35021775650253
 20
24.19911843270773
 30
0.0
  0
VERTEX
  5
1E9
  8
PART_LETTERS
 10
2.368303547318312
 20
24.20443451987625
 30
0.0
  0
VERTEX
  5
1EA
  8
PART_LETTERS
 10
2.387110476915217
 20
24.2093253200713
 30
0.0
  0
VERTEX
  5
1EB
  8
PART_LETTERS
 10
2.406638545293244
 20
24.21379083329286
 30
0.0
  0
VERTEX
  5
1EC
  8
PART_LETTERS
 10
2.426887752452394
 20
24.21783105954094
 30
0.0
  0
VERTEX
  5
1ED
  8
PART_LETTERS
 10
2.447858098392665
 20
24.22144599881554
 30
0.0
  0
VERTEX
  5
1EE
  8
PART_LETTERS
 10
2.469549583114058
 20
24.22463565111666
 30
0.0
  0
VERTEX
  5
1EF
  8
PART_LETTERS
 10
2.491962206616574
 20
24.2274000164443
 30
0.0
  0
VERTEX
  5
1F0
  8
PART_LETTERS
 10
2.51509596890021
 20
24.22973909479845
 30
0.0
  0
VERTEX
  5
1F1
  8
PART_LETTERS
 10
2.53895086996497
 20
24.23165288617912
 30
0.0
  0
VERTEX
  5
1F2
  8
PART_LETTERS
 10
2.563526909810852
 20
24.2331413905863
 30
0.0
  0
VERTEX
  5
1F3
  8
PART_LETTERS
 10
2.588824088437856
 20
24.23420460802001
 30
0.0
  0
VERTEX
  5
1F4
  8
PART_LETTERS
 10
2.614842405845981
 20
24.23484253848024
 30
0.0
  0
VERTEX
  5
1F5
  8
PART_LETTERS
 10
2.641581862035229
 20
24.23505518196698
 30
0.0
  0
VERTEX
  5
1F6
  8
PART_LETTERS
 10
2.674341902509948
 20
24.23466872554325
 30
0.0
  0
VERTEX
  5
1F7
  8
PART_LETTERS
 10
2.706114537576669
 20
24.23350935627206
 30
0.0
  0
VERTEX
  5
1F8
  8
PART_LETTERS
 10
2.736899767235391
 20
24.23157707415341
 30
0.0
  0
VERTEX
  5
1F9
  8
PART_LETTERS
 10
2.766697591486116
 20
24.22887187918731
 30
0.0
  0
VERTEX
  5
1FA
  8
PART_LETTERS
 10
2.795508010328843
 20
24.22539377137374
 30
0.0
  0
VERTEX
  5
1FB
  8
PART_LETTERS
 10
2.823331023763572
 20
24.22114275071272
 30
0.0
  0
VERTEX
  5
1FC
  8
PART_LETTERS
 10
2.850166631790303
 20
24.21611881720423
 30
0.0
  0
VERTEX
  5
1FD
  8
PART_LETTERS
 10
2.876014834409036
 20
24.21032197084829
 30
0.0
  0
VERTEX
  5
1FE
  8
PART_LETTERS
 10
2.900875631619771
 20
24.20375221164488
 30
0.0
  0
VERTEX
  5
1FF
  8
PART_LETTERS
 10
2.924749023422508
 20
24.19640953959402
 30
0.0
  0
VERTEX
  5
200
  8
PART_LETTERS
 10
2.947635009817247
 20
24.1882939546957
 30
0.0
  0
VERTEX
  5
201
  8
PART_LETTERS
 10
2.969533590803988
 20
24.17940545694992
 30
0.0
  0
VERTEX
  5
202
  8
PART_LETTERS
 10
2.990444766382732
 20
24.16974404635668
 30
0.0
  0
VERTEX
  5
203
  8
PART_LETTERS
 10
3.010368536553476
 20
24.15930972291599
 30
0.0
  0
VERTEX
  5
204
  8
PART_LETTERS
 10
3.029304901316224
 20
24.14810248662783
 30
0.0
  0
VERTEX
  5
205
  8
PART_LETTERS
 10
3.047253860670973
 20
24.13612233749221
 30
0.0
  0
VERTEX
  5
206
  8
PART_LETTERS
 10
3.055871006836932
 20
24.12982485440553
 30
0.0
  0
VERTEX
  5
207
  8
PART_LETTERS
 10
3.064267188684061
 20
24.12329901070482
 30
0.0
  0
VERTEX
  5
208
  8
PART_LETTERS
 10
3.072442406212359
 20
24.1165448063901
 30
0.0
  0
VERTEX
  5
209
  8
PART_LETTERS
 10
3.080396659421826
 20
24.10956224146135
 30
0.0
  0
VERTEX
  5
20A
  8
PART_LETTERS
 10
3.088129948312461
 20
24.10235131591858
 30
0.0
  0
VERTEX
  5
20B
  8
PART_LETTERS
 10
3.095642272884266
 20
24.09491202976178
 30
0.0
  0
VERTEX
  5
20C
  8
PART_LETTERS
 10
3.102933633137239
 20
24.08724438299097
 30
0.0
  0
VERTEX
  5
20D
  8
PART_LETTERS
 10
3.110004029071382
 20
24.07934837560613
 30
0.0
  0
VERTEX
  5
20E
  8
PART_LETTERS
 10
3.116853460686694
 20
24.07122400760727
 30
0.0
  0
VERTEX
  5
20F
  8
PART_LETTERS
 10
3.123481927983175
 20
24.06287127899439
 30
0.0
  0
VERTEX
  5
210
  8
PART_LETTERS
 10
3.129889430960824
 20
24.05429018976749
 30
0.0
  0
VERTEX
  5
211
  8
PART_LETTERS
 10
3.136075969619643
 20
24.04548073992656
 30
0.0
  0
VERTEX
  5
212
  8
PART_LETTERS
 10
3.14204154395963
 20
24.03644292947161
 30
0.0
  0
VERTEX
  5
213
  8
PART_LETTERS
 10
3.147786153980787
 20
24.02717675840264
 30
0.0
  0
VERTEX
  5
214
  8
PART_LETTERS
 10
3.153309799683113
 20
24.01768222671965
 30
0.0
  0
VERTEX
  5
215
  8
PART_LETTERS
 10
3.158612481066607
 20
24.00795933442264
 30
0.0
  0
VERTEX
  5
216
  8
PART_LETTERS
 10
3.168554950877104
 20
23.98782846798655
 30
0.0
  0
VERTEX
  5
217
  8
PART_LETTERS
 10
3.177613563412276
 20
23.96678415909437
 30
0.0
  0
VERTEX
  5
218
  8
PART_LETTERS
 10
3.185788318672124
 20
23.94482640774609
 30
0.0
  0
VERTEX
  5
219
  8
PART_LETTERS
 10
3.193079216656648
 20
23.92195521394174
 30
0.0
  0
VERTEX
  5
21A
  8
PART_LETTERS
 10
3.199486257365848
 20
23.8981705776813
 30
0.0
  0
VERTEX
  5
21B
  8
PART_LETTERS
 10
3.205009440799725
 20
23.87347249896476
 30
0.0
  0
VERTEX
  5
21C
  8
PART_LETTERS
 10
3.209648766958277
 20
23.84786097779214
 30
0.0
  0
VERTEX
  5
21D
  8
PART_LETTERS
 10
3.213404235841505
 20
23.82133601416343
 30
0.0
  0
VERTEX
  5
21E
  8
PART_LETTERS
 10
2.809152325882433
 20
23.79766786955224
 30
0.0
  0
VERTEX
  5
21F
  8
PART_LETTERS
 10
2.80700185305565
 20
23.80918390116462
 30
0.0
  0
VERTEX
  5
220
  8
PART_LETTERS
 10
2.804574019159206
 20
23.82030053283669
 30
0.0
  0
VERTEX
  5
221
  8
PART_LETTERS
 10
2.801868824193099
 20
23.83101776456844
 30
0.0
  0
VERTEX
  5
222
  8
PART_LETTERS
 10
2.798886268157331
 20
23.84133559635988
 30
0.0
  0
VERTEX
  5
223
  8
PART_LETTERS
 10
2.795626351051899
 20
23.85125402821101
 30
0.0
  0
VERTEX
  5
224
  8
PART_LETTERS
 10
2.792089072876805
 20
23.86077306012182
 30
0.0
  0
VERTEX
  5
225
  8
PART_LETTERS
 10
2.788274433632049
 20
23.86989269209231
 30
0.0
  0
VERTEX
  5
226
  8
PART_LETTERS
 10
2.78418243331763
 20
23.8786129241225
 30
0.0
  0
VERTEX
  5
227
  8
PART_LETTERS
 10
2.779813071933549
 20
23.88693375621237
 30
0.0
  0
VERTEX
  5
228
  8
PART_LETTERS
 10
2.775166349479806
 20
23.89485518836193
 30
0.0
  0
VERTEX
  5
229
  8
PART_LETTERS
 10
2.770242265956401
 20
23.90237722057117
 30
0.0
  0
VERTEX
  5
22A
  8
PART_LETTERS
 10
2.765040821363333
 20
23.9094998528401
 30
0.0
  0
VERTEX
  5
22B
  8
PART_LETTERS
 10
2.759562015700602
 20
23.91622308516872
 30
0.0
  0
VERTEX
  5
22C
  8
PART_LETTERS
 10
2.75380584896821
 20
23.92254691755702
 30
0.0
  0
VERTEX
  5
22D
  8
PART_LETTERS
 10
2.747772321166155
 20
23.928471350005
 30
0.0
  0
VERTEX
  5
22E
  8
PART_LETTERS
 10
2.741461432294438
 20
23.93399638251268
 30
0.0
  0
VERTEX
  5
22F
  8
PART_LETTERS
 10
2.734858389762676
 20
23.9391552984084
 30
0.0
  0
VERTEX
  5
230
  8
PART_LETTERS
 10
2.727948400980489
 20
23.94398138102052
 30
0.0
  0
VERTEX
  5
231
  8
PART_LETTERS
 10
2.720731465947874
 20
23.94847463034905
 30
0.0
  0
VERTEX
  5
232
  8
PART_LETTERS
 10
2.713207584664834
 20
23.95263504639399
 30
0.0
  0
VERTEX
  5
233
  8
PART_LETTERS
 10
2.705376757131366
 20
23.95646262915533
 30
0.0
  0
VERTEX
  5
234
  8
PART_LETTERS
 10
2.697238983347473
 20
23.95995737863307
 30
0.0
  0
VERTEX
  5
235
  8
PART_LETTERS
 10
2.688794263313154
 20
23.96311929482723
 30
0.0
  0
VERTEX
  5
236
  8
PART_LETTERS
 10
2.680042597028408
 20
23.96594837773778
 30
0.0
  0
VERTEX
  5
237
  8
PART_LETTERS
 10
2.670983984493236
 20
23.96844462736474
 30
0.0
  0
VERTEX
  5
238
  8
PART_LETTERS
 10
2.661618425707637
 20
23.97060804370811
 30
0.0
  0
VERTEX
  5
239
  8
PART_LETTERS
 10
2.651945920671612
 20
23.97243862676788
 30
0.0
  0
VERTEX
  5
23A
  8
PART_LETTERS
 10
2.641966469385161
 20
23.97393637654405
 30
0.0
  0
VERTEX
  5
23B
  8
PART_LETTERS
 10
2.631680071848283
 20
23.97510129303664
 30
0.0
  0
VERTEX
  5
23C
  8
PART_LETTERS
 10
2.62108672806098
 20
23.97593337624562
 30
0.0
  0
VERTEX
  5
23D
  8
PART_LETTERS
 10
2.610186438023249
 20
23.97643262617102
 30
0.0
  0
VERTEX
  5
23E
  8
PART_LETTERS
 10
2.598979201735093
 20
23.97659904281281
 30
0.0
  0
VERTEX
  5
23F
  8
PART_LETTERS
 10
2.580858278517153
 20
23.97610349103502
 30
0.0
  0
VERTEX
  5
240
  8
PART_LETTERS
 10
2.563891177349008
 20
23.97461683570163
 30
0.0
  0
VERTEX
  5
241
  8
PART_LETTERS
 10
2.548077898230659
 20
23.97213907681265
 30
0.0
  0
VERTEX
  5
242
  8
PART_LETTERS
 10
2.540603941940158
 20
23.9705285335348
 30
0.0
  0
VERTEX
  5
243
  8
PART_LETTERS
 10
2.533418441162105
 20
23.96867021436807
 30
0.0
  0
VERTEX
  5
244
  8
PART_LETTERS
 10
2.526521395896502
 20
23.96656411931243
 30
0.0
  0
VERTEX
  5
245
  8
PART_LETTERS
 10
2.519912806143347
 20
23.9642102483679
 30
0.0
  0
VERTEX
  5
246
  8
PART_LETTERS
 10
2.513592671902641
 20
23.96160860153446
 30
0.0
  0
VERTEX
  5
247
  8
PART_LETTERS
 10
2.507560993174383
 20
23.95875917881213
 30
0.0
  0
VERTEX
  5
248
  8
PART_LETTERS
 10
2.501817769958575
 20
23.9556619802009
 30
0.0
  0
VERTEX
  5
249
  8
PART_LETTERS
 10
2.496363002255216
 20
23.95231700570078
 30
0.0
  0
VERTEX
  5
24A
  8
PART_LETTERS
 10
2.491196690064305
 20
23.94872425531175
 30
0.0
  0
VERTEX
  5
24B
  8
PART_LETTERS
 10
2.486318833385843
 20
23.94488372903383
 30
0.0
  0
VERTEX
  5
24C
  8
PART_LETTERS
 10
2.477443279156648
 20
23.93674040802854
 30
0.0
  0
VERTEX
  5
24D
  8
PART_LETTERS
 10
2.469751132158012
 20
23.92816810190217
 30
0.0
  0
VERTEX
  5
24E
  8
PART_LETTERS
 10
2.466348836370154
 20
23.92372107941859
 30
0.0
  0
VERTEX
  5
24F
  8
PART_LETTERS
 10
2.463242392389936
 20
23.91916681065473
 30
0.0
  0
VERTEX
  5
250
  8
PART_LETTERS
 10
2.460431800217357
 20
23.91450529561061
 30
0.0
  0
VERTEX
  5
251
  8
PART_LETTERS
 10
2.457917059852419
 20
23.90973653428621
 30
0.0
  0
VERTEX
  5
252
  8
PART_LETTERS
 10
2.45569817129512
 20
23.90486052668155
 30
0.0
  0
VERTEX
  5
253
  8
PART_LETTERS
 10
2.453775134545461
 20
23.89987727279662
 30
0.0
  0
VERTEX
  5
254
  8
PART_LETTERS
 10
2.452147949603442
 20
23.89478677263141
 30
0.0
  0
VERTEX
  5
255
  8
PART_LETTERS
 10
2.450816616469063
 20
23.88958902618594
 30
0.0
  0
VERTEX
  5
256
  8
PART_LETTERS
 10
2.449781135142324
 20
23.8842840334602
 30
0.0
  0
VERTEX
  5
257
  8
PART_LETTERS
 10
2.449041505623224
 20
23.87887179445418
 30
0.0
  0
VERTEX
  5
258
  8
PART_LETTERS
 10
2.448597727911764
 20
23.87335230916791
 30
0.0
  0
VERTEX
  5
259
  8
PART_LETTERS
 10
2.448449802007944
 20
23.86772557760136
 30
0.0
  0
VERTEX
  5
25A
  8
PART_LETTERS
 10
2.44893795749055
 20
23.85954527512011
 30
0.0
  0
VERTEX
  5
25B
  8
PART_LETTERS
 10
2.450402423938367
 20
23.85157206890422
 30
0.0
  0
VERTEX
  5
25C
  8
PART_LETTERS
 10
2.452843201351396
 20
23.84380595895367
 30
0.0
  0
VERTEX
  5
25D
  8
PART_LETTERS
 10
2.456260289729636
 20
23.83624694526848
 30
0.0
  0
VERTEX
  5
25E
  8
PART_LETTERS
 10
2.460653689073088
 20
23.82889502784862
 30
0.0
  0
VERTEX
  5
25F
  8
PART_LETTERS
 10
2.466023399381751
 20
23.82175020669413
 30
0.0
  0
VERTEX
  5
260
  8
PART_LETTERS
 10
2.472369420655625
 20
23.81481248180497
 30
0.0
  0
VERTEX
  5
261
  8
PART_LETTERS
 10
2.479691752894711
 20
23.80808185318116
 30
0.0
  0
VERTEX
  5
262
  8
PART_LETTERS
 10
2.483804093020904
 20
23.80466476480292
 30
0.0
  0
VERTEX
  5
263
  8
PART_LETTERS
 10
2.488567307123906
 20
23.80127726160545
 30
0.0
  0
VERTEX
  5
264
  8
PART_LETTERS
 10
2.493981395203715
 20
23.79791934358874
 30
0.0
  0
VERTEX
  5
265
  8
PART_LETTERS
 10
2.500046357260332
 20
23.79459101075279
 30
0.0
  0
VERTEX
  5
266
  8
PART_LETTERS
 10
2.506762193293755
 20
23.7912922630976
 30
0.0
  0
VERTEX
  5
267
  8
PART_LETTERS
 10
2.514128903303988
 20
23.78802310062319
 30
0.0
  0
VERTEX
  5
268
  8
PART_LETTERS
 10
2.530814945254875
 20
23.78157353121664
 30
0.0
  0
VERTEX
  5
269
  8
PART_LETTERS
 10
2.550104483112992
 20
23.77524230253314
 30
0.0
  0
VERTEX
  5
26A
  8
PART_LETTERS
 10
2.57199751687834
 20
23.76902941457271
 30
0.0
  0
VERTEX
  5
26B
  8
PART_LETTERS
 10
2.596494046550918
 20
23.76293486733532
 30
0.0
  0
VERTEX
  5
26C
  8
PART_LETTERS
 10
2.623594072130727
 20
23.756958660821
 30
0.0
  0
VERTEX
  5
26D
  8
PART_LETTERS
 10
2.691395910146587
 20
23.74178885938427
 30
0.0
  0
VERTEX
  5
26E
  8
PART_LETTERS
 10
2.723427415544992
 20
23.73418731700172
 30
0.0
  0
VERTEX
  5
26F
  8
PART_LETTERS
 10
2.754212645203715
 20
23.72657468017639
 30
0.0
  0
VERTEX
  5
270
  8
PART_LETTERS
 10
2.783751599122755
 20
23.71895094890827
 30
0.0
  0
VERTEX
  5
271
  8
PART_LETTERS
 10
2.812044277302112
 20
23.71131612319737
 30
0.0
  0
VERTEX
  5
272
  8
PART_LETTERS
 10
2.839090679741787
 20
23.70367020304368
 30
0.0
  0
VERTEX
  5
273
  8
PART_LETTERS
 10
2.864890806441778
 20
23.6960131884472
 30
0.0
  0
VERTEX
  5
274
  8
PART_LETTERS
 10
2.889444657402086
 20
23.68834507940793
 30
0.0
  0
VERTEX
  5
275
  8
PART_LETTERS
 10
2.912752232622712
 20
23.68066587592588
 30
0.0
  0
VERTEX
  5
276
  8
PART_LETTERS
 10
2.934813532103655
 20
23.67297557800104
 30
0.0
  0
VERTEX
  5
277
  8
PART_LETTERS
 10
2.955628555844916
 20
23.66527418563342
 30
0.0
  0
VERTEX
  5
278
  8
PART_LETTERS
 10
2.975197303846493
 20
23.65756169882301
 30
0.0
  0
VERTEX
  5
279
  8
PART_LETTERS
 10
2.993519776108388
 20
23.64983811756981
 30
0.0
  0
VERTEX
  5
27A
  8
PART_LETTERS
 10
3.0105959726306
 20
23.64210344187383
 30
0.0
  0
VERTEX
  5
27B
  8
PART_LETTERS
 10
3.026425893413129
 20
23.63435767173505
 30
0.0
  0
VERTEX
  5
27C
  8
PART_LETTERS
 10
3.041373805994131
 20
23.62648986272563
 30
0.0
  0
VERTEX
  5
27D
  8
PART_LETTERS
 10
3.055803977911764
 20
23.61838907041769
 30
0.0
  0
VERTEX
  5
27E
  8
PART_LETTERS
 10
3.069716409166028
 20
23.61005529481124
 30
0.0
  0
VERTEX
  5
27F
  8
PART_LETTERS
 10
3.083111099756922
 20
23.60148853590627
 30
0.0
  0
VERTEX
  5
280
  8
PART_LETTERS
 10
3.095988049684445
 20
23.59268879370278
 30
0.0
  0
VERTEX
  5
281
  8
PART_LETTERS
 10
3.1083472589486
 20
23.58365606820077
 30
0.0
  0
VERTEX
  5
282
  8
PART_LETTERS
 10
3.120188727549383
 20
23.57439035940025
 30
0.0
  0
VERTEX
  5
283
  8
PART_LETTERS
 10
3.131512455486798
 20
23.56489166730122
 30
0.0
  0
VERTEX
  5
284
  8
PART_LETTERS
 10
3.142318442760843
 20
23.55515999190366
 30
0.0
  0
VERTEX
  5
285
  8
PART_LETTERS
 10
3.152606689371519
 20
23.54519533320759
 30
0.0
  0
VERTEX
  5
286
  8
PART_LETTERS
 10
3.162377195318824
 20
23.53499769121301
 30
0.0
  0
VERTEX
  5
287
  8
PART_LETTERS
 10
3.17162996060276
 20
23.52456706591991
 30
0.0
  0
VERTEX
  5
288
  8
PART_LETTERS
 10
3.180364985223326
 20
23.51390345732829
 30
0.0
  0
VERTEX
  5
289
  8
PART_LETTERS
 10
3.188582269180523
 20
23.50300686543815
 30
0.0
  0
VERTEX
  5
28A
  8
PART_LETTERS
 10
3.196281812474349
 20
23.4918772902495
 30
0.0
  0
VERTEX
  5
28B
  8
PART_LETTERS
 10
3.203463615104806
 20
23.48051473176234
 30
0.0
  0
VERTEX
  5
28C
  8
PART_LETTERS
 10
3.210170205769242
 20
23.46895062423122
 30
0.0
  0
VERTEX
  5
28D
  8
PART_LETTERS
 10
3.216444113165004
 20
23.45721640191071
 30
0.0
  0
VERTEX
  5
28E
  8
PART_LETTERS
 10
3.222285337292093
 20
23.4453120648008
 30
0.0
  0
VERTEX
  5
28F
  8
PART_LETTERS
 10
3.227693878150509
 20
23.43323761290149
 30
0.0
  0
VERTEX
  5
290
  8
PART_LETTERS
 10
3.232669735740251
 20
23.4209930462128
 30
0.0
  0
VERTEX
  5
291
  8
PART_LETTERS
 10
3.237212910061321
 20
23.40857836473472
 30
0.0
  0
VERTEX
  5
292
  8
PART_LETTERS
 10
3.241323401113717
 20
23.39599356846723
 30
0.0
  0
VERTEX
  5
293
  8
PART_LETTERS
 10
3.24500120889744
 20
23.38323865741036
 30
0.0
  0
VERTEX
  5
294
  8
PART_LETTERS
 10
3.248246333412489
 20
23.37031363156409
 30
0.0
  0
VERTEX
  5
295
  8
PART_LETTERS
 10
3.251058774658866
 20
23.35721849092844
 30
0.0
  0
VERTEX
  5
296
  8
PART_LETTERS
 10
3.253438532636568
 20
23.34395323550338
 30
0.0
  0
VERTEX
  5
297
  8
PART_LETTERS
 10
3.255385607345598
 20
23.33051786528894
 30
0.0
  0
VERTEX
  5
298
  8
PART_LETTERS
 10
3.256899998785954
 20
23.3169123802851
 30
0.0
  0
VERTEX
  5
299
  8
PART_LETTERS
 10
3.257981706957637
 20
23.30313678049188
 30
0.0
  0
VERTEX
  5
29A
  8
PART_LETTERS
 10
3.258630731860647
 20
23.28919106590925
 30
0.0
  0
VERTEX
  5
29B
  8
PART_LETTERS
 10
3.258847073494984
 20
23.27507523653724
 30
0.0
  0
VERTEX
  5
29C
  8
PART_LETTERS
 10
3.258558617982535
 20
23.25847055383345
 30
0.0
  0
VERTEX
  5
29D
  8
PART_LETTERS
 10
3.257693251445188
 20
23.24202858962386
 30
0.0
  0
VERTEX
  5
29E
  8
PART_LETTERS
 10
3.256250973882944
 20
23.22574934390848
 30
0.0
  0
VERTEX
  5
29F
  8
PART_LETTERS
 10
3.254231785295802
 20
23.2096328166873
 30
0.0
  0
VERTEX
  5
2A0
  8
PART_LETTERS
 10
3.251635685683762
 20
23.19367900796033
 30
0.0
  0
VERTEX
  5
2A1
  8
PART_LETTERS
 10
3.248462675046826
 20
23.17788791772755
 30
0.0
  0
VERTEX
  5
2A2
  8
PART_LETTERS
 10
3.244712753384991
 20
23.16225954598898
 30
0.0
  0
VERTEX
  5
2A3
  8
PART_LETTERS
 10
3.240385920698258
 20
23.1467938927446
 30
0.0
  0
VERTEX
  5
2A4
  8
PART_LETTERS
 10
3.235482176986627
 20
23.13149095799443
 30
0.0
  0
VERTEX
  5
2A5
  8
PART_LETTERS
 10
3.2300015222501
 20
23.11635074173846
 30
0.0
  0
VERTEX
  5
2A6
  8
PART_LETTERS
 10
3.223943956488674
 20
23.1013732439767
 30
0.0
  0
VERTEX
  5
2A7
  8
PART_LETTERS
 10
3.21730947970235
 20
23.08655846470913
 30
0.0
  0
VERTEX
  5
2A8
  8
PART_LETTERS
 10
3.210098091891129
 20
23.07190640393577
 30
0.0
  0
VERTEX
  5
2A9
  8
PART_LETTERS
 10
3.202309793055011
 20
23.05741706165661
 30
0.0
  0
VERTEX
  5
2AA
  8
PART_LETTERS
 10
3.193944583193995
 20
23.04309043787165
 30
0.0
  0
VERTEX
  5
2AB
  8
PART_LETTERS
 10
3.185002462308081
 20
23.02892653258089
 30
0.0
  0
VERTEX
  5
2AC
  8
PART_LETTERS
 10
3.175542600758797
 20
23.01505663002398
 30
0.0
  0
VERTEX
  5
2AD
  8
PART_LETTERS
 10
3.165624168907671
 20
23.00161201444055
 30
0.0
  0
VERTEX
  5
2AE
  8
PART_LETTERS
 10
3.155247166754704
 20
22.9885926858306
 30
0.0
  0
VERTEX
  5
2AF
  8
PART_LETTERS
 10
3.144411594299895
 20
22.97599864419413
 30
0.0
  0
VERTEX
  5
2B0
  8
PART_LETTERS
 10
3.133117451543244
 20
22.96382988953114
 30
0.0
  0
VERTEX
  5
2B1
  8
PART_LETTERS
 10
3.121364738484752
 20
22.95208642184163
 30
0.0
  0
VERTEX
  5
2B2
  8
PART_LETTERS
 10
3.109153455124417
 20
22.94076824112561
 30
0.0
  0
VERTEX
  5
2B3
  8
PART_LETTERS
 10
3.096483601462242
 20
22.92987534738307
 30
0.0
  0
VERTEX
  5
2B4
  8
PART_LETTERS
 10
3.083355177498224
 20
22.91940774061402
 30
0.0
  0
VERTEX
  5
2B5
  8
PART_LETTERS
 10
3.069768183232365
 20
22.90936542081844
 30
0.0
  0
VERTEX
  5
2B6
  8
PART_LETTERS
 10
3.055722618664663
 20
22.89974838799635
 30
0.0
  0
VERTEX
  5
2B7
  8
PART_LETTERS
 10
3.04121848379512
 20
22.89055664214774
 30
0.0
  0
VERTEX
  5
2B8
  8
PART_LETTERS
 10
3.026255778623735
 20
22.88179018327261
 30
0.0
  0
VERTEX
  5
2B9
  8
PART_LETTERS
 10
3.010834503150509
 20
22.87344901137097
 30
0.0
  0
VERTEX
  5
2BA
  8
PART_LETTERS
 10
2.994954657375441
 20
22.8655331264428
 30
0.0
  0
VERTEX
  5
2BB
  8
PART_LETTERS
 10
2.978616241298531
 20
22.85804252848812
 30
0.0
  0
VERTEX
  5
2BC
  8
PART_LETTERS
 10
2.961778575296229
 20
22.85099201009731
 30
0.0
  0
VERTEX
  5
2BD
  8
PART_LETTERS
 10
2.944400979744984
 20
22.84439636386074
 30
0.0
  0
VERTEX
  5
2BE
  8
PART_LETTERS
 10
2.926483454644797
 20
22.83825558977841
 30
0.0
  0
VERTEX
  5
2BF
  8
PART_LETTERS
 10
2.908025999995666
 20
22.83256968785034
 30
0.0
  0
VERTEX
  5
2C0
  8
PART_LETTERS
 10
2.889028615797593
 20
22.82733865807651
 30
0.0
  0
VERTEX
  5
2C1
  8
PART_LETTERS
 10
2.869491302050577
 20
22.82256250045692
 30
0.0
  0
VERTEX
  5
2C2
  8
PART_LETTERS
 10
2.849414058754619
 20
22.81824121499158
 30
0.0
  0
VERTEX
  5
2C3
  8
PART_LETTERS
 10
2.828796885909718
 20
22.81437480168049
 30
0.0
  0
VERTEX
  5
2C4
  8
PART_LETTERS
 10
2.807639783515874
 20
22.81096326052364
 30
0.0
  0
VERTEX
  5
2C5
  8
PART_LETTERS
 10
2.785942751573088
 20
22.80800659152104
 30
0.0
  0
VERTEX
  5
2C6
  8
PART_LETTERS
 10
2.763705790081358
 20
22.80550479467268
 30
0.0
  0
VERTEX
  5
2C7
  8
PART_LETTERS
 10
2.740928899040686
 20
22.80345786997858
 30
0.0
  0
VERTEX
  5
2C8
  8
PART_LETTERS
 10
2.717612078451071
 20
22.80186581743871
 30
0.0
  0
VERTEX
  5
2C9
  8
PART_LETTERS
 10
2.693755328312514
 20
22.8007286370531
 30
0.0
  0
VERTEX
  5
2CA
  8
PART_LETTERS
 10
2.669358648625014
 20
22.80004632882173
 30
0.0
  0
VERTEX
  5
2CB
  8
PART_LETTERS
 10
2.644422039388572
 20
22.7998188927446
 30
0.0
  0
VERTEX
  5
2CC
  8
PART_LETTERS
 10
2.601013182912617
 20
22.80035142599835
 30
0.0
  0
VERTEX
  5
2CD
  8
PART_LETTERS
 10
2.559305474330591
 20
22.80194902575961
 30
0.0
  0
VERTEX
  5
2CE
  8
PART_LETTERS
 10
2.519298913642494
 20
22.80461169202837
 30
0.0
  0
VERTEX
  5
2CF
  8
PART_LETTERS
 10
2.499933563758669
 20
22.80634242510306
 30
0.0
  0
VERTEX
  5
2D0
  8
PART_LETTERS
 10
2.480993500848326
 20
22.80833942480463
 30
0.0
  0
VERTEX
  5
2D1
  8
PART_LETTERS
 10
2.462478724911466
 20
22.81060269113308
 30
0.0
  0
VERTEX
  5
2D2
  8
PART_LETTERS
 10
2.444389235948087
 20
22.8131322240884
 30
0.0
  0
VERTEX
  5
2D3
  8
PART_LETTERS
 10
2.426725033958191
 20
22.81592802367059
 30
0.0
  0
VERTEX
  5
2D4
  8
PART_LETTERS
 10
2.409486118941778
 20
22.81899008987966
 30
0.0
  0
VERTEX
  5
2D5
  8
PART_LETTERS
 10
2.392672490898846
 20
22.82231842271561
 30
0.0
  0
VERTEX
  5
2D6
  8
PART_LETTERS
 10
2.376284149829397
 20
22.82591302217844
 30
0.0
  0
VERTEX
  5
2D7
  8
PART_LETTERS
 10
2.36032109573343
 20
22.82977388826814
 30
0.0
  0
VERTEX
  5
2D8
  8
PART_LETTERS
 10
2.344783328610945
 20
22.83390102098471
 30
0.0
  0
VERTEX
  5
2D9
  8
PART_LETTERS
 10
2.329670848461943
 20
22.83829442032816
 30
0.0
  0
VERTEX
  5
2DA
  8
PART_LETTERS
 10
2.314983655286423
 20
22.84295408629849
 30
0.0
  0
VERTEX
  5
2DB
  8
PART_LETTERS
 10
2.300721749084385
 20
22.84788001889569
 30
0.0
  0
VERTEX
  5
2DC
  8
PART_LETTERS
 10
2.286885129855829
 20
22.85307221811977
 30
0.0
  0
VERTEX
  5
2DD
  8
PART_LETTERS
 10
2.273473797600756
 20
22.85853068397073
 30
0.0
  0
VERTEX
  5
2DE
  8
PART_LETTERS
 10
2.260487752319165
 20
22.86425541644856
 30
0.0
  0
VERTEX
  5
2DF
  8
PART_LETTERS
 10
2.247926994011056
 20
22.87024641555327
 30
0.0
  0
VERTEX
  5
2E0
  8
PART_LETTERS
 10
2.23579152267643
 20
22.87650368128485
 30
0.0
  0
VERTEX
  5
2E1
  8
PART_LETTERS
 10
2.224081338315286
 20
22.88302721364331
 30
0.0
  0
VERTEX
  5
2E2
  8
PART_LETTERS
 10
2.212796440927624
 20
22.88981701262864
 30
0.0
  0
VERTEX
  5
2E3
  8
PART_LETTERS
 10
2.201936830513445
 20
22.89687307824085
 30
0.0
  0
VERTEX
  5
2E4
  8
PART_LETTERS
 10
2.191502507072747
 20
22.90419541047994
 30
0.0
  0
VERTEX
  5
2E5
  8
PART_LETTERS
 10
2.181493470605532
 20
22.9117840093459
 30
0.0
  0
VERTEX
  5
2E6
  8
PART_LETTERS
 10
2.171909721111799
 20
22.91963887483874
 30
0.0
  0
VERTEX
  5
2E7
  8
PART_LETTERS
 10
2.162751258591548
 20
22.92776000695845
 30
0.0
  0
VERTEX
  5
2E8
  8
PART_LETTERS
 10
2.154018083044779
 20
22.93614740570504
 30
0.0
  0
VERTEX
  5
2E9
  8
PART_LETTERS
 10
2.137439287374161
 20
22.95347692533754
 30
0.0
  0
VERTEX
  5
2EA
  8
PART_LETTERS
 10
2.121785028602419
 20
22.97138335599494
 30
0.0
  0
VERTEX
  5
2EB
  8
PART_LETTERS
 10
2.10705530672955
 20
22.98986669767724
 30
0.0
  0
VERTEX
  5
2EC
  8
PART_LETTERS
 10
2.093250121755557
 20
23.00892695038444
 30
0.0
  0
VERTEX
  5
2ED
  8
PART_LETTERS
 10
2.080369473680437
 20
23.02856411411653
 30
0.0
  0
VERTEX
  5
2EE
  8
PART_LETTERS
 10
2.068413362504192
 20
23.04877818887352
 30
0.0
  0
VERTEX
  5
2EF
  8
PART_LETTERS
 10
2.057381788226821
 20
23.06956917465541
 30
0.0
  0
VERTEX
  5
2F0
  8
PART_LETTERS
 10
2.047274750848326
 20
23.0909370714622
 30
0.0
  0
VERTEX
  5
2F1
  8
PART_LETTERS
 10
2.038092250368705
 20
23.11288187929389
 30
0.0
  0
VERTEX
  5
2F2
  8
PART_LETTERS
 10
2.029834286787958
 20
23.13540359815047
 30
0.0
  0
VERTEX
  5
2F3
  8
PART_LETTERS
 10
2.022500860106085
 20
23.15850222803195
 30
0.0
  0
VERTEX
  5
2F4
  8
PART_LETTERS
 10
2.016091970323088
 20
23.18217776893833
 30
0.0
  0
VERTEX
  5
2F5
  8
PART_LETTERS
 10
2.010607617438964
 20
23.20643022086961
 30
0.0
  0
VERTEX
  5
2F6
  8
PART_LETTERS
 10
2.006047801453715
 20
23.23125958382577
 30
0.0
  0
VERTEX
  5
2F7
  8
PART_LETTERS
 10
2.00241252236734
 20
23.25666585780684
 30
0.0
  0
SEQEND
  5
325
  8
PART_LETTERS
  0
POLYLINE
  5
74
  8
T10_COUNTERSINK
 66
     1
 10
0.0
 20
0.0
 30
0.0
 70
     1
  0
VERTEX
  5
2F8
  8
T10_COUNTERSINK
 10
1.809362003885482
 20
67.10810000000001
 30
0.0
 42
0.4142135623730951
  0
VERTEX
  5
2F9
  8
T10_COUNTERSINK
 10
1.746862003885482
 20
67.04560000000001
 30
0.0
 42
0.4142135623730951
  0
VERTEX
  5
2FA
  8
T10_COUNTERSINK
 10
1.809362003885482
 20
66.98310000000001
 30
0.0
 42
0.4142135623730951
  0
VERTEX
  5
2FB
  8
T10_COUNTERSINK
 10
1.871862003885482
 20
67.04560000000001
 30
0.0
 42
0.4142135623730951
  0
SEQEND
  5
326
  8
T10_COUNTERSINK
  0
POLYLINE
  5
75
  8
T10_COUNTERSINK
 66
     1
 10
0.0
 20
0.0
 30
0.0
 70
     1
  0
VERTEX
  5
2FC
  8
T10_COUNTERSINK
 10
1.809362003885482
 20
83.10810000000001
 30
0.0
 42
0.4142135623730951
  0
VERTEX
  5
2FD
  8
T10_COUNTERSINK
 10
1.746862003885482
 20
83.04560000000001
 30
0.0
 42
0.4142135623730951
  0
VERTEX
  5
2FE
  8
T10_COUNTERSINK
 10
1.809362003885482
 20
82.98310000000001
 30
0.0
 42
0.4142135623730951
  0
VERTEX
  5
2FF
  8
T10_COUNTERSINK
 10
1.871862003885482
 20
83.04560000000001
 30
0.0
 42
0.4142135623730951
  0
SEQEND
  5
327
  8
T10_COUNTERSINK
  0
POLYLINE
  5
76
  8
T10_COUNTERSINK
 66
     1
 10
0.0
 20
0.0
 30
0.0
 70
     1
  0
VERTEX
  5
300
  8
T10_COUNTERSINK
 10
1.809362003885482
 20
75.10810000000001
 30
0.0
 42
0.4142135623730951
  0
VERTEX
  5
301
  8
T10_COUNTERSINK
 10
1.746862003885482
 20
75.04560000000001
 30
0.0
 42
0.4142135623730951
  0
VERTEX
  5
302
  8
T10_COUNTERSINK
 10
1.809362003885482
 20
74.98310000000001
 30
0.0
 42
0.4142135623730951
  0
VERTEX
  5
303
  8
T10_COUNTERSINK
 10
1.871862003885482
 20
75.04560000000001
 30
0.0
 42
0.4142135623730951
  0
SEQEND
  5
328
  8
T10_COUNTERSINK
  0
POLYLINE
  5
78
  8
T8_DRILL
 66
     1
 10
0.0
 20
0.0
 30
0.0
 70
     1
  0
VERTEX
  5
304
  8
T8_DRILL
 10
2.18429682364966
 20
90.5870641075764
 30
0.0
 42
0.4142135623730951
  0
VERTEX
  5
305
  8
T8_DRILL
 10
2.05929682364966
 20
90.4620641075764
 30
0.0
 42
0.4142135623730951
  0
VERTEX
  5
306
  8
T8_DRILL
 10
2.184296823649653
 20
90.3370641075764
 30
0.0
 42
0.4142135623730951
  0
VERTEX
  5
307
  8
T8_DRILL
 10
2.309296823649717
 20
90.4620641075764
 30
0.0
 42
0.4142135623730951
  0
SEQEND
  5
329
  8
T8_DRILL
  0
POLYLINE
  5
7A
  8
T3_POCKET
 66
     1
 10
0.0
 20
0.0
 30
0.0
 70
     1
  0
VERTEX
  5
308
  8
T3_POCKET
 10
1.434313704662344
 20
90.46202424336832
 30
0.0
 42
0.4142135623730951
  0
VERTEX
  5
309
  8
T3_POCKET
 10
2.184313704662365
 20
89.71202424336832
 30
0.0
 42
0.4142135623730951
  0
VERTEX
  5
30A
  8
T3_POCKET
 10
2.934313704662408
 20
90.46202424336832
 30
0.0
 42
0.4142135623730951
  0
VERTEX
  5
30B
  8
T3_POCKET
 10
2.184313704662358
 20
91.21202424336832
 30
0.0
 42
0.4142135623730951
  0
SEQEND
  5
32A
  8
T3_POCKET
  0
POLYLINE
  5
7C
  8
T3_PROFILE_INSIDE
 66
     1
 10
0.0
 20
0.0
 30
0.0
  0
VERTEX
  5
30C
  8
T3_PROFILE_INSIDE
 10
0.0103043136531085
 20
92.47438696727053
 30
0.0
  0
VERTEX
  5
30D
  8
T3_PROFILE_INSIDE
 10
2.561761485078982
 20
91.65383155205683
 30
0.0
 42
-0.3269702414499648
  0
VERTEX
  5
30E
  8
T3_PROFILE_INSIDE
 10
3.434313704662415
 20
90.4621029835258
 30
0.0
 42
-0.3269702414499648
  0
VERTEX
  5
30F
  8
T3_PROFILE_INSIDE
 10
2.561761485078968
 20
89.27037441499476
 30
0.0
  0
VERTEX
  5
310
  8
T3_PROFILE_INSIDE
 10
0.0
 20
88.4418258896711
 30
0.0
  0
SEQEND
  5
32B
  8
T3_PROFILE_INSIDE
  0
POLYLINE
  5
7E
  8
T5_BEVEL_OUTSIDE
 66
     1
 10
0.0
 20
0.0
 30
0.0
  0
VERTEX
  5
311
  8
T5_BEVEL_OUTSIDE
 10
3.559362003885482
 20
62.52560000000008
 30
0.0
  0
VERTEX
  5
312
  8
T5_BEVEL_OUTSIDE
 10
0.0593620038854823
 20
62.52560000000008
 30
0.0
  0
SEQEND
  5
32C
  8
T5_BEVEL_OUTSIDE
  0
POLYLINE
  5
7F
  8
T5_BEVEL_OUTSIDE
 66
     1
 10
0.0
 20
0.0
 30
0.0
  0
VERTEX
  5
313
  8
T5_BEVEL_OUTSIDE
 10
0.0593620038854823
 20
63.0456
 30
0.0
  0
VERTEX
  5
314
  8
T5_BEVEL_OUTSIDE
 10
3.559362003885539
 20
63.0456
 30
0.0
  0
SEQEND
  5
32D
  8
T5_BEVEL_OUTSIDE
  0
POLYLINE
  5
80
  8
T5_BEVEL_OUTSIDE
 66
     1
 10
0.0
 20
0.0
 30
0.0
  0
VERTEX
  5
315
  8
T5_BEVEL_OUTSIDE
 10
3.559362003885539
 20
87.04560000000001
 30
0.0
  0
VERTEX
  5
316
  8
T5_BEVEL_OUTSIDE
 10
0.0593620038854823
 20
87.04560000000001
 30
0.0
  0
SEQEND
  5
32E
  8
T5_BEVEL_OUTSIDE
  0
POLYLINE
  5
81
  8
T5_BEVEL_OUTSIDE
 66
     1
 10
0.0
 20
0.0
 30
0.0
  0
VERTEX
  5
317
  8
T5_BEVEL_OUTSIDE
 10
0.0593620038854823
 20
2.5256
 30
0.0
  0
VERTEX
  5
318
  8
T5_BEVEL_OUTSIDE
 10
3.559362003885482
 20
2.5256
 30
0.0
  0
SEQEND
  5
32F
  8
T5_BEVEL_OUTSIDE
  0
POLYLINE
  5
83
  8
REAR_LEG
 66
     1
 10
0.0
 20
0.0
 30
0.0
 70
     1
  0
VERTEX
  5
319
  8
REAR_LEG
 10
1.809337854273949
 20
44.52559348363526
 30
0.0
 42
0.4142135623730951
  0
VERTEX
  5
31A
  8
REAR_LEG
 10
1.684337854273949
 20
44.40059348363526
 30
0.0
 42
0.4142135623730951
  0
VERTEX
  5
31B
  8
REAR_LEG
 10
1.809337854273949
 20
44.27559348363526
 30
0.0
 42
0.4142135623730951
  0
VERTEX
  5
31C
  8
REAR_LEG
 10
1.934337854273949
 20
44.40059348363526
 30
0.0
 42
0.4142135623730951
  0
SEQEND
  5
330
  8
REAR_LEG
  0
POLYLINE
  5
84
  8
REAR_LEG
 66
     1
 10
0.0
 20
0.0
 30
0.0
 70
     1
  0
VERTEX
  5
31D
  8
REAR_LEG
 10
1.809337854273949
 20
20.77559348363526
 30
0.0
 42
0.4142135623730951
  0
VERTEX
  5
31E
  8
REAR_LEG
 10
1.684337854273949
 20
20.65059348363526
 30
0.0
 42
0.4142135623730951
  0
VERTEX
  5
31F
  8
REAR_LEG
 10
1.809337854273949
 20
20.52559348363526
 30
0.0
 42
0.4142135623730951
  0
VERTEX
  5
320
  8
REAR_LEG
 10
1.934337854273949
 20
20.65059348363526
 30
0.0
 42
0.4142135623730951
  0
SEQEND
  5
331
  8
REAR_LEG
  0
ENDSEC
  0
EOF
