  0
SECTION
  2
HEADER
  9
$ACADVER
  1
AC1009
  9
$DWGCODEPAGE
  3
ANSI_1252
  9
$INSBASE
 10
0.0
 20
0.0
 30
0.0
  9
$EXTMIN
 10
1e+20
 20
1e+20
 30
1e+20
  9
$EXTMAX
 10
-1e+20
 20
-1e+20
 30
-1e+20
  9
$LIMMIN
 10
0.0
 20
0.0
  9
$LIMMAX
 10
420.0
 20
297.0
  9
$ORTHOMODE
 70
0
  9
$REGENMODE
 70
1
  9
$FILLMODE
 70
1
  9
$DRAGMODE
 70
2
  9
$QTEXTMODE
 70
0
  9
$MIRRTEXT
 70
1
  9
$OSMODE
 70
20583
  9
$LTSCALE
 40
1.0
  9
$ATTMODE
 70
1
  9
$TEXTSIZE
 40
2.5
  9
$TRACEWID
 40
1.0
  9
$TEXTSTYLE
  7
Standard
  9
$CLAYER
  8
0
  9
$CELTYPE
  6
ByLayer
  9
$CECOLOR
 62
256
  9
$DIMSCALE
 40
1.0
  9
$DIMASZ
 40
2.5
  9
$DIMEXO
 40
0.625
  9
$DIMDLI
 40
3.75
  9
$DIMRND
 40
0.0
  9
$DIMDLE
 40
0.0
  9
$DIMEXE
 40
1.25
  9
$DIMTP
 40
0.0
  9
$DIMTM
 40
0.0
  9
$DIMTXT
 40
2.5
  9
$DIMCEN
 40
2.5
  9
$DIMTSZ
 40
0.0
  9
$DIMTOL
 70
0
  9
$DIMLIM
 70
0
  9
$DIMTIH
 70
0
  9
$DIMTOH
 70
0
  9
$DIMSE1
 70
0
  9
$DIMSE2
 70
0
  9
$DIMTAD
 70
1
  9
$DIMZIN
 70
8
  9
$DIMBLK
  1

  9
$DIMASO
 70
1
  9
$DIMSHO
 70
1
  9
$DIMPOST
  1

  9
$DIMAPOST
  1

  9
$DIMALT
 70
0
  9
$DIMALTD
 70
3
  9
$DIMALTF
 40
0.03937007874
  9
$DIMLFAC
 40
1.0
  9
$DIMTOFL
 70
1
  9
$DIMTVP
 40
0.0
  9
$DIMTIX
 70
0
  9
$DIMSOXD
 70
0
  9
$DIMSAH
 70
0
  9
$DIMBLK1
  1

  9
$DIMBLK2
  1

  9
$DIMSTYLE
  2
ISO-25
  9
$DIMCLRD
 70
0
  9
$DIMCLRE
 70
0
  9
$DIMCLRT
 70
0
  9
$DIMTFAC
 40
1.0
  9
$DIMGAP
 40
0.625
  9
$COORDS
 70
1
  9
$ATTDIA
 70
0
  9
$ATTREQ
 70
1
  9
$HANDLING
 70
1
  9
$LUNITS
 70
2
  9
$LUPREC
 70
4
  9
$SKETCHINC
 40
1.0
  9
$FILLETRAD
 40
10.0
  9
$AUNITS
 70
0
  9
$AUPREC
 70
2
  9
$MENU
  1
.
  9
$ELEVATION
 40
0.0
  9
$PELEVATION
 40
0.0
  9
$THICKNESS
 40
0.0
  9
$LIMCHECK
 70
0
  9
$CHAMFERA
 40
0.0
  9
$CHAMFERB
 40
0.0
  9
$SKPOLY
 70
0
  9
$TDCREATE
 40
2461322.3302546297
  9
$TDUPDATE
 40
2461322.3302546297
  9
$TDINDWG
 40
0.0
  9
$TDUSRTIMER
 40
0.0
  9
$USRTIMER
 70
1
  9
$ANGBASE
 50
0.0
  9
$ANGDIR
 70
0
  9
$PDMODE
 70
0
  9
$PDSIZE
 40
0.0
  9
$PLINEWID
 40
0.0
  9
$SPLFRAME
 70
0
  9
$SPLINETYPE
 70
6
  9
$SPLINESEGS
 70
8
  9
$HANDSEED
  5
135
  9
$SURFTAB1
 70
6
  9
$SURFTAB2
 70
6
  9
$SURFTYPE
 70
6
  9
$SURFU
 70
6
  9
$SURFV
 70
6
  9
$UCSNAME
  2

  9
$UCSORG
 10
0.0
 20
0.0
 30
0.0
  9
$UCSXDIR
 10
1.0
 20
0.0
 30
0.0
  9
$UCSYDIR
 10
0.0
 20
1.0
 30
0.0
  9
$PUCSNAME
  2

  9
$PUCSORG
 10
0.0
 20
0.0
 30
0.0
  9
$PUCSXDIR
 10
1.0
 20
0.0
 30
0.0
  9
$PUCSYDIR
 10
0.0
 20
1.0
 30
0.0
  9
$USERI1
 70
0
  9
$USERI2
 70
0
  9
$USERI3
 70
0
  9
$USERI4
 70
0
  9
$USERI5
 70
0
  9
$USERR1
 40
0.0
  9
$USERR2
 40
0.0
  9
$USERR3
 40
0.0
  9
$USERR4
 40
0.0
  9
$USERR5
 40
0.0
  9
$WORLDVIEW
 70
1
  9
$SHADEDGE
 70
3
  9
$SHADEDIF
 70
70
  9
$TILEMODE
 70
1
  9
$MAXACTVP
 70
64
  9
$PLIMCHECK
 70
0
  9
$PEXTMIN
 10
1e+20
 20
1e+20
 30
1e+20
  9
$PEXTMAX
 10
-1e+20
 20
-1e+20
 30
-1e+20
  9
$PLIMMIN
 10
0.0
 20
0.0
  9
$PLIMMAX
 10
420.0
 20
297.0
  9
$UNITMODE
 70
0
  9
$VISRETAIN
 70
1
  9
$PLINEGEN
 70
0
  9
$PSLTSCALE
 70
1
  0
ENDSEC
  0
SECTION
  2
TABLES
  0
TABLE
  2
VPORT
 70
1
  0
VPORT
  5
23
  2
*Active
 70
0
 10
0.0
 20
0.0
 11
1.0
 21
1.0
 12
0.0
 22
0.0
 13
0.0
 23
0.0
 14
0.5
 24
0.5
 15
0.5
 25
0.5
 16
0.0
 26
0.0
 36
1.0
 17
0.0
 27
0.0
 37
0.0
 40
1000.0
 41
1.34
 42
50.0
 43
0.0
 44
0.0
 50
0.0
 51
0.0
 71
0
 72
1000
 73
1
 74
3
 75
0
 76
0
 77
0
 78
0
  0
ENDTAB
  0
TABLE
  2
LTYPE
 70
3
  0
LTYPE
  5
24
  2
ByBlock
 70
0
  3

 72
65
 73
0
 40
0.0
  0
LTYPE
  5
25
  2
ByLayer
 70
0
  3

 72
65
 73
0
 40
0.0
  0
LTYPE
  5
26
  2
Continuous
 70
0
  3

 72
65
 73
0
 40
0.0
  0
ENDTAB
  0
TABLE
  2
LAYER
 70
14
  0
LAYER
  5
27
  2
0
 70
0
 62
7
  6
Continuous
  0
LAYER
  5
28
  2
Defpoints
 70
0
 62
7
  6
Continuous
  0
LAYER
  5
2D
  2
OUTSIDE_PROFILE
 70
0
 62
7
  6
Continuous
  0
LAYER
  5
2E
  2
INSIDE_CUT
 70
0
 62
1
  6
Continuous
  0
LAYER
  5
2F
  2
DRILL_0.375_THRU
 70
0
 62
3
  6
Continuous
  0
LAYER
  5
30
  2
SHEET
 70
0
 62
8
  6
Continuous
  0
LAYER
  5
31
  2
NOTES
 70
0
 62
2
  6
Continuous
  0
LAYER
  5
32
  2
POCKET_2.00D_0.50DEEP
 70
0
 62
5
  6
Continuous
  0
LAYER
  5
33
  2
POCKET_2.66D_1.00DEEP
 70
0
 62
5
  6
Continuous
  0
LAYER
  5
34
  2
POCKET_0.55D_1.18DEEP
 70
0
 62
5
  6
Continuous
  0
LAYER
  5
35
  2
POCKET_0.26D_1.12DEEP
 70
0
 62
5
  6
Continuous
  0
LAYER
  5
36
  2
POCKET_2.55D_1.00DEEP
 70
0
 62
5
  6
Continuous
  0
LAYER
  5
37
  2
POCKET_0.50D_1.19DEEP
 70
0
 62
5
  6
Continuous
  0
LAYER
  5
F8
  2
CAP_CENTER_0.50_VECTOR_ONLY
 70
0
 62
6
  6
Continuous
  0
ENDTAB
  0
TABLE
  2
STYLE
 70
1
  0
STYLE
  5
29
  2
Standard
 70
0
 40
0.0
 41
1.0
 50
0.0
 71
0
 42
2.5
  3
txt
  4

  0
ENDTAB
  0
TABLE
  2
VIEW
 70
0
  0
ENDTAB
  0
TABLE
  2
UCS
 70
0
  0
ENDTAB
  0
TABLE
  2
APPID
 70
3
  0
APPID
  5
2A
  2
ACAD
 70
0
  0
APPID
  5
133
  2
HATCHBACKGROUNDCOLOR
 70
0
  0
APPID
  5
134
  2
EZDXF
 70
0
  0
ENDTAB
  0
TABLE
  2
DIMSTYLE
 70
1
  0
DIMSTYLE
105
2B
  2
Standard
 70
0
  3

  4

  5

  6

  7

 40
1.0
 41
2.5
 42
0.625
 43
3.75
 44
1.25
 45
0.0
 46
0.0
 47
0.0
 48
0.0
140
2.5
141
2.5
142
0.0
143
0.03937007874
144
1.0
145
0.0
146
1.0
147
0.625
 71
0
 72
0
 73
0
 74
0
 75
0
 76
0
 77
1
 78
8
170
0
171
3
172
1
173
0
174
0
175
0
176
0
177
0
178
0
  0
ENDTAB
  0
ENDSEC
  0
SECTION
  2
BLOCKS
  0
BLOCK
  5
18
  8
0
  2
$Model_Space
 70
0
 10
0.0
 20
0.0
 30
0.0
  3
$Model_Space
  1

1001
EZDXF
1000
CREATED_BY_EZDXF
1000
1.4.4 @ 2026-10-08T14:55:34.914418+00:00
1000
WRITTEN_BY_EZDXF
1000
1.4.4 @ 2026-10-08T14:55:34.920036+00:00
  0
ENDBLK
  5
19
  8
0
  0
BLOCK
  5
1C
  8
0
  2
$Paper_Space
 70
0
 10
0.0
 20
0.0
 30
0.0
  3
$Paper_Space
  1

  0
ENDBLK
  5
1D
  8
0
  0
ENDSEC
  0
SECTION
  2
ENTITIES
  0
POLYLINE
  5
38
  8
SHEET
 66
1
 10
0.0
 20
0.0
 30
0.0
 70
1
  0
VERTEX
  5
3A
  8
SHEET
 10
0.0
 20
0.0
 30
0.0
 70
0
  0
VERTEX
  5
3B
  8
SHEET
 10
48.5
 20
0.0
 30
0.0
 70
0
  0
VERTEX
  5
3C
  8
SHEET
 10
48.5
 20
97.0
 30
0.0
 70
0
  0
VERTEX
  5
3D
  8
SHEET
 10
0.0
 20
97.0
 30
0.0
 70
0
  0
SEQEND
  5
39
  8
SHEET
  0
POLYLINE
  5
3E
  8
OUTSIDE_PROFILE
 66
1
 10
0.0
 20
0.0
 30
0.0
 70
1
  0
VERTEX
  5
40
  8
OUTSIDE_PROFILE
 10
2.9451
 20
24.2308
 30
0.0
 70
0
  0
VERTEX
  5
41
  8
OUTSIDE_PROFILE
 10
3.0403000000000002
 20
24.2069
 30
0.0
 70
0
  0
VERTEX
  5
42
  8
OUTSIDE_PROFILE
 10
3.1327
 20
24.1739
 30
0.0
 70
0
  0
VERTEX
  5
43
  8
OUTSIDE_PROFILE
 10
3.2214
 20
24.1319
 30
0.0
 70
0
  0
VERTEX
  5
44
  8
OUTSIDE_PROFILE
 10
3.3056
 20
24.0815
 30
0.0
 70
0
  0
VERTEX
  5
45
  8
OUTSIDE_PROFILE
 10
3.3844
 20
24.023
 30
0.0
 70
0
  0
VERTEX
  5
46
  8
OUTSIDE_PROFILE
 10
3.4571
 20
23.9571
 30
0.0
 70
0
  0
VERTEX
  5
47
  8
OUTSIDE_PROFILE
 10
3.523
 20
23.8844
 30
0.0
 70
0
  0
VERTEX
  5
48
  8
OUTSIDE_PROFILE
 10
3.5815
 20
23.8056
 30
0.0
 70
0
  0
VERTEX
  5
49
  8
OUTSIDE_PROFILE
 10
3.6319
 20
23.7214
 30
0.0
 70
0
  0
VERTEX
  5
4A
  8
OUTSIDE_PROFILE
 10
3.6739
 20
23.6327
 30
0.0
 70
0
  0
VERTEX
  5
4B
  8
OUTSIDE_PROFILE
 10
3.7069
 20
23.5403
 30
0.0
 70
0
  0
VERTEX
  5
4C
  8
OUTSIDE_PROFILE
 10
3.7308
 20
23.4451
 30
0.0
 70
0
  0
VERTEX
  5
4D
  8
OUTSIDE_PROFILE
 10
3.7452
 20
23.348
 30
0.0
 70
0
  0
VERTEX
  5
4E
  8
OUTSIDE_PROFILE
 10
3.75
 20
23.25
 30
0.0
 70
0
  0
VERTEX
  5
4F
  8
OUTSIDE_PROFILE
 10
3.75
 20
1.25
 30
0.0
 70
0
  0
VERTEX
  5
50
  8
OUTSIDE_PROFILE
 10
3.7452
 20
1.1520000000000001
 30
0.0
 70
0
  0
VERTEX
  5
51
  8
OUTSIDE_PROFILE
 10
3.7308
 20
1.0549
 30
0.0
 70
0
  0
VERTEX
  5
52
  8
OUTSIDE_PROFILE
 10
3.7069
 20
0.9597
 30
0.0
 70
0
  0
VERTEX
  5
53
  8
OUTSIDE_PROFILE
 10
3.6739
 20
0.8673
 30
0.0
 70
0
  0
VERTEX
  5
54
  8
OUTSIDE_PROFILE
 10
3.6319
 20
0.7786
 30
0.0
 70
0
  0
VERTEX
  5
55
  8
OUTSIDE_PROFILE
 10
3.5815
 20
0.6944
 30
0.0
 70
0
  0
VERTEX
  5
56
  8
OUTSIDE_PROFILE
 10
3.523
 20
0.6155999999999999
 30
0.0
 70
0
  0
VERTEX
  5
57
  8
OUTSIDE_PROFILE
 10
3.4571
 20
0.5428999999999999
 30
0.0
 70
0
  0
VERTEX
  5
58
  8
OUTSIDE_PROFILE
 10
3.3844
 20
0.477
 30
0.0
 70
0
  0
VERTEX
  5
59
  8
OUTSIDE_PROFILE
 10
3.3056
 20
0.4185
 30
0.0
 70
0
  0
VERTEX
  5
5A
  8
OUTSIDE_PROFILE
 10
3.2214
 20
0.3681
 30
0.0
 70
0
  0
VERTEX
  5
5B
  8
OUTSIDE_PROFILE
 10
3.1327
 20
0.3261
 30
0.0
 70
0
  0
VERTEX
  5
5C
  8
OUTSIDE_PROFILE
 10
3.0403000000000002
 20
0.2931
 30
0.0
 70
0
  0
VERTEX
  5
5D
  8
OUTSIDE_PROFILE
 10
2.9451
 20
0.2692
 30
0.0
 70
0
  0
VERTEX
  5
5E
  8
OUTSIDE_PROFILE
 10
2.848
 20
0.2548
 30
0.0
 70
0
  0
VERTEX
  5
5F
  8
OUTSIDE_PROFILE
 10
2.75
 20
0.25
 30
0.0
 70
0
  0
VERTEX
  5
60
  8
OUTSIDE_PROFILE
 10
1.25
 20
0.25
 30
0.0
 70
0
  0
VERTEX
  5
61
  8
OUTSIDE_PROFILE
 10
1.1520000000000001
 20
0.2548
 30
0.0
 70
0
  0
VERTEX
  5
62
  8
OUTSIDE_PROFILE
 10
1.0549
 20
0.2692
 30
0.0
 70
0
  0
VERTEX
  5
63
  8
OUTSIDE_PROFILE
 10
0.9597000000000002
 20
0.2931
 30
0.0
 70
0
  0
VERTEX
  5
64
  8
OUTSIDE_PROFILE
 10
0.8673000000000002
 20
0.3261
 30
0.0
 70
0
  0
VERTEX
  5
65
  8
OUTSIDE_PROFILE
 10
0.7786
 20
0.3681
 30
0.0
 70
0
  0
VERTEX
  5
66
  8
OUTSIDE_PROFILE
 10
0.6943999999999999
 20
0.4185
 30
0.0
 70
0
  0
VERTEX
  5
67
  8
OUTSIDE_PROFILE
 10
0.6156000000000001
 20
0.477
 30
0.0
 70
0
  0
VERTEX
  5
68
  8
OUTSIDE_PROFILE
 10
0.5428999999999999
 20
0.5428999999999999
 30
0.0
 70
0
  0
VERTEX
  5
69
  8
OUTSIDE_PROFILE
 10
0.47699999999999987
 20
0.6155999999999999
 30
0.0
 70
0
  0
VERTEX
  5
6A
  8
OUTSIDE_PROFILE
 10
0.41849999999999987
 20
0.6944
 30
0.0
 70
0
  0
VERTEX
  5
6B
  8
OUTSIDE_PROFILE
 10
0.3681000000000001
 20
0.7786
 30
0.0
 70
0
  0
VERTEX
  5
6C
  8
OUTSIDE_PROFILE
 10
0.32609999999999983
 20
0.8673
 30
0.0
 70
0
  0
VERTEX
  5
6D
  8
OUTSIDE_PROFILE
 10
0.2930999999999999
 20
0.9597
 30
0.0
 70
0
  0
VERTEX
  5
6E
  8
OUTSIDE_PROFILE
 10
0.2692000000000001
 20
1.0549
 30
0.0
 70
0
  0
VERTEX
  5
6F
  8
OUTSIDE_PROFILE
 10
0.2547999999999999
 20
1.1520000000000001
 30
0.0
 70
0
  0
VERTEX
  5
70
  8
OUTSIDE_PROFILE
 10
0.25
 20
1.25
 30
0.0
 70
0
  0
VERTEX
  5
71
  8
OUTSIDE_PROFILE
 10
0.25
 20
23.25
 30
0.0
 70
0
  0
VERTEX
  5
72
  8
OUTSIDE_PROFILE
 10
0.2547999999999999
 20
23.348
 30
0.0
 70
0
  0
VERTEX
  5
73
  8
OUTSIDE_PROFILE
 10
0.2692000000000001
 20
23.4451
 30
0.0
 70
0
  0
VERTEX
  5
74
  8
OUTSIDE_PROFILE
 10
0.2930999999999999
 20
23.5403
 30
0.0
 70
0
  0
VERTEX
  5
75
  8
OUTSIDE_PROFILE
 10
0.32609999999999983
 20
23.6327
 30
0.0
 70
0
  0
VERTEX
  5
76
  8
OUTSIDE_PROFILE
 10
0.3681000000000001
 20
23.7214
 30
0.0
 70
0
  0
VERTEX
  5
77
  8
OUTSIDE_PROFILE
 10
0.41849999999999987
 20
23.8056
 30
0.0
 70
0
  0
VERTEX
  5
78
  8
OUTSIDE_PROFILE
 10
0.47699999999999987
 20
23.8844
 30
0.0
 70
0
  0
VERTEX
  5
79
  8
OUTSIDE_PROFILE
 10
0.5428999999999999
 20
23.9571
 30
0.0
 70
0
  0
VERTEX
  5
7A
  8
OUTSIDE_PROFILE
 10
0.6156000000000001
 20
24.023
 30
0.0
 70
0
  0
VERTEX
  5
7B
  8
OUTSIDE_PROFILE
 10
0.6943999999999999
 20
24.0815
 30
0.0
 70
0
  0
VERTEX
  5
7C
  8
OUTSIDE_PROFILE
 10
0.7786
 20
24.1319
 30
0.0
 70
0
  0
VERTEX
  5
7D
  8
OUTSIDE_PROFILE
 10
0.8673000000000002
 20
24.1739
 30
0.0
 70
0
  0
VERTEX
  5
7E
  8
OUTSIDE_PROFILE
 10
0.9597000000000002
 20
24.2069
 30
0.0
 70
0
  0
VERTEX
  5
7F
  8
OUTSIDE_PROFILE
 10
1.0549
 20
24.2308
 30
0.0
 70
0
  0
VERTEX
  5
80
  8
OUTSIDE_PROFILE
 10
1.1520000000000001
 20
24.2452
 30
0.0
 70
0
  0
VERTEX
  5
81
  8
OUTSIDE_PROFILE
 10
1.25
 20
24.25
 30
0.0
 70
0
  0
VERTEX
  5
82
  8
OUTSIDE_PROFILE
 10
2.75
 20
24.25
 30
0.0
 70
0
  0
VERTEX
  5
83
  8
OUTSIDE_PROFILE
 10
2.848
 20
24.2452
 30
0.0
 70
0
  0
SEQEND
  5
3F
  8
OUTSIDE_PROFILE
  0
CIRCLE
  5
84
  8
DRILL_0.375_THRU
 10
2.0
 20
5.25
 30
0.0
 40
0.1875
  0
CIRCLE
  5
85
  8
DRILL_0.375_THRU
 10
2.0
 20
19.25
 30
0.0
 40
0.1875
  0
CIRCLE
  5
86
  8
POCKET_2.00D_0.50DEEP
 10
2.0
 20
5.25
 30
0.0
 40
1.0
  0
CIRCLE
  5
87
  8
POCKET_2.00D_0.50DEEP
 10
2.0
 20
19.25
 30
0.0
 40
1.0
  0
POLYLINE
  5
88
  8
OUTSIDE_PROFILE
 66
1
 10
0.0
 20
0.0
 30
0.0
 70
1
  0
VERTEX
  5
8A
  8
OUTSIDE_PROFILE
 10
6.7051
 20
24.2308
 30
0.0
 70
0
  0
VERTEX
  5
8B
  8
OUTSIDE_PROFILE
 10
6.8003
 20
24.2069
 30
0.0
 70
0
  0
VERTEX
  5
8C
  8
OUTSIDE_PROFILE
 10
6.8927
 20
24.1739
 30
0.0
 70
0
  0
VERTEX
  5
8D
  8
OUTSIDE_PROFILE
 10
6.9814
 20
24.1319
 30
0.0
 70
0
  0
VERTEX
  5
8E
  8
OUTSIDE_PROFILE
 10
7.0656
 20
24.0815
 30
0.0
 70
0
  0
VERTEX
  5
8F
  8
OUTSIDE_PROFILE
 10
7.1444
 20
24.023
 30
0.0
 70
0
  0
VERTEX
  5
90
  8
OUTSIDE_PROFILE
 10
7.217099999999999
 20
23.9571
 30
0.0
 70
0
  0
VERTEX
  5
91
  8
OUTSIDE_PROFILE
 10
7.2829999999999995
 20
23.8844
 30
0.0
 70
0
  0
VERTEX
  5
92
  8
OUTSIDE_PROFILE
 10
7.3415
 20
23.8056
 30
0.0
 70
0
  0
VERTEX
  5
93
  8
OUTSIDE_PROFILE
 10
7.3919
 20
23.7214
 30
0.0
 70
0
  0
VERTEX
  5
94
  8
OUTSIDE_PROFILE
 10
7.4338999999999995
 20
23.6327
 30
0.0
 70
0
  0
VERTEX
  5
95
  8
OUTSIDE_PROFILE
 10
7.4669
 20
23.5403
 30
0.0
 70
0
  0
VERTEX
  5
96
  8
OUTSIDE_PROFILE
 10
7.4908
 20
23.4451
 30
0.0
 70
0
  0
VERTEX
  5
97
  8
OUTSIDE_PROFILE
 10
7.505199999999999
 20
23.348
 30
0.0
 70
0
  0
VERTEX
  5
98
  8
OUTSIDE_PROFILE
 10
7.51
 20
23.25
 30
0.0
 70
0
  0
VERTEX
  5
99
  8
OUTSIDE_PROFILE
 10
7.51
 20
1.25
 30
0.0
 70
0
  0
VERTEX
  5
9A
  8
OUTSIDE_PROFILE
 10
7.505199999999999
 20
1.1520000000000001
 30
0.0
 70
0
  0
VERTEX
  5
9B
  8
OUTSIDE_PROFILE
 10
7.4908
 20
1.0549
 30
0.0
 70
0
  0
VERTEX
  5
9C
  8
OUTSIDE_PROFILE
 10
7.4669
 20
0.9597
 30
0.0
 70
0
  0
VERTEX
  5
9D
  8
OUTSIDE_PROFILE
 10
7.4338999999999995
 20
0.8673
 30
0.0
 70
0
  0
VERTEX
  5
9E
  8
OUTSIDE_PROFILE
 10
7.3919
 20
0.7786
 30
0.0
 70
0
  0
VERTEX
  5
9F
  8
OUTSIDE_PROFILE
 10
7.3415
 20
0.6944
 30
0.0
 70
0
  0
VERTEX
  5
A0
  8
OUTSIDE_PROFILE
 10
7.2829999999999995
 20
0.6155999999999999
 30
0.0
 70
0
  0
VERTEX
  5
A1
  8
OUTSIDE_PROFILE
 10
7.217099999999999
 20
0.5428999999999999
 30
0.0
 70
0
  0
VERTEX
  5
A2
  8
OUTSIDE_PROFILE
 10
7.1444
 20
0.477
 30
0.0
 70
0
  0
VERTEX
  5
A3
  8
OUTSIDE_PROFILE
 10
7.0656
 20
0.4185
 30
0.0
 70
0
  0
VERTEX
  5
A4
  8
OUTSIDE_PROFILE
 10
6.9814
 20
0.3681
 30
0.0
 70
0
  0
VERTEX
  5
A5
  8
OUTSIDE_PROFILE
 10
6.8927
 20
0.3261
 30
0.0
 70
0
  0
VERTEX
  5
A6
  8
OUTSIDE_PROFILE
 10
6.8003
 20
0.2931
 30
0.0
 70
0
  0
VERTEX
  5
A7
  8
OUTSIDE_PROFILE
 10
6.7051
 20
0.2692
 30
0.0
 70
0
  0
VERTEX
  5
A8
  8
OUTSIDE_PROFILE
 10
6.608
 20
0.2548
 30
0.0
 70
0
  0
VERTEX
  5
A9
  8
OUTSIDE_PROFILE
 10
6.51
 20
0.25
 30
0.0
 70
0
  0
VERTEX
  5
AA
  8
OUTSIDE_PROFILE
 10
5.01
 20
0.25
 30
0.0
 70
0
  0
VERTEX
  5
AB
  8
OUTSIDE_PROFILE
 10
4.912
 20
0.2548
 30
0.0
 70
0
  0
VERTEX
  5
AC
  8
OUTSIDE_PROFILE
 10
4.8149
 20
0.2692
 30
0.0
 70
0
  0
VERTEX
  5
AD
  8
OUTSIDE_PROFILE
 10
4.7197
 20
0.2931
 30
0.0
 70
0
  0
VERTEX
  5
AE
  8
OUTSIDE_PROFILE
 10
4.6273
 20
0.3261
 30
0.0
 70
0
  0
VERTEX
  5
AF
  8
OUTSIDE_PROFILE
 10
4.5386
 20
0.3681
 30
0.0
 70
0
  0
VERTEX
  5
B0
  8
OUTSIDE_PROFILE
 10
4.4544
 20
0.4185
 30
0.0
 70
0
  0
VERTEX
  5
B1
  8
OUTSIDE_PROFILE
 10
4.3755999999999995
 20
0.477
 30
0.0
 70
0
  0
VERTEX
  5
B2
  8
OUTSIDE_PROFILE
 10
4.3029
 20
0.5428999999999999
 30
0.0
 70
0
  0
VERTEX
  5
B3
  8
OUTSIDE_PROFILE
 10
4.237
 20
0.6155999999999999
 30
0.0
 70
0
  0
VERTEX
  5
B4
  8
OUTSIDE_PROFILE
 10
4.1785
 20
0.6944
 30
0.0
 70
0
  0
VERTEX
  5
B5
  8
OUTSIDE_PROFILE
 10
4.1281
 20
0.7786
 30
0.0
 70
0
  0
VERTEX
  5
B6
  8
OUTSIDE_PROFILE
 10
4.0861
 20
0.8673
 30
0.0
 70
0
  0
VERTEX
  5
B7
  8
OUTSIDE_PROFILE
 10
4.0531
 20
0.9597
 30
0.0
 70
0
  0
VERTEX
  5
B8
  8
OUTSIDE_PROFILE
 10
4.0291999999999994
 20
1.0549
 30
0.0
 70
0
  0
VERTEX
  5
B9
  8
OUTSIDE_PROFILE
 10
4.0148
 20
1.1520000000000001
 30
0.0
 70
0
  0
VERTEX
  5
BA
  8
OUTSIDE_PROFILE
 10
4.01
 20
1.25
 30
0.0
 70
0
  0
VERTEX
  5
BB
  8
OUTSIDE_PROFILE
 10
4.01
 20
23.25
 30
0.0
 70
0
  0
VERTEX
  5
BC
  8
OUTSIDE_PROFILE
 10
4.0148
 20
23.348
 30
0.0
 70
0
  0
VERTEX
  5
BD
  8
OUTSIDE_PROFILE
 10
4.0291999999999994
 20
23.4451
 30
0.0
 70
0
  0
VERTEX
  5
BE
  8
OUTSIDE_PROFILE
 10
4.0531
 20
23.5403
 30
0.0
 70
0
  0
VERTEX
  5
BF
  8
OUTSIDE_PROFILE
 10
4.0861
 20
23.6327
 30
0.0
 70
0
  0
VERTEX
  5
C0
  8
OUTSIDE_PROFILE
 10
4.1281
 20
23.7214
 30
0.0
 70
0
  0
VERTEX
  5
C1
  8
OUTSIDE_PROFILE
 10
4.1785
 20
23.8056
 30
0.0
 70
0
  0
VERTEX
  5
C2
  8
OUTSIDE_PROFILE
 10
4.237
 20
23.8844
 30
0.0
 70
0
  0
VERTEX
  5
C3
  8
OUTSIDE_PROFILE
 10
4.3029
 20
23.9571
 30
0.0
 70
0
  0
VERTEX
  5
C4
  8
OUTSIDE_PROFILE
 10
4.3755999999999995
 20
24.023
 30
0.0
 70
0
  0
VERTEX
  5
C5
  8
OUTSIDE_PROFILE
 10
4.4544
 20
24.0815
 30
0.0
 70
0
  0
VERTEX
  5
C6
  8
OUTSIDE_PROFILE
 10
4.5386
 20
24.1319
 30
0.0
 70
0
  0
VERTEX
  5
C7
  8
OUTSIDE_PROFILE
 10
4.6273
 20
24.1739
 30
0.0
 70
0
  0
VERTEX
  5
C8
  8
OUTSIDE_PROFILE
 10
4.7197
 20
24.2069
 30
0.0
 70
0
  0
VERTEX
  5
C9
  8
OUTSIDE_PROFILE
 10
4.8149
 20
24.2308
 30
0.0
 70
0
  0
VERTEX
  5
CA
  8
OUTSIDE_PROFILE
 10
4.912
 20
24.2452
 30
0.0
 70
0
  0
VERTEX
  5
CB
  8
OUTSIDE_PROFILE
 10
5.01
 20
24.25
 30
0.0
 70
0
  0
VERTEX
  5
CC
  8
OUTSIDE_PROFILE
 10
6.51
 20
24.25
 30
0.0
 70
0
  0
VERTEX
  5
CD
  8
OUTSIDE_PROFILE
 10
6.608
 20
24.2452
 30
0.0
 70
0
  0
SEQEND
  5
89
  8
OUTSIDE_PROFILE
  0
CIRCLE
  5
CE
  8
DRILL_0.375_THRU
 10
5.76
 20
5.25
 30
0.0
 40
0.1875
  0
CIRCLE
  5
CF
  8
DRILL_0.375_THRU
 10
5.76
 20
19.25
 30
0.0
 40
0.1875
  0
CIRCLE
  5
D0
  8
POCKET_2.00D_0.50DEEP
 10
5.76
 20
5.25
 30
0.0
 40
1.0
  0
CIRCLE
  5
D1
  8
POCKET_2.00D_0.50DEEP
 10
5.76
 20
19.25
 30
0.0
 40
1.0
  0
CIRCLE
  5
D2
  8
POCKET_2.66D_1.00DEEP
 10
9.1
 20
1.58
 30
0.0
 40
1.33
  0
CIRCLE
  5
D3
  8
OUTSIDE_PROFILE
 10
9.1
 20
1.58
 30
0.0
 40
1.07
  0
CIRCLE
  5
D4
  8
POCKET_0.55D_1.18DEEP
 10
9.1
 20
1.58
 30
0.0
 40
0.275
  0
CIRCLE
  5
D5
  8
POCKET_2.66D_1.00DEEP
 10
9.1
 20
4.5
 30
0.0
 40
1.33
  0
CIRCLE
  5
D6
  8
OUTSIDE_PROFILE
 10
9.1
 20
4.5
 30
0.0
 40
1.07
  0
CIRCLE
  5
D7
  8
POCKET_0.55D_1.18DEEP
 10
9.1
 20
4.5
 30
0.0
 40
0.275
  0
CIRCLE
  5
D8
  8
POCKET_2.66D_1.00DEEP
 10
9.1
 20
7.42
 30
0.0
 40
1.33
  0
CIRCLE
  5
D9
  8
OUTSIDE_PROFILE
 10
9.1
 20
7.42
 30
0.0
 40
1.07
  0
CIRCLE
  5
DA
  8
POCKET_0.55D_1.18DEEP
 10
9.1
 20
7.42
 30
0.0
 40
0.275
  0
CIRCLE
  5
DB
  8
POCKET_2.66D_1.00DEEP
 10
9.1
 20
10.34
 30
0.0
 40
1.33
  0
CIRCLE
  5
DC
  8
OUTSIDE_PROFILE
 10
9.1
 20
10.34
 30
0.0
 40
1.07
  0
CIRCLE
  5
DD
  8
POCKET_0.55D_1.18DEEP
 10
9.1
 20
10.34
 30
0.0
 40
0.275
  0
CIRCLE
  5
DE
  8
POCKET_2.66D_1.00DEEP
 10
9.1
 20
13.26
 30
0.0
 40
1.33
  0
CIRCLE
  5
DF
  8
OUTSIDE_PROFILE
 10
9.1
 20
13.26
 30
0.0
 40
1.07
  0
CIRCLE
  5
E0
  8
POCKET_0.55D_1.18DEEP
 10
9.1
 20
13.26
 30
0.0
 40
0.275
  0
CIRCLE
  5
E1
  8
POCKET_2.66D_1.00DEEP
 10
9.1
 20
16.18
 30
0.0
 40
1.33
  0
CIRCLE
  5
E2
  8
OUTSIDE_PROFILE
 10
9.1
 20
16.18
 30
0.0
 40
1.07
  0
CIRCLE
  5
E3
  8
POCKET_0.55D_1.18DEEP
 10
9.1
 20
16.18
 30
0.0
 40
0.275
  0
CIRCLE
  5
E4
  8
POCKET_2.66D_1.00DEEP
 10
9.1
 20
19.1
 30
0.0
 40
1.33
  0
CIRCLE
  5
E5
  8
OUTSIDE_PROFILE
 10
9.1
 20
19.1
 30
0.0
 40
1.07
  0
CIRCLE
  5
E6
  8
POCKET_0.26D_1.12DEEP
 10
9.1
 20
19.1
 30
0.0
 40
0.13
  0
CIRCLE
  5
E7
  8
POCKET_2.66D_1.00DEEP
 10
9.1
 20
22.019999999999996
 30
0.0
 40
1.33
  0
CIRCLE
  5
E8
  8
OUTSIDE_PROFILE
 10
9.1
 20
22.019999999999996
 30
0.0
 40
1.07
  0
CIRCLE
  5
E9
  8
POCKET_0.26D_1.12DEEP
 10
9.1
 20
22.019999999999996
 30
0.0
 40
0.13
  0
CIRCLE
  5
EA
  8
POCKET_2.66D_1.00DEEP
 10
12.02
 20
1.58
 30
0.0
 40
1.33
  0
CIRCLE
  5
EB
  8
OUTSIDE_PROFILE
 10
12.02
 20
1.58
 30
0.0
 40
1.07
  0
CIRCLE
  5
EC
  8
POCKET_0.26D_1.12DEEP
 10
12.02
 20
1.58
 30
0.0
 40
0.13
  0
CIRCLE
  5
ED
  8
POCKET_2.66D_1.00DEEP
 10
12.02
 20
4.5
 30
0.0
 40
1.33
  0
CIRCLE
  5
EE
  8
OUTSIDE_PROFILE
 10
12.02
 20
4.5
 30
0.0
 40
1.07
  0
CIRCLE
  5
EF
  8
POCKET_0.26D_1.12DEEP
 10
12.02
 20
4.5
 30
0.0
 40
0.13
  0
CIRCLE
  5
F0
  8
POCKET_2.66D_1.00DEEP
 10
12.02
 20
7.42
 30
0.0
 40
1.33
  0
CIRCLE
  5
F1
  8
OUTSIDE_PROFILE
 10
12.02
 20
7.42
 30
0.0
 40
1.07
  0
CIRCLE
  5
F2
  8
POCKET_0.26D_1.12DEEP
 10
12.02
 20
7.42
 30
0.0
 40
0.13
  0
CIRCLE
  5
F3
  8
POCKET_2.66D_1.00DEEP
 10
12.02
 20
10.34
 30
0.0
 40
1.33
  0
CIRCLE
  5
F4
  8
OUTSIDE_PROFILE
 10
12.02
 20
10.34
 30
0.0
 40
1.07
  0
CIRCLE
  5
F5
  8
POCKET_0.26D_1.12DEEP
 10
12.02
 20
10.34
 30
0.0
 40
0.13
  0
CIRCLE
  5
F6
  8
POCKET_2.55D_1.00DEEP
 10
12.02
 20
13.26
 30
0.0
 40
1.275
  0
CIRCLE
  5
F7
  8
OUTSIDE_PROFILE
 10
12.02
 20
13.26
 30
0.0
 40
1.015
  0
CIRCLE
  5
F9
  8
CAP_CENTER_0.50_VECTOR_ONLY
 10
12.02
 20
13.26
 30
0.0
 40
0.25
  0
CIRCLE
  5
FA
  8
POCKET_0.50D_1.19DEEP
 10
12.02
 20
13.26
 30
0.0
 40
0.25
  0
CIRCLE
  5
FB
  8
POCKET_2.55D_1.00DEEP
 10
12.02
 20
16.18
 30
0.0
 40
1.275
  0
CIRCLE
  5
FC
  8
OUTSIDE_PROFILE
 10
12.02
 20
16.18
 30
0.0
 40
1.015
  0
CIRCLE
  5
FD
  8
CAP_CENTER_0.50_VECTOR_ONLY
 10
12.02
 20
16.18
 30
0.0
 40
0.25
  0
CIRCLE
  5
FE
  8
POCKET_0.50D_1.19DEEP
 10
12.02
 20
16.18
 30
0.0
 40
0.25
  0
CIRCLE
  5
FF
  8
POCKET_2.55D_1.00DEEP
 10
12.02
 20
19.1
 30
0.0
 40
1.275
  0
CIRCLE
  5
100
  8
OUTSIDE_PROFILE
 10
12.02
 20
19.1
 30
0.0
 40
1.015
  0
CIRCLE
  5
101
  8
CAP_CENTER_0.50_VECTOR_ONLY
 10
12.02
 20
19.1
 30
0.0
 40
0.25
  0
CIRCLE
  5
102
  8
POCKET_0.50D_1.19DEEP
 10
12.02
 20
19.1
 30
0.0
 40
0.25
  0
CIRCLE
  5
103
  8
POCKET_2.55D_1.00DEEP
 10
12.02
 20
22.019999999999996
 30
0.0
 40
1.275
  0
CIRCLE
  5
104
  8
OUTSIDE_PROFILE
 10
12.02
 20
22.019999999999996
 30
0.0
 40
1.015
  0
CIRCLE
  5
105
  8
CAP_CENTER_0.50_VECTOR_ONLY
 10
12.02
 20
22.019999999999996
 30
0.0
 40
0.25
  0
CIRCLE
  5
106
  8
POCKET_0.50D_1.19DEEP
 10
12.02
 20
22.019999999999996
 30
0.0
 40
0.25
  0
CIRCLE
  5
107
  8
POCKET_2.55D_1.00DEEP
 10
14.94
 20
1.58
 30
0.0
 40
1.275
  0
CIRCLE
  5
108
  8
OUTSIDE_PROFILE
 10
14.94
 20
1.58
 30
0.0
 40
1.015
  0
CIRCLE
  5
109
  8
CAP_CENTER_0.50_VECTOR_ONLY
 10
14.94
 20
1.58
 30
0.0
 40
0.25
  0
CIRCLE
  5
10A
  8
POCKET_0.50D_1.19DEEP
 10
14.94
 20
1.58
 30
0.0
 40
0.25
  0
CIRCLE
  5
10B
  8
POCKET_2.55D_1.00DEEP
 10
14.94
 20
4.5
 30
0.0
 40
1.275
  0
CIRCLE
  5
10C
  8
OUTSIDE_PROFILE
 10
14.94
 20
4.5
 30
0.0
 40
1.015
  0
CIRCLE
  5
10D
  8
CAP_CENTER_0.50_VECTOR_ONLY
 10
14.94
 20
4.5
 30
0.0
 40
0.25
  0
CIRCLE
  5
10E
  8
POCKET_0.50D_1.19DEEP
 10
14.94
 20
4.5
 30
0.0
 40
0.25
  0
CIRCLE
  5
10F
  8
POCKET_2.55D_1.00DEEP
 10
14.939999999999998
 20
7.42
 30
0.0
 40
1.275
  0
CIRCLE
  5
110
  8
OUTSIDE_PROFILE
 10
14.939999999999998
 20
7.42
 30
0.0
 40
1.015
  0
CIRCLE
  5
111
  8
CAP_CENTER_0.50_VECTOR_ONLY
 10
14.939999999999998
 20
7.42
 30
0.0
 40
0.25
  0
CIRCLE
  5
112
  8
POCKET_0.50D_1.19DEEP
 10
14.939999999999998
 20
7.42
 30
0.0
 40
0.25
  0
CIRCLE
  5
113
  8
POCKET_2.55D_1.00DEEP
 10
14.94
 20
10.34
 30
0.0
 40
1.275
  0
CIRCLE
  5
114
  8
OUTSIDE_PROFILE
 10
14.94
 20
10.34
 30
0.0
 40
1.015
  0
CIRCLE
  5
115
  8
CAP_CENTER_0.50_VECTOR_ONLY
 10
14.94
 20
10.34
 30
0.0
 40
0.25
  0
CIRCLE
  5
116
  8
POCKET_0.50D_1.19DEEP
 10
14.94
 20
10.34
 30
0.0
 40
0.25
  0
TEXT
  5
117
  8
NOTES
 10
0.85
 20
1.25
 30
0.0
 40
0.3
  1
STEP 1
 11
0.85
 21
1.25
 31
0.0
  0
TEXT
  5
118
  8
NOTES
 10
4.609999999999999
 20
1.25
 30
0.0
 40
0.3
  1
STEP 2
 11
4.609999999999999
 21
1.25
 31
0.0
  0
TEXT
  5
119
  8
NOTES
 10
8.7
 20
0.04999999999999999
 30
0.0
 40
0.3
  1
CT1
 11
8.7
 21
0.04999999999999999
 31
0.0
  0
TEXT
  5
11A
  8
NOTES
 10
8.7
 20
2.9699999999999998
 30
0.0
 40
0.3
  1
CT2
 11
8.7
 21
2.9699999999999998
 31
0.0
  0
TEXT
  5
11B
  8
NOTES
 10
8.7
 20
5.89
 30
0.0
 40
0.3
  1
CT3
 11
8.7
 21
5.89
 31
0.0
  0
TEXT
  5
11C
  8
NOTES
 10
8.7
 20
8.81
 30
0.0
 40
0.3
  1
CT4
 11
8.7
 21
8.81
 31
0.0
  0
TEXT
  5
11D
  8
NOTES
 10
8.7
 20
11.73
 30
0.0
 40
0.3
  1
CT5
 11
8.7
 21
11.73
 31
0.0
  0
TEXT
  5
11E
  8
NOTES
 10
8.7
 20
14.65
 30
0.0
 40
0.3
  1
CT6
 11
8.7
 21
14.65
 31
0.0
  0
TEXT
  5
11F
  8
NOTES
 10
8.7
 20
17.57
 30
0.0
 40
0.3
  1
CB1
 11
8.7
 21
17.57
 31
0.0
  0
TEXT
  5
120
  8
NOTES
 10
8.7
 20
20.489999999999995
 30
0.0
 40
0.3
  1
CB2
 11
8.7
 21
20.489999999999995
 31
0.0
  0
TEXT
  5
121
  8
NOTES
 10
11.62
 20
0.04999999999999999
 30
0.0
 40
0.3
  1
CB3
 11
11.62
 21
0.04999999999999999
 31
0.0
  0
TEXT
  5
122
  8
NOTES
 10
11.62
 20
2.9699999999999998
 30
0.0
 40
0.3
  1
CB4
 11
11.62
 21
2.9699999999999998
 31
0.0
  0
TEXT
  5
123
  8
NOTES
 10
11.62
 20
5.89
 30
0.0
 40
0.3
  1
CB5
 11
11.62
 21
5.89
 31
0.0
  0
TEXT
  5
124
  8
NOTES
 10
11.62
 20
8.81
 30
0.0
 40
0.3
  1
CB6
 11
11.62
 21
8.81
 31
0.0
  0
TEXT
  5
125
  8
NOTES
 10
11.62
 20
11.785
 30
0.0
 40
0.3
  1
SC1
 11
11.62
 21
11.785
 31
0.0
  0
TEXT
  5
126
  8
NOTES
 10
11.62
 20
14.705
 30
0.0
 40
0.3
  1
SC2
 11
11.62
 21
14.705
 31
0.0
  0
TEXT
  5
127
  8
NOTES
 10
11.62
 20
17.625
 30
0.0
 40
0.3
  1
SC3
 11
11.62
 21
17.625
 31
0.0
  0
TEXT
  5
128
  8
NOTES
 10
11.62
 20
20.544999999999995
 30
0.0
 40
0.3
  1
SC4
 11
11.62
 21
20.544999999999995
 31
0.0
  0
TEXT
  5
129
  8
NOTES
 10
14.54
 20
0.10500000000000015
 30
0.0
 40
0.3
  1
SC5
 11
14.54
 21
0.10500000000000015
 31
0.0
  0
TEXT
  5
12A
  8
NOTES
 10
14.54
 20
3.0250000000000004
 30
0.0
 40
0.3
  1
SC6
 11
14.54
 21
3.0250000000000004
 31
0.0
  0
TEXT
  5
12B
  8
NOTES
 10
14.54
 20
5.945
 30
0.0
 40
0.3
  1
SC7
 11
14.54
 21
5.945
 31
0.0
  0
TEXT
  5
12C
  8
NOTES
 10
14.54
 20
8.865
 30
0.0
 40
0.3
  1
SC8
 11
14.54
 21
8.865
 31
0.0
  0
TEXT
  5
12D
  8
NOTES
 10
0.0
 20
-0.8
 30
0.0
 40
0.35
  1
B6-SBH v4.5 SHEET 3  RED 1.5in  48.5 x 97 VERTICAL (job fits the lower-left 16.2 x 24.5 corner)
 11
0.0
 21
-0.8
 31
0.0
  0
TEXT
  5
12E
  8
NOTES
 10
0.0
 20
-1.35
 30
0.0
 40
0.35
  1
STEPS x2: 2.00D x 0.50 counterbores on the TOP face as cut.
 11
0.0
 21
-1.35
 31
0.0
  0
TEXT
  5
12F
  8
NOTES
 10
0.0
 20
-1.9000000000000001
 30
0.0
 40
0.35
  1
CAPS x20: each cap area pocketed 1.00 down from the top (leaves a 0.50 cap), then profiled thru.
 11
0.0
 21
-1.9000000000000001
 31
0.0
  0
TEXT
  5
130
  8
NOTES
 10
0.0
 20
-2.45
 30
0.0
 40
0.35
  1
8 step caps 2.03D: 0.50 center circle (vector layer CAP_CENTER_0.50_VECTOR_ONLY) pocketed 3/16 deep. 12 foot caps 2.14D: back pockets.
 11
0.0
 21
-2.45
 31
0.0
  0
TEXT
  5
131
  8
NOTES
 10
0.0
 20
-3.0
 30
0.0
 40
0.35
  1
All cap pockets are in the pocketed (top-as-cut) face:
 11
0.0
 21
-3.0
 31
0.0
  0
TEXT
  5
132
  8
NOTES
 10
0.0
 20
-3.55
 30
0.0
 40
0.35
  1
install that face toward the bolt head / nut.
 11
0.0
 21
-3.55
 31
0.0
  0
ENDSEC
  0
EOF
