  0
SECTION
  2
HEADER
  9
$ACADVER
  1
AC1009
  9
$DWGCODEPAGE
  3
ANSI_1252
  9
$INSBASE
 10
0.0
 20
0.0
 30
0.0
  9
$EXTMIN
 10
1e+20
 20
1e+20
 30
1e+20
  9
$EXTMAX
 10
-1e+20
 20
-1e+20
 30
-1e+20
  9
$LIMMIN
 10
0.0
 20
0.0
  9
$LIMMAX
 10
420.0
 20
297.0
  9
$ORTHOMODE
 70
0
  9
$REGENMODE
 70
1
  9
$FILLMODE
 70
1
  9
$DRAGMODE
 70
2
  9
$QTEXTMODE
 70
0
  9
$MIRRTEXT
 70
1
  9
$OSMODE
 70
20583
  9
$LTSCALE
 40
1.0
  9
$ATTMODE
 70
1
  9
$TEXTSIZE
 40
2.5
  9
$TRACEWID
 40
1.0
  9
$TEXTSTYLE
  7
Standard
  9
$CLAYER
  8
0
  9
$CELTYPE
  6
ByLayer
  9
$CECOLOR
 62
256
  9
$DIMSCALE
 40
1.0
  9
$DIMASZ
 40
2.5
  9
$DIMEXO
 40
0.625
  9
$DIMDLI
 40
3.75
  9
$DIMRND
 40
0.0
  9
$DIMDLE
 40
0.0
  9
$DIMEXE
 40
1.25
  9
$DIMTP
 40
0.0
  9
$DIMTM
 40
0.0
  9
$DIMTXT
 40
2.5
  9
$DIMCEN
 40
2.5
  9
$DIMTSZ
 40
0.0
  9
$DIMTOL
 70
0
  9
$DIMLIM
 70
0
  9
$DIMTIH
 70
0
  9
$DIMTOH
 70
0
  9
$DIMSE1
 70
0
  9
$DIMSE2
 70
0
  9
$DIMTAD
 70
1
  9
$DIMZIN
 70
8
  9
$DIMBLK
  1

  9
$DIMASO
 70
1
  9
$DIMSHO
 70
1
  9
$DIMPOST
  1

  9
$DIMAPOST
  1

  9
$DIMALT
 70
0
  9
$DIMALTD
 70
3
  9
$DIMALTF
 40
0.03937007874
  9
$DIMLFAC
 40
1.0
  9
$DIMTOFL
 70
1
  9
$DIMTVP
 40
0.0
  9
$DIMTIX
 70
0
  9
$DIMSOXD
 70
0
  9
$DIMSAH
 70
0
  9
$DIMBLK1
  1

  9
$DIMBLK2
  1

  9
$DIMSTYLE
  2
ISO-25
  9
$DIMCLRD
 70
0
  9
$DIMCLRE
 70
0
  9
$DIMCLRT
 70
0
  9
$DIMTFAC
 40
1.0
  9
$DIMGAP
 40
0.625
  9
$COORDS
 70
1
  9
$ATTDIA
 70
0
  9
$ATTREQ
 70
1
  9
$HANDLING
 70
1
  9
$LUNITS
 70
2
  9
$LUPREC
 70
4
  9
$SKETCHINC
 40
1.0
  9
$FILLETRAD
 40
10.0
  9
$AUNITS
 70
0
  9
$AUPREC
 70
2
  9
$MENU
  1
.
  9
$ELEVATION
 40
0.0
  9
$PELEVATION
 40
0.0
  9
$THICKNESS
 40
0.0
  9
$LIMCHECK
 70
0
  9
$CHAMFERA
 40
0.0
  9
$CHAMFERB
 40
0.0
  9
$SKPOLY
 70
0
  9
$TDCREATE
 40
2461322.3302546297
  9
$TDUPDATE
 40
2461322.3302546297
  9
$TDINDWG
 40
0.0
  9
$TDUSRTIMER
 40
0.0
  9
$USRTIMER
 70
1
  9
$ANGBASE
 50
0.0
  9
$ANGDIR
 70
0
  9
$PDMODE
 70
0
  9
$PDSIZE
 40
0.0
  9
$PLINEWID
 40
0.0
  9
$SPLFRAME
 70
0
  9
$SPLINETYPE
 70
6
  9
$SPLINESEGS
 70
8
  9
$HANDSEED
  5
160
  9
$SURFTAB1
 70
6
  9
$SURFTAB2
 70
6
  9
$SURFTYPE
 70
6
  9
$SURFU
 70
6
  9
$SURFV
 70
6
  9
$UCSNAME
  2

  9
$UCSORG
 10
0.0
 20
0.0
 30
0.0
  9
$UCSXDIR
 10
1.0
 20
0.0
 30
0.0
  9
$UCSYDIR
 10
0.0
 20
1.0
 30
0.0
  9
$PUCSNAME
  2

  9
$PUCSORG
 10
0.0
 20
0.0
 30
0.0
  9
$PUCSXDIR
 10
1.0
 20
0.0
 30
0.0
  9
$PUCSYDIR
 10
0.0
 20
1.0
 30
0.0
  9
$USERI1
 70
0
  9
$USERI2
 70
0
  9
$USERI3
 70
0
  9
$USERI4
 70
0
  9
$USERI5
 70
0
  9
$USERR1
 40
0.0
  9
$USERR2
 40
0.0
  9
$USERR3
 40
0.0
  9
$USERR4
 40
0.0
  9
$USERR5
 40
0.0
  9
$WORLDVIEW
 70
1
  9
$SHADEDGE
 70
3
  9
$SHADEDIF
 70
70
  9
$TILEMODE
 70
1
  9
$MAXACTVP
 70
64
  9
$PLIMCHECK
 70
0
  9
$PEXTMIN
 10
1e+20
 20
1e+20
 30
1e+20
  9
$PEXTMAX
 10
-1e+20
 20
-1e+20
 30
-1e+20
  9
$PLIMMIN
 10
0.0
 20
0.0
  9
$PLIMMAX
 10
420.0
 20
297.0
  9
$UNITMODE
 70
0
  9
$VISRETAIN
 70
1
  9
$PLINEGEN
 70
0
  9
$PSLTSCALE
 70
1
  0
ENDSEC
  0
SECTION
  2
TABLES
  0
TABLE
  2
VPORT
 70
1
  0
VPORT
  5
23
  2
*Active
 70
0
 10
0.0
 20
0.0
 11
1.0
 21
1.0
 12
0.0
 22
0.0
 13
0.0
 23
0.0
 14
0.5
 24
0.5
 15
0.5
 25
0.5
 16
0.0
 26
0.0
 36
1.0
 17
0.0
 27
0.0
 37
0.0
 40
1000.0
 41
1.34
 42
50.0
 43
0.0
 44
0.0
 50
0.0
 51
0.0
 71
0
 72
1000
 73
1
 74
3
 75
0
 76
0
 77
0
 78
0
  0
ENDTAB
  0
TABLE
  2
LTYPE
 70
3
  0
LTYPE
  5
24
  2
ByBlock
 70
0
  3

 72
65
 73
0
 40
0.0
  0
LTYPE
  5
25
  2
ByLayer
 70
0
  3

 72
65
 73
0
 40
0.0
  0
LTYPE
  5
26
  2
Continuous
 70
0
  3

 72
65
 73
0
 40
0.0
  0
ENDTAB
  0
TABLE
  2
LAYER
 70
8
  0
LAYER
  5
27
  2
0
 70
0
 62
7
  6
Continuous
  0
LAYER
  5
28
  2
Defpoints
 70
0
 62
7
  6
Continuous
  0
LAYER
  5
2D
  2
OUTSIDE_PROFILE
 70
0
 62
7
  6
Continuous
  0
LAYER
  5
2E
  2
INSIDE_CUT
 70
0
 62
1
  6
Continuous
  0
LAYER
  5
2F
  2
DRILL_0.375_THRU
 70
0
 62
3
  6
Continuous
  0
LAYER
  5
30
  2
SHEET
 70
0
 62
8
  6
Continuous
  0
LAYER
  5
31
  2
NOTES
 70
0
 62
2
  6
Continuous
  0
LAYER
  5
32
  2
POCKET_2.06D_0.91DEEP
 70
0
 62
5
  6
Continuous
  0
ENDTAB
  0
TABLE
  2
STYLE
 70
1
  0
STYLE
  5
29
  2
Standard
 70
0
 40
0.0
 41
1.0
 50
0.0
 71
0
 42
2.5
  3
txt
  4

  0
ENDTAB
  0
TABLE
  2
VIEW
 70
0
  0
ENDTAB
  0
TABLE
  2
UCS
 70
0
  0
ENDTAB
  0
TABLE
  2
APPID
 70
3
  0
APPID
  5
2A
  2
ACAD
 70
0
  0
APPID
  5
15E
  2
HATCHBACKGROUNDCOLOR
 70
0
  0
APPID
  5
15F
  2
EZDXF
 70
0
  0
ENDTAB
  0
TABLE
  2
DIMSTYLE
 70
1
  0
DIMSTYLE
105
2B
  2
Standard
 70
0
  3

  4

  5

  6

  7

 40
1.0
 41
2.5
 42
0.625
 43
3.75
 44
1.25
 45
0.0
 46
0.0
 47
0.0
 48
0.0
140
2.5
141
2.5
142
0.0
143
0.03937007874
144
1.0
145
0.0
146
1.0
147
0.625
 71
0
 72
0
 73
0
 74
0
 75
0
 76
0
 77
1
 78
8
170
0
171
3
172
1
173
0
174
0
175
0
176
0
177
0
178
0
  0
ENDTAB
  0
ENDSEC
  0
SECTION
  2
BLOCKS
  0
BLOCK
  5
18
  8
0
  2
$Model_Space
 70
0
 10
0.0
 20
0.0
 30
0.0
  3
$Model_Space
  1

1001
EZDXF
1000
CREATED_BY_EZDXF
1000
1.4.4 @ 2026-10-08T14:55:34.878755+00:00
1000
WRITTEN_BY_EZDXF
1000
1.4.4 @ 2026-10-08T14:55:34.887236+00:00
  0
ENDBLK
  5
19
  8
0
  0
BLOCK
  5
1C
  8
0
  2
$Paper_Space
 70
0
 10
0.0
 20
0.0
 30
0.0
  3
$Paper_Space
  1

  0
ENDBLK
  5
1D
  8
0
  0
ENDSEC
  0
SECTION
  2
ENTITIES
  0
POLYLINE
  5
33
  8
SHEET
 66
1
 10
0.0
 20
0.0
 30
0.0
 70
1
  0
VERTEX
  5
35
  8
SHEET
 10
0.0
 20
0.0
 30
0.0
 70
0
  0
VERTEX
  5
36
  8
SHEET
 10
48.5
 20
0.0
 30
0.0
 70
0
  0
VERTEX
  5
37
  8
SHEET
 10
48.5
 20
97.0
 30
0.0
 70
0
  0
VERTEX
  5
38
  8
SHEET
 10
0.0
 20
97.0
 30
0.0
 70
0
  0
SEQEND
  5
34
  8
SHEET
  0
POLYLINE
  5
39
  8
OUTSIDE_PROFILE
 66
1
 10
0.0
 20
0.0
 30
0.0
 70
1
  0
VERTEX
  5
3B
  8
OUTSIDE_PROFILE
 10
35.75
 20
0.25
 30
0.0
 70
0
  0
VERTEX
  5
3C
  8
OUTSIDE_PROFILE
 10
0.25
 20
0.25
 30
0.0
 70
0
  0
VERTEX
  5
3D
  8
OUTSIDE_PROFILE
 10
0.25
 20
71.75
 30
0.0
 70
0
  0
VERTEX
  5
3E
  8
OUTSIDE_PROFILE
 10
35.75
 20
71.75
 30
0.0
 70
0
  0
SEQEND
  5
3A
  8
OUTSIDE_PROFILE
  0
CIRCLE
  5
3F
  8
DRILL_0.375_THRU
 10
31.75
 20
52.7798
 30
0.0
 40
0.1875
  0
CIRCLE
  5
40
  8
DRILL_0.375_THRU
 10
18.0
 20
52.7798
 30
0.0
 40
0.1875
  0
CIRCLE
  5
41
  8
DRILL_0.375_THRU
 10
4.25
 20
52.7798
 30
0.0
 40
0.1875
  0
CIRCLE
  5
42
  8
DRILL_0.375_THRU
 10
31.75
 20
6.75
 30
0.0
 40
0.1875
  0
CIRCLE
  5
43
  8
DRILL_0.375_THRU
 10
18.0
 20
6.75
 30
0.0
 40
0.1875
  0
CIRCLE
  5
44
  8
DRILL_0.375_THRU
 10
4.25
 20
6.75
 30
0.0
 40
0.1875
  0
POLYLINE
  5
45
  8
INSIDE_CUT
 66
1
 10
0.0
 20
0.0
 30
0.0
 70
1
  0
VERTEX
  5
47
  8
INSIDE_CUT
 10
26.9677
 20
66.5948
 30
0.0
 70
0
  0
VERTEX
  5
48
  8
INSIDE_CUT
 10
27.037
 20
66.6196
 30
0.0
 70
0
  0
VERTEX
  5
49
  8
INSIDE_CUT
 10
27.1035
 20
66.6511
 30
0.0
 70
0
  0
VERTEX
  5
4A
  8
INSIDE_CUT
 10
27.1667
 20
66.6889
 30
0.0
 70
0
  0
VERTEX
  5
4B
  8
INSIDE_CUT
 10
27.2258
 20
66.7327
 30
0.0
 70
0
  0
VERTEX
  5
4C
  8
INSIDE_CUT
 10
27.2803
 20
66.7822
 30
0.0
 70
0
  0
VERTEX
  5
4D
  8
INSIDE_CUT
 10
27.3298
 20
66.8367
 30
0.0
 70
0
  0
VERTEX
  5
4E
  8
INSIDE_CUT
 10
27.3736
 20
66.8958
 30
0.0
 70
0
  0
VERTEX
  5
4F
  8
INSIDE_CUT
 10
27.4114
 20
66.959
 30
0.0
 70
0
  0
VERTEX
  5
50
  8
INSIDE_CUT
 10
27.4429
 20
67.0255
 30
0.0
 70
0
  0
VERTEX
  5
51
  8
INSIDE_CUT
 10
27.4677
 20
67.0948
 30
0.0
 70
0
  0
VERTEX
  5
52
  8
INSIDE_CUT
 10
27.485599999999998
 20
67.1662
 30
0.0
 70
0
  0
VERTEX
  5
53
  8
INSIDE_CUT
 10
27.4964
 20
67.239
 30
0.0
 70
0
  0
VERTEX
  5
54
  8
INSIDE_CUT
 10
27.5
 20
67.3125
 30
0.0
 70
0
  0
VERTEX
  5
55
  8
INSIDE_CUT
 10
27.4964
 20
67.386
 30
0.0
 70
0
  0
VERTEX
  5
56
  8
INSIDE_CUT
 10
27.485599999999998
 20
67.4588
 30
0.0
 70
0
  0
VERTEX
  5
57
  8
INSIDE_CUT
 10
27.4677
 20
67.5302
 30
0.0
 70
0
  0
VERTEX
  5
58
  8
INSIDE_CUT
 10
27.4429
 20
67.5995
 30
0.0
 70
0
  0
VERTEX
  5
59
  8
INSIDE_CUT
 10
27.4114
 20
67.666
 30
0.0
 70
0
  0
VERTEX
  5
5A
  8
INSIDE_CUT
 10
27.3736
 20
67.7292
 30
0.0
 70
0
  0
VERTEX
  5
5B
  8
INSIDE_CUT
 10
27.3298
 20
67.7883
 30
0.0
 70
0
  0
VERTEX
  5
5C
  8
INSIDE_CUT
 10
27.2803
 20
67.8428
 30
0.0
 70
0
  0
VERTEX
  5
5D
  8
INSIDE_CUT
 10
27.2258
 20
67.8923
 30
0.0
 70
0
  0
VERTEX
  5
5E
  8
INSIDE_CUT
 10
27.1667
 20
67.9361
 30
0.0
 70
0
  0
VERTEX
  5
5F
  8
INSIDE_CUT
 10
27.1035
 20
67.9739
 30
0.0
 70
0
  0
VERTEX
  5
60
  8
INSIDE_CUT
 10
27.037
 20
68.0054
 30
0.0
 70
0
  0
VERTEX
  5
61
  8
INSIDE_CUT
 10
26.9677
 20
68.0302
 30
0.0
 70
0
  0
VERTEX
  5
62
  8
INSIDE_CUT
 10
26.8963
 20
68.0481
 30
0.0
 70
0
  0
VERTEX
  5
63
  8
INSIDE_CUT
 10
26.8235
 20
68.0589
 30
0.0
 70
0
  0
VERTEX
  5
64
  8
INSIDE_CUT
 10
26.75
 20
68.0625
 30
0.0
 70
0
  0
VERTEX
  5
65
  8
INSIDE_CUT
 10
23.25
 20
68.0625
 30
0.0
 70
0
  0
VERTEX
  5
66
  8
INSIDE_CUT
 10
23.1765
 20
68.0589
 30
0.0
 70
0
  0
VERTEX
  5
67
  8
INSIDE_CUT
 10
23.1037
 20
68.0481
 30
0.0
 70
0
  0
VERTEX
  5
68
  8
INSIDE_CUT
 10
23.0323
 20
68.0302
 30
0.0
 70
0
  0
VERTEX
  5
69
  8
INSIDE_CUT
 10
22.963
 20
68.0054
 30
0.0
 70
0
  0
VERTEX
  5
6A
  8
INSIDE_CUT
 10
22.8965
 20
67.9739
 30
0.0
 70
0
  0
VERTEX
  5
6B
  8
INSIDE_CUT
 10
22.8333
 20
67.9361
 30
0.0
 70
0
  0
VERTEX
  5
6C
  8
INSIDE_CUT
 10
22.7742
 20
67.8923
 30
0.0
 70
0
  0
VERTEX
  5
6D
  8
INSIDE_CUT
 10
22.7197
 20
67.8428
 30
0.0
 70
0
  0
VERTEX
  5
6E
  8
INSIDE_CUT
 10
22.6702
 20
67.7883
 30
0.0
 70
0
  0
VERTEX
  5
6F
  8
INSIDE_CUT
 10
22.6264
 20
67.7292
 30
0.0
 70
0
  0
VERTEX
  5
70
  8
INSIDE_CUT
 10
22.5886
 20
67.666
 30
0.0
 70
0
  0
VERTEX
  5
71
  8
INSIDE_CUT
 10
22.5571
 20
67.5995
 30
0.0
 70
0
  0
VERTEX
  5
72
  8
INSIDE_CUT
 10
22.5323
 20
67.5302
 30
0.0
 70
0
  0
VERTEX
  5
73
  8
INSIDE_CUT
 10
22.514400000000002
 20
67.4588
 30
0.0
 70
0
  0
VERTEX
  5
74
  8
INSIDE_CUT
 10
22.5036
 20
67.386
 30
0.0
 70
0
  0
VERTEX
  5
75
  8
INSIDE_CUT
 10
22.5
 20
67.3125
 30
0.0
 70
0
  0
VERTEX
  5
76
  8
INSIDE_CUT
 10
22.5036
 20
67.239
 30
0.0
 70
0
  0
VERTEX
  5
77
  8
INSIDE_CUT
 10
22.514400000000002
 20
67.1662
 30
0.0
 70
0
  0
VERTEX
  5
78
  8
INSIDE_CUT
 10
22.5323
 20
67.0948
 30
0.0
 70
0
  0
VERTEX
  5
79
  8
INSIDE_CUT
 10
22.5571
 20
67.0255
 30
0.0
 70
0
  0
VERTEX
  5
7A
  8
INSIDE_CUT
 10
22.5886
 20
66.959
 30
0.0
 70
0
  0
VERTEX
  5
7B
  8
INSIDE_CUT
 10
22.6264
 20
66.8958
 30
0.0
 70
0
  0
VERTEX
  5
7C
  8
INSIDE_CUT
 10
22.6702
 20
66.8367
 30
0.0
 70
0
  0
VERTEX
  5
7D
  8
INSIDE_CUT
 10
22.7197
 20
66.7822
 30
0.0
 70
0
  0
VERTEX
  5
7E
  8
INSIDE_CUT
 10
22.7742
 20
66.7327
 30
0.0
 70
0
  0
VERTEX
  5
7F
  8
INSIDE_CUT
 10
22.8333
 20
66.6889
 30
0.0
 70
0
  0
VERTEX
  5
80
  8
INSIDE_CUT
 10
22.8965
 20
66.6511
 30
0.0
 70
0
  0
VERTEX
  5
81
  8
INSIDE_CUT
 10
22.963
 20
66.6196
 30
0.0
 70
0
  0
VERTEX
  5
82
  8
INSIDE_CUT
 10
23.0323
 20
66.5948
 30
0.0
 70
0
  0
VERTEX
  5
83
  8
INSIDE_CUT
 10
23.1037
 20
66.5769
 30
0.0
 70
0
  0
VERTEX
  5
84
  8
INSIDE_CUT
 10
23.1765
 20
66.5661
 30
0.0
 70
0
  0
VERTEX
  5
85
  8
INSIDE_CUT
 10
23.25
 20
66.5625
 30
0.0
 70
0
  0
VERTEX
  5
86
  8
INSIDE_CUT
 10
26.75
 20
66.5625
 30
0.0
 70
0
  0
VERTEX
  5
87
  8
INSIDE_CUT
 10
26.8235
 20
66.5661
 30
0.0
 70
0
  0
VERTEX
  5
88
  8
INSIDE_CUT
 10
26.8963
 20
66.5769
 30
0.0
 70
0
  0
SEQEND
  5
46
  8
INSIDE_CUT
  0
POLYLINE
  5
89
  8
INSIDE_CUT
 66
1
 10
0.0
 20
0.0
 30
0.0
 70
1
  0
VERTEX
  5
8B
  8
INSIDE_CUT
 10
12.8963
 20
66.5769
 30
0.0
 70
0
  0
VERTEX
  5
8C
  8
INSIDE_CUT
 10
12.9677
 20
66.5948
 30
0.0
 70
0
  0
VERTEX
  5
8D
  8
INSIDE_CUT
 10
13.036999999999999
 20
66.6196
 30
0.0
 70
0
  0
VERTEX
  5
8E
  8
INSIDE_CUT
 10
13.1035
 20
66.6511
 30
0.0
 70
0
  0
VERTEX
  5
8F
  8
INSIDE_CUT
 10
13.166699999999999
 20
66.6889
 30
0.0
 70
0
  0
VERTEX
  5
90
  8
INSIDE_CUT
 10
13.2258
 20
66.7327
 30
0.0
 70
0
  0
VERTEX
  5
91
  8
INSIDE_CUT
 10
13.2803
 20
66.7822
 30
0.0
 70
0
  0
VERTEX
  5
92
  8
INSIDE_CUT
 10
13.329799999999999
 20
66.8367
 30
0.0
 70
0
  0
VERTEX
  5
93
  8
INSIDE_CUT
 10
13.3736
 20
66.8958
 30
0.0
 70
0
  0
VERTEX
  5
94
  8
INSIDE_CUT
 10
13.4114
 20
66.959
 30
0.0
 70
0
  0
VERTEX
  5
95
  8
INSIDE_CUT
 10
13.442900000000002
 20
67.0255
 30
0.0
 70
0
  0
VERTEX
  5
96
  8
INSIDE_CUT
 10
13.4677
 20
67.0948
 30
0.0
 70
0
  0
VERTEX
  5
97
  8
INSIDE_CUT
 10
13.485600000000002
 20
67.1662
 30
0.0
 70
0
  0
VERTEX
  5
98
  8
INSIDE_CUT
 10
13.496400000000001
 20
67.239
 30
0.0
 70
0
  0
VERTEX
  5
99
  8
INSIDE_CUT
 10
13.5
 20
67.3125
 30
0.0
 70
0
  0
VERTEX
  5
9A
  8
INSIDE_CUT
 10
13.496400000000001
 20
67.386
 30
0.0
 70
0
  0
VERTEX
  5
9B
  8
INSIDE_CUT
 10
13.485600000000002
 20
67.4588
 30
0.0
 70
0
  0
VERTEX
  5
9C
  8
INSIDE_CUT
 10
13.4677
 20
67.5302
 30
0.0
 70
0
  0
VERTEX
  5
9D
  8
INSIDE_CUT
 10
13.442900000000002
 20
67.5995
 30
0.0
 70
0
  0
VERTEX
  5
9E
  8
INSIDE_CUT
 10
13.4114
 20
67.666
 30
0.0
 70
0
  0
VERTEX
  5
9F
  8
INSIDE_CUT
 10
13.3736
 20
67.7292
 30
0.0
 70
0
  0
VERTEX
  5
A0
  8
INSIDE_CUT
 10
13.329799999999999
 20
67.7883
 30
0.0
 70
0
  0
VERTEX
  5
A1
  8
INSIDE_CUT
 10
13.2803
 20
67.8428
 30
0.0
 70
0
  0
VERTEX
  5
A2
  8
INSIDE_CUT
 10
13.2258
 20
67.8923
 30
0.0
 70
0
  0
VERTEX
  5
A3
  8
INSIDE_CUT
 10
13.166699999999999
 20
67.9361
 30
0.0
 70
0
  0
VERTEX
  5
A4
  8
INSIDE_CUT
 10
13.1035
 20
67.9739
 30
0.0
 70
0
  0
VERTEX
  5
A5
  8
INSIDE_CUT
 10
13.036999999999999
 20
68.0054
 30
0.0
 70
0
  0
VERTEX
  5
A6
  8
INSIDE_CUT
 10
12.9677
 20
68.0302
 30
0.0
 70
0
  0
VERTEX
  5
A7
  8
INSIDE_CUT
 10
12.8963
 20
68.0481
 30
0.0
 70
0
  0
VERTEX
  5
A8
  8
INSIDE_CUT
 10
12.8235
 20
68.0589
 30
0.0
 70
0
  0
VERTEX
  5
A9
  8
INSIDE_CUT
 10
12.75
 20
68.0625
 30
0.0
 70
0
  0
VERTEX
  5
AA
  8
INSIDE_CUT
 10
9.25
 20
68.0625
 30
0.0
 70
0
  0
VERTEX
  5
AB
  8
INSIDE_CUT
 10
9.1765
 20
68.0589
 30
0.0
 70
0
  0
VERTEX
  5
AC
  8
INSIDE_CUT
 10
9.1037
 20
68.0481
 30
0.0
 70
0
  0
VERTEX
  5
AD
  8
INSIDE_CUT
 10
9.0323
 20
68.0302
 30
0.0
 70
0
  0
VERTEX
  5
AE
  8
INSIDE_CUT
 10
8.963000000000001
 20
68.0054
 30
0.0
 70
0
  0
VERTEX
  5
AF
  8
INSIDE_CUT
 10
8.8965
 20
67.9739
 30
0.0
 70
0
  0
VERTEX
  5
B0
  8
INSIDE_CUT
 10
8.833300000000001
 20
67.9361
 30
0.0
 70
0
  0
VERTEX
  5
B1
  8
INSIDE_CUT
 10
8.7742
 20
67.8923
 30
0.0
 70
0
  0
VERTEX
  5
B2
  8
INSIDE_CUT
 10
8.7197
 20
67.8428
 30
0.0
 70
0
  0
VERTEX
  5
B3
  8
INSIDE_CUT
 10
8.670200000000001
 20
67.7883
 30
0.0
 70
0
  0
VERTEX
  5
B4
  8
INSIDE_CUT
 10
8.6264
 20
67.7292
 30
0.0
 70
0
  0
VERTEX
  5
B5
  8
INSIDE_CUT
 10
8.5886
 20
67.666
 30
0.0
 70
0
  0
VERTEX
  5
B6
  8
INSIDE_CUT
 10
8.557099999999998
 20
67.5995
 30
0.0
 70
0
  0
VERTEX
  5
B7
  8
INSIDE_CUT
 10
8.5323
 20
67.5302
 30
0.0
 70
0
  0
VERTEX
  5
B8
  8
INSIDE_CUT
 10
8.514399999999998
 20
67.4588
 30
0.0
 70
0
  0
VERTEX
  5
B9
  8
INSIDE_CUT
 10
8.503599999999999
 20
67.386
 30
0.0
 70
0
  0
VERTEX
  5
BA
  8
INSIDE_CUT
 10
8.5
 20
67.3125
 30
0.0
 70
0
  0
VERTEX
  5
BB
  8
INSIDE_CUT
 10
8.503599999999999
 20
67.239
 30
0.0
 70
0
  0
VERTEX
  5
BC
  8
INSIDE_CUT
 10
8.514399999999998
 20
67.1662
 30
0.0
 70
0
  0
VERTEX
  5
BD
  8
INSIDE_CUT
 10
8.5323
 20
67.0948
 30
0.0
 70
0
  0
VERTEX
  5
BE
  8
INSIDE_CUT
 10
8.557099999999998
 20
67.0255
 30
0.0
 70
0
  0
VERTEX
  5
BF
  8
INSIDE_CUT
 10
8.5886
 20
66.959
 30
0.0
 70
0
  0
VERTEX
  5
C0
  8
INSIDE_CUT
 10
8.6264
 20
66.8958
 30
0.0
 70
0
  0
VERTEX
  5
C1
  8
INSIDE_CUT
 10
8.670200000000001
 20
66.8367
 30
0.0
 70
0
  0
VERTEX
  5
C2
  8
INSIDE_CUT
 10
8.7197
 20
66.7822
 30
0.0
 70
0
  0
VERTEX
  5
C3
  8
INSIDE_CUT
 10
8.7742
 20
66.7327
 30
0.0
 70
0
  0
VERTEX
  5
C4
  8
INSIDE_CUT
 10
8.833300000000001
 20
66.6889
 30
0.0
 70
0
  0
VERTEX
  5
C5
  8
INSIDE_CUT
 10
8.8965
 20
66.6511
 30
0.0
 70
0
  0
VERTEX
  5
C6
  8
INSIDE_CUT
 10
8.963000000000001
 20
66.6196
 30
0.0
 70
0
  0
VERTEX
  5
C7
  8
INSIDE_CUT
 10
9.0323
 20
66.5948
 30
0.0
 70
0
  0
VERTEX
  5
C8
  8
INSIDE_CUT
 10
9.1037
 20
66.5769
 30
0.0
 70
0
  0
VERTEX
  5
C9
  8
INSIDE_CUT
 10
9.1765
 20
66.5661
 30
0.0
 70
0
  0
VERTEX
  5
CA
  8
INSIDE_CUT
 10
9.25
 20
66.5625
 30
0.0
 70
0
  0
VERTEX
  5
CB
  8
INSIDE_CUT
 10
12.75
 20
66.5625
 30
0.0
 70
0
  0
VERTEX
  5
CC
  8
INSIDE_CUT
 10
12.8235
 20
66.5661
 30
0.0
 70
0
  0
SEQEND
  5
8A
  8
INSIDE_CUT
  0
POLYLINE
  5
CD
  8
INSIDE_CUT
 66
1
 10
0.0
 20
0.0
 30
0.0
 70
1
  0
VERTEX
  5
CF
  8
INSIDE_CUT
 10
26.8235
 20
59.8161
 30
0.0
 70
0
  0
VERTEX
  5
D0
  8
INSIDE_CUT
 10
26.8963
 20
59.8269
 30
0.0
 70
0
  0
VERTEX
  5
D1
  8
INSIDE_CUT
 10
26.9677
 20
59.8448
 30
0.0
 70
0
  0
VERTEX
  5
D2
  8
INSIDE_CUT
 10
27.037
 20
59.8696
 30
0.0
 70
0
  0
VERTEX
  5
D3
  8
INSIDE_CUT
 10
27.1035
 20
59.9011
 30
0.0
 70
0
  0
VERTEX
  5
D4
  8
INSIDE_CUT
 10
27.1667
 20
59.9389
 30
0.0
 70
0
  0
VERTEX
  5
D5
  8
INSIDE_CUT
 10
27.2258
 20
59.9827
 30
0.0
 70
0
  0
VERTEX
  5
D6
  8
INSIDE_CUT
 10
27.2803
 20
60.0322
 30
0.0
 70
0
  0
VERTEX
  5
D7
  8
INSIDE_CUT
 10
27.3298
 20
60.0867
 30
0.0
 70
0
  0
VERTEX
  5
D8
  8
INSIDE_CUT
 10
27.3736
 20
60.1458
 30
0.0
 70
0
  0
VERTEX
  5
D9
  8
INSIDE_CUT
 10
27.4114
 20
60.209
 30
0.0
 70
0
  0
VERTEX
  5
DA
  8
INSIDE_CUT
 10
27.4429
 20
60.2755
 30
0.0
 70
0
  0
VERTEX
  5
DB
  8
INSIDE_CUT
 10
27.4677
 20
60.3448
 30
0.0
 70
0
  0
VERTEX
  5
DC
  8
INSIDE_CUT
 10
27.485599999999998
 20
60.4162
 30
0.0
 70
0
  0
VERTEX
  5
DD
  8
INSIDE_CUT
 10
27.4964
 20
60.489
 30
0.0
 70
0
  0
VERTEX
  5
DE
  8
INSIDE_CUT
 10
27.5
 20
60.5625
 30
0.0
 70
0
  0
VERTEX
  5
DF
  8
INSIDE_CUT
 10
27.4964
 20
60.636
 30
0.0
 70
0
  0
VERTEX
  5
E0
  8
INSIDE_CUT
 10
27.485599999999998
 20
60.7088
 30
0.0
 70
0
  0
VERTEX
  5
E1
  8
INSIDE_CUT
 10
27.4677
 20
60.7802
 30
0.0
 70
0
  0
VERTEX
  5
E2
  8
INSIDE_CUT
 10
27.4429
 20
60.8495
 30
0.0
 70
0
  0
VERTEX
  5
E3
  8
INSIDE_CUT
 10
27.4114
 20
60.916
 30
0.0
 70
0
  0
VERTEX
  5
E4
  8
INSIDE_CUT
 10
27.3736
 20
60.9792
 30
0.0
 70
0
  0
VERTEX
  5
E5
  8
INSIDE_CUT
 10
27.3298
 20
61.0383
 30
0.0
 70
0
  0
VERTEX
  5
E6
  8
INSIDE_CUT
 10
27.2803
 20
61.0928
 30
0.0
 70
0
  0
VERTEX
  5
E7
  8
INSIDE_CUT
 10
27.2258
 20
61.1423
 30
0.0
 70
0
  0
VERTEX
  5
E8
  8
INSIDE_CUT
 10
27.1667
 20
61.1861
 30
0.0
 70
0
  0
VERTEX
  5
E9
  8
INSIDE_CUT
 10
27.1035
 20
61.2239
 30
0.0
 70
0
  0
VERTEX
  5
EA
  8
INSIDE_CUT
 10
27.037
 20
61.2554
 30
0.0
 70
0
  0
VERTEX
  5
EB
  8
INSIDE_CUT
 10
26.9677
 20
61.2802
 30
0.0
 70
0
  0
VERTEX
  5
EC
  8
INSIDE_CUT
 10
26.8963
 20
61.2981
 30
0.0
 70
0
  0
VERTEX
  5
ED
  8
INSIDE_CUT
 10
26.8235
 20
61.3089
 30
0.0
 70
0
  0
VERTEX
  5
EE
  8
INSIDE_CUT
 10
26.75
 20
61.3125
 30
0.0
 70
0
  0
VERTEX
  5
EF
  8
INSIDE_CUT
 10
23.25
 20
61.3125
 30
0.0
 70
0
  0
VERTEX
  5
F0
  8
INSIDE_CUT
 10
23.1765
 20
61.3089
 30
0.0
 70
0
  0
VERTEX
  5
F1
  8
INSIDE_CUT
 10
23.1037
 20
61.2981
 30
0.0
 70
0
  0
VERTEX
  5
F2
  8
INSIDE_CUT
 10
23.0323
 20
61.2802
 30
0.0
 70
0
  0
VERTEX
  5
F3
  8
INSIDE_CUT
 10
22.963
 20
61.2554
 30
0.0
 70
0
  0
VERTEX
  5
F4
  8
INSIDE_CUT
 10
22.8965
 20
61.2239
 30
0.0
 70
0
  0
VERTEX
  5
F5
  8
INSIDE_CUT
 10
22.8333
 20
61.1861
 30
0.0
 70
0
  0
VERTEX
  5
F6
  8
INSIDE_CUT
 10
22.7742
 20
61.1423
 30
0.0
 70
0
  0
VERTEX
  5
F7
  8
INSIDE_CUT
 10
22.7197
 20
61.0928
 30
0.0
 70
0
  0
VERTEX
  5
F8
  8
INSIDE_CUT
 10
22.6702
 20
61.0383
 30
0.0
 70
0
  0
VERTEX
  5
F9
  8
INSIDE_CUT
 10
22.6264
 20
60.9792
 30
0.0
 70
0
  0
VERTEX
  5
FA
  8
INSIDE_CUT
 10
22.5886
 20
60.916
 30
0.0
 70
0
  0
VERTEX
  5
FB
  8
INSIDE_CUT
 10
22.5571
 20
60.8495
 30
0.0
 70
0
  0
VERTEX
  5
FC
  8
INSIDE_CUT
 10
22.5323
 20
60.7802
 30
0.0
 70
0
  0
VERTEX
  5
FD
  8
INSIDE_CUT
 10
22.514400000000002
 20
60.7088
 30
0.0
 70
0
  0
VERTEX
  5
FE
  8
INSIDE_CUT
 10
22.5036
 20
60.636
 30
0.0
 70
0
  0
VERTEX
  5
FF
  8
INSIDE_CUT
 10
22.5
 20
60.5625
 30
0.0
 70
0
  0
VERTEX
  5
100
  8
INSIDE_CUT
 10
22.5036
 20
60.489
 30
0.0
 70
0
  0
VERTEX
  5
101
  8
INSIDE_CUT
 10
22.514400000000002
 20
60.4162
 30
0.0
 70
0
  0
VERTEX
  5
102
  8
INSIDE_CUT
 10
22.5323
 20
60.3448
 30
0.0
 70
0
  0
VERTEX
  5
103
  8
INSIDE_CUT
 10
22.5571
 20
60.2755
 30
0.0
 70
0
  0
VERTEX
  5
104
  8
INSIDE_CUT
 10
22.5886
 20
60.209
 30
0.0
 70
0
  0
VERTEX
  5
105
  8
INSIDE_CUT
 10
22.6264
 20
60.1458
 30
0.0
 70
0
  0
VERTEX
  5
106
  8
INSIDE_CUT
 10
22.6702
 20
60.0867
 30
0.0
 70
0
  0
VERTEX
  5
107
  8
INSIDE_CUT
 10
22.7197
 20
60.0322
 30
0.0
 70
0
  0
VERTEX
  5
108
  8
INSIDE_CUT
 10
22.7742
 20
59.9827
 30
0.0
 70
0
  0
VERTEX
  5
109
  8
INSIDE_CUT
 10
22.8333
 20
59.9389
 30
0.0
 70
0
  0
VERTEX
  5
10A
  8
INSIDE_CUT
 10
22.8965
 20
59.9011
 30
0.0
 70
0
  0
VERTEX
  5
10B
  8
INSIDE_CUT
 10
22.963
 20
59.8696
 30
0.0
 70
0
  0
VERTEX
  5
10C
  8
INSIDE_CUT
 10
23.0323
 20
59.8448
 30
0.0
 70
0
  0
VERTEX
  5
10D
  8
INSIDE_CUT
 10
23.1037
 20
59.8269
 30
0.0
 70
0
  0
VERTEX
  5
10E
  8
INSIDE_CUT
 10
23.1765
 20
59.8161
 30
0.0
 70
0
  0
VERTEX
  5
10F
  8
INSIDE_CUT
 10
23.25
 20
59.8125
 30
0.0
 70
0
  0
VERTEX
  5
110
  8
INSIDE_CUT
 10
26.75
 20
59.8125
 30
0.0
 70
0
  0
SEQEND
  5
CE
  8
INSIDE_CUT
  0
POLYLINE
  5
111
  8
INSIDE_CUT
 66
1
 10
0.0
 20
0.0
 30
0.0
 70
1
  0
VERTEX
  5
113
  8
INSIDE_CUT
 10
12.75
 20
59.8125
 30
0.0
 70
0
  0
VERTEX
  5
114
  8
INSIDE_CUT
 10
12.8235
 20
59.8161
 30
0.0
 70
0
  0
VERTEX
  5
115
  8
INSIDE_CUT
 10
12.8963
 20
59.8269
 30
0.0
 70
0
  0
VERTEX
  5
116
  8
INSIDE_CUT
 10
12.9677
 20
59.8448
 30
0.0
 70
0
  0
VERTEX
  5
117
  8
INSIDE_CUT
 10
13.036999999999999
 20
59.8696
 30
0.0
 70
0
  0
VERTEX
  5
118
  8
INSIDE_CUT
 10
13.1035
 20
59.9011
 30
0.0
 70
0
  0
VERTEX
  5
119
  8
INSIDE_CUT
 10
13.166699999999999
 20
59.9389
 30
0.0
 70
0
  0
VERTEX
  5
11A
  8
INSIDE_CUT
 10
13.2258
 20
59.9827
 30
0.0
 70
0
  0
VERTEX
  5
11B
  8
INSIDE_CUT
 10
13.2803
 20
60.0322
 30
0.0
 70
0
  0
VERTEX
  5
11C
  8
INSIDE_CUT
 10
13.329799999999999
 20
60.0867
 30
0.0
 70
0
  0
VERTEX
  5
11D
  8
INSIDE_CUT
 10
13.3736
 20
60.1458
 30
0.0
 70
0
  0
VERTEX
  5
11E
  8
INSIDE_CUT
 10
13.4114
 20
60.209
 30
0.0
 70
0
  0
VERTEX
  5
11F
  8
INSIDE_CUT
 10
13.442900000000002
 20
60.2755
 30
0.0
 70
0
  0
VERTEX
  5
120
  8
INSIDE_CUT
 10
13.4677
 20
60.3448
 30
0.0
 70
0
  0
VERTEX
  5
121
  8
INSIDE_CUT
 10
13.485600000000002
 20
60.4162
 30
0.0
 70
0
  0
VERTEX
  5
122
  8
INSIDE_CUT
 10
13.496400000000001
 20
60.489
 30
0.0
 70
0
  0
VERTEX
  5
123
  8
INSIDE_CUT
 10
13.5
 20
60.5625
 30
0.0
 70
0
  0
VERTEX
  5
124
  8
INSIDE_CUT
 10
13.496400000000001
 20
60.636
 30
0.0
 70
0
  0
VERTEX
  5
125
  8
INSIDE_CUT
 10
13.485600000000002
 20
60.7088
 30
0.0
 70
0
  0
VERTEX
  5
126
  8
INSIDE_CUT
 10
13.4677
 20
60.7802
 30
0.0
 70
0
  0
VERTEX
  5
127
  8
INSIDE_CUT
 10
13.442900000000002
 20
60.8495
 30
0.0
 70
0
  0
VERTEX
  5
128
  8
INSIDE_CUT
 10
13.4114
 20
60.916
 30
0.0
 70
0
  0
VERTEX
  5
129
  8
INSIDE_CUT
 10
13.3736
 20
60.9792
 30
0.0
 70
0
  0
VERTEX
  5
12A
  8
INSIDE_CUT
 10
13.329799999999999
 20
61.0383
 30
0.0
 70
0
  0
VERTEX
  5
12B
  8
INSIDE_CUT
 10
13.2803
 20
61.0928
 30
0.0
 70
0
  0
VERTEX
  5
12C
  8
INSIDE_CUT
 10
13.2258
 20
61.1423
 30
0.0
 70
0
  0
VERTEX
  5
12D
  8
INSIDE_CUT
 10
13.166699999999999
 20
61.1861
 30
0.0
 70
0
  0
VERTEX
  5
12E
  8
INSIDE_CUT
 10
13.1035
 20
61.2239
 30
0.0
 70
0
  0
VERTEX
  5
12F
  8
INSIDE_CUT
 10
13.036999999999999
 20
61.2554
 30
0.0
 70
0
  0
VERTEX
  5
130
  8
INSIDE_CUT
 10
12.9677
 20
61.2802
 30
0.0
 70
0
  0
VERTEX
  5
131
  8
INSIDE_CUT
 10
12.8963
 20
61.2981
 30
0.0
 70
0
  0
VERTEX
  5
132
  8
INSIDE_CUT
 10
12.8235
 20
61.3089
 30
0.0
 70
0
  0
VERTEX
  5
133
  8
INSIDE_CUT
 10
12.75
 20
61.3125
 30
0.0
 70
0
  0
VERTEX
  5
134
  8
INSIDE_CUT
 10
9.25
 20
61.3125
 30
0.0
 70
0
  0
VERTEX
  5
135
  8
INSIDE_CUT
 10
9.1765
 20
61.3089
 30
0.0
 70
0
  0
VERTEX
  5
136
  8
INSIDE_CUT
 10
9.1037
 20
61.2981
 30
0.0
 70
0
  0
VERTEX
  5
137
  8
INSIDE_CUT
 10
9.0323
 20
61.2802
 30
0.0
 70
0
  0
VERTEX
  5
138
  8
INSIDE_CUT
 10
8.963000000000001
 20
61.2554
 30
0.0
 70
0
  0
VERTEX
  5
139
  8
INSIDE_CUT
 10
8.8965
 20
61.2239
 30
0.0
 70
0
  0
VERTEX
  5
13A
  8
INSIDE_CUT
 10
8.833300000000001
 20
61.1861
 30
0.0
 70
0
  0
VERTEX
  5
13B
  8
INSIDE_CUT
 10
8.7742
 20
61.1423
 30
0.0
 70
0
  0
VERTEX
  5
13C
  8
INSIDE_CUT
 10
8.7197
 20
61.0928
 30
0.0
 70
0
  0
VERTEX
  5
13D
  8
INSIDE_CUT
 10
8.670200000000001
 20
61.0383
 30
0.0
 70
0
  0
VERTEX
  5
13E
  8
INSIDE_CUT
 10
8.6264
 20
60.9792
 30
0.0
 70
0
  0
VERTEX
  5
13F
  8
INSIDE_CUT
 10
8.5886
 20
60.916
 30
0.0
 70
0
  0
VERTEX
  5
140
  8
INSIDE_CUT
 10
8.557099999999998
 20
60.8495
 30
0.0
 70
0
  0
VERTEX
  5
141
  8
INSIDE_CUT
 10
8.5323
 20
60.7802
 30
0.0
 70
0
  0
VERTEX
  5
142
  8
INSIDE_CUT
 10
8.514399999999998
 20
60.7088
 30
0.0
 70
0
  0
VERTEX
  5
143
  8
INSIDE_CUT
 10
8.503599999999999
 20
60.636
 30
0.0
 70
0
  0
VERTEX
  5
144
  8
INSIDE_CUT
 10
8.5
 20
60.5625
 30
0.0
 70
0
  0
VERTEX
  5
145
  8
INSIDE_CUT
 10
8.503599999999999
 20
60.489
 30
0.0
 70
0
  0
VERTEX
  5
146
  8
INSIDE_CUT
 10
8.514399999999998
 20
60.4162
 30
0.0
 70
0
  0
VERTEX
  5
147
  8
INSIDE_CUT
 10
8.5323
 20
60.3448
 30
0.0
 70
0
  0
VERTEX
  5
148
  8
INSIDE_CUT
 10
8.557099999999998
 20
60.2755
 30
0.0
 70
0
  0
VERTEX
  5
149
  8
INSIDE_CUT
 10
8.5886
 20
60.209
 30
0.0
 70
0
  0
VERTEX
  5
14A
  8
INSIDE_CUT
 10
8.6264
 20
60.1458
 30
0.0
 70
0
  0
VERTEX
  5
14B
  8
INSIDE_CUT
 10
8.670200000000001
 20
60.0867
 30
0.0
 70
0
  0
VERTEX
  5
14C
  8
INSIDE_CUT
 10
8.7197
 20
60.0322
 30
0.0
 70
0
  0
VERTEX
  5
14D
  8
INSIDE_CUT
 10
8.7742
 20
59.9827
 30
0.0
 70
0
  0
VERTEX
  5
14E
  8
INSIDE_CUT
 10
8.833300000000001
 20
59.9389
 30
0.0
 70
0
  0
VERTEX
  5
14F
  8
INSIDE_CUT
 10
8.8965
 20
59.9011
 30
0.0
 70
0
  0
VERTEX
  5
150
  8
INSIDE_CUT
 10
8.963000000000001
 20
59.8696
 30
0.0
 70
0
  0
VERTEX
  5
151
  8
INSIDE_CUT
 10
9.0323
 20
59.8448
 30
0.0
 70
0
  0
VERTEX
  5
152
  8
INSIDE_CUT
 10
9.1037
 20
59.8269
 30
0.0
 70
0
  0
VERTEX
  5
153
  8
INSIDE_CUT
 10
9.1765
 20
59.8161
 30
0.0
 70
0
  0
VERTEX
  5
154
  8
INSIDE_CUT
 10
9.25
 20
59.8125
 30
0.0
 70
0
  0
SEQEND
  5
112
  8
INSIDE_CUT
  0
CIRCLE
  5
155
  8
POCKET_2.06D_0.91DEEP
 10
31.75
 20
52.7798
 30
0.0
 40
1.03
  0
CIRCLE
  5
156
  8
POCKET_2.06D_0.91DEEP
 10
18.0
 20
52.7798
 30
0.0
 40
1.03
  0
CIRCLE
  5
157
  8
POCKET_2.06D_0.91DEEP
 10
4.25
 20
52.7798
 30
0.0
 40
1.03
  0
CIRCLE
  5
158
  8
POCKET_2.06D_0.91DEEP
 10
31.75
 20
6.75
 30
0.0
 40
1.03
  0
CIRCLE
  5
159
  8
POCKET_2.06D_0.91DEEP
 10
18.0
 20
6.75
 30
0.0
 40
1.03
  0
CIRCLE
  5
15A
  8
POCKET_2.06D_0.91DEEP
 10
4.25
 20
6.75
 30
0.0
 40
1.03
  0
TEXT
  5
15B
  8
NOTES
 10
17.993868456634672
 20
29.764913046545804
 30
0.0
 40
0.3
  1
BASE B6-SBH v4
 11
17.993868456634672
 21
29.764913046545804
 31
0.0
  0
TEXT
  5
15C
  8
NOTES
 10
0.0
 20
-0.8
 30
0.0
 40
0.35
  1
B6-SBH v4.5 SHEET 1  1.5in XP-40  48.5 x 97 VERTICAL  origin lower-left (X = 48.5 side, Y = 97 side)  Z0 top of foam
 11
0.0
 21
-0.8
 31
0.0
  0
TEXT
  5
15D
  8
NOTES
 10
0.0
 20
-1.35
 30
0.0
 40
0.35
  1
BASE only. Underside foot-bolt pockets 2.06D x 0.91 cut from THIS face -> this face goes DOWN at assembly.
 11
0.0
 21
-1.35
 31
0.0
  0
ENDSEC
  0
EOF
