  0
SECTION
  2
HEADER
  9
$ACADVER
  1
AC1009
  9
$DWGCODEPAGE
  3
ansi_1252
  9
$INSBASE
 10
0.0
 20
0.0
 30
0.0
  9
$EXTMIN
 10
0.0
 20
1.0
 30
0.0
  9
$EXTMAX
 10
3.611457777153106
 20
94.1738164575787
 30
0.0
  9
$LIMMIN
 10
0.0
 20
0.0
  9
$LIMMAX
 10
12.0
 20
9.0
  9
$ORTHOMODE
 70
     0
  9
$REGENMODE
 70
     1
  9
$FILLMODE
 70
     1
  9
$QTEXTMODE
 70
     0
  9
$MIRRTEXT
 70
     1
  9
$DRAGMODE
 70
     2
  9
$LTSCALE
 40
1.0
  9
$OSMODE
 70
    37
  9
$ATTMODE
 70
     1
  9
$TEXTSIZE
 40
0.2
  9
$TRACEWID
 40
0.05
  9
$TEXTSTYLE
  7
STANDARD
  9
$CLAYER
  8
0
  9
$CELTYPE
  6
BYLAYER
  9
$CECOLOR
 62
   256
  9
$DIMSCALE
 40
1.0
  9
$DIMASZ
 40
0.18
  9
$DIMEXO
 40
0.0625
  9
$DIMDLI
 40
0.38
  9
$DIMRND
 40
0.0
  9
$DIMDLE
 40
0.0
  9
$DIMEXE
 40
0.18
  9
$DIMTP
 40
0.0
  9
$DIMTM
 40
0.0
  9
$DIMTXT
 40
0.18
  9
$DIMCEN
 40
0.09
  9
$DIMTSZ
 40
0.0
  9
$DIMTOL
 70
     0
  9
$DIMLIM
 70
     0
  9
$DIMTIH
 70
     1
  9
$DIMTOH
 70
     1
  9
$DIMSE1
 70
     0
  9
$DIMSE2
 70
     0
  9
$DIMTAD
 70
     0
  9
$DIMZIN
 70
     0
  9
$DIMBLK
  1

  9
$DIMASO
 70
     1
  9
$DIMSHO
 70
     1
  9
$DIMPOST
  1

  9
$DIMAPOST
  1

  9
$DIMALT
 70
     0
  9
$DIMALTD
 70
     2
  9
$DIMALTF
 40
25.4
  9
$DIMLFAC
 40
1.0
  9
$DIMTOFL
 70
     0
  9
$DIMTVP
 40
0.0
  9
$DIMTIX
 70
     0
  9
$DIMSOXD
 70
     0
  9
$DIMSAH
 70
     0
  9
$DIMBLK1
  1

  9
$DIMBLK2
  1

  9
$DIMSTYLE
  2
STANDARD
  9
$DIMCLRD
 70
     0
  9
$DIMCLRE
 70
     0
  9
$DIMCLRT
 70
     0
  9
$DIMTFAC
 40
1.0
  9
$DIMGAP
 40
0.09
  9
$LUNITS
 70
     2
  9
$LUPREC
 70
     4
  9
$SKETCHINC
 40
0.1
  9
$FILLETRAD
 40
0.5
  9
$AUNITS
 70
     0
  9
$AUPREC
 70
     0
  9
$MENU
  1
.
  9
$ELEVATION
 40
0.0
  9
$PELEVATION
 40
0.0
  9
$THICKNESS
 40
0.0
  9
$LIMCHECK
 70
     0
  9
$CHAMFERA
 40
0.0
  9
$CHAMFERB
 40
0.0
  9
$SKPOLY
 70
     0
  9
$TDCREATE
 40
2454910.5
  9
$TDUPDATE
 40
2461252.042744224
  9
$TDINDWG
 40
0.0000000116
  9
$TDUSRTIMER
 40
0.0000000116
  9
$USRTIMER
 70
     1
  9
$ANGBASE
 50
0.0
  9
$ANGDIR
 70
     0
  9
$PDMODE
 70
     0
  9
$PDSIZE
 40
0.0
  9
$PLINEWID
 40
0.0
  9
$COORDS
 70
     1
  9
$SPLFRAME
 70
     0
  9
$SPLINETYPE
 70
     6
  9
$SPLINESEGS
 70
     8
  9
$ATTDIA
 70
     0
  9
$ATTREQ
 70
     1
  9
$HANDLING
 70
     1
  9
$HANDSEED
  5
4CD
  9
$SURFTAB1
 70
     6
  9
$SURFTAB2
 70
     6
  9
$SURFTYPE
 70
     6
  9
$SURFU
 70
     6
  9
$SURFV
 70
     6
  9
$UCSNAME
  2

  9
$UCSORG
 10
0.0
 20
0.0
 30
0.0
  9
$UCSXDIR
 10
1.0
 20
0.0
 30
0.0
  9
$UCSYDIR
 10
0.0
 20
1.0
 30
0.0
  9
$PUCSNAME
  2

  9
$PUCSORG
 10
0.0
 20
0.0
 30
0.0
  9
$PUCSXDIR
 10
1.0
 20
0.0
 30
0.0
  9
$PUCSYDIR
 10
0.0
 20
1.0
 30
0.0
  9
$USERI1
 70
     0
  9
$USERI2
 70
     0
  9
$USERI3
 70
     0
  9
$USERI4
 70
     0
  9
$USERI5
 70
     0
  9
$USERR1
 40
0.0
  9
$USERR2
 40
0.0
  9
$USERR3
 40
0.0
  9
$USERR4
 40
0.0
  9
$USERR5
 40
0.0
  9
$WORLDVIEW
 70
     1
  9
$SHADEDGE
 70
     3
  9
$SHADEDIF
 70
    70
  9
$TILEMODE
 70
     1
  9
$MAXACTVP
 70
    64
  9
$PLIMCHECK
 70
     0
  9
$PEXTMIN
 10
1.000000000000000E+20
 20
1.000000000000000E+20
 30
1.000000000000000E+20
  9
$PEXTMAX
 10
-1.000000000000000E+20
 20
-1.000000000000000E+20
 30
-1.000000000000000E+20
  9
$PLIMMIN
 10
0.0
 20
0.0
  9
$PLIMMAX
 10
12.0
 20
9.0
  9
$UNITMODE
 70
     0
  9
$VISRETAIN
 70
     1
  9
$PLINEGEN
 70
     0
  9
$PSLTSCALE
 70
     1
  0
ENDSEC
  0
SECTION
  2
TABLES
  0
TABLE
  2
VPORT
 70
     1
  0
VPORT
  2
*ACTIVE
 70
     0
 10
0.0
 20
0.0
 11
1.0
 21
1.0
 12
10.42990654205607
 22
4.5
 13
0.0
 23
0.0
 14
0.5
 24
0.5
 15
0.5
 25
0.5
 16
0.0
 26
0.0
 36
1.0
 17
0.0
 27
0.0
 37
0.0
 40
9.0
 41
1.972972972850329
 42
50.0
 43
0.0
 44
0.0
 50
0.0
 51
0.0
 71
     0
 72
   100
 73
     1
 74
     3
 75
     0
 76
     0
 77
     0
 78
     0
  0
ENDTAB
  0
TABLE
  2
LTYPE
 70
     2
  0
LTYPE
  2
CONTINUOUS
 70
     0
  3
Solid line
 72
    65
 73
     0
 40
0.0
  0
LTYPE
  2
CONTINUOUS2
 70
     0
  3
Solid Line
 72
    65
 73
     0
 40
0.0
  0
ENDTAB
  0
TABLE
  2
LAYER
 70
     5
  0
LAYER
  2
0
 70
     0
 62
     7
  6
CONTINUOUS
  0
LAYER
  2
PART_LETTERS
 70
     0
 62
    18
  6
CONTINUOUS
  0
LAYER
  2
T8_DRILL
 70
     0
 62
    18
  6
CONTINUOUS
  0
LAYER
  2
T3_PROFILE_INSIDE
 70
     0
 62
    18
  6
CONTINUOUS
  0
LAYER
  2
T5_BEVEL_0_1
 70
     0
 62
    18
  6
CONTINUOUS
  0
ENDTAB
  0
TABLE
  2
STYLE
 70
     1
  0
STYLE
  2
STANDARD
 70
     0
 40
0.0
 41
1.0
 50
0.0
 71
     0
 42
0.2
  3
txt
  4

  0
ENDTAB
  0
TABLE
  2
VIEW
 70
     0
  0
ENDTAB
  0
TABLE
  2
UCS
 70
     0
  0
ENDTAB
  0
TABLE
  2
APPID
 70
     1
  0
APPID
  2
ACAD
 70
     0
  0
ENDTAB
  0
TABLE
  2
DIMSTYLE
 70
     1
  0
DIMSTYLE
  2
STANDARD
 70
     0
  3

  4

  5

  6

  7

 40
1.0
 41
0.18
 42
0.0625
 43
0.38
 44
0.18
 45
0.0
 46
0.0
 47
0.0
 48
0.0
140
0.18
141
0.09
142
0.0
143
25.4
144
1.0
145
0.0
146
1.0
147
0.09
 71
     0
 72
     0
 73
     1
 74
     1
 75
     0
 76
     0
 77
     0
 78
     0
170
     0
171
     2
172
     0
173
     0
174
     0
175
     0
176
     0
177
     0
178
     0
  0
ENDTAB
  0
ENDSEC
  0
SECTION
  2
BLOCKS
  0
BLOCK
  8
0
  2
$MODEL_SPACE
 70
     0
 10
0.0
 20
0.0
 30
0.0
  3
$MODEL_SPACE
  1

  0
ENDBLK
  5
21
  8
0
  0
BLOCK
 67
     1
  8
0
  2
$PAPER_SPACE
 70
     0
 10
0.0
 20
0.0
 30
0.0
  3
$PAPER_SPACE
  1

  0
ENDBLK
  5
1D
 67
     1
  8
0
  0
ENDSEC
  0
SECTION
  2
ENTITIES
  0
POLYLINE
  5
70
  8
PART_LETTERS
 66
     1
 10
0.0
 20
0.0
 30
0.0
 70
     1
  0
VERTEX
  5
87
  8
PART_LETTERS
 10
0.4818031408557387
 20
32.63066930515102
 30
0.0
  0
VERTEX
  5
88
  8
PART_LETTERS
 10
0.8898419539526008
 20
32.65623090133111
 30
0.0
  0
VERTEX
  5
89
  8
PART_LETTERS
 10
0.8935844793192447
 20
32.63211897900845
 30
0.0
  0
VERTEX
  5
8A
  8
PART_LETTERS
 10
0.8981849749280442
 20
32.60948631572401
 30
0.0
  0
VERTEX
  5
8B
  8
PART_LETTERS
 10
0.9008069615732522
 20
32.59872470622111
 30
0.0
  0
VERTEX
  5
8C
  8
PART_LETTERS
 10
0.9036434407789993
 20
32.58833291147776
 30
0.0
  0
VERTEX
  5
8D
  8
PART_LETTERS
 10
0.906694412545285
 20
32.57831093149397
 30
0.0
  0
VERTEX
  5
8E
  8
PART_LETTERS
 10
0.9099598768721098
 20
32.56865876626972
 30
0.0
  0
VERTEX
  5
8F
  8
PART_LETTERS
 10
0.9134398337594734
 20
32.55937641580502
 30
0.0
  0
VERTEX
  5
90
  8
PART_LETTERS
 10
0.9171342832073759
 20
32.55046388009987
 30
0.0
  0
VERTEX
  5
91
  8
PART_LETTERS
 10
0.9210432252158172
 20
32.54192115915427
 30
0.0
  0
VERTEX
  5
92
  8
PART_LETTERS
 10
0.9251666597847974
 20
32.53374825296822
 30
0.0
  0
VERTEX
  5
93
  8
PART_LETTERS
 10
0.9295045869143165
 20
32.52594516154171
 30
0.0
  0
VERTEX
  5
94
  8
PART_LETTERS
 10
0.9340570066043745
 20
32.51851188487477
 30
0.0
  0
VERTEX
  5
95
  8
PART_LETTERS
 10
0.9388239188549713
 20
32.51144842296736
 30
0.0
  0
VERTEX
  5
96
  8
PART_LETTERS
 10
0.943805323666107
 20
32.50475477581951
 30
0.0
  0
VERTEX
  5
97
  8
PART_LETTERS
 10
0.9523110631357523
 20
32.49455158660354
 30
0.0
  0
VERTEX
  5
98
  8
PART_LETTERS
 10
0.9612605803168573
 20
32.48500666765955
 30
0.0
  0
VERTEX
  5
99
  8
PART_LETTERS
 10
0.9706538752094221
 20
32.47612001898757
 30
0.0
  0
VERTEX
  5
9A
  8
PART_LETTERS
 10
0.9804909478134467
 20
32.46789164058759
 30
0.0
  0
VERTEX
  5
9B
  8
PART_LETTERS
 10
0.990771798128931
 20
32.4603215324596
 30
0.0
  0
VERTEX
  5
9C
  8
PART_LETTERS
 10
1.001496426155875
 20
32.45340969460362
 30
0.0
  0
VERTEX
  5
9D
  8
PART_LETTERS
 10
1.012664831894279
 20
32.44715612701962
 30
0.0
  0
VERTEX
  5
9E
  8
PART_LETTERS
 10
1.024277015344143
 20
32.44156082970764
 30
0.0
  0
VERTEX
  5
9F
  8
PART_LETTERS
 10
1.036332976505466
 20
32.43662380266765
 30
0.0
  0
VERTEX
  5
A0
  8
PART_LETTERS
 10
1.048832715378249
 20
32.43234504589967
 30
0.0
  0
VERTEX
  5
A1
  8
PART_LETTERS
 10
1.061776231962492
 20
32.42872455940366
 30
0.0
  0
VERTEX
  5
A2
  8
PART_LETTERS
 10
1.075163526258194
 20
32.42576234317967
 30
0.0
  0
VERTEX
  5
A3
  8
PART_LETTERS
 10
1.088994598265357
 20
32.42345839722768
 30
0.0
  0
VERTEX
  5
A4
  8
PART_LETTERS
 10
1.103269447983979
 20
32.42181272154768
 30
0.0
  0
VERTEX
  5
A5
  8
PART_LETTERS
 10
1.117988075414061
 20
32.42082531613968
 30
0.0
  0
VERTEX
  5
A6
  8
PART_LETTERS
 10
1.133150480555602
 20
32.42049618100368
 30
0.0
  0
VERTEX
  5
A7
  8
PART_LETTERS
 10
1.144464963124028
 20
32.42066444671929
 30
0.0
  0
VERTEX
  5
A8
  8
PART_LETTERS
 10
1.155450310556455
 20
32.42116924386607
 30
0.0
  0
VERTEX
  5
A9
  8
PART_LETTERS
 10
1.166106522852882
 20
32.42201057244405
 30
0.0
  0
VERTEX
  5
AA
  8
PART_LETTERS
 10
1.17643360001331
 20
32.42318843245321
 30
0.0
  0
VERTEX
  5
AB
  8
PART_LETTERS
 10
1.186431542037739
 20
32.42470282389356
 30
0.0
  0
VERTEX
  5
AC
  8
PART_LETTERS
 10
1.196100348926169
 20
32.42655374676511
 30
0.0
  0
VERTEX
  5
AD
  8
PART_LETTERS
 10
1.205440020678599
 20
32.42874120106785
 30
0.0
  0
VERTEX
  5
AE
  8
PART_LETTERS
 10
1.214450557295029
 20
32.43126518680177
 30
0.0
  0
VERTEX
  5
AF
  8
PART_LETTERS
 10
1.223131958775461
 20
32.43412570396689
 30
0.0
  0
VERTEX
  5
B0
  8
PART_LETTERS
 10
1.231484225119893
 20
32.4373227525632
 30
0.0
  0
VERTEX
  5
B1
  8
PART_LETTERS
 10
1.239507356328326
 20
32.4408563325907
 30
0.0
  0
VERTEX
  5
B2
  8
PART_LETTERS
 10
1.247201352400759
 20
32.44472644404939
 30
0.0
  0
VERTEX
  5
B3
  8
PART_LETTERS
 10
1.254566213337193
 20
32.44893308693927
 30
0.0
  0
VERTEX
  5
B4
  8
PART_LETTERS
 10
1.261601939137628
 20
32.45347626126033
 30
0.0
  0
VERTEX
  5
B5
  8
PART_LETTERS
 10
1.268308529802064
 20
32.45835596701259
 30
0.0
  0
VERTEX
  5
B6
  8
PART_LETTERS
 10
1.2746859853305
 20
32.46357220419605
 30
0.0
  0
VERTEX
  5
B7
  8
PART_LETTERS
 10
1.280704720542173
 20
32.46901033023524
 30
0.0
  0
VERTEX
  5
B8
  8
PART_LETTERS
 10
1.286335150256319
 20
32.47455570255468
 30
0.0
  0
VERTEX
  5
B9
  8
PART_LETTERS
 10
1.291577274472937
 20
32.48020832115439
 30
0.0
  0
VERTEX
  5
BA
  8
PART_LETTERS
 10
1.296431093192028
 20
32.48596818603438
 30
0.0
  0
VERTEX
  5
BB
  8
PART_LETTERS
 10
1.300896606413592
 20
32.49183529719464
 30
0.0
  0
VERTEX
  5
BC
  8
PART_LETTERS
 10
1.304973814137628
 20
32.49780965463517
 30
0.0
  0
VERTEX
  5
BD
  8
PART_LETTERS
 10
1.308662716364137
 20
32.50389125835597
 30
0.0
  0
VERTEX
  5
BE
  8
PART_LETTERS
 10
1.311963313093119
 20
32.51008010835703
 30
0.0
  0
VERTEX
  5
BF
  8
PART_LETTERS
 10
1.314875604324574
 20
32.51637620463837
 30
0.0
  0
VERTEX
  5
C0
  8
PART_LETTERS
 10
1.317399590058501
 20
32.52277954719997
 30
0.0
  0
VERTEX
  5
C1
  8
PART_LETTERS
 10
1.319535270294901
 20
32.52929013604185
 30
0.0
  0
VERTEX
  5
C2
  8
PART_LETTERS
 10
1.321282645033774
 20
32.53590797116399
 30
0.0
  0
VERTEX
  5
C3
  8
PART_LETTERS
 10
1.322641714275119
 20
32.5426330525664
 30
0.0
  0
VERTEX
  5
C4
  8
PART_LETTERS
 10
1.323612478018938
 20
32.54946538024909
 30
0.0
  0
VERTEX
  5
C5
  8
PART_LETTERS
 10
1.324194936265229
 20
32.55640495421204
 30
0.0
  0
VERTEX
  5
C6
  8
PART_LETTERS
 10
1.324389089013992
 20
32.56345177445525
 30
0.0
  0
VERTEX
  5
C7
  8
PART_LETTERS
 10
1.324204181634217
 20
32.5701528178983
 30
0.0
  0
VERTEX
  5
C8
  8
PART_LETTERS
 10
1.323649459494893
 20
32.57676510579905
 30
0.0
  0
VERTEX
  5
C9
  8
PART_LETTERS
 10
1.322724922596018
 20
32.58328863815751
 30
0.0
  0
VERTEX
  5
CA
  8
PART_LETTERS
 10
1.321430570937594
 20
32.58972341497368
 30
0.0
  0
VERTEX
  5
CB
  8
PART_LETTERS
 10
1.31976640451962
 20
32.59606943624756
 30
0.0
  0
VERTEX
  5
CC
  8
PART_LETTERS
 10
1.317732423342096
 20
32.60232670197914
 30
0.0
  0
VERTEX
  5
CD
  8
PART_LETTERS
 10
1.315328627405022
 20
32.60849521216843
 30
0.0
  0
VERTEX
  5
CE
  8
PART_LETTERS
 10
1.312555016708399
 20
32.61457496681543
 30
0.0
  0
VERTEX
  5
CF
  8
PART_LETTERS
 10
1.309411591252226
 20
32.62056596592014
 30
0.0
  0
VERTEX
  5
D0
  8
PART_LETTERS
 10
1.305898351036503
 20
32.62646820948255
 30
0.0
  0
VERTEX
  5
D1
  8
PART_LETTERS
 10
1.30201529606123
 20
32.63228169750268
 30
0.0
  0
VERTEX
  5
D2
  8
PART_LETTERS
 10
1.297762426326407
 20
32.6380064299805
 30
0.0
  0
VERTEX
  5
D3
  8
PART_LETTERS
 10
1.293139741832035
 20
32.64364240691604
 30
0.0
  0
VERTEX
  5
D4
  8
PART_LETTERS
 10
1.288147242578112
 20
32.64918962830929
 30
0.0
  0
VERTEX
  5
D5
  8
PART_LETTERS
 10
1.28278492856464
 20
32.65464809416024
 30
0.0
  0
VERTEX
  5
D6
  8
PART_LETTERS
 10
1.277052799791619
 20
32.6600178044689
 30
0.0
  0
VERTEX
  5
D7
  8
PART_LETTERS
 10
1.270647608156216
 20
32.66532464626843
 30
0.0
  0
VERTEX
  5
D8
  8
PART_LETTERS
 10
1.263266105555602
 20
32.67059450659202
 30
0.0
  0
VERTEX
  5
D9
  8
PART_LETTERS
 10
1.254908291989777
 20
32.67582738543965
 30
0.0
  0
VERTEX
  5
DA
  8
PART_LETTERS
 10
1.24557416745874
 20
32.68102328281132
 30
0.0
  0
VERTEX
  5
DB
  8
PART_LETTERS
 10
1.235263731962492
 20
32.68618219870704
 30
0.0
  0
VERTEX
  5
DC
  8
PART_LETTERS
 10
1.223976985501032
 20
32.69130413312681
 30
0.0
  0
VERTEX
  5
DD
  8
PART_LETTERS
 10
1.211713928074361
 20
32.69638908607062
 30
0.0
  0
VERTEX
  5
DE
  8
PART_LETTERS
 10
1.198474559682478
 20
32.70143705753848
 30
0.0
  0
VERTEX
  5
DF
  8
PART_LETTERS
 10
1.184258880325384
 20
32.70644804753038
 30
0.0
  0
VERTEX
  5
E0
  8
PART_LETTERS
 10
1.169066890003078
 20
32.71142205604633
 30
0.0
  0
VERTEX
  5
E1
  8
PART_LETTERS
 10
1.152898588715561
 20
32.71635908308632
 30
0.0
  0
VERTEX
  5
E2
  8
PART_LETTERS
 10
1.135753976462833
 20
32.72125912865035
 30
0.0
  0
VERTEX
  5
E3
  8
PART_LETTERS
 10
1.098535819061741
 20
32.73094827535056
 30
0.0
  0
VERTEX
  5
E4
  8
PART_LETTERS
 10
1.057412417799804
 20
32.74048949614694
 30
0.0
  0
VERTEX
  5
E5
  8
PART_LETTERS
 10
1.022779265567966
 20
32.74858104308588
 30
0.0
  0
VERTEX
  5
E6
  8
PART_LETTERS
 10
0.9894108798137877
 20
32.75699802701323
 30
0.0
  0
VERTEX
  5
E7
  8
PART_LETTERS
 10
0.95730726053727
 20
32.76574044792899
 30
0.0
  0
VERTEX
  5
E8
  8
PART_LETTERS
 10
0.9264684077384127
 20
32.77480830583315
 30
0.0
  0
VERTEX
  5
E9
  8
PART_LETTERS
 10
0.8968943214172156
 20
32.78420160072572
 30
0.0
  0
VERTEX
  5
EA
  8
PART_LETTERS
 10
0.8685850015736787
 20
32.79392033260669
 30
0.0
  0
VERTEX
  5
EB
  8
PART_LETTERS
 10
0.8415404482078022
 20
32.80396450147607
 30
0.0
  0
VERTEX
  5
EC
  8
PART_LETTERS
 10
0.8157606613195859
 20
32.81433410733384
 30
0.0
  0
VERTEX
  5
ED
  8
PART_LETTERS
 10
0.7912456409090299
 20
32.82502915018003
 30
0.0
  0
VERTEX
  5
EE
  8
PART_LETTERS
 10
0.7679953869761342
 20
32.8360496300146
 30
0.0
  0
VERTEX
  5
EF
  8
PART_LETTERS
 10
0.746009899520899
 20
32.84739554683759
 30
0.0
  0
VERTEX
  5
F0
  8
PART_LETTERS
 10
0.725289178543324
 20
32.85906690064898
 30
0.0
  0
VERTEX
  5
F1
  8
PART_LETTERS
 10
0.7058332240434092
 20
32.87106369144878
 30
0.0
  0
VERTEX
  5
F2
  8
PART_LETTERS
 10
0.6876420360211547
 20
32.88338591923697
 30
0.0
  0
VERTEX
  5
F3
  8
PART_LETTERS
 10
0.6707156144765606
 20
32.89603358401358
 30
0.0
  0
VERTEX
  5
F4
  8
PART_LETTERS
 10
0.6550539594096267
 20
32.90900668577859
 30
0.0
  0
VERTEX
  5
F5
  8
PART_LETTERS
 10
0.6403797097506908
 20
32.92236809304111
 30
0.0
  0
VERTEX
  5
F6
  8
PART_LETTERS
 10
0.6266521858762024
 20
32.93618067431031
 30
0.0
  0
VERTEX
  5
F7
  8
PART_LETTERS
 10
0.6138713877861615
 20
32.95044442958614
 30
0.0
  0
VERTEX
  5
F8
  8
PART_LETTERS
 10
0.602037315480568
 20
32.96515935886863
 30
0.0
  0
VERTEX
  5
F9
  8
PART_LETTERS
 10
0.5911499689594222
 20
32.98032546215777
 30
0.0
  0
VERTEX
  5
FA
  8
PART_LETTERS
 10
0.5812093482227236
 20
32.99594273945355
 30
0.0
  0
VERTEX
  5
FB
  8
PART_LETTERS
 10
0.5722154532704726
 20
33.01201119075599
 30
0.0
  0
VERTEX
  5
FC
  8
PART_LETTERS
 10
0.5641682841026691
 20
33.02853081606508
 30
0.0
  0
VERTEX
  5
FD
  8
PART_LETTERS
 10
0.557067840719313
 20
33.04550161538081
 30
0.0
  0
VERTEX
  5
FE
  8
PART_LETTERS
 10
0.5509141231204044
 20
33.06292358870321
 30
0.0
  0
VERTEX
  5
FF
  8
PART_LETTERS
 10
0.5457071313059433
 20
33.08079673603226
 30
0.0
  0
VERTEX
  5
100
  8
PART_LETTERS
 10
0.5414468652759297
 20
33.09912105736794
 30
0.0
  0
VERTEX
  5
101
  8
PART_LETTERS
 10
0.5381333250303635
 20
33.11789655271029
 30
0.0
  0
VERTEX
  5
102
  8
PART_LETTERS
 10
0.5357665105692448
 20
33.13712322205929
 30
0.0
  0
VERTEX
  5
103
  8
PART_LETTERS
 10
0.5343464218925735
 20
33.15680106541492
 30
0.0
  0
VERTEX
  5
104
  8
PART_LETTERS
 10
0.5338730590003499
 20
33.17693008277722
 30
0.0
  0
VERTEX
  5
105
  8
PART_LETTERS
 10
0.534115287667855
 20
33.19025635763759
 30
0.0
  0
VERTEX
  5
106
  8
PART_LETTERS
 10
0.5348419736703702
 20
33.20349017880808
 30
0.0
  0
VERTEX
  5
107
  8
PART_LETTERS
 10
0.5360531170078958
 20
33.21663154628869
 30
0.0
  0
VERTEX
  5
108
  8
PART_LETTERS
 10
0.5377487176804316
 20
33.2296804600794
 30
0.0
  0
VERTEX
  5
109
  8
PART_LETTERS
 10
0.5399287756879777
 20
33.24263692018022
 30
0.0
  0
VERTEX
  5
10A
  8
PART_LETTERS
 10
0.542593291030534
 20
33.25550092659117
 30
0.0
  0
VERTEX
  5
10B
  8
PART_LETTERS
 10
0.5457422637081005
 20
33.26827247931222
 30
0.0
  0
VERTEX
  5
10C
  8
PART_LETTERS
 10
0.5493756937206773
 20
33.28095157834338
 30
0.0
  0
VERTEX
  5
10D
  8
PART_LETTERS
 10
0.5534935810682643
 20
33.29353822368466
 30
0.0
  0
VERTEX
  5
10E
  8
PART_LETTERS
 10
0.5580959257508615
 20
33.30603241533605
 30
0.0
  0
VERTEX
  5
10F
  8
PART_LETTERS
 10
0.5631827277684689
 20
33.31843415329755
 30
0.0
  0
VERTEX
  5
110
  8
PART_LETTERS
 10
0.5687539871210865
 20
33.33074343756917
 30
0.0
  0
VERTEX
  5
111
  8
PART_LETTERS
 10
0.5748097038087144
 20
33.3429602681509
 30
0.0
  0
VERTEX
  5
112
  8
PART_LETTERS
 10
0.5813498778313526
 20
33.35508464504274
 30
0.0
  0
VERTEX
  5
113
  8
PART_LETTERS
 10
0.588374509189001
 20
33.36711656824469
 30
0.0
  0
VERTEX
  5
114
  8
PART_LETTERS
 10
0.5958835978816596
 20
33.37905603775675
 30
0.0
  0
VERTEX
  5
115
  8
PART_LETTERS
 10
0.6038789929831261
 20
33.39079026007727
 30
0.0
  0
VERTEX
  5
116
  8
PART_LETTERS
 10
0.6123625435671984
 20
33.40220644170456
 30
0.0
  0
VERTEX
  5
117
  8
PART_LETTERS
 10
0.6213342496338765
 20
33.41330458263866
 30
0.0
  0
VERTEX
  5
118
  8
PART_LETTERS
 10
0.6307941111831603
 20
33.42408468287954
 30
0.0
  0
VERTEX
  5
119
  8
PART_LETTERS
 10
0.6407421282150498
 20
33.4345467424272
 30
0.0
  0
VERTEX
  5
11A
  8
PART_LETTERS
 10
0.6511783007295449
 20
33.44469076128165
 30
0.0
  0
VERTEX
  5
11B
  8
PART_LETTERS
 10
0.6621026287266458
 20
33.45451673944289
 30
0.0
  0
VERTEX
  5
11C
  8
PART_LETTERS
 10
0.6735151122063525
 20
33.46402467691091
 30
0.0
  0
VERTEX
  5
11D
  8
PART_LETTERS
 10
0.6854157511686649
 20
33.47321457368572
 30
0.0
  0
VERTEX
  5
11E
  8
PART_LETTERS
 10
0.6978045456135831
 20
33.48208642976732
 30
0.0
  0
VERTEX
  5
11F
  8
PART_LETTERS
 10
0.7106814955411069
 20
33.49064024515572
 30
0.0
  0
VERTEX
  5
120
  8
PART_LETTERS
 10
0.7240466009512365
 20
33.49887601985089
 30
0.0
  0
VERTEX
  5
121
  8
PART_LETTERS
 10
0.7378998618439718
 20
33.50679375385285
 30
0.0
  0
VERTEX
  5
122
  8
PART_LETTERS
 10
0.7522412782193131
 20
33.51439344716159
 30
0.0
  0
VERTEX
  5
123
  8
PART_LETTERS
 10
0.7670708500772598
 20
33.52167509977713
 30
0.0
  0
VERTEX
  5
124
  8
PART_LETTERS
 10
0.7823885774178123
 20
33.52863871169946
 30
0.0
  0
VERTEX
  5
125
  8
PART_LETTERS
 10
0.7983109518902287
 20
33.53523065978844
 30
0.0
  0
VERTEX
  5
126
  8
PART_LETTERS
 10
0.8149544651437675
 20
33.54139732090393
 30
0.0
  0
VERTEX
  5
127
  8
PART_LETTERS
 10
0.8323191171784281
 20
33.54713869504594
 30
0.0
  0
VERTEX
  5
128
  8
PART_LETTERS
 10
0.8504049079942109
 20
33.55245478221447
 30
0.0
  0
VERTEX
  5
129
  8
PART_LETTERS
 10
0.8692118375911158
 20
33.55734558240951
 30
0.0
  0
VERTEX
  5
12A
  8
PART_LETTERS
 10
0.8887399059691425
 20
33.56181109563107
 30
0.0
  0
VERTEX
  5
12B
  8
PART_LETTERS
 10
0.9089891131282917
 20
33.56585132187917
 30
0.0
  0
VERTEX
  5
12C
  8
PART_LETTERS
 10
0.9299594590685627
 20
33.56946626115376
 30
0.0
  0
VERTEX
  5
12D
  8
PART_LETTERS
 10
0.9516509437899558
 20
33.57265591345487
 30
0.0
  0
VERTEX
  5
12E
  8
PART_LETTERS
 10
0.9740635672924712
 20
33.5754202787825
 30
0.0
  0
VERTEX
  5
12F
  8
PART_LETTERS
 10
0.9971973295761086
 20
33.57775935713666
 30
0.0
  0
VERTEX
  5
130
  8
PART_LETTERS
 10
1.021052230640868
 20
33.57967314851733
 30
0.0
  0
VERTEX
  5
131
  8
PART_LETTERS
 10
1.04562827048675
 20
33.58116165292452
 30
0.0
  0
VERTEX
  5
132
  8
PART_LETTERS
 10
1.070925449113754
 20
33.58222487035822
 30
0.0
  0
VERTEX
  5
133
  8
PART_LETTERS
 10
1.096943766521879
 20
33.58286280081845
 30
0.0
  0
VERTEX
  5
134
  8
PART_LETTERS
 10
1.123683222711127
 20
33.58307544430519
 30
0.0
  0
VERTEX
  5
135
  8
PART_LETTERS
 10
1.156443263185846
 20
33.58268898788145
 30
0.0
  0
VERTEX
  5
136
  8
PART_LETTERS
 10
1.188215898252567
 20
33.58152961861027
 30
0.0
  0
VERTEX
  5
137
  8
PART_LETTERS
 10
1.21900112791129
 20
33.57959733649162
 30
0.0
  0
VERTEX
  5
138
  8
PART_LETTERS
 10
1.248798952162014
 20
33.57689214152551
 30
0.0
  0
VERTEX
  5
139
  8
PART_LETTERS
 10
1.277609371004741
 20
33.57341403371194
 30
0.0
  0
VERTEX
  5
13A
  8
PART_LETTERS
 10
1.30543238443947
 20
33.56916301305093
 30
0.0
  0
VERTEX
  5
13B
  8
PART_LETTERS
 10
1.332267992466201
 20
33.56413907954244
 30
0.0
  0
VERTEX
  5
13C
  8
PART_LETTERS
 10
1.358116195084934
 20
33.55834223318649
 30
0.0
  0
VERTEX
  5
13D
  8
PART_LETTERS
 10
1.382976992295669
 20
33.55177247398309
 30
0.0
  0
VERTEX
  5
13E
  8
PART_LETTERS
 10
1.406850384098406
 20
33.54442980193224
 30
0.0
  0
VERTEX
  5
13F
  8
PART_LETTERS
 10
1.429736370493145
 20
33.53631421703392
 30
0.0
  0
VERTEX
  5
140
  8
PART_LETTERS
 10
1.451634951479886
 20
33.52742571928814
 30
0.0
  0
VERTEX
  5
141
  8
PART_LETTERS
 10
1.47254612705863
 20
33.51776430869491
 30
0.0
  0
VERTEX
  5
142
  8
PART_LETTERS
 10
1.492469897229375
 20
33.50732998525421
 30
0.0
  0
VERTEX
  5
143
  8
PART_LETTERS
 10
1.511406261992122
 20
33.49612274896605
 30
0.0
  0
VERTEX
  5
144
  8
PART_LETTERS
 10
1.529355221346871
 20
33.48414259983043
 30
0.0
  0
VERTEX
  5
145
  8
PART_LETTERS
 10
1.537972367512831
 20
33.47784511674374
 30
0.0
  0
VERTEX
  5
146
  8
PART_LETTERS
 10
1.546368549359959
 20
33.47131927304303
 30
0.0
  0
VERTEX
  5
147
  8
PART_LETTERS
 10
1.554543766888257
 20
33.4645650687283
 30
0.0
  0
VERTEX
  5
148
  8
PART_LETTERS
 10
1.562498020097723
 20
33.45758250379956
 30
0.0
  0
VERTEX
  5
149
  8
PART_LETTERS
 10
1.570231308988359
 20
33.45037157825679
 30
0.0
  0
VERTEX
  5
14A
  8
PART_LETTERS
 10
1.577743633560164
 20
33.4429322921
 30
0.0
  0
VERTEX
  5
14B
  8
PART_LETTERS
 10
1.585034993813137
 20
33.43526464532918
 30
0.0
  0
VERTEX
  5
14C
  8
PART_LETTERS
 10
1.59210538974728
 20
33.42736863794434
 30
0.0
  0
VERTEX
  5
14D
  8
PART_LETTERS
 10
1.598954821362592
 20
33.41924426994547
 30
0.0
  0
VERTEX
  5
14E
  8
PART_LETTERS
 10
1.605583288659072
 20
33.4108915413326
 30
0.0
  0
VERTEX
  5
14F
  8
PART_LETTERS
 10
1.611990791636722
 20
33.4023104521057
 30
0.0
  0
VERTEX
  5
150
  8
PART_LETTERS
 10
1.618177330295541
 20
33.39350100226477
 30
0.0
  0
VERTEX
  5
151
  8
PART_LETTERS
 10
1.624142904635528
 20
33.38446319180981
 30
0.0
  0
VERTEX
  5
152
  8
PART_LETTERS
 10
1.629887514656685
 20
33.37519702074085
 30
0.0
  0
VERTEX
  5
153
  8
PART_LETTERS
 10
1.63541116035901
 20
33.36570248905785
 30
0.0
  0
VERTEX
  5
154
  8
PART_LETTERS
 10
1.640713841742505
 20
33.35597959676085
 30
0.0
  0
VERTEX
  5
155
  8
PART_LETTERS
 10
1.650656311553002
 20
33.33584873032476
 30
0.0
  0
VERTEX
  5
156
  8
PART_LETTERS
 10
1.659714924088174
 20
33.31480442143257
 30
0.0
  0
VERTEX
  5
157
  8
PART_LETTERS
 10
1.667889679348022
 20
33.2928466700843
 30
0.0
  0
VERTEX
  5
158
  8
PART_LETTERS
 10
1.675180577332546
 20
33.26997547627995
 30
0.0
  0
VERTEX
  5
159
  8
PART_LETTERS
 10
1.681587618041747
 20
33.24619084001951
 30
0.0
  0
VERTEX
  5
15A
  8
PART_LETTERS
 10
1.687110801475623
 20
33.22149276130297
 30
0.0
  0
VERTEX
  5
15B
  8
PART_LETTERS
 10
1.691750127634175
 20
33.19588124013035
 30
0.0
  0
VERTEX
  5
15C
  8
PART_LETTERS
 10
1.695505596517403
 20
33.16935627650164
 30
0.0
  0
VERTEX
  5
15D
  8
PART_LETTERS
 10
1.291253686558331
 20
33.14568813189045
 30
0.0
  0
VERTEX
  5
15E
  8
PART_LETTERS
 10
1.289103213731549
 20
33.15720416350283
 30
0.0
  0
VERTEX
  5
15F
  8
PART_LETTERS
 10
1.286675379835104
 20
33.16832079517489
 30
0.0
  0
VERTEX
  5
160
  8
PART_LETTERS
 10
1.283970184868997
 20
33.17903802690665
 30
0.0
  0
VERTEX
  5
161
  8
PART_LETTERS
 10
1.280987628833228
 20
33.18935585869809
 30
0.0
  0
VERTEX
  5
162
  8
PART_LETTERS
 10
1.277727711727797
 20
33.19927429054921
 30
0.0
  0
VERTEX
  5
163
  8
PART_LETTERS
 10
1.274190433552703
 20
33.20879332246002
 30
0.0
  0
VERTEX
  5
164
  8
PART_LETTERS
 10
1.270375794307947
 20
33.21791295443052
 30
0.0
  0
VERTEX
  5
165
  8
PART_LETTERS
 10
1.266283793993529
 20
33.22663318646071
 30
0.0
  0
VERTEX
  5
166
  8
PART_LETTERS
 10
1.261914432609448
 20
33.23495401855058
 30
0.0
  0
VERTEX
  5
167
  8
PART_LETTERS
 10
1.257267710155705
 20
33.24287545070014
 30
0.0
  0
VERTEX
  5
168
  8
PART_LETTERS
 10
1.252343626632299
 20
33.25039748290938
 30
0.0
  0
VERTEX
  5
169
  8
PART_LETTERS
 10
1.247142182039231
 20
33.25752011517831
 30
0.0
  0
VERTEX
  5
16A
  8
PART_LETTERS
 10
1.241663376376501
 20
33.26424334750693
 30
0.0
  0
VERTEX
  5
16B
  8
PART_LETTERS
 10
1.235907209644108
 20
33.27056717989522
 30
0.0
  0
VERTEX
  5
16C
  8
PART_LETTERS
 10
1.229873681842053
 20
33.27649161234322
 30
0.0
  0
VERTEX
  5
16D
  8
PART_LETTERS
 10
1.223562792970336
 20
33.28201664485089
 30
0.0
  0
VERTEX
  5
16E
  8
PART_LETTERS
 10
1.216959750438575
 20
33.28717556074661
 30
0.0
  0
VERTEX
  5
16F
  8
PART_LETTERS
 10
1.210049761656387
 20
33.29200164335873
 30
0.0
  0
VERTEX
  5
170
  8
PART_LETTERS
 10
1.202832826623772
 20
33.29649489268726
 30
0.0
  0
VERTEX
  5
171
  8
PART_LETTERS
 10
1.195308945340732
 20
33.3006553087322
 30
0.0
  0
VERTEX
  5
172
  8
PART_LETTERS
 10
1.187478117807265
 20
33.30448289149354
 30
0.0
  0
VERTEX
  5
173
  8
PART_LETTERS
 10
1.179340344023372
 20
33.30797764097128
 30
0.0
  0
VERTEX
  5
174
  8
PART_LETTERS
 10
1.170895623989052
 20
33.31113955716544
 30
0.0
  0
VERTEX
  5
175
  8
PART_LETTERS
 10
1.162143957704306
 20
33.31396864007599
 30
0.0
  0
VERTEX
  5
176
  8
PART_LETTERS
 10
1.153085345169134
 20
33.31646488970295
 30
0.0
  0
VERTEX
  5
177
  8
PART_LETTERS
 10
1.143719786383536
 20
33.31862830604631
 30
0.0
  0
VERTEX
  5
178
  8
PART_LETTERS
 10
1.13404728134751
 20
33.32045888910609
 30
0.0
  0
VERTEX
  5
179
  8
PART_LETTERS
 10
1.124067830061059
 20
33.32195663888227
 30
0.0
  0
VERTEX
  5
17A
  8
PART_LETTERS
 10
1.113781432524182
 20
33.32312155537485
 30
0.0
  0
VERTEX
  5
17B
  8
PART_LETTERS
 10
1.103188088736878
 20
33.32395363858384
 30
0.0
  0
VERTEX
  5
17C
  8
PART_LETTERS
 10
1.092287798699148
 20
33.32445288850923
 30
0.0
  0
VERTEX
  5
17D
  8
PART_LETTERS
 10
1.081080562410991
 20
33.32461930515102
 30
0.0
  0
VERTEX
  5
17E
  8
PART_LETTERS
 10
1.062959639193051
 20
33.32412375337323
 30
0.0
  0
VERTEX
  5
17F
  8
PART_LETTERS
 10
1.045992538024907
 20
33.32263709803984
 30
0.0
  0
VERTEX
  5
180
  8
PART_LETTERS
 10
1.030179258906557
 20
33.32015933915086
 30
0.0
  0
VERTEX
  5
181
  8
PART_LETTERS
 10
1.022705302616056
 20
33.31854879587301
 30
0.0
  0
VERTEX
  5
182
  8
PART_LETTERS
 10
1.015519801838003
 20
33.31669047670628
 30
0.0
  0
VERTEX
  5
183
  8
PART_LETTERS
 10
1.0086227565724
 20
33.31458438165065
 30
0.0
  0
VERTEX
  5
184
  8
PART_LETTERS
 10
1.002014166819245
 20
33.31223051070612
 30
0.0
  0
VERTEX
  5
185
  8
PART_LETTERS
 10
0.9956940325785388
 20
33.30962886387268
 30
0.0
  0
VERTEX
  5
186
  8
PART_LETTERS
 10
0.9896623538502817
 20
33.30677944115035
 30
0.0
  0
VERTEX
  5
187
  8
PART_LETTERS
 10
0.9839191306344733
 20
33.30368224253911
 30
0.0
  0
VERTEX
  5
188
  8
PART_LETTERS
 10
0.9784643629311138
 20
33.30033726803899
 30
0.0
  0
VERTEX
  5
189
  8
PART_LETTERS
 10
0.9732980507402033
 20
33.29674451764996
 30
0.0
  0
VERTEX
  5
18A
  8
PART_LETTERS
 10
0.9684201940617414
 20
33.29290399137204
 30
0.0
  0
VERTEX
  5
18B
  8
PART_LETTERS
 10
0.9595446398325463
 20
33.28476067036675
 30
0.0
  0
VERTEX
  5
18C
  8
PART_LETTERS
 10
0.9518524928339106
 20
33.27618836424038
 30
0.0
  0
VERTEX
  5
18D
  8
PART_LETTERS
 10
0.9484501970460525
 20
33.27174134175679
 30
0.0
  0
VERTEX
  5
18E
  8
PART_LETTERS
 10
0.9453437530658342
 20
33.26718707299294
 30
0.0
  0
VERTEX
  5
18F
  8
PART_LETTERS
 10
0.9425331608932557
 20
33.26252555794881
 30
0.0
  0
VERTEX
  5
190
  8
PART_LETTERS
 10
0.9400184205283171
 20
33.25775679662443
 30
0.0
  0
VERTEX
  5
191
  8
PART_LETTERS
 10
0.9377995319710183
 20
33.25288078901976
 30
0.0
  0
VERTEX
  5
192
  8
PART_LETTERS
 10
0.9358764952213594
 20
33.24789753513483
 30
0.0
  0
VERTEX
  5
193
  8
PART_LETTERS
 10
0.9342493102793403
 20
33.24280703496962
 30
0.0
  0
VERTEX
  5
194
  8
PART_LETTERS
 10
0.932917977144961
 20
33.23760928852415
 30
0.0
  0
VERTEX
  5
195
  8
PART_LETTERS
 10
0.9318824958182217
 20
33.2323042957984
 30
0.0
  0
VERTEX
  5
196
  8
PART_LETTERS
 10
0.931142866299122
 20
33.22689205679239
 30
0.0
  0
VERTEX
  5
197
  8
PART_LETTERS
 10
0.9306990885876623
 20
33.22137257150611
 30
0.0
  0
VERTEX
  5
198
  8
PART_LETTERS
 10
0.9305511626838423
 20
33.21574583993957
 30
0.0
  0
VERTEX
  5
199
  8
PART_LETTERS
 10
0.931039318166448
 20
33.20756553745832
 30
0.0
  0
VERTEX
  5
19A
  8
PART_LETTERS
 10
0.9325037846142652
 20
33.19959233124244
 30
0.0
  0
VERTEX
  5
19B
  8
PART_LETTERS
 10
0.9349445620272938
 20
33.19182622129189
 30
0.0
  0
VERTEX
  5
19C
  8
PART_LETTERS
 10
0.9383616504055339
 20
33.18426720760669
 30
0.0
  0
VERTEX
  5
19D
  8
PART_LETTERS
 10
0.9427550497489854
 20
33.17691529018684
 30
0.0
  0
VERTEX
  5
19E
  8
PART_LETTERS
 10
0.9481247600576486
 20
33.16977046903234
 30
0.0
  0
VERTEX
  5
19F
  8
PART_LETTERS
 10
0.954470781331523
 20
33.16283274414318
 30
0.0
  0
VERTEX
  5
1A0
  8
PART_LETTERS
 10
0.961793113570609
 20
33.15610211551937
 30
0.0
  0
VERTEX
  5
1A1
  8
PART_LETTERS
 10
0.9659054536968027
 20
33.15268502714113
 30
0.0
  0
VERTEX
  5
1A2
  8
PART_LETTERS
 10
0.9706686677998041
 20
33.14929752394366
 30
0.0
  0
VERTEX
  5
1A3
  8
PART_LETTERS
 10
0.9760827558796131
 20
33.14593960592694
 30
0.0
  0
VERTEX
  5
1A4
  8
PART_LETTERS
 10
0.9821477179362298
 20
33.14261127309099
 30
0.0
  0
VERTEX
  5
1A5
  8
PART_LETTERS
 10
0.9888635539696541
 20
33.13931252543581
 30
0.0
  0
VERTEX
  5
1A6
  8
PART_LETTERS
 10
0.996230263979886
 20
33.1360433629614
 30
0.0
  0
VERTEX
  5
1A7
  8
PART_LETTERS
 10
1.012916305930773
 20
33.12959379355485
 30
0.0
  0
VERTEX
  5
1A8
  8
PART_LETTERS
 10
1.03220584378889
 20
33.12326256487135
 30
0.0
  0
VERTEX
  5
1A9
  8
PART_LETTERS
 10
1.054098877554238
 20
33.11704967691091
 30
0.0
  0
VERTEX
  5
1AA
  8
PART_LETTERS
 10
1.078595407226816
 20
33.11095512967354
 30
0.0
  0
VERTEX
  5
1AB
  8
PART_LETTERS
 10
1.105695432806625
 20
33.10497892315921
 30
0.0
  0
VERTEX
  5
1AC
  8
PART_LETTERS
 10
1.173497270822485
 20
33.08980912172248
 30
0.0
  0
VERTEX
  5
1AD
  8
PART_LETTERS
 10
1.20552877622089
 20
33.08220757933994
 30
0.0
  0
VERTEX
  5
1AE
  8
PART_LETTERS
 10
1.236314005879613
 20
33.07459494251459
 30
0.0
  0
VERTEX
  5
1AF
  8
PART_LETTERS
 10
1.265852959798653
 20
33.06697121124648
 30
0.0
  0
VERTEX
  5
1B0
  8
PART_LETTERS
 10
1.29414563797801
 20
33.05933638553557
 30
0.0
  0
VERTEX
  5
1B1
  8
PART_LETTERS
 10
1.321192040417684
 20
33.05169046538188
 30
0.0
  0
VERTEX
  5
1B2
  8
PART_LETTERS
 10
1.346992167117676
 20
33.04403345078541
 30
0.0
  0
VERTEX
  5
1B3
  8
PART_LETTERS
 10
1.371546018077984
 20
33.03636534174615
 30
0.0
  0
VERTEX
  5
1B4
  8
PART_LETTERS
 10
1.39485359329861
 20
33.02868613826409
 30
0.0
  0
VERTEX
  5
1B5
  8
PART_LETTERS
 10
1.416914892779553
 20
33.02099584033925
 30
0.0
  0
VERTEX
  5
1B6
  8
PART_LETTERS
 10
1.437729916520814
 20
33.01329444797162
 30
0.0
  0
VERTEX
  5
1B7
  8
PART_LETTERS
 10
1.457298664522391
 20
33.00558196116122
 30
0.0
  0
VERTEX
  5
1B8
  8
PART_LETTERS
 10
1.475621136784286
 20
32.99785837990802
 30
0.0
  0
VERTEX
  5
1B9
  8
PART_LETTERS
 10
1.492697333306497
 20
32.99012370421204
 30
0.0
  0
VERTEX
  5
1BA
  8
PART_LETTERS
 10
1.508527254089026
 20
32.98237793407326
 30
0.0
  0
VERTEX
  5
1BB
  8
PART_LETTERS
 10
1.523475166670029
 20
32.97451012506384
 30
0.0
  0
VERTEX
  5
1BC
  8
PART_LETTERS
 10
1.537905338587662
 20
32.9664093327559
 30
0.0
  0
VERTEX
  5
1BD
  8
PART_LETTERS
 10
1.551817769841926
 20
32.95807555714944
 30
0.0
  0
VERTEX
  5
1BE
  8
PART_LETTERS
 10
1.565212460432819
 20
32.94950879824448
 30
0.0
  0
VERTEX
  5
1BF
  8
PART_LETTERS
 10
1.578089410360343
 20
32.94070905604099
 30
0.0
  0
VERTEX
  5
1C0
  8
PART_LETTERS
 10
1.590448619624497
 20
32.93167633053899
 30
0.0
  0
VERTEX
  5
1C1
  8
PART_LETTERS
 10
1.602290088225282
 20
32.92241062173846
 30
0.0
  0
VERTEX
  5
1C2
  8
PART_LETTERS
 10
1.613613816162697
 20
32.91291192963944
 30
0.0
  0
VERTEX
  5
1C3
  8
PART_LETTERS
 10
1.624419803436741
 20
32.90318025424188
 30
0.0
  0
VERTEX
  5
1C4
  8
PART_LETTERS
 10
1.634708050047417
 20
32.89321559554582
 30
0.0
  0
VERTEX
  5
1C5
  8
PART_LETTERS
 10
1.644478555994722
 20
32.88301795355123
 30
0.0
  0
VERTEX
  5
1C6
  8
PART_LETTERS
 10
1.653731321278658
 20
32.87258732825813
 30
0.0
  0
VERTEX
  5
1C7
  8
PART_LETTERS
 10
1.662466345899224
 20
32.86192371966651
 30
0.0
  0
VERTEX
  5
1C8
  8
PART_LETTERS
 10
1.670683629856421
 20
32.85102712777638
 30
0.0
  0
VERTEX
  5
1C9
  8
PART_LETTERS
 10
1.678383173150247
 20
32.83989755258771
 30
0.0
  0
VERTEX
  5
1CA
  8
PART_LETTERS
 10
1.685564975780705
 20
32.82853499410055
 30
0.0
  0
VERTEX
  5
1CB
  8
PART_LETTERS
 10
1.69227156644514
 20
32.81697088656944
 30
0.0
  0
VERTEX
  5
1CC
  8
PART_LETTERS
 10
1.698545473840902
 20
32.80523666424892
 30
0.0
  0
VERTEX
  5
1CD
  8
PART_LETTERS
 10
1.704386697967991
 20
32.79333232713901
 30
0.0
  0
VERTEX
  5
1CE
  8
PART_LETTERS
 10
1.709795238826407
 20
32.7812578752397
 30
0.0
  0
VERTEX
  5
1CF
  8
PART_LETTERS
 10
1.71477109641615
 20
32.76901330855101
 30
0.0
  0
VERTEX
  5
1D0
  8
PART_LETTERS
 10
1.719314270737219
 20
32.75659862707292
 30
0.0
  0
VERTEX
  5
1D1
  8
PART_LETTERS
 10
1.723424761789615
 20
32.74401383080544
 30
0.0
  0
VERTEX
  5
1D2
  8
PART_LETTERS
 10
1.727102569573338
 20
32.73125891974857
 30
0.0
  0
VERTEX
  5
1D3
  8
PART_LETTERS
 10
1.730347694088387
 20
32.71833389390231
 30
0.0
  0
VERTEX
  5
1D4
  8
PART_LETTERS
 10
1.733160135334763
 20
32.70523875326665
 30
0.0
  0
VERTEX
  5
1D5
  8
PART_LETTERS
 10
1.735539893312466
 20
32.6919734978416
 30
0.0
  0
VERTEX
  5
1D6
  8
PART_LETTERS
 10
1.737486968021496
 20
32.67853812762715
 30
0.0
  0
VERTEX
  5
1D7
  8
PART_LETTERS
 10
1.739001359461852
 20
32.66493264262331
 30
0.0
  0
VERTEX
  5
1D8
  8
PART_LETTERS
 10
1.740083067633535
 20
32.65115704283009
 30
0.0
  0
VERTEX
  5
1D9
  8
PART_LETTERS
 10
1.740732092536545
 20
32.63721132824747
 30
0.0
  0
VERTEX
  5
1DA
  8
PART_LETTERS
 10
1.740948434170882
 20
32.62309549887544
 30
0.0
  0
VERTEX
  5
1DB
  8
PART_LETTERS
 10
1.740659978658433
 20
32.60649081617166
 30
0.0
  0
VERTEX
  5
1DC
  8
PART_LETTERS
 10
1.739794612121087
 20
32.59004885196208
 30
0.0
  0
VERTEX
  5
1DD
  8
PART_LETTERS
 10
1.738352334558842
 20
32.5737696062467
 30
0.0
  0
VERTEX
  5
1DE
  8
PART_LETTERS
 10
1.7363331459717
 20
32.55765307902551
 30
0.0
  0
VERTEX
  5
1DF
  8
PART_LETTERS
 10
1.733737046359661
 20
32.54169927029853
 30
0.0
  0
VERTEX
  5
1E0
  8
PART_LETTERS
 10
1.730564035722724
 20
32.52590818006576
 30
0.0
  0
VERTEX
  5
1E1
  8
PART_LETTERS
 10
1.726814114060889
 20
32.51027980832718
 30
0.0
  0
VERTEX
  5
1E2
  8
PART_LETTERS
 10
1.722487281374156
 20
32.49481415508281
 30
0.0
  0
VERTEX
  5
1E3
  8
PART_LETTERS
 10
1.717583537662526
 20
32.47951122033264
 30
0.0
  0
VERTEX
  5
1E4
  8
PART_LETTERS
 10
1.712102882925998
 20
32.46437100407667
 30
0.0
  0
VERTEX
  5
1E5
  8
PART_LETTERS
 10
1.706045317164572
 20
32.44939350631491
 30
0.0
  0
VERTEX
  5
1E6
  8
PART_LETTERS
 10
1.699410840378249
 20
32.43457872704734
 30
0.0
  0
VERTEX
  5
1E7
  8
PART_LETTERS
 10
1.692199452567028
 20
32.41992666627398
 30
0.0
  0
VERTEX
  5
1E8
  8
PART_LETTERS
 10
1.684411153730909
 20
32.40543732399482
 30
0.0
  0
VERTEX
  5
1E9
  8
PART_LETTERS
 10
1.676045943869893
 20
32.39111070020985
 30
0.0
  0
VERTEX
  5
1EA
  8
PART_LETTERS
 10
1.667103822983979
 20
32.3769467949191
 30
0.0
  0
VERTEX
  5
1EB
  8
PART_LETTERS
 10
1.657643961434695
 20
32.36307689236219
 30
0.0
  0
VERTEX
  5
1EC
  8
PART_LETTERS
 10
1.647725529583569
 20
32.34963227677876
 30
0.0
  0
VERTEX
  5
1ED
  8
PART_LETTERS
 10
1.637348527430602
 20
32.3366129481688
 30
0.0
  0
VERTEX
  5
1EE
  8
PART_LETTERS
 10
1.626512954975793
 20
32.32401890653233
 30
0.0
  0
VERTEX
  5
1EF
  8
PART_LETTERS
 10
1.615218812219143
 20
32.31185015186934
 30
0.0
  0
VERTEX
  5
1F0
  8
PART_LETTERS
 10
1.60346609916065
 20
32.30010668417984
 30
0.0
  0
VERTEX
  5
1F1
  8
PART_LETTERS
 10
1.591254815800316
 20
32.28878850346382
 30
0.0
  0
VERTEX
  5
1F2
  8
PART_LETTERS
 10
1.57858496213814
 20
32.27789560972128
 30
0.0
  0
VERTEX
  5
1F3
  8
PART_LETTERS
 10
1.565456538174122
 20
32.26742800295222
 30
0.0
  0
VERTEX
  5
1F4
  8
PART_LETTERS
 10
1.551869543908262
 20
32.25738568315665
 30
0.0
  0
VERTEX
  5
1F5
  8
PART_LETTERS
 10
1.537823979340561
 20
32.24776865033456
 30
0.0
  0
VERTEX
  5
1F6
  8
PART_LETTERS
 10
1.523319844471018
 20
32.23857690448595
 30
0.0
  0
VERTEX
  5
1F7
  8
PART_LETTERS
 10
1.508357139299634
 20
32.22981044561081
 30
0.0
  0
VERTEX
  5
1F8
  8
PART_LETTERS
 10
1.492935863826407
 20
32.22146927370918
 30
0.0
  0
VERTEX
  5
1F9
  8
PART_LETTERS
 10
1.477056018051339
 20
32.21355338878101
 30
0.0
  0
VERTEX
  5
1FA
  8
PART_LETTERS
 10
1.460717601974429
 20
32.20606279082633
 30
0.0
  0
VERTEX
  5
1FB
  8
PART_LETTERS
 10
1.443879935972127
 20
32.19901227243552
 30
0.0
  0
VERTEX
  5
1FC
  8
PART_LETTERS
 10
1.426502340420882
 20
32.19241662619895
 30
0.0
  0
VERTEX
  5
1FD
  8
PART_LETTERS
 10
1.408584815320694
 20
32.18627585211662
 30
0.0
  0
VERTEX
  5
1FE
  8
PART_LETTERS
 10
1.390127360671564
 20
32.18058995018855
 30
0.0
  0
VERTEX
  5
1FF
  8
PART_LETTERS
 10
1.371129976473491
 20
32.17535892041472
 30
0.0
  0
VERTEX
  5
200
  8
PART_LETTERS
 10
1.351592662726475
 20
32.17058276279513
 30
0.0
  0
VERTEX
  5
201
  8
PART_LETTERS
 10
1.331515419430517
 20
32.16626147732979
 30
0.0
  0
VERTEX
  5
202
  8
PART_LETTERS
 10
1.310898246585616
 20
32.1623950640187
 30
0.0
  0
VERTEX
  5
203
  8
PART_LETTERS
 10
1.289741144191772
 20
32.15898352286185
 30
0.0
  0
VERTEX
  5
204
  8
PART_LETTERS
 10
1.268044112248986
 20
32.15602685385925
 30
0.0
  0
VERTEX
  5
205
  8
PART_LETTERS
 10
1.245807150757256
 20
32.1535250570109
 30
0.0
  0
VERTEX
  5
206
  8
PART_LETTERS
 10
1.223030259716584
 20
32.15147813231678
 30
0.0
  0
VERTEX
  5
207
  8
PART_LETTERS
 10
1.19971343912697
 20
32.14988607977692
 30
0.0
  0
VERTEX
  5
208
  8
PART_LETTERS
 10
1.175856688988413
 20
32.14874889939131
 30
0.0
  0
VERTEX
  5
209
  8
PART_LETTERS
 10
1.151460009300913
 20
32.14806659115994
 30
0.0
  0
VERTEX
  5
20A
  8
PART_LETTERS
 10
1.12652340006447
 20
32.14783915508281
 30
0.0
  0
VERTEX
  5
20B
  8
PART_LETTERS
 10
1.083114543588515
 20
32.14837168833657
 30
0.0
  0
VERTEX
  5
20C
  8
PART_LETTERS
 10
1.041406835006489
 20
32.14996928809782
 30
0.0
  0
VERTEX
  5
20D
  8
PART_LETTERS
 10
1.001400274318392
 20
32.15263195436658
 30
0.0
  0
VERTEX
  5
20E
  8
PART_LETTERS
 10
0.9820349244345671
 20
32.15436268744128
 30
0.0
  0
VERTEX
  5
20F
  8
PART_LETTERS
 10
0.9630948615242243
 20
32.15635968714284
 30
0.0
  0
VERTEX
  5
210
  8
PART_LETTERS
 10
0.9445800855873638
 20
32.15862295347129
 30
0.0
  0
VERTEX
  5
211
  8
PART_LETTERS
 10
0.9264905966239856
 20
32.16115248642662
 30
0.0
  0
VERTEX
  5
212
  8
PART_LETTERS
 10
0.9088263946340895
 20
32.1639482860088
 30
0.0
  0
VERTEX
  5
213
  8
PART_LETTERS
 10
0.8915874796176758
 20
32.16701035221787
 30
0.0
  0
VERTEX
  5
214
  8
PART_LETTERS
 10
0.8747738515747443
 20
32.17033868505382
 30
0.0
  0
VERTEX
  5
215
  8
PART_LETTERS
 10
0.8583855105052952
 20
32.17393328451665
 30
0.0
  0
VERTEX
  5
216
  8
PART_LETTERS
 10
0.8424224564093283
 20
32.17779415060635
 30
0.0
  0
VERTEX
  5
217
  8
PART_LETTERS
 10
0.8268846892868437
 20
32.18192128332292
 30
0.0
  0
VERTEX
  5
218
  8
PART_LETTERS
 10
0.8117722091378412
 20
32.18631468266638
 30
0.0
  0
VERTEX
  5
219
  8
PART_LETTERS
 10
0.7970850159623212
 20
32.1909743486367
 30
0.0
  0
VERTEX
  5
21A
  8
PART_LETTERS
 10
0.7828231097602834
 20
32.1959002812339
 30
0.0
  0
VERTEX
  5
21B
  8
PART_LETTERS
 10
0.7689864905317277
 20
32.20109248045798
 30
0.0
  0
VERTEX
  5
21C
  8
PART_LETTERS
 10
0.7555751582766543
 20
32.20655094630894
 30
0.0
  0
VERTEX
  5
21D
  8
PART_LETTERS
 10
0.7425891129950634
 20
32.21227567878677
 30
0.0
  0
VERTEX
  5
21E
  8
PART_LETTERS
 10
0.7300283546869546
 20
32.21826667789147
 30
0.0
  0
VERTEX
  5
21F
  8
PART_LETTERS
 10
0.717892883352328
 20
32.22452394362305
 30
0.0
  0
VERTEX
  5
220
  8
PART_LETTERS
 10
0.7061826989911837
 20
32.23104747598151
 30
0.0
  0
VERTEX
  5
221
  8
PART_LETTERS
 10
0.6948978016035218
 20
32.23783727496685
 30
0.0
  0
VERTEX
  5
222
  8
PART_LETTERS
 10
0.6840381911893421
 20
32.24489334057905
 30
0.0
  0
VERTEX
  5
223
  8
PART_LETTERS
 10
0.6736038677486446
 20
32.25221567281814
 30
0.0
  0
VERTEX
  5
224
  8
PART_LETTERS
 10
0.6635948312814293
 20
32.2598042716841
 30
0.0
  0
VERTEX
  5
225
  8
PART_LETTERS
 10
0.6540110817876964
 20
32.26765913717694
 30
0.0
  0
VERTEX
  5
226
  8
PART_LETTERS
 10
0.6448526192674457
 20
32.27578026929665
 30
0.0
  0
VERTEX
  5
227
  8
PART_LETTERS
 10
0.6361194437206773
 20
32.28416766804325
 30
0.0
  0
VERTEX
  5
228
  8
PART_LETTERS
 10
0.61954064805006
 20
32.30149718767575
 30
0.0
  0
VERTEX
  5
229
  8
PART_LETTERS
 10
0.6038863892783172
 20
32.31940361833315
 30
0.0
  0
VERTEX
  5
22A
  8
PART_LETTERS
 10
0.5891566674054489
 20
32.33788696001545
 30
0.0
  0
VERTEX
  5
22B
  8
PART_LETTERS
 10
0.575351482431455
 20
32.35694721272264
 30
0.0
  0
VERTEX
  5
22C
  8
PART_LETTERS
 10
0.5624708343563356
 20
32.37658437645474
 30
0.0
  0
VERTEX
  5
22D
  8
PART_LETTERS
 10
0.5505147231800906
 20
32.39679845121173
 30
0.0
  0
VERTEX
  5
22E
  8
PART_LETTERS
 10
0.5394831489027203
 20
32.41758943699362
 30
0.0
  0
VERTEX
  5
22F
  8
PART_LETTERS
 10
0.5293761115242244
 20
32.43895733380042
 30
0.0
  0
VERTEX
  5
230
  8
PART_LETTERS
 10
0.520193611044603
 20
32.4609021416321
 30
0.0
  0
VERTEX
  5
231
  8
PART_LETTERS
 10
0.511935647463856
 20
32.48342386048868
 30
0.0
  0
VERTEX
  5
232
  8
PART_LETTERS
 10
0.5046022207819836
 20
32.50652249037016
 30
0.0
  0
VERTEX
  5
233
  8
PART_LETTERS
 10
0.4981933309989856
 20
32.53019803127654
 30
0.0
  0
VERTEX
  5
234
  8
PART_LETTERS
 10
0.4927089781148622
 20
32.55445048320782
 30
0.0
  0
VERTEX
  5
235
  8
PART_LETTERS
 10
0.4881491621296132
 20
32.57927984616398
 30
0.0
  0
VERTEX
  5
236
  8
PART_LETTERS
 10
0.4845138830432387
 20
32.60468612014505
 30
0.0
  0
SEQEND
  5
4C0
  8
PART_LETTERS
  0
POLYLINE
  5
71
  8
PART_LETTERS
 66
     1
 10
0.0
 20
0.0
 30
0.0
 70
     1
  0
VERTEX
  5
237
  8
PART_LETTERS
 10
2.768145910296379
 20
33.58307544430519
 30
0.0
  0
VERTEX
  5
238
  8
PART_LETTERS
 10
2.768145910296379
 20
32.171507299694
 30
0.0
  0
VERTEX
  5
239
  8
PART_LETTERS
 10
2.378094887104019
 20
32.171507299694
 30
0.0
  0
VERTEX
  5
23A
  8
PART_LETTERS
 10
2.378094887104019
 20
33.09645839109918
 30
0.0
  0
VERTEX
  5
23B
  8
PART_LETTERS
 10
2.354522894330315
 20
33.07889958631576
 30
0.0
  0
VERTEX
  5
23C
  8
PART_LETTERS
 10
2.331143205231577
 20
33.0621987517745
 30
0.0
  0
VERTEX
  5
23D
  8
PART_LETTERS
 10
2.307955819807805
 20
33.04635588747539
 30
0.0
  0
VERTEX
  5
23E
  8
PART_LETTERS
 10
2.284960738058999
 20
33.03137099341842
 30
0.0
  0
VERTEX
  5
23F
  8
PART_LETTERS
 10
2.262157959985158
 20
33.01724406960362
 30
0.0
  0
VERTEX
  5
240
  8
PART_LETTERS
 10
2.239547485586284
 20
33.00397511603097
 30
0.0
  0
VERTEX
  5
241
  8
PART_LETTERS
 10
2.217129314862375
 20
32.99156413270049
 30
0.0
  0
VERTEX
  5
242
  8
PART_LETTERS
 10
2.194903447813432
 20
32.98001111961214
 30
0.0
  0
VERTEX
  5
243
  8
PART_LETTERS
 10
2.172071084558828
 20
32.96894626200641
 30
0.0
  0
VERTEX
  5
244
  8
PART_LETTERS
 10
2.147833425217934
 20
32.95799974512374
 30
0.0
  0
VERTEX
  5
245
  8
PART_LETTERS
 10
2.122190469790752
 20
32.94717156896412
 30
0.0
  0
VERTEX
  5
246
  8
PART_LETTERS
 10
2.095142218277279
 20
32.93646173352757
 30
0.0
  0
VERTEX
  5
247
  8
PART_LETTERS
 10
2.066688670677518
 20
32.92587023881406
 30
0.0
  0
VERTEX
  5
248
  8
PART_LETTERS
 10
2.036829826991467
 20
32.9153970848236
 30
0.0
  0
VERTEX
  5
249
  8
PART_LETTERS
 10
2.005565687219128
 20
32.90504227155621
 30
0.0
  0
VERTEX
  5
24A
  8
PART_LETTERS
 10
1.972896251360499
 20
32.89480579901187
 30
0.0
  0
VERTEX
  5
24B
  8
PART_LETTERS
 10
1.972896251360499
 20
33.21101221101733
 30
0.0
  0
VERTEX
  5
24C
  8
PART_LETTERS
 10
1.997167194029752
 20
33.21904088944716
 30
0.0
  0
VERTEX
  5
24D
  8
PART_LETTERS
 10
2.020750281246243
 20
33.22726926784715
 30
0.0
  0
VERTEX
  5
24E
  8
PART_LETTERS
 10
2.04364551300997
 20
33.23569734621729
 30
0.0
  0
VERTEX
  5
24F
  8
PART_LETTERS
 10
2.065852889320936
 20
33.24432512455758
 30
0.0
  0
VERTEX
  5
250
  8
PART_LETTERS
 10
2.087372410179138
 20
33.25315260286804
 30
0.0
  0
VERTEX
  5
251
  8
PART_LETTERS
 10
2.108204075584578
 20
33.26217978114865
 30
0.0
  0
VERTEX
  5
252
  8
PART_LETTERS
 10
2.128347885537256
 20
33.27140665939942
 30
0.0
  0
VERTEX
  5
253
  8
PART_LETTERS
 10
2.147803840037171
 20
33.28083323762033
 30
0.0
  0
VERTEX
  5
254
  8
PART_LETTERS
 10
2.166571939084323
 20
33.29045951581142
 30
0.0
  0
VERTEX
  5
255
  8
PART_LETTERS
 10
2.184652182678712
 20
33.30028549397265
 30
0.0
  0
VERTEX
  5
256
  8
PART_LETTERS
 10
2.202044570820339
 20
33.31031117210404
 30
0.0
  0
VERTEX
  5
257
  8
PART_LETTERS
 10
2.218749103509203
 20
33.32053655020559
 30
0.0
  0
VERTEX
  5
258
  8
PART_LETTERS
 10
2.234765780745305
 20
33.3309616282773
 30
0.0
  0
VERTEX
  5
259
  8
PART_LETTERS
 10
2.250094602528644
 20
33.34158640631917
 30
0.0
  0
VERTEX
  5
25A
  8
PART_LETTERS
 10
2.26473556885922
 20
33.35241088433119
 30
0.0
  0
VERTEX
  5
25B
  8
PART_LETTERS
 10
2.278688679737034
 20
33.36343506231337
 30
0.0
  0
VERTEX
  5
25C
  8
PART_LETTERS
 10
2.292112955508692
 20
33.37472180877484
 30
0.0
  0
VERTEX
  5
25D
  8
PART_LETTERS
 10
2.305167416520799
 20
33.38633399222469
 30
0.0
  0
VERTEX
  5
25E
  8
PART_LETTERS
 10
2.317852062773357
 20
33.39827161266297
 30
0.0
  0
VERTEX
  5
25F
  8
PART_LETTERS
 10
2.330166894266365
 20
33.41053467008963
 30
0.0
  0
VERTEX
  5
260
  8
PART_LETTERS
 10
2.342111910999823
 20
33.4231231645047
 30
0.0
  0
VERTEX
  5
261
  8
PART_LETTERS
 10
2.353687112973732
 20
33.43603709590818
 30
0.0
  0
VERTEX
  5
262
  8
PART_LETTERS
 10
2.364892500188091
 20
33.44927646430007
 30
0.0
  0
VERTEX
  5
263
  8
PART_LETTERS
 10
2.3757280726429
 20
33.46284126968035
 30
0.0
  0
VERTEX
  5
264
  8
PART_LETTERS
 10
2.386193830338159
 20
33.47673151204905
 30
0.0
  0
VERTEX
  5
265
  8
PART_LETTERS
 10
2.396289773273868
 20
33.49094719140614
 30
0.0
  0
VERTEX
  5
266
  8
PART_LETTERS
 10
2.406015901450028
 20
33.50548830775163
 30
0.0
  0
VERTEX
  5
267
  8
PART_LETTERS
 10
2.415372214866638
 20
33.52035486108554
 30
0.0
  0
VERTEX
  5
268
  8
PART_LETTERS
 10
2.424358713523698
 20
33.53554685140784
 30
0.0
  0
VERTEX
  5
269
  8
PART_LETTERS
 10
2.432975397421208
 20
33.55106427871855
 30
0.0
  0
VERTEX
  5
26A
  8
PART_LETTERS
 10
2.441222266559169
 20
33.56690714301767
 30
0.0
  0
VERTEX
  5
26B
  8
PART_LETTERS
 10
2.44909932093758
 20
33.58307544430519
 30
0.0
  0
SEQEND
  5
4C1
  8
PART_LETTERS
  0
POLYLINE
  5
72
  8
PART_LETTERS
 66
     1
 10
0.0
 20
0.0
 30
0.0
 70
     1
  0
VERTEX
  5
26C
  8
PART_LETTERS
 10
0.4242182481108685
 20
77.41418690322536
 30
0.0
  0
VERTEX
  5
26D
  8
PART_LETTERS
 10
0.8322570612077307
 20
77.43974849940544
 30
0.0
  0
VERTEX
  5
26E
  8
PART_LETTERS
 10
0.8359995865743746
 20
77.4156365770828
 30
0.0
  0
VERTEX
  5
26F
  8
PART_LETTERS
 10
0.8406000821831741
 20
77.39300391379834
 30
0.0
  0
VERTEX
  5
270
  8
PART_LETTERS
 10
0.843222068828382
 20
77.38224230429543
 30
0.0
  0
VERTEX
  5
271
  8
PART_LETTERS
 10
0.8460585480341289
 20
77.37185050955209
 30
0.0
  0
VERTEX
  5
272
  8
PART_LETTERS
 10
0.8491095198004147
 20
77.36182852956829
 30
0.0
  0
VERTEX
  5
273
  8
PART_LETTERS
 10
0.8523749841272394
 20
77.35217636434403
 30
0.0
  0
VERTEX
  5
274
  8
PART_LETTERS
 10
0.855854941014603
 20
77.34289401387933
 30
0.0
  0
VERTEX
  5
275
  8
PART_LETTERS
 10
0.8595493904625056
 20
77.33398147817418
 30
0.0
  0
VERTEX
  5
276
  8
PART_LETTERS
 10
0.8634583324709468
 20
77.32543875722858
 30
0.0
  0
VERTEX
  5
277
  8
PART_LETTERS
 10
0.8675817670399271
 20
77.31726585104254
 30
0.0
  0
VERTEX
  5
278
  8
PART_LETTERS
 10
0.8719196941694461
 20
77.30946275961604
 30
0.0
  0
VERTEX
  5
279
  8
PART_LETTERS
 10
0.8764721138595042
 20
77.30202948294908
 30
0.0
  0
VERTEX
  5
27A
  8
PART_LETTERS
 10
0.881239026110101
 20
77.29496602104167
 30
0.0
  0
VERTEX
  5
27B
  8
PART_LETTERS
 10
0.8862204309212367
 20
77.28827237389383
 30
0.0
  0
VERTEX
  5
27C
  8
PART_LETTERS
 10
0.894726170390882
 20
77.27806918467785
 30
0.0
  0
VERTEX
  5
27D
  8
PART_LETTERS
 10
0.903675687571987
 20
77.26852426573387
 30
0.0
  0
VERTEX
  5
27E
  8
PART_LETTERS
 10
0.9130689824645518
 20
77.2596376170619
 30
0.0
  0
VERTEX
  5
27F
  8
PART_LETTERS
 10
0.9229060550685764
 20
77.25140923866192
 30
0.0
  0
VERTEX
  5
280
  8
PART_LETTERS
 10
0.9331869053840607
 20
77.24383913053393
 30
0.0
  0
VERTEX
  5
281
  8
PART_LETTERS
 10
0.9439115334110049
 20
77.23692729267793
 30
0.0
  0
VERTEX
  5
282
  8
PART_LETTERS
 10
0.9550799391494087
 20
77.23067372509395
 30
0.0
  0
VERTEX
  5
283
  8
PART_LETTERS
 10
0.9666921225992722
 20
77.22507842778197
 30
0.0
  0
VERTEX
  5
284
  8
PART_LETTERS
 10
0.9787480837605955
 20
77.22014140074198
 30
0.0
  0
VERTEX
  5
285
  8
PART_LETTERS
 10
0.9912478226333787
 20
77.21586264397399
 30
0.0
  0
VERTEX
  5
286
  8
PART_LETTERS
 10
1.004191339217622
 20
77.212242157478
 30
0.0
  0
VERTEX
  5
287
  8
PART_LETTERS
 10
1.017578633513324
 20
77.20927994125401
 30
0.0
  0
VERTEX
  5
288
  8
PART_LETTERS
 10
1.031409705520486
 20
77.20697599530202
 30
0.0
  0
VERTEX
  5
289
  8
PART_LETTERS
 10
1.045684555239109
 20
77.20533031962202
 30
0.0
  0
VERTEX
  5
28A
  8
PART_LETTERS
 10
1.06040318266919
 20
77.20434291421401
 30
0.0
  0
VERTEX
  5
28B
  8
PART_LETTERS
 10
1.075565587810732
 20
77.20401377907801
 30
0.0
  0
VERTEX
  5
28C
  8
PART_LETTERS
 10
1.086880070379158
 20
77.20418204479361
 30
0.0
  0
VERTEX
  5
28D
  8
PART_LETTERS
 10
1.097865417811585
 20
77.20468684194039
 30
0.0
  0
VERTEX
  5
28E
  8
PART_LETTERS
 10
1.108521630108012
 20
77.20552817051836
 30
0.0
  0
VERTEX
  5
28F
  8
PART_LETTERS
 10
1.11884870726844
 20
77.20670603052753
 30
0.0
  0
VERTEX
  5
290
  8
PART_LETTERS
 10
1.128846649292869
 20
77.20822042196788
 30
0.0
  0
VERTEX
  5
291
  8
PART_LETTERS
 10
1.138515456181298
 20
77.21007134483943
 30
0.0
  0
VERTEX
  5
292
  8
PART_LETTERS
 10
1.147855127933728
 20
77.21225879914216
 30
0.0
  0
VERTEX
  5
293
  8
PART_LETTERS
 10
1.156865664550159
 20
77.21478278487609
 30
0.0
  0
VERTEX
  5
294
  8
PART_LETTERS
 10
1.16554706603059
 20
77.21764330204121
 30
0.0
  0
VERTEX
  5
295
  8
PART_LETTERS
 10
1.173899332375023
 20
77.22084035063753
 30
0.0
  0
VERTEX
  5
296
  8
PART_LETTERS
 10
1.181922463583455
 20
77.22437393066502
 30
0.0
  0
VERTEX
  5
297
  8
PART_LETTERS
 10
1.189616459655889
 20
77.22824404212372
 30
0.0
  0
VERTEX
  5
298
  8
PART_LETTERS
 10
1.196981320592323
 20
77.23245068501359
 30
0.0
  0
VERTEX
  5
299
  8
PART_LETTERS
 10
1.204017046392758
 20
77.23699385933466
 30
0.0
  0
VERTEX
  5
29A
  8
PART_LETTERS
 10
1.210723637057193
 20
77.24187356508692
 30
0.0
  0
VERTEX
  5
29B
  8
PART_LETTERS
 10
1.21710109258563
 20
77.24708980227037
 30
0.0
  0
VERTEX
  5
29C
  8
PART_LETTERS
 10
1.223119827797303
 20
77.25252792830953
 30
0.0
  0
VERTEX
  5
29D
  8
PART_LETTERS
 10
1.228750257511448
 20
77.258073300629
 30
0.0
  0
VERTEX
  5
29E
  8
PART_LETTERS
 10
1.233992381728067
 20
77.26372591922872
 30
0.0
  0
VERTEX
  5
29F
  8
PART_LETTERS
 10
1.238846200447158
 20
77.26948578410871
 30
0.0
  0
VERTEX
  5
2A0
  8
PART_LETTERS
 10
1.243311713668722
 20
77.27535289526897
 30
0.0
  0
VERTEX
  5
2A1
  8
PART_LETTERS
 10
1.247388921392758
 20
77.28132725270949
 30
0.0
  0
VERTEX
  5
2A2
  8
PART_LETTERS
 10
1.251077823619267
 20
77.28740885643028
 30
0.0
  0
VERTEX
  5
2A3
  8
PART_LETTERS
 10
1.254378420348249
 20
77.29359770643134
 30
0.0
  0
VERTEX
  5
2A4
  8
PART_LETTERS
 10
1.257290711579704
 20
77.29989380271267
 30
0.0
  0
VERTEX
  5
2A5
  8
PART_LETTERS
 10
1.259814697313631
 20
77.30629714527429
 30
0.0
  0
VERTEX
  5
2A6
  8
PART_LETTERS
 10
1.261950377550031
 20
77.31280773411616
 30
0.0
  0
VERTEX
  5
2A7
  8
PART_LETTERS
 10
1.263697752288904
 20
77.3194255692383
 30
0.0
  0
VERTEX
  5
2A8
  8
PART_LETTERS
 10
1.26505682153025
 20
77.32615065064071
 30
0.0
  0
VERTEX
  5
2A9
  8
PART_LETTERS
 10
1.266027585274068
 20
77.3329829783234
 30
0.0
  0
VERTEX
  5
2AA
  8
PART_LETTERS
 10
1.266610043520358
 20
77.33992255228635
 30
0.0
  0
VERTEX
  5
2AB
  8
PART_LETTERS
 10
1.266804196269122
 20
77.34696937252959
 30
0.0
  0
VERTEX
  5
2AC
  8
PART_LETTERS
 10
1.266619288889347
 20
77.35367041597263
 30
0.0
  0
VERTEX
  5
2AD
  8
PART_LETTERS
 10
1.266064566750023
 20
77.36028270387337
 30
0.0
  0
VERTEX
  5
2AE
  8
PART_LETTERS
 10
1.265140029851148
 20
77.36680623623184
 30
0.0
  0
VERTEX
  5
2AF
  8
PART_LETTERS
 10
1.263845678192724
 20
77.373241013048
 30
0.0
  0
VERTEX
  5
2B0
  8
PART_LETTERS
 10
1.26218151177475
 20
77.37958703432189
 30
0.0
  0
VERTEX
  5
2B1
  8
PART_LETTERS
 10
1.260147530597226
 20
77.38584430005346
 30
0.0
  0
VERTEX
  5
2B2
  8
PART_LETTERS
 10
1.257743734660152
 20
77.39201281024276
 30
0.0
  0
VERTEX
  5
2B3
  8
PART_LETTERS
 10
1.254970123963529
 20
77.39809256488975
 30
0.0
  0
VERTEX
  5
2B4
  8
PART_LETTERS
 10
1.251826698507355
 20
77.40408356399445
 30
0.0
  0
VERTEX
  5
2B5
  8
PART_LETTERS
 10
1.248313458291632
 20
77.40998580755686
 30
0.0
  0
VERTEX
  5
2B6
  8
PART_LETTERS
 10
1.24443040331636
 20
77.41579929557699
 30
0.0
  0
VERTEX
  5
2B7
  8
PART_LETTERS
 10
1.240177533581537
 20
77.42152402805482
 30
0.0
  0
VERTEX
  5
2B8
  8
PART_LETTERS
 10
1.235554849087165
 20
77.42716000499036
 30
0.0
  0
VERTEX
  5
2B9
  8
PART_LETTERS
 10
1.230562349833242
 20
77.4327072263836
 30
0.0
  0
VERTEX
  5
2BA
  8
PART_LETTERS
 10
1.22520003581977
 20
77.43816569223458
 30
0.0
  0
VERTEX
  5
2BB
  8
PART_LETTERS
 10
1.219467907046748
 20
77.44353540254322
 30
0.0
  0
VERTEX
  5
2BC
  8
PART_LETTERS
 10
1.213062715411346
 20
77.44884224434276
 30
0.0
  0
VERTEX
  5
2BD
  8
PART_LETTERS
 10
1.205681212810732
 20
77.45411210466634
 30
0.0
  0
VERTEX
  5
2BE
  8
PART_LETTERS
 10
1.197323399244907
 20
77.45934498351397
 30
0.0
  0
VERTEX
  5
2BF
  8
PART_LETTERS
 10
1.18798927471387
 20
77.46454088088565
 30
0.0
  0
VERTEX
  5
2C0
  8
PART_LETTERS
 10
1.177678839217621
 20
77.46969979678137
 30
0.0
  0
VERTEX
  5
2C1
  8
PART_LETTERS
 10
1.166392092756162
 20
77.47482173120113
 30
0.0
  0
VERTEX
  5
2C2
  8
PART_LETTERS
 10
1.154129035329491
 20
77.47990668414495
 30
0.0
  0
VERTEX
  5
2C3
  8
PART_LETTERS
 10
1.140889666937608
 20
77.4849546556128
 30
0.0
  0
VERTEX
  5
2C4
  8
PART_LETTERS
 10
1.126673987580514
 20
77.4899656456047
 30
0.0
  0
VERTEX
  5
2C5
  8
PART_LETTERS
 10
1.111481997258208
 20
77.49493965412064
 30
0.0
  0
VERTEX
  5
2C6
  8
PART_LETTERS
 10
1.095313695970691
 20
77.49987668116063
 30
0.0
  0
VERTEX
  5
2C7
  8
PART_LETTERS
 10
1.078169083717963
 20
77.50477672672467
 30
0.0
  0
VERTEX
  5
2C8
  8
PART_LETTERS
 10
1.040950926316871
 20
77.51446587342487
 30
0.0
  0
VERTEX
  5
2C9
  8
PART_LETTERS
 10
0.999827525054934
 20
77.52400709422126
 30
0.0
  0
VERTEX
  5
2CA
  8
PART_LETTERS
 10
0.9651943728230956
 20
77.53209864116022
 30
0.0
  0
VERTEX
  5
2CB
  8
PART_LETTERS
 10
0.9318259870689176
 20
77.54051562508756
 30
0.0
  0
VERTEX
  5
2CC
  8
PART_LETTERS
 10
0.8997223677923999
 20
77.54925804600333
 30
0.0
  0
VERTEX
  5
2CD
  8
PART_LETTERS
 10
0.8688835149935424
 20
77.55832590390747
 30
0.0
  0
VERTEX
  5
2CE
  8
PART_LETTERS
 10
0.8393094286723453
 20
77.56771919880005
 30
0.0
  0
VERTEX
  5
2CF
  8
PART_LETTERS
 10
0.8110001088288085
 20
77.57743793068101
 30
0.0
  0
VERTEX
  5
2D0
  8
PART_LETTERS
 10
0.7839555554629319
 20
77.58748209955039
 30
0.0
  0
VERTEX
  5
2D1
  8
PART_LETTERS
 10
0.7581757685747157
 20
77.59785170540816
 30
0.0
  0
VERTEX
  5
2D2
  8
PART_LETTERS
 10
0.7336607481641598
 20
77.60854674825435
 30
0.0
  0
VERTEX
  5
2D3
  8
PART_LETTERS
 10
0.7104104942312641
 20
77.61956722808894
 30
0.0
  0
VERTEX
  5
2D4
  8
PART_LETTERS
 10
0.6884250067760289
 20
77.63091314491193
 30
0.0
  0
VERTEX
  5
2D5
  8
PART_LETTERS
 10
0.6677042857984539
 20
77.64258449872331
 30
0.0
  0
VERTEX
  5
2D6
  8
PART_LETTERS
 10
0.6482483312985391
 20
77.6545812895231
 30
0.0
  0
VERTEX
  5
2D7
  8
PART_LETTERS
 10
0.6300571432762846
 20
77.6669035173113
 30
0.0
  0
VERTEX
  5
2D8
  8
PART_LETTERS
 10
0.6131307217316905
 20
77.67955118208789
 30
0.0
  0
VERTEX
  5
2D9
  8
PART_LETTERS
 10
0.5974690666647566
 20
77.6925242838529
 30
0.0
  0
VERTEX
  5
2DA
  8
PART_LETTERS
 10
0.5827948170058207
 20
77.70588569111544
 30
0.0
  0
VERTEX
  5
2DB
  8
PART_LETTERS
 10
0.5690672931313323
 20
77.71969827238462
 30
0.0
  0
VERTEX
  5
2DC
  8
PART_LETTERS
 10
0.5562864950412914
 20
77.73396202766045
 30
0.0
  0
VERTEX
  5
2DD
  8
PART_LETTERS
 10
0.5444524227356979
 20
77.74867695694294
 30
0.0
  0
VERTEX
  5
2DE
  8
PART_LETTERS
 10
0.5335650762145521
 20
77.76384306023209
 30
0.0
  0
VERTEX
  5
2DF
  8
PART_LETTERS
 10
0.5236244554778535
 20
77.77946033752788
 30
0.0
  0
VERTEX
  5
2E0
  8
PART_LETTERS
 10
0.5146305605256025
 20
77.79552878883032
 30
0.0
  0
VERTEX
  5
2E1
  8
PART_LETTERS
 10
0.506583391357799
 20
77.81204841413941
 30
0.0
  0
VERTEX
  5
2E2
  8
PART_LETTERS
 10
0.4994829479744429
 20
77.82901921345514
 30
0.0
  0
VERTEX
  5
2E3
  8
PART_LETTERS
 10
0.4933292303755343
 20
77.84644118677753
 30
0.0
  0
VERTEX
  5
2E4
  8
PART_LETTERS
 10
0.4881222385610732
 20
77.86431433410657
 30
0.0
  0
VERTEX
  5
2E5
  8
PART_LETTERS
 10
0.4838619725310596
 20
77.88263865544226
 30
0.0
  0
VERTEX
  5
2E6
  8
PART_LETTERS
 10
0.4805484322854934
 20
77.90141415078462
 30
0.0
  0
VERTEX
  5
2E7
  8
PART_LETTERS
 10
0.4781816178243747
 20
77.92064082013361
 30
0.0
  0
VERTEX
  5
2E8
  8
PART_LETTERS
 10
0.4767615291477035
 20
77.94031866348925
 30
0.0
  0
VERTEX
  5
2E9
  8
PART_LETTERS
 10
0.4762881662554798
 20
77.96044768085154
 30
0.0
  0
VERTEX
  5
2EA
  8
PART_LETTERS
 10
0.4765303949229849
 20
77.97377395571192
 30
0.0
  0
VERTEX
  5
2EB
  8
PART_LETTERS
 10
0.4772570809255002
 20
77.98700777688241
 30
0.0
  0
VERTEX
  5
2EC
  8
PART_LETTERS
 10
0.4784682242630258
 20
78.00014914436301
 30
0.0
  0
VERTEX
  5
2ED
  8
PART_LETTERS
 10
0.4801638249355616
 20
78.01319805815373
 30
0.0
  0
VERTEX
  5
2EE
  8
PART_LETTERS
 10
0.4823438829431077
 20
78.02615451825454
 30
0.0
  0
VERTEX
  5
2EF
  8
PART_LETTERS
 10
0.485008398285664
 20
78.0390185246655
 30
0.0
  0
VERTEX
  5
2F0
  8
PART_LETTERS
 10
0.4881573709632305
 20
78.05179007738653
 30
0.0
  0
VERTEX
  5
2F1
  8
PART_LETTERS
 10
0.4917908009758072
 20
78.0644691764177
 30
0.0
  0
VERTEX
  5
2F2
  8
PART_LETTERS
 10
0.4959086883233942
 20
78.07705582175899
 30
0.0
  0
VERTEX
  5
2F3
  8
PART_LETTERS
 10
0.5005110330059914
 20
78.08955001341037
 30
0.0
  0
VERTEX
  5
2F4
  8
PART_LETTERS
 10
0.5055978350235989
 20
78.10195175137187
 30
0.0
  0
VERTEX
  5
2F5
  8
PART_LETTERS
 10
0.5111690943762166
 20
78.1142610356435
 30
0.0
  0
VERTEX
  5
2F6
  8
PART_LETTERS
 10
0.5172248110638445
 20
78.12647786622523
 30
0.0
  0
VERTEX
  5
2F7
  8
PART_LETTERS
 10
0.5237649850864827
 20
78.13860224311706
 30
0.0
  0
VERTEX
  5
2F8
  8
PART_LETTERS
 10
0.530789616444131
 20
78.15063416631901
 30
0.0
  0
VERTEX
  5
2F9
  8
PART_LETTERS
 10
0.5382987051367896
 20
78.16257363583108
 30
0.0
  0
VERTEX
  5
2FA
  8
PART_LETTERS
 10
0.5462941002382562
 20
78.1743078581516
 30
0.0
  0
VERTEX
  5
2FB
  8
PART_LETTERS
 10
0.5547776508223283
 20
78.18572403977889
 30
0.0
  0
VERTEX
  5
2FC
  8
PART_LETTERS
 10
0.5637493568890064
 20
78.19682218071299
 30
0.0
  0
VERTEX
  5
2FD
  8
PART_LETTERS
 10
0.5732092184382902
 20
78.20760228095385
 30
0.0
  0
VERTEX
  5
2FE
  8
PART_LETTERS
 10
0.5831572354701797
 20
78.21806434050151
 30
0.0
  0
VERTEX
  5
2FF
  8
PART_LETTERS
 10
0.593593407984675
 20
78.22820835935596
 30
0.0
  0
VERTEX
  5
300
  8
PART_LETTERS
 10
0.6045177359817759
 20
78.2380343375172
 30
0.0
  0
VERTEX
  5
301
  8
PART_LETTERS
 10
0.6159302194614826
 20
78.24754227498524
 30
0.0
  0
VERTEX
  5
302
  8
PART_LETTERS
 10
0.627830858423795
 20
78.25673217176006
 30
0.0
  0
VERTEX
  5
303
  8
PART_LETTERS
 10
0.6402196528687132
 20
78.26560402784165
 30
0.0
  0
VERTEX
  5
304
  8
PART_LETTERS
 10
0.653096602796237
 20
78.27415784323006
 30
0.0
  0
VERTEX
  5
305
  8
PART_LETTERS
 10
0.6664617082063666
 20
78.28239361792521
 30
0.0
  0
VERTEX
  5
306
  8
PART_LETTERS
 10
0.6803149690991019
 20
78.29031135192719
 30
0.0
  0
VERTEX
  5
307
  8
PART_LETTERS
 10
0.694656385474443
 20
78.29791104523592
 30
0.0
  0
VERTEX
  5
308
  8
PART_LETTERS
 10
0.70948595733239
 20
78.30519269785147
 30
0.0
  0
VERTEX
  5
309
  8
PART_LETTERS
 10
0.7248036846729424
 20
78.31215630977378
 30
0.0
  0
VERTEX
  5
30A
  8
PART_LETTERS
 10
0.7407260591453588
 20
78.31874825786275
 30
0.0
  0
VERTEX
  5
30B
  8
PART_LETTERS
 10
0.7573695723988974
 20
78.32491491897825
 30
0.0
  0
VERTEX
  5
30C
  8
PART_LETTERS
 10
0.774734224433558
 20
78.33065629312026
 30
0.0
  0
VERTEX
  5
30D
  8
PART_LETTERS
 10
0.7928200152493408
 20
78.3359723802888
 30
0.0
  0
VERTEX
  5
30E
  8
PART_LETTERS
 10
0.8116269448462456
 20
78.34086318048385
 30
0.0
  0
VERTEX
  5
30F
  8
PART_LETTERS
 10
0.8311550132242724
 20
78.34532869370541
 30
0.0
  0
VERTEX
  5
310
  8
PART_LETTERS
 10
0.8514042203834216
 20
78.34936891995348
 30
0.0
  0
VERTEX
  5
311
  8
PART_LETTERS
 10
0.8723745663236927
 20
78.35298385922808
 30
0.0
  0
VERTEX
  5
312
  8
PART_LETTERS
 10
0.894066051045086
 20
78.35617351152919
 30
0.0
  0
VERTEX
  5
313
  8
PART_LETTERS
 10
0.9164786745476013
 20
78.35893787685683
 30
0.0
  0
VERTEX
  5
314
  8
PART_LETTERS
 10
0.9396124368312389
 20
78.36127695521097
 30
0.0
  0
VERTEX
  5
315
  8
PART_LETTERS
 10
0.9634673378959984
 20
78.36319074659164
 30
0.0
  0
VERTEX
  5
316
  8
PART_LETTERS
 10
0.98804337774188
 20
78.36467925099883
 30
0.0
  0
VERTEX
  5
317
  8
PART_LETTERS
 10
1.013340556368884
 20
78.36574246843254
 30
0.0
  0
VERTEX
  5
318
  8
PART_LETTERS
 10
1.039358873777009
 20
78.36638039889277
 30
0.0
  0
VERTEX
  5
319
  8
PART_LETTERS
 10
1.066098329966257
 20
78.3665930423795
 30
0.0
  0
VERTEX
  5
31A
  8
PART_LETTERS
 10
1.098858370440976
 20
78.36620658595578
 30
0.0
  0
VERTEX
  5
31B
  8
PART_LETTERS
 10
1.130631005507697
 20
78.36504721668459
 30
0.0
  0
VERTEX
  5
31C
  8
PART_LETTERS
 10
1.16141623516642
 20
78.36311493456594
 30
0.0
  0
VERTEX
  5
31D
  8
PART_LETTERS
 10
1.191214059417144
 20
78.36040973959983
 30
0.0
  0
VERTEX
  5
31E
  8
PART_LETTERS
 10
1.220024478259871
 20
78.35693163178627
 30
0.0
  0
VERTEX
  5
31F
  8
PART_LETTERS
 10
1.2478474916946
 20
78.35268061112524
 30
0.0
  0
VERTEX
  5
320
  8
PART_LETTERS
 10
1.274683099721331
 20
78.34765667761675
 30
0.0
  0
VERTEX
  5
321
  8
PART_LETTERS
 10
1.300531302340064
 20
78.34185983126082
 30
0.0
  0
VERTEX
  5
322
  8
PART_LETTERS
 10
1.325392099550799
 20
78.33529007205742
 30
0.0
  0
VERTEX
  5
323
  8
PART_LETTERS
 10
1.349265491353536
 20
78.32794740000656
 30
0.0
  0
VERTEX
  5
324
  8
PART_LETTERS
 10
1.372151477748275
 20
78.31983181510823
 30
0.0
  0
VERTEX
  5
325
  8
PART_LETTERS
 10
1.394050058735016
 20
78.31094331736244
 30
0.0
  0
VERTEX
  5
326
  8
PART_LETTERS
 10
1.414961234313759
 20
78.3012819067692
 30
0.0
  0
VERTEX
  5
327
  8
PART_LETTERS
 10
1.434885004484504
 20
78.29084758332851
 30
0.0
  0
VERTEX
  5
328
  8
PART_LETTERS
 10
1.453821369247252
 20
78.27964034704036
 30
0.0
  0
VERTEX
  5
329
  8
PART_LETTERS
 10
1.471770328602001
 20
78.26766019790475
 30
0.0
  0
VERTEX
  5
32A
  8
PART_LETTERS
 10
1.480387474767961
 20
78.26136271481806
 30
0.0
  0
VERTEX
  5
32B
  8
PART_LETTERS
 10
1.488783656615089
 20
78.25483687111736
 30
0.0
  0
VERTEX
  5
32C
  8
PART_LETTERS
 10
1.496958874143387
 20
78.24808266680265
 30
0.0
  0
VERTEX
  5
32D
  8
PART_LETTERS
 10
1.504913127352854
 20
78.24110010187388
 30
0.0
  0
VERTEX
  5
32E
  8
PART_LETTERS
 10
1.512646416243489
 20
78.23388917633112
 30
0.0
  0
VERTEX
  5
32F
  8
PART_LETTERS
 10
1.520158740815294
 20
78.22644989017432
 30
0.0
  0
VERTEX
  5
330
  8
PART_LETTERS
 10
1.527450101068268
 20
78.21878224340351
 30
0.0
  0
VERTEX
  5
331
  8
PART_LETTERS
 10
1.53452049700241
 20
78.21088623601867
 30
0.0
  0
VERTEX
  5
332
  8
PART_LETTERS
 10
1.541369928617722
 20
78.2027618680198
 30
0.0
  0
VERTEX
  5
333
  8
PART_LETTERS
 10
1.547998395914203
 20
78.19440913940691
 30
0.0
  0
VERTEX
  5
334
  8
PART_LETTERS
 10
1.554405898891852
 20
78.18582805018
 30
0.0
  0
VERTEX
  5
335
  8
PART_LETTERS
 10
1.560592437550671
 20
78.17701860033908
 30
0.0
  0
VERTEX
  5
336
  8
PART_LETTERS
 10
1.566558011890658
 20
78.16798078988414
 30
0.0
  0
VERTEX
  5
337
  8
PART_LETTERS
 10
1.572302621911815
 20
78.15871461881517
 30
0.0
  0
VERTEX
  5
338
  8
PART_LETTERS
 10
1.577826267614141
 20
78.14922008713218
 30
0.0
  0
VERTEX
  5
339
  8
PART_LETTERS
 10
1.583128948997635
 20
78.13949719483517
 30
0.0
  0
VERTEX
  5
33A
  8
PART_LETTERS
 10
1.593071418808132
 20
78.11936632839908
 30
0.0
  0
VERTEX
  5
33B
  8
PART_LETTERS
 10
1.602130031343304
 20
78.0983220195069
 30
0.0
  0
VERTEX
  5
33C
  8
PART_LETTERS
 10
1.610304786603152
 20
78.07636426815864
 30
0.0
  0
VERTEX
  5
33D
  8
PART_LETTERS
 10
1.617595684587676
 20
78.0534930743543
 30
0.0
  0
VERTEX
  5
33E
  8
PART_LETTERS
 10
1.624002725296877
 20
78.02970843809385
 30
0.0
  0
VERTEX
  5
33F
  8
PART_LETTERS
 10
1.629525908730753
 20
78.00501035937731
 30
0.0
  0
VERTEX
  5
340
  8
PART_LETTERS
 10
1.634165234889305
 20
77.97939883820469
 30
0.0
  0
VERTEX
  5
341
  8
PART_LETTERS
 10
1.637920703772533
 20
77.95287387457597
 30
0.0
  0
VERTEX
  5
342
  8
PART_LETTERS
 10
1.233668793813461
 20
77.92920572996478
 30
0.0
  0
VERTEX
  5
343
  8
PART_LETTERS
 10
1.231518320986678
 20
77.94072176157715
 30
0.0
  0
VERTEX
  5
344
  8
PART_LETTERS
 10
1.229090487090234
 20
77.95183839324922
 30
0.0
  0
VERTEX
  5
345
  8
PART_LETTERS
 10
1.226385292124127
 20
77.96255562498096
 30
0.0
  0
VERTEX
  5
346
  8
PART_LETTERS
 10
1.223402736088358
 20
77.97287345677242
 30
0.0
  0
VERTEX
  5
347
  8
PART_LETTERS
 10
1.220142818982927
 20
77.98279188862354
 30
0.0
  0
VERTEX
  5
348
  8
PART_LETTERS
 10
1.216605540807833
 20
77.99231092053435
 30
0.0
  0
VERTEX
  5
349
  8
PART_LETTERS
 10
1.212790901563077
 20
78.00143055250484
 30
0.0
  0
VERTEX
  5
34A
  8
PART_LETTERS
 10
1.208698901248658
 20
78.01015078453503
 30
0.0
  0
VERTEX
  5
34B
  8
PART_LETTERS
 10
1.204329539864577
 20
78.01847161662488
 30
0.0
  0
VERTEX
  5
34C
  8
PART_LETTERS
 10
1.199682817410834
 20
78.02639304877445
 30
0.0
  0
VERTEX
  5
34D
  8
PART_LETTERS
 10
1.194758733887429
 20
78.03391508098369
 30
0.0
  0
VERTEX
  5
34E
  8
PART_LETTERS
 10
1.189557289294361
 20
78.04103771325263
 30
0.0
  0
VERTEX
  5
34F
  8
PART_LETTERS
 10
1.184078483631631
 20
78.04776094558125
 30
0.0
  0
VERTEX
  5
350
  8
PART_LETTERS
 10
1.178322316899238
 20
78.05408477796955
 30
0.0
  0
VERTEX
  5
351
  8
PART_LETTERS
 10
1.172288789097183
 20
78.06000921041753
 30
0.0
  0
VERTEX
  5
352
  8
PART_LETTERS
 10
1.165977900225466
 20
78.06553424292521
 30
0.0
  0
VERTEX
  5
353
  8
PART_LETTERS
 10
1.159374857693704
 20
78.07069315882092
 30
0.0
  0
VERTEX
  5
354
  8
PART_LETTERS
 10
1.152464868911517
 20
78.07551924143306
 30
0.0
  0
VERTEX
  5
355
  8
PART_LETTERS
 10
1.145247933878902
 20
78.08001249076159
 30
0.0
  0
VERTEX
  5
356
  8
PART_LETTERS
 10
1.137724052595862
 20
78.08417290680651
 30
0.0
  0
VERTEX
  5
357
  8
PART_LETTERS
 10
1.129893225062395
 20
78.08800048956786
 30
0.0
  0
VERTEX
  5
358
  8
PART_LETTERS
 10
1.121755451278502
 20
78.0914952390456
 30
0.0
  0
VERTEX
  5
359
  8
PART_LETTERS
 10
1.113310731244182
 20
78.09465715523976
 30
0.0
  0
VERTEX
  5
35A
  8
PART_LETTERS
 10
1.104559064959436
 20
78.09748623815031
 30
0.0
  0
VERTEX
  5
35B
  8
PART_LETTERS
 10
1.095500452424264
 20
78.09998248777727
 30
0.0
  0
VERTEX
  5
35C
  8
PART_LETTERS
 10
1.086134893638665
 20
78.10214590412065
 30
0.0
  0
VERTEX
  5
35D
  8
PART_LETTERS
 10
1.07646238860264
 20
78.10397648718042
 30
0.0
  0
VERTEX
  5
35E
  8
PART_LETTERS
 10
1.066482937316189
 20
78.1054742369566
 30
0.0
  0
VERTEX
  5
35F
  8
PART_LETTERS
 10
1.056196539779312
 20
78.10663915344918
 30
0.0
  0
VERTEX
  5
360
  8
PART_LETTERS
 10
1.045603195992008
 20
78.10747123665817
 30
0.0
  0
VERTEX
  5
361
  8
PART_LETTERS
 10
1.034702905954278
 20
78.10797048658355
 30
0.0
  0
VERTEX
  5
362
  8
PART_LETTERS
 10
1.023495669666121
 20
78.10813690322536
 30
0.0
  0
VERTEX
  5
363
  8
PART_LETTERS
 10
1.005374746448181
 20
78.10764135144757
 30
0.0
  0
VERTEX
  5
364
  8
PART_LETTERS
 10
0.9884076452800364
 20
78.10615469611417
 30
0.0
  0
VERTEX
  5
365
  8
PART_LETTERS
 10
0.9725943661616872
 20
78.10367693722519
 30
0.0
  0
VERTEX
  5
366
  8
PART_LETTERS
 10
0.9651204098711859
 20
78.10206639394735
 30
0.0
  0
VERTEX
  5
367
  8
PART_LETTERS
 10
0.9579349090931333
 20
78.10020807478061
 30
0.0
  0
VERTEX
  5
368
  8
PART_LETTERS
 10
0.9510378638275296
 20
78.09810197972499
 30
0.0
  0
VERTEX
  5
369
  8
PART_LETTERS
 10
0.9444292740743747
 20
78.09574810878044
 30
0.0
  0
VERTEX
  5
36A
  8
PART_LETTERS
 10
0.9381091398336687
 20
78.09314646194701
 30
0.0
  0
VERTEX
  5
36B
  8
PART_LETTERS
 10
0.9320774611054116
 20
78.09029703922468
 30
0.0
  0
VERTEX
  5
36C
  8
PART_LETTERS
 10
0.9263342378896032
 20
78.08719984061347
 30
0.0
  0
VERTEX
  5
36D
  8
PART_LETTERS
 10
0.9208794701862437
 20
78.08385486611331
 30
0.0
  0
VERTEX
  5
36E
  8
PART_LETTERS
 10
0.9157131579953331
 20
78.08026211572428
 30
0.0
  0
VERTEX
  5
36F
  8
PART_LETTERS
 10
0.9108353013168713
 20
78.07642158944635
 30
0.0
  0
VERTEX
  5
370
  8
PART_LETTERS
 10
0.9019597470876762
 20
78.06827826844108
 30
0.0
  0
VERTEX
  5
371
  8
PART_LETTERS
 10
0.8942676000890405
 20
78.05970596231471
 30
0.0
  0
VERTEX
  5
372
  8
PART_LETTERS
 10
0.8908653043011824
 20
78.05525893983112
 30
0.0
  0
VERTEX
  5
373
  8
PART_LETTERS
 10
0.8877588603209641
 20
78.05070467106727
 30
0.0
  0
VERTEX
  5
374
  8
PART_LETTERS
 10
0.8849482681483856
 20
78.04604315602315
 30
0.0
  0
VERTEX
  5
375
  8
PART_LETTERS
 10
0.882433527783447
 20
78.04127439469875
 30
0.0
  0
VERTEX
  5
376
  8
PART_LETTERS
 10
0.8802146392261482
 20
78.0363983870941
 30
0.0
  0
VERTEX
  5
377
  8
PART_LETTERS
 10
0.8782916024764893
 20
78.03141513320915
 30
0.0
  0
VERTEX
  5
378
  8
PART_LETTERS
 10
0.8766644175344702
 20
78.02632463304394
 30
0.0
  0
VERTEX
  5
379
  8
PART_LETTERS
 10
0.8753330844000909
 20
78.02112688659847
 30
0.0
  0
VERTEX
  5
37A
  8
PART_LETTERS
 10
0.8742976030733516
 20
78.01582189387273
 30
0.0
  0
VERTEX
  5
37B
  8
PART_LETTERS
 10
0.8735579735542519
 20
78.01040965486672
 30
0.0
  0
VERTEX
  5
37C
  8
PART_LETTERS
 10
0.8731141958427922
 20
78.00489016958045
 30
0.0
  0
VERTEX
  5
37D
  8
PART_LETTERS
 10
0.8729662699389722
 20
77.9992634380139
 30
0.0
  0
VERTEX
  5
37E
  8
PART_LETTERS
 10
0.8734544254215779
 20
77.99108313553265
 30
0.0
  0
VERTEX
  5
37F
  8
PART_LETTERS
 10
0.8749188918693951
 20
77.98310992931675
 30
0.0
  0
VERTEX
  5
380
  8
PART_LETTERS
 10
0.8773596692824237
 20
77.9753438193662
 30
0.0
  0
VERTEX
  5
381
  8
PART_LETTERS
 10
0.8807767576606639
 20
77.967784805681
 30
0.0
  0
VERTEX
  5
382
  8
PART_LETTERS
 10
0.8851701570041155
 20
77.96043288826115
 30
0.0
  0
VERTEX
  5
383
  8
PART_LETTERS
 10
0.8905398673127785
 20
77.95328806710666
 30
0.0
  0
VERTEX
  5
384
  8
PART_LETTERS
 10
0.8968858885866531
 20
77.9463503422175
 30
0.0
  0
VERTEX
  5
385
  8
PART_LETTERS
 10
0.9042082208257389
 20
77.9396197135937
 30
0.0
  0
VERTEX
  5
386
  8
PART_LETTERS
 10
0.9083205609519326
 20
77.93620262521547
 30
0.0
  0
VERTEX
  5
387
  8
PART_LETTERS
 10
0.913083775054934
 20
77.93281512201798
 30
0.0
  0
VERTEX
  5
388
  8
PART_LETTERS
 10
0.918497863134743
 20
77.92945720400128
 30
0.0
  0
VERTEX
  5
389
  8
PART_LETTERS
 10
0.9245628251913597
 20
77.92612887116532
 30
0.0
  0
VERTEX
  5
38A
  8
PART_LETTERS
 10
0.931278661224784
 20
77.92283012351014
 30
0.0
  0
VERTEX
  5
38B
  8
PART_LETTERS
 10
0.9386453712350159
 20
77.91956096103573
 30
0.0
  0
VERTEX
  5
38C
  8
PART_LETTERS
 10
0.9553314131859028
 20
77.91311139162917
 30
0.0
  0
VERTEX
  5
38D
  8
PART_LETTERS
 10
0.97462095104402
 20
77.90678016294567
 30
0.0
  0
VERTEX
  5
38E
  8
PART_LETTERS
 10
0.9965139848093678
 20
77.90056727498524
 30
0.0
  0
VERTEX
  5
38F
  8
PART_LETTERS
 10
1.021010514481946
 20
77.89447272774787
 30
0.0
  0
VERTEX
  5
390
  8
PART_LETTERS
 10
1.048110540061755
 20
77.88849652123353
 30
0.0
  0
VERTEX
  5
391
  8
PART_LETTERS
 10
1.115912378077615
 20
77.87332671979681
 30
0.0
  0
VERTEX
  5
392
  8
PART_LETTERS
 10
1.14794388347602
 20
77.86572517741425
 30
0.0
  0
VERTEX
  5
393
  8
PART_LETTERS
 10
1.178729113134743
 20
77.85811254058892
 30
0.0
  0
VERTEX
  5
394
  8
PART_LETTERS
 10
1.208268067053783
 20
77.85048880932081
 30
0.0
  0
VERTEX
  5
395
  8
PART_LETTERS
 10
1.23656074523314
 20
77.8428539836099
 30
0.0
  0
VERTEX
  5
396
  8
PART_LETTERS
 10
1.263607147672814
 20
77.83520806345621
 30
0.0
  0
VERTEX
  5
397
  8
PART_LETTERS
 10
1.289407274372806
 20
77.82755104885972
 30
0.0
  0
VERTEX
  5
398
  8
PART_LETTERS
 10
1.313961125333114
 20
77.81988293982045
 30
0.0
  0
VERTEX
  5
399
  8
PART_LETTERS
 10
1.33726870055374
 20
77.8122037363384
 30
0.0
  0
VERTEX
  5
39A
  8
PART_LETTERS
 10
1.359330000034683
 20
77.80451343841357
 30
0.0
  0
VERTEX
  5
39B
  8
PART_LETTERS
 10
1.380145023775944
 20
77.79681204604594
 30
0.0
  0
VERTEX
  5
39C
  8
PART_LETTERS
 10
1.399713771777521
 20
77.78909955923552
 30
0.0
  0
VERTEX
  5
39D
  8
PART_LETTERS
 10
1.418036244039416
 20
77.78137597798234
 30
0.0
  0
VERTEX
  5
39E
  8
PART_LETTERS
 10
1.435112440561627
 20
77.77364130228635
 30
0.0
  0
VERTEX
  5
39F
  8
PART_LETTERS
 10
1.450942361344156
 20
77.76589553214758
 30
0.0
  0
VERTEX
  5
3A0
  8
PART_LETTERS
 10
1.465890273925159
 20
77.75802772313816
 30
0.0
  0
VERTEX
  5
3A1
  8
PART_LETTERS
 10
1.480320445842792
 20
77.74992693083023
 30
0.0
  0
VERTEX
  5
3A2
  8
PART_LETTERS
 10
1.494232877097055
 20
77.74159315522377
 30
0.0
  0
VERTEX
  5
3A3
  8
PART_LETTERS
 10
1.507627567687949
 20
77.7330263963188
 30
0.0
  0
VERTEX
  5
3A4
  8
PART_LETTERS
 10
1.520504517615473
 20
77.72422665411531
 30
0.0
  0
VERTEX
  5
3A5
  8
PART_LETTERS
 10
1.532863726879627
 20
77.71519392861332
 30
0.0
  0
VERTEX
  5
3A6
  8
PART_LETTERS
 10
1.544705195480411
 20
77.70592821981279
 30
0.0
  0
VERTEX
  5
3A7
  8
PART_LETTERS
 10
1.556028923417826
 20
77.69642952771376
 30
0.0
  0
VERTEX
  5
3A8
  8
PART_LETTERS
 10
1.566834910691871
 20
77.6866978523162
 30
0.0
  0
VERTEX
  5
3A9
  8
PART_LETTERS
 10
1.577123157302546
 20
77.67673319362014
 30
0.0
  0
VERTEX
  5
3AA
  8
PART_LETTERS
 10
1.586893663249852
 20
77.66653555162554
 30
0.0
  0
VERTEX
  5
3AB
  8
PART_LETTERS
 10
1.596146428533788
 20
77.65610492633245
 30
0.0
  0
VERTEX
  5
3AC
  8
PART_LETTERS
 10
1.604881453154354
 20
77.64544131774082
 30
0.0
  0
VERTEX
  5
3AD
  8
PART_LETTERS
 10
1.61309873711155
 20
77.63454472585069
 30
0.0
  0
VERTEX
  5
3AE
  8
PART_LETTERS
 10
1.620798280405377
 20
77.62341515066203
 30
0.0
  0
VERTEX
  5
3AF
  8
PART_LETTERS
 10
1.627980083035834
 20
77.61205259217488
 30
0.0
  0
VERTEX
  5
3B0
  8
PART_LETTERS
 10
1.63468667370027
 20
77.60048848464375
 30
0.0
  0
VERTEX
  5
3B1
  8
PART_LETTERS
 10
1.640960581096032
 20
77.58875426232323
 30
0.0
  0
VERTEX
  5
3B2
  8
PART_LETTERS
 10
1.646801805223121
 20
77.57684992521332
 30
0.0
  0
VERTEX
  5
3B3
  8
PART_LETTERS
 10
1.652210346081537
 20
77.56477547331403
 30
0.0
  0
VERTEX
  5
3B4
  8
PART_LETTERS
 10
1.657186203671279
 20
77.55253090662534
 30
0.0
  0
VERTEX
  5
3B5
  8
PART_LETTERS
 10
1.661729377992348
 20
77.54011622514724
 30
0.0
  0
VERTEX
  5
3B6
  8
PART_LETTERS
 10
1.665839869044744
 20
77.52753142887977
 30
0.0
  0
VERTEX
  5
3B7
  8
PART_LETTERS
 10
1.669517676828467
 20
77.5147765178229
 30
0.0
  0
VERTEX
  5
3B8
  8
PART_LETTERS
 10
1.672762801343517
 20
77.50185149197664
 30
0.0
  0
VERTEX
  5
3B9
  8
PART_LETTERS
 10
1.675575242589893
 20
77.48875635134098
 30
0.0
  0
VERTEX
  5
3BA
  8
PART_LETTERS
 10
1.677955000567596
 20
77.47549109591593
 30
0.0
  0
VERTEX
  5
3BB
  8
PART_LETTERS
 10
1.679902075276626
 20
77.46205572570149
 30
0.0
  0
VERTEX
  5
3BC
  8
PART_LETTERS
 10
1.681416466716982
 20
77.44845024069765
 30
0.0
  0
VERTEX
  5
3BD
  8
PART_LETTERS
 10
1.682498174888665
 20
77.43467464090442
 30
0.0
  0
VERTEX
  5
3BE
  8
PART_LETTERS
 10
1.683147199791675
 20
77.42072892632179
 30
0.0
  0
VERTEX
  5
3BF
  8
PART_LETTERS
 10
1.683363541426012
 20
77.40661309694977
 30
0.0
  0
VERTEX
  5
3C0
  8
PART_LETTERS
 10
1.683075085913563
 20
77.39000841424598
 30
0.0
  0
VERTEX
  5
3C1
  8
PART_LETTERS
 10
1.682209719376216
 20
77.3735664500364
 30
0.0
  0
VERTEX
  5
3C2
  8
PART_LETTERS
 10
1.680767441813972
 20
77.35728720432103
 30
0.0
  0
VERTEX
  5
3C3
  8
PART_LETTERS
 10
1.67874825322683
 20
77.34117067709984
 30
0.0
  0
VERTEX
  5
3C4
  8
PART_LETTERS
 10
1.676152153614791
 20
77.32521686837286
 30
0.0
  0
VERTEX
  5
3C5
  8
PART_LETTERS
 10
1.672979142977853
 20
77.3094257781401
 30
0.0
  0
VERTEX
  5
3C6
  8
PART_LETTERS
 10
1.669229221316018
 20
77.29379740640152
 30
0.0
  0
VERTEX
  5
3C7
  8
PART_LETTERS
 10
1.664902388629286
 20
77.27833175315715
 30
0.0
  0
VERTEX
  5
3C8
  8
PART_LETTERS
 10
1.659998644917655
 20
77.26302881840698
 30
0.0
  0
VERTEX
  5
3C9
  8
PART_LETTERS
 10
1.654517990181128
 20
77.24788860215101
 30
0.0
  0
VERTEX
  5
3CA
  8
PART_LETTERS
 10
1.648460424419702
 20
77.23291110438923
 30
0.0
  0
VERTEX
  5
3CB
  8
PART_LETTERS
 10
1.641825947633379
 20
77.21809632512166
 30
0.0
  0
VERTEX
  5
3CC
  8
PART_LETTERS
 10
1.634614559822158
 20
77.2034442643483
 30
0.0
  0
VERTEX
  5
3CD
  8
PART_LETTERS
 10
1.626826260986039
 20
77.18895492206914
 30
0.0
  0
VERTEX
  5
3CE
  8
PART_LETTERS
 10
1.618461051125022
 20
77.17462829828419
 30
0.0
  0
VERTEX
  5
3CF
  8
PART_LETTERS
 10
1.609518930239108
 20
77.16046439299343
 30
0.0
  0
VERTEX
  5
3D0
  8
PART_LETTERS
 10
1.600059068689825
 20
77.14659449043653
 30
0.0
  0
VERTEX
  5
3D1
  8
PART_LETTERS
 10
1.590140636838699
 20
77.13314987485309
 30
0.0
  0
VERTEX
  5
3D2
  8
PART_LETTERS
 10
1.579763634685732
 20
77.12013054624313
 30
0.0
  0
VERTEX
  5
3D3
  8
PART_LETTERS
 10
1.568928062230923
 20
77.10753650460667
 30
0.0
  0
VERTEX
  5
3D4
  8
PART_LETTERS
 10
1.557633919474272
 20
77.09536774994368
 30
0.0
  0
VERTEX
  5
3D5
  8
PART_LETTERS
 10
1.54588120641578
 20
77.08362428225418
 30
0.0
  0
VERTEX
  5
3D6
  8
PART_LETTERS
 10
1.533669923055446
 20
77.07230610153816
 30
0.0
  0
VERTEX
  5
3D7
  8
PART_LETTERS
 10
1.521000069393269
 20
77.06141320779562
 30
0.0
  0
VERTEX
  5
3D8
  8
PART_LETTERS
 10
1.507871645429252
 20
77.05094560102657
 30
0.0
  0
VERTEX
  5
3D9
  8
PART_LETTERS
 10
1.494284651163392
 20
77.04090328123098
 30
0.0
  0
VERTEX
  5
3DA
  8
PART_LETTERS
 10
1.480239086595691
 20
77.03128624840889
 30
0.0
  0
VERTEX
  5
3DB
  8
PART_LETTERS
 10
1.465734951726148
 20
77.02209450256028
 30
0.0
  0
VERTEX
  5
3DC
  8
PART_LETTERS
 10
1.450772246554763
 20
77.01332804368515
 30
0.0
  0
VERTEX
  5
3DD
  8
PART_LETTERS
 10
1.435350971081537
 20
77.0049868717835
 30
0.0
  0
VERTEX
  5
3DE
  8
PART_LETTERS
 10
1.419471125306469
 20
76.99707098685535
 30
0.0
  0
VERTEX
  5
3DF
  8
PART_LETTERS
 10
1.403132709229559
 20
76.98958038890066
 30
0.0
  0
VERTEX
  5
3E0
  8
PART_LETTERS
 10
1.386295043227256
 20
76.98252987050984
 30
0.0
  0
VERTEX
  5
3E1
  8
PART_LETTERS
 10
1.368917447676012
 20
76.97593422427326
 30
0.0
  0
VERTEX
  5
3E2
  8
PART_LETTERS
 10
1.350999922575824
 20
76.96979345019093
 30
0.0
  0
VERTEX
  5
3E3
  8
PART_LETTERS
 10
1.332542467926694
 20
76.96410754826287
 30
0.0
  0
VERTEX
  5
3E4
  8
PART_LETTERS
 10
1.313545083728621
 20
76.95887651848903
 30
0.0
  0
VERTEX
  5
3E5
  8
PART_LETTERS
 10
1.294007769981605
 20
76.95410036086945
 30
0.0
  0
VERTEX
  5
3E6
  8
PART_LETTERS
 10
1.273930526685647
 20
76.9497790754041
 30
0.0
  0
VERTEX
  5
3E7
  8
PART_LETTERS
 10
1.253313353840745
 20
76.94591266209302
 30
0.0
  0
VERTEX
  5
3E8
  8
PART_LETTERS
 10
1.232156251446902
 20
76.94250112093617
 30
0.0
  0
VERTEX
  5
3E9
  8
PART_LETTERS
 10
1.210459219504115
 20
76.93954445193357
 30
0.0
  0
VERTEX
  5
3EA
  8
PART_LETTERS
 10
1.188222258012386
 20
76.93704265508521
 30
0.0
  0
VERTEX
  5
3EB
  8
PART_LETTERS
 10
1.165445366971714
 20
76.93499573039111
 30
0.0
  0
VERTEX
  5
3EC
  8
PART_LETTERS
 10
1.142128546382099
 20
76.93340367785123
 30
0.0
  0
VERTEX
  5
3ED
  8
PART_LETTERS
 10
1.118271796243542
 20
76.93226649746562
 30
0.0
  0
VERTEX
  5
3EE
  8
PART_LETTERS
 10
1.093875116556042
 20
76.93158418923424
 30
0.0
  0
VERTEX
  5
3EF
  8
PART_LETTERS
 10
1.0689385073196
 20
76.93135675315713
 30
0.0
  0
VERTEX
  5
3F0
  8
PART_LETTERS
 10
1.025529650843645
 20
76.9318892864109
 30
0.0
  0
VERTEX
  5
3F1
  8
PART_LETTERS
 10
0.9838219422616187
 20
76.93348688617213
 30
0.0
  0
VERTEX
  5
3F2
  8
PART_LETTERS
 10
0.9438153815735217
 20
76.9361495524409
 30
0.0
  0
VERTEX
  5
3F3
  8
PART_LETTERS
 10
0.9244500316896966
 20
76.93788028551558
 30
0.0
  0
VERTEX
  5
3F4
  8
PART_LETTERS
 10
0.905509968779354
 20
76.93987728521715
 30
0.0
  0
VERTEX
  5
3F5
  8
PART_LETTERS
 10
0.8869951928424935
 20
76.9421405515456
 30
0.0
  0
VERTEX
  5
3F6
  8
PART_LETTERS
 10
0.8689057038791153
 20
76.94467008450093
 30
0.0
  0
VERTEX
  5
3F7
  8
PART_LETTERS
 10
0.8512415018892192
 20
76.94746588408312
 30
0.0
  0
VERTEX
  5
3F8
  8
PART_LETTERS
 10
0.8340025868728055
 20
76.95052795029218
 30
0.0
  0
VERTEX
  5
3F9
  8
PART_LETTERS
 10
0.817188958829874
 20
76.95385628312813
 30
0.0
  0
VERTEX
  5
3FA
  8
PART_LETTERS
 10
0.8008006177604249
 20
76.95745088259096
 30
0.0
  0
VERTEX
  5
3FB
  8
PART_LETTERS
 10
0.784837563664458
 20
76.96131174868066
 30
0.0
  0
VERTEX
  5
3FC
  8
PART_LETTERS
 10
0.7692997965419733
 20
76.96543888139723
 30
0.0
  0
VERTEX
  5
3FD
  8
PART_LETTERS
 10
0.7541873163929709
 20
76.96983228074069
 30
0.0
  0
VERTEX
  5
3FE
  8
PART_LETTERS
 10
0.7395001232174508
 20
76.97449194671103
 30
0.0
  0
VERTEX
  5
3FF
  8
PART_LETTERS
 10
0.725238217015413
 20
76.97941787930823
 30
0.0
  0
VERTEX
  5
400
  8
PART_LETTERS
 10
0.7114015977868574
 20
76.9846100785323
 30
0.0
  0
VERTEX
  5
401
  8
PART_LETTERS
 10
0.697990265531784
 20
76.99006854438325
 30
0.0
  0
VERTEX
  5
402
  8
PART_LETTERS
 10
0.685004220250193
 20
76.99579327686108
 30
0.0
  0
VERTEX
  5
403
  8
PART_LETTERS
 10
0.6724434619420843
 20
77.00178427596578
 30
0.0
  0
VERTEX
  5
404
  8
PART_LETTERS
 10
0.6603079906074577
 20
77.00804154169737
 30
0.0
  0
VERTEX
  5
405
  8
PART_LETTERS
 10
0.6485978062463134
 20
77.01456507405582
 30
0.0
  0
VERTEX
  5
406
  8
PART_LETTERS
 10
0.6373129088586514
 20
77.02135487304116
 30
0.0
  0
VERTEX
  5
407
  8
PART_LETTERS
 10
0.6264532984444717
 20
77.02841093865338
 30
0.0
  0
VERTEX
  5
408
  8
PART_LETTERS
 10
0.6160189750037742
 20
77.03573327089246
 30
0.0
  0
VERTEX
  5
409
  8
PART_LETTERS
 10
0.6060099385365589
 20
77.04332186975843
 30
0.0
  0
VERTEX
  5
40A
  8
PART_LETTERS
 10
0.5964261890428261
 20
77.05117673525126
 30
0.0
  0
VERTEX
  5
40B
  8
PART_LETTERS
 10
0.5872677265225754
 20
77.05929786737099
 30
0.0
  0
VERTEX
  5
40C
  8
PART_LETTERS
 10
0.578534550975807
 20
77.06768526611758
 30
0.0
  0
VERTEX
  5
40D
  8
PART_LETTERS
 10
0.5619557553051897
 20
77.08501478575009
 30
0.0
  0
VERTEX
  5
40E
  8
PART_LETTERS
 10
0.5463014965334468
 20
77.10292121640748
 30
0.0
  0
VERTEX
  5
40F
  8
PART_LETTERS
 10
0.5315717746605786
 20
77.12140455808978
 30
0.0
  0
VERTEX
  5
410
  8
PART_LETTERS
 10
0.5177665896865846
 20
77.14046481079698
 30
0.0
  0
VERTEX
  5
411
  8
PART_LETTERS
 10
0.5048859416114653
 20
77.16010197452908
 30
0.0
  0
VERTEX
  5
412
  8
PART_LETTERS
 10
0.4929298304352204
 20
77.18031604928606
 30
0.0
  0
VERTEX
  5
413
  8
PART_LETTERS
 10
0.48189825615785
 20
77.20110703506796
 30
0.0
  0
VERTEX
  5
414
  8
PART_LETTERS
 10
0.471791218779354
 20
77.22247493187474
 30
0.0
  0
VERTEX
  5
415
  8
PART_LETTERS
 10
0.4626087182997326
 20
77.24441973970642
 30
0.0
  0
VERTEX
  5
416
  8
PART_LETTERS
 10
0.4543507547189857
 20
77.266941458563
 30
0.0
  0
VERTEX
  5
417
  8
PART_LETTERS
 10
0.4470173280371133
 20
77.29004008844447
 30
0.0
  0
VERTEX
  5
418
  8
PART_LETTERS
 10
0.4406084382541154
 20
77.31371562935087
 30
0.0
  0
VERTEX
  5
419
  8
PART_LETTERS
 10
0.435124085369992
 20
77.33796808128213
 30
0.0
  0
VERTEX
  5
41A
  8
PART_LETTERS
 10
0.430564269384743
 20
77.36279744423831
 30
0.0
  0
VERTEX
  5
41B
  8
PART_LETTERS
 10
0.4269289902983685
 20
77.38820371821939
 30
0.0
  0
SEQEND
  5
4C2
  8
PART_LETTERS
  0
POLYLINE
  5
73
  8
PART_LETTERS
 66
     1
 10
0.0
 20
0.0
 30
0.0
 70
     1
  0
VERTEX
  5
41C
  8
PART_LETTERS
 10
2.499441167619758
 20
77.21442776270693
 30
0.0
  0
VERTEX
  5
41D
  8
PART_LETTERS
 10
1.796970635559731
 20
77.21442776270693
 30
0.0
  0
VERTEX
  5
41E
  8
PART_LETTERS
 10
1.796970635559731
 20
77.53158090049683
 30
0.0
  0
VERTEX
  5
41F
  8
PART_LETTERS
 10
2.499441167619758
 20
78.3665930423795
 30
0.0
  0
VERTEX
  5
420
  8
PART_LETTERS
 10
2.835528821098612
 20
78.3665930423795
 30
0.0
  0
VERTEX
  5
421
  8
PART_LETTERS
 10
2.835528821098612
 20
77.51359311059234
 30
0.0
  0
VERTEX
  5
422
  8
PART_LETTERS
 10
3.009726365436947
 20
77.51359311059234
 30
0.0
  0
VERTEX
  5
423
  8
PART_LETTERS
 10
3.009726365436947
 20
77.21442776270693
 30
0.0
  0
VERTEX
  5
424
  8
PART_LETTERS
 10
2.835528821098612
 20
77.21442776270693
 30
0.0
  0
VERTEX
  5
425
  8
PART_LETTERS
 10
2.835528821098612
 20
76.95502489776833
 30
0.0
  0
VERTEX
  5
426
  8
PART_LETTERS
 10
2.499441167619758
 20
76.95502489776833
 30
0.0
  0
SEQEND
  5
4C3
  8
PART_LETTERS
  0
POLYLINE
  5
74
  8
PART_LETTERS
 66
     1
 10
0.0
 20
0.0
 30
0.0
 70
     1
  0
VERTEX
  5
427
  8
PART_LETTERS
 10
2.499441167619758
 20
77.51359311059234
 30
0.0
  0
VERTEX
  5
428
  8
PART_LETTERS
 10
2.499441167619758
 20
77.9503739268014
 30
0.0
  0
VERTEX
  5
429
  8
PART_LETTERS
 10
2.128265489754819
 20
77.51359311059234
 30
0.0
  0
SEQEND
  5
4C4
  8
PART_LETTERS
  0
POLYLINE
  5
76
  8
T8_DRILL
 66
     1
 10
0.0
 20
0.0
 30
0.0
 70
     1
  0
VERTEX
  5
42A
  8
T8_DRILL
 10
1.805718290019005
 20
92.62850822878934
 30
0.0
 42
0.4142135623730951
  0
VERTEX
  5
42B
  8
T8_DRILL
 10
1.618218290019005
 20
92.44100822878934
 30
0.0
 42
0.4142135623730951
  0
VERTEX
  5
42C
  8
T8_DRILL
 10
1.805718290019005
 20
92.25350822878934
 30
0.0
 42
0.4142135623730951
  0
VERTEX
  5
42D
  8
T8_DRILL
 10
1.993218290019005
 20
92.44100822878934
 30
0.0
 42
0.4142135623730951
  0
SEQEND
  5
4C5
  8
T8_DRILL
  0
POLYLINE
  5
77
  8
T8_DRILL
 66
     1
 10
0.0
 20
0.0
 30
0.0
 70
     1
  0
VERTEX
  5
42E
  8
T8_DRILL
 10
1.805718290019005
 20
69.76870822878934
 30
0.0
 42
0.4142135623730951
  0
VERTEX
  5
42F
  8
T8_DRILL
 10
1.618218290019005
 20
69.58120822878934
 30
0.0
 42
0.4142135623730951
  0
VERTEX
  5
430
  8
T8_DRILL
 10
1.805718290019005
 20
69.39370822878934
 30
0.0
 42
0.4142135623730951
  0
VERTEX
  5
431
  8
T8_DRILL
 10
1.993218290019005
 20
69.58120822878934
 30
0.0
 42
0.4142135623730951
  0
SEQEND
  5
4C6
  8
T8_DRILL
  0
POLYLINE
  5
78
  8
T8_DRILL
 66
     1
 10
0.0
 20
0.0
 30
0.0
 70
     1
  0
VERTEX
  5
432
  8
T8_DRILL
 10
1.805718290019005
 20
40.69600822878935
 30
0.0
 42
0.4142135623730951
  0
VERTEX
  5
433
  8
T8_DRILL
 10
1.993218290019005
 20
40.88350822878935
 30
0.0
 42
0.4142135623730951
  0
VERTEX
  5
434
  8
T8_DRILL
 10
1.805718290019005
 20
41.07100822878935
 30
0.0
 42
0.4142135623730951
  0
VERTEX
  5
435
  8
T8_DRILL
 10
1.618218290019005
 20
40.88350822878935
 30
0.0
 42
0.4142135623730951
  0
SEQEND
  5
4C7
  8
T8_DRILL
  0
POLYLINE
  5
79
  8
T8_DRILL
 66
     1
 10
0.0
 20
0.0
 30
0.0
 70
     1
  0
VERTEX
  5
436
  8
T8_DRILL
 10
1.618694717461651
 20
2.771866289172265
 30
0.0
  0
VERTEX
  5
437
  8
T8_DRILL
 10
1.618250671539887
 20
2.762224694003297
 30
0.0
  0
VERTEX
  5
438
  8
T8_DRILL
 10
1.618294525787348
 20
2.752675238244378
 30
0.0
  0
VERTEX
  5
439
  8
T8_DRILL
 10
1.618815368217492
 20
2.743230512264603
 30
0.0
  0
VERTEX
  5
43A
  8
T8_DRILL
 10
1.619802286843776
 20
2.733903106433069
 30
0.0
  0
VERTEX
  5
43B
  8
T8_DRILL
 10
1.621244369679659
 20
2.724705611118872
 30
0.0
  0
VERTEX
  5
43C
  8
T8_DRILL
 10
1.6231307047386
 20
2.715650616691109
 30
0.0
  0
VERTEX
  5
43D
  8
T8_DRILL
 10
1.625450380034057
 20
2.706750713518876
 30
0.0
  0
VERTEX
  5
43E
  8
T8_DRILL
 10
1.628192483579488
 20
2.698018491971268
 30
0.0
  0
VERTEX
  5
43F
  8
T8_DRILL
 10
1.631346103388352
 20
2.689466542417382
 30
0.0
  0
VERTEX
  5
440
  8
T8_DRILL
 10
1.634900327474106
 20
2.681107455226315
 30
0.0
  0
VERTEX
  5
441
  8
T8_DRILL
 10
1.63884424385021
 20
2.672953820767162
 30
0.0
  0
VERTEX
  5
442
  8
T8_DRILL
 10
1.643166940530122
 20
2.66501822940902
 30
0.0
  0
VERTEX
  5
443
  8
T8_DRILL
 10
1.6478575055273
 20
2.657313271520985
 30
0.0
  0
VERTEX
  5
444
  8
T8_DRILL
 10
1.652905026855203
 20
2.649851537472153
 30
0.0
  0
VERTEX
  5
445
  8
T8_DRILL
 10
1.658298592527289
 20
2.64264561763162
 30
0.0
  0
VERTEX
  5
446
  8
T8_DRILL
 10
1.664027290557016
 20
2.635708102368482
 30
0.0
  0
VERTEX
  5
447
  8
T8_DRILL
 10
1.670080208957842
 20
2.629051582051837
 30
0.0
  0
VERTEX
  5
448
  8
T8_DRILL
 10
1.676446435743227
 20
2.622688647050779
 30
0.0
  0
VERTEX
  5
449
  8
T8_DRILL
 10
1.683115058926628
 20
2.616631887734405
 30
0.0
  0
VERTEX
  5
44A
  8
T8_DRILL
 10
1.690075166521504
 20
2.610893894471812
 30
0.0
  0
VERTEX
  5
44B
  8
T8_DRILL
 10
1.697315846541313
 20
2.605487257632095
 30
0.0
  0
VERTEX
  5
44C
  8
T8_DRILL
 10
1.704826186999514
 20
2.60042456758435
 30
0.0
  0
VERTEX
  5
44D
  8
T8_DRILL
 10
1.712595275909565
 20
2.595718414697675
 30
0.0
  0
VERTEX
  5
44E
  8
T8_DRILL
 10
1.720612201284924
 20
2.591381389341165
 30
0.0
  0
VERTEX
  5
44F
  8
T8_DRILL
 10
1.72886605113905
 20
2.587426081883916
 30
0.0
  0
VERTEX
  5
450
  8
T8_DRILL
 10
1.737345913485401
 20
2.583865082695025
 30
0.0
  0
VERTEX
  5
451
  8
T8_DRILL
 10
1.746040876337435
 20
2.580710982143588
 30
0.0
  0
VERTEX
  5
452
  8
T8_DRILL
 10
1.754940027708611
 20
2.5779763705987
 30
0.0
  0
VERTEX
  5
453
  8
T8_DRILL
 10
1.764032455612388
 20
2.575673838429458
 30
0.0
  0
VERTEX
  5
454
  8
T8_DRILL
 10
1.773307248062223
 20
2.57381597600496
 30
0.0
  0
VERTEX
  5
455
  8
T8_DRILL
 10
1.782753493071575
 20
2.5724153736943
 30
0.0
  0
VERTEX
  5
456
  8
T8_DRILL
 10
1.792360278653902
 20
2.571484621866574
 30
0.0
  0
VERTEX
  5
457
  8
T8_DRILL
 10
1.802001975725811
 20
2.571040567463706
 30
0.0
  0
VERTEX
  5
458
  8
T8_DRILL
 10
1.811551519662079
 20
2.571084411973422
 30
0.0
  0
VERTEX
  5
459
  8
T8_DRILL
 10
1.820996320788942
 20
2.571605243612393
 30
0.0
  0
VERTEX
  5
45A
  8
T8_DRILL
 10
1.830323789432639
 20
2.572592150597289
 30
0.0
  0
VERTEX
  5
45B
  8
T8_DRILL
 10
1.839521335919406
 20
2.57403422114478
 30
0.0
  0
VERTEX
  5
45C
  8
T8_DRILL
 10
1.848576370575481
 20
2.575920543471538
 30
0.0
  0
VERTEX
  5
45D
  8
T8_DRILL
 10
1.857476303727102
 20
2.578240205794233
 30
0.0
  0
VERTEX
  5
45E
  8
T8_DRILL
 10
1.866208545700506
 20
2.580982296329535
 30
0.0
  0
VERTEX
  5
45F
  8
T8_DRILL
 10
1.874760506821929
 20
2.584135903294115
 30
0.0
  0
VERTEX
  5
460
  8
T8_DRILL
 10
1.88311959741761
 20
2.587690114904644
 30
0.0
  0
VERTEX
  5
461
  8
T8_DRILL
 10
1.891273227813786
 20
2.591634019377792
 30
0.0
  0
VERTEX
  5
462
  8
T8_DRILL
 10
1.899208808336695
 20
2.59595670493023
 30
0.0
  0
VERTEX
  5
463
  8
T8_DRILL
 10
1.906913749312573
 20
2.600647259778628
 30
0.0
  0
VERTEX
  5
464
  8
T8_DRILL
 10
1.914375461067658
 20
2.605694772139656
 30
0.0
  0
VERTEX
  5
465
  8
T8_DRILL
 10
1.921581353928187
 20
2.611088330229986
 30
0.0
  0
VERTEX
  5
466
  8
T8_DRILL
 10
1.928518838220398
 20
2.616817022266289
 30
0.0
  0
VERTEX
  5
467
  8
T8_DRILL
 10
1.935175324270529
 20
2.622869936465233
 30
0.0
  0
VERTEX
  5
468
  8
T8_DRILL
 10
1.941538222404816
 20
2.629236161043492
 30
0.0
  0
VERTEX
  5
469
  8
T8_DRILL
 10
1.947594942949497
 20
2.635904784217733
 30
0.0
  0
VERTEX
  5
46A
  8
T8_DRILL
 10
1.953332896230809
 20
2.64286489420463
 30
0.0
  0
VERTEX
  5
46B
  8
T8_DRILL
 10
1.95873949257499
 20
2.650105579220851
 30
0.0
  0
VERTEX
  5
46C
  8
T8_DRILL
 10
1.963802142308277
 20
2.657615927483068
 30
0.0
  0
VERTEX
  5
46D
  8
T8_DRILL
 10
1.968508255756907
 20
2.66538502720795
 30
0.0
  0
VERTEX
  5
46E
  8
T8_DRILL
 10
1.972845243247118
 20
2.67340196661217
 30
0.0
  0
VERTEX
  5
46F
  8
T8_DRILL
 10
1.976800515105147
 20
2.681655833912396
 30
0.0
  0
VERTEX
  5
470
  8
T8_DRILL
 10
1.980361481657232
 20
2.6901357173253
 30
0.0
  0
VERTEX
  5
471
  8
T8_DRILL
 10
1.98351555322961
 20
2.698830705067553
 30
0.0
  0
VERTEX
  5
472
  8
T8_DRILL
 10
1.986250140148518
 20
2.707729885355825
 30
0.0
  0
VERTEX
  5
473
  8
T8_DRILL
 10
1.988552652740194
 20
2.716822346406786
 30
0.0
  0
VERTEX
  5
474
  8
T8_DRILL
 10
1.990410501330875
 20
2.726097176437107
 30
0.0
  0
VERTEX
  5
475
  8
T8_DRILL
 10
1.991811096246798
 20
2.735543463663459
 30
0.0
  0
VERTEX
  5
476
  8
T8_DRILL
 10
1.992741847814202
 20
2.745150296302512
 30
0.0
  0
VERTEX
  5
477
  8
T8_DRILL
 10
1.993185896521344
 20
2.754791862927759
 30
0.0
  0
VERTEX
  5
478
  8
T8_DRILL
 10
1.993142054250662
 20
2.764341292462624
 30
0.0
  0
VERTEX
  5
479
  8
T8_DRILL
 10
1.992621232050065
 20
2.773785994468886
 30
0.0
  0
VERTEX
  5
47A
  8
T8_DRILL
 10
1.991634340967462
 20
2.783113378508327
 30
0.0
  0
VERTEX
  5
47B
  8
T8_DRILL
 10
1.990192292050762
 20
2.792310854142728
 30
0.0
  0
VERTEX
  5
47C
  8
T8_DRILL
 10
1.988305996347876
 20
2.801365830933869
 30
0.0
  0
VERTEX
  5
47D
  8
T8_DRILL
 10
1.985986364906713
 20
2.810265718443532
 30
0.0
  0
VERTEX
  5
47E
  8
T8_DRILL
 10
1.983244308775182
 20
2.818997926233497
 30
0.0
  0
VERTEX
  5
47F
  8
T8_DRILL
 10
1.980090739001193
 20
2.827549863865545
 30
0.0
  0
VERTEX
  5
480
  8
T8_DRILL
 10
1.976536566632656
 20
2.835908940901458
 30
0.0
  0
VERTEX
  5
481
  8
T8_DRILL
 10
1.972592702717479
 20
2.844062566903015
 30
0.0
  0
VERTEX
  5
482
  8
T8_DRILL
 10
1.968270058303571
 20
2.851998151431998
 30
0.0
  0
VERTEX
  5
483
  8
T8_DRILL
 10
1.963579544438844
 20
2.859703104050188
 30
0.0
  0
VERTEX
  5
484
  8
T8_DRILL
 10
1.958532072171207
 20
2.867164834319365
 30
0.0
  0
VERTEX
  5
485
  8
T8_DRILL
 10
1.953138552548567
 20
2.874370751801312
 30
0.0
  0
VERTEX
  5
486
  8
T8_DRILL
 10
1.947409896618836
 20
2.881308266057807
 30
0.0
  0
VERTEX
  5
487
  8
T8_DRILL
 10
1.941357015429923
 20
2.887964786650633
 30
0.0
  0
VERTEX
  5
488
  8
T8_DRILL
 10
1.934990820029737
 20
2.89432772314157
 30
0.0
  0
VERTEX
  5
489
  8
T8_DRILL
 10
1.928322221466188
 20
2.900384485092399
 30
0.0
  0
VERTEX
  5
48A
  8
T8_DRILL
 10
1.921362130787185
 20
2.906122482064901
 30
0.0
  0
VERTEX
  5
48B
  8
T8_DRILL
 10
1.914121459040637
 20
2.911529123620857
 30
0.0
  0
VERTEX
  5
48C
  8
T8_DRILL
 10
1.906611117274455
 20
2.916591819322048
 30
0.0
  0
VERTEX
  5
48D
  8
T8_DRILL
 10
1.898842016536547
 20
2.921297978730255
 30
0.0
  0
VERTEX
  5
48E
  8
T8_DRILL
 10
1.890825067874824
 20
2.925635011407258
 30
0.0
  0
VERTEX
  5
48F
  8
T8_DRILL
 10
1.882571182337194
 20
2.929590326914838
 30
0.0
  0
VERTEX
  5
490
  8
T8_DRILL
 10
1.874091270971567
 20
2.933151334814777
 30
0.0
  0
VERTEX
  5
491
  8
T8_DRILL
 10
1.865396244825853
 20
2.936305444668855
 30
0.0
  0
VERTEX
  5
492
  8
T8_DRILL
 10
1.85649701494796
 20
2.939040066038853
 30
0.0
  0
VERTEX
  5
493
  8
T8_DRILL
 10
1.8474044923858
 20
2.941342608486551
 30
0.0
  0
VERTEX
  5
494
  8
T8_DRILL
 10
1.838129588187281
 20
2.943200481573733
 30
0.0
  0
VERTEX
  5
495
  8
T8_DRILL
 10
1.828683213400312
 20
2.944601094862176
 30
0.0
  0
VERTEX
  5
496
  8
T8_DRILL
 10
1.819076279072803
 20
2.945531857913664
 30
0.0
  0
VERTEX
  5
497
  8
T8_DRILL
 10
1.809434730746075
 20
2.94597590109277
 30
0.0
  0
VERTEX
  5
498
  8
T8_DRILL
 10
1.799885316587424
 20
2.945932045605271
 30
0.0
  0
VERTEX
  5
499
  8
T8_DRILL
 10
1.790440627209244
 20
2.945411203303617
 30
0.0
  0
VERTEX
  5
49A
  8
T8_DRILL
 10
1.781113253223931
 20
2.944424286040264
 30
0.0
  0
VERTEX
  5
49B
  8
T8_DRILL
 10
1.771915785243878
 20
2.942982205667662
 30
0.0
  0
VERTEX
  5
49C
  8
T8_DRILL
 10
1.762860813881481
 20
2.941095874038264
 30
0.0
  0
VERTEX
  5
49D
  8
T8_DRILL
 10
1.753960929749135
 20
2.938776203004521
 30
0.0
  0
VERTEX
  5
49E
  8
T8_DRILL
 10
1.745228723459234
 20
2.936034104418888
 30
0.0
  0
VERTEX
  5
49F
  8
T8_DRILL
 10
1.736676785624173
 20
2.932880490133814
 30
0.0
  0
VERTEX
  5
4A0
  8
T8_DRILL
 10
1.728317706856347
 20
2.929326272001755
 30
0.0
  0
VERTEX
  5
4A1
  8
T8_DRILL
 10
1.720164077768151
 20
2.92538236187516
 30
0.0
  0
VERTEX
  5
4A2
  8
T8_DRILL
 10
1.712228488971979
 20
2.921059671606483
 30
0.0
  0
VERTEX
  5
4A3
  8
T8_DRILL
 10
1.704523531080226
 20
2.916369113048177
 30
0.0
  0
VERTEX
  5
4A4
  8
T8_DRILL
 10
1.697061794705288
 20
2.911321598052692
 30
0.0
  0
VERTEX
  5
4A5
  8
T8_DRILL
 10
1.689855870459558
 20
2.905928038472483
 30
0.0
  0
VERTEX
  5
4A6
  8
T8_DRILL
 10
1.682918348955432
 20
2.90019934616
 30
0.0
  0
VERTEX
  5
4A7
  8
T8_DRILL
 10
1.676261820805305
 20
2.894146432967697
 30
0.0
  0
VERTEX
  5
4A8
  8
T8_DRILL
 10
1.66989887662157
 20
2.887780210748026
 30
0.0
  0
VERTEX
  5
4A9
  8
T8_DRILL
 10
1.663842107016624
 20
2.881111591353439
 30
0.0
  0
VERTEX
  5
4AA
  8
T8_DRILL
 10
1.65810410260286
 20
2.874151486636388
 30
0.0
  0
VERTEX
  5
4AB
  8
T8_DRILL
 10
1.652697453992674
 20
2.866910808449326
 30
0.0
  0
VERTEX
  5
4AC
  8
T8_DRILL
 10
1.64763475179846
 20
2.859400468644705
 30
0.0
  0
VERTEX
  5
4AD
  8
T8_DRILL
 10
1.642928586632613
 20
2.851631379074977
 30
0.0
  0
VERTEX
  5
4AE
  8
T8_DRILL
 10
1.638591549107528
 20
2.843614451592595
 30
0.0
  0
VERTEX
  5
4AF
  8
T8_DRILL
 10
1.6346362298356
 20
2.835360598050012
 30
0.0
  0
VERTEX
  5
4B0
  8
T8_DRILL
 10
1.631075219429223
 20
2.826880730299678
 30
0.0
  0
VERTEX
  5
4B1
  8
T8_DRILL
 10
1.627921108500793
 20
2.818185760194047
 30
0.0
  0
VERTEX
  5
4B2
  8
T8_DRILL
 10
1.625186487662703
 20
2.809286599585572
 30
0.0
  0
VERTEX
  5
4B3
  8
T8_DRILL
 10
1.622883947527349
 20
2.800194160326703
 30
0.0
  0
VERTEX
  5
4B4
  8
T8_DRILL
 10
1.621026078707126
 20
2.790919354269894
 30
0.0
  0
VERTEX
  5
4B5
  8
T8_DRILL
 10
1.619625471814428
 20
2.781473093267597
 30
0.0
  0
SEQEND
  5
4C8
  8
T8_DRILL
  0
POLYLINE
  5
7B
  8
T3_PROFILE_INSIDE
 66
     1
 10
0.0
 20
0.0
 30
0.0
  0
VERTEX
  5
4B6
  8
T3_PROFILE_INSIDE
 10
3.611457777153106
 20
1.0
 30
0.0
  0
VERTEX
  5
4B7
  8
T3_PROFILE_INSIDE
 10
0.0
 20
1.314928567919853
 30
0.0
  0
SEQEND
  5
4C9
  8
T3_PROFILE_INSIDE
  0
POLYLINE
  5
7C
  8
T3_PROFILE_INSIDE
 66
     1
 10
0.0
 20
0.0
 30
0.0
  0
VERTEX
  5
4B8
  8
T3_PROFILE_INSIDE
 10
0.0024580448999245
 20
94.1738164575787
 30
0.0
  0
VERTEX
  5
4B9
  8
T3_PROFILE_INSIDE
 10
3.522950009010231
 20
93.94993769900107
 30
0.0
  0
SEQEND
  5
4CA
  8
T3_PROFILE_INSIDE
  0
POLYLINE
  5
7E
  8
T5_BEVEL_0_1
 66
     1
 10
0.0
 20
0.0
 30
0.0
  0
VERTEX
  5
4BA
  8
T5_BEVEL_0_1
 10
0.0495701440529821
 20
61.13353715506238
 30
0.0
  0
VERTEX
  5
4BB
  8
T5_BEVEL_0_1
 10
3.549570144052982
 20
61.13353715506238
 30
0.0
  0
SEQEND
  5
4CB
  8
T5_BEVEL_0_1
  0
POLYLINE
  5
7F
  8
T5_BEVEL_0_1
 66
     1
 10
0.0
 20
0.0
 30
0.0
  0
VERTEX
  5
4BC
  8
T5_BEVEL_0_1
 10
3.561887633100124
 20
61.20623726661869
 30
0.0
  0
VERTEX
  5
4BD
  8
T5_BEVEL_0_1
 10
0.0618876331001239
 20
61.20623726661869
 30
0.0
  0
SEQEND
  5
4CC
  8
T5_BEVEL_0_1
  0
ENDSEC
  0
EOF
