  0
SECTION
  2
HEADER
  9
$ACADVER
  1
AC1009
  9
$DWGCODEPAGE
  3
ansi_1252
  9
$INSBASE
 10
0.0
 20
0.0
 30
0.0
  9
$EXTMIN
 10
0.0
 20
2.6743
 30
0.0
  9
$EXTMAX
 10
3.79085734497947
 20
92.32577514516582
 30
0.0
  9
$LIMMIN
 10
0.0
 20
0.0
  9
$LIMMAX
 10
12.0
 20
9.0
  9
$ORTHOMODE
 70
     0
  9
$REGENMODE
 70
     1
  9
$FILLMODE
 70
     1
  9
$QTEXTMODE
 70
     0
  9
$MIRRTEXT
 70
     1
  9
$DRAGMODE
 70
     2
  9
$LTSCALE
 40
1.0
  9
$OSMODE
 70
    37
  9
$ATTMODE
 70
     1
  9
$TEXTSIZE
 40
0.2
  9
$TRACEWID
 40
0.05
  9
$TEXTSTYLE
  7
STANDARD
  9
$CLAYER
  8
0
  9
$CELTYPE
  6
BYLAYER
  9
$CECOLOR
 62
   256
  9
$DIMSCALE
 40
1.0
  9
$DIMASZ
 40
0.18
  9
$DIMEXO
 40
0.0625
  9
$DIMDLI
 40
0.38
  9
$DIMRND
 40
0.0
  9
$DIMDLE
 40
0.0
  9
$DIMEXE
 40
0.18
  9
$DIMTP
 40
0.0
  9
$DIMTM
 40
0.0
  9
$DIMTXT
 40
0.18
  9
$DIMCEN
 40
0.09
  9
$DIMTSZ
 40
0.0
  9
$DIMTOL
 70
     0
  9
$DIMLIM
 70
     0
  9
$DIMTIH
 70
     1
  9
$DIMTOH
 70
     1
  9
$DIMSE1
 70
     0
  9
$DIMSE2
 70
     0
  9
$DIMTAD
 70
     0
  9
$DIMZIN
 70
     0
  9
$DIMBLK
  1

  9
$DIMASO
 70
     1
  9
$DIMSHO
 70
     1
  9
$DIMPOST
  1

  9
$DIMAPOST
  1

  9
$DIMALT
 70
     0
  9
$DIMALTD
 70
     2
  9
$DIMALTF
 40
25.4
  9
$DIMLFAC
 40
1.0
  9
$DIMTOFL
 70
     0
  9
$DIMTVP
 40
0.0
  9
$DIMTIX
 70
     0
  9
$DIMSOXD
 70
     0
  9
$DIMSAH
 70
     0
  9
$DIMBLK1
  1

  9
$DIMBLK2
  1

  9
$DIMSTYLE
  2
STANDARD
  9
$DIMCLRD
 70
     0
  9
$DIMCLRE
 70
     0
  9
$DIMCLRT
 70
     0
  9
$DIMTFAC
 40
1.0
  9
$DIMGAP
 40
0.09
  9
$LUNITS
 70
     2
  9
$LUPREC
 70
     4
  9
$SKETCHINC
 40
0.1
  9
$FILLETRAD
 40
0.5
  9
$AUNITS
 70
     0
  9
$AUPREC
 70
     0
  9
$MENU
  1
.
  9
$ELEVATION
 40
0.0
  9
$PELEVATION
 40
0.0
  9
$THICKNESS
 40
0.0
  9
$LIMCHECK
 70
     0
  9
$CHAMFERA
 40
0.0
  9
$CHAMFERB
 40
0.0
  9
$SKPOLY
 70
     0
  9
$TDCREATE
 40
2454910.5
  9
$TDUPDATE
 40
2461252.025103553
  9
$TDINDWG
 40
0.0000000116
  9
$TDUSRTIMER
 40
0.0000000116
  9
$USRTIMER
 70
     1
  9
$ANGBASE
 50
0.0
  9
$ANGDIR
 70
     0
  9
$PDMODE
 70
     0
  9
$PDSIZE
 40
0.0
  9
$PLINEWID
 40
0.0
  9
$COORDS
 70
     1
  9
$SPLFRAME
 70
     0
  9
$SPLINETYPE
 70
     6
  9
$SPLINESEGS
 70
     8
  9
$ATTDIA
 70
     0
  9
$ATTREQ
 70
     1
  9
$HANDLING
 70
     1
  9
$HANDSEED
  5
534
  9
$SURFTAB1
 70
     6
  9
$SURFTAB2
 70
     6
  9
$SURFTYPE
 70
     6
  9
$SURFU
 70
     6
  9
$SURFV
 70
     6
  9
$UCSNAME
  2

  9
$UCSORG
 10
0.0
 20
0.0
 30
0.0
  9
$UCSXDIR
 10
1.0
 20
0.0
 30
0.0
  9
$UCSYDIR
 10
0.0
 20
1.0
 30
0.0
  9
$PUCSNAME
  2

  9
$PUCSORG
 10
0.0
 20
0.0
 30
0.0
  9
$PUCSXDIR
 10
1.0
 20
0.0
 30
0.0
  9
$PUCSYDIR
 10
0.0
 20
1.0
 30
0.0
  9
$USERI1
 70
     0
  9
$USERI2
 70
     0
  9
$USERI3
 70
     0
  9
$USERI4
 70
     0
  9
$USERI5
 70
     0
  9
$USERR1
 40
0.0
  9
$USERR2
 40
0.0
  9
$USERR3
 40
0.0
  9
$USERR4
 40
0.0
  9
$USERR5
 40
0.0
  9
$WORLDVIEW
 70
     1
  9
$SHADEDGE
 70
     3
  9
$SHADEDIF
 70
    70
  9
$TILEMODE
 70
     1
  9
$MAXACTVP
 70
    64
  9
$PLIMCHECK
 70
     0
  9
$PEXTMIN
 10
1.000000000000000E+20
 20
1.000000000000000E+20
 30
1.000000000000000E+20
  9
$PEXTMAX
 10
-1.000000000000000E+20
 20
-1.000000000000000E+20
 30
-1.000000000000000E+20
  9
$PLIMMIN
 10
0.0
 20
0.0
  9
$PLIMMAX
 10
12.0
 20
9.0
  9
$UNITMODE
 70
     0
  9
$VISRETAIN
 70
     1
  9
$PLINEGEN
 70
     0
  9
$PSLTSCALE
 70
     1
  0
ENDSEC
  0
SECTION
  2
TABLES
  0
TABLE
  2
VPORT
 70
     1
  0
VPORT
  2
*ACTIVE
 70
     0
 10
0.0
 20
0.0
 11
1.0
 21
1.0
 12
10.42990654205607
 22
4.5
 13
0.0
 23
0.0
 14
0.5
 24
0.5
 15
0.5
 25
0.5
 16
0.0
 26
0.0
 36
1.0
 17
0.0
 27
0.0
 37
0.0
 40
9.0
 41
1.972972972850329
 42
50.0
 43
0.0
 44
0.0
 50
0.0
 51
0.0
 71
     0
 72
   100
 73
     1
 74
     3
 75
     0
 76
     0
 77
     0
 78
     0
  0
ENDTAB
  0
TABLE
  2
LTYPE
 70
     2
  0
LTYPE
  2
CONTINUOUS
 70
     0
  3
Solid line
 72
    65
 73
     0
 40
0.0
  0
LTYPE
  2
CONTINUOUS2
 70
     0
  3
Solid Line
 72
    65
 73
     0
 40
0.0
  0
ENDTAB
  0
TABLE
  2
LAYER
 70
     6
  0
LAYER
  2
0
 70
     0
 62
     7
  6
CONTINUOUS
  0
LAYER
  2
PART_LETTERS
 70
     0
 62
    18
  6
CONTINUOUS
  0
LAYER
  2
T8_DRILL
 70
     0
 62
    18
  6
CONTINUOUS
  0
LAYER
  2
T3_POCKET
 70
     0
 62
    18
  6
CONTINUOUS
  0
LAYER
  2
T3_PROFILE_INSIDE
 70
     0
 62
    18
  6
CONTINUOUS
  0
LAYER
  2
T3_PROFILE_OUTSIDE
 70
     0
 62
    18
  6
CONTINUOUS
  0
ENDTAB
  0
TABLE
  2
STYLE
 70
     1
  0
STYLE
  2
STANDARD
 70
     0
 40
0.0
 41
1.0
 50
0.0
 71
     0
 42
0.2
  3
txt
  4

  0
ENDTAB
  0
TABLE
  2
VIEW
 70
     0
  0
ENDTAB
  0
TABLE
  2
UCS
 70
     0
  0
ENDTAB
  0
TABLE
  2
APPID
 70
     1
  0
APPID
  2
ACAD
 70
     0
  0
ENDTAB
  0
TABLE
  2
DIMSTYLE
 70
     1
  0
DIMSTYLE
  2
STANDARD
 70
     0
  3

  4

  5

  6

  7

 40
1.0
 41
0.18
 42
0.0625
 43
0.38
 44
0.18
 45
0.0
 46
0.0
 47
0.0
 48
0.0
140
0.18
141
0.09
142
0.0
143
25.4
144
1.0
145
0.0
146
1.0
147
0.09
 71
     0
 72
     0
 73
     1
 74
     1
 75
     0
 76
     0
 77
     0
 78
     0
170
     0
171
     2
172
     0
173
     0
174
     0
175
     0
176
     0
177
     0
178
     0
  0
ENDTAB
  0
ENDSEC
  0
SECTION
  2
BLOCKS
  0
BLOCK
  8
0
  2
$MODEL_SPACE
 70
     0
 10
0.0
 20
0.0
 30
0.0
  3
$MODEL_SPACE
  1

  0
ENDBLK
  5
21
  8
0
  0
BLOCK
 67
     1
  8
0
  2
$PAPER_SPACE
 70
     0
 10
0.0
 20
0.0
 30
0.0
  3
$PAPER_SPACE
  1

  0
ENDBLK
  5
1D
 67
     1
  8
0
  0
ENDSEC
  0
SECTION
  2
ENTITIES
  0
POLYLINE
  5
70
  8
PART_LETTERS
 66
     1
 10
0.0
 20
0.0
 30
0.0
 70
     1
  0
VERTEX
  5
88
  8
PART_LETTERS
 10
0.4165194326544723
 20
34.48051979306528
 30
0.0
  0
VERTEX
  5
89
  8
PART_LETTERS
 10
0.7884693580831055
 20
34.77177618747892
 30
0.0
  0
VERTEX
  5
8A
  8
PART_LETTERS
 10
1.245137974374246
 20
34.58707001109019
 30
0.0
  0
VERTEX
  5
8B
  8
PART_LETTERS
 10
1.170109361729318
 20
35.07062042383119
 30
0.0
  0
VERTEX
  5
8C
  8
PART_LETTERS
 10
1.538332333997344
 20
35.35895841749919
 30
0.0
  0
VERTEX
  5
8D
  8
PART_LETTERS
 10
1.612625823785143
 20
34.56339964064741
 30
0.0
  0
VERTEX
  5
8E
  8
PART_LETTERS
 10
2.426059229796579
 20
34.29131399722146
 30
0.0
  0
VERTEX
  5
8F
  8
PART_LETTERS
 10
2.046655398046731
 20
33.99422080131657
 30
0.0
  0
VERTEX
  5
90
  8
PART_LETTERS
 10
1.555951459809435
 20
34.17632438587396
 30
0.0
  0
VERTEX
  5
91
  8
PART_LETTERS
 10
1.615074222048377
 20
33.65626999497289
 30
0.0
  0
VERTEX
  5
92
  8
PART_LETTERS
 10
1.237906562194893
 20
33.36092783951538
 30
0.0
  0
VERTEX
  5
93
  8
PART_LETTERS
 10
1.168909653543943
 20
34.22556603786713
 30
0.0
  0
SEQEND
  5
527
  8
PART_LETTERS
  0
POLYLINE
  5
71
  8
PART_LETTERS
 66
     1
 10
0.0
 20
0.0
 30
0.0
 70
     1
  0
VERTEX
  5
94
  8
PART_LETTERS
 10
2.192170139190696
 20
34.69135134364269
 30
0.0
  0
VERTEX
  5
95
  8
PART_LETTERS
 10
2.497674137608678
 20
34.96304303498307
 30
0.0
  0
VERTEX
  5
96
  8
PART_LETTERS
 10
2.515486363749323
 20
34.94636622791073
 30
0.0
  0
VERTEX
  5
97
  8
PART_LETTERS
 10
2.533062099917321
 20
34.93138305383624
 30
0.0
  0
VERTEX
  5
98
  8
PART_LETTERS
 10
2.541761284261576
 20
34.92452657917318
 30
0.0
  0
VERTEX
  5
99
  8
PART_LETTERS
 10
2.55040134611267
 20
34.91809351275957
 30
0.0
  0
VERTEX
  5
9A
  8
PART_LETTERS
 10
2.558982285470601
 20
34.91208385459544
 30
0.0
  0
VERTEX
  5
9B
  8
PART_LETTERS
 10
2.56750410233537
 20
34.90649760468075
 30
0.0
  0
VERTEX
  5
9C
  8
PART_LETTERS
 10
2.575966796706977
 20
34.90133476301553
 30
0.0
  0
VERTEX
  5
9D
  8
PART_LETTERS
 10
2.584370368585422
 20
34.89659532959975
 30
0.0
  0
VERTEX
  5
9E
  8
PART_LETTERS
 10
2.592714817970704
 20
34.89227930443344
 30
0.0
  0
VERTEX
  5
9F
  8
PART_LETTERS
 10
2.601000144862825
 20
34.88838668751659
 30
0.0
  0
VERTEX
  5
A0
  8
PART_LETTERS
 10
2.609226349261784
 20
34.8849174788492
 30
0.0
  0
VERTEX
  5
A1
  8
PART_LETTERS
 10
2.61739343116758
 20
34.88187167843127
 30
0.0
  0
VERTEX
  5
A2
  8
PART_LETTERS
 10
2.625501390580214
 20
34.8792492862628
 30
0.0
  0
VERTEX
  5
A3
  8
PART_LETTERS
 10
2.633550227499687
 20
34.87705030234378
 30
0.0
  0
VERTEX
  5
A4
  8
PART_LETTERS
 10
2.646537618067331
 20
34.87426097261319
 30
0.0
  0
VERTEX
  5
A5
  8
PART_LETTERS
 10
2.659468570390092
 20
34.87226352237637
 30
0.0
  0
VERTEX
  5
A6
  8
PART_LETTERS
 10
2.672343084467972
 20
34.87105795163338
 30
0.0
  0
VERTEX
  5
A7
  8
PART_LETTERS
 10
2.68516116030097
 20
34.87064426038416
 30
0.0
  0
VERTEX
  5
A8
  8
PART_LETTERS
 10
2.697922797889086
 20
34.87102244862876
 30
0.0
  0
VERTEX
  5
A9
  8
PART_LETTERS
 10
2.71062799723232
 20
34.87219251636715
 30
0.0
  0
VERTEX
  5
AA
  8
PART_LETTERS
 10
2.723276758330672
 20
34.87415446359935
 30
0.0
  0
VERTEX
  5
AB
  8
PART_LETTERS
 10
2.735869081184143
 20
34.87690829032534
 30
0.0
  0
VERTEX
  5
AC
  8
PART_LETTERS
 10
2.748404965792731
 20
34.88045399654514
 30
0.0
  0
VERTEX
  5
AD
  8
PART_LETTERS
 10
2.760884412156439
 20
34.88479158225873
 30
0.0
  0
VERTEX
  5
AE
  8
PART_LETTERS
 10
2.773307420275263
 20
34.88992104746612
 30
0.0
  0
VERTEX
  5
AF
  8
PART_LETTERS
 10
2.785673990149207
 20
34.89584239216731
 30
0.0
  0
VERTEX
  5
B0
  8
PART_LETTERS
 10
2.797984121778268
 20
34.90255561636231
 30
0.0
  0
VERTEX
  5
B1
  8
PART_LETTERS
 10
2.810237815162447
 20
34.91006072005109
 30
0.0
  0
VERTEX
  5
B2
  8
PART_LETTERS
 10
2.822435070301744
 20
34.91835770323368
 30
0.0
  0
VERTEX
  5
B3
  8
PART_LETTERS
 10
2.83457588719616
 20
34.92744656591007
 30
0.0
  0
VERTEX
  5
B4
  8
PART_LETTERS
 10
2.843380438728154
 20
34.93455470923043
 30
0.0
  0
VERTEX
  5
B5
  8
PART_LETTERS
 10
2.851718370495191
 20
34.94172489557521
 30
0.0
  0
VERTEX
  5
B6
  8
PART_LETTERS
 10
2.85958968249727
 20
34.9489571249444
 30
0.0
  0
VERTEX
  5
B7
  8
PART_LETTERS
 10
2.86699437473439
 20
34.95625139733801
 30
0.0
  0
VERTEX
  5
B8
  8
PART_LETTERS
 10
2.873932447206552
 20
34.96360771275603
 30
0.0
  0
VERTEX
  5
B9
  8
PART_LETTERS
 10
2.880403899913757
 20
34.97102607119847
 30
0.0
  0
VERTEX
  5
BA
  8
PART_LETTERS
 10
2.886408732856003
 20
34.97850647266533
 30
0.0
  0
VERTEX
  5
BB
  8
PART_LETTERS
 10
2.891946946033292
 20
34.98604891715661
 30
0.0
  0
VERTEX
  5
BC
  8
PART_LETTERS
 10
2.897018539445622
 20
34.99365340467231
 30
0.0
  0
VERTEX
  5
BD
  8
PART_LETTERS
 10
2.901623513092995
 20
35.00131993521242
 30
0.0
  0
VERTEX
  5
BE
  8
PART_LETTERS
 10
2.90576186697541
 20
35.00904850877696
 30
0.0
  0
VERTEX
  5
BF
  8
PART_LETTERS
 10
2.909433601092867
 20
35.01683912536591
 30
0.0
  0
VERTEX
  5
C0
  8
PART_LETTERS
 10
2.912638715445366
 20
35.02469178497927
 30
0.0
  0
VERTEX
  5
C1
  8
PART_LETTERS
 10
2.915377210032907
 20
35.03260648761704
 30
0.0
  0
VERTEX
  5
C2
  8
PART_LETTERS
 10
2.91764908485549
 20
35.04058323327925
 30
0.0
  0
VERTEX
  5
C3
  8
PART_LETTERS
 10
2.919454339913115
 20
35.04862202196587
 30
0.0
  0
VERTEX
  5
C4
  8
PART_LETTERS
 10
2.920840361766586
 20
35.05661435152538
 30
0.0
  0
VERTEX
  5
C5
  8
PART_LETTERS
 10
2.921854536976708
 20
35.06445171980628
 30
0.0
  0
VERTEX
  5
C6
  8
PART_LETTERS
 10
2.922496865543481
 20
35.07213412680856
 30
0.0
  0
VERTEX
  5
C7
  8
PART_LETTERS
 10
2.922767347466904
 20
35.07966157253222
 30
0.0
  0
VERTEX
  5
C8
  8
PART_LETTERS
 10
2.922665982746979
 20
35.08703405697725
 30
0.0
  0
VERTEX
  5
C9
  8
PART_LETTERS
 10
2.922192771383705
 20
35.09425158014367
 30
0.0
  0
VERTEX
  5
CA
  8
PART_LETTERS
 10
2.921347713377081
 20
35.10131414203147
 30
0.0
  0
VERTEX
  5
CB
  8
PART_LETTERS
 10
2.920130808727108
 20
35.10822174264065
 30
0.0
  0
VERTEX
  5
CC
  8
PART_LETTERS
 10
2.918542057433786
 20
35.11497438197121
 30
0.0
  0
VERTEX
  5
CD
  8
PART_LETTERS
 10
2.916581459497114
 20
35.12157206002315
 30
0.0
  0
VERTEX
  5
CE
  8
PART_LETTERS
 10
2.914249014917093
 20
35.12801477679647
 30
0.0
  0
VERTEX
  5
CF
  8
PART_LETTERS
 10
2.911544723693723
 20
35.13430253229117
 30
0.0
  0
VERTEX
  5
D0
  8
PART_LETTERS
 10
2.908468585827004
 20
35.14043532650725
 30
0.0
  0
VERTEX
  5
D1
  8
PART_LETTERS
 10
2.905020601316936
 20
35.14641315944471
 30
0.0
  0
VERTEX
  5
D2
  8
PART_LETTERS
 10
2.901200770163518
 20
35.15223603110356
 30
0.0
  0
VERTEX
  5
D3
  8
PART_LETTERS
 10
2.897009092366751
 20
35.15790394148377
 30
0.0
  0
VERTEX
  5
D4
  8
PART_LETTERS
 10
2.892732147203386
 20
35.16306590952263
 30
0.0
  0
VERTEX
  5
D5
  8
PART_LETTERS
 10
2.888218753838329
 20
35.16792999713147
 30
0.0
  0
VERTEX
  5
D6
  8
PART_LETTERS
 10
2.88346891227158
 20
35.17249620431031
 30
0.0
  0
VERTEX
  5
D7
  8
PART_LETTERS
 10
2.878482622503138
 20
35.17676453105913
 30
0.0
  0
VERTEX
  5
D8
  8
PART_LETTERS
 10
2.873259884533006
 20
35.18073497737793
 30
0.0
  0
VERTEX
  5
D9
  8
PART_LETTERS
 10
2.86780069836118
 20
35.18440754326672
 30
0.0
  0
VERTEX
  5
DA
  8
PART_LETTERS
 10
2.862105063987664
 20
35.1877822287255
 30
0.0
  0
VERTEX
  5
DB
  8
PART_LETTERS
 10
2.856172981412454
 20
35.19085903375426
 30
0.0
  0
VERTEX
  5
DC
  8
PART_LETTERS
 10
2.850004450635554
 20
35.19363795835302
 30
0.0
  0
VERTEX
  5
DD
  8
PART_LETTERS
 10
2.843599471656961
 20
35.19611900252175
 30
0.0
  0
VERTEX
  5
DE
  8
PART_LETTERS
 10
2.836958044476676
 20
35.19830216626049
 30
0.0
  0
VERTEX
  5
DF
  8
PART_LETTERS
 10
2.830080169094699
 20
35.20018744956919
 30
0.0
  0
VERTEX
  5
E0
  8
PART_LETTERS
 10
2.822965845511031
 20
35.20177485244789
 30
0.0
  0
VERTEX
  5
E1
  8
PART_LETTERS
 10
2.81561507372567
 20
35.20306437489657
 30
0.0
  0
VERTEX
  5
E2
  8
PART_LETTERS
 10
2.808027853738618
 20
35.20405601691525
 30
0.0
  0
VERTEX
  5
E3
  8
PART_LETTERS
 10
2.800204185549873
 20
35.2047497785039
 30
0.0
  0
VERTEX
  5
E4
  8
PART_LETTERS
 10
2.791889351218508
 20
35.20497908138987
 30
0.0
  0
VERTEX
  5
E5
  8
PART_LETTERS
 10
2.782828632803592
 20
35.20457734730049
 30
0.0
  0
VERTEX
  5
E6
  8
PART_LETTERS
 10
2.773022030305127
 20
35.20354457623576
 30
0.0
  0
VERTEX
  5
E7
  8
PART_LETTERS
 10
2.76246954372311
 20
35.20188076819567
 30
0.0
  0
VERTEX
  5
E8
  8
PART_LETTERS
 10
2.751171173057545
 20
35.19958592318024
 30
0.0
  0
VERTEX
  5
E9
  8
PART_LETTERS
 10
2.739126918308428
 20
35.19666004118944
 30
0.0
  0
VERTEX
  5
EA
  8
PART_LETTERS
 10
2.726336779475762
 20
35.1931031222233
 30
0.0
  0
VERTEX
  5
EB
  8
PART_LETTERS
 10
2.712800756559546
 20
35.1889151662818
 30
0.0
  0
VERTEX
  5
EC
  8
PART_LETTERS
 10
2.69851884955978
 20
35.18409617336494
 30
0.0
  0
VERTEX
  5
ED
  8
PART_LETTERS
 10
2.683491058476464
 20
35.17864614347273
 30
0.0
  0
VERTEX
  5
EE
  8
PART_LETTERS
 10
2.667717383309598
 20
35.17256507660518
 30
0.0
  0
VERTEX
  5
EF
  8
PART_LETTERS
 10
2.651197824059181
 20
35.16585297276227
 30
0.0
  0
VERTEX
  5
F0
  8
PART_LETTERS
 10
2.615921053307697
 20
35.15053565415039
 30
0.0
  0
VERTEX
  5
F1
  8
PART_LETTERS
 10
2.577660746222014
 20
35.1326941876371
 30
0.0
  0
VERTEX
  5
F2
  8
PART_LETTERS
 10
2.54540420154973
 20
35.1177127427407
 30
0.0
  0
VERTEX
  5
F3
  8
PART_LETTERS
 10
2.513942812123785
 20
35.10376728607331
 30
0.0
  0
VERTEX
  5
F4
  8
PART_LETTERS
 10
2.483276577944177
 20
35.09085781763494
 30
0.0
  0
VERTEX
  5
F5
  8
PART_LETTERS
 10
2.453405499010908
 20
35.07898433742558
 30
0.0
  0
VERTEX
  5
F6
  8
PART_LETTERS
 10
2.424329575323976
 20
35.06814684544523
 30
0.0
  0
VERTEX
  5
F7
  8
PART_LETTERS
 10
2.396048806883382
 20
35.05834534169391
 30
0.0
  0
VERTEX
  5
F8
  8
PART_LETTERS
 10
2.368563193689126
 20
35.04957982617159
 30
0.0
  0
VERTEX
  5
F9
  8
PART_LETTERS
 10
2.341872735741208
 20
35.04185029887829
 30
0.0
  0
VERTEX
  5
FA
  8
PART_LETTERS
 10
2.315977433039628
 20
35.035156759814
 30
0.0
  0
VERTEX
  5
FB
  8
PART_LETTERS
 10
2.290877285584386
 20
35.02949920897873
 30
0.0
  0
VERTEX
  5
FC
  8
PART_LETTERS
 10
2.266572293375482
 20
35.02487764637247
 30
0.0
  0
VERTEX
  5
FD
  8
PART_LETTERS
 10
2.243062456412916
 20
35.02129207199522
 30
0.0
  0
VERTEX
  5
FE
  8
PART_LETTERS
 10
2.220347774696688
 20
35.01874248584699
 30
0.0
  0
VERTEX
  5
FF
  8
PART_LETTERS
 10
2.198428248226797
 20
35.01722888792777
 30
0.0
  0
VERTEX
  5
100
  8
PART_LETTERS
 10
2.177303877003245
 20
35.01675127823758
 30
0.0
  0
VERTEX
  5
101
  8
PART_LETTERS
 10
2.15697466102603
 20
35.01730965677638
 30
0.0
  0
VERTEX
  5
102
  8
PART_LETTERS
 10
2.137183464123496
 20
35.01878252209718
 30
0.0
  0
VERTEX
  5
103
  8
PART_LETTERS
 10
2.117859497782017
 20
35.02119429279023
 30
0.0
  0
VERTEX
  5
104
  8
PART_LETTERS
 10
2.09900276200159
 20
35.02454496885553
 30
0.0
  0
VERTEX
  5
105
  8
PART_LETTERS
 10
2.080613256782218
 20
35.02883455029306
 30
0.0
  0
VERTEX
  5
106
  8
PART_LETTERS
 10
2.0626909821239
 20
35.03406303710285
 30
0.0
  0
VERTEX
  5
107
  8
PART_LETTERS
 10
2.045235938026636
 20
35.04023042928488
 30
0.0
  0
VERTEX
  5
108
  8
PART_LETTERS
 10
2.028248124490425
 20
35.04733672683916
 30
0.0
  0
VERTEX
  5
109
  8
PART_LETTERS
 10
2.011727541515269
 20
35.05538192976567
 30
0.0
  0
VERTEX
  5
10A
  8
PART_LETTERS
 10
1.995674189101166
 20
35.06436603806444
 30
0.0
  0
VERTEX
  5
10B
  8
PART_LETTERS
 10
1.980088067248117
 20
35.07428905173545
 30
0.0
  0
VERTEX
  5
10C
  8
PART_LETTERS
 10
1.964969175956122
 20
35.08515097077871
 30
0.0
  0
VERTEX
  5
10D
  8
PART_LETTERS
 10
1.950317515225181
 20
35.09695179519422
 30
0.0
  0
VERTEX
  5
10E
  8
PART_LETTERS
 10
1.936133085055294
 20
35.10969152498197
 30
0.0
  0
VERTEX
  5
10F
  8
PART_LETTERS
 10
1.92241588544646
 20
35.12337016014197
 30
0.0
  0
VERTEX
  5
110
  8
PART_LETTERS
 10
1.909165916398681
 20
35.13798770067422
 30
0.0
  0
VERTEX
  5
111
  8
PART_LETTERS
 10
1.896383177911955
 20
35.1535441465787
 30
0.0
  0
VERTEX
  5
112
  8
PART_LETTERS
 10
1.888357910994104
 20
35.16418573326861
 30
0.0
  0
VERTEX
  5
113
  8
PART_LETTERS
 10
1.880771074453347
 20
35.17505320798092
 30
0.0
  0
VERTEX
  5
114
  8
PART_LETTERS
 10
1.873622668289684
 20
35.18614657071561
 30
0.0
  0
VERTEX
  5
115
  8
PART_LETTERS
 10
1.866912692503115
 20
35.1974658214727
 30
0.0
  0
VERTEX
  5
116
  8
PART_LETTERS
 10
1.86064114709364
 20
35.20901096025219
 30
0.0
  0
VERTEX
  5
117
  8
PART_LETTERS
 10
1.854808032061259
 20
35.22078198705407
 30
0.0
  0
VERTEX
  5
118
  8
PART_LETTERS
 10
1.849413347405972
 20
35.23277890187833
 30
0.0
  0
VERTEX
  5
119
  8
PART_LETTERS
 10
1.844457093127779
 20
35.24500170472498
 30
0.0
  0
VERTEX
  5
11A
  8
PART_LETTERS
 10
1.839939269226679
 20
35.25745039559403
 30
0.0
  0
VERTEX
  5
11B
  8
PART_LETTERS
 10
1.835859875702674
 20
35.27012497448548
 30
0.0
  0
VERTEX
  5
11C
  8
PART_LETTERS
 10
1.832218912555763
 20
35.28302544139931
 30
0.0
  0
VERTEX
  5
11D
  8
PART_LETTERS
 10
1.829016379785945
 20
35.29615179633554
 30
0.0
  0
VERTEX
  5
11E
  8
PART_LETTERS
 10
1.826252277393222
 20
35.30950403929415
 30
0.0
  0
VERTEX
  5
11F
  8
PART_LETTERS
 10
1.823926605377593
 20
35.32308217027517
 30
0.0
  0
VERTEX
  5
120
  8
PART_LETTERS
 10
1.822039363739057
 20
35.33688618927857
 30
0.0
  0
VERTEX
  5
121
  8
PART_LETTERS
 10
1.820590552477616
 20
35.35091609630437
 30
0.0
  0
VERTEX
  5
122
  8
PART_LETTERS
 10
1.819651167452114
 20
35.36508422504707
 30
0.0
  0
VERTEX
  5
123
  8
PART_LETTERS
 10
1.819292204521396
 20
35.37930290920119
 30
0.0
  0
VERTEX
  5
124
  8
PART_LETTERS
 10
1.819513663685463
 20
35.39357214876671
 30
0.0
  0
VERTEX
  5
125
  8
PART_LETTERS
 10
1.820315544944314
 20
35.40789194374365
 30
0.0
  0
VERTEX
  5
126
  8
PART_LETTERS
 10
1.82169784829795
 20
35.42226229413201
 30
0.0
  0
VERTEX
  5
127
  8
PART_LETTERS
 10
1.82366057374637
 20
35.43668319993179
 30
0.0
  0
VERTEX
  5
128
  8
PART_LETTERS
 10
1.826203721289575
 20
35.45115466114297
 30
0.0
  0
VERTEX
  5
129
  8
PART_LETTERS
 10
1.829327290927564
 20
35.46567667776557
 30
0.0
  0
VERTEX
  5
12A
  8
PART_LETTERS
 10
1.833031282660338
 20
35.48024924979958
 30
0.0
  0
VERTEX
  5
12B
  8
PART_LETTERS
 10
1.837315696487896
 20
35.49487237724502
 30
0.0
  0
VERTEX
  5
12C
  8
PART_LETTERS
 10
1.842180532410239
 20
35.50954606010185
 30
0.0
  0
VERTEX
  5
12D
  8
PART_LETTERS
 10
1.847625790427367
 20
35.52427029837011
 30
0.0
  0
VERTEX
  5
12E
  8
PART_LETTERS
 10
1.853651470539279
 20
35.53904509204978
 30
0.0
  0
VERTEX
  5
12F
  8
PART_LETTERS
 10
1.860257572745975
 20
35.55387044114087
 30
0.0
  0
VERTEX
  5
130
  8
PART_LETTERS
 10
1.867444097047456
 20
35.56874634564338
 30
0.0
  0
VERTEX
  5
131
  8
PART_LETTERS
 10
1.875211043443721
 20
35.58367280555729
 30
0.0
  0
VERTEX
  5
132
  8
PART_LETTERS
 10
1.883683189931154
 20
35.5986794215097
 30
0.0
  0
VERTEX
  5
133
  8
PART_LETTERS
 10
1.892985314506139
 20
35.61379579412768
 30
0.0
  0
VERTEX
  5
134
  8
PART_LETTERS
 10
1.903117417168675
 20
35.62902192341123
 30
0.0
  0
VERTEX
  5
135
  8
PART_LETTERS
 10
1.914079497918762
 20
35.64435780936034
 30
0.0
  0
VERTEX
  5
136
  8
PART_LETTERS
 10
1.9258715567564
 20
35.65980345197502
 30
0.0
  0
VERTEX
  5
137
  8
PART_LETTERS
 10
1.93849359368159
 20
35.67535885125527
 30
0.0
  0
VERTEX
  5
138
  8
PART_LETTERS
 10
1.951945608694331
 20
35.69102400720109
 30
0.0
  0
VERTEX
  5
139
  8
PART_LETTERS
 10
1.966227601794623
 20
35.70679891981247
 30
0.0
  0
VERTEX
  5
13A
  8
PART_LETTERS
 10
1.981339572982467
 20
35.72268358908943
 30
0.0
  0
VERTEX
  5
13B
  8
PART_LETTERS
 10
1.997281522257862
 20
35.73867801503195
 30
0.0
  0
VERTEX
  5
13C
  8
PART_LETTERS
 10
2.014053449620808
 20
35.75478219764005
 30
0.0
  0
VERTEX
  5
13D
  8
PART_LETTERS
 10
2.031655355071305
 20
35.77099613691371
 30
0.0
  0
VERTEX
  5
13E
  8
PART_LETTERS
 10
2.050087238609354
 20
35.78731983285294
 30
0.0
  0
VERTEX
  5
13F
  8
PART_LETTERS
 10
2.069349100234954
 20
35.80375328545773
 30
0.0
  0
VERTEX
  5
140
  8
PART_LETTERS
 10
2.089440939948105
 20
35.8202964947281
 30
0.0
  0
VERTEX
  5
141
  8
PART_LETTERS
 10
2.110362757748808
 20
35.83694946066403
 30
0.0
  0
VERTEX
  5
142
  8
PART_LETTERS
 10
2.136394154195027
 20
35.85684257503892
 30
0.0
  0
VERTEX
  5
143
  8
PART_LETTERS
 10
2.162124651627147
 20
35.87551838768752
 30
0.0
  0
VERTEX
  5
144
  8
PART_LETTERS
 10
2.187554250045168
 20
35.89297689860983
 30
0.0
  0
VERTEX
  5
145
  8
PART_LETTERS
 10
2.212682949449092
 20
35.90921810780586
 30
0.0
  0
VERTEX
  5
146
  8
PART_LETTERS
 10
2.237510749838917
 20
35.92424201527559
 30
0.0
  0
VERTEX
  5
147
  8
PART_LETTERS
 10
2.262037651214643
 20
35.93804862101904
 30
0.0
  0
VERTEX
  5
148
  8
PART_LETTERS
 10
2.286263653576271
 20
35.95063792503619
 30
0.0
  0
VERTEX
  5
149
  8
PART_LETTERS
 10
2.310188756923801
 20
35.96200992732706
 30
0.0
  0
VERTEX
  5
14A
  8
PART_LETTERS
 10
2.333812961257232
 20
35.97216462789164
 30
0.0
  0
VERTEX
  5
14B
  8
PART_LETTERS
 10
2.357136266576564
 20
35.98110202672994
 30
0.0
  0
VERTEX
  5
14C
  8
PART_LETTERS
 10
2.380158672881798
 20
35.98882212384194
 30
0.0
  0
VERTEX
  5
14D
  8
PART_LETTERS
 10
2.402880180172934
 20
35.99532491922766
 30
0.0
  0
VERTEX
  5
14E
  8
PART_LETTERS
 10
2.425300788449971
 20
36.00061041288708
 30
0.0
  0
VERTEX
  5
14F
  8
PART_LETTERS
 10
2.44742049771291
 20
36.00467860482021
 30
0.0
  0
VERTEX
  5
150
  8
PART_LETTERS
 10
2.469239307961749
 20
36.00752949502706
 30
0.0
  0
VERTEX
  5
151
  8
PART_LETTERS
 10
2.490757219196491
 20
36.00916308350762
 30
0.0
  0
VERTEX
  5
152
  8
PART_LETTERS
 10
2.501424358573891
 20
36.00951753911233
 30
0.0
  0
VERTEX
  5
153
  8
PART_LETTERS
 10
2.512058314978396
 20
36.00955596830906
 30
0.0
  0
VERTEX
  5
154
  8
PART_LETTERS
 10
2.522659088410009
 20
36.00927837109781
 30
0.0
  0
VERTEX
  5
155
  8
PART_LETTERS
 10
2.533226678868727
 20
36.00868474747858
 30
0.0
  0
VERTEX
  5
156
  8
PART_LETTERS
 10
2.543761086354553
 20
36.00777509745136
 30
0.0
  0
VERTEX
  5
157
  8
PART_LETTERS
 10
2.554262310867484
 20
36.00654942101616
 30
0.0
  0
VERTEX
  5
158
  8
PART_LETTERS
 10
2.564730352407522
 20
36.00500771817298
 30
0.0
  0
VERTEX
  5
159
  8
PART_LETTERS
 10
2.575165210974666
 20
36.00314998892181
 30
0.0
  0
VERTEX
  5
15A
  8
PART_LETTERS
 10
2.585566886568917
 20
36.00097623326266
 30
0.0
  0
VERTEX
  5
15B
  8
PART_LETTERS
 10
2.595935379190274
 20
35.99848645119552
 30
0.0
  0
VERTEX
  5
15C
  8
PART_LETTERS
 10
2.606270688838737
 20
35.9956806427204
 30
0.0
  0
VERTEX
  5
15D
  8
PART_LETTERS
 10
2.616572815514307
 20
35.99255880783731
 30
0.0
  0
VERTEX
  5
15E
  8
PART_LETTERS
 10
2.626841759216983
 20
35.98912094654622
 30
0.0
  0
VERTEX
  5
15F
  8
PART_LETTERS
 10
2.637077519946766
 20
35.98536705884715
 30
0.0
  0
VERTEX
  5
160
  8
PART_LETTERS
 10
2.647280097703655
 20
35.9812971447401
 30
0.0
  0
VERTEX
  5
161
  8
PART_LETTERS
 10
2.657449492487651
 20
35.97691120422506
 30
0.0
  0
VERTEX
  5
162
  8
PART_LETTERS
 10
2.677688733136962
 20
35.96719124397104
 30
0.0
  0
VERTEX
  5
163
  8
PART_LETTERS
 10
2.697795241894697
 20
35.95620717808509
 30
0.0
  0
VERTEX
  5
164
  8
PART_LETTERS
 10
2.717769018760859
 20
35.94395900656719
 30
0.0
  0
VERTEX
  5
165
  8
PART_LETTERS
 10
2.737610063735446
 20
35.93044672941737
 30
0.0
  0
VERTEX
  5
166
  8
PART_LETTERS
 10
2.757318376818459
 20
35.91567034663561
 30
0.0
  0
VERTEX
  5
167
  8
PART_LETTERS
 10
2.776893958009897
 20
35.89962985822193
 30
0.0
  0
VERTEX
  5
168
  8
PART_LETTERS
 10
2.796336807309761
 20
35.8823252641763
 30
0.0
  0
VERTEX
  5
169
  8
PART_LETTERS
 10
2.815646924718051
 20
35.86375656449874
 30
0.0
  0
VERTEX
  5
16A
  8
PART_LETTERS
 10
2.511957128530305
 20
35.59589037501911
 30
0.0
  0
VERTEX
  5
16B
  8
PART_LETTERS
 10
2.503164063542197
 20
35.60363153291642
 30
0.0
  0
VERTEX
  5
16C
  8
PART_LETTERS
 10
2.494398862455248
 20
35.6108872290971
 30
0.0
  0
VERTEX
  5
16D
  8
PART_LETTERS
 10
2.485661525269457
 20
35.61765746356118
 30
0.0
  0
VERTEX
  5
16E
  8
PART_LETTERS
 10
2.476952051984822
 20
35.62394223630864
 30
0.0
  0
VERTEX
  5
16F
  8
PART_LETTERS
 10
2.468270442601347
 20
35.62974154733948
 30
0.0
  0
VERTEX
  5
170
  8
PART_LETTERS
 10
2.45961669711903
 20
35.6350553966537
 30
0.0
  0
VERTEX
  5
171
  8
PART_LETTERS
 10
2.45099081553787
 20
35.63988378425132
 30
0.0
  0
VERTEX
  5
172
  8
PART_LETTERS
 10
2.442392797857868
 20
35.64422671013232
 30
0.0
  0
VERTEX
  5
173
  8
PART_LETTERS
 10
2.433822644079024
 20
35.6480841742967
 30
0.0
  0
VERTEX
  5
174
  8
PART_LETTERS
 10
2.425280354201338
 20
35.65145617674446
 30
0.0
  0
VERTEX
  5
175
  8
PART_LETTERS
 10
2.416765928224811
 20
35.65434271747561
 30
0.0
  0
VERTEX
  5
176
  8
PART_LETTERS
 10
2.408279366149441
 20
35.65674379649015
 30
0.0
  0
VERTEX
  5
177
  8
PART_LETTERS
 10
2.399820667975229
 20
35.65865941378807
 30
0.0
  0
VERTEX
  5
178
  8
PART_LETTERS
 10
2.391389833702176
 20
35.66008956936937
 30
0.0
  0
VERTEX
  5
179
  8
PART_LETTERS
 10
2.38298686333028
 20
35.66103426323406
 30
0.0
  0
VERTEX
  5
17A
  8
PART_LETTERS
 10
2.374611756859542
 20
35.66149349538213
 30
0.0
  0
VERTEX
  5
17B
  8
PART_LETTERS
 10
2.366232347556092
 20
35.66148435095067
 30
0.0
  0
VERTEX
  5
17C
  8
PART_LETTERS
 10
2.357816468686062
 20
35.66102391507675
 30
0.0
  0
VERTEX
  5
17D
  8
PART_LETTERS
 10
2.34936412024945
 20
35.66011218776038
 30
0.0
  0
VERTEX
  5
17E
  8
PART_LETTERS
 10
2.340875302246257
 20
35.65874916900155
 30
0.0
  0
VERTEX
  5
17F
  8
PART_LETTERS
 10
2.332350014676482
 20
35.65693485880028
 30
0.0
  0
VERTEX
  5
180
  8
PART_LETTERS
 10
2.323788257540127
 20
35.65466925715655
 30
0.0
  0
VERTEX
  5
181
  8
PART_LETTERS
 10
2.31519003083719
 20
35.65195236407036
 30
0.0
  0
VERTEX
  5
182
  8
PART_LETTERS
 10
2.306555334567673
 20
35.64878417954172
 30
0.0
  0
VERTEX
  5
183
  8
PART_LETTERS
 10
2.297884168731573
 20
35.64516470357062
 30
0.0
  0
VERTEX
  5
184
  8
PART_LETTERS
 10
2.289176533328893
 20
35.64109393615707
 30
0.0
  0
VERTEX
  5
185
  8
PART_LETTERS
 10
2.280432428359632
 20
35.63657187730106
 30
0.0
  0
VERTEX
  5
186
  8
PART_LETTERS
 10
2.271651853823789
 20
35.63159852700259
 30
0.0
  0
VERTEX
  5
187
  8
PART_LETTERS
 10
2.262834809721365
 20
35.62617388526168
 30
0.0
  0
VERTEX
  5
188
  8
PART_LETTERS
 10
2.25398129605236
 20
35.62029795207832
 30
0.0
  0
VERTEX
  5
189
  8
PART_LETTERS
 10
2.245091312816774
 20
35.61397072745249
 30
0.0
  0
VERTEX
  5
18A
  8
PART_LETTERS
 10
2.236164860014607
 20
35.60719221138421
 30
0.0
  0
VERTEX
  5
18B
  8
PART_LETTERS
 10
2.222203137524714
 20
35.59563004312085
 30
0.0
  0
VERTEX
  5
18C
  8
PART_LETTERS
 10
2.209760900023835
 20
35.58399890422124
 30
0.0
  0
VERTEX
  5
18D
  8
PART_LETTERS
 10
2.19883814751197
 20
35.57229879468537
 30
0.0
  0
VERTEX
  5
18E
  8
PART_LETTERS
 10
2.193946578126917
 20
35.56642287592885
 30
0.0
  0
VERTEX
  5
18F
  8
PART_LETTERS
 10
2.189434879989118
 20
35.56052971451325
 30
0.0
  0
VERTEX
  5
190
  8
PART_LETTERS
 10
2.185303053098573
 20
35.5546193104386
 30
0.0
  0
VERTEX
  5
191
  8
PART_LETTERS
 10
2.181551097455281
 20
35.54869166370487
 30
0.0
  0
VERTEX
  5
192
  8
PART_LETTERS
 10
2.178179013059242
 20
35.54274677431209
 30
0.0
  0
VERTEX
  5
193
  8
PART_LETTERS
 10
2.175186799910457
 20
35.53678464226024
 30
0.0
  0
VERTEX
  5
194
  8
PART_LETTERS
 10
2.172574458008926
 20
35.53080526754933
 30
0.0
  0
VERTEX
  5
195
  8
PART_LETTERS
 10
2.170341987354647
 20
35.52480865017935
 30
0.0
  0
VERTEX
  5
196
  8
PART_LETTERS
 10
2.168489387947623
 20
35.51879479015031
 30
0.0
  0
VERTEX
  5
197
  8
PART_LETTERS
 10
2.167016659787852
 20
35.5127636874622
 30
0.0
  0
VERTEX
  5
198
  8
PART_LETTERS
 10
2.165049183894425
 20
35.50088016195505
 30
0.0
  0
VERTEX
  5
199
  8
PART_LETTERS
 10
2.164277926358723
 20
35.48938848150411
 30
0.0
  0
VERTEX
  5
19A
  8
PART_LETTERS
 10
2.164340879475019
 20
35.48378958317473
 30
0.0
  0
VERTEX
  5
19B
  8
PART_LETTERS
 10
2.164702887180745
 20
35.47828864610941
 30
0.0
  0
VERTEX
  5
19C
  8
PART_LETTERS
 10
2.165363949475903
 20
35.47288567030814
 30
0.0
  0
VERTEX
  5
19D
  8
PART_LETTERS
 10
2.166324066360492
 20
35.46758065577093
 30
0.0
  0
VERTEX
  5
19E
  8
PART_LETTERS
 10
2.167583237834512
 20
35.46237360249778
 30
0.0
  0
VERTEX
  5
19F
  8
PART_LETTERS
 10
2.169141463897962
 20
35.45726451048868
 30
0.0
  0
VERTEX
  5
1A0
  8
PART_LETTERS
 10
2.170998744550845
 20
35.45225337974364
 30
0.0
  0
VERTEX
  5
1A1
  8
PART_LETTERS
 10
2.173155079793157
 20
35.44734021026265
 30
0.0
  0
VERTEX
  5
1A2
  8
PART_LETTERS
 10
2.175610469624902
 20
35.44252500204573
 30
0.0
  0
VERTEX
  5
1A3
  8
PART_LETTERS
 10
2.178364914046077
 20
35.43780775509286
 30
0.0
  0
VERTEX
  5
1A4
  8
PART_LETTERS
 10
2.181418413056684
 20
35.43318846940404
 30
0.0
  0
VERTEX
  5
1A5
  8
PART_LETTERS
 10
2.184770966656721
 20
35.42866714497928
 30
0.0
  0
VERTEX
  5
1A6
  8
PART_LETTERS
 10
2.190198669989947
 20
35.42252746412549
 30
0.0
  0
VERTEX
  5
1A7
  8
PART_LETTERS
 10
2.196267377379926
 20
35.41715275762627
 30
0.0
  0
VERTEX
  5
1A8
  8
PART_LETTERS
 10
2.20297708882666
 20
35.41254302548163
 30
0.0
  0
VERTEX
  5
1A9
  8
PART_LETTERS
 10
2.210327804330147
 20
35.40869826769152
 30
0.0
  0
VERTEX
  5
1AA
  8
PART_LETTERS
 10
2.218319523890389
 20
35.405618484256
 30
0.0
  0
VERTEX
  5
1AB
  8
PART_LETTERS
 10
2.226952247507385
 20
35.40330367517502
 30
0.0
  0
VERTEX
  5
1AC
  8
PART_LETTERS
 10
2.236225975181135
 20
35.40175384044861
 30
0.0
  0
VERTEX
  5
1AD
  8
PART_LETTERS
 10
2.246140706911639
 20
35.40096898007677
 30
0.0
  0
VERTEX
  5
1AE
  8
PART_LETTERS
 10
2.251485218008166
 20
35.40081394641172
 30
0.0
  0
VERTEX
  5
1AF
  8
PART_LETTERS
 10
2.257323945159617
 20
35.40108348630645
 30
0.0
  0
VERTEX
  5
1B0
  8
PART_LETTERS
 10
2.263656888365992
 20
35.40177759976095
 30
0.0
  0
VERTEX
  5
1B1
  8
PART_LETTERS
 10
2.270484047627289
 20
35.40289628677523
 30
0.0
  0
VERTEX
  5
1B2
  8
PART_LETTERS
 10
2.27780542294351
 20
35.4044395473493
 30
0.0
  0
VERTEX
  5
1B3
  8
PART_LETTERS
 10
2.285621014314655
 20
35.40640738148313
 30
0.0
  0
VERTEX
  5
1B4
  8
PART_LETTERS
 10
2.302734845221715
 20
35.41161677043014
 30
0.0
  0
VERTEX
  5
1B5
  8
PART_LETTERS
 10
2.321825540348467
 20
35.41852445361626
 30
0.0
  0
VERTEX
  5
1B6
  8
PART_LETTERS
 10
2.342893099694914
 20
35.42713043104149
 30
0.0
  0
VERTEX
  5
1B7
  8
PART_LETTERS
 10
2.365937523261053
 20
35.43743470270584
 30
0.0
  0
VERTEX
  5
1B8
  8
PART_LETTERS
 10
2.390958811046886
 20
35.44943726860929
 30
0.0
  0
VERTEX
  5
1B9
  8
PART_LETTERS
 10
2.453694154097779
 20
35.47929507908236
 30
0.0
  0
VERTEX
  5
1BA
  8
PART_LETTERS
 10
2.483600230295623
 20
35.49305834145473
 30
0.0
  0
VERTEX
  5
1BB
  8
PART_LETTERS
 10
2.512531909608398
 20
35.5060445085843
 30
0.0
  0
VERTEX
  5
1BC
  8
PART_LETTERS
 10
2.540489192036104
 20
35.5182535804711
 30
0.0
  0
VERTEX
  5
1BD
  8
PART_LETTERS
 10
2.567472077578741
 20
35.52968555711513
 30
0.0
  0
VERTEX
  5
1BE
  8
PART_LETTERS
 10
2.593480566236311
 20
35.54034043851637
 30
0.0
  0
VERTEX
  5
1BF
  8
PART_LETTERS
 10
2.618514658008811
 20
35.55021822467484
 30
0.0
  0
VERTEX
  5
1C0
  8
PART_LETTERS
 10
2.642574352896243
 20
35.55931891559052
 30
0.0
  0
VERTEX
  5
1C1
  8
PART_LETTERS
 10
2.665659650898606
 20
35.56764251126342
 30
0.0
  0
VERTEX
  5
1C2
  8
PART_LETTERS
 10
2.687770552015901
 20
35.57518901169355
 30
0.0
  0
VERTEX
  5
1C3
  8
PART_LETTERS
 10
2.708907056248126
 20
35.58195841688089
 30
0.0
  0
VERTEX
  5
1C4
  8
PART_LETTERS
 10
2.729069163595284
 20
35.58795072682545
 30
0.0
  0
VERTEX
  5
1C5
  8
PART_LETTERS
 10
2.748256874057372
 20
35.59316594152723
 30
0.0
  0
VERTEX
  5
1C6
  8
PART_LETTERS
 10
2.766470187634392
 20
35.59760406098624
 30
0.0
  0
VERTEX
  5
1C7
  8
PART_LETTERS
 10
2.783709104326343
 20
35.60126508520246
 30
0.0
  0
VERTEX
  5
1C8
  8
PART_LETTERS
 10
2.800328824843138
 20
35.60428624376858
 30
0.0
  0
VERTEX
  5
1C9
  8
PART_LETTERS
 10
2.816684549894691
 20
35.60680476627726
 30
0.0
  0
VERTEX
  5
1CA
  8
PART_LETTERS
 10
2.832776279481002
 20
35.60882065272854
 30
0.0
  0
VERTEX
  5
1CB
  8
PART_LETTERS
 10
2.84860401360207
 20
35.61033390312237
 30
0.0
  0
VERTEX
  5
1CC
  8
PART_LETTERS
 10
2.864167752257895
 20
35.61134451745879
 30
0.0
  0
VERTEX
  5
1CD
  8
PART_LETTERS
 10
2.879467495448478
 20
35.61185249573778
 30
0.0
  0
VERTEX
  5
1CE
  8
PART_LETTERS
 10
2.894503243173818
 20
35.61185783795933
 30
0.0
  0
VERTEX
  5
1CF
  8
PART_LETTERS
 10
2.909274995433915
 20
35.61136054412347
 30
0.0
  0
VERTEX
  5
1D0
  8
PART_LETTERS
 10
2.92378275222877
 20
35.61036061423017
 30
0.0
  0
VERTEX
  5
1D1
  8
PART_LETTERS
 10
2.938026513558382
 20
35.60885804827946
 30
0.0
  0
VERTEX
  5
1D2
  8
PART_LETTERS
 10
2.952006279422752
 20
35.60685284627131
 30
0.0
  0
VERTEX
  5
1D3
  8
PART_LETTERS
 10
2.965722049821879
 20
35.60434500820574
 30
0.0
  0
VERTEX
  5
1D4
  8
PART_LETTERS
 10
2.979173824755764
 20
35.60133453408274
 30
0.0
  0
VERTEX
  5
1D5
  8
PART_LETTERS
 10
2.992361604224405
 20
35.59782142390231
 30
0.0
  0
VERTEX
  5
1D6
  8
PART_LETTERS
 10
3.005285388227805
 20
35.59380567766446
 30
0.0
  0
VERTEX
  5
1D7
  8
PART_LETTERS
 10
3.017945176765962
 20
35.58928729536918
 30
0.0
  0
VERTEX
  5
1D8
  8
PART_LETTERS
 10
3.030355074178727
 20
35.5843172463215
 30
0.0
  0
VERTEX
  5
1D9
  8
PART_LETTERS
 10
3.042529184805951
 20
35.57894649982647
 30
0.0
  0
VERTEX
  5
1DA
  8
PART_LETTERS
 10
3.054467508647634
 20
35.57317505588406
 30
0.0
  0
VERTEX
  5
1DB
  8
PART_LETTERS
 10
3.066170045703777
 20
35.5670029144943
 30
0.0
  0
VERTEX
  5
1DC
  8
PART_LETTERS
 10
3.077636795974379
 20
35.56043007565717
 30
0.0
  0
VERTEX
  5
1DD
  8
PART_LETTERS
 10
3.088867759459441
 20
35.55345653937267
 30
0.0
  0
VERTEX
  5
1DE
  8
PART_LETTERS
 10
3.099862936158961
 20
35.54608230564081
 30
0.0
  0
VERTEX
  5
1DF
  8
PART_LETTERS
 10
3.11062232607294
 20
35.53830737446158
 30
0.0
  0
VERTEX
  5
1E0
  8
PART_LETTERS
 10
3.121145929201379
 20
35.53013174583499
 30
0.0
  0
VERTEX
  5
1E1
  8
PART_LETTERS
 10
3.131433745544277
 20
35.52155541976103
 30
0.0
  0
VERTEX
  5
1E2
  8
PART_LETTERS
 10
3.141485775101634
 20
35.51257839623971
 30
0.0
  0
VERTEX
  5
1E3
  8
PART_LETTERS
 10
3.151302017873451
 20
35.50320067527103
 30
0.0
  0
VERTEX
  5
1E4
  8
PART_LETTERS
 10
3.160882473859726
 20
35.49342225685498
 30
0.0
  0
VERTEX
  5
1E5
  8
PART_LETTERS
 10
3.170227143060461
 20
35.48324314099158
 30
0.0
  0
VERTEX
  5
1E6
  8
PART_LETTERS
 10
3.179336025475655
 20
35.47266332768081
 30
0.0
  0
VERTEX
  5
1E7
  8
PART_LETTERS
 10
3.188209121105308
 20
35.46168281692266
 30
0.0
  0
VERTEX
  5
1E8
  8
PART_LETTERS
 10
3.198219212512605
 20
35.44843152399353
 30
0.0
  0
VERTEX
  5
1E9
  8
PART_LETTERS
 10
3.207674761477822
 20
35.43495266498842
 30
0.0
  0
VERTEX
  5
1EA
  8
PART_LETTERS
 10
3.21657576800096
 20
35.42124623990733
 30
0.0
  0
VERTEX
  5
1EB
  8
PART_LETTERS
 10
3.224922232082017
 20
35.40731224875027
 30
0.0
  0
VERTEX
  5
1EC
  8
PART_LETTERS
 10
3.232714153720994
 20
35.39315069151723
 30
0.0
  0
VERTEX
  5
1ED
  8
PART_LETTERS
 10
3.239951532917892
 20
35.3787615682082
 30
0.0
  0
VERTEX
  5
1EE
  8
PART_LETTERS
 10
3.246634369672709
 20
35.36414487882321
 30
0.0
  0
VERTEX
  5
1EF
  8
PART_LETTERS
 10
3.252762663985446
 20
35.34930062336224
 30
0.0
  0
VERTEX
  5
1F0
  8
PART_LETTERS
 10
3.258336415856103
 20
35.33422880182529
 30
0.0
  0
VERTEX
  5
1F1
  8
PART_LETTERS
 10
3.263355625284681
 20
35.31892941421236
 30
0.0
  0
VERTEX
  5
1F2
  8
PART_LETTERS
 10
3.267820292271178
 20
35.30340246052346
 30
0.0
  0
VERTEX
  5
1F3
  8
PART_LETTERS
 10
3.271730416815595
 20
35.28764794075857
 30
0.0
  0
VERTEX
  5
1F4
  8
PART_LETTERS
 10
3.275085998917933
 20
35.27166585491771
 30
0.0
  0
VERTEX
  5
1F5
  8
PART_LETTERS
 10
3.27788703857819
 20
35.25545620300089
 30
0.0
  0
VERTEX
  5
1F6
  8
PART_LETTERS
 10
3.280133535796367
 20
35.23901898500807
 30
0.0
  0
VERTEX
  5
1F7
  8
PART_LETTERS
 10
3.281825490572465
 20
35.22235420093928
 30
0.0
  0
VERTEX
  5
1F8
  8
PART_LETTERS
 10
3.28292854980031
 20
35.20560169552039
 30
0.0
  0
VERTEX
  5
1F9
  8
PART_LETTERS
 10
3.283408360373731
 20
35.1889013134773
 30
0.0
  0
VERTEX
  5
1FA
  8
PART_LETTERS
 10
3.283264922292729
 20
35.17225305480999
 30
0.0
  0
VERTEX
  5
1FB
  8
PART_LETTERS
 10
3.282498235557304
 20
35.15565691951848
 30
0.0
  0
VERTEX
  5
1FC
  8
PART_LETTERS
 10
3.281108300167454
 20
35.13911290760275
 30
0.0
  0
VERTEX
  5
1FD
  8
PART_LETTERS
 10
3.27909511612318
 20
35.12262101906282
 30
0.0
  0
VERTEX
  5
1FE
  8
PART_LETTERS
 10
3.276458683424483
 20
35.10618125389868
 30
0.0
  0
VERTEX
  5
1FF
  8
PART_LETTERS
 10
3.273199002071361
 20
35.08979361211033
 30
0.0
  0
VERTEX
  5
200
  8
PART_LETTERS
 10
3.269316072063816
 20
35.07345809369777
 30
0.0
  0
VERTEX
  5
201
  8
PART_LETTERS
 10
3.264809893401847
 20
35.05717469866099
 30
0.0
  0
VERTEX
  5
202
  8
PART_LETTERS
 10
3.259680466085454
 20
35.04094342700002
 30
0.0
  0
VERTEX
  5
203
  8
PART_LETTERS
 10
3.253927790114638
 20
35.02476427871483
 30
0.0
  0
VERTEX
  5
204
  8
PART_LETTERS
 10
3.247551865489397
 20
35.00863725380543
 30
0.0
  0
VERTEX
  5
205
  8
PART_LETTERS
 10
3.240552692209732
 20
34.99256235227183
 30
0.0
  0
VERTEX
  5
206
  8
PART_LETTERS
 10
3.232930270275644
 20
34.97653957411401
 30
0.0
  0
VERTEX
  5
207
  8
PART_LETTERS
 10
3.224684599687132
 20
34.96056891933198
 30
0.0
  0
VERTEX
  5
208
  8
PART_LETTERS
 10
3.215774531938143
 20
34.94463695464796
 30
0.0
  0
VERTEX
  5
209
  8
PART_LETTERS
 10
3.20615891852262
 20
34.92873024678418
 30
0.0
  0
VERTEX
  5
20A
  8
PART_LETTERS
 10
3.195837759440566
 20
34.91284879574062
 30
0.0
  0
VERTEX
  5
20B
  8
PART_LETTERS
 10
3.184811054691981
 20
34.89699260151729
 30
0.0
  0
VERTEX
  5
20C
  8
PART_LETTERS
 10
3.173078804276863
 20
34.88116166411419
 30
0.0
  0
VERTEX
  5
20D
  8
PART_LETTERS
 10
3.160641008195213
 20
34.86535598353132
 30
0.0
  0
VERTEX
  5
20E
  8
PART_LETTERS
 10
3.147497666447031
 20
34.84957555976867
 30
0.0
  0
VERTEX
  5
20F
  8
PART_LETTERS
 10
3.133648779032318
 20
34.83382039282626
 30
0.0
  0
VERTEX
  5
210
  8
PART_LETTERS
 10
3.119094345951073
 20
34.81809048270408
 30
0.0
  0
VERTEX
  5
211
  8
PART_LETTERS
 10
3.103834367203294
 20
34.80238582940213
 30
0.0
  0
VERTEX
  5
212
  8
PART_LETTERS
 10
3.087868842788986
 20
34.7867064329204
 30
0.0
  0
VERTEX
  5
213
  8
PART_LETTERS
 10
3.071197772708143
 20
34.7710522932589
 30
0.0
  0
VERTEX
  5
214
  8
PART_LETTERS
 10
3.053821156960771
 20
34.75542341041763
 30
0.0
  0
VERTEX
  5
215
  8
PART_LETTERS
 10
3.035738995546865
 20
34.73981978439659
 30
0.0
  0
VERTEX
  5
216
  8
PART_LETTERS
 10
3.016951288466428
 20
34.72424141519578
 30
0.0
  0
VERTEX
  5
217
  8
PART_LETTERS
 10
2.997458035719459
 20
34.7086883028152
 30
0.0
  0
VERTEX
  5
218
  8
PART_LETTERS
 10
2.962952390479942
 20
34.68234493820813
 30
0.0
  0
VERTEX
  5
219
  8
PART_LETTERS
 10
2.929129478864752
 20
34.65788893833016
 30
0.0
  0
VERTEX
  5
21A
  8
PART_LETTERS
 10
2.89598930087389
 20
34.63532030318129
 30
0.0
  0
VERTEX
  5
21B
  8
PART_LETTERS
 10
2.87967523698758
 20
34.62474374738025
 30
0.0
  0
VERTEX
  5
21C
  8
PART_LETTERS
 10
2.863531856507353
 20
34.6146390327615
 30
0.0
  0
VERTEX
  5
21D
  8
PART_LETTERS
 10
2.847559159433208
 20
34.60500615932503
 30
0.0
  0
VERTEX
  5
21E
  8
PART_LETTERS
 10
2.831757145765145
 20
34.59584512707082
 30
0.0
  0
VERTEX
  5
21F
  8
PART_LETTERS
 10
2.816125815503163
 20
34.58715593599889
 30
0.0
  0
VERTEX
  5
220
  8
PART_LETTERS
 10
2.800665168647264
 20
34.57893858610923
 30
0.0
  0
VERTEX
  5
221
  8
PART_LETTERS
 10
2.785375205197445
 20
34.57119307740184
 30
0.0
  0
VERTEX
  5
222
  8
PART_LETTERS
 10
2.770255925153709
 20
34.56391940987674
 30
0.0
  0
VERTEX
  5
223
  8
PART_LETTERS
 10
2.755307328516055
 20
34.55711758353391
 30
0.0
  0
VERTEX
  5
224
  8
PART_LETTERS
 10
2.740529415284482
 20
34.55078759837335
 30
0.0
  0
VERTEX
  5
225
  8
PART_LETTERS
 10
2.725922185458991
 20
34.54492945439506
 30
0.0
  0
VERTEX
  5
226
  8
PART_LETTERS
 10
2.711485639039582
 20
34.53954315159906
 30
0.0
  0
VERTEX
  5
227
  8
PART_LETTERS
 10
2.697219776026255
 20
34.53462868998532
 30
0.0
  0
VERTEX
  5
228
  8
PART_LETTERS
 10
2.68312459641901
 20
34.53018606955386
 30
0.0
  0
VERTEX
  5
229
  8
PART_LETTERS
 10
2.669200100217846
 20
34.52621529030467
 30
0.0
  0
VERTEX
  5
22A
  8
PART_LETTERS
 10
2.655446287422764
 20
34.52271635223775
 30
0.0
  0
VERTEX
  5
22B
  8
PART_LETTERS
 10
2.641863158033764
 20
34.51968925535311
 30
0.0
  0
VERTEX
  5
22C
  8
PART_LETTERS
 10
2.628450712050845
 20
34.51713399965074
 30
0.0
  0
VERTEX
  5
22D
  8
PART_LETTERS
 10
2.615208949474009
 20
34.51505058513064
 30
0.0
  0
VERTEX
  5
22E
  8
PART_LETTERS
 10
2.602137870303254
 20
34.51343901179283
 30
0.0
  0
VERTEX
  5
22F
  8
PART_LETTERS
 10
2.589237474538581
 20
34.51229927963728
 30
0.0
  0
VERTEX
  5
230
  8
PART_LETTERS
 10
2.57650776217999
 20
34.51163138866401
 30
0.0
  0
VERTEX
  5
231
  8
PART_LETTERS
 10
2.56394873322748
 20
34.51143533887302
 30
0.0
  0
VERTEX
  5
232
  8
PART_LETTERS
 10
2.551560387681053
 20
34.5117111302643
 30
0.0
  0
VERTEX
  5
233
  8
PART_LETTERS
 10
2.539342725540706
 20
34.51245876283785
 30
0.0
  0
VERTEX
  5
234
  8
PART_LETTERS
 10
2.527295746806442
 20
34.51367823659368
 30
0.0
  0
VERTEX
  5
235
  8
PART_LETTERS
 10
2.503558592968149
 20
34.51710113656864
 30
0.0
  0
VERTEX
  5
236
  8
PART_LETTERS
 10
2.480193679578165
 20
34.52154825910569
 30
0.0
  0
VERTEX
  5
237
  8
PART_LETTERS
 10
2.457201006636488
 20
34.52701960420482
 30
0.0
  0
VERTEX
  5
238
  8
PART_LETTERS
 10
2.434580574143118
 20
34.53351517186603
 30
0.0
  0
VERTEX
  5
239
  8
PART_LETTERS
 10
2.412332382098057
 20
34.54103496208931
 30
0.0
  0
VERTEX
  5
23A
  8
PART_LETTERS
 10
2.390456430501303
 20
34.54957897487468
 30
0.0
  0
VERTEX
  5
23B
  8
PART_LETTERS
 10
2.368952719352858
 20
34.55914721022212
 30
0.0
  0
VERTEX
  5
23C
  8
PART_LETTERS
 10
2.34782124865272
 20
34.56973966813165
 30
0.0
  0
VERTEX
  5
23D
  8
PART_LETTERS
 10
2.327062018400889
 20
34.58135634860325
 30
0.0
  0
VERTEX
  5
23E
  8
PART_LETTERS
 10
2.306675028597367
 20
34.59399725163694
 30
0.0
  0
VERTEX
  5
23F
  8
PART_LETTERS
 10
2.286660279242153
 20
34.60766237723269
 30
0.0
  0
VERTEX
  5
240
  8
PART_LETTERS
 10
2.267017770335246
 20
34.62235172539054
 30
0.0
  0
VERTEX
  5
241
  8
PART_LETTERS
 10
2.247747501876647
 20
34.63806529611046
 30
0.0
  0
VERTEX
  5
242
  8
PART_LETTERS
 10
2.228849473866355
 20
34.65480308939246
 30
0.0
  0
VERTEX
  5
243
  8
PART_LETTERS
 10
2.210323686304372
 20
34.67256510523654
 30
0.0
  0
SEQEND
  5
528
  8
PART_LETTERS
  0
POLYLINE
  5
72
  8
PART_LETTERS
 66
     1
 10
0.0
 20
0.0
 30
0.0
 70
     1
  0
VERTEX
  5
244
  8
PART_LETTERS
 10
0.4165194326544723
 20
71.66180660770259
 30
0.0
  0
VERTEX
  5
245
  8
PART_LETTERS
 10
0.7884693580831055
 20
71.95306300211622
 30
0.0
  0
VERTEX
  5
246
  8
PART_LETTERS
 10
1.245137974374246
 20
71.7683568257275
 30
0.0
  0
VERTEX
  5
247
  8
PART_LETTERS
 10
1.170109361729318
 20
72.25190723846849
 30
0.0
  0
VERTEX
  5
248
  8
PART_LETTERS
 10
1.538332333997344
 20
72.5402452321365
 30
0.0
  0
VERTEX
  5
249
  8
PART_LETTERS
 10
1.612625823785143
 20
71.74468645528471
 30
0.0
  0
VERTEX
  5
24A
  8
PART_LETTERS
 10
2.426059229796579
 20
71.47260081185875
 30
0.0
  0
VERTEX
  5
24B
  8
PART_LETTERS
 10
2.046655398046731
 20
71.17550761595388
 30
0.0
  0
VERTEX
  5
24C
  8
PART_LETTERS
 10
1.555951459809435
 20
71.35761120051126
 30
0.0
  0
VERTEX
  5
24D
  8
PART_LETTERS
 10
1.615074222048377
 20
70.83755680961019
 30
0.0
  0
VERTEX
  5
24E
  8
PART_LETTERS
 10
1.237906562194893
 20
70.54221465415269
 30
0.0
  0
VERTEX
  5
24F
  8
PART_LETTERS
 10
1.168909653543943
 20
71.40685285250443
 30
0.0
  0
SEQEND
  5
529
  8
PART_LETTERS
  0
POLYLINE
  5
73
  8
PART_LETTERS
 66
     1
 10
0.0
 20
0.0
 30
0.0
 70
     1
  0
VERTEX
  5
250
  8
PART_LETTERS
 10
2.192170139190696
 20
71.87263815828
 30
0.0
  0
VERTEX
  5
251
  8
PART_LETTERS
 10
2.497674137608678
 20
72.14432984962038
 30
0.0
  0
VERTEX
  5
252
  8
PART_LETTERS
 10
2.515486363749323
 20
72.12765304254805
 30
0.0
  0
VERTEX
  5
253
  8
PART_LETTERS
 10
2.533062099917321
 20
72.11266986847355
 30
0.0
  0
VERTEX
  5
254
  8
PART_LETTERS
 10
2.541761284261576
 20
72.10581339381048
 30
0.0
  0
VERTEX
  5
255
  8
PART_LETTERS
 10
2.55040134611267
 20
72.09938032739689
 30
0.0
  0
VERTEX
  5
256
  8
PART_LETTERS
 10
2.558982285470601
 20
72.09337066923273
 30
0.0
  0
VERTEX
  5
257
  8
PART_LETTERS
 10
2.56750410233537
 20
72.08778441931804
 30
0.0
  0
VERTEX
  5
258
  8
PART_LETTERS
 10
2.575966796706977
 20
72.08262157765282
 30
0.0
  0
VERTEX
  5
259
  8
PART_LETTERS
 10
2.584370368585422
 20
72.07788214423705
 30
0.0
  0
VERTEX
  5
25A
  8
PART_LETTERS
 10
2.592714817970704
 20
72.07356611907075
 30
0.0
  0
VERTEX
  5
25B
  8
PART_LETTERS
 10
2.601000144862825
 20
72.0696735021539
 30
0.0
  0
VERTEX
  5
25C
  8
PART_LETTERS
 10
2.609226349261784
 20
72.0662042934865
 30
0.0
  0
VERTEX
  5
25D
  8
PART_LETTERS
 10
2.61739343116758
 20
72.06315849306858
 30
0.0
  0
VERTEX
  5
25E
  8
PART_LETTERS
 10
2.625501390580214
 20
72.0605361009001
 30
0.0
  0
VERTEX
  5
25F
  8
PART_LETTERS
 10
2.633550227499687
 20
72.0583371169811
 30
0.0
  0
VERTEX
  5
260
  8
PART_LETTERS
 10
2.646537618067331
 20
72.0555477872505
 30
0.0
  0
VERTEX
  5
261
  8
PART_LETTERS
 10
2.659468570390092
 20
72.05355033701369
 30
0.0
  0
VERTEX
  5
262
  8
PART_LETTERS
 10
2.672343084467972
 20
72.05234476627068
 30
0.0
  0
VERTEX
  5
263
  8
PART_LETTERS
 10
2.68516116030097
 20
72.05193107502146
 30
0.0
  0
VERTEX
  5
264
  8
PART_LETTERS
 10
2.697922797889086
 20
72.05230926326607
 30
0.0
  0
VERTEX
  5
265
  8
PART_LETTERS
 10
2.71062799723232
 20
72.05347933100445
 30
0.0
  0
VERTEX
  5
266
  8
PART_LETTERS
 10
2.723276758330672
 20
72.05544127823664
 30
0.0
  0
VERTEX
  5
267
  8
PART_LETTERS
 10
2.735869081184143
 20
72.05819510496264
 30
0.0
  0
VERTEX
  5
268
  8
PART_LETTERS
 10
2.748404965792731
 20
72.06174081118243
 30
0.0
  0
VERTEX
  5
269
  8
PART_LETTERS
 10
2.760884412156439
 20
72.06607839689603
 30
0.0
  0
VERTEX
  5
26A
  8
PART_LETTERS
 10
2.773307420275263
 20
72.07120786210342
 30
0.0
  0
VERTEX
  5
26B
  8
PART_LETTERS
 10
2.785673990149207
 20
72.07712920680461
 30
0.0
  0
VERTEX
  5
26C
  8
PART_LETTERS
 10
2.797984121778268
 20
72.08384243099961
 30
0.0
  0
VERTEX
  5
26D
  8
PART_LETTERS
 10
2.810237815162447
 20
72.0913475346884
 30
0.0
  0
VERTEX
  5
26E
  8
PART_LETTERS
 10
2.822435070301744
 20
72.09964451787098
 30
0.0
  0
VERTEX
  5
26F
  8
PART_LETTERS
 10
2.83457588719616
 20
72.10873338054738
 30
0.0
  0
VERTEX
  5
270
  8
PART_LETTERS
 10
2.843380438728154
 20
72.11584152386774
 30
0.0
  0
VERTEX
  5
271
  8
PART_LETTERS
 10
2.851718370495191
 20
72.1230117102125
 30
0.0
  0
VERTEX
  5
272
  8
PART_LETTERS
 10
2.85958968249727
 20
72.1302439395817
 30
0.0
  0
VERTEX
  5
273
  8
PART_LETTERS
 10
2.86699437473439
 20
72.1375382119753
 30
0.0
  0
VERTEX
  5
274
  8
PART_LETTERS
 10
2.873932447206552
 20
72.14489452739332
 30
0.0
  0
VERTEX
  5
275
  8
PART_LETTERS
 10
2.880403899913757
 20
72.15231288583576
 30
0.0
  0
VERTEX
  5
276
  8
PART_LETTERS
 10
2.886408732856003
 20
72.15979328730263
 30
0.0
  0
VERTEX
  5
277
  8
PART_LETTERS
 10
2.891946946033292
 20
72.1673357317939
 30
0.0
  0
VERTEX
  5
278
  8
PART_LETTERS
 10
2.897018539445622
 20
72.17494021930959
 30
0.0
  0
VERTEX
  5
279
  8
PART_LETTERS
 10
2.901623513092995
 20
72.1826067498497
 30
0.0
  0
VERTEX
  5
27A
  8
PART_LETTERS
 10
2.90576186697541
 20
72.19033532341423
 30
0.0
  0
VERTEX
  5
27B
  8
PART_LETTERS
 10
2.909433601092867
 20
72.19812594000318
 30
0.0
  0
VERTEX
  5
27C
  8
PART_LETTERS
 10
2.912638715445366
 20
72.20597859961656
 30
0.0
  0
VERTEX
  5
27D
  8
PART_LETTERS
 10
2.915377210032907
 20
72.21389330225433
 30
0.0
  0
VERTEX
  5
27E
  8
PART_LETTERS
 10
2.91764908485549
 20
72.22187004791655
 30
0.0
  0
VERTEX
  5
27F
  8
PART_LETTERS
 10
2.919454339913115
 20
72.22990883660317
 30
0.0
  0
VERTEX
  5
280
  8
PART_LETTERS
 10
2.920840361766586
 20
72.23790116616269
 30
0.0
  0
VERTEX
  5
281
  8
PART_LETTERS
 10
2.921854536976708
 20
72.24573853444357
 30
0.0
  0
VERTEX
  5
282
  8
PART_LETTERS
 10
2.922496865543481
 20
72.25342094144585
 30
0.0
  0
VERTEX
  5
283
  8
PART_LETTERS
 10
2.922767347466904
 20
72.26094838716952
 30
0.0
  0
VERTEX
  5
284
  8
PART_LETTERS
 10
2.922665982746979
 20
72.26832087161455
 30
0.0
  0
VERTEX
  5
285
  8
PART_LETTERS
 10
2.922192771383705
 20
72.27553839478097
 30
0.0
  0
VERTEX
  5
286
  8
PART_LETTERS
 10
2.921347713377081
 20
72.28260095666877
 30
0.0
  0
VERTEX
  5
287
  8
PART_LETTERS
 10
2.920130808727108
 20
72.28950855727795
 30
0.0
  0
VERTEX
  5
288
  8
PART_LETTERS
 10
2.918542057433786
 20
72.2962611966085
 30
0.0
  0
VERTEX
  5
289
  8
PART_LETTERS
 10
2.916581459497114
 20
72.30285887466044
 30
0.0
  0
VERTEX
  5
28A
  8
PART_LETTERS
 10
2.914249014917093
 20
72.30930159143377
 30
0.0
  0
VERTEX
  5
28B
  8
PART_LETTERS
 10
2.911544723693723
 20
72.31558934692848
 30
0.0
  0
VERTEX
  5
28C
  8
PART_LETTERS
 10
2.908468585827004
 20
72.32172214114455
 30
0.0
  0
VERTEX
  5
28D
  8
PART_LETTERS
 10
2.905020601316936
 20
72.32769997408201
 30
0.0
  0
VERTEX
  5
28E
  8
PART_LETTERS
 10
2.901200770163518
 20
72.33352284574084
 30
0.0
  0
VERTEX
  5
28F
  8
PART_LETTERS
 10
2.897009092366751
 20
72.33919075612108
 30
0.0
  0
VERTEX
  5
290
  8
PART_LETTERS
 10
2.892732147203386
 20
72.34435272415995
 30
0.0
  0
VERTEX
  5
291
  8
PART_LETTERS
 10
2.888218753838329
 20
72.34921681176878
 30
0.0
  0
VERTEX
  5
292
  8
PART_LETTERS
 10
2.88346891227158
 20
72.35378301894761
 30
0.0
  0
VERTEX
  5
293
  8
PART_LETTERS
 10
2.878482622503138
 20
72.35805134569642
 30
0.0
  0
VERTEX
  5
294
  8
PART_LETTERS
 10
2.873259884533006
 20
72.36202179201523
 30
0.0
  0
VERTEX
  5
295
  8
PART_LETTERS
 10
2.86780069836118
 20
72.36569435790403
 30
0.0
  0
VERTEX
  5
296
  8
PART_LETTERS
 10
2.862105063987664
 20
72.3690690433628
 30
0.0
  0
VERTEX
  5
297
  8
PART_LETTERS
 10
2.856172981412454
 20
72.37214584839157
 30
0.0
  0
VERTEX
  5
298
  8
PART_LETTERS
 10
2.850004450635554
 20
72.37492477299033
 30
0.0
  0
VERTEX
  5
299
  8
PART_LETTERS
 10
2.843599471656961
 20
72.37740581715906
 30
0.0
  0
VERTEX
  5
29A
  8
PART_LETTERS
 10
2.836958044476676
 20
72.37958898089778
 30
0.0
  0
VERTEX
  5
29B
  8
PART_LETTERS
 10
2.830080169094699
 20
72.38147426420649
 30
0.0
  0
VERTEX
  5
29C
  8
PART_LETTERS
 10
2.822965845511031
 20
72.38306166708517
 30
0.0
  0
VERTEX
  5
29D
  8
PART_LETTERS
 10
2.81561507372567
 20
72.38435118953387
 30
0.0
  0
VERTEX
  5
29E
  8
PART_LETTERS
 10
2.808027853738618
 20
72.38534283155255
 30
0.0
  0
VERTEX
  5
29F
  8
PART_LETTERS
 10
2.800204185549873
 20
72.3860365931412
 30
0.0
  0
VERTEX
  5
2A0
  8
PART_LETTERS
 10
2.791889351218508
 20
72.38626589602717
 30
0.0
  0
VERTEX
  5
2A1
  8
PART_LETTERS
 10
2.782828632803592
 20
72.38586416193779
 30
0.0
  0
VERTEX
  5
2A2
  8
PART_LETTERS
 10
2.773022030305127
 20
72.38483139087305
 30
0.0
  0
VERTEX
  5
2A3
  8
PART_LETTERS
 10
2.76246954372311
 20
72.38316758283295
 30
0.0
  0
VERTEX
  5
2A4
  8
PART_LETTERS
 10
2.751171173057545
 20
72.38087273781753
 30
0.0
  0
VERTEX
  5
2A5
  8
PART_LETTERS
 10
2.739126918308428
 20
72.37794685582674
 30
0.0
  0
VERTEX
  5
2A6
  8
PART_LETTERS
 10
2.726336779475762
 20
72.37438993686058
 30
0.0
  0
VERTEX
  5
2A7
  8
PART_LETTERS
 10
2.712800756559546
 20
72.37020198091909
 30
0.0
  0
VERTEX
  5
2A8
  8
PART_LETTERS
 10
2.69851884955978
 20
72.36538298800224
 30
0.0
  0
VERTEX
  5
2A9
  8
PART_LETTERS
 10
2.683491058476464
 20
72.35993295811004
 30
0.0
  0
VERTEX
  5
2AA
  8
PART_LETTERS
 10
2.667717383309598
 20
72.35385189124247
 30
0.0
  0
VERTEX
  5
2AB
  8
PART_LETTERS
 10
2.651197824059181
 20
72.34713978739957
 30
0.0
  0
VERTEX
  5
2AC
  8
PART_LETTERS
 10
2.615921053307697
 20
72.33182246878769
 30
0.0
  0
VERTEX
  5
2AD
  8
PART_LETTERS
 10
2.577660746222014
 20
72.3139810022744
 30
0.0
  0
VERTEX
  5
2AE
  8
PART_LETTERS
 10
2.54540420154973
 20
72.29899955737801
 30
0.0
  0
VERTEX
  5
2AF
  8
PART_LETTERS
 10
2.513942812123785
 20
72.28505410071062
 30
0.0
  0
VERTEX
  5
2B0
  8
PART_LETTERS
 10
2.483276577944177
 20
72.27214463227226
 30
0.0
  0
VERTEX
  5
2B1
  8
PART_LETTERS
 10
2.453405499010908
 20
72.2602711520629
 30
0.0
  0
VERTEX
  5
2B2
  8
PART_LETTERS
 10
2.424329575323976
 20
72.24943366008254
 30
0.0
  0
VERTEX
  5
2B3
  8
PART_LETTERS
 10
2.396048806883382
 20
72.23963215633121
 30
0.0
  0
VERTEX
  5
2B4
  8
PART_LETTERS
 10
2.368563193689126
 20
72.2308666408089
 30
0.0
  0
VERTEX
  5
2B5
  8
PART_LETTERS
 10
2.341872735741208
 20
72.22313711351559
 30
0.0
  0
VERTEX
  5
2B6
  8
PART_LETTERS
 10
2.315977433039628
 20
72.2164435744513
 30
0.0
  0
VERTEX
  5
2B7
  8
PART_LETTERS
 10
2.290877285584386
 20
72.21078602361602
 30
0.0
  0
VERTEX
  5
2B8
  8
PART_LETTERS
 10
2.266572293375482
 20
72.20616446100978
 30
0.0
  0
VERTEX
  5
2B9
  8
PART_LETTERS
 10
2.243062456412916
 20
72.20257888663254
 30
0.0
  0
VERTEX
  5
2BA
  8
PART_LETTERS
 10
2.220347774696688
 20
72.2000293004843
 30
0.0
  0
VERTEX
  5
2BB
  8
PART_LETTERS
 10
2.198428248226797
 20
72.19851570256509
 30
0.0
  0
VERTEX
  5
2BC
  8
PART_LETTERS
 10
2.177303877003245
 20
72.19803809287488
 30
0.0
  0
VERTEX
  5
2BD
  8
PART_LETTERS
 10
2.15697466102603
 20
72.1985964714137
 30
0.0
  0
VERTEX
  5
2BE
  8
PART_LETTERS
 10
2.137183464123496
 20
72.20006933673449
 30
0.0
  0
VERTEX
  5
2BF
  8
PART_LETTERS
 10
2.117859497782017
 20
72.20248110742753
 30
0.0
  0
VERTEX
  5
2C0
  8
PART_LETTERS
 10
2.09900276200159
 20
72.20583178349283
 30
0.0
  0
VERTEX
  5
2C1
  8
PART_LETTERS
 10
2.080613256782218
 20
72.21012136493036
 30
0.0
  0
VERTEX
  5
2C2
  8
PART_LETTERS
 10
2.0626909821239
 20
72.21534985174014
 30
0.0
  0
VERTEX
  5
2C3
  8
PART_LETTERS
 10
2.045235938026636
 20
72.22151724392218
 30
0.0
  0
VERTEX
  5
2C4
  8
PART_LETTERS
 10
2.028248124490425
 20
72.22862354147645
 30
0.0
  0
VERTEX
  5
2C5
  8
PART_LETTERS
 10
2.011727541515269
 20
72.23666874440298
 30
0.0
  0
VERTEX
  5
2C6
  8
PART_LETTERS
 10
1.995674189101166
 20
72.24565285270174
 30
0.0
  0
VERTEX
  5
2C7
  8
PART_LETTERS
 10
1.980088067248117
 20
72.25557586637275
 30
0.0
  0
VERTEX
  5
2C8
  8
PART_LETTERS
 10
1.964969175956122
 20
72.266437785416
 30
0.0
  0
VERTEX
  5
2C9
  8
PART_LETTERS
 10
1.950317515225181
 20
72.27823860983152
 30
0.0
  0
VERTEX
  5
2CA
  8
PART_LETTERS
 10
1.936133085055294
 20
72.29097833961929
 30
0.0
  0
VERTEX
  5
2CB
  8
PART_LETTERS
 10
1.92241588544646
 20
72.30465697477928
 30
0.0
  0
VERTEX
  5
2CC
  8
PART_LETTERS
 10
1.909165916398681
 20
72.31927451531152
 30
0.0
  0
VERTEX
  5
2CD
  8
PART_LETTERS
 10
1.896383177911955
 20
72.33483096121601
 30
0.0
  0
VERTEX
  5
2CE
  8
PART_LETTERS
 10
1.888357910994104
 20
72.34547254790593
 30
0.0
  0
VERTEX
  5
2CF
  8
PART_LETTERS
 10
1.880771074453347
 20
72.35634002261823
 30
0.0
  0
VERTEX
  5
2D0
  8
PART_LETTERS
 10
1.873622668289684
 20
72.36743338535292
 30
0.0
  0
VERTEX
  5
2D1
  8
PART_LETTERS
 10
1.866912692503115
 20
72.37875263611001
 30
0.0
  0
VERTEX
  5
2D2
  8
PART_LETTERS
 10
1.86064114709364
 20
72.3902977748895
 30
0.0
  0
VERTEX
  5
2D3
  8
PART_LETTERS
 10
1.854808032061259
 20
72.40206880169137
 30
0.0
  0
VERTEX
  5
2D4
  8
PART_LETTERS
 10
1.849413347405972
 20
72.41406571651564
 30
0.0
  0
VERTEX
  5
2D5
  8
PART_LETTERS
 10
1.844457093127779
 20
72.42628851936229
 30
0.0
  0
VERTEX
  5
2D6
  8
PART_LETTERS
 10
1.839939269226679
 20
72.43873721023135
 30
0.0
  0
VERTEX
  5
2D7
  8
PART_LETTERS
 10
1.835859875702674
 20
72.45141178912277
 30
0.0
  0
VERTEX
  5
2D8
  8
PART_LETTERS
 10
1.832218912555763
 20
72.4643122560366
 30
0.0
  0
VERTEX
  5
2D9
  8
PART_LETTERS
 10
1.829016379785945
 20
72.47743861097284
 30
0.0
  0
VERTEX
  5
2DA
  8
PART_LETTERS
 10
1.826252277393222
 20
72.49079085393146
 30
0.0
  0
VERTEX
  5
2DB
  8
PART_LETTERS
 10
1.823926605377593
 20
72.50436898491247
 30
0.0
  0
VERTEX
  5
2DC
  8
PART_LETTERS
 10
1.822039363739057
 20
72.51817300391588
 30
0.0
  0
VERTEX
  5
2DD
  8
PART_LETTERS
 10
1.820590552477616
 20
72.53220291094168
 30
0.0
  0
VERTEX
  5
2DE
  8
PART_LETTERS
 10
1.819651167452114
 20
72.54637103968439
 30
0.0
  0
VERTEX
  5
2DF
  8
PART_LETTERS
 10
1.819292204521396
 20
72.56058972383849
 30
0.0
  0
VERTEX
  5
2E0
  8
PART_LETTERS
 10
1.819513663685463
 20
72.57485896340403
 30
0.0
  0
VERTEX
  5
2E1
  8
PART_LETTERS
 10
1.820315544944314
 20
72.58917875838095
 30
0.0
  0
VERTEX
  5
2E2
  8
PART_LETTERS
 10
1.82169784829795
 20
72.60354910876931
 30
0.0
  0
VERTEX
  5
2E3
  8
PART_LETTERS
 10
1.82366057374637
 20
72.6179700145691
 30
0.0
  0
VERTEX
  5
2E4
  8
PART_LETTERS
 10
1.826203721289575
 20
72.6324414757803
 30
0.0
  0
VERTEX
  5
2E5
  8
PART_LETTERS
 10
1.829327290927564
 20
72.64696349240288
 30
0.0
  0
VERTEX
  5
2E6
  8
PART_LETTERS
 10
1.833031282660338
 20
72.66153606443689
 30
0.0
  0
VERTEX
  5
2E7
  8
PART_LETTERS
 10
1.837315696487896
 20
72.6761591918823
 30
0.0
  0
VERTEX
  5
2E8
  8
PART_LETTERS
 10
1.842180532410239
 20
72.69083287473916
 30
0.0
  0
VERTEX
  5
2E9
  8
PART_LETTERS
 10
1.847625790427367
 20
72.70555711300742
 30
0.0
  0
VERTEX
  5
2EA
  8
PART_LETTERS
 10
1.853651470539279
 20
72.72033190668711
 30
0.0
  0
VERTEX
  5
2EB
  8
PART_LETTERS
 10
1.860257572745975
 20
72.73515725577819
 30
0.0
  0
VERTEX
  5
2EC
  8
PART_LETTERS
 10
1.867444097047456
 20
72.7500331602807
 30
0.0
  0
VERTEX
  5
2ED
  8
PART_LETTERS
 10
1.875211043443721
 20
72.7649596201946
 30
0.0
  0
VERTEX
  5
2EE
  8
PART_LETTERS
 10
1.883683189931154
 20
72.77996623614702
 30
0.0
  0
VERTEX
  5
2EF
  8
PART_LETTERS
 10
1.892985314506139
 20
72.795082608765
 30
0.0
  0
VERTEX
  5
2F0
  8
PART_LETTERS
 10
1.903117417168675
 20
72.81030873804853
 30
0.0
  0
VERTEX
  5
2F1
  8
PART_LETTERS
 10
1.914079497918762
 20
72.82564462399765
 30
0.0
  0
VERTEX
  5
2F2
  8
PART_LETTERS
 10
1.9258715567564
 20
72.84109026661233
 30
0.0
  0
VERTEX
  5
2F3
  8
PART_LETTERS
 10
1.93849359368159
 20
72.85664566589257
 30
0.0
  0
VERTEX
  5
2F4
  8
PART_LETTERS
 10
1.951945608694331
 20
72.87231082183838
 30
0.0
  0
VERTEX
  5
2F5
  8
PART_LETTERS
 10
1.966227601794623
 20
72.88808573444977
 30
0.0
  0
VERTEX
  5
2F6
  8
PART_LETTERS
 10
1.981339572982467
 20
72.90397040372675
 30
0.0
  0
VERTEX
  5
2F7
  8
PART_LETTERS
 10
1.997281522257862
 20
72.91996482966927
 30
0.0
  0
VERTEX
  5
2F8
  8
PART_LETTERS
 10
2.014053449620808
 20
72.93606901227736
 30
0.0
  0
VERTEX
  5
2F9
  8
PART_LETTERS
 10
2.031655355071305
 20
72.95228295155101
 30
0.0
  0
VERTEX
  5
2FA
  8
PART_LETTERS
 10
2.050087238609354
 20
72.96860664749025
 30
0.0
  0
VERTEX
  5
2FB
  8
PART_LETTERS
 10
2.069349100234954
 20
72.98504010009505
 30
0.0
  0
VERTEX
  5
2FC
  8
PART_LETTERS
 10
2.089440939948105
 20
73.00158330936542
 30
0.0
  0
VERTEX
  5
2FD
  8
PART_LETTERS
 10
2.110362757748808
 20
73.01823627530133
 30
0.0
  0
VERTEX
  5
2FE
  8
PART_LETTERS
 10
2.136394154195027
 20
73.03812938967621
 30
0.0
  0
VERTEX
  5
2FF
  8
PART_LETTERS
 10
2.162124651627147
 20
73.05680520232482
 30
0.0
  0
VERTEX
  5
300
  8
PART_LETTERS
 10
2.187554250045168
 20
73.07426371324713
 30
0.0
  0
VERTEX
  5
301
  8
PART_LETTERS
 10
2.212682949449092
 20
73.09050492244316
 30
0.0
  0
VERTEX
  5
302
  8
PART_LETTERS
 10
2.237510749838917
 20
73.10552882991288
 30
0.0
  0
VERTEX
  5
303
  8
PART_LETTERS
 10
2.262037651214643
 20
73.11933543565632
 30
0.0
  0
VERTEX
  5
304
  8
PART_LETTERS
 10
2.286263653576271
 20
73.13192473967348
 30
0.0
  0
VERTEX
  5
305
  8
PART_LETTERS
 10
2.310188756923801
 20
73.14329674196438
 30
0.0
  0
VERTEX
  5
306
  8
PART_LETTERS
 10
2.333812961257232
 20
73.15345144252893
 30
0.0
  0
VERTEX
  5
307
  8
PART_LETTERS
 10
2.357136266576564
 20
73.16238884136723
 30
0.0
  0
VERTEX
  5
308
  8
PART_LETTERS
 10
2.380158672881798
 20
73.17010893847923
 30
0.0
  0
VERTEX
  5
309
  8
PART_LETTERS
 10
2.402880180172934
 20
73.17661173386496
 30
0.0
  0
VERTEX
  5
30A
  8
PART_LETTERS
 10
2.425300788449971
 20
73.18189722752439
 30
0.0
  0
VERTEX
  5
30B
  8
PART_LETTERS
 10
2.44742049771291
 20
73.18596541945752
 30
0.0
  0
VERTEX
  5
30C
  8
PART_LETTERS
 10
2.469239307961749
 20
73.18881630966436
 30
0.0
  0
VERTEX
  5
30D
  8
PART_LETTERS
 10
2.490757219196491
 20
73.19044989814492
 30
0.0
  0
VERTEX
  5
30E
  8
PART_LETTERS
 10
2.501424358573891
 20
73.19080435374963
 30
0.0
  0
VERTEX
  5
30F
  8
PART_LETTERS
 10
2.512058314978396
 20
73.19084278294636
 30
0.0
  0
VERTEX
  5
310
  8
PART_LETTERS
 10
2.522659088410009
 20
73.1905651857351
 30
0.0
  0
VERTEX
  5
311
  8
PART_LETTERS
 10
2.533226678868727
 20
73.18997156211586
 30
0.0
  0
VERTEX
  5
312
  8
PART_LETTERS
 10
2.543761086354553
 20
73.18906191208863
 30
0.0
  0
VERTEX
  5
313
  8
PART_LETTERS
 10
2.554262310867484
 20
73.18783623565344
 30
0.0
  0
VERTEX
  5
314
  8
PART_LETTERS
 10
2.564730352407522
 20
73.18629453281025
 30
0.0
  0
VERTEX
  5
315
  8
PART_LETTERS
 10
2.575165210974666
 20
73.1844368035591
 30
0.0
  0
VERTEX
  5
316
  8
PART_LETTERS
 10
2.585566886568917
 20
73.18226304789994
 30
0.0
  0
VERTEX
  5
317
  8
PART_LETTERS
 10
2.595935379190274
 20
73.17977326583281
 30
0.0
  0
VERTEX
  5
318
  8
PART_LETTERS
 10
2.606270688838737
 20
73.17696745735768
 30
0.0
  0
VERTEX
  5
319
  8
PART_LETTERS
 10
2.616572815514307
 20
73.17384562247457
 30
0.0
  0
VERTEX
  5
31A
  8
PART_LETTERS
 10
2.626841759216983
 20
73.1704077611835
 30
0.0
  0
VERTEX
  5
31B
  8
PART_LETTERS
 10
2.637077519946766
 20
73.16665387348442
 30
0.0
  0
VERTEX
  5
31C
  8
PART_LETTERS
 10
2.647280097703655
 20
73.16258395937737
 30
0.0
  0
VERTEX
  5
31D
  8
PART_LETTERS
 10
2.657449492487651
 20
73.15819801886235
 30
0.0
  0
VERTEX
  5
31E
  8
PART_LETTERS
 10
2.677688733136962
 20
73.14847805860833
 30
0.0
  0
VERTEX
  5
31F
  8
PART_LETTERS
 10
2.697795241894697
 20
73.13749399272237
 30
0.0
  0
VERTEX
  5
320
  8
PART_LETTERS
 10
2.717769018760859
 20
73.12524582120449
 30
0.0
  0
VERTEX
  5
321
  8
PART_LETTERS
 10
2.737610063735446
 20
73.11173354405466
 30
0.0
  0
VERTEX
  5
322
  8
PART_LETTERS
 10
2.757318376818459
 20
73.09695716127291
 30
0.0
  0
VERTEX
  5
323
  8
PART_LETTERS
 10
2.776893958009897
 20
73.08091667285922
 30
0.0
  0
VERTEX
  5
324
  8
PART_LETTERS
 10
2.796336807309761
 20
73.0636120788136
 30
0.0
  0
VERTEX
  5
325
  8
PART_LETTERS
 10
2.815646924718051
 20
73.04504337913605
 30
0.0
  0
VERTEX
  5
326
  8
PART_LETTERS
 10
2.511957128530305
 20
72.77717718965641
 30
0.0
  0
VERTEX
  5
327
  8
PART_LETTERS
 10
2.503164063542197
 20
72.78491834755373
 30
0.0
  0
VERTEX
  5
328
  8
PART_LETTERS
 10
2.494398862455248
 20
72.79217404373442
 30
0.0
  0
VERTEX
  5
329
  8
PART_LETTERS
 10
2.485661525269457
 20
72.79894427819849
 30
0.0
  0
VERTEX
  5
32A
  8
PART_LETTERS
 10
2.476952051984822
 20
72.80522905094594
 30
0.0
  0
VERTEX
  5
32B
  8
PART_LETTERS
 10
2.468270442601347
 20
72.81102836197678
 30
0.0
  0
VERTEX
  5
32C
  8
PART_LETTERS
 10
2.45961669711903
 20
72.81634221129102
 30
0.0
  0
VERTEX
  5
32D
  8
PART_LETTERS
 10
2.45099081553787
 20
72.82117059888861
 30
0.0
  0
VERTEX
  5
32E
  8
PART_LETTERS
 10
2.442392797857868
 20
72.82551352476962
 30
0.0
  0
VERTEX
  5
32F
  8
PART_LETTERS
 10
2.433822644079024
 20
72.829370988934
 30
0.0
  0
VERTEX
  5
330
  8
PART_LETTERS
 10
2.425280354201338
 20
72.83274299138176
 30
0.0
  0
VERTEX
  5
331
  8
PART_LETTERS
 10
2.416765928224811
 20
72.8356295321129
 30
0.0
  0
VERTEX
  5
332
  8
PART_LETTERS
 10
2.408279366149441
 20
72.83803061112744
 30
0.0
  0
VERTEX
  5
333
  8
PART_LETTERS
 10
2.399820667975229
 20
72.83994622842536
 30
0.0
  0
VERTEX
  5
334
  8
PART_LETTERS
 10
2.391389833702176
 20
72.84137638400668
 30
0.0
  0
VERTEX
  5
335
  8
PART_LETTERS
 10
2.38298686333028
 20
72.84232107787136
 30
0.0
  0
VERTEX
  5
336
  8
PART_LETTERS
 10
2.374611756859542
 20
72.84278031001944
 30
0.0
  0
VERTEX
  5
337
  8
PART_LETTERS
 10
2.366232347556092
 20
72.84277116558799
 30
0.0
  0
VERTEX
  5
338
  8
PART_LETTERS
 10
2.357816468686062
 20
72.84231072971407
 30
0.0
  0
VERTEX
  5
339
  8
PART_LETTERS
 10
2.34936412024945
 20
72.84139900239771
 30
0.0
  0
VERTEX
  5
33A
  8
PART_LETTERS
 10
2.340875302246257
 20
72.84003598363887
 30
0.0
  0
VERTEX
  5
33B
  8
PART_LETTERS
 10
2.332350014676482
 20
72.8382216734376
 30
0.0
  0
VERTEX
  5
33C
  8
PART_LETTERS
 10
2.323788257540127
 20
72.83595607179386
 30
0.0
  0
VERTEX
  5
33D
  8
PART_LETTERS
 10
2.31519003083719
 20
72.83323917870767
 30
0.0
  0
VERTEX
  5
33E
  8
PART_LETTERS
 10
2.306555334567673
 20
72.83007099417902
 30
0.0
  0
VERTEX
  5
33F
  8
PART_LETTERS
 10
2.297884168731573
 20
72.82645151820795
 30
0.0
  0
VERTEX
  5
340
  8
PART_LETTERS
 10
2.289176533328893
 20
72.82238075079438
 30
0.0
  0
VERTEX
  5
341
  8
PART_LETTERS
 10
2.280432428359632
 20
72.81785869193837
 30
0.0
  0
VERTEX
  5
342
  8
PART_LETTERS
 10
2.271651853823789
 20
72.8128853416399
 30
0.0
  0
VERTEX
  5
343
  8
PART_LETTERS
 10
2.262834809721365
 20
72.807460699899
 30
0.0
  0
VERTEX
  5
344
  8
PART_LETTERS
 10
2.25398129605236
 20
72.80158476671562
 30
0.0
  0
VERTEX
  5
345
  8
PART_LETTERS
 10
2.245091312816774
 20
72.79525754208981
 30
0.0
  0
VERTEX
  5
346
  8
PART_LETTERS
 10
2.236164860014607
 20
72.78847902602152
 30
0.0
  0
VERTEX
  5
347
  8
PART_LETTERS
 10
2.222203137524714
 20
72.77691685775815
 30
0.0
  0
VERTEX
  5
348
  8
PART_LETTERS
 10
2.209760900023835
 20
72.76528571885854
 30
0.0
  0
VERTEX
  5
349
  8
PART_LETTERS
 10
2.19883814751197
 20
72.75358560932267
 30
0.0
  0
VERTEX
  5
34A
  8
PART_LETTERS
 10
2.193946578126917
 20
72.74770969056614
 30
0.0
  0
VERTEX
  5
34B
  8
PART_LETTERS
 10
2.189434879989118
 20
72.74181652915055
 30
0.0
  0
VERTEX
  5
34C
  8
PART_LETTERS
 10
2.185303053098573
 20
72.7359061250759
 30
0.0
  0
VERTEX
  5
34D
  8
PART_LETTERS
 10
2.181551097455281
 20
72.72997847834216
 30
0.0
  0
VERTEX
  5
34E
  8
PART_LETTERS
 10
2.178179013059242
 20
72.72403358894937
 30
0.0
  0
VERTEX
  5
34F
  8
PART_LETTERS
 10
2.175186799910457
 20
72.71807145689752
 30
0.0
  0
VERTEX
  5
350
  8
PART_LETTERS
 10
2.172574458008926
 20
72.71209208218662
 30
0.0
  0
VERTEX
  5
351
  8
PART_LETTERS
 10
2.170341987354647
 20
72.70609546481664
 30
0.0
  0
VERTEX
  5
352
  8
PART_LETTERS
 10
2.168489387947623
 20
72.7000816047876
 30
0.0
  0
VERTEX
  5
353
  8
PART_LETTERS
 10
2.167016659787852
 20
72.6940505020995
 30
0.0
  0
VERTEX
  5
354
  8
PART_LETTERS
 10
2.165049183894425
 20
72.68216697659236
 30
0.0
  0
VERTEX
  5
355
  8
PART_LETTERS
 10
2.164277926358723
 20
72.67067529614143
 30
0.0
  0
VERTEX
  5
356
  8
PART_LETTERS
 10
2.164340879475019
 20
72.66507639781204
 30
0.0
  0
VERTEX
  5
357
  8
PART_LETTERS
 10
2.164702887180745
 20
72.65957546074672
 30
0.0
  0
VERTEX
  5
358
  8
PART_LETTERS
 10
2.165363949475903
 20
72.65417248494545
 30
0.0
  0
VERTEX
  5
359
  8
PART_LETTERS
 10
2.166324066360492
 20
72.64886747040823
 30
0.0
  0
VERTEX
  5
35A
  8
PART_LETTERS
 10
2.167583237834512
 20
72.64366041713508
 30
0.0
  0
VERTEX
  5
35B
  8
PART_LETTERS
 10
2.169141463897962
 20
72.63855132512597
 30
0.0
  0
VERTEX
  5
35C
  8
PART_LETTERS
 10
2.170998744550845
 20
72.63354019438094
 30
0.0
  0
VERTEX
  5
35D
  8
PART_LETTERS
 10
2.173155079793157
 20
72.62862702489996
 30
0.0
  0
VERTEX
  5
35E
  8
PART_LETTERS
 10
2.175610469624902
 20
72.62381181668303
 30
0.0
  0
VERTEX
  5
35F
  8
PART_LETTERS
 10
2.178364914046077
 20
72.61909456973015
 30
0.0
  0
VERTEX
  5
360
  8
PART_LETTERS
 10
2.181418413056684
 20
72.61447528404135
 30
0.0
  0
VERTEX
  5
361
  8
PART_LETTERS
 10
2.184770966656721
 20
72.60995395961659
 30
0.0
  0
VERTEX
  5
362
  8
PART_LETTERS
 10
2.190198669989947
 20
72.60381427876281
 30
0.0
  0
VERTEX
  5
363
  8
PART_LETTERS
 10
2.196267377379926
 20
72.59843957226359
 30
0.0
  0
VERTEX
  5
364
  8
PART_LETTERS
 10
2.20297708882666
 20
72.59382984011893
 30
0.0
  0
VERTEX
  5
365
  8
PART_LETTERS
 10
2.210327804330147
 20
72.58998508232882
 30
0.0
  0
VERTEX
  5
366
  8
PART_LETTERS
 10
2.218319523890389
 20
72.5869052988933
 30
0.0
  0
VERTEX
  5
367
  8
PART_LETTERS
 10
2.226952247507385
 20
72.58459048981233
 30
0.0
  0
VERTEX
  5
368
  8
PART_LETTERS
 10
2.236225975181135
 20
72.58304065508594
 30
0.0
  0
VERTEX
  5
369
  8
PART_LETTERS
 10
2.246140706911639
 20
72.58225579471407
 30
0.0
  0
VERTEX
  5
36A
  8
PART_LETTERS
 10
2.251485218008166
 20
72.58210076104902
 30
0.0
  0
VERTEX
  5
36B
  8
PART_LETTERS
 10
2.257323945159617
 20
72.58237030094375
 30
0.0
  0
VERTEX
  5
36C
  8
PART_LETTERS
 10
2.263656888365992
 20
72.58306441439827
 30
0.0
  0
VERTEX
  5
36D
  8
PART_LETTERS
 10
2.270484047627289
 20
72.58418310141255
 30
0.0
  0
VERTEX
  5
36E
  8
PART_LETTERS
 10
2.27780542294351
 20
72.5857263619866
 30
0.0
  0
VERTEX
  5
36F
  8
PART_LETTERS
 10
2.285621014314655
 20
72.58769419612044
 30
0.0
  0
VERTEX
  5
370
  8
PART_LETTERS
 10
2.302734845221715
 20
72.59290358506745
 30
0.0
  0
VERTEX
  5
371
  8
PART_LETTERS
 10
2.321825540348467
 20
72.59981126825356
 30
0.0
  0
VERTEX
  5
372
  8
PART_LETTERS
 10
2.342893099694914
 20
72.6084172456788
 30
0.0
  0
VERTEX
  5
373
  8
PART_LETTERS
 10
2.365937523261053
 20
72.61872151734315
 30
0.0
  0
VERTEX
  5
374
  8
PART_LETTERS
 10
2.390958811046886
 20
72.63072408324659
 30
0.0
  0
VERTEX
  5
375
  8
PART_LETTERS
 10
2.453694154097779
 20
72.66058189371965
 30
0.0
  0
VERTEX
  5
376
  8
PART_LETTERS
 10
2.483600230295623
 20
72.67434515609202
 30
0.0
  0
VERTEX
  5
377
  8
PART_LETTERS
 10
2.512531909608398
 20
72.6873313232216
 30
0.0
  0
VERTEX
  5
378
  8
PART_LETTERS
 10
2.540489192036104
 20
72.69954039510841
 30
0.0
  0
VERTEX
  5
379
  8
PART_LETTERS
 10
2.567472077578741
 20
72.71097237175243
 30
0.0
  0
VERTEX
  5
37A
  8
PART_LETTERS
 10
2.593480566236311
 20
72.72162725315367
 30
0.0
  0
VERTEX
  5
37B
  8
PART_LETTERS
 10
2.618514658008811
 20
72.73150503931214
 30
0.0
  0
VERTEX
  5
37C
  8
PART_LETTERS
 10
2.642574352896243
 20
72.74060573022783
 30
0.0
  0
VERTEX
  5
37D
  8
PART_LETTERS
 10
2.665659650898606
 20
72.74892932590072
 30
0.0
  0
VERTEX
  5
37E
  8
PART_LETTERS
 10
2.687770552015901
 20
72.75647582633084
 30
0.0
  0
VERTEX
  5
37F
  8
PART_LETTERS
 10
2.708907056248126
 20
72.7632452315182
 30
0.0
  0
VERTEX
  5
380
  8
PART_LETTERS
 10
2.729069163595284
 20
72.76923754146276
 30
0.0
  0
VERTEX
  5
381
  8
PART_LETTERS
 10
2.748256874057372
 20
72.77445275616455
 30
0.0
  0
VERTEX
  5
382
  8
PART_LETTERS
 10
2.766470187634392
 20
72.77889087562355
 30
0.0
  0
VERTEX
  5
383
  8
PART_LETTERS
 10
2.783709104326343
 20
72.78255189983976
 30
0.0
  0
VERTEX
  5
384
  8
PART_LETTERS
 10
2.800328824843138
 20
72.78557305840587
 30
0.0
  0
VERTEX
  5
385
  8
PART_LETTERS
 10
2.816684549894691
 20
72.78809158091457
 30
0.0
  0
VERTEX
  5
386
  8
PART_LETTERS
 10
2.832776279481002
 20
72.79010746736584
 30
0.0
  0
VERTEX
  5
387
  8
PART_LETTERS
 10
2.84860401360207
 20
72.79162071775968
 30
0.0
  0
VERTEX
  5
388
  8
PART_LETTERS
 10
2.864167752257895
 20
72.7926313320961
 30
0.0
  0
VERTEX
  5
389
  8
PART_LETTERS
 10
2.879467495448478
 20
72.79313931037508
 30
0.0
  0
VERTEX
  5
38A
  8
PART_LETTERS
 10
2.894503243173818
 20
72.79314465259664
 30
0.0
  0
VERTEX
  5
38B
  8
PART_LETTERS
 10
2.909274995433915
 20
72.79264735876077
 30
0.0
  0
VERTEX
  5
38C
  8
PART_LETTERS
 10
2.92378275222877
 20
72.79164742886748
 30
0.0
  0
VERTEX
  5
38D
  8
PART_LETTERS
 10
2.938026513558382
 20
72.79014486291676
 30
0.0
  0
VERTEX
  5
38E
  8
PART_LETTERS
 10
2.952006279422752
 20
72.78813966090861
 30
0.0
  0
VERTEX
  5
38F
  8
PART_LETTERS
 10
2.965722049821879
 20
72.78563182284304
 30
0.0
  0
VERTEX
  5
390
  8
PART_LETTERS
 10
2.979173824755764
 20
72.78262134872004
 30
0.0
  0
VERTEX
  5
391
  8
PART_LETTERS
 10
2.992361604224405
 20
72.77910823853962
 30
0.0
  0
VERTEX
  5
392
  8
PART_LETTERS
 10
3.005285388227805
 20
72.77509249230177
 30
0.0
  0
VERTEX
  5
393
  8
PART_LETTERS
 10
3.017945176765962
 20
72.77057411000649
 30
0.0
  0
VERTEX
  5
394
  8
PART_LETTERS
 10
3.030355074178727
 20
72.76560406095882
 30
0.0
  0
VERTEX
  5
395
  8
PART_LETTERS
 10
3.042529184805951
 20
72.76023331446379
 30
0.0
  0
VERTEX
  5
396
  8
PART_LETTERS
 10
3.054467508647634
 20
72.75446187052138
 30
0.0
  0
VERTEX
  5
397
  8
PART_LETTERS
 10
3.066170045703777
 20
72.74828972913161
 30
0.0
  0
VERTEX
  5
398
  8
PART_LETTERS
 10
3.077636795974379
 20
72.74171689029448
 30
0.0
  0
VERTEX
  5
399
  8
PART_LETTERS
 10
3.088867759459441
 20
72.73474335400999
 30
0.0
  0
VERTEX
  5
39A
  8
PART_LETTERS
 10
3.099862936158961
 20
72.72736912027813
 30
0.0
  0
VERTEX
  5
39B
  8
PART_LETTERS
 10
3.11062232607294
 20
72.7195941890989
 30
0.0
  0
VERTEX
  5
39C
  8
PART_LETTERS
 10
3.121145929201379
 20
72.71141856047231
 30
0.0
  0
VERTEX
  5
39D
  8
PART_LETTERS
 10
3.131433745544277
 20
72.70284223439835
 30
0.0
  0
VERTEX
  5
39E
  8
PART_LETTERS
 10
3.141485775101634
 20
72.69386521087702
 30
0.0
  0
VERTEX
  5
39F
  8
PART_LETTERS
 10
3.151302017873451
 20
72.68448748990835
 30
0.0
  0
VERTEX
  5
3A0
  8
PART_LETTERS
 10
3.160882473859726
 20
72.6747090714923
 30
0.0
  0
VERTEX
  5
3A1
  8
PART_LETTERS
 10
3.170227143060461
 20
72.6645299556289
 30
0.0
  0
VERTEX
  5
3A2
  8
PART_LETTERS
 10
3.179336025475655
 20
72.65395014231811
 30
0.0
  0
VERTEX
  5
3A3
  8
PART_LETTERS
 10
3.188209121105308
 20
72.64296963155996
 30
0.0
  0
VERTEX
  5
3A4
  8
PART_LETTERS
 10
3.198219212512605
 20
72.62971833863084
 30
0.0
  0
VERTEX
  5
3A5
  8
PART_LETTERS
 10
3.207674761477822
 20
72.61623947962573
 30
0.0
  0
VERTEX
  5
3A6
  8
PART_LETTERS
 10
3.21657576800096
 20
72.60253305454464
 30
0.0
  0
VERTEX
  5
3A7
  8
PART_LETTERS
 10
3.224922232082017
 20
72.58859906338756
 30
0.0
  0
VERTEX
  5
3A8
  8
PART_LETTERS
 10
3.232714153720994
 20
72.57443750615452
 30
0.0
  0
VERTEX
  5
3A9
  8
PART_LETTERS
 10
3.239951532917892
 20
72.56004838284551
 30
0.0
  0
VERTEX
  5
3AA
  8
PART_LETTERS
 10
3.246634369672709
 20
72.54543169346051
 30
0.0
  0
VERTEX
  5
3AB
  8
PART_LETTERS
 10
3.252762663985446
 20
72.53058743799954
 30
0.0
  0
VERTEX
  5
3AC
  8
PART_LETTERS
 10
3.258336415856103
 20
72.5155156164626
 30
0.0
  0
VERTEX
  5
3AD
  8
PART_LETTERS
 10
3.263355625284681
 20
72.50021622884967
 30
0.0
  0
VERTEX
  5
3AE
  8
PART_LETTERS
 10
3.267820292271178
 20
72.48468927516076
 30
0.0
  0
VERTEX
  5
3AF
  8
PART_LETTERS
 10
3.271730416815595
 20
72.46893475539588
 30
0.0
  0
VERTEX
  5
3B0
  8
PART_LETTERS
 10
3.275085998917933
 20
72.45295266955502
 30
0.0
  0
VERTEX
  5
3B1
  8
PART_LETTERS
 10
3.27788703857819
 20
72.43674301763818
 30
0.0
  0
VERTEX
  5
3B2
  8
PART_LETTERS
 10
3.280133535796367
 20
72.42030579964536
 30
0.0
  0
VERTEX
  5
3B3
  8
PART_LETTERS
 10
3.281825490572465
 20
72.40364101557658
 30
0.0
  0
VERTEX
  5
3B4
  8
PART_LETTERS
 10
3.28292854980031
 20
72.3868885101577
 30
0.0
  0
VERTEX
  5
3B5
  8
PART_LETTERS
 10
3.283408360373731
 20
72.3701881281146
 30
0.0
  0
VERTEX
  5
3B6
  8
PART_LETTERS
 10
3.283264922292729
 20
72.3535398694473
 30
0.0
  0
VERTEX
  5
3B7
  8
PART_LETTERS
 10
3.282498235557304
 20
72.3369437341558
 30
0.0
  0
VERTEX
  5
3B8
  8
PART_LETTERS
 10
3.281108300167454
 20
72.32039972224007
 30
0.0
  0
VERTEX
  5
3B9
  8
PART_LETTERS
 10
3.27909511612318
 20
72.30390783370014
 30
0.0
  0
VERTEX
  5
3BA
  8
PART_LETTERS
 10
3.276458683424483
 20
72.287468068536
 30
0.0
  0
VERTEX
  5
3BB
  8
PART_LETTERS
 10
3.273199002071361
 20
72.27108042674764
 30
0.0
  0
VERTEX
  5
3BC
  8
PART_LETTERS
 10
3.269316072063816
 20
72.25474490833507
 30
0.0
  0
VERTEX
  5
3BD
  8
PART_LETTERS
 10
3.264809893401847
 20
72.2384615132983
 30
0.0
  0
VERTEX
  5
3BE
  8
PART_LETTERS
 10
3.259680466085454
 20
72.22223024163733
 30
0.0
  0
VERTEX
  5
3BF
  8
PART_LETTERS
 10
3.253927790114638
 20
72.20605109335214
 30
0.0
  0
VERTEX
  5
3C0
  8
PART_LETTERS
 10
3.247551865489397
 20
72.18992406844274
 30
0.0
  0
VERTEX
  5
3C1
  8
PART_LETTERS
 10
3.240552692209732
 20
72.17384916690912
 30
0.0
  0
VERTEX
  5
3C2
  8
PART_LETTERS
 10
3.232930270275644
 20
72.15782638875132
 30
0.0
  0
VERTEX
  5
3C3
  8
PART_LETTERS
 10
3.224684599687132
 20
72.14185573396928
 30
0.0
  0
VERTEX
  5
3C4
  8
PART_LETTERS
 10
3.215774531938143
 20
72.12592376928527
 30
0.0
  0
VERTEX
  5
3C5
  8
PART_LETTERS
 10
3.20615891852262
 20
72.11001706142147
 30
0.0
  0
VERTEX
  5
3C6
  8
PART_LETTERS
 10
3.195837759440566
 20
72.09413561037792
 30
0.0
  0
VERTEX
  5
3C7
  8
PART_LETTERS
 10
3.184811054691981
 20
72.0782794161546
 30
0.0
  0
VERTEX
  5
3C8
  8
PART_LETTERS
 10
3.173078804276863
 20
72.06244847875149
 30
0.0
  0
VERTEX
  5
3C9
  8
PART_LETTERS
 10
3.160641008195213
 20
72.04664279816862
 30
0.0
  0
VERTEX
  5
3CA
  8
PART_LETTERS
 10
3.147497666447031
 20
72.03086237440598
 30
0.0
  0
VERTEX
  5
3CB
  8
PART_LETTERS
 10
3.133648779032318
 20
72.01510720746357
 30
0.0
  0
VERTEX
  5
3CC
  8
PART_LETTERS
 10
3.119094345951073
 20
71.99937729734138
 30
0.0
  0
VERTEX
  5
3CD
  8
PART_LETTERS
 10
3.103834367203294
 20
71.98367264403944
 30
0.0
  0
VERTEX
  5
3CE
  8
PART_LETTERS
 10
3.087868842788986
 20
71.96799324755773
 30
0.0
  0
VERTEX
  5
3CF
  8
PART_LETTERS
 10
3.071197772708143
 20
71.95233910789622
 30
0.0
  0
VERTEX
  5
3D0
  8
PART_LETTERS
 10
3.053821156960771
 20
71.93671022505494
 30
0.0
  0
VERTEX
  5
3D1
  8
PART_LETTERS
 10
3.035738995546865
 20
71.9211065990339
 30
0.0
  0
VERTEX
  5
3D2
  8
PART_LETTERS
 10
3.016951288466428
 20
71.9055282298331
 30
0.0
  0
VERTEX
  5
3D3
  8
PART_LETTERS
 10
2.997458035719459
 20
71.88997511745251
 30
0.0
  0
VERTEX
  5
3D4
  8
PART_LETTERS
 10
2.962952390479942
 20
71.86363175284544
 30
0.0
  0
VERTEX
  5
3D5
  8
PART_LETTERS
 10
2.929129478864752
 20
71.83917575296746
 30
0.0
  0
VERTEX
  5
3D6
  8
PART_LETTERS
 10
2.89598930087389
 20
71.81660711781859
 30
0.0
  0
VERTEX
  5
3D7
  8
PART_LETTERS
 10
2.87967523698758
 20
71.80603056201757
 30
0.0
  0
VERTEX
  5
3D8
  8
PART_LETTERS
 10
2.863531856507353
 20
71.7959258473988
 30
0.0
  0
VERTEX
  5
3D9
  8
PART_LETTERS
 10
2.847559159433208
 20
71.78629297396232
 30
0.0
  0
VERTEX
  5
3DA
  8
PART_LETTERS
 10
2.831757145765145
 20
71.77713194170812
 30
0.0
  0
VERTEX
  5
3DB
  8
PART_LETTERS
 10
2.816125815503163
 20
71.7684427506362
 30
0.0
  0
VERTEX
  5
3DC
  8
PART_LETTERS
 10
2.800665168647264
 20
71.76022540074653
 30
0.0
  0
VERTEX
  5
3DD
  8
PART_LETTERS
 10
2.785375205197445
 20
71.75247989203915
 30
0.0
  0
VERTEX
  5
3DE
  8
PART_LETTERS
 10
2.770255925153709
 20
71.74520622451405
 30
0.0
  0
VERTEX
  5
3DF
  8
PART_LETTERS
 10
2.755307328516055
 20
71.73840439817121
 30
0.0
  0
VERTEX
  5
3E0
  8
PART_LETTERS
 10
2.740529415284482
 20
71.73207441301065
 30
0.0
  0
VERTEX
  5
3E1
  8
PART_LETTERS
 10
2.725922185458991
 20
71.72621626903236
 30
0.0
  0
VERTEX
  5
3E2
  8
PART_LETTERS
 10
2.711485639039582
 20
71.72082996623635
 30
0.0
  0
VERTEX
  5
3E3
  8
PART_LETTERS
 10
2.697219776026255
 20
71.71591550462261
 30
0.0
  0
VERTEX
  5
3E4
  8
PART_LETTERS
 10
2.68312459641901
 20
71.71147288419115
 30
0.0
  0
VERTEX
  5
3E5
  8
PART_LETTERS
 10
2.669200100217846
 20
71.70750210494197
 30
0.0
  0
VERTEX
  5
3E6
  8
PART_LETTERS
 10
2.655446287422764
 20
71.70400316687505
 30
0.0
  0
VERTEX
  5
3E7
  8
PART_LETTERS
 10
2.641863158033764
 20
71.70097606999042
 30
0.0
  0
VERTEX
  5
3E8
  8
PART_LETTERS
 10
2.628450712050845
 20
71.69842081428806
 30
0.0
  0
VERTEX
  5
3E9
  8
PART_LETTERS
 10
2.615208949474009
 20
71.69633739976797
 30
0.0
  0
VERTEX
  5
3EA
  8
PART_LETTERS
 10
2.602137870303254
 20
71.69472582643014
 30
0.0
  0
VERTEX
  5
3EB
  8
PART_LETTERS
 10
2.589237474538581
 20
71.6935860942746
 30
0.0
  0
VERTEX
  5
3EC
  8
PART_LETTERS
 10
2.57650776217999
 20
71.69291820330133
 30
0.0
  0
VERTEX
  5
3ED
  8
PART_LETTERS
 10
2.56394873322748
 20
71.69272215351032
 30
0.0
  0
VERTEX
  5
3EE
  8
PART_LETTERS
 10
2.551560387681053
 20
71.6929979449016
 30
0.0
  0
VERTEX
  5
3EF
  8
PART_LETTERS
 10
2.539342725540706
 20
71.69374557747514
 30
0.0
  0
VERTEX
  5
3F0
  8
PART_LETTERS
 10
2.527295746806442
 20
71.69496505123098
 30
0.0
  0
VERTEX
  5
3F1
  8
PART_LETTERS
 10
2.503558592968149
 20
71.69838795120594
 30
0.0
  0
VERTEX
  5
3F2
  8
PART_LETTERS
 10
2.480193679578165
 20
71.70283507374299
 30
0.0
  0
VERTEX
  5
3F3
  8
PART_LETTERS
 10
2.457201006636488
 20
71.70830641884213
 30
0.0
  0
VERTEX
  5
3F4
  8
PART_LETTERS
 10
2.434580574143118
 20
71.71480198650333
 30
0.0
  0
VERTEX
  5
3F5
  8
PART_LETTERS
 10
2.412332382098057
 20
71.72232177672662
 30
0.0
  0
VERTEX
  5
3F6
  8
PART_LETTERS
 10
2.390456430501303
 20
71.73086578951198
 30
0.0
  0
VERTEX
  5
3F7
  8
PART_LETTERS
 10
2.368952719352858
 20
71.74043402485943
 30
0.0
  0
VERTEX
  5
3F8
  8
PART_LETTERS
 10
2.34782124865272
 20
71.75102648276895
 30
0.0
  0
VERTEX
  5
3F9
  8
PART_LETTERS
 10
2.327062018400889
 20
71.76264316324055
 30
0.0
  0
VERTEX
  5
3FA
  8
PART_LETTERS
 10
2.306675028597367
 20
71.77528406627424
 30
0.0
  0
VERTEX
  5
3FB
  8
PART_LETTERS
 10
2.286660279242153
 20
71.78894919186999
 30
0.0
  0
VERTEX
  5
3FC
  8
PART_LETTERS
 10
2.267017770335246
 20
71.80363854002783
 30
0.0
  0
VERTEX
  5
3FD
  8
PART_LETTERS
 10
2.247747501876647
 20
71.81935211074776
 30
0.0
  0
VERTEX
  5
3FE
  8
PART_LETTERS
 10
2.228849473866355
 20
71.83608990402975
 30
0.0
  0
VERTEX
  5
3FF
  8
PART_LETTERS
 10
2.210323686304372
 20
71.85385191987383
 30
0.0
  0
SEQEND
  5
52A
  8
PART_LETTERS
  0
POLYLINE
  5
75
  8
T8_DRILL
 66
     1
 10
0.0
 20
0.0
 30
0.0
 70
     1
  0
VERTEX
  5
400
  8
T8_DRILL
 10
2.277197574450254
 20
90.4356036903015
 30
0.0
 42
0.4142135623730951
  0
VERTEX
  5
401
  8
T8_DRILL
 10
2.152197574450254
 20
90.3106036903015
 30
0.0
 42
0.4142135623730951
  0
VERTEX
  5
402
  8
T8_DRILL
 10
2.277197574450247
 20
90.1856036903015
 30
0.0
 42
0.4142135623730951
  0
VERTEX
  5
403
  8
T8_DRILL
 10
2.402197574450311
 20
90.3106036903015
 30
0.0
 42
0.4142135623730951
  0
SEQEND
  5
52B
  8
T8_DRILL
  0
POLYLINE
  5
76
  8
T8_DRILL
 66
     1
 10
0.0
 20
0.0
 30
0.0
 70
     1
  0
VERTEX
  5
404
  8
T8_DRILL
 10
1.786603588635444
 20
24.69295475586078
 30
0.0
  0
VERTEX
  5
405
  8
T8_DRILL
 10
1.77915750752531
 20
24.68681323595803
 30
0.0
  0
VERTEX
  5
406
  8
T8_DRILL
 10
1.772107205412068
 20
24.68037184814324
 30
0.0
  0
VERTEX
  5
407
  8
T8_DRILL
 10
1.765454690741409
 20
24.67364713209417
 30
0.0
  0
VERTEX
  5
408
  8
T8_DRILL
 10
1.759201971959023
 20
24.66665562748857
 30
0.0
  0
VERTEX
  5
409
  8
T8_DRILL
 10
1.753351057510602
 20
24.6594138740042
 30
0.0
  0
VERTEX
  5
40A
  8
T8_DRILL
 10
1.747903955841837
 20
24.65193841131882
 30
0.0
  0
VERTEX
  5
40B
  8
T8_DRILL
 10
1.742862675398419
 20
24.64424577911018
 30
0.0
  0
VERTEX
  5
40C
  8
T8_DRILL
 10
1.738229224626039
 20
24.63635251705604
 30
0.0
  0
VERTEX
  5
40D
  8
T8_DRILL
 10
1.734005611970388
 20
24.62827516483416
 30
0.0
  0
VERTEX
  5
40E
  8
T8_DRILL
 10
1.730193845877158
 20
24.62003026212228
 30
0.0
  0
VERTEX
  5
40F
  8
T8_DRILL
 10
1.726795934792039
 20
24.61163434859818
 30
0.0
  0
VERTEX
  5
410
  8
T8_DRILL
 10
1.723813887160722
 20
24.6031039639396
 30
0.0
  0
VERTEX
  5
411
  8
T8_DRILL
 10
1.721249711428899
 20
24.59445564782429
 30
0.0
  0
VERTEX
  5
412
  8
T8_DRILL
 10
1.719105416042261
 20
24.58570593993003
 30
0.0
  0
VERTEX
  5
413
  8
T8_DRILL
 10
1.717383009446498
 20
24.57687137993455
 30
0.0
  0
VERTEX
  5
414
  8
T8_DRILL
 10
1.716084500087302
 20
24.56796850751563
 30
0.0
  0
VERTEX
  5
415
  8
T8_DRILL
 10
1.715211896410364
 20
24.55901386235101
 30
0.0
  0
VERTEX
  5
416
  8
T8_DRILL
 10
1.714767206861375
 20
24.55002398411845
 30
0.0
  0
VERTEX
  5
417
  8
T8_DRILL
 10
1.714752439886026
 20
24.54101541249571
 30
0.0
  0
VERTEX
  5
418
  8
T8_DRILL
 10
1.715169603930009
 20
24.53200468716054
 30
0.0
  0
VERTEX
  5
419
  8
T8_DRILL
 10
1.716020707439014
 20
24.5230083477907
 30
0.0
  0
VERTEX
  5
41A
  8
T8_DRILL
 10
1.717307758858732
 20
24.51404293406395
 30
0.0
  0
VERTEX
  5
41B
  8
T8_DRILL
 10
1.719032766634854
 20
24.50512498565804
 30
0.0
  0
VERTEX
  5
41C
  8
T8_DRILL
 10
1.721197739213073
 20
24.49627104225073
 30
0.0
  0
VERTEX
  5
41D
  8
T8_DRILL
 10
1.723804685039078
 20
24.48749764351977
 30
0.0
  0
VERTEX
  5
41E
  8
T8_DRILL
 10
1.726855612558561
 20
24.47882132914292
 30
0.0
  0
VERTEX
  5
41F
  8
T8_DRILL
 10
1.730352530217212
 20
24.47025863879794
 30
0.0
  0
VERTEX
  5
420
  8
T8_DRILL
 10
1.734297446460724
 20
24.46182611216259
 30
0.0
  0
VERTEX
  5
421
  8
T8_DRILL
 10
1.738692369734787
 20
24.45354028891461
 30
0.0
  0
VERTEX
  5
422
  8
T8_DRILL
 10
1.743539308485092
 20
24.44541770873177
 30
0.0
  0
VERTEX
  5
423
  8
T8_DRILL
 10
1.74884027115733
 20
24.43747491129182
 30
0.0
  0
VERTEX
  5
424
  8
T8_DRILL
 10
1.754597266197193
 20
24.42972843627252
 30
0.0
  0
VERTEX
  5
425
  8
T8_DRILL
 10
1.760738770946767
 20
24.42228234329473
 30
0.0
  0
VERTEX
  5
426
  8
T8_DRILL
 10
1.767180115257277
 20
24.41523200710985
 30
0.0
  0
VERTEX
  5
427
  8
T8_DRILL
 10
1.773904762383837
 20
24.40857943846053
 30
0.0
  0
VERTEX
  5
428
  8
T8_DRILL
 10
1.780896175581566
 20
24.40232664808942
 30
0.0
  0
VERTEX
  5
429
  8
T8_DRILL
 10
1.78813781810558
 20
24.39647564673918
 30
0.0
  0
VERTEX
  5
42A
  8
T8_DRILL
 10
1.795613153210994
 20
24.39102844515246
 30
0.0
  0
VERTEX
  5
42B
  8
T8_DRILL
 10
1.803305644152926
 20
24.38598705407193
 30
0.0
  0
VERTEX
  5
42C
  8
T8_DRILL
 10
1.811198754186492
 20
24.38135348424024
 30
0.0
  0
VERTEX
  5
42D
  8
T8_DRILL
 10
1.819275946566809
 20
24.37712974640003
 30
0.0
  0
VERTEX
  5
42E
  8
T8_DRILL
 10
1.827520684548993
 20
24.37331785129397
 30
0.0
  0
VERTEX
  5
42F
  8
T8_DRILL
 10
1.835916431388162
 20
24.36991980966472
 30
0.0
  0
VERTEX
  5
430
  8
T8_DRILL
 10
1.84444665033943
 20
24.36693763225492
 30
0.0
  0
VERTEX
  5
431
  8
T8_DRILL
 10
1.853094804657916
 20
24.36437332980723
 30
0.0
  0
VERTEX
  5
432
  8
T8_DRILL
 10
1.861844357598736
 20
24.36222891306431
 30
0.0
  0
VERTEX
  5
433
  8
T8_DRILL
 10
1.870678772417006
 20
24.36050639276881
 30
0.0
  0
VERTEX
  5
434
  8
T8_DRILL
 10
1.879581512367843
 20
24.3592077796634
 30
0.0
  0
VERTEX
  5
435
  8
T8_DRILL
 10
1.888536040706363
 20
24.35833508449072
 30
0.0
  0
VERTEX
  5
436
  8
T8_DRILL
 10
1.897525820687683
 20
24.35789031799342
 30
0.0
  0
VERTEX
  5
437
  8
T8_DRILL
 10
1.90653431556692
 20
24.35787549091418
 30
0.0
  0
VERTEX
  5
438
  8
T8_DRILL
 10
1.91554498859919
 20
24.35829261399563
 30
0.0
  0
VERTEX
  5
439
  8
T8_DRILL
 10
1.92454130303961
 20
24.35914369798044
 30
0.0
  0
VERTEX
  5
43A
  8
T8_DRILL
 10
1.933506722143296
 20
24.36043075361125
 30
0.0
  0
VERTEX
  5
43B
  8
T8_DRILL
 10
1.942424709165365
 20
24.36215579163074
 30
0.0
  0
VERTEX
  5
43C
  8
T8_DRILL
 10
1.951278727360933
 20
24.36432082278154
 30
0.0
  0
VERTEX
  5
43D
  8
T8_DRILL
 10
1.960052239985118
 20
24.36692785780633
 30
0.0
  0
VERTEX
  5
43E
  8
T8_DRILL
 10
1.968728710293035
 20
24.36997890744775
 30
0.0
  0
VERTEX
  5
43F
  8
T8_DRILL
 10
1.977291601539801
 20
24.37347598244845
 30
0.0
  0
VERTEX
  5
440
  8
T8_DRILL
 10
1.985724376980533
 20
24.3774210935511
 30
0.0
  0
VERTEX
  5
441
  8
T8_DRILL
 10
1.994010499870347
 20
24.38181625149834
 30
0.0
  0
VERTEX
  5
442
  8
T8_DRILL
 10
2.002133433464361
 20
24.38666346703285
 30
0.0
  0
VERTEX
  5
443
  8
T8_DRILL
 10
2.01007664101769
 20
24.39196475089726
 30
0.0
  0
VERTEX
  5
444
  8
T8_DRILL
 10
2.01782358578545
 20
24.39772211383423
 30
0.0
  0
VERTEX
  5
445
  8
T8_DRILL
 10
2.025269678763233
 20
24.4038636185838
 30
0.0
  0
VERTEX
  5
446
  8
T8_DRILL
 10
2.032320014948112
 20
24.41030496289432
 30
0.0
  0
VERTEX
  5
447
  8
T8_DRILL
 10
2.038972583597433
 20
24.41702961002088
 30
0.0
  0
VERTEX
  5
448
  8
T8_DRILL
 10
2.04522537396854
 20
24.42402102321861
 30
0.0
  0
VERTEX
  5
449
  8
T8_DRILL
 10
2.051076375318777
 20
24.43126266574262
 30
0.0
  0
VERTEX
  5
44A
  8
T8_DRILL
 10
2.056523576905489
 20
24.43873800084804
 30
0.0
  0
VERTEX
  5
44B
  8
T8_DRILL
 10
2.061564967986021
 20
24.44643049178998
 30
0.0
  0
VERTEX
  5
44C
  8
T8_DRILL
 10
2.066198537817717
 20
24.45432360182354
 30
0.0
  0
VERTEX
  5
44D
  8
T8_DRILL
 10
2.070422275657922
 20
24.46240079420386
 30
0.0
  0
VERTEX
  5
44E
  8
T8_DRILL
 10
2.07423417076398
 20
24.47064553218604
 30
0.0
  0
VERTEX
  5
44F
  8
T8_DRILL
 10
2.077632212393238
 20
24.47904127902521
 30
0.0
  0
VERTEX
  5
450
  8
T8_DRILL
 10
2.080614389803037
 20
24.48757149797648
 30
0.0
  0
VERTEX
  5
451
  8
T8_DRILL
 10
2.083178692250724
 20
24.49621965229497
 30
0.0
  0
VERTEX
  5
452
  8
T8_DRILL
 10
2.085323108993642
 20
24.5049692052358
 30
0.0
  0
VERTEX
  5
453
  8
T8_DRILL
 10
2.087045629289137
 20
24.51380362005407
 30
0.0
  0
VERTEX
  5
454
  8
T8_DRILL
 10
2.088344242394554
 20
24.5227063600049
 30
0.0
  0
VERTEX
  5
455
  8
T8_DRILL
 10
2.089216937567236
 20
24.53166088834342
 30
0.0
  0
VERTEX
  5
456
  8
T8_DRILL
 10
2.089661704064528
 20
24.54065066832475
 30
0.0
  0
VERTEX
  5
457
  8
T8_DRILL
 10
2.089676531143776
 20
24.54965916320399
 30
0.0
  0
VERTEX
  5
458
  8
T8_DRILL
 10
2.089259408062324
 20
24.55866983623626
 30
0.0
  0
VERTEX
  5
459
  8
T8_DRILL
 10
2.088408324077515
 20
24.56766615067668
 30
0.0
  0
VERTEX
  5
45A
  8
T8_DRILL
 10
2.087121268446695
 20
24.57663156978036
 30
0.0
  0
VERTEX
  5
45B
  8
T8_DRILL
 10
2.085396230427209
 20
24.58554955680243
 30
0.0
  0
VERTEX
  5
45C
  8
T8_DRILL
 10
2.083231199276401
 20
24.594403574998
 30
0.0
  0
VERTEX
  5
45D
  8
T8_DRILL
 10
2.080624164251616
 20
24.60317708762219
 30
0.0
  0
VERTEX
  5
45E
  8
T8_DRILL
 10
2.077573114610197
 20
24.61185355793011
 30
0.0
  0
VERTEX
  5
45F
  8
T8_DRILL
 10
2.074076039609491
 20
24.62041644917688
 30
0.0
  0
VERTEX
  5
460
  8
T8_DRILL
 10
2.070130928506842
 20
24.62884922461761
 30
0.0
  0
VERTEX
  5
461
  8
T8_DRILL
 10
2.065735770559593
 20
24.63713534750742
 30
0.0
  0
VERTEX
  5
462
  8
T8_DRILL
 10
2.06088855502509
 20
24.64525828110144
 30
0.0
  0
VERTEX
  5
463
  8
T8_DRILL
 10
2.055587271160677
 20
24.65320148865477
 30
0.0
  0
VERTEX
  5
464
  8
T8_DRILL
 10
2.0498299082237
 20
24.66094843342253
 30
0.0
  0
VERTEX
  5
465
  8
T8_DRILL
 10
2.043688771371241
 20
24.66839405665186
 30
0.0
  0
VERTEX
  5
466
  8
T8_DRILL
 10
2.037247748252907
 20
24.67544398272335
 30
0.0
  0
VERTEX
  5
467
  8
T8_DRILL
 10
2.030523377910544
 20
24.6820961979615
 30
0.0
  0
VERTEX
  5
468
  8
T8_DRILL
 10
2.023532199386002
 20
24.68834868869077
 30
0.0
  0
VERTEX
  5
469
  8
T8_DRILL
 10
2.016290751721128
 20
24.69419944123563
 30
0.0
  0
VERTEX
  5
46A
  8
T8_DRILL
 10
2.008815573957769
 20
24.69964644192055
 30
0.0
  0
VERTEX
  5
46B
  8
T8_DRILL
 10
2.001123205137772
 20
24.70468767707001
 30
0.0
  0
VERTEX
  5
46C
  8
T8_DRILL
 10
1.993230184302986
 20
24.70932113300848
 30
0.0
  0
VERTEX
  5
46D
  8
T8_DRILL
 10
1.985153050495259
 20
24.71354479606043
 30
0.0
  0
VERTEX
  5
46E
  8
T8_DRILL
 10
1.976908342756439
 20
24.71735665255033
 30
0.0
  0
VERTEX
  5
46F
  8
T8_DRILL
 10
1.968512600128372
 20
24.72075468880265
 30
0.0
  0
VERTEX
  5
470
  8
T8_DRILL
 10
1.959982361652907
 20
24.72373689114186
 30
0.0
  0
VERTEX
  5
471
  8
T8_DRILL
 10
1.951334166371891
 20
24.72630124589245
 30
0.0
  0
VERTEX
  5
472
  8
T8_DRILL
 10
1.942584553327173
 20
24.72844573937887
 30
0.0
  0
VERTEX
  5
473
  8
T8_DRILL
 10
1.933750061560599
 20
24.73016835792561
 30
0.0
  0
VERTEX
  5
474
  8
T8_DRILL
 10
1.924847230114018
 20
24.73146708785712
 30
0.0
  0
VERTEX
  5
475
  8
T8_DRILL
 10
1.915892598029276
 20
24.73233991549789
 30
0.0
  0
VERTEX
  5
476
  8
T8_DRILL
 10
1.906902704348224
 20
24.73278482717239
 30
0.0
  0
VERTEX
  5
477
  8
T8_DRILL
 10
1.897894088112706
 20
24.73279980920508
 30
0.0
  0
VERTEX
  5
478
  8
T8_DRILL
 10
1.888883288364573
 20
24.73238284792045
 30
0.0
  0
VERTEX
  5
479
  8
T8_DRILL
 10
1.87988684414567
 20
24.73153192964295
 30
0.0
  0
VERTEX
  5
47A
  8
T8_DRILL
 10
1.870921294497846
 20
24.73024504069707
 30
0.0
  0
VERTEX
  5
47B
  8
T8_DRILL
 10
1.862003178462948
 20
24.72852016740728
 30
0.0
  0
VERTEX
  5
47C
  8
T8_DRILL
 10
1.853149035082826
 20
24.72635529609803
 30
0.0
  0
VERTEX
  5
47D
  8
T8_DRILL
 10
1.844375403399325
 20
24.72374841309382
 30
0.0
  0
VERTEX
  5
47E
  8
T8_DRILL
 10
1.835698822454294
 20
24.72069750471911
 30
0.0
  0
VERTEX
  5
47F
  8
T8_DRILL
 10
1.82713583128958
 20
24.71720055729838
 30
0.0
  0
VERTEX
  5
480
  8
T8_DRILL
 10
1.818702968947032
 20
24.71325555715608
 30
0.0
  0
VERTEX
  5
481
  8
T8_DRILL
 10
1.810416774468496
 20
24.7088604906167
 30
0.0
  0
VERTEX
  5
482
  8
T8_DRILL
 10
1.802293786895821
 20
24.70401334400471
 30
0.0
  0
VERTEX
  5
483
  8
T8_DRILL
 10
1.794350545270854
 20
24.69871210364458
 30
0.0
  0
SEQEND
  5
52C
  8
T8_DRILL
  0
POLYLINE
  5
77
  8
T8_DRILL
 66
     1
 10
0.0
 20
0.0
 30
0.0
 70
     1
  0
VERTEX
  5
484
  8
T8_DRILL
 10
1.786603588635444
 20
66.1806547558608
 30
0.0
  0
VERTEX
  5
485
  8
T8_DRILL
 10
1.77915750752531
 20
66.17451323595806
 30
0.0
  0
VERTEX
  5
486
  8
T8_DRILL
 10
1.772107205412068
 20
66.16807184814327
 30
0.0
  0
VERTEX
  5
487
  8
T8_DRILL
 10
1.765454690741409
 20
66.1613471320942
 30
0.0
  0
VERTEX
  5
488
  8
T8_DRILL
 10
1.759201971959023
 20
66.1543556274886
 30
0.0
  0
VERTEX
  5
489
  8
T8_DRILL
 10
1.753351057510602
 20
66.14711387400423
 30
0.0
  0
VERTEX
  5
48A
  8
T8_DRILL
 10
1.747903955841837
 20
66.13963841131884
 30
0.0
  0
VERTEX
  5
48B
  8
T8_DRILL
 10
1.742862675398419
 20
66.1319457791102
 30
0.0
  0
VERTEX
  5
48C
  8
T8_DRILL
 10
1.738229224626039
 20
66.12405251705607
 30
0.0
  0
VERTEX
  5
48D
  8
T8_DRILL
 10
1.734005611970388
 20
66.11597516483417
 30
0.0
  0
VERTEX
  5
48E
  8
T8_DRILL
 10
1.730193845877158
 20
66.1077302621223
 30
0.0
  0
VERTEX
  5
48F
  8
T8_DRILL
 10
1.726795934792039
 20
66.09933434859818
 30
0.0
  0
VERTEX
  5
490
  8
T8_DRILL
 10
1.723813887160722
 20
66.0908039639396
 30
0.0
  0
VERTEX
  5
491
  8
T8_DRILL
 10
1.721249711428899
 20
66.0821556478243
 30
0.0
  0
VERTEX
  5
492
  8
T8_DRILL
 10
1.719105416042261
 20
66.07340593993004
 30
0.0
  0
VERTEX
  5
493
  8
T8_DRILL
 10
1.717383009446498
 20
66.06457137993456
 30
0.0
  0
VERTEX
  5
494
  8
T8_DRILL
 10
1.716084500087302
 20
66.05566850751563
 30
0.0
  0
VERTEX
  5
495
  8
T8_DRILL
 10
1.715211896410364
 20
66.04671386235103
 30
0.0
  0
VERTEX
  5
496
  8
T8_DRILL
 10
1.714767206861375
 20
66.03772398411846
 30
0.0
  0
VERTEX
  5
497
  8
T8_DRILL
 10
1.714752439886026
 20
66.02871541249573
 30
0.0
  0
VERTEX
  5
498
  8
T8_DRILL
 10
1.715169603930009
 20
66.01970468716054
 30
0.0
  0
VERTEX
  5
499
  8
T8_DRILL
 10
1.716020707439014
 20
66.01070834779071
 30
0.0
  0
VERTEX
  5
49A
  8
T8_DRILL
 10
1.717307758858732
 20
66.00174293406394
 30
0.0
  0
VERTEX
  5
49B
  8
T8_DRILL
 10
1.719032766634854
 20
65.99282498565805
 30
0.0
  0
VERTEX
  5
49C
  8
T8_DRILL
 10
1.721197739213073
 20
65.98397104225073
 30
0.0
  0
VERTEX
  5
49D
  8
T8_DRILL
 10
1.723804685039078
 20
65.97519764351976
 30
0.0
  0
VERTEX
  5
49E
  8
T8_DRILL
 10
1.726855612558561
 20
65.96652132914292
 30
0.0
  0
VERTEX
  5
49F
  8
T8_DRILL
 10
1.730352530217212
 20
65.95795863879795
 30
0.0
  0
VERTEX
  5
4A0
  8
T8_DRILL
 10
1.734297446460724
 20
65.9495261121626
 30
0.0
  0
VERTEX
  5
4A1
  8
T8_DRILL
 10
1.738692369734787
 20
65.94124028891463
 30
0.0
  0
VERTEX
  5
4A2
  8
T8_DRILL
 10
1.743539308485092
 20
65.93311770873179
 30
0.0
  0
VERTEX
  5
4A3
  8
T8_DRILL
 10
1.74884027115733
 20
65.92517491129183
 30
0.0
  0
VERTEX
  5
4A4
  8
T8_DRILL
 10
1.754597266197193
 20
65.91742843627253
 30
0.0
  0
VERTEX
  5
4A5
  8
T8_DRILL
 10
1.760738770946767
 20
65.90998234329474
 30
0.0
  0
VERTEX
  5
4A6
  8
T8_DRILL
 10
1.767180115257277
 20
65.90293200710985
 30
0.0
  0
VERTEX
  5
4A7
  8
T8_DRILL
 10
1.773904762383837
 20
65.89627943846054
 30
0.0
  0
VERTEX
  5
4A8
  8
T8_DRILL
 10
1.780896175581566
 20
65.89002664808943
 30
0.0
  0
VERTEX
  5
4A9
  8
T8_DRILL
 10
1.78813781810558
 20
65.88417564673921
 30
0.0
  0
VERTEX
  5
4AA
  8
T8_DRILL
 10
1.795613153210994
 20
65.87872844515249
 30
0.0
  0
VERTEX
  5
4AB
  8
T8_DRILL
 10
1.803305644152926
 20
65.87368705407195
 30
0.0
  0
VERTEX
  5
4AC
  8
T8_DRILL
 10
1.811198754186492
 20
65.86905348424025
 30
0.0
  0
VERTEX
  5
4AD
  8
T8_DRILL
 10
1.819275946566809
 20
65.86482974640005
 30
0.0
  0
VERTEX
  5
4AE
  8
T8_DRILL
 10
1.827520684548993
 20
65.86101785129398
 30
0.0
  0
VERTEX
  5
4AF
  8
T8_DRILL
 10
1.835916431388162
 20
65.85761980966473
 30
0.0
  0
VERTEX
  5
4B0
  8
T8_DRILL
 10
1.84444665033943
 20
65.85463763225492
 30
0.0
  0
VERTEX
  5
4B1
  8
T8_DRILL
 10
1.853094804657916
 20
65.85207332980724
 30
0.0
  0
VERTEX
  5
4B2
  8
T8_DRILL
 10
1.861844357598736
 20
65.84992891306432
 30
0.0
  0
VERTEX
  5
4B3
  8
T8_DRILL
 10
1.870678772417006
 20
65.84820639276882
 30
0.0
  0
VERTEX
  5
4B4
  8
T8_DRILL
 10
1.879581512367843
 20
65.84690777966341
 30
0.0
  0
VERTEX
  5
4B5
  8
T8_DRILL
 10
1.888536040706363
 20
65.84603508449072
 30
0.0
  0
VERTEX
  5
4B6
  8
T8_DRILL
 10
1.897525820687683
 20
65.84559031799343
 30
0.0
  0
VERTEX
  5
4B7
  8
T8_DRILL
 10
1.90653431556692
 20
65.84557549091417
 30
0.0
  0
VERTEX
  5
4B8
  8
T8_DRILL
 10
1.91554498859919
 20
65.84599261399563
 30
0.0
  0
VERTEX
  5
4B9
  8
T8_DRILL
 10
1.92454130303961
 20
65.84684369798043
 30
0.0
  0
VERTEX
  5
4BA
  8
T8_DRILL
 10
1.933506722143296
 20
65.84813075361126
 30
0.0
  0
VERTEX
  5
4BB
  8
T8_DRILL
 10
1.942424709165365
 20
65.84985579163074
 30
0.0
  0
VERTEX
  5
4BC
  8
T8_DRILL
 10
1.951278727360933
 20
65.85202082278155
 30
0.0
  0
VERTEX
  5
4BD
  8
T8_DRILL
 10
1.960052239985118
 20
65.85462785780634
 30
0.0
  0
VERTEX
  5
4BE
  8
T8_DRILL
 10
1.968728710293035
 20
65.85767890744775
 30
0.0
  0
VERTEX
  5
4BF
  8
T8_DRILL
 10
1.977291601539801
 20
65.86117598244844
 30
0.0
  0
VERTEX
  5
4C0
  8
T8_DRILL
 10
1.985724376980533
 20
65.8651210935511
 30
0.0
  0
VERTEX
  5
4C1
  8
T8_DRILL
 10
1.994010499870347
 20
65.86951625149834
 30
0.0
  0
VERTEX
  5
4C2
  8
T8_DRILL
 10
2.002133433464361
 20
65.87436346703284
 30
0.0
  0
VERTEX
  5
4C3
  8
T8_DRILL
 10
2.01007664101769
 20
65.87966475089726
 30
0.0
  0
VERTEX
  5
4C4
  8
T8_DRILL
 10
2.01782358578545
 20
65.88542211383424
 30
0.0
  0
VERTEX
  5
4C5
  8
T8_DRILL
 10
2.025269678763233
 20
65.8915636185838
 30
0.0
  0
VERTEX
  5
4C6
  8
T8_DRILL
 10
2.032320014948112
 20
65.89800496289432
 30
0.0
  0
VERTEX
  5
4C7
  8
T8_DRILL
 10
2.038972583597433
 20
65.9047296100209
 30
0.0
  0
VERTEX
  5
4C8
  8
T8_DRILL
 10
2.04522537396854
 20
65.91172102321862
 30
0.0
  0
VERTEX
  5
4C9
  8
T8_DRILL
 10
2.051076375318777
 20
65.91896266574264
 30
0.0
  0
VERTEX
  5
4CA
  8
T8_DRILL
 10
2.056523576905489
 20
65.92643800084805
 30
0.0
  0
VERTEX
  5
4CB
  8
T8_DRILL
 10
2.061564967986021
 20
65.93413049178997
 30
0.0
  0
VERTEX
  5
4CC
  8
T8_DRILL
 10
2.066198537817717
 20
65.94202360182355
 30
0.0
  0
VERTEX
  5
4CD
  8
T8_DRILL
 10
2.070422275657922
 20
65.95010079420388
 30
0.0
  0
VERTEX
  5
4CE
  8
T8_DRILL
 10
2.07423417076398
 20
65.95834553218606
 30
0.0
  0
VERTEX
  5
4CF
  8
T8_DRILL
 10
2.077632212393238
 20
65.96674127902524
 30
0.0
  0
VERTEX
  5
4D0
  8
T8_DRILL
 10
2.080614389803037
 20
65.97527149797651
 30
0.0
  0
VERTEX
  5
4D1
  8
T8_DRILL
 10
2.083178692250724
 20
65.98391965229499
 30
0.0
  0
VERTEX
  5
4D2
  8
T8_DRILL
 10
2.085323108993642
 20
65.99266920523581
 30
0.0
  0
VERTEX
  5
4D3
  8
T8_DRILL
 10
2.087045629289137
 20
66.00150362005408
 30
0.0
  0
VERTEX
  5
4D4
  8
T8_DRILL
 10
2.088344242394554
 20
66.01040636000492
 30
0.0
  0
VERTEX
  5
4D5
  8
T8_DRILL
 10
2.089216937567236
 20
66.01936088834344
 30
0.0
  0
VERTEX
  5
4D6
  8
T8_DRILL
 10
2.089661704064528
 20
66.02835066832476
 30
0.0
  0
VERTEX
  5
4D7
  8
T8_DRILL
 10
2.089676531143776
 20
66.037359163204
 30
0.0
  0
VERTEX
  5
4D8
  8
T8_DRILL
 10
2.089259408062324
 20
66.04636983623627
 30
0.0
  0
VERTEX
  5
4D9
  8
T8_DRILL
 10
2.088408324077515
 20
66.05536615067669
 30
0.0
  0
VERTEX
  5
4DA
  8
T8_DRILL
 10
2.087121268446695
 20
66.06433156978038
 30
0.0
  0
VERTEX
  5
4DB
  8
T8_DRILL
 10
2.085396230427209
 20
66.07324955680245
 30
0.0
  0
VERTEX
  5
4DC
  8
T8_DRILL
 10
2.083231199276401
 20
66.08210357499802
 30
0.0
  0
VERTEX
  5
4DD
  8
T8_DRILL
 10
2.080624164251616
 20
66.0908770876222
 30
0.0
  0
VERTEX
  5
4DE
  8
T8_DRILL
 10
2.077573114610197
 20
66.09955355793011
 30
0.0
  0
VERTEX
  5
4DF
  8
T8_DRILL
 10
2.074076039609491
 20
66.10811644917688
 30
0.0
  0
VERTEX
  5
4E0
  8
T8_DRILL
 10
2.070130928506842
 20
66.11654922461761
 30
0.0
  0
VERTEX
  5
4E1
  8
T8_DRILL
 10
2.065735770559593
 20
66.12483534750744
 30
0.0
  0
VERTEX
  5
4E2
  8
T8_DRILL
 10
2.06088855502509
 20
66.13295828110145
 30
0.0
  0
VERTEX
  5
4E3
  8
T8_DRILL
 10
2.055587271160677
 20
66.14090148865478
 30
0.0
  0
VERTEX
  5
4E4
  8
T8_DRILL
 10
2.0498299082237
 20
66.14864843342254
 30
0.0
  0
VERTEX
  5
4E5
  8
T8_DRILL
 10
2.043688771371241
 20
66.15609405665185
 30
0.0
  0
VERTEX
  5
4E6
  8
T8_DRILL
 10
2.037247748252907
 20
66.16314398272337
 30
0.0
  0
VERTEX
  5
4E7
  8
T8_DRILL
 10
2.030523377910544
 20
66.1697961979615
 30
0.0
  0
VERTEX
  5
4E8
  8
T8_DRILL
 10
2.023532199386002
 20
66.17604868869077
 30
0.0
  0
VERTEX
  5
4E9
  8
T8_DRILL
 10
2.016290751721128
 20
66.18189944123564
 30
0.0
  0
VERTEX
  5
4EA
  8
T8_DRILL
 10
2.008815573957769
 20
66.18734644192055
 30
0.0
  0
VERTEX
  5
4EB
  8
T8_DRILL
 10
2.001123205137772
 20
66.19238767707
 30
0.0
  0
VERTEX
  5
4EC
  8
T8_DRILL
 10
1.993230184302986
 20
66.19702113300849
 30
0.0
  0
VERTEX
  5
4ED
  8
T8_DRILL
 10
1.985153050495259
 20
66.20124479606045
 30
0.0
  0
VERTEX
  5
4EE
  8
T8_DRILL
 10
1.976908342756439
 20
66.20505665255034
 30
0.0
  0
VERTEX
  5
4EF
  8
T8_DRILL
 10
1.968512600128372
 20
66.20845468880268
 30
0.0
  0
VERTEX
  5
4F0
  8
T8_DRILL
 10
1.959982361652907
 20
66.21143689114189
 30
0.0
  0
VERTEX
  5
4F1
  8
T8_DRILL
 10
1.951334166371891
 20
66.21400124589246
 30
0.0
  0
VERTEX
  5
4F2
  8
T8_DRILL
 10
1.942584553327173
 20
66.21614573937889
 30
0.0
  0
VERTEX
  5
4F3
  8
T8_DRILL
 10
1.933750061560599
 20
66.21786835792562
 30
0.0
  0
VERTEX
  5
4F4
  8
T8_DRILL
 10
1.924847230114018
 20
66.21916708785713
 30
0.0
  0
VERTEX
  5
4F5
  8
T8_DRILL
 10
1.915892598029276
 20
66.2200399154979
 30
0.0
  0
VERTEX
  5
4F6
  8
T8_DRILL
 10
1.906902704348224
 20
66.2204848271724
 30
0.0
  0
VERTEX
  5
4F7
  8
T8_DRILL
 10
1.897894088112706
 20
66.22049980920508
 30
0.0
  0
VERTEX
  5
4F8
  8
T8_DRILL
 10
1.888883288364573
 20
66.22008284792045
 30
0.0
  0
VERTEX
  5
4F9
  8
T8_DRILL
 10
1.87988684414567
 20
66.21923192964297
 30
0.0
  0
VERTEX
  5
4FA
  8
T8_DRILL
 10
1.870921294497846
 20
66.21794504069709
 30
0.0
  0
VERTEX
  5
4FB
  8
T8_DRILL
 10
1.862003178462948
 20
66.21622016740729
 30
0.0
  0
VERTEX
  5
4FC
  8
T8_DRILL
 10
1.853149035082826
 20
66.21405529609805
 30
0.0
  0
VERTEX
  5
4FD
  8
T8_DRILL
 10
1.844375403399325
 20
66.21144841309385
 30
0.0
  0
VERTEX
  5
4FE
  8
T8_DRILL
 10
1.835698822454294
 20
66.20839750471913
 30
0.0
  0
VERTEX
  5
4FF
  8
T8_DRILL
 10
1.82713583128958
 20
66.20490055729839
 30
0.0
  0
VERTEX
  5
500
  8
T8_DRILL
 10
1.818702968947032
 20
66.20095555715609
 30
0.0
  0
VERTEX
  5
501
  8
T8_DRILL
 10
1.810416774468496
 20
66.19656049061672
 30
0.0
  0
VERTEX
  5
502
  8
T8_DRILL
 10
1.802293786895821
 20
66.19171334400473
 30
0.0
  0
VERTEX
  5
503
  8
T8_DRILL
 10
1.794350545270854
 20
66.18641210364459
 30
0.0
  0
SEQEND
  5
52D
  8
T8_DRILL
  0
POLYLINE
  5
79
  8
T3_POCKET
 66
     1
 10
0.0
 20
0.0
 30
0.0
 70
     1
  0
VERTEX
  5
504
  8
T3_POCKET
 10
1.527214455462937
 20
90.31056382609343
 30
0.0
 42
0.4142135623730951
  0
VERTEX
  5
505
  8
T3_POCKET
 10
2.277214455462959
 20
89.56056382609343
 30
0.0
 42
0.4142135623730951
  0
VERTEX
  5
506
  8
T3_POCKET
 10
3.027214455463001
 20
90.31056382609343
 30
0.0
 42
0.4142135623730951
  0
VERTEX
  5
507
  8
T3_POCKET
 10
2.277214455462952
 20
91.0605638260934
 30
0.0
 42
0.4142135623730951
  0
SEQEND
  5
52E
  8
T3_POCKET
  0
POLYLINE
  5
7B
  8
T3_PROFILE_INSIDE
 66
     1
 10
0.0
 20
0.0
 30
0.0
  0
VERTEX
  5
508
  8
T3_PROFILE_INSIDE
 10
0.1029484920864263
 20
92.32577514516582
 30
0.0
  0
VERTEX
  5
509
  8
T3_PROFILE_INSIDE
 10
2.654662235879576
 20
91.50237113478191
 30
0.0
 42
-0.3269702414499648
  0
VERTEX
  5
50A
  8
T3_PROFILE_INSIDE
 10
3.527214455463008
 20
90.3106425662509
 30
0.0
 42
-0.3269702414499648
  0
VERTEX
  5
50B
  8
T3_PROFILE_INSIDE
 10
2.654662235879561
 20
89.11891399771987
 30
0.0
  0
VERTEX
  5
50C
  8
T3_PROFILE_INSIDE
 10
0.0973127626790085
 20
88.2936884048688
 30
0.0
  0
SEQEND
  5
52F
  8
T3_PROFILE_INSIDE
  0
POLYLINE
  5
7D
  8
T3_PROFILE_OUTSIDE
 66
     1
 10
0.0
 20
0.0
 30
0.0
  0
VERTEX
  5
50D
  8
T3_PROFILE_OUTSIDE
 10
0.2892186412860749
 20
7.140080427711679
 30
0.0
  0
VERTEX
  5
50E
  8
T3_PROFILE_OUTSIDE
 10
0.7700234276489706
 20
6.529902022968946
 30
0.0
  0
VERTEX
  5
50F
  8
T3_PROFILE_OUTSIDE
 10
0.4157432660515763
 20
6.25243760685909
 30
0.0
  0
VERTEX
  5
510
  8
T3_PROFILE_OUTSIDE
 10
2.682718050109699
 20
3.357883973150189
 30
0.0
  0
VERTEX
  5
511
  8
T3_PROFILE_OUTSIDE
 10
3.036983795033628
 20
3.635339671607335
 30
0.0
  0
VERTEX
  5
512
  8
T3_PROFILE_OUTSIDE
 10
3.785337581705775
 20
2.6743
 30
0.0
  0
SEQEND
  5
530
  8
T3_PROFILE_OUTSIDE
  0
POLYLINE
  5
7E
  8
T3_PROFILE_OUTSIDE
 66
     1
 10
0.0
 20
0.0
 30
0.0
  0
VERTEX
  5
513
  8
T3_PROFILE_OUTSIDE
 10
3.527536427329537
 20
41.9395397585241
 30
0.0
  0
VERTEX
  5
514
  8
T3_PROFILE_OUTSIDE
 10
3.036976095619385
 20
42.56073967160735
 30
0.0
  0
VERTEX
  5
515
  8
T3_PROFILE_OUTSIDE
 10
3.391256257216781
 20
42.83820408771721
 30
0.0
  0
VERTEX
  5
516
  8
T3_PROFILE_OUTSIDE
 10
1.124281473158659
 20
45.73275772142609
 30
0.0
  0
VERTEX
  5
517
  8
T3_PROFILE_OUTSIDE
 10
0.7700157282347302
 20
45.45530202296894
 30
0.0
  0
VERTEX
  5
518
  8
T3_PROFILE_OUTSIDE
 10
0.011846337625034
 20
46.43022892168916
 30
0.0
  0
SEQEND
  5
531
  8
T3_PROFILE_OUTSIDE
  0
POLYLINE
  5
7F
  8
T3_PROFILE_OUTSIDE
 66
     1
 10
0.0
 20
0.0
 30
0.0
  0
VERTEX
  5
519
  8
T3_PROFILE_OUTSIDE
 10
0.3107511630654987
 20
48.60796407846968
 30
0.0
  0
VERTEX
  5
51A
  8
T3_PROFILE_OUTSIDE
 10
0.7700157282347355
 20
48.01760202296892
 30
0.0
  0
VERTEX
  5
51B
  8
T3_PROFILE_OUTSIDE
 10
0.4157355666373412
 20
47.74013760685906
 30
0.0
  0
VERTEX
  5
51C
  8
T3_PROFILE_OUTSIDE
 10
2.682710350695462
 20
44.84558397315018
 30
0.0
  0
VERTEX
  5
51D
  8
T3_PROFILE_OUTSIDE
 10
3.036976095619391
 20
45.12303967160732
 30
0.0
  0
VERTEX
  5
51E
  8
T3_PROFILE_OUTSIDE
 10
3.79085734497947
 20
44.18844273088568
 30
0.0
  0
SEQEND
  5
532
  8
T3_PROFILE_OUTSIDE
  0
POLYLINE
  5
80
  8
T3_PROFILE_OUTSIDE
 66
     1
 10
0.0
 20
0.0
 30
0.0
  0
VERTEX
  5
51F
  8
T3_PROFILE_OUTSIDE
 10
3.494339745030182
 20
83.4605173593168
 30
0.0
  0
VERTEX
  5
520
  8
T3_PROFILE_OUTSIDE
 10
3.036976095619385
 20
84.04843967160737
 30
0.0
  0
VERTEX
  5
521
  8
T3_PROFILE_OUTSIDE
 10
3.391256257216781
 20
84.32590408771723
 30
0.0
  0
VERTEX
  5
522
  8
T3_PROFILE_OUTSIDE
 10
1.124281473158659
 20
87.22045772142611
 30
0.0
  0
VERTEX
  5
523
  8
T3_PROFILE_OUTSIDE
 10
0.7700157282347302
 20
86.94300202296897
 30
0.0
  0
VERTEX
  5
524
  8
T3_PROFILE_OUTSIDE
 10
0.0
 20
87.92273939624944
 30
0.0
  0
SEQEND
  5
533
  8
T3_PROFILE_OUTSIDE
  0
ENDSEC
  0
EOF
